<?xml version="1.0" encoding="UTF-8" standalone="no"?>
<!-- Created with Inkscape (http://www.inkscape.org/) -->

<svg
   xmlns:dc="http://purl.org/dc/elements/1.1/"
   xmlns:cc="http://creativecommons.org/ns#"
   xmlns:rdf="http://www.w3.org/1999/02/22-rdf-syntax-ns#"
   xmlns:svg="http://www.w3.org/2000/svg"
   xmlns="http://www.w3.org/2000/svg"
   xmlns:sodipodi="http://sodipodi.sourceforge.net/DTD/sodipodi-0.dtd"
   xmlns:inkscape="http://www.inkscape.org/namespaces/inkscape"
   id="svg2"
   version="1.1"
   inkscape:version="0.91 r13725"
   xml:space="preserve"
   width="401.76117"
   height="549.53461"
   viewBox="0 0 401.76117 549.53461"
   sodipodi:docname="Simple Rocket.svg"><metadata
     id="metadata8"><rdf:RDF><cc:Work
         rdf:about=""><dc:format>image/svg+xml</dc:format><dc:type
           rdf:resource="http://purl.org/dc/dcmitype/StillImage" /><dc:title></dc:title></cc:Work></rdf:RDF></metadata><defs
     id="defs6" /><sodipodi:namedview
     pagecolor="#ffffff"
     bordercolor="#666666"
     borderopacity="1"
     objecttolerance="10"
     gridtolerance="10"
     guidetolerance="10"
     inkscape:pageopacity="0"
     inkscape:pageshadow="2"
     inkscape:window-width="2253"
     inkscape:window-height="1617"
     id="namedview4"
     showgrid="false"
     inkscape:zoom="3.4356344"
     inkscape:cx="168.84655"
     inkscape:cy="296.13381"
     inkscape:window-x="0"
     inkscape:window-y="33"
     inkscape:window-maximized="0"
     inkscape:current-layer="g10" /><g
     id="g10"
     inkscape:groupmode="layer"
     inkscape:label="Simple Rocket"
     transform="matrix(1.25,0,0,-1.25,0,549.53461)"><g
       id="g12"><g
         id="g14"
         transform="matrix(1,0,0,-1,0,439.62769)"><path
           d="m 291.242,64.793 c 0,27.926 -22.637,50.559 -50.558,50.559 -27.922,0 -50.559,-22.633 -50.559,-50.559 0,-27.922 22.637,-50.559 50.559,-50.559 27.921,0 50.558,22.637 50.558,50.559 z"
           style="fill:none;stroke:#0000ff;stroke-width:0.0283464;stroke-linecap:butt;stroke-linejoin:miter;stroke-miterlimit:4;stroke-dasharray:none;stroke-opacity:1"
           id="path16"
           inkscape:connector-curvature="0" /></g><g
         id="g18"
         transform="matrix(1,0,0,-1,0,439.62769)"><path
           d="m 257.773,25.25 -17.074,29.602 -5.324,-9.25 c 1.012,-1.739 1.598,-3.766 1.598,-5.926 0,-6.512 -5.27,-11.801 -11.774,-11.801 -6.504,0 -11.773,5.289 -11.773,11.801 0,6.512 5.269,11.801 11.773,11.801 0.707,0 1.403,-0.079 2.074,-0.2 l 5.051,8.774 -34.648,0 0,9.824 34.523,0 -4.824,8.352 c -0.453,-0.055 -0.91,-0.075 -1.375,-0.075 -6.504,0 -11.777,5.262 -11.777,11.774 0,6.512 5.273,11.801 11.777,11.801 6.5,0 11.773,-5.289 11.773,-11.801 0,-2.434 -0.761,-4.672 -2.023,-6.551 l 0,-0.023 4.949,-8.551 17.199,29.777 8.5,-4.926 -17.199,-29.777 10.301,0 c 1.805,4.195 5.977,7.125 10.824,7.125 6.504,0 11.774,-5.285 11.774,-11.797 0,-6.512 -5.27,-11.801 -11.774,-11.801 -4.656,0 -8.664,2.719 -10.574,6.649 l -10.676,0 17.227,-29.875 -8.528,-4.926 z"
           style="fill:none;stroke:#0000ff;stroke-width:0.0283464;stroke-linecap:butt;stroke-linejoin:miter;stroke-miterlimit:4;stroke-dasharray:none;stroke-opacity:1"
           id="path20"
           inkscape:connector-curvature="0" /></g><g
         id="g22"
         transform="matrix(0.964085,0,0,-1,0,439.62769)"><path
           d="m 203.844,242.387 c 0,7.543 -6.332,13.656 -14.144,13.656 -7.808,0 -14.141,-6.113 -14.141,-13.656 0,-7.543 6.333,-13.657 14.141,-13.657 7.812,0 14.144,6.114 14.144,13.657 z"
           style="fill:none;stroke:#0000ff;stroke-width:0.0288696;stroke-linecap:butt;stroke-linejoin:miter;stroke-miterlimit:4;stroke-dasharray:none;stroke-opacity:1"
           id="path24"
           inkscape:connector-curvature="0" /></g><g
         id="g26"
         transform="matrix(0.964085,0,0,-1,0,439.62769)"><path
           d="m 206.583,206.059 c 0,8.265 -6.94,14.968 -15.502,14.968 -8.561,0 -15.502,-6.703 -15.502,-14.968 0,-8.266 6.941,-14.965 15.502,-14.965 8.562,0 15.502,6.699 15.502,14.965 z"
           style="fill:none;stroke:#0000ff;stroke-width:0.0288696;stroke-linecap:butt;stroke-linejoin:miter;stroke-miterlimit:4;stroke-dasharray:none;stroke-opacity:1"
           id="path28"
           inkscape:connector-curvature="0" /></g><g
         id="g30"
         transform="matrix(0.964085,0,0,-1,0,439.62769)"><path
           d="m 205.34,169.477 c 0,7.941 -6.666,14.375 -14.887,14.375 -8.225,0 -14.89,-6.434 -14.89,-14.375 0,-7.938 6.665,-14.375 14.89,-14.375 8.221,0 14.887,6.437 14.887,14.375 z"
           style="fill:none;stroke:#0000ff;stroke-width:0.0288696;stroke-linecap:butt;stroke-linejoin:miter;stroke-miterlimit:4;stroke-dasharray:none;stroke-opacity:1"
           id="path32"
           inkscape:connector-curvature="0" /></g><g
         id="g34"
         transform="matrix(1,0,0,-1,0,439.62769)"><path
           d="m 155.023,24.578 0,47.36 8.426,0 0,93.539 -8.426,0 0,47.074 8.426,0 0,93.543 -8.426,0 0,47.359 5.825,0 0,0.125 15.75,0 c 1.457,-2.476 2.875,-4.957 4.25,-7.476 0.359,0.55 0.711,1.089 1.078,1.601 l 51.398,71.723 c 6.656,9.285 12.02,7.551 12,-3.875 l -0.074,-40.375 c -0.02,-11.422 -5.395,-28.09 -12.051,-37.375 l -36.875,-46.973 c 3.149,-18.699 8.149,-53.586 8.149,-85.527 0,-96.68 -27.68,-165.375 -41.024,-178.399 l 0,-2.324 -2.949,0 c -0.914,0 -0.402,-9.992 -3.027,-10.074 -2.625,-0.078 -1.535,10.074 -2.45,10.074 z"
           style="fill:none;stroke:#0000ff;stroke-width:0.0283464;stroke-linecap:butt;stroke-linejoin:miter;stroke-miterlimit:4;stroke-dasharray:none;stroke-opacity:1"
           id="path36"
           inkscape:connector-curvature="0" /></g><g
         id="g38"
         transform="matrix(-0.964085,0,0,-1,0,439.62769)"><path
           d="m -175.502,135.754 c 0,6.629 -5.567,12.004 -12.435,12.004 -6.868,0 -12.435,-5.375 -12.435,-12.004 0,-6.633 5.567,-12.008 12.435,-12.008 6.868,0 12.435,5.375 12.435,12.008 z"
           style="fill:none;stroke:#0000ff;stroke-width:0.0288696;stroke-linecap:butt;stroke-linejoin:miter;stroke-miterlimit:4;stroke-dasharray:none;stroke-opacity:1"
           id="path40"
           inkscape:connector-curvature="0" /></g><g
         id="g42"
         transform="matrix(1,0,0,-1,0,439.62769)"><path
           d="m 292.02,166.906 c 0,22.625 -18.34,40.969 -40.969,40.969 -22.625,0 -40.969,-18.344 -40.969,-40.969 0,-22.629 18.344,-40.972 40.969,-40.972 22.629,0 40.969,18.343 40.969,40.972 z"
           style="fill:none;stroke:#0000ff;stroke-width:0.0283464;stroke-linecap:butt;stroke-linejoin:miter;stroke-miterlimit:4;stroke-dasharray:none;stroke-opacity:1"
           id="path44"
           inkscape:connector-curvature="0" /></g><g
         id="g46"
         transform="matrix(1,0,0,-1,0,439.62769)"><path
           d="m 263.422,135.699 -15.274,26.473 -30.5,0 0,9.824 30.575,0 15.226,26.402 8.524,-4.902 -15.274,-26.449 15.25,-26.426 -8.527,-4.922 z"
           style="fill:none;stroke:#0000ff;stroke-width:0.0283464;stroke-linecap:butt;stroke-linejoin:miter;stroke-miterlimit:4;stroke-dasharray:none;stroke-opacity:1"
           id="path48"
           inkscape:connector-curvature="0" /></g><g
         id="g50"
         transform="matrix(-0.964062,0,0,-1,0,439.62769)"><path
           d="m -239.717,146.68 c 0,4.656 -3.91,8.429 -8.731,8.429 -4.826,0 -8.736,-3.773 -8.736,-8.429 0,-4.657 3.91,-8.434 8.736,-8.434 4.821,0 8.731,3.777 8.731,8.434 z"
           style="fill:none;stroke:#0000ff;stroke-width:0.02887;stroke-linecap:butt;stroke-linejoin:miter;stroke-miterlimit:4;stroke-dasharray:none;stroke-opacity:1"
           id="path52"
           inkscape:connector-curvature="0" /></g><g
         id="g54"
         transform="matrix(-0.964062,0,0,-1,0,439.62769)"><path
           d="m -277.265,167.25 c 0,4.656 -3.906,8.43 -8.732,8.43 -4.822,0 -8.732,-3.774 -8.732,-8.43 0,-4.656 3.91,-8.434 8.732,-8.434 4.826,0 8.732,3.778 8.732,8.434 z"
           style="fill:none;stroke:#0000ff;stroke-width:0.02887;stroke-linecap:butt;stroke-linejoin:miter;stroke-miterlimit:4;stroke-dasharray:none;stroke-opacity:1"
           id="path56"
           inkscape:connector-curvature="0" /></g><g
         id="g58"
         transform="matrix(-0.964062,0,0,-1,0,439.62769)"><path
           d="m -239.494,186.824 c 0,4.656 -3.91,8.434 -8.731,8.434 -4.826,0 -8.732,-3.778 -8.732,-8.434 0,-4.656 3.906,-8.429 8.732,-8.429 4.821,0 8.731,3.773 8.731,8.429 z"
           style="fill:none;stroke:#0000ff;stroke-width:0.02887;stroke-linecap:butt;stroke-linejoin:miter;stroke-miterlimit:4;stroke-dasharray:none;stroke-opacity:1"
           id="path60"
           inkscape:connector-curvature="0" /></g><g
         id="g62"
         transform="matrix(-0.90098,0,0,-1,0,439.62769)"><path
           d="m -288.965,76.52 c 0,0.003 0,0.003 0,0.003 0,0 0,0 0,-0.003 0,0 0,0 0,0 0,0 0,0 0,0 z"
           style="fill:none;stroke:#0000ff;stroke-width:0.0298635;stroke-linecap:butt;stroke-linejoin:miter;stroke-miterlimit:4;stroke-dasharray:none;stroke-opacity:1"
           id="path64"
           inkscape:connector-curvature="0" /></g><g
         id="g66"
         transform="matrix(-0.964085,0,0,-1,0,439.62769)"><path
           d="m -175.458,107.68 c 0,4.656 -3.91,8.429 -8.731,8.429 -4.822,0 -8.732,-3.773 -8.732,-8.429 0,-4.657 3.91,-8.43 8.732,-8.43 4.821,0 8.731,3.773 8.731,8.43 z"
           style="fill:none;stroke:#0000ff;stroke-width:0.0288696;stroke-linecap:butt;stroke-linejoin:miter;stroke-miterlimit:4;stroke-dasharray:none;stroke-opacity:1"
           id="path68"
           inkscape:connector-curvature="0" /></g><g
         id="g70"
         transform="matrix(-0.964085,0,0,-1,0,439.62769)"><path
           d="m -175.385,85.742 c 0,3.43 -2.877,6.207 -6.426,6.207 -3.549,0 -6.426,-2.777 -6.426,-6.207 0,-3.426 2.877,-6.203 6.426,-6.203 3.549,0 6.426,2.777 6.426,6.203 z"
           style="fill:none;stroke:#0000ff;stroke-width:0.0288696;stroke-linecap:butt;stroke-linejoin:miter;stroke-miterlimit:4;stroke-dasharray:none;stroke-opacity:1"
           id="path72"
           inkscape:connector-curvature="0" /></g><g
         id="g74"
         transform="matrix(-0.964085,0,0,-1,0,439.62769)"><path
           d="m -175.498,274.852 c 0,6.32 -5.304,11.441 -11.848,11.441 -6.543,0 -11.847,-5.121 -11.847,-11.441 0,-6.317 5.304,-11.438 11.847,-11.438 6.544,0 11.848,5.121 11.848,11.438 z"
           style="fill:none;stroke:#0000ff;stroke-width:0.0288696;stroke-linecap:butt;stroke-linejoin:miter;stroke-miterlimit:4;stroke-dasharray:none;stroke-opacity:1"
           id="path76"
           inkscape:connector-curvature="0" /></g><g
         id="g78"
         transform="matrix(-0.964085,0,0,-1,0,439.62769)"><path
           d="m -175.263,67.461 c 0,2.098 -1.763,3.797 -3.935,3.797 -2.167,0 -3.93,-1.699 -3.93,-3.797 0,-2.094 1.763,-3.793 3.93,-3.793 2.172,0 3.935,1.699 3.935,3.793 z"
           style="fill:none;stroke:#0000ff;stroke-width:0.0288696;stroke-linecap:butt;stroke-linejoin:miter;stroke-miterlimit:4;stroke-dasharray:none;stroke-opacity:1"
           id="path80"
           inkscape:connector-curvature="0" /></g><g
         id="g82"
         transform="matrix(-0.964085,0,0,1,0,439.62769)"><path
           d="m -109.588,-210.48 c 0,7.542 -6.333,13.656 -14.145,13.656 -7.812,0 -14.145,-6.114 -14.145,-13.656 0,-7.543 6.333,-13.657 14.145,-13.657 7.812,0 14.145,6.114 14.145,13.657 z"
           style="fill:none;stroke:#0000ff;stroke-width:0.0288696;stroke-linecap:butt;stroke-linejoin:miter;stroke-miterlimit:4;stroke-dasharray:none;stroke-opacity:1"
           id="path84"
           inkscape:connector-curvature="0" /></g><g
         id="g86"
         transform="matrix(-0.964085,0,0,1,0,439.62769)"><path
           d="m -107.445,-246.238 c 0,8.265 -6.94,14.965 -15.502,14.965 -8.561,0 -15.502,-6.7 -15.502,-14.965 0,-8.266 6.941,-14.969 15.502,-14.969 8.562,0 15.502,6.703 15.502,14.969 z"
           style="fill:none;stroke:#0000ff;stroke-width:0.0288696;stroke-linecap:butt;stroke-linejoin:miter;stroke-miterlimit:4;stroke-dasharray:none;stroke-opacity:1"
           id="path88"
           inkscape:connector-curvature="0" /></g><g
         id="g90"
         transform="matrix(-0.964085,0,0,1,0,439.62769)"><path
           d="m -108.685,-282.82 c 0,7.937 -6.665,14.375 -14.89,14.375 -8.221,0 -14.886,-6.438 -14.886,-14.375 0,-7.938 6.665,-14.375 14.886,-14.375 8.225,0 14.89,6.437 14.89,14.375 z"
           style="fill:none;stroke:#0000ff;stroke-width:0.0288696;stroke-linecap:butt;stroke-linejoin:miter;stroke-miterlimit:4;stroke-dasharray:none;stroke-opacity:1"
           id="path92"
           inkscape:connector-curvature="0" /></g><g
         id="g94"
         transform="matrix(1,0,0,-1,0,439.62769)"><path
           d="m 139.301,425.398 0,-44.652 8.422,0 0,-47.051 -8.422,0 0,-93.847 8.422,0 0,-47.051 -8.422,0 0,-93.949 -13.153,-0.125 c -1.457,2.476 -2.871,4.957 -4.25,7.472 -0.355,-0.55 -0.71,-1.09 -1.074,-1.597 L 69.426,32.871 c -6.656,-9.285 -12.02,-7.547 -12,3.875 L 57.5,77.121 c 0.02,11.426 5.395,28.09 12.051,37.375 l 36.875,46.977 c -3.149,18.695 -8.153,53.582 -8.153,85.523 0,96.684 27.68,165.379 41.028,178.402 z"
           style="fill:none;stroke:#0000ff;stroke-width:0.0283464;stroke-linecap:butt;stroke-linejoin:miter;stroke-miterlimit:4;stroke-dasharray:none;stroke-opacity:1"
           id="path96"
           inkscape:connector-curvature="0" /></g><g
         id="g98"
         transform="matrix(0.964085,0,0,1,0,439.62769)"><path
           d="m 138.526,-316.547 c 0,6.633 -5.567,12.008 -12.435,12.008 -6.868,0 -12.435,-5.375 -12.435,-12.008 0,-6.629 5.567,-12.004 12.435,-12.004 6.868,0 12.435,5.375 12.435,12.004 z"
           style="fill:none;stroke:#0000ff;stroke-width:0.0288696;stroke-linecap:butt;stroke-linejoin:miter;stroke-miterlimit:4;stroke-dasharray:none;stroke-opacity:1"
           id="path100"
           inkscape:connector-curvature="0" /></g><g
         id="g102"
         transform="matrix(0.964085,0,0,1,0,439.62769)"><path
           d="m 138.566,-344.617 c 0,4.656 -3.905,8.429 -8.731,8.429 -4.822,0 -8.732,-3.773 -8.732,-8.429 0,-4.656 3.91,-8.434 8.732,-8.434 4.826,0 8.731,3.778 8.731,8.434 z"
           style="fill:none;stroke:#0000ff;stroke-width:0.0288696;stroke-linecap:butt;stroke-linejoin:miter;stroke-miterlimit:4;stroke-dasharray:none;stroke-opacity:1"
           id="path104"
           inkscape:connector-curvature="0" /></g><g
         id="g106"
         transform="matrix(0.964085,0,0,1,0,439.62769)"><path
           d="m 138.639,-366.555 c 0,3.426 -2.876,6.203 -6.426,6.203 -3.549,0 -6.426,-2.777 -6.426,-6.203 0,-3.425 2.877,-6.203 6.426,-6.203 3.55,0 6.426,2.778 6.426,6.203 z"
           style="fill:none;stroke:#0000ff;stroke-width:0.0288696;stroke-linecap:butt;stroke-linejoin:miter;stroke-miterlimit:4;stroke-dasharray:none;stroke-opacity:1"
           id="path108"
           inkscape:connector-curvature="0" /></g><g
         id="g110"
         transform="matrix(0.964085,0,0,1,0,439.62769)"><path
           d="m 137.938,-178.582 c 0,6.316 -5.307,11.437 -11.851,11.437 -6.544,0 -11.847,-5.121 -11.847,-11.437 0,-6.32 5.303,-11.441 11.847,-11.441 6.544,0 11.851,5.121 11.851,11.441 z"
           style="fill:none;stroke:#0000ff;stroke-width:0.0288696;stroke-linecap:butt;stroke-linejoin:miter;stroke-miterlimit:4;stroke-dasharray:none;stroke-opacity:1"
           id="path112"
           inkscape:connector-curvature="0" /></g><g
         id="g114"
         transform="matrix(0.964085,0,0,1,0,439.62769)"><path
           d="m 138.761,-384.836 c 0,2.098 -1.759,3.797 -3.93,3.797 -2.172,0 -3.931,-1.699 -3.931,-3.797 0,-2.098 1.759,-3.797 3.931,-3.797 2.171,0 3.93,1.699 3.93,3.797 z"
           style="fill:none;stroke:#0000ff;stroke-width:0.0288696;stroke-linecap:butt;stroke-linejoin:miter;stroke-miterlimit:4;stroke-dasharray:none;stroke-opacity:1"
           id="path116"
           inkscape:connector-curvature="0" /></g><g
         id="g118"
         transform="matrix(0.964085,0,0,-1,0,439.62769)"><path
           d="m 57.798,242.387 c 0,7.543 -6.332,13.656 -14.14,13.656 -7.812,0 -14.145,-6.113 -14.145,-13.656 0,-7.543 6.333,-13.657 14.145,-13.657 7.808,0 14.14,6.114 14.14,13.657 z"
           style="fill:none;stroke:#0000ff;stroke-width:0.0288696;stroke-linecap:butt;stroke-linejoin:miter;stroke-miterlimit:4;stroke-dasharray:none;stroke-opacity:1"
           id="path120"
           inkscape:connector-curvature="0" /></g><g
         id="g122"
         transform="matrix(0.964085,0,0,-1,0,439.62769)"><path
           d="m 60.537,206.059 c 0,8.265 -6.94,14.968 -15.502,14.968 -8.561,0 -15.502,-6.703 -15.502,-14.968 0,-8.266 6.941,-14.965 15.502,-14.965 8.562,0 15.502,6.699 15.502,14.965 z"
           style="fill:none;stroke:#0000ff;stroke-width:0.0288696;stroke-linecap:butt;stroke-linejoin:miter;stroke-miterlimit:4;stroke-dasharray:none;stroke-opacity:1"
           id="path124"
           inkscape:connector-curvature="0" /></g><g
         id="g126"
         transform="matrix(0.964085,0,0,-1,0,439.62769)"><path
           d="m 59.298,169.477 c 0,7.941 -6.67,14.375 -14.891,14.375 -8.221,0 -14.886,-6.434 -14.886,-14.375 0,-7.938 6.665,-14.375 14.886,-14.375 8.221,0 14.891,6.437 14.891,14.375 z"
           style="fill:none;stroke:#0000ff;stroke-width:0.0288696;stroke-linecap:butt;stroke-linejoin:miter;stroke-miterlimit:4;stroke-dasharray:none;stroke-opacity:1"
           id="path128"
           inkscape:connector-curvature="0" /></g><g
         id="g130"
         transform="matrix(1,0,0,-1,0,439.62769)"><path
           d="m 22.648,26.902 0,91.598 -8.425,0 0,47.078 8.425,0 0,93.824 -8.425,0 0,47.075 8.425,0 0,46.976 13.153,0.125 c 1.457,-2.476 2.871,-4.957 4.25,-7.476 0.355,0.55 0.707,1.089 1.074,1.601 l 51.398,71.723 c 6.657,9.285 12.02,7.551 12,-3.875 l -0.074,-40.375 C 104.43,363.754 99.055,347.086 92.398,337.801 L 55.523,290.828 c 3.149,-18.699 8.153,-53.586 8.153,-85.527 0,-96.68 -27.68,-165.375 -41.028,-178.399 z"
           style="fill:none;stroke:#0000ff;stroke-width:0.0283464;stroke-linecap:butt;stroke-linejoin:miter;stroke-miterlimit:4;stroke-dasharray:none;stroke-opacity:1"
           id="path132"
           inkscape:connector-curvature="0" /></g><g
         id="g134"
         transform="matrix(-0.964085,0,0,-1,0,439.62769)"><path
           d="m -29.456,135.754 c 0,6.629 -5.567,12.004 -12.435,12.004 -6.868,0 -12.435,-5.375 -12.435,-12.004 0,-6.633 5.567,-12.008 12.435,-12.008 6.868,0 12.435,5.375 12.435,12.008 z"
           style="fill:none;stroke:#0000ff;stroke-width:0.0288696;stroke-linecap:butt;stroke-linejoin:miter;stroke-miterlimit:4;stroke-dasharray:none;stroke-opacity:1"
           id="path136"
           inkscape:connector-curvature="0" /></g><g
         id="g138"
         transform="matrix(-0.964085,0,0,-1,0,439.62769)"><path
           d="m -29.412,107.68 c 0,4.656 -3.91,8.429 -8.731,8.429 -4.826,0 -8.732,-3.773 -8.732,-8.429 0,-4.657 3.906,-8.43 8.732,-8.43 4.821,0 8.731,3.773 8.731,8.43 z"
           style="fill:none;stroke:#0000ff;stroke-width:0.0288696;stroke-linecap:butt;stroke-linejoin:miter;stroke-miterlimit:4;stroke-dasharray:none;stroke-opacity:1"
           id="path140"
           inkscape:connector-curvature="0" /></g><g
         id="g142"
         transform="matrix(-0.964085,0,0,-1,0,439.62769)"><path
           d="m -29.343,85.742 c 0,3.43 -2.877,6.207 -6.422,6.207 -3.549,0 -6.426,-2.777 -6.426,-6.207 0,-3.426 2.877,-6.203 6.426,-6.203 3.545,0 6.422,2.777 6.422,6.203 z"
           style="fill:none;stroke:#0000ff;stroke-width:0.0288696;stroke-linecap:butt;stroke-linejoin:miter;stroke-miterlimit:4;stroke-dasharray:none;stroke-opacity:1"
           id="path144"
           inkscape:connector-curvature="0" /></g><g
         id="g146"
         transform="matrix(-0.964085,0,0,-1,0,439.62769)"><path
           d="m -29.452,274.852 c 0,6.32 -5.308,11.441 -11.848,11.441 -6.543,0 -11.851,-5.121 -11.851,-11.441 0,-6.317 5.308,-11.438 11.851,-11.438 6.54,0 11.848,5.121 11.848,11.438 z"
           style="fill:none;stroke:#0000ff;stroke-width:0.0288696;stroke-linecap:butt;stroke-linejoin:miter;stroke-miterlimit:4;stroke-dasharray:none;stroke-opacity:1"
           id="path148"
           inkscape:connector-curvature="0" /></g><g
         id="g150"
         transform="matrix(-0.964085,0,0,-1,0,439.62769)"><path
           d="m -29.217,67.461 c 0,2.098 -1.763,3.797 -3.935,3.797 -2.171,0 -3.93,-1.699 -3.93,-3.797 0,-2.094 1.759,-3.793 3.93,-3.793 2.172,0 3.935,1.699 3.935,3.793 z"
           style="fill:none;stroke:#0000ff;stroke-width:0.0288696;stroke-linecap:butt;stroke-linejoin:miter;stroke-miterlimit:4;stroke-dasharray:none;stroke-opacity:1"
           id="path152"
           inkscape:connector-curvature="0" /></g><g
         id="g154"
         transform="matrix(1,0,0,-1,0,439.62769)"><path
           d="m 307.172,269.625 c 0,28.473 -23.082,51.551 -51.551,51.551 -28.473,0 -51.555,-23.078 -51.555,-51.551 0,-28.473 23.082,-51.551 51.555,-51.551 28.469,0 51.551,23.078 51.551,51.551 z"
           style="fill:none;stroke:#0000ff;stroke-width:0.0283464;stroke-linecap:butt;stroke-linejoin:miter;stroke-miterlimit:4;stroke-dasharray:none;stroke-opacity:1"
           id="path156"
           inkscape:connector-curvature="0" /></g><g
         id="g158"
         transform="matrix(1,0,0,-1,0,439.62769)"><path
           d="m 273.051,229.316 -20.469,35.485 -40.809,0 0,10.015 40.961,0 20.446,35.383 8.668,-5.023 -20.496,-35.481 20.394,-35.355 -8.695,-5.024 z"
           style="fill:none;stroke:#0000ff;stroke-width:0.0283464;stroke-linecap:butt;stroke-linejoin:miter;stroke-miterlimit:4;stroke-dasharray:none;stroke-opacity:1"
           id="path160"
           inkscape:connector-curvature="0" /></g><g
         id="g162"
         transform="matrix(-0.964062,0,0,-1,0,439.62769)"><path
           d="m -236.435,243.438 c 0,6.64 -5.575,12.023 -12.455,12.023 -6.876,0 -12.451,-5.383 -12.451,-12.023 0,-6.637 5.575,-12.02 12.451,-12.02 6.88,0 12.455,5.383 12.455,12.02 z"
           style="fill:none;stroke:#0000ff;stroke-width:0.02887;stroke-linecap:butt;stroke-linejoin:miter;stroke-miterlimit:4;stroke-dasharray:none;stroke-opacity:1"
           id="path164"
           inkscape:connector-curvature="0" /></g><g
         id="g166"
         transform="matrix(-0.964062,0,0,-1,0,439.62769)"><path
           d="m -285.106,269.512 c 0,6.636 -5.571,12.019 -12.451,12.019 -6.876,0 -12.451,-5.383 -12.451,-12.019 0,-6.641 5.575,-12.024 12.451,-12.024 6.88,0 12.451,5.383 12.451,12.024 z"
           style="fill:none;stroke:#0000ff;stroke-width:0.02887;stroke-linecap:butt;stroke-linejoin:miter;stroke-miterlimit:4;stroke-dasharray:none;stroke-opacity:1"
           id="path168"
           inkscape:connector-curvature="0" /></g><g
         id="g170"
         transform="matrix(-0.964062,0,0,-1,0,439.62769)"><path
           d="m -237.978,294.969 c 0,6.64 -5.576,12.023 -12.452,12.023 -6.876,0 -12.451,-5.383 -12.451,-12.023 0,-6.637 5.575,-12.02 12.451,-12.02 6.876,0 12.452,5.383 12.452,12.02 z"
           style="fill:none;stroke:#0000ff;stroke-width:0.02887;stroke-linecap:butt;stroke-linejoin:miter;stroke-miterlimit:4;stroke-dasharray:none;stroke-opacity:1"
           id="path172"
           inkscape:connector-curvature="0" /></g></g></g></svg>