<?xml version="1.0" encoding="UTF-8" standalone="no"?>
<!-- Created with Inkscape (http://www.inkscape.org/) -->

<svg
   xmlns:dc="http://purl.org/dc/elements/1.1/"
   xmlns:cc="http://creativecommons.org/ns#"
   xmlns:rdf="http://www.w3.org/1999/02/22-rdf-syntax-ns#"
   xmlns:svg="http://www.w3.org/2000/svg"
   xmlns="http://www.w3.org/2000/svg"
   xmlns:sodipodi="http://sodipodi.sourceforge.net/DTD/sodipodi-0.dtd"
   xmlns:inkscape="http://www.inkscape.org/namespaces/inkscape"
   width="10in"
   height="10in"
   viewBox="0 0 900.00002 900.00002"
   id="svg2"
   version="1.1"
   inkscape:version="0.91 r13725"
   sodipodi:docname="Headphone Stand.svg">
  <defs
     id="defs4" />
  <sodipodi:namedview
     id="base"
     pagecolor="#ffffff"
     bordercolor="#666666"
     borderopacity="1.0"
     inkscape:pageopacity="0.0"
     inkscape:pageshadow="2"
     inkscape:zoom="1.4"
     inkscape:cx="452.65164"
     inkscape:cy="394.77286"
     inkscape:document-units="in"
     inkscape:current-layer="layer1"
     showgrid="false"
     inkscape:window-width="1432"
     inkscape:window-height="1724"
     inkscape:window-x="0"
     inkscape:window-y="33"
     inkscape:window-maximized="0"
     units="in" />
  <metadata
     id="metadata7">
    <rdf:RDF>
      <cc:Work
         rdf:about="">
        <dc:format>image/svg+xml</dc:format>
        <dc:type
           rdf:resource="http://purl.org/dc/dcmitype/StillImage" />
        <dc:title></dc:title>
      </cc:Work>
    </rdf:RDF>
  </metadata>
  <g
     inkscape:label="Layer 1"
     inkscape:groupmode="layer"
     id="layer1"
     transform="translate(0,-152.36215)">
    <path
       style="fill:none;fill-opacity:1;stroke:#00ff00;stroke-width:1.59381592;stroke-miterlimit:4;stroke-dasharray:none;stroke-opacity:1"
       d="m 449.55472,153.34831 c -131.6231,0.15351 -243.83517,95.46123 -265.28906,225.32422 l 132.44922,0 0,584.86719 -91.17383,0 0,0.30469 a 43.757534,43.757534 0 0 0 -0.98633,-0.0488 43.757534,43.757534 0 0 0 -43.75781,43.75579 43.757534,43.757534 0 0 0 43.75781,43.7578 43.757534,43.757534 0 0 0 0.98633,-0.035 l 0,0.291 448.02734,0 0,-0.1816 a 43.880196,43.880196 0 0 0 0.98633,0.049 43.880196,43.880196 0 0 0 43.88086,-43.8809 43.880196,43.880196 0 0 0 -43.88086,-43.87884 43.880196,43.880196 0 0 0 -0.98633,0.0352 l 0,-0.16797 -91.17383,0 0,-584.86719 132.67383,0 C 693.60058,248.7258 581.2628,153.39201 449.55472,153.34831 Z"
       id="path4136"
       inkscape:connector-curvature="0" />
  </g>
</svg>
