<?xml version="1.0" encoding="UTF-8" standalone="no"?>
<!-- Created with Inkscape (http://www.inkscape.org/) -->

<svg
   xmlns:dc="http://purl.org/dc/elements/1.1/"
   xmlns:cc="http://creativecommons.org/ns#"
   xmlns:rdf="http://www.w3.org/1999/02/22-rdf-syntax-ns#"
   xmlns:svg="http://www.w3.org/2000/svg"
   xmlns="http://www.w3.org/2000/svg"
   xmlns:sodipodi="http://sodipodi.sourceforge.net/DTD/sodipodi-0.dtd"
   xmlns:inkscape="http://www.inkscape.org/namespaces/inkscape"
   width="10in"
   height="10in"
   viewBox="0 0 900.00002 900.00002"
   id="svg2"
   version="1.1"
   inkscape:version="0.91 r13725"
   sodipodi:docname="Headphone Stand2.svg">
  <defs
     id="defs4" />
  <sodipodi:namedview
     id="base"
     pagecolor="#ffffff"
     bordercolor="#666666"
     borderopacity="1.0"
     inkscape:pageopacity="0.0"
     inkscape:pageshadow="2"
     inkscape:zoom="1"
     inkscape:cx="560.82308"
     inkscape:cy="407.09183"
     inkscape:document-units="in"
     inkscape:current-layer="layer1"
     showgrid="false"
     inkscape:window-width="2880"
     inkscape:window-height="1727"
     inkscape:window-x="0"
     inkscape:window-y="33"
     inkscape:window-maximized="1"
     units="in" />
  <metadata
     id="metadata7">
    <rdf:RDF>
      <cc:Work
         rdf:about="">
        <dc:format>image/svg+xml</dc:format>
        <dc:type
           rdf:resource="http://purl.org/dc/dcmitype/StillImage" />
        <dc:title />
      </cc:Work>
    </rdf:RDF>
  </metadata>
  <g
     inkscape:label="Layer 1"
     inkscape:groupmode="layer"
     id="layer1"
     transform="translate(0,-152.36215)">
    <path
       style="fill:none;fill-opacity:1;stroke:#00ff00;stroke-width:1.43443429;stroke-miterlimit:4;stroke-dasharray:none;stroke-opacity:1"
       d="m 323.16232,437.12615 c 118.46079,-0.13816 219.45166,-85.9151 238.76016,-202.7918 l -119.20431,0 0,-0.29707 -239.11171,0 0,0.29707 -119.406444,0 C 103.52105,351.28641 204.62505,437.08682 323.16232,437.12615 Z"
       id="path6494"
       inkscape:connector-curvature="0" />
    <path
       inkscape:connector-curvature="0"
       style="fill:none;fill-opacity:1;stroke:#00ff00;stroke-width:1.43443429;stroke-miterlimit:4;stroke-dasharray:none;stroke-opacity:1"
       d="M 319.61152,558.9973 C 201.15073,559.13546 100.15987,644.91241 80.851365,761.7891 l 119.204305,0 0,0.29707 239.11171,0 0,-0.29707 119.40644,0 C 539.2528,644.83704 438.14879,559.03663 319.61152,558.9973 Z"
       id="path6494-3" />
    <path
       style="fill:none;fill-opacity:1;stroke:#00ff00;stroke-width:1.43443429;stroke-miterlimit:4;stroke-dasharray:none;stroke-opacity:1"
       d="m 115.30308,782.61143 0,0.27422 c -0.29572,-0.018 -0.59164,-0.0326 -0.88769,-0.0439 -21.749448,-1.3e-4 -39.381171,17.63078 -39.382033,39.38022 -1.32e-4,21.75015 17.631882,39.38216 39.382033,39.38202 0.296,-0.007 0.59192,-0.0176 0.88769,-0.0315 l 0,0.2619 403.22461,0 0,-0.16344 c 0.29573,0.018 0.59165,0.0328 0.8877,0.0441 21.81141,3.3e-4 39.49313,-17.6814 39.49278,-39.49281 -6.7e-4,-21.81069 -17.68209,-39.4913 -39.49278,-39.49096 -0.29601,0.007 -0.59193,0.0178 -0.8877,0.0317 z"
       id="path4136-6"
       inkscape:connector-curvature="0"
       sodipodi:nodetypes="cccccccccccccc" />
    <path
       inkscape:connector-curvature="0"
       style="fill:none;fill-opacity:1;stroke:#00ff00;stroke-width:1.43443429;stroke-miterlimit:4;stroke-dasharray:none;stroke-opacity:1"
       d="m 577.30863,609.90865 c 0.13816,118.46079 85.91511,219.45164 202.7918,238.76014 l 0,-119.20429 0.29707,0 0,-239.11171 -0.29707,0 0,-119.40645 C 663.14837,390.26737 577.34796,491.37138 577.30863,609.90865 Z"
       id="path6494-3-7" />
    <path
       style="fill:none;fill-opacity:1;stroke:#00ff00;stroke-width:1.43443429;stroke-miterlimit:4;stroke-dasharray:none;stroke-opacity:1"
       d="m 114.18939,885.68496 0,0.27422 c -0.29572,-0.018 -0.59164,-0.0326 -0.8877,-0.0439 -21.749445,-1.4e-4 -39.381165,17.63077 -39.382029,39.38022 -1.35e-4,21.75014 17.631882,39.38218 39.382029,39.382 0.29601,-0.009 0.59193,-0.018 0.8877,-0.0315 l 0,0.2619 403.22461,0 0,-0.16344 c 0.29572,0.018 0.59164,0.0324 0.8877,0.0441 21.81141,3.6e-4 39.49312,-17.68138 39.49277,-39.49279 -6.7e-4,-21.81069 -17.68208,-39.4913 -39.49277,-39.49097 -0.29601,0.007 -0.59193,0.0178 -0.8877,0.0317 z"
       id="path4136-6-3"
       inkscape:connector-curvature="0"
       sodipodi:nodetypes="cccccccccccccc" />
    <path
       style="fill:none;fill-opacity:1;stroke:#00ff00;stroke-width:1.43443429;stroke-miterlimit:4;stroke-dasharray:none;stroke-opacity:1"
       d="m 110.37102,455.4812 0,0.27422 c -0.29573,-0.018 -0.59165,-0.0326 -0.8877,-0.0439 -21.749446,-1.3e-4 -39.381175,17.63078 -39.38203,39.38022 -1.35e-4,21.75015 17.631882,39.38216 39.38203,39.38202 0.296,-0.007 0.59192,-0.0176 0.8877,-0.0315 l 0,0.2619 403.2246,0 0,-0.16344 c 0.29572,0.018 0.59164,0.0328 0.8877,0.0441 21.81141,3.4e-4 39.49312,-17.6814 39.49277,-39.49281 -6.6e-4,-21.81069 -17.68208,-39.49129 -39.49277,-39.49096 -0.29601,0.007 -0.59193,0.0178 -0.8877,0.0317 z"
       id="path4136-6-5"
       inkscape:connector-curvature="0"
       sodipodi:nodetypes="cccccccccccccc" />
  </g>
</svg>
