<?xml version="1.0" encoding="UTF-8" standalone="no"?>
<!-- Created with Inkscape (http://www.inkscape.org/) -->

<svg
   xmlns:dc="http://purl.org/dc/elements/1.1/"
   xmlns:cc="http://creativecommons.org/ns#"
   xmlns:rdf="http://www.w3.org/1999/02/22-rdf-syntax-ns#"
   xmlns:svg="http://www.w3.org/2000/svg"
   xmlns="http://www.w3.org/2000/svg"
   xmlns:sodipodi="http://sodipodi.sourceforge.net/DTD/sodipodi-0.dtd"
   xmlns:inkscape="http://www.inkscape.org/namespaces/inkscape"
   width="10in"
   height="10in"
   viewBox="0 0 900.00002 900.00002"
   id="svg2"
   version="1.1"
   inkscape:version="0.91 r13725"
   sodipodi:docname="Headphone Stand.svg">
  <defs
     id="defs4" />
  <sodipodi:namedview
     id="base"
     pagecolor="#ffffff"
     bordercolor="#666666"
     borderopacity="1.0"
     inkscape:pageopacity="0.0"
     inkscape:pageshadow="2"
     inkscape:zoom="1.4"
     inkscape:cx="436.93735"
     inkscape:cy="394.77286"
     inkscape:document-units="in"
     inkscape:current-layer="layer1"
     showgrid="false"
     inkscape:window-width="2880"
     inkscape:window-height="1727"
     inkscape:window-x="0"
     inkscape:window-y="33"
     inkscape:window-maximized="1"
     units="in" />
  <metadata
     id="metadata7">
    <rdf:RDF>
      <cc:Work
         rdf:about="">
        <dc:format>image/svg+xml</dc:format>
        <dc:type
           rdf:resource="http://purl.org/dc/dcmitype/StillImage" />
        <dc:title />
      </cc:Work>
    </rdf:RDF>
  </metadata>
  <g
     inkscape:label="Layer 1"
     inkscape:groupmode="layer"
     id="layer1"
     transform="translate(0,-152.36215)">
    <path
       style="fill:none;fill-opacity:1;stroke:#00ff00;stroke-width:1.43443429;stroke-miterlimit:4;stroke-dasharray:none;stroke-opacity:1"
       d="m 449.56087,198.25915 c -118.46079,0.13816 -219.45165,85.91511 -238.76015,202.7918 l 119.2043,0 0,526.38047 -82.05645,0 0,0.27422 a 39.381781,39.381781 0 0 0 -0.8877,-0.0439 39.381781,39.381781 0 0 0 -39.38203,39.38022 39.381781,39.381781 0 0 0 39.38203,39.38204 39.381781,39.381781 0 0 0 0.8877,-0.031 l 0,0.2619 403.22461,0 0,-0.1635 a 39.492176,39.492176 0 0 0 0.88769,0.044 39.492176,39.492176 0 0 0 39.49278,-39.49277 39.492176,39.492176 0 0 0 -39.49278,-39.49096 39.492176,39.492176 0 0 0 -0.88769,0.0317 l 0,-0.15117 -82.05645,0 0,-526.38047 119.40645,0 C 669.20215,284.0989 568.09814,198.29848 449.56087,198.25915 Z"
       id="path4136"
       inkscape:connector-curvature="0" />
  </g>
</svg>
