solid aileron
facet normal -1.0 -0.0 -0.0
  outer loop
    vertex 104.00000000000001 0.0 3.0293902320622137
    vertex 104.00000000000001 -7.5 2.279390232062214
    vertex 104.00000000000001 -7.5 3.0293902320622137
  endloop
endfacet
facet normal -1.0 -0.0 -0.0
  outer loop
    vertex 104.00000000000001 -7.5 2.279390232062214
    vertex 104.00000000000001 0.0 3.0293902320622137
    vertex 104.00000000000001 0.0 2.279390232062214
  endloop
endfacet
facet normal 0.0 0.0 -1.0
  outer loop
    vertex 0.2500000000000338 -1.686260154708143 -3.217319643982523e-16
    vertex 108.74999999999999 -22.0 0.0
    vertex 0.24999999999999997 -22.0 -3.217319643982523e-16
  endloop
endfacet
facet normal 0.0 0.0 -1.0
  outer loop
    vertex 108.74999999999999 -22.0 0.0
    vertex 0.2500000000000338 -1.686260154708143 -3.217319643982523e-16
    vertex 108.74999999999999 -1.6862601547081426 0.0
  endloop
endfacet
facet normal -1.0 8.857809012524001e-16 1.2869278575930094e-15
  outer loop
    vertex 0.25000000000002254 -1.587008918421499 4.639316154904205
    vertex 0.2500000000000338 -1.686260154708143 -3.217319643982523e-16
    vertex 0.24999999999999997 -22.0 -3.217319643982523e-16
  endloop
endfacet
facet normal -1.0 8.857809012524001e-16 1.2869278575930094e-15
  outer loop
    vertex 0.2500000000000338 -1.686260154708143 -3.217319643982523e-16
    vertex 0.25000000000002254 -1.587008918421499 4.639316154904205
    vertex 0.2500000000000338 -2.2144522531310003e-16 1.6862601547081424
  endloop
endfacet
facet normal -1.0 8.857809012524001e-16 1.2869278575930094e-15
  outer loop
    vertex 0.2500000000000338 -2.2144522531310003e-16 1.6862601547081424
    vertex 0.25000000000002254 -1.587008918421499 4.639316154904205
    vertex 0.25000000000002254 -2.2144522531310003e-16 3.3725203094162852
  endloop
endfacet
facet normal -5.9873033980650335e-18 -0.22162110358896817 0.9751328557914598
  outer loop
    vertex 108.74999999999999 -22.0 0.0
    vertex 0.25000000000002254 -1.587008918421499 4.639316154904205
    vertex 0.24999999999999997 -22.0 -3.217319643982523e-16
  endloop
endfacet
facet normal -5.9873033980650335e-18 -0.22162110358896817 0.9751328557914598
  outer loop
    vertex 0.25000000000002254 -1.587008918421499 4.639316154904205
    vertex 108.74999999999999 -22.0 0.0
    vertex 104.44377310798126 -11.338337476336097 2.423105119014523
  endloop
endfacet
facet normal -5.9873033980650335e-18 -0.22162110358896817 0.9751328557914598
  outer loop
    vertex 104.44377310798126 -11.338337476336097 2.423105119014523
    vertex 108.74999999999999 -22.0 0.0
    vertex 107.44377310798126 -11.338337476336095 2.4231051190145236
  endloop
endfacet
facet normal -5.9873033980650335e-18 -0.22162110358896817 0.9751328557914598
  outer loop
    vertex 107.44377310798126 -11.338337476336095 2.4231051190145236
    vertex 108.74999999999999 -22.0 0.0
    vertex 107.44377310798126 -1.587008918421499 4.639316154904205
  endloop
endfacet
facet normal -5.9873033980650335e-18 -0.22162110358896817 0.9751328557914598
  outer loop
    vertex 107.44377310798126 -1.587008918421499 4.639316154904205
    vertex 108.74999999999999 -22.0 0.0
    vertex 108.74999999999999 -1.587008918421499 4.639316154904205
  endloop
endfacet
facet normal -5.9873033980650335e-18 -0.22162110358896817 0.9751328557914598
  outer loop
    vertex 104.44377310798126 -1.587008918421499 4.639316154904205
    vertex 0.25000000000002254 -1.587008918421499 4.639316154904205
    vertex 104.44377310798126 -11.338337476336097 2.423105119014523
  endloop
endfacet
facet normal 1.0 0.0 0.0
  outer loop
    vertex 108.74999999999999 -1.6862601547081426 0.0
    vertex 108.74999999999999 -1.587008918421499 4.639316154904205
    vertex 108.74999999999999 -22.0 0.0
  endloop
endfacet
facet normal 1.0 0.0 0.0
  outer loop
    vertex 108.74999999999999 -1.587008918421499 4.639316154904205
    vertex 108.74999999999999 -1.6862601547081426 0.0
    vertex 108.74999999999999 0.0 1.6862601547081426
  endloop
endfacet
facet normal 1.0 0.0 0.0
  outer loop
    vertex 108.74999999999999 -1.587008918421499 4.639316154904205
    vertex 108.74999999999999 0.0 1.6862601547081426
    vertex 108.74999999999999 0.0 3.3725203094162852
  endloop
endfacet
facet normal -3.640901731171039e-19 0.6238505014869477 0.7815436979430415
  outer loop
    vertex 104.44377310798126 -1.587008918421499 4.639316154904205
    vertex 0.25000000000002254 -2.2144522531310003e-16 3.3725203094162852
    vertex 0.25000000000002254 -1.587008918421499 4.639316154904205
  endloop
endfacet
facet normal -3.640901731171039e-19 0.6238505014869477 0.7815436979430415
  outer loop
    vertex 0.25000000000002254 -2.2144522531310003e-16 3.3725203094162852
    vertex 104.44377310798126 -1.587008918421499 4.639316154904205
    vertex 108.74999999999999 0.0 3.3725203094162852
  endloop
endfacet
facet normal -3.640901731171039e-19 0.6238505014869477 0.7815436979430415
  outer loop
    vertex 108.74999999999999 0.0 3.3725203094162852
    vertex 104.44377310798126 -1.587008918421499 4.639316154904205
    vertex 107.44377310798126 -1.587008918421499 4.639316154904205
  endloop
endfacet
facet normal -3.640901731171039e-19 0.6238505014869477 0.7815436979430415
  outer loop
    vertex 108.74999999999999 0.0 3.3725203094162852
    vertex 107.44377310798126 -1.587008918421499 4.639316154904205
    vertex 108.74999999999999 -1.587008918421499 4.639316154904205
  endloop
endfacet
facet normal 0.0 0.7071067811865476 -0.7071067811865476
  outer loop
    vertex 0.2500000000000338 -2.2144522531310003e-16 1.6862601547081424
    vertex 108.74999999999999 -1.6862601547081426 0.0
    vertex 0.2500000000000338 -1.686260154708143 -3.217319643982523e-16
  endloop
endfacet
facet normal 0.0 0.7071067811865476 -0.7071067811865476
  outer loop
    vertex 108.74999999999999 -1.6862601547081426 0.0
    vertex 0.2500000000000338 -2.2144522531310003e-16 1.6862601547081424
    vertex 108.74999999999999 0.0 1.6862601547081426
  endloop
endfacet
facet normal -0.0 1.0 -0.0
  outer loop
    vertex 79.00000000000001 0.0 2.279390232062214
    vertex 77.00000000000001 0.0 2.2793902320622146
    vertex 79.00000000000001 0.0 3.0293902320622137
  endloop
endfacet
facet normal -0.0 1.0 -0.0
  outer loop
    vertex 77.00000000000001 0.0 2.2793902320622146
    vertex 79.00000000000001 0.0 2.279390232062214
    vertex 32.00000000000003 0.0 2.2793902320622146
  endloop
endfacet
facet normal -0.0 1.0 -0.0
  outer loop
    vertex 77.00000000000001 0.0 2.2793902320622146
    vertex 32.00000000000003 0.0 2.2793902320622146
    vertex 52.000000000000014 0.0 2.2793902320622146
  endloop
endfacet
facet normal -0.0 1.0 -0.0
  outer loop
    vertex 77.00000000000001 0.0 2.2793902320622146
    vertex 52.000000000000014 0.0 2.2793902320622146
    vertex 57.00000000000002 0.0 2.2793902320622146
  endloop
endfacet
facet normal -0.0 1.0 -0.0
  outer loop
    vertex 79.00000000000001 0.0 3.0293902320622137
    vertex 77.00000000000001 0.0 2.2793902320622146
    vertex 77.00000000000001 0.0 3.0293902320622137
  endloop
endfacet
facet normal -0.0 1.0 -0.0
  outer loop
    vertex 79.00000000000001 0.0 3.0293902320622137
    vertex 77.00000000000001 0.0 3.0293902320622137
    vertex 104.00000000000001 0.0 3.0293902320622137
  endloop
endfacet
facet normal -0.0 1.0 -0.0
  outer loop
    vertex 0.2500000000000338 -2.2144522531310003e-16 1.6862601547081424
    vertex 5.00000000000003 0.0 2.279390232062214
    vertex 108.74999999999999 0.0 1.6862601547081426
  endloop
endfacet
facet normal -0.0 1.0 -0.0
  outer loop
    vertex 5.00000000000003 0.0 2.279390232062214
    vertex 0.2500000000000338 -2.2144522531310003e-16 1.6862601547081424
    vertex 0.25000000000002254 -2.2144522531310003e-16 3.3725203094162852
  endloop
endfacet
facet normal -0.0 1.0 -0.0
  outer loop
    vertex 5.00000000000003 0.0 2.279390232062214
    vertex 0.25000000000002254 -2.2144522531310003e-16 3.3725203094162852
    vertex 5.00000000000003 0.0 3.0293902320622137
  endloop
endfacet
facet normal -0.0 1.0 -0.0
  outer loop
    vertex 5.00000000000003 0.0 3.0293902320622137
    vertex 0.25000000000002254 -2.2144522531310003e-16 3.3725203094162852
    vertex 30.000000000000025 0.0 3.0293902320622137
  endloop
endfacet
facet normal -0.0 1.0 -0.0
  outer loop
    vertex 30.000000000000025 0.0 3.0293902320622137
    vertex 0.25000000000002254 -2.2144522531310003e-16 3.3725203094162852
    vertex 32.00000000000003 0.0 3.0293902320622137
  endloop
endfacet
facet normal -0.0 1.0 -0.0
  outer loop
    vertex 32.00000000000003 0.0 3.0293902320622137
    vertex 0.25000000000002254 -2.2144522531310003e-16 3.3725203094162852
    vertex 52.000000000000014 0.0 3.0293902320622137
  endloop
endfacet
facet normal -0.0 1.0 -0.0
  outer loop
    vertex 52.000000000000014 0.0 3.0293902320622137
    vertex 0.25000000000002254 -2.2144522531310003e-16 3.3725203094162852
    vertex 57.00000000000002 0.0 3.0293902320622137
  endloop
endfacet
facet normal -0.0 1.0 -0.0
  outer loop
    vertex 57.00000000000002 0.0 3.0293902320622137
    vertex 0.25000000000002254 -2.2144522531310003e-16 3.3725203094162852
    vertex 77.00000000000001 0.0 3.0293902320622137
  endloop
endfacet
facet normal -0.0 1.0 -0.0
  outer loop
    vertex 108.74999999999999 0.0 1.6862601547081426
    vertex 104.00000000000001 0.0 2.279390232062214
    vertex 108.74999999999999 0.0 3.3725203094162852
  endloop
endfacet
facet normal -0.0 1.0 -0.0
  outer loop
    vertex 104.00000000000001 0.0 2.279390232062214
    vertex 108.74999999999999 0.0 1.6862601547081426
    vertex 5.00000000000003 0.0 2.279390232062214
  endloop
endfacet
facet normal -0.0 1.0 -0.0
  outer loop
    vertex 104.00000000000001 0.0 2.279390232062214
    vertex 5.00000000000003 0.0 2.279390232062214
    vertex 30.000000000000025 0.0 2.279390232062214
  endloop
endfacet
facet normal -0.0 1.0 -0.0
  outer loop
    vertex 104.00000000000001 0.0 2.279390232062214
    vertex 30.000000000000025 0.0 2.279390232062214
    vertex 79.00000000000001 0.0 2.279390232062214
  endloop
endfacet
facet normal -0.0 1.0 -0.0
  outer loop
    vertex 108.74999999999999 0.0 3.3725203094162852
    vertex 104.00000000000001 0.0 2.279390232062214
    vertex 104.00000000000001 0.0 3.0293902320622137
  endloop
endfacet
facet normal -0.0 1.0 -0.0
  outer loop
    vertex 108.74999999999999 0.0 3.3725203094162852
    vertex 104.00000000000001 0.0 3.0293902320622137
    vertex 77.00000000000001 0.0 3.0293902320622137
  endloop
endfacet
facet normal -0.0 1.0 -0.0
  outer loop
    vertex 108.74999999999999 0.0 3.3725203094162852
    vertex 77.00000000000001 0.0 3.0293902320622137
    vertex 0.25000000000002254 -2.2144522531310003e-16 3.3725203094162852
  endloop
endfacet
facet normal -0.0 1.0 -0.0
  outer loop
    vertex 52.000000000000014 0.0 3.0293902320622137
    vertex 57.00000000000002 0.0 2.2793902320622146
    vertex 52.000000000000014 0.0 2.2793902320622146
  endloop
endfacet
facet normal -0.0 1.0 -0.0
  outer loop
    vertex 57.00000000000002 0.0 2.2793902320622146
    vertex 52.000000000000014 0.0 3.0293902320622137
    vertex 57.00000000000002 0.0 3.0293902320622137
  endloop
endfacet
facet normal -0.0 1.0 -0.0
  outer loop
    vertex 30.000000000000025 0.0 2.279390232062214
    vertex 32.00000000000003 0.0 2.2793902320622146
    vertex 79.00000000000001 0.0 2.279390232062214
  endloop
endfacet
facet normal -0.0 1.0 -0.0
  outer loop
    vertex 32.00000000000003 0.0 2.2793902320622146
    vertex 30.000000000000025 0.0 2.279390232062214
    vertex 30.000000000000025 0.0 3.0293902320622137
  endloop
endfacet
facet normal -0.0 1.0 -0.0
  outer loop
    vertex 32.00000000000003 0.0 2.2793902320622146
    vertex 30.000000000000025 0.0 3.0293902320622137
    vertex 32.00000000000003 0.0 3.0293902320622137
  endloop
endfacet
facet normal 0.0 1.0 0.0
  outer loop
    vertex 79.00000000000001 -7.5 3.0293902320622137
    vertex 104.00000000000001 -7.5 2.279390232062214
    vertex 79.00000000000001 -7.5 2.279390232062214
  endloop
endfacet
facet normal 0.0 1.0 0.0
  outer loop
    vertex 104.00000000000001 -7.5 2.279390232062214
    vertex 79.00000000000001 -7.5 3.0293902320622137
    vertex 104.00000000000001 -7.5 3.0293902320622137
  endloop
endfacet
facet normal 0.0 0.0 1.0
  outer loop
    vertex 104.00000000000001 -7.5 2.279390232062214
    vertex 79.00000000000001 0.0 2.279390232062214
    vertex 79.00000000000001 -7.5 2.279390232062214
  endloop
endfacet
facet normal 0.0 0.0 1.0
  outer loop
    vertex 79.00000000000001 0.0 2.279390232062214
    vertex 104.00000000000001 -7.5 2.279390232062214
    vertex 104.00000000000001 0.0 2.279390232062214
  endloop
endfacet
facet normal 1.0 -0.0 -0.0
  outer loop
    vertex 79.00000000000001 0.0 2.279390232062214
    vertex 79.00000000000001 -7.5 3.0293902320622137
    vertex 79.00000000000001 -7.5 2.279390232062214
  endloop
endfacet
facet normal 1.0 -0.0 -0.0
  outer loop
    vertex 79.00000000000001 -7.5 3.0293902320622137
    vertex 79.00000000000001 0.0 2.279390232062214
    vertex 79.00000000000001 0.0 3.0293902320622137
  endloop
endfacet
facet normal 0.0 0.0 -1.0
  outer loop
    vertex 104.00000000000001 0.0 3.0293902320622137
    vertex 79.00000000000001 -7.5 3.0293902320622137
    vertex 79.00000000000001 0.0 3.0293902320622137
  endloop
endfacet
facet normal 0.0 0.0 -1.0
  outer loop
    vertex 79.00000000000001 -7.5 3.0293902320622137
    vertex 104.00000000000001 0.0 3.0293902320622137
    vertex 104.00000000000001 -7.5 3.0293902320622137
  endloop
endfacet
facet normal -1.0 -0.0 -0.0
  outer loop
    vertex 30.000000000000025 0.0 3.0293902320622137
    vertex 30.000000000000025 -7.5 2.279390232062214
    vertex 30.000000000000025 -7.5 3.0293902320622137
  endloop
endfacet
facet normal -1.0 -0.0 -0.0
  outer loop
    vertex 30.000000000000025 -7.5 2.279390232062214
    vertex 30.000000000000025 0.0 3.0293902320622137
    vertex 30.000000000000025 0.0 2.279390232062214
  endloop
endfacet
facet normal 0.0 0.0 1.0
  outer loop
    vertex 30.000000000000025 -7.5 2.279390232062214
    vertex 5.00000000000003 0.0 2.279390232062214
    vertex 5.00000000000003 -7.5 2.279390232062214
  endloop
endfacet
facet normal 0.0 0.0 1.0
  outer loop
    vertex 5.00000000000003 0.0 2.279390232062214
    vertex 30.000000000000025 -7.5 2.279390232062214
    vertex 30.000000000000025 0.0 2.279390232062214
  endloop
endfacet
facet normal -5.511836018136339e-18 -0.22162110358896817 0.9751328557914598
  outer loop
    vertex 107.44377310798126 -10.89509526915816 0.472839407431604
    vertex 104.44377310798126 -1.1437667112435623 2.689050443321285
    vertex 104.44377310798126 -10.895095269158162 0.472839407431604
  endloop
endfacet
facet normal -5.511836018136339e-18 -0.22162110358896817 0.9751328557914598
  outer loop
    vertex 104.44377310798126 -1.1437667112435623 2.689050443321285
    vertex 107.44377310798126 -10.89509526915816 0.472839407431604
    vertex 107.44377310798126 -1.1437667112435623 2.689050443321285
  endloop
endfacet
facet normal 1.0 -1.2215391811407991e-18 5.374772397019516e-18
  outer loop
    vertex 104.44377310798126 -10.895095269158162 0.472839407431604
    vertex 104.44377310798126 -1.587008918421499 4.639316154904205
    vertex 104.44377310798126 -11.338337476336097 2.423105119014523
  endloop
endfacet
facet normal 1.0 -1.2215391811407991e-18 5.374772397019516e-18
  outer loop
    vertex 104.44377310798126 -1.587008918421499 4.639316154904205
    vertex 104.44377310798126 -10.895095269158162 0.472839407431604
    vertex 104.44377310798126 -1.1437667112435623 2.689050443321285
  endloop
endfacet
facet normal 0.0 1.0 0.0
  outer loop
    vertex 5.00000000000003 -7.5 3.0293902320622137
    vertex 30.000000000000025 -7.5 2.279390232062214
    vertex 5.00000000000003 -7.5 2.279390232062214
  endloop
endfacet
facet normal 0.0 1.0 0.0
  outer loop
    vertex 30.000000000000025 -7.5 2.279390232062214
    vertex 5.00000000000003 -7.5 3.0293902320622137
    vertex 30.000000000000025 -7.5 3.0293902320622137
  endloop
endfacet
facet normal 1.0 -0.0 -0.0
  outer loop
    vertex 5.00000000000003 0.0 2.279390232062214
    vertex 5.00000000000003 -7.5 3.0293902320622137
    vertex 5.00000000000003 -7.5 2.279390232062214
  endloop
endfacet
facet normal 1.0 -0.0 -0.0
  outer loop
    vertex 5.00000000000003 -7.5 3.0293902320622137
    vertex 5.00000000000003 0.0 2.279390232062214
    vertex 5.00000000000003 0.0 3.0293902320622137
  endloop
endfacet
facet normal -1.0 1.2215391811407991e-18 -5.374772397019516e-18
  outer loop
    vertex 107.44377310798126 -1.587008918421499 4.639316154904205
    vertex 107.44377310798126 -10.89509526915816 0.472839407431604
    vertex 107.44377310798126 -11.338337476336095 2.4231051190145236
  endloop
endfacet
facet normal -1.0 1.2215391811407991e-18 -5.374772397019516e-18
  outer loop
    vertex 107.44377310798126 -10.89509526915816 0.472839407431604
    vertex 107.44377310798126 -1.587008918421499 4.639316154904205
    vertex 107.44377310798126 -1.1437667112435623 2.689050443321285
  endloop
endfacet
facet normal -4.843471650582794e-16 0.9751328557914599 0.2216211035889682
  outer loop
    vertex 104.44377310798126 -11.338337476336097 2.423105119014523
    vertex 107.44377310798126 -10.89509526915816 0.472839407431604
    vertex 104.44377310798126 -10.895095269158162 0.472839407431604
  endloop
endfacet
facet normal -4.843471650582794e-16 0.9751328557914599 0.2216211035889682
  outer loop
    vertex 107.44377310798126 -10.89509526915816 0.472839407431604
    vertex 104.44377310798126 -11.338337476336097 2.423105119014523
    vertex 107.44377310798126 -11.338337476336095 2.4231051190145236
  endloop
endfacet
facet normal -0.0 -0.9751328557914599 -0.2216211035889682
  outer loop
    vertex 107.44377310798126 -1.587008918421499 4.639316154904205
    vertex 104.44377310798126 -1.1437667112435623 2.689050443321285
    vertex 107.44377310798126 -1.1437667112435623 2.689050443321285
  endloop
endfacet
facet normal -0.0 -0.9751328557914599 -0.2216211035889682
  outer loop
    vertex 104.44377310798126 -1.1437667112435623 2.689050443321285
    vertex 107.44377310798126 -1.587008918421499 4.639316154904205
    vertex 104.44377310798126 -1.587008918421499 4.639316154904205
  endloop
endfacet
facet normal 0.0 0.0 -1.0
  outer loop
    vertex 30.000000000000025 0.0 3.0293902320622137
    vertex 5.00000000000003 -7.5 3.0293902320622137
    vertex 5.00000000000003 0.0 3.0293902320622137
  endloop
endfacet
facet normal 0.0 0.0 -1.0
  outer loop
    vertex 5.00000000000003 -7.5 3.0293902320622137
    vertex 30.000000000000025 0.0 3.0293902320622137
    vertex 30.000000000000025 -7.5 3.0293902320622137
  endloop
endfacet
facet normal 0.0 0.0 -1.0
  outer loop
    vertex 77.00000000000001 0.0 3.0293902320622137
    vertex 57.00000000000002 -7.5 3.0293902320622137
    vertex 57.00000000000002 0.0 3.0293902320622137
  endloop
endfacet
facet normal 0.0 0.0 -1.0
  outer loop
    vertex 57.00000000000002 -7.5 3.0293902320622137
    vertex 77.00000000000001 0.0 3.0293902320622137
    vertex 77.00000000000001 -7.5 3.0293902320622137
  endloop
endfacet
facet normal 0.0 1.0 0.0
  outer loop
    vertex 57.00000000000002 -7.5 3.0293902320622137
    vertex 77.00000000000001 -7.5 2.2793902320622146
    vertex 57.00000000000002 -7.5 2.2793902320622146
  endloop
endfacet
facet normal 0.0 1.0 0.0
  outer loop
    vertex 77.00000000000001 -7.5 2.2793902320622146
    vertex 57.00000000000002 -7.5 3.0293902320622137
    vertex 77.00000000000001 -7.5 3.0293902320622137
  endloop
endfacet
facet normal -1.0 -0.0 -0.0
  outer loop
    vertex 77.00000000000001 0.0 3.0293902320622137
    vertex 77.00000000000001 -7.5 2.2793902320622146
    vertex 77.00000000000001 -7.5 3.0293902320622137
  endloop
endfacet
facet normal -1.0 -0.0 -0.0
  outer loop
    vertex 77.00000000000001 -7.5 2.2793902320622146
    vertex 77.00000000000001 0.0 3.0293902320622137
    vertex 77.00000000000001 0.0 2.2793902320622146
  endloop
endfacet
facet normal 1.0 -0.0 -0.0
  outer loop
    vertex 57.00000000000002 0.0 2.2793902320622146
    vertex 57.00000000000002 -7.5 3.0293902320622137
    vertex 57.00000000000002 -7.5 2.2793902320622146
  endloop
endfacet
facet normal 1.0 -0.0 -0.0
  outer loop
    vertex 57.00000000000002 -7.5 3.0293902320622137
    vertex 57.00000000000002 0.0 2.2793902320622146
    vertex 57.00000000000002 0.0 3.0293902320622137
  endloop
endfacet
facet normal -1.0 -0.0 -0.0
  outer loop
    vertex 52.000000000000014 0.0 3.0293902320622137
    vertex 52.000000000000014 -7.5 2.2793902320622146
    vertex 52.000000000000014 -7.5 3.0293902320622137
  endloop
endfacet
facet normal -1.0 -0.0 -0.0
  outer loop
    vertex 52.000000000000014 -7.5 2.2793902320622146
    vertex 52.000000000000014 0.0 3.0293902320622137
    vertex 52.000000000000014 0.0 2.2793902320622146
  endloop
endfacet
facet normal 0.0 0.0 1.0
  outer loop
    vertex 52.000000000000014 -7.5 2.2793902320622146
    vertex 32.00000000000003 0.0 2.2793902320622146
    vertex 32.00000000000003 -7.5 2.2793902320622146
  endloop
endfacet
facet normal 0.0 0.0 1.0
  outer loop
    vertex 32.00000000000003 0.0 2.2793902320622146
    vertex 52.000000000000014 -7.5 2.2793902320622146
    vertex 52.000000000000014 0.0 2.2793902320622146
  endloop
endfacet
facet normal 1.0 -0.0 -0.0
  outer loop
    vertex 32.00000000000003 0.0 2.2793902320622146
    vertex 32.00000000000003 -7.5 3.0293902320622137
    vertex 32.00000000000003 -7.5 2.2793902320622146
  endloop
endfacet
facet normal 1.0 -0.0 -0.0
  outer loop
    vertex 32.00000000000003 -7.5 3.0293902320622137
    vertex 32.00000000000003 0.0 2.2793902320622146
    vertex 32.00000000000003 0.0 3.0293902320622137
  endloop
endfacet
facet normal 0.0 1.0 0.0
  outer loop
    vertex 32.00000000000003 -7.5 3.0293902320622137
    vertex 52.000000000000014 -7.5 2.2793902320622146
    vertex 32.00000000000003 -7.5 2.2793902320622146
  endloop
endfacet
facet normal 0.0 1.0 0.0
  outer loop
    vertex 52.000000000000014 -7.5 2.2793902320622146
    vertex 32.00000000000003 -7.5 3.0293902320622137
    vertex 52.000000000000014 -7.5 3.0293902320622137
  endloop
endfacet
facet normal 0.0 0.0 -1.0
  outer loop
    vertex 52.000000000000014 0.0 3.0293902320622137
    vertex 32.00000000000003 -7.5 3.0293902320622137
    vertex 32.00000000000003 0.0 3.0293902320622137
  endloop
endfacet
facet normal 0.0 0.0 -1.0
  outer loop
    vertex 32.00000000000003 -7.5 3.0293902320622137
    vertex 52.000000000000014 0.0 3.0293902320622137
    vertex 52.000000000000014 -7.5 3.0293902320622137
  endloop
endfacet
facet normal 0.0 0.0 1.0
  outer loop
    vertex 77.00000000000001 -7.5 2.2793902320622146
    vertex 57.00000000000002 0.0 2.2793902320622146
    vertex 57.00000000000002 -7.5 2.2793902320622146
  endloop
endfacet
facet normal 0.0 0.0 1.0
  outer loop
    vertex 57.00000000000002 0.0 2.2793902320622146
    vertex 77.00000000000001 -7.5 2.2793902320622146
    vertex 77.00000000000001 0.0 2.2793902320622146
  endloop
endfacet
endsolid aileron
