solid Untitled-55ec857e
facet normal 0.5526420689941712 0.8334187084400264 0.0
  outer loop
    vertex 3.8169512405140065 24.083726590280467 0.49999999999999994
    vertex 5.810371500487199 22.761884536952287 0.0
    vertex 3.8169512405140065 24.083726590280467 0.0
  endloop
endfacet
facet normal 0.5526420689941712 0.8334187084400264 0.0
  outer loop
    vertex 5.810371500487199 22.761884536952287 0.0
    vertex 3.8169512405140065 24.083726590280467 0.49999999999999994
    vertex 5.810371500487199 22.761884536952287 0.49999999999999994
  endloop
endfacet
facet normal -0.3990981135677674 -0.9169082264581607 -0.0
  outer loop
    vertex 14.421131323656468 3.320585586004632 0.49999999999999994
    vertex 12.207955541819093 4.2839036739413965 0.0
    vertex 14.421131323656468 3.320585586004632 0.0
  endloop
endfacet
facet normal -0.3990981135677674 -0.9169082264581607 -0.0
  outer loop
    vertex 12.207955541819093 4.2839036739413965 0.0
    vertex 14.421131323656468 3.320585586004632 0.49999999999999994
    vertex 12.207955541819093 4.2839036739413965 0.49999999999999994
  endloop
endfacet
facet normal -0.0 -0.0 1.0
  outer loop
    vertex -0.49999999999999994 -0.49999999999999994 0.49999999999999994
    vertex 0.0 0.0 0.49999999999999994
    vertex -0.49999999999999994 13.038037209787955 0.49999999999999994
  endloop
endfacet
facet normal -0.0 -0.0 1.0
  outer loop
    vertex 0.0 0.0 0.49999999999999994
    vertex -0.49999999999999994 -0.49999999999999994 0.49999999999999994
    vertex 31.198168062714853 -0.5000000000000083 0.49999999999999994
  endloop
endfacet
facet normal -0.0 -0.0 1.0
  outer loop
    vertex 0.0 0.0 0.49999999999999994
    vertex 31.198168062714853 -0.5000000000000083 0.49999999999999994
    vertex 25.999999999999996 0.0 0.49999999999999994
  endloop
endfacet
facet normal -0.0 -0.0 1.0
  outer loop
    vertex -0.49999999999999994 13.038037209787955 0.49999999999999994
    vertex 0.0 12.0 0.49999999999999994
    vertex 2.1905146621282956 10.893164143190738 0.49999999999999994
  endloop
endfacet
facet normal -0.0 -0.0 1.0
  outer loop
    vertex 0.0 12.0 0.49999999999999994
    vertex -0.49999999999999994 13.038037209787955 0.49999999999999994
    vertex 0.0 0.0 0.49999999999999994
  endloop
endfacet
facet normal -0.0 -0.0 1.0
  outer loop
    vertex 2.1905146621282956 10.893164143190738 0.49999999999999994
    vertex 0.0 12.0 0.49999999999999994
    vertex 1.8873892638890943 10.49537694208357 0.49999999999999994
  endloop
endfacet
facet normal -0.0 -0.0 1.0
  outer loop
    vertex 2.1905146621282956 10.893164143190738 0.49999999999999994
    vertex 1.8873892638890943 10.49537694208357 0.49999999999999994
    vertex 3.838778096766378 9.07473961933738 0.49999999999999994
  endloop
endfacet
facet normal -0.0 -0.0 1.0
  outer loop
    vertex 2.1905146621282956 10.893164143190738 0.49999999999999994
    vertex 3.838778096766378 9.07473961933738 0.49999999999999994
    vertex 4.124216001419734 9.485403553728325 0.49999999999999994
  endloop
endfacet
facet normal -0.0 -0.0 1.0
  outer loop
    vertex 4.124216001419734 9.485403553728325 0.49999999999999994
    vertex 3.838778096766378 9.07473961933738 0.49999999999999994
    vertex 5.850432097052324 7.740806726350932 0.49999999999999994
  endloop
endfacet
facet normal -0.0 -0.0 1.0
  outer loop
    vertex 4.124216001419734 9.485403553728325 0.49999999999999994
    vertex 5.850432097052324 7.740806726350932 0.49999999999999994
    vertex 6.117636261392927 8.163561500400146 0.49999999999999994
  endloop
endfacet
facet normal -0.0 -0.0 1.0
  outer loop
    vertex 6.117636261392927 8.163561500400146 0.49999999999999994
    vertex 5.850432097052324 7.740806726350932 0.49999999999999994
    vertex 7.918501532828029 6.496131030168194 0.49999999999999994
  endloop
endfacet
facet normal -0.0 -0.0 1.0
  outer loop
    vertex 6.117636261392927 8.163561500400146 0.49999999999999994
    vertex 7.918501532828029 6.496131030168194 0.49999999999999994
    vertex 8.166960604307695 6.93016761183133 0.49999999999999994
  endloop
endfacet
facet normal -0.0 -0.0 1.0
  outer loop
    vertex 8.166960604307695 6.93016761183133 0.49999999999999994
    vertex 7.918501532828029 6.496131030168194 0.49999999999999994
    vertex 10.039028709123942 5.343094485019648 0.49999999999999994
  endloop
endfacet
facet normal -0.0 -0.0 1.0
  outer loop
    vertex 8.166960604307695 6.93016761183133 0.49999999999999994
    vertex 10.039028709123942 5.343094485019648 0.49999999999999994
    vertex 10.26826720795464 5.787582252091136 0.49999999999999994
  endloop
endfacet
facet normal -0.0 -0.0 1.0
  outer loop
    vertex 10.26826720795464 5.787582252091136 0.49999999999999994
    vertex 10.039028709123942 5.343094485019648 0.49999999999999994
    vertex 12.207955541819093 4.2839036739413965 0.49999999999999994
  endloop
endfacet
facet normal -0.0 -0.0 1.0
  outer loop
    vertex 10.26826720795464 5.787582252091136 0.49999999999999994
    vertex 12.207955541819093 4.2839036739413965 0.49999999999999994
    vertex 12.41753477090554 4.737992003628341 0.49999999999999994
  endloop
endfacet
facet normal -0.0 -0.0 1.0
  outer loop
    vertex 12.41753477090554 4.737992003628341 0.49999999999999994
    vertex 12.207955541819093 4.2839036739413965 0.49999999999999994
    vertex 14.421131323656468 3.320585586004632 0.49999999999999994
  endloop
endfacet
facet normal -0.0 -0.0 1.0
  outer loop
    vertex 12.41753477090554 4.737992003628341 0.49999999999999994
    vertex 14.421131323656468 3.320585586004632 0.49999999999999994
    vertex 14.610650208138061 3.7834054827757204 0.49999999999999994
  endloop
endfacet
facet normal -0.0 -0.0 1.0
  outer loop
    vertex 14.610650208138061 3.7834054827757204 0.49999999999999994
    vertex 14.421131323656468 3.320585586004632 0.49999999999999994
    vertex 16.67432066751272 2.454983737236796 0.49999999999999994
  endloop
endfacet
facet normal -0.0 -0.0 1.0
  outer loop
    vertex 14.610650208138061 3.7834054827757204 0.49999999999999994
    vertex 16.67432066751272 2.454983737236796 0.49999999999999994
    vertex 16.84341652230521 2.9256494958323915 0.49999999999999994
  endloop
endfacet
facet normal -0.0 -0.0 1.0
  outer loop
    vertex 16.84341652230521 2.9256494958323915 0.49999999999999994
    vertex 16.67432066751272 2.454983737236796 0.49999999999999994
    vertex 18.963211611720883 1.6887546426577422 0.49999999999999994
  endloop
endfacet
facet normal -0.0 -0.0 1.0
  outer loop
    vertex 16.84341652230521 2.9256494958323915 0.49999999999999994
    vertex 18.963211611720883 1.6887546426577422 0.49999999999999994
    vertex 19.111560835596 2.1663655430756372 0.49999999999999994
  endloop
endfacet
facet normal -0.0 -0.0 1.0
  outer loop
    vertex 19.111560835596 2.1663655430756372 0.49999999999999994
    vertex 18.963211611720883 1.6887546426577422 0.49999999999999994
    vertex 21.28342387193511 1.0233646461825765 0.49999999999999994
  endloop
endfacet
facet normal -0.0 -0.0 1.0
  outer loop
    vertex 19.111560835596 2.1663655430756372 0.49999999999999994
    vertex 21.28342387193511 1.0233646461825765 0.49999999999999994
    vertex 21.410742566794383 1.507006677401618 0.49999999999999994
  endloop
endfacet
facet normal -0.0 -0.0 1.0
  outer loop
    vertex 21.410742566794383 1.507006677401618 0.49999999999999994
    vertex 21.28342387193511 1.0233646461825765 0.49999999999999994
    vertex 23.630517223745283 0.46008711445764305 0.49999999999999994
  endloop
endfacet
facet normal -0.0 -0.0 1.0
  outer loop
    vertex 21.410742566794383 1.507006677401618 0.49999999999999994
    vertex 23.630517223745283 0.46008711445764305 0.49999999999999994
    vertex 23.736561737925065 0.9488347235921898 0.49999999999999994
  endloop
endfacet
facet normal -0.0 -0.0 1.0
  outer loop
    vertex 23.736561737925065 0.9488347235921898 0.49999999999999994
    vertex 23.630517223745283 0.46008711445764305 0.49999999999999994
    vertex 25.999999999999996 0.0 0.49999999999999994
  endloop
endfacet
facet normal -0.0 -0.0 1.0
  outer loop
    vertex 23.736561737925065 0.9488347235921898 0.49999999999999994
    vertex 25.999999999999996 0.0 0.49999999999999994
    vertex 31.198168062714853 -0.5000000000000083 0.49999999999999994
  endloop
endfacet
facet normal 0.5526420689941712 0.8334187084400264 0.0
  outer loop
    vertex 4.124216001419734 9.485403553728325 0.49999999999999994
    vertex 6.117636261392927 8.163561500400146 0.0
    vertex 4.124216001419734 9.485403553728325 0.0
  endloop
endfacet
facet normal 0.5526420689941712 0.8334187084400264 0.0
  outer loop
    vertex 6.117636261392927 8.163561500400146 0.0
    vertex 4.124216001419734 9.485403553728325 0.49999999999999994
    vertex 6.117636261392927 8.163561500400146 0.49999999999999994
  endloop
endfacet
facet normal -1.0 0.0 0.0
  outer loop
    vertex -0.49999999999999994 13.038037209787955 0.49999999999999994
    vertex -0.49999999999999994 -0.49999999999999994 0.0
    vertex -0.49999999999999994 -0.49999999999999994 0.49999999999999994
  endloop
endfacet
facet normal -1.0 0.0 0.0
  outer loop
    vertex -0.49999999999999994 -0.49999999999999994 0.0
    vertex -0.49999999999999994 13.038037209787955 0.49999999999999994
    vertex -0.49999999999999994 13.038037209787955 0.0
  endloop
endfacet
facet normal 0.31744507866785393 0.9482766590133705 0.0
  outer loop
    vertex 16.84341652230521 2.9256494958323915 0.49999999999999994
    vertex 19.111560835596 2.1663655430756372 0.0
    vertex 16.84341652230521 2.9256494958323915 0.0
  endloop
endfacet
facet normal 0.31744507866785393 0.9482766590133705 0.0
  outer loop
    vertex 19.111560835596 2.1663655430756372 0.0
    vertex 16.84341652230521 2.9256494958323915 0.49999999999999994
    vertex 19.111560835596 2.1663655430756372 0.49999999999999994
  endloop
endfacet
facet normal 0.47769757031043303 0.8785243487345749 0.0
  outer loop
    vertex 8.166960604307695 6.93016761183133 0.49999999999999994
    vertex 10.26826720795464 5.787582252091136 0.0
    vertex 8.166960604307695 6.93016761183133 0.0
  endloop
endfacet
facet normal 0.47769757031043303 0.8785243487345749 0.0
  outer loop
    vertex 10.26826720795464 5.787582252091136 0.0
    vertex 8.166960604307695 6.93016761183133 0.49999999999999994
    vertex 10.26826720795464 5.787582252091136 0.49999999999999994
  endloop
endfacet
facet normal 0.6233581945203045 0.7819364176992823 0.0
  outer loop
    vertex -0.49999999999999994 13.038037209787955 0.49999999999999994
    vertex 2.1905146621282956 10.893164143190738 0.0
    vertex -0.49999999999999994 13.038037209787955 0.0
  endloop
endfacet
facet normal 0.6233581945203045 0.7819364176992823 0.0
  outer loop
    vertex 2.1905146621282956 10.893164143190738 0.0
    vertex -0.49999999999999994 13.038037209787955 0.49999999999999994
    vertex 2.1905146621282956 10.893164143190738 0.49999999999999994
  endloop
endfacet
facet normal 0.2756679187337393 0.9612529316371464 0.0
  outer loop
    vertex 19.111560835596 2.1663655430756372 0.49999999999999994
    vertex 21.410742566794383 1.507006677401618 0.0
    vertex 19.111560835596 2.1663655430756372 0.0
  endloop
endfacet
facet normal 0.2756679187337393 0.9612529316371464 0.0
  outer loop
    vertex 21.410742566794383 1.507006677401618 0.0
    vertex 19.111560835596 2.1663655430756372 0.49999999999999994
    vertex 21.410742566794383 1.507006677401618 0.49999999999999994
  endloop
endfacet
facet normal 1.0 0.0 0.0
  outer loop
    vertex 0.0 12.0 0.0
    vertex 0.0 0.0 0.49999999999999994
    vertex 0.0 0.0 0.0
  endloop
endfacet
facet normal 1.0 0.0 0.0
  outer loop
    vertex 0.0 0.0 0.49999999999999994
    vertex 0.0 12.0 0.0
    vertex 0.0 12.0 0.49999999999999994
  endloop
endfacet
facet normal 0.5156632358208066 0.8567913557120047 0.0
  outer loop
    vertex 6.117636261392927 8.163561500400146 0.49999999999999994
    vertex 8.166960604307695 6.93016761183133 0.0
    vertex 6.117636261392927 8.163561500400146 0.0
  endloop
endfacet
facet normal 0.5156632358208066 0.8567913557120047 0.0
  outer loop
    vertex 8.166960604307695 6.93016761183133 0.0
    vertex 6.117636261392927 8.163561500400146 0.49999999999999994
    vertex 8.166960604307695 6.93016761183133 0.49999999999999994
  endloop
endfacet
facet normal -0.0 1.0 0.0
  outer loop
    vertex 0.0 0.0 0.49999999999999994
    vertex 25.999999999999996 0.0 0.0
    vertex 0.0 0.0 0.0
  endloop
endfacet
facet normal -0.0 1.0 0.0
  outer loop
    vertex 25.999999999999996 0.0 0.0
    vertex 0.0 0.0 0.49999999999999994
    vertex 25.999999999999996 0.0 0.49999999999999994
  endloop
endfacet
facet normal 0.23336320903930013 0.9723896403535366 0.0
  outer loop
    vertex 21.410742566794383 1.507006677401618 0.49999999999999994
    vertex 23.736561737925065 0.9488347235921898 0.0
    vertex 21.410742566794383 1.507006677401618 0.0
  endloop
endfacet
facet normal 0.23336320903930013 0.9723896403535366 0.0
  outer loop
    vertex 23.736561737925065 0.9488347235921898 0.0
    vertex 21.410742566794383 1.507006677401618 0.49999999999999994
    vertex 23.736561737925065 0.9488347235921898 0.49999999999999994
  endloop
endfacet
facet normal 0.5885633028923081 0.808451135498304 0.0
  outer loop
    vertex 2.1905146621282956 10.893164143190738 0.49999999999999994
    vertex 4.124216001419734 9.485403553728325 0.0
    vertex 2.1905146621282956 10.893164143190738 0.0
  endloop
endfacet
facet normal 0.5885633028923081 0.808451135498304 0.0
  outer loop
    vertex 4.124216001419734 9.485403553728325 0.0
    vertex 2.1905146621282956 10.893164143190738 0.49999999999999994
    vertex 4.124216001419734 9.485403553728325 0.49999999999999994
  endloop
endfacet
facet normal -0.19061190873116335 -0.9816654726788872 -0.0
  outer loop
    vertex 25.999999999999996 0.0 0.49999999999999994
    vertex 23.630517223745283 0.46008711445764305 0.0
    vertex 25.999999999999996 0.0 0.0
  endloop
endfacet
facet normal -0.19061190873116335 -0.9816654726788872 -0.0
  outer loop
    vertex 23.630517223745283 0.46008711445764305 0.0
    vertex 25.999999999999996 0.0 0.49999999999999994
    vertex 23.630517223745283 0.46008711445764305 0.49999999999999994
  endloop
endfacet
facet normal -0.23336320903930294 -0.9723896403535359 -0.0
  outer loop
    vertex 23.630517223745283 0.46008711445764305 0.49999999999999994
    vertex 21.28342387193511 1.0233646461825765 0.0
    vertex 23.630517223745283 0.46008711445764305 0.0
  endloop
endfacet
facet normal -0.23336320903930294 -0.9723896403535359 -0.0
  outer loop
    vertex 21.28342387193511 1.0233646461825765 0.0
    vertex 23.630517223745283 0.46008711445764305 0.49999999999999994
    vertex 21.28342387193511 1.0233646461825765 0.49999999999999994
  endloop
endfacet
facet normal -0.27566791873374846 -0.9612529316371439 -0.0
  outer loop
    vertex 21.28342387193511 1.0233646461825765 0.49999999999999994
    vertex 18.963211611720883 1.6887546426577422 0.0
    vertex 21.28342387193511 1.0233646461825765 0.0
  endloop
endfacet
facet normal -0.27566791873374846 -0.9612529316371439 -0.0
  outer loop
    vertex 18.963211611720883 1.6887546426577422 0.0
    vertex 21.28342387193511 1.0233646461825765 0.49999999999999994
    vertex 18.963211611720883 1.6887546426577422 0.49999999999999994
  endloop
endfacet
facet normal -0.35861473927466736 -0.933485655366467 -0.0
  outer loop
    vertex 16.67432066751272 2.454983737236796 0.49999999999999994
    vertex 14.421131323656468 3.320585586004632 0.0
    vertex 16.67432066751272 2.454983737236796 0.0
  endloop
endfacet
facet normal -0.35861473927466736 -0.933485655366467 -0.0
  outer loop
    vertex 14.421131323656468 3.320585586004632 0.0
    vertex 16.67432066751272 2.454983737236796 0.49999999999999994
    vertex 14.421131323656468 3.320585586004632 0.49999999999999994
  endloop
endfacet
facet normal -0.4776975703104294 -0.878524348734577 -0.0
  outer loop
    vertex 10.039028709123942 5.343094485019648 0.49999999999999994
    vertex 7.918501532828029 6.496131030168194 0.0
    vertex 10.039028709123942 5.343094485019648 0.0
  endloop
endfacet
facet normal -0.4776975703104294 -0.878524348734577 -0.0
  outer loop
    vertex 7.918501532828029 6.496131030168194 0.0
    vertex 10.039028709123942 5.343094485019648 0.49999999999999994
    vertex 7.918501532828029 6.496131030168194 0.49999999999999994
  endloop
endfacet
facet normal -0.5156632358208003 -0.8567913557120087 -0.0
  outer loop
    vertex 7.918501532828029 6.496131030168194 0.49999999999999994
    vertex 5.850432097052324 7.740806726350932 0.0
    vertex 7.918501532828029 6.496131030168194 0.0
  endloop
endfacet
facet normal -0.5156632358208003 -0.8567913557120087 -0.0
  outer loop
    vertex 5.850432097052324 7.740806726350932 0.0
    vertex 7.918501532828029 6.496131030168194 0.49999999999999994
    vertex 5.850432097052324 7.740806726350932 0.49999999999999994
  endloop
endfacet
facet normal 0.39909811356776514 0.9169082264581615 0.0
  outer loop
    vertex 12.41753477090554 4.737992003628341 0.49999999999999994
    vertex 14.610650208138061 3.7834054827757204 0.0
    vertex 12.41753477090554 4.737992003628341 0.0
  endloop
endfacet
facet normal 0.39909811356776514 0.9169082264581615 0.0
  outer loop
    vertex 14.610650208138061 3.7834054827757204 0.0
    vertex 12.41753477090554 4.737992003628341 0.49999999999999994
    vertex 14.610650208138061 3.7834054827757204 0.49999999999999994
  endloop
endfacet
facet normal -2.6410912701644165e-16 -1.0 -0.0
  outer loop
    vertex 31.198168062714853 -0.5000000000000083 0.49999999999999994
    vertex -0.49999999999999994 -0.49999999999999994 0.0
    vertex 31.198168062714853 -0.5000000000000083 0.0
  endloop
endfacet
facet normal -2.6410912701644165e-16 -1.0 -0.0
  outer loop
    vertex -0.49999999999999994 -0.49999999999999994 0.0
    vertex 31.198168062714853 -0.5000000000000083 0.49999999999999994
    vertex -0.49999999999999994 -0.49999999999999994 0.49999999999999994
  endloop
endfacet
facet normal -0.43881772791687945 -0.8985760967585705 -0.0
  outer loop
    vertex 12.207955541819093 4.2839036739413965 0.49999999999999994
    vertex 10.039028709123942 5.343094485019648 0.0
    vertex 12.207955541819093 4.2839036739413965 0.0
  endloop
endfacet
facet normal -0.43881772791687945 -0.8985760967585705 -0.0
  outer loop
    vertex 10.039028709123942 5.343094485019648 0.0
    vertex 12.207955541819093 4.2839036739413965 0.49999999999999994
    vertex 10.039028709123942 5.343094485019648 0.49999999999999994
  endloop
endfacet
facet normal 0.19061190873116562 0.9816654726788867 0.0
  outer loop
    vertex 23.736561737925065 0.9488347235921898 0.49999999999999994
    vertex 31.198168062714853 -0.5000000000000083 0.0
    vertex 23.736561737925065 0.9488347235921898 0.0
  endloop
endfacet
facet normal 0.19061190873116562 0.9816654726788867 0.0
  outer loop
    vertex 31.198168062714853 -0.5000000000000083 0.0
    vertex 23.736561737925065 0.9488347235921898 0.49999999999999994
    vertex 31.198168062714853 -0.5000000000000083 0.49999999999999994
  endloop
endfacet
facet normal 0.4388177279168769 0.8985760967585716 0.0
  outer loop
    vertex 10.26826720795464 5.787582252091136 0.49999999999999994
    vertex 12.41753477090554 4.737992003628341 0.0
    vertex 10.26826720795464 5.787582252091136 0.0
  endloop
endfacet
facet normal 0.4388177279168769 0.8985760967585716 0.0
  outer loop
    vertex 12.41753477090554 4.737992003628341 0.0
    vertex 10.26826720795464 5.787582252091136 0.49999999999999994
    vertex 12.41753477090554 4.737992003628341 0.49999999999999994
  endloop
endfacet
facet normal -0.5526420689941736 -0.8334187084400251 -0.0
  outer loop
    vertex 5.850432097052324 7.740806726350932 0.49999999999999994
    vertex 3.838778096766378 9.07473961933738 0.0
    vertex 5.850432097052324 7.740806726350932 0.0
  endloop
endfacet
facet normal -0.5526420689941736 -0.8334187084400251 -0.0
  outer loop
    vertex 3.838778096766378 9.07473961933738 0.0
    vertex 5.850432097052324 7.740806726350932 0.49999999999999994
    vertex 3.838778096766378 9.07473961933738 0.49999999999999994
  endloop
endfacet
facet normal -0.5885633028923108 -0.8084511354983023 -0.0
  outer loop
    vertex 3.838778096766378 9.07473961933738 0.49999999999999994
    vertex 1.8873892638890943 10.49537694208357 0.0
    vertex 3.838778096766378 9.07473961933738 0.0
  endloop
endfacet
facet normal -0.5885633028923108 -0.8084511354983023 -0.0
  outer loop
    vertex 1.8873892638890943 10.49537694208357 0.0
    vertex 3.838778096766378 9.07473961933738 0.49999999999999994
    vertex 1.8873892638890943 10.49537694208357 0.49999999999999994
  endloop
endfacet
facet normal -0.6233581945203047 -0.7819364176992821 -0.0
  outer loop
    vertex 1.8873892638890943 10.49537694208357 0.49999999999999994
    vertex 0.0 12.0 0.0
    vertex 1.8873892638890943 10.49537694208357 0.0
  endloop
endfacet
facet normal -0.6233581945203047 -0.7819364176992821 -0.0
  outer loop
    vertex 0.0 12.0 0.0
    vertex 1.8873892638890943 10.49537694208357 0.49999999999999994
    vertex 0.0 12.0 0.49999999999999994
  endloop
endfacet
facet normal -0.3174450786678405 -0.9482766590133749 -0.0
  outer loop
    vertex 18.963211611720883 1.6887546426577422 0.49999999999999994
    vertex 16.67432066751272 2.454983737236796 0.0
    vertex 18.963211611720883 1.6887546426577422 0.0
  endloop
endfacet
facet normal -0.3174450786678405 -0.9482766590133749 -0.0
  outer loop
    vertex 16.67432066751272 2.454983737236796 0.0
    vertex 18.963211611720883 1.6887546426577422 0.49999999999999994
    vertex 16.67432066751272 2.454983737236796 0.49999999999999994
  endloop
endfacet
facet normal 0.0 0.0 -1.0
  outer loop
    vertex -0.49999999999999994 13.038037209787955 0.0
    vertex 0.0 12.0 0.0
    vertex -0.49999999999999994 -0.49999999999999994 0.0
  endloop
endfacet
facet normal 0.0 0.0 -1.0
  outer loop
    vertex 0.0 12.0 0.0
    vertex -0.49999999999999994 13.038037209787955 0.0
    vertex 2.1905146621282956 10.893164143190738 0.0
  endloop
endfacet
facet normal 0.0 0.0 -1.0
  outer loop
    vertex 0.0 12.0 0.0
    vertex 2.1905146621282956 10.893164143190738 0.0
    vertex 1.8873892638890943 10.49537694208357 0.0
  endloop
endfacet
facet normal 0.0 0.0 -1.0
  outer loop
    vertex 1.8873892638890943 10.49537694208357 0.0
    vertex 2.1905146621282956 10.893164143190738 0.0
    vertex 3.838778096766378 9.07473961933738 0.0
  endloop
endfacet
facet normal 0.0 0.0 -1.0
  outer loop
    vertex 3.838778096766378 9.07473961933738 0.0
    vertex 2.1905146621282956 10.893164143190738 0.0
    vertex 4.124216001419734 9.485403553728325 0.0
  endloop
endfacet
facet normal 0.0 0.0 -1.0
  outer loop
    vertex 3.838778096766378 9.07473961933738 0.0
    vertex 4.124216001419734 9.485403553728325 0.0
    vertex 5.850432097052324 7.740806726350932 0.0
  endloop
endfacet
facet normal 0.0 0.0 -1.0
  outer loop
    vertex 5.850432097052324 7.740806726350932 0.0
    vertex 4.124216001419734 9.485403553728325 0.0
    vertex 6.117636261392927 8.163561500400146 0.0
  endloop
endfacet
facet normal 0.0 0.0 -1.0
  outer loop
    vertex 5.850432097052324 7.740806726350932 0.0
    vertex 6.117636261392927 8.163561500400146 0.0
    vertex 7.918501532828029 6.496131030168194 0.0
  endloop
endfacet
facet normal 0.0 0.0 -1.0
  outer loop
    vertex 7.918501532828029 6.496131030168194 0.0
    vertex 6.117636261392927 8.163561500400146 0.0
    vertex 8.166960604307695 6.93016761183133 0.0
  endloop
endfacet
facet normal 0.0 0.0 -1.0
  outer loop
    vertex 7.918501532828029 6.496131030168194 0.0
    vertex 8.166960604307695 6.93016761183133 0.0
    vertex 10.039028709123942 5.343094485019648 0.0
  endloop
endfacet
facet normal 0.0 0.0 -1.0
  outer loop
    vertex 10.039028709123942 5.343094485019648 0.0
    vertex 8.166960604307695 6.93016761183133 0.0
    vertex 10.26826720795464 5.787582252091136 0.0
  endloop
endfacet
facet normal 0.0 0.0 -1.0
  outer loop
    vertex 10.039028709123942 5.343094485019648 0.0
    vertex 10.26826720795464 5.787582252091136 0.0
    vertex 12.207955541819093 4.2839036739413965 0.0
  endloop
endfacet
facet normal 0.0 0.0 -1.0
  outer loop
    vertex 12.207955541819093 4.2839036739413965 0.0
    vertex 10.26826720795464 5.787582252091136 0.0
    vertex 12.41753477090554 4.737992003628341 0.0
  endloop
endfacet
facet normal 0.0 0.0 -1.0
  outer loop
    vertex 12.207955541819093 4.2839036739413965 0.0
    vertex 12.41753477090554 4.737992003628341 0.0
    vertex 14.421131323656468 3.320585586004632 0.0
  endloop
endfacet
facet normal 0.0 0.0 -1.0
  outer loop
    vertex 14.421131323656468 3.320585586004632 0.0
    vertex 12.41753477090554 4.737992003628341 0.0
    vertex 14.610650208138061 3.7834054827757204 0.0
  endloop
endfacet
facet normal 0.0 0.0 -1.0
  outer loop
    vertex 14.421131323656468 3.320585586004632 0.0
    vertex 14.610650208138061 3.7834054827757204 0.0
    vertex 16.67432066751272 2.454983737236796 0.0
  endloop
endfacet
facet normal 0.0 0.0 -1.0
  outer loop
    vertex 16.67432066751272 2.454983737236796 0.0
    vertex 14.610650208138061 3.7834054827757204 0.0
    vertex 16.84341652230521 2.9256494958323915 0.0
  endloop
endfacet
facet normal 0.0 0.0 -1.0
  outer loop
    vertex 16.67432066751272 2.454983737236796 0.0
    vertex 16.84341652230521 2.9256494958323915 0.0
    vertex 18.963211611720883 1.6887546426577422 0.0
  endloop
endfacet
facet normal 0.0 0.0 -1.0
  outer loop
    vertex 18.963211611720883 1.6887546426577422 0.0
    vertex 16.84341652230521 2.9256494958323915 0.0
    vertex 19.111560835596 2.1663655430756372 0.0
  endloop
endfacet
facet normal 0.0 0.0 -1.0
  outer loop
    vertex 18.963211611720883 1.6887546426577422 0.0
    vertex 19.111560835596 2.1663655430756372 0.0
    vertex 21.28342387193511 1.0233646461825765 0.0
  endloop
endfacet
facet normal 0.0 0.0 -1.0
  outer loop
    vertex 21.28342387193511 1.0233646461825765 0.0
    vertex 19.111560835596 2.1663655430756372 0.0
    vertex 21.410742566794383 1.507006677401618 0.0
  endloop
endfacet
facet normal 0.0 0.0 -1.0
  outer loop
    vertex 21.28342387193511 1.0233646461825765 0.0
    vertex 21.410742566794383 1.507006677401618 0.0
    vertex 23.630517223745283 0.46008711445764305 0.0
  endloop
endfacet
facet normal 0.0 0.0 -1.0
  outer loop
    vertex 23.630517223745283 0.46008711445764305 0.0
    vertex 21.410742566794383 1.507006677401618 0.0
    vertex 23.736561737925065 0.9488347235921898 0.0
  endloop
endfacet
facet normal 0.0 0.0 -1.0
  outer loop
    vertex 23.630517223745283 0.46008711445764305 0.0
    vertex 23.736561737925065 0.9488347235921898 0.0
    vertex 25.999999999999996 0.0 0.0
  endloop
endfacet
facet normal 0.0 0.0 -1.0
  outer loop
    vertex 25.999999999999996 0.0 0.0
    vertex 23.736561737925065 0.9488347235921898 0.0
    vertex 31.198168062714853 -0.5000000000000083 0.0
  endloop
endfacet
facet normal 0.0 0.0 -1.0
  outer loop
    vertex -0.49999999999999994 -0.49999999999999994 0.0
    vertex 0.0 0.0 0.0
    vertex 31.198168062714853 -0.5000000000000083 0.0
  endloop
endfacet
facet normal 0.0 0.0 -1.0
  outer loop
    vertex 0.0 0.0 0.0
    vertex -0.49999999999999994 -0.49999999999999994 0.0
    vertex 0.0 12.0 0.0
  endloop
endfacet
facet normal 0.0 0.0 -1.0
  outer loop
    vertex 31.198168062714853 -0.5000000000000083 0.0
    vertex 0.0 0.0 0.0
    vertex 25.999999999999996 0.0 0.0
  endloop
endfacet
facet normal 0.3586147392746647 0.9334856553664682 0.0
  outer loop
    vertex 14.610650208138061 3.7834054827757204 0.49999999999999994
    vertex 16.84341652230521 2.9256494958323915 0.0
    vertex 14.610650208138061 3.7834054827757204 0.0
  endloop
endfacet
facet normal 0.3586147392746647 0.9334856553664682 0.0
  outer loop
    vertex 16.84341652230521 2.9256494958323915 0.0
    vertex 14.610650208138061 3.7834054827757204 0.49999999999999994
    vertex 16.84341652230521 2.9256494958323915 0.49999999999999994
  endloop
endfacet
facet normal 0.0 0.0 1.0
  outer loop
    vertex -0.8072647609057274 14.098323036552141 0.49999999999999994
    vertex -0.30726476090572746 14.59832303655214 0.49999999999999994
    vertex -0.8072647609057274 27.636360246340097 0.49999999999999994
  endloop
endfacet
facet normal 0.0 0.0 1.0
  outer loop
    vertex -0.30726476090572746 14.59832303655214 0.49999999999999994
    vertex -0.8072647609057274 14.098323036552141 0.49999999999999994
    vertex 30.890903301809125 14.098323036552133 0.49999999999999994
  endloop
endfacet
facet normal 0.0 0.0 1.0
  outer loop
    vertex -0.30726476090572746 14.59832303655214 0.49999999999999994
    vertex 30.890903301809125 14.098323036552133 0.49999999999999994
    vertex 25.69273523909427 14.59832303655214 0.49999999999999994
  endloop
endfacet
facet normal 0.0 0.0 1.0
  outer loop
    vertex -0.8072647609057274 27.636360246340097 0.49999999999999994
    vertex -0.30726476090572746 26.59832303655214 0.49999999999999994
    vertex 1.8832499012225683 25.49148717974288 0.49999999999999994
  endloop
endfacet
facet normal 0.0 0.0 1.0
  outer loop
    vertex -0.30726476090572746 26.59832303655214 0.49999999999999994
    vertex -0.8072647609057274 27.636360246340097 0.49999999999999994
    vertex -0.30726476090572746 14.59832303655214 0.49999999999999994
  endloop
endfacet
facet normal 0.0 0.0 1.0
  outer loop
    vertex 1.8832499012225683 25.49148717974288 0.49999999999999994
    vertex -0.30726476090572746 26.59832303655214 0.49999999999999994
    vertex 1.5801245029833668 25.09369997863571 0.49999999999999994
  endloop
endfacet
facet normal 0.0 0.0 1.0
  outer loop
    vertex 1.8832499012225683 25.49148717974288 0.49999999999999994
    vertex 1.5801245029833668 25.09369997863571 0.49999999999999994
    vertex 3.5315133358606507 23.67306265588952 0.49999999999999994
  endloop
endfacet
facet normal 0.0 0.0 1.0
  outer loop
    vertex 1.8832499012225683 25.49148717974288 0.49999999999999994
    vertex 3.5315133358606507 23.67306265588952 0.49999999999999994
    vertex 3.8169512405140065 24.083726590280467 0.49999999999999994
  endloop
endfacet
facet normal 0.0 0.0 1.0
  outer loop
    vertex 3.8169512405140065 24.083726590280467 0.49999999999999994
    vertex 3.5315133358606507 23.67306265588952 0.49999999999999994
    vertex 5.543167336146597 22.339129762903074 0.49999999999999994
  endloop
endfacet
facet normal 0.0 0.0 1.0
  outer loop
    vertex 3.8169512405140065 24.083726590280467 0.49999999999999994
    vertex 5.543167336146597 22.339129762903074 0.49999999999999994
    vertex 5.810371500487199 22.761884536952287 0.49999999999999994
  endloop
endfacet
facet normal 0.0 0.0 1.0
  outer loop
    vertex 5.810371500487199 22.761884536952287 0.49999999999999994
    vertex 5.543167336146597 22.339129762903074 0.49999999999999994
    vertex 7.611236771922302 21.094454066720335 0.49999999999999994
  endloop
endfacet
facet normal 0.0 0.0 1.0
  outer loop
    vertex 5.810371500487199 22.761884536952287 0.49999999999999994
    vertex 7.611236771922302 21.094454066720335 0.49999999999999994
    vertex 7.859695843401969 21.528490648383467 0.49999999999999994
  endloop
endfacet
facet normal 0.0 0.0 1.0
  outer loop
    vertex 7.859695843401969 21.528490648383467 0.49999999999999994
    vertex 7.611236771922302 21.094454066720335 0.49999999999999994
    vertex 9.731763948218214 19.941417521571786 0.49999999999999994
  endloop
endfacet
facet normal 0.0 0.0 1.0
  outer loop
    vertex 7.859695843401969 21.528490648383467 0.49999999999999994
    vertex 9.731763948218214 19.941417521571786 0.49999999999999994
    vertex 9.961002447048912 20.385905288643276 0.49999999999999994
  endloop
endfacet
facet normal 0.0 0.0 1.0
  outer loop
    vertex 9.961002447048912 20.385905288643276 0.49999999999999994
    vertex 9.731763948218214 19.941417521571786 0.49999999999999994
    vertex 11.900690780913363 18.882226710493537 0.49999999999999994
  endloop
endfacet
facet normal 0.0 0.0 1.0
  outer loop
    vertex 9.961002447048912 20.385905288643276 0.49999999999999994
    vertex 11.900690780913363 18.882226710493537 0.49999999999999994
    vertex 12.110270009999812 19.33631504018048 0.49999999999999994
  endloop
endfacet
facet normal 0.0 0.0 1.0
  outer loop
    vertex 12.110270009999812 19.33631504018048 0.49999999999999994
    vertex 11.900690780913363 18.882226710493537 0.49999999999999994
    vertex 14.11386656275074 17.91890862255677 0.49999999999999994
  endloop
endfacet
facet normal 0.0 0.0 1.0
  outer loop
    vertex 12.110270009999812 19.33631504018048 0.49999999999999994
    vertex 14.11386656275074 17.91890862255677 0.49999999999999994
    vertex 14.303385447232333 18.38172851932786 0.49999999999999994
  endloop
endfacet
facet normal 0.0 0.0 1.0
  outer loop
    vertex 14.303385447232333 18.38172851932786 0.49999999999999994
    vertex 14.11386656275074 17.91890862255677 0.49999999999999994
    vertex 16.367055906606993 17.053306773788936 0.49999999999999994
  endloop
endfacet
facet normal 0.0 0.0 1.0
  outer loop
    vertex 14.303385447232333 18.38172851932786 0.49999999999999994
    vertex 16.367055906606993 17.053306773788936 0.49999999999999994
    vertex 16.53615176139948 17.52397253238453 0.49999999999999994
  endloop
endfacet
facet normal 0.0 0.0 1.0
  outer loop
    vertex 16.53615176139948 17.52397253238453 0.49999999999999994
    vertex 16.367055906606993 17.053306773788936 0.49999999999999994
    vertex 18.655946850815155 16.287077679209883 0.49999999999999994
  endloop
endfacet
facet normal 0.0 0.0 1.0
  outer loop
    vertex 16.53615176139948 17.52397253238453 0.49999999999999994
    vertex 18.655946850815155 16.287077679209883 0.49999999999999994
    vertex 18.80429607469027 16.76468857962778 0.49999999999999994
  endloop
endfacet
facet normal 0.0 0.0 1.0
  outer loop
    vertex 18.80429607469027 16.76468857962778 0.49999999999999994
    vertex 18.655946850815155 16.287077679209883 0.49999999999999994
    vertex 20.976159111029382 15.621687682734716 0.49999999999999994
  endloop
endfacet
facet normal 0.0 0.0 1.0
  outer loop
    vertex 18.80429607469027 16.76468857962778 0.49999999999999994
    vertex 20.976159111029382 15.621687682734716 0.49999999999999994
    vertex 21.103477805888655 16.10532971395376 0.49999999999999994
  endloop
endfacet
facet normal 0.0 0.0 1.0
  outer loop
    vertex 21.103477805888655 16.10532971395376 0.49999999999999994
    vertex 20.976159111029382 15.621687682734716 0.49999999999999994
    vertex 23.323252462839555 15.058410151009783 0.49999999999999994
  endloop
endfacet
facet normal 0.0 0.0 1.0
  outer loop
    vertex 21.103477805888655 16.10532971395376 0.49999999999999994
    vertex 23.323252462839555 15.058410151009783 0.49999999999999994
    vertex 23.429296977019337 15.54715776014433 0.49999999999999994
  endloop
endfacet
facet normal 0.0 0.0 1.0
  outer loop
    vertex 23.429296977019337 15.54715776014433 0.49999999999999994
    vertex 23.323252462839555 15.058410151009783 0.49999999999999994
    vertex 25.69273523909427 14.59832303655214 0.49999999999999994
  endloop
endfacet
facet normal 0.0 0.0 1.0
  outer loop
    vertex 23.429296977019337 15.54715776014433 0.49999999999999994
    vertex 25.69273523909427 14.59832303655214 0.49999999999999994
    vertex 30.890903301809125 14.098323036552133 0.49999999999999994
  endloop
endfacet
facet normal -0.3990981135677673 -0.9169082264581605 -0.0
  outer loop
    vertex 14.11386656275074 17.91890862255677 0.49999999999999994
    vertex 11.900690780913363 18.882226710493537 0.0
    vertex 14.11386656275074 17.91890862255677 0.0
  endloop
endfacet
facet normal -0.3990981135677673 -0.9169082264581605 -0.0
  outer loop
    vertex 11.900690780913363 18.882226710493537 0.0
    vertex 14.11386656275074 17.91890862255677 0.49999999999999994
    vertex 11.900690780913363 18.882226710493537 0.49999999999999994
  endloop
endfacet
facet normal -0.31744507866784055 -0.9482766590133751 -0.0
  outer loop
    vertex 18.655946850815155 16.287077679209883 0.49999999999999994
    vertex 16.367055906606993 17.053306773788936 0.0
    vertex 18.655946850815155 16.287077679209883 0.0
  endloop
endfacet
facet normal -0.31744507866784055 -0.9482766590133751 -0.0
  outer loop
    vertex 16.367055906606993 17.053306773788936 0.0
    vertex 18.655946850815155 16.287077679209883 0.49999999999999994
    vertex 16.367055906606993 17.053306773788936 0.49999999999999994
  endloop
endfacet
facet normal 0.6233581945203044 0.7819364176992821 0.0
  outer loop
    vertex -0.8072647609057274 27.636360246340097 0.49999999999999994
    vertex 1.8832499012225683 25.49148717974288 0.0
    vertex -0.8072647609057274 27.636360246340097 0.0
  endloop
endfacet
facet normal 0.6233581945203044 0.7819364176992821 0.0
  outer loop
    vertex 1.8832499012225683 25.49148717974288 0.0
    vertex -0.8072647609057274 27.636360246340097 0.49999999999999994
    vertex 1.8832499012225683 25.49148717974288 0.49999999999999994
  endloop
endfacet
facet normal 1.0 0.0 0.0
  outer loop
    vertex -0.30726476090572746 26.59832303655214 0.0
    vertex -0.30726476090572746 14.59832303655214 0.49999999999999994
    vertex -0.30726476090572746 14.59832303655214 0.0
  endloop
endfacet
facet normal 1.0 0.0 0.0
  outer loop
    vertex -0.30726476090572746 14.59832303655214 0.49999999999999994
    vertex -0.30726476090572746 26.59832303655214 0.0
    vertex -0.30726476090572746 26.59832303655214 0.49999999999999994
  endloop
endfacet
facet normal 0.35861473927466464 0.933485655366468 0.0
  outer loop
    vertex 14.303385447232333 18.38172851932786 0.49999999999999994
    vertex 16.53615176139948 17.52397253238453 0.0
    vertex 14.303385447232333 18.38172851932786 0.0
  endloop
endfacet
facet normal 0.35861473927466464 0.933485655366468 0.0
  outer loop
    vertex 16.53615176139948 17.52397253238453 0.0
    vertex 14.303385447232333 18.38172851932786 0.49999999999999994
    vertex 16.53615176139948 17.52397253238453 0.49999999999999994
  endloop
endfacet
facet normal -0.19061190873116335 -0.9816654726788872 -0.0
  outer loop
    vertex 25.69273523909427 14.59832303655214 0.49999999999999994
    vertex 23.323252462839555 15.058410151009783 0.0
    vertex 25.69273523909427 14.59832303655214 0.0
  endloop
endfacet
facet normal -0.19061190873116335 -0.9816654726788872 -0.0
  outer loop
    vertex 23.323252462839555 15.058410151009783 0.0
    vertex 25.69273523909427 14.59832303655214 0.49999999999999994
    vertex 23.323252462839555 15.058410151009783 0.49999999999999994
  endloop
endfacet
facet normal -0.6233581945203047 -0.7819364176992821 -0.0
  outer loop
    vertex 1.5801245029833668 25.09369997863571 0.49999999999999994
    vertex -0.30726476090572746 26.59832303655214 0.0
    vertex 1.5801245029833668 25.09369997863571 0.0
  endloop
endfacet
facet normal -0.6233581945203047 -0.7819364176992821 -0.0
  outer loop
    vertex -0.30726476090572746 26.59832303655214 0.0
    vertex 1.5801245029833668 25.09369997863571 0.49999999999999994
    vertex -0.30726476090572746 26.59832303655214 0.49999999999999994
  endloop
endfacet
facet normal 0.2756679187337393 0.9612529316371464 0.0
  outer loop
    vertex 18.80429607469027 16.76468857962778 0.49999999999999994
    vertex 21.103477805888655 16.10532971395376 0.0
    vertex 18.80429607469027 16.76468857962778 0.0
  endloop
endfacet
facet normal 0.2756679187337393 0.9612529316371464 0.0
  outer loop
    vertex 21.103477805888655 16.10532971395376 0.0
    vertex 18.80429607469027 16.76468857962778 0.49999999999999994
    vertex 21.103477805888655 16.10532971395376 0.49999999999999994
  endloop
endfacet
facet normal -0.23336320903930288 -0.9723896403535357 -0.0
  outer loop
    vertex 23.323252462839555 15.058410151009783 0.49999999999999994
    vertex 20.976159111029382 15.621687682734716 0.0
    vertex 23.323252462839555 15.058410151009783 0.0
  endloop
endfacet
facet normal -0.23336320903930288 -0.9723896403535357 -0.0
  outer loop
    vertex 20.976159111029382 15.621687682734716 0.0
    vertex 23.323252462839555 15.058410151009783 0.49999999999999994
    vertex 20.976159111029382 15.621687682734716 0.49999999999999994
  endloop
endfacet
facet normal -2.6410912701644165e-16 -1.0 -0.0
  outer loop
    vertex 30.890903301809125 14.098323036552133 0.49999999999999994
    vertex -0.8072647609057274 14.098323036552141 0.0
    vertex 30.890903301809125 14.098323036552133 0.0
  endloop
endfacet
facet normal -2.6410912701644165e-16 -1.0 -0.0
  outer loop
    vertex -0.8072647609057274 14.098323036552141 0.0
    vertex 30.890903301809125 14.098323036552133 0.49999999999999994
    vertex -0.8072647609057274 14.098323036552141 0.49999999999999994
  endloop
endfacet
facet normal -0.43881772791687934 -0.8985760967585703 -0.0
  outer loop
    vertex 11.900690780913363 18.882226710493537 0.49999999999999994
    vertex 9.731763948218214 19.941417521571786 0.0
    vertex 11.900690780913363 18.882226710493537 0.0
  endloop
endfacet
facet normal -0.43881772791687934 -0.8985760967585703 -0.0
  outer loop
    vertex 9.731763948218214 19.941417521571786 0.0
    vertex 11.900690780913363 18.882226710493537 0.49999999999999994
    vertex 9.731763948218214 19.941417521571786 0.49999999999999994
  endloop
endfacet
facet normal 0.31744507866785393 0.9482766590133705 0.0
  outer loop
    vertex 16.53615176139948 17.52397253238453 0.49999999999999994
    vertex 18.80429607469027 16.76468857962778 0.0
    vertex 16.53615176139948 17.52397253238453 0.0
  endloop
endfacet
facet normal 0.31744507866785393 0.9482766590133705 0.0
  outer loop
    vertex 18.80429607469027 16.76468857962778 0.0
    vertex 16.53615176139948 17.52397253238453 0.49999999999999994
    vertex 18.80429607469027 16.76468857962778 0.49999999999999994
  endloop
endfacet
facet normal -0.5526420689941735 -0.8334187084400249 -0.0
  outer loop
    vertex 5.543167336146597 22.339129762903074 0.49999999999999994
    vertex 3.5315133358606507 23.67306265588952 0.0
    vertex 5.543167336146597 22.339129762903074 0.0
  endloop
endfacet
facet normal -0.5526420689941735 -0.8334187084400249 -0.0
  outer loop
    vertex 3.5315133358606507 23.67306265588952 0.0
    vertex 5.543167336146597 22.339129762903074 0.49999999999999994
    vertex 3.5315133358606507 23.67306265588952 0.49999999999999994
  endloop
endfacet
facet normal -1.0 0.0 0.0
  outer loop
    vertex -0.8072647609057274 27.636360246340097 0.49999999999999994
    vertex -0.8072647609057274 14.098323036552141 0.0
    vertex -0.8072647609057274 14.098323036552141 0.49999999999999994
  endloop
endfacet
facet normal -1.0 0.0 0.0
  outer loop
    vertex -0.8072647609057274 14.098323036552141 0.0
    vertex -0.8072647609057274 27.636360246340097 0.49999999999999994
    vertex -0.8072647609057274 27.636360246340097 0.0
  endloop
endfacet
facet normal 0.5156632358208068 0.8567913557120049 0.0
  outer loop
    vertex 5.810371500487199 22.761884536952287 0.49999999999999994
    vertex 7.859695843401969 21.528490648383467 0.0
    vertex 5.810371500487199 22.761884536952287 0.0
  endloop
endfacet
facet normal 0.5156632358208068 0.8567913557120049 0.0
  outer loop
    vertex 7.859695843401969 21.528490648383467 0.0
    vertex 5.810371500487199 22.761884536952287 0.49999999999999994
    vertex 7.859695843401969 21.528490648383467 0.49999999999999994
  endloop
endfacet
facet normal 0.39909811356776514 0.9169082264581615 0.0
  outer loop
    vertex 12.110270009999812 19.33631504018048 0.49999999999999994
    vertex 14.303385447232333 18.38172851932786 0.0
    vertex 12.110270009999812 19.33631504018048 0.0
  endloop
endfacet
facet normal 0.39909811356776514 0.9169082264581615 0.0
  outer loop
    vertex 14.303385447232333 18.38172851932786 0.0
    vertex 12.110270009999812 19.33631504018048 0.49999999999999994
    vertex 14.303385447232333 18.38172851932786 0.49999999999999994
  endloop
endfacet
facet normal 0.19061190873116562 0.9816654726788867 0.0
  outer loop
    vertex 23.429296977019337 15.54715776014433 0.49999999999999994
    vertex 30.890903301809125 14.098323036552133 0.0
    vertex 23.429296977019337 15.54715776014433 0.0
  endloop
endfacet
facet normal 0.19061190873116562 0.9816654726788867 0.0
  outer loop
    vertex 30.890903301809125 14.098323036552133 0.0
    vertex 23.429296977019337 15.54715776014433 0.49999999999999994
    vertex 30.890903301809125 14.098323036552133 0.49999999999999994
  endloop
endfacet
facet normal 0.0 1.0 0.0
  outer loop
    vertex -0.30726476090572746 14.59832303655214 0.49999999999999994
    vertex 25.69273523909427 14.59832303655214 0.0
    vertex -0.30726476090572746 14.59832303655214 0.0
  endloop
endfacet
facet normal 0.0 1.0 0.0
  outer loop
    vertex 25.69273523909427 14.59832303655214 0.0
    vertex -0.30726476090572746 14.59832303655214 0.49999999999999994
    vertex 25.69273523909427 14.59832303655214 0.49999999999999994
  endloop
endfacet
facet normal 0.47769757031043303 0.8785243487345749 0.0
  outer loop
    vertex 7.859695843401969 21.528490648383467 0.49999999999999994
    vertex 9.961002447048912 20.385905288643276 0.0
    vertex 7.859695843401969 21.528490648383467 0.0
  endloop
endfacet
facet normal 0.47769757031043303 0.8785243487345749 0.0
  outer loop
    vertex 9.961002447048912 20.385905288643276 0.0
    vertex 7.859695843401969 21.528490648383467 0.49999999999999994
    vertex 9.961002447048912 20.385905288643276 0.49999999999999994
  endloop
endfacet
facet normal -0.5156632358208003 -0.8567913557120087 -0.0
  outer loop
    vertex 7.611236771922302 21.094454066720335 0.49999999999999994
    vertex 5.543167336146597 22.339129762903074 0.0
    vertex 7.611236771922302 21.094454066720335 0.0
  endloop
endfacet
facet normal -0.5156632358208003 -0.8567913557120087 -0.0
  outer loop
    vertex 5.543167336146597 22.339129762903074 0.0
    vertex 7.611236771922302 21.094454066720335 0.49999999999999994
    vertex 5.543167336146597 22.339129762903074 0.49999999999999994
  endloop
endfacet
facet normal -0.35861473927466736 -0.933485655366467 -0.0
  outer loop
    vertex 16.367055906606993 17.053306773788936 0.49999999999999994
    vertex 14.11386656275074 17.91890862255677 0.0
    vertex 16.367055906606993 17.053306773788936 0.0
  endloop
endfacet
facet normal -0.35861473927466736 -0.933485655366467 -0.0
  outer loop
    vertex 14.11386656275074 17.91890862255677 0.0
    vertex 16.367055906606993 17.053306773788936 0.49999999999999994
    vertex 14.11386656275074 17.91890862255677 0.49999999999999994
  endloop
endfacet
facet normal -0.4776975703104294 -0.878524348734577 -0.0
  outer loop
    vertex 9.731763948218214 19.941417521571786 0.49999999999999994
    vertex 7.611236771922302 21.094454066720335 0.0
    vertex 9.731763948218214 19.941417521571786 0.0
  endloop
endfacet
facet normal -0.4776975703104294 -0.878524348734577 -0.0
  outer loop
    vertex 7.611236771922302 21.094454066720335 0.0
    vertex 9.731763948218214 19.941417521571786 0.49999999999999994
    vertex 7.611236771922302 21.094454066720335 0.49999999999999994
  endloop
endfacet
facet normal -0.5885633028923107 -0.808451135498302 -0.0
  outer loop
    vertex 3.5315133358606507 23.67306265588952 0.49999999999999994
    vertex 1.5801245029833668 25.09369997863571 0.0
    vertex 3.5315133358606507 23.67306265588952 0.0
  endloop
endfacet
facet normal -0.5885633028923107 -0.808451135498302 -0.0
  outer loop
    vertex 1.5801245029833668 25.09369997863571 0.0
    vertex 3.5315133358606507 23.67306265588952 0.49999999999999994
    vertex 1.5801245029833668 25.09369997863571 0.49999999999999994
  endloop
endfacet
facet normal -0.27566791873374846 -0.9612529316371439 -0.0
  outer loop
    vertex 20.976159111029382 15.621687682734716 0.49999999999999994
    vertex 18.655946850815155 16.287077679209883 0.0
    vertex 20.976159111029382 15.621687682734716 0.0
  endloop
endfacet
facet normal -0.27566791873374846 -0.9612529316371439 -0.0
  outer loop
    vertex 18.655946850815155 16.287077679209883 0.0
    vertex 20.976159111029382 15.621687682734716 0.49999999999999994
    vertex 18.655946850815155 16.287077679209883 0.49999999999999994
  endloop
endfacet
facet normal 0.4388177279168769 0.8985760967585716 0.0
  outer loop
    vertex 9.961002447048912 20.385905288643276 0.49999999999999994
    vertex 12.110270009999812 19.33631504018048 0.0
    vertex 9.961002447048912 20.385905288643276 0.0
  endloop
endfacet
facet normal 0.4388177279168769 0.8985760967585716 0.0
  outer loop
    vertex 12.110270009999812 19.33631504018048 0.0
    vertex 9.961002447048912 20.385905288643276 0.49999999999999994
    vertex 12.110270009999812 19.33631504018048 0.49999999999999994
  endloop
endfacet
facet normal 0.0 0.0 -1.0
  outer loop
    vertex -0.8072647609057274 27.636360246340097 0.0
    vertex -0.30726476090572746 26.59832303655214 0.0
    vertex -0.8072647609057274 14.098323036552141 0.0
  endloop
endfacet
facet normal 0.0 0.0 -1.0
  outer loop
    vertex -0.30726476090572746 26.59832303655214 0.0
    vertex -0.8072647609057274 27.636360246340097 0.0
    vertex 1.8832499012225683 25.49148717974288 0.0
  endloop
endfacet
facet normal 0.0 0.0 -1.0
  outer loop
    vertex -0.30726476090572746 26.59832303655214 0.0
    vertex 1.8832499012225683 25.49148717974288 0.0
    vertex 1.5801245029833668 25.09369997863571 0.0
  endloop
endfacet
facet normal 0.0 0.0 -1.0
  outer loop
    vertex 1.5801245029833668 25.09369997863571 0.0
    vertex 1.8832499012225683 25.49148717974288 0.0
    vertex 3.5315133358606507 23.67306265588952 0.0
  endloop
endfacet
facet normal 0.0 0.0 -1.0
  outer loop
    vertex 3.5315133358606507 23.67306265588952 0.0
    vertex 1.8832499012225683 25.49148717974288 0.0
    vertex 3.8169512405140065 24.083726590280467 0.0
  endloop
endfacet
facet normal 0.0 0.0 -1.0
  outer loop
    vertex 3.5315133358606507 23.67306265588952 0.0
    vertex 3.8169512405140065 24.083726590280467 0.0
    vertex 5.543167336146597 22.339129762903074 0.0
  endloop
endfacet
facet normal 0.0 0.0 -1.0
  outer loop
    vertex 5.543167336146597 22.339129762903074 0.0
    vertex 3.8169512405140065 24.083726590280467 0.0
    vertex 5.810371500487199 22.761884536952287 0.0
  endloop
endfacet
facet normal 0.0 0.0 -1.0
  outer loop
    vertex 5.543167336146597 22.339129762903074 0.0
    vertex 5.810371500487199 22.761884536952287 0.0
    vertex 7.611236771922302 21.094454066720335 0.0
  endloop
endfacet
facet normal 0.0 0.0 -1.0
  outer loop
    vertex 7.611236771922302 21.094454066720335 0.0
    vertex 5.810371500487199 22.761884536952287 0.0
    vertex 7.859695843401969 21.528490648383467 0.0
  endloop
endfacet
facet normal 0.0 0.0 -1.0
  outer loop
    vertex 7.611236771922302 21.094454066720335 0.0
    vertex 7.859695843401969 21.528490648383467 0.0
    vertex 9.731763948218214 19.941417521571786 0.0
  endloop
endfacet
facet normal 0.0 0.0 -1.0
  outer loop
    vertex 9.731763948218214 19.941417521571786 0.0
    vertex 7.859695843401969 21.528490648383467 0.0
    vertex 9.961002447048912 20.385905288643276 0.0
  endloop
endfacet
facet normal 0.0 0.0 -1.0
  outer loop
    vertex 9.731763948218214 19.941417521571786 0.0
    vertex 9.961002447048912 20.385905288643276 0.0
    vertex 11.900690780913363 18.882226710493537 0.0
  endloop
endfacet
facet normal 0.0 0.0 -1.0
  outer loop
    vertex 11.900690780913363 18.882226710493537 0.0
    vertex 9.961002447048912 20.385905288643276 0.0
    vertex 12.110270009999812 19.33631504018048 0.0
  endloop
endfacet
facet normal 0.0 0.0 -1.0
  outer loop
    vertex 11.900690780913363 18.882226710493537 0.0
    vertex 12.110270009999812 19.33631504018048 0.0
    vertex 14.11386656275074 17.91890862255677 0.0
  endloop
endfacet
facet normal 0.0 0.0 -1.0
  outer loop
    vertex 14.11386656275074 17.91890862255677 0.0
    vertex 12.110270009999812 19.33631504018048 0.0
    vertex 14.303385447232333 18.38172851932786 0.0
  endloop
endfacet
facet normal 0.0 0.0 -1.0
  outer loop
    vertex 14.11386656275074 17.91890862255677 0.0
    vertex 14.303385447232333 18.38172851932786 0.0
    vertex 16.367055906606993 17.053306773788936 0.0
  endloop
endfacet
facet normal 0.0 0.0 -1.0
  outer loop
    vertex 16.367055906606993 17.053306773788936 0.0
    vertex 14.303385447232333 18.38172851932786 0.0
    vertex 16.53615176139948 17.52397253238453 0.0
  endloop
endfacet
facet normal 0.0 0.0 -1.0
  outer loop
    vertex 16.367055906606993 17.053306773788936 0.0
    vertex 16.53615176139948 17.52397253238453 0.0
    vertex 18.655946850815155 16.287077679209883 0.0
  endloop
endfacet
facet normal 0.0 0.0 -1.0
  outer loop
    vertex 18.655946850815155 16.287077679209883 0.0
    vertex 16.53615176139948 17.52397253238453 0.0
    vertex 18.80429607469027 16.76468857962778 0.0
  endloop
endfacet
facet normal 0.0 0.0 -1.0
  outer loop
    vertex 18.655946850815155 16.287077679209883 0.0
    vertex 18.80429607469027 16.76468857962778 0.0
    vertex 20.976159111029382 15.621687682734716 0.0
  endloop
endfacet
facet normal 0.0 0.0 -1.0
  outer loop
    vertex 20.976159111029382 15.621687682734716 0.0
    vertex 18.80429607469027 16.76468857962778 0.0
    vertex 21.103477805888655 16.10532971395376 0.0
  endloop
endfacet
facet normal 0.0 0.0 -1.0
  outer loop
    vertex 20.976159111029382 15.621687682734716 0.0
    vertex 21.103477805888655 16.10532971395376 0.0
    vertex 23.323252462839555 15.058410151009783 0.0
  endloop
endfacet
facet normal 0.0 0.0 -1.0
  outer loop
    vertex 23.323252462839555 15.058410151009783 0.0
    vertex 21.103477805888655 16.10532971395376 0.0
    vertex 23.429296977019337 15.54715776014433 0.0
  endloop
endfacet
facet normal 0.0 0.0 -1.0
  outer loop
    vertex 23.323252462839555 15.058410151009783 0.0
    vertex 23.429296977019337 15.54715776014433 0.0
    vertex 25.69273523909427 14.59832303655214 0.0
  endloop
endfacet
facet normal 0.0 0.0 -1.0
  outer loop
    vertex 25.69273523909427 14.59832303655214 0.0
    vertex 23.429296977019337 15.54715776014433 0.0
    vertex 30.890903301809125 14.098323036552133 0.0
  endloop
endfacet
facet normal 0.0 0.0 -1.0
  outer loop
    vertex -0.8072647609057274 14.098323036552141 0.0
    vertex -0.30726476090572746 14.59832303655214 0.0
    vertex 30.890903301809125 14.098323036552133 0.0
  endloop
endfacet
facet normal 0.0 0.0 -1.0
  outer loop
    vertex -0.30726476090572746 14.59832303655214 0.0
    vertex -0.8072647609057274 14.098323036552141 0.0
    vertex -0.30726476090572746 26.59832303655214 0.0
  endloop
endfacet
facet normal 0.0 0.0 -1.0
  outer loop
    vertex 30.890903301809125 14.098323036552133 0.0
    vertex -0.30726476090572746 14.59832303655214 0.0
    vertex 25.69273523909427 14.59832303655214 0.0
  endloop
endfacet
facet normal 0.23336320903930013 0.9723896403535366 0.0
  outer loop
    vertex 21.103477805888655 16.10532971395376 0.49999999999999994
    vertex 23.429296977019337 15.54715776014433 0.0
    vertex 21.103477805888655 16.10532971395376 0.0
  endloop
endfacet
facet normal 0.23336320903930013 0.9723896403535366 0.0
  outer loop
    vertex 23.429296977019337 15.54715776014433 0.0
    vertex 21.103477805888655 16.10532971395376 0.49999999999999994
    vertex 23.429296977019337 15.54715776014433 0.49999999999999994
  endloop
endfacet
facet normal 0.5885633028923081 0.808451135498304 0.0
  outer loop
    vertex 1.8832499012225683 25.49148717974288 0.49999999999999994
    vertex 3.8169512405140065 24.083726590280467 0.0
    vertex 1.8832499012225683 25.49148717974288 0.0
  endloop
endfacet
facet normal 0.5885633028923081 0.808451135498304 0.0
  outer loop
    vertex 3.8169512405140065 24.083726590280467 0.0
    vertex 1.8832499012225683 25.49148717974288 0.49999999999999994
    vertex 3.8169512405140065 24.083726590280467 0.49999999999999994
  endloop
endfacet
endsolid Untitled-55ec857e
