solid Untitled-55f0f99c
facet normal 0.0 0.0 1.0
  outer loop
    vertex 0.8000000000000002 1.8823668686672228 1.5
    vertex 0.0 7.0 1.5
    vertex 0.0 2.270597035043714 1.5
  endloop
endfacet
facet normal 0.0 0.0 1.0
  outer loop
    vertex 0.0 7.0 1.5
    vertex 0.8000000000000002 1.8823668686672228 1.5
    vertex 0.7181970111390866 6.882506499266796 1.5
  endloop
endfacet
facet normal 0.0 0.0 1.0
  outer loop
    vertex 0.7181970111390866 6.882506499266796 1.5
    vertex 0.8000000000000002 1.8823668686672228 1.5
    vertex 0.8000000000000002 6.86249861119349 1.5
  endloop
endfacet
facet normal 1.0 -0.0 0.0
  outer loop
    vertex 0.8000000000000002 6.86249861119349 0.49999999999999994
    vertex 0.8000000000000002 1.8823668686672228 1.5
    vertex 0.8000000000000002 1.8823668686672228 0.49999999999999994
  endloop
endfacet
facet normal 1.0 -0.0 0.0
  outer loop
    vertex 0.8000000000000002 1.8823668686672228 1.5
    vertex 0.8000000000000002 6.86249861119349 0.49999999999999994
    vertex 0.8000000000000002 6.86249861119349 1.5
  endloop
endfacet
facet normal -0.05876429775337879 -0.9982718854648528 -0.0
  outer loop
    vertex 5.819854821524293 1.9242225791207728 0.49999999999999856
    vertex 5.65421017565611 1.9339734209833763 0.0
    vertex 5.819854821524293 1.9242225791207728 0.0
  endloop
endfacet
facet normal -0.05876429775337879 -0.9982718854648528 -0.0
  outer loop
    vertex 5.65421017565611 1.9339734209833763 0.0
    vertex 5.819854821524293 1.9242225791207728 0.49999999999999856
    vertex 5.65421017565611 1.9339734209833763 0.49999999999999856
  endloop
endfacet
facet normal -0.3151337290124377 -0.9490472763981337 -0.0
  outer loop
    vertex 5.9773315593750524 1.871932000067675 0.49999999999999856
    vertex 5.819854821524293 1.9242225791207728 0.0
    vertex 5.9773315593750524 1.871932000067675 0.0
  endloop
endfacet
facet normal -0.3151337290124377 -0.9490472763981337 -0.0
  outer loop
    vertex 5.819854821524293 1.9242225791207728 0.0
    vertex 5.9773315593750524 1.871932000067675 0.49999999999999856
    vertex 5.819854821524293 1.9242225791207728 0.49999999999999856
  endloop
endfacet
facet normal -0.5500273174224041 -0.8351466638196635 -0.0
  outer loop
    vertex 6.115908609766475 1.780665200372284 0.49999999999999856
    vertex 5.9773315593750524 1.871932000067675 0.0
    vertex 6.115908609766475 1.780665200372284 0.0
  endloop
endfacet
facet normal -0.5500273174224041 -0.8351466638196635 -0.0
  outer loop
    vertex 5.9773315593750524 1.871932000067675 0.0
    vertex 6.115908609766475 1.780665200372284 0.49999999999999856
    vertex 5.9773315593750524 1.871932000067675 0.49999999999999856
  endloop
endfacet
facet normal -0.9982718854648529 0.058764297753379734 0.0
  outer loop
    vertex 6.333973420983376 1.3457898243438862 0.49999999999999856
    vertex 6.3242225791207725 1.180145178475705 0.0
    vertex 6.3242225791207725 1.180145178475705 0.49999999999999856
  endloop
endfacet
facet normal -0.9982718854648529 0.058764297753379734 0.0
  outer loop
    vertex 6.3242225791207725 1.180145178475705 0.0
    vertex 6.333973420983376 1.3457898243438862 0.49999999999999856
    vertex 6.333973420983376 1.3457898243438862 0.0
  endloop
endfacet
facet normal -0.8939109615730417 -0.4482445680424471 -0.0
  outer loop
    vertex 6.226142175723785 1.6566418616083225 0.49999999999999856
    vertex 6.300520021896577 1.5083139693542993 0.0
    vertex 6.300520021896577 1.5083139693542993 0.49999999999999856
  endloop
endfacet
facet normal -0.8939109615730417 -0.4482445680424471 -0.0
  outer loop
    vertex 6.300520021896577 1.5083139693542993 0.0
    vertex 6.226142175723785 1.6566418616083225 0.49999999999999856
    vertex 6.226142175723785 1.6566418616083225 0.0
  endloop
endfacet
facet normal -0.9490472763981337 0.3151337290124377 0.0
  outer loop
    vertex 6.3242225791207725 1.180145178475705 0.49999999999999856
    vertex 6.271932000067674 1.0226684406249467 0.0
    vertex 6.271932000067674 1.0226684406249467 0.49999999999999856
  endloop
endfacet
facet normal -0.9490472763981337 0.3151337290124377 0.0
  outer loop
    vertex 6.271932000067674 1.0226684406249467 0.0
    vertex 6.3242225791207725 1.180145178475705 0.49999999999999856
    vertex 6.3242225791207725 1.180145178475705 0.0
  endloop
endfacet
facet normal 0.3151337290124371 0.949047276398134 0.0
  outer loop
    vertex 5.422668440624947 0.728067999932325 0.49999999999999856
    vertex 5.580145178475705 0.6757774208792273 0.0
    vertex 5.422668440624947 0.728067999932325 0.0
  endloop
endfacet
facet normal 0.3151337290124371 0.949047276398134 0.0
  outer loop
    vertex 5.580145178475705 0.6757774208792273 0.0
    vertex 5.422668440624947 0.728067999932325 0.49999999999999856
    vertex 5.580145178475705 0.6757774208792273 0.49999999999999856
  endloop
endfacet
facet normal -0.6643321862469977 0.7474374531131581 0.0
  outer loop
    vertex 6.056641861608322 0.7738578242762142 0.49999999999999856
    vertex 6.1806652003722835 0.8840913902335256 0.0
    vertex 6.056641861608322 0.7738578242762142 0.0
  endloop
endfacet
facet normal -0.6643321862469977 0.7474374531131581 0.0
  outer loop
    vertex 6.1806652003722835 0.8840913902335256 0.0
    vertex 6.056641861608322 0.7738578242762142 0.49999999999999856
    vertex 6.1806652003722835 0.8840913902335256 0.49999999999999856
  endloop
endfacet
facet normal 0.8939109615730433 0.44824456804244417 0.0
  outer loop
    vertex 5.099479978103423 1.0916860306457015 0.0
    vertex 5.173857824276214 0.9433581383916756 0.49999999999999856
    vertex 5.173857824276214 0.9433581383916756 0.0
  endloop
endfacet
facet normal 0.8939109615730433 0.44824456804244417 0.0
  outer loop
    vertex 5.173857824276214 0.9433581383916756 0.49999999999999856
    vertex 5.099479978103423 1.0916860306457015 0.0
    vertex 5.099479978103423 1.0916860306457015 0.49999999999999856
  endloop
endfacet
facet normal -0.448244568042448 0.8939109615730414 0.0
  outer loop
    vertex 5.908313969354298 0.6994799781034224 0.49999999999999856
    vertex 6.056641861608322 0.7738578242762142 0.0
    vertex 5.908313969354298 0.6994799781034224 0.0
  endloop
endfacet
facet normal -0.448244568042448 0.8939109615730414 0.0
  outer loop
    vertex 6.056641861608322 0.7738578242762142 0.0
    vertex 5.908313969354298 0.6994799781034224 0.49999999999999856
    vertex 6.056641861608322 0.7738578242762142 0.49999999999999856
  endloop
endfacet
facet normal 0.835146663819663 -0.5500273174224052 0.0
  outer loop
    vertex 5.219334799627717 1.715908609766476 0.0
    vertex 5.128067999932323 1.5773315593750514 0.49999999999999856
    vertex 5.128067999932323 1.5773315593750514 0.0
  endloop
endfacet
facet normal 0.835146663819663 -0.5500273174224052 0.0
  outer loop
    vertex 5.128067999932323 1.5773315593750514 0.49999999999999856
    vertex 5.219334799627717 1.715908609766476 0.0
    vertex 5.219334799627717 1.715908609766476 0.49999999999999856
  endloop
endfacet
facet normal -0.8351466638196602 0.550027317422409 0.0
  outer loop
    vertex 6.271932000067674 1.0226684406249467 0.49999999999999856
    vertex 6.1806652003722835 0.8840913902335256 0.0
    vertex 6.1806652003722835 0.8840913902335256 0.49999999999999856
  endloop
endfacet
facet normal -0.8351466638196602 0.550027317422409 0.0
  outer loop
    vertex 6.1806652003722835 0.8840913902335256 0.0
    vertex 6.271932000067674 1.0226684406249467 0.49999999999999856
    vertex 6.271932000067674 1.0226684406249467 0.0
  endloop
endfacet
facet normal -0.20160982328497684 0.9794659152594338 0.0
  outer loop
    vertex 5.7457898243438885 0.6660265790166235 0.49999999999999856
    vertex 5.908313969354298 0.6994799781034224 0.0
    vertex 5.7457898243438885 0.6660265790166235 0.0
  endloop
endfacet
facet normal -0.20160982328497684 0.9794659152594338 0.0
  outer loop
    vertex 5.908313969354298 0.6994799781034224 0.0
    vertex 5.7457898243438885 0.6660265790166235 0.49999999999999856
    vertex 5.908313969354298 0.6994799781034224 0.49999999999999856
  endloop
endfacet
facet normal 0.7474374531131578 0.6643321862469982 0.0
  outer loop
    vertex 5.173857824276214 0.9433581383916756 0.0
    vertex 5.284091390233525 0.8193347996277155 0.49999999999999856
    vertex 5.284091390233525 0.8193347996277155 0.0
  endloop
endfacet
facet normal 0.7474374531131578 0.6643321862469982 0.0
  outer loop
    vertex 5.284091390233525 0.8193347996277155 0.49999999999999856
    vertex 5.173857824276214 0.9433581383916756 0.0
    vertex 5.173857824276214 0.9433581383916756 0.49999999999999856
  endloop
endfacet
facet normal 0.20160982328497634 -0.979465915259434 0.0
  outer loop
    vertex 5.65421017565611 1.9339734209833763 0.49999999999999856
    vertex 5.4916860306457025 1.900520021896578 0.0
    vertex 5.65421017565611 1.9339734209833763 0.0
  endloop
endfacet
facet normal 0.20160982328497634 -0.979465915259434 0.0
  outer loop
    vertex 5.4916860306457025 1.900520021896578 0.0
    vertex 5.65421017565611 1.9339734209833763 0.49999999999999856
    vertex 5.4916860306457025 1.900520021896578 0.49999999999999856
  endloop
endfacet
facet normal 0.9794659152594336 0.20160982328497823 0.0
  outer loop
    vertex 5.066026579016623 1.2542101756561121 0.0
    vertex 5.099479978103423 1.0916860306457015 0.49999999999999856
    vertex 5.099479978103423 1.0916860306457015 0.0
  endloop
endfacet
facet normal 0.9794659152594336 0.20160982328497823 0.0
  outer loop
    vertex 5.099479978103423 1.0916860306457015 0.49999999999999856
    vertex 5.066026579016623 1.2542101756561121 0.0
    vertex 5.066026579016623 1.2542101756561121 0.49999999999999856
  endloop
endfacet
facet normal -0.7474374531131616 -0.6643321862469939 -0.0
  outer loop
    vertex 6.115908609766475 1.780665200372284 0.49999999999999856
    vertex 6.226142175723785 1.6566418616083225 0.0
    vertex 6.226142175723785 1.6566418616083225 0.49999999999999856
  endloop
endfacet
facet normal -0.7474374531131616 -0.6643321862469939 -0.0
  outer loop
    vertex 6.226142175723785 1.6566418616083225 0.0
    vertex 6.115908609766475 1.780665200372284 0.49999999999999856
    vertex 6.115908609766475 1.780665200372284 0.0
  endloop
endfacet
facet normal 0.44824456804244706 -0.8939109615730417 0.0
  outer loop
    vertex 5.4916860306457025 1.900520021896578 0.49999999999999856
    vertex 5.343358138391674 1.8261421757237848 0.0
    vertex 5.4916860306457025 1.900520021896578 0.0
  endloop
endfacet
facet normal 0.44824456804244706 -0.8939109615730417 0.0
  outer loop
    vertex 5.343358138391674 1.8261421757237848 0.0
    vertex 5.4916860306457025 1.900520021896578 0.49999999999999856
    vertex 5.343358138391674 1.8261421757237848 0.49999999999999856
  endloop
endfacet
facet normal 0.5500273174224036 0.8351466638196637 0.0
  outer loop
    vertex 5.284091390233525 0.8193347996277155 0.49999999999999856
    vertex 5.422668440624947 0.728067999932325 0.0
    vertex 5.284091390233525 0.8193347996277155 0.0
  endloop
endfacet
facet normal 0.5500273174224036 0.8351466638196637 0.0
  outer loop
    vertex 5.422668440624947 0.728067999932325 0.0
    vertex 5.284091390233525 0.8193347996277155 0.49999999999999856
    vertex 5.422668440624947 0.728067999932325 0.49999999999999856
  endloop
endfacet
facet normal 0.9490472763981331 -0.31513372901243925 0.0
  outer loop
    vertex 5.128067999932323 1.5773315593750514 0.0
    vertex 5.075777420879226 1.4198548215242939 0.49999999999999856
    vertex 5.075777420879226 1.4198548215242939 0.0
  endloop
endfacet
facet normal 0.9490472763981331 -0.31513372901243925 0.0
  outer loop
    vertex 5.075777420879226 1.4198548215242939 0.49999999999999856
    vertex 5.128067999932323 1.5773315593750514 0.0
    vertex 5.128067999932323 1.5773315593750514 0.49999999999999856
  endloop
endfacet
facet normal 0.6643321862469973 -0.7474374531131585 0.0
  outer loop
    vertex 5.343358138391674 1.8261421757237848 0.49999999999999856
    vertex 5.219334799627717 1.715908609766476 0.0
    vertex 5.343358138391674 1.8261421757237848 0.0
  endloop
endfacet
facet normal 0.6643321862469973 -0.7474374531131585 0.0
  outer loop
    vertex 5.219334799627717 1.715908609766476 0.0
    vertex 5.343358138391674 1.8261421757237848 0.49999999999999856
    vertex 5.219334799627717 1.715908609766476 0.49999999999999856
  endloop
endfacet
facet normal -0.9794659152594343 -0.2016098232849751 -0.0
  outer loop
    vertex 6.300520021896577 1.5083139693542993 0.49999999999999856
    vertex 6.333973420983376 1.3457898243438862 0.0
    vertex 6.333973420983376 1.3457898243438862 0.49999999999999856
  endloop
endfacet
facet normal -0.9794659152594343 -0.2016098232849751 -0.0
  outer loop
    vertex 6.333973420983376 1.3457898243438862 0.0
    vertex 6.300520021896577 1.5083139693542993 0.49999999999999856
    vertex 6.300520021896577 1.5083139693542993 0.0
  endloop
endfacet
facet normal 0.998271885464853 -0.05876429775337524 0.0
  outer loop
    vertex 5.075777420879226 1.4198548215242939 0.0
    vertex 5.066026579016623 1.2542101756561121 0.49999999999999856
    vertex 5.066026579016623 1.2542101756561121 0.0
  endloop
endfacet
facet normal 0.998271885464853 -0.05876429775337524 0.0
  outer loop
    vertex 5.066026579016623 1.2542101756561121 0.49999999999999856
    vertex 5.075777420879226 1.4198548215242939 0.0
    vertex 5.075777420879226 1.4198548215242939 0.49999999999999856
  endloop
endfacet
facet normal 0.058764297753379574 0.9982718854648528 0.0
  outer loop
    vertex 5.580145178475705 0.6757774208792273 0.49999999999999856
    vertex 5.7457898243438885 0.6660265790166235 0.0
    vertex 5.580145178475705 0.6757774208792273 0.0
  endloop
endfacet
facet normal 0.058764297753379574 0.9982718854648528 0.0
  outer loop
    vertex 5.7457898243438885 0.6660265790166235 0.0
    vertex 5.580145178475705 0.6757774208792273 0.49999999999999856
    vertex 5.7457898243438885 0.6660265790166235 0.49999999999999856
  endloop
endfacet
facet normal 0.7060502147816125 0.7081617712125098 0.0
  outer loop
    vertex 5.198427994336339 4.5895872438071175 0.49999999999999994
    vertex 5.713788639785204 4.075763271374738 0.0
    vertex 5.198427994336339 4.5895872438071175 0.0
  endloop
endfacet
facet normal 0.7060502147816125 0.7081617712125098 0.0
  outer loop
    vertex 5.713788639785204 4.075763271374738 0.0
    vertex 5.198427994336339 4.5895872438071175 0.49999999999999994
    vertex 5.713788639785204 4.075763271374738 0.49999999999999994
  endloop
endfacet
facet normal 0.7474374531131605 0.6643321862469951 0.0
  outer loop
    vertex 7.0 2.3170703565527124 0.0
    vertex 7.075362657955052 2.2322801352027866 0.49999999999999994
    vertex 7.075362657955052 2.2322801352027866 0.0
  endloop
endfacet
facet normal 0.7474374531131605 0.6643321862469951 0.0
  outer loop
    vertex 7.075362657955052 2.2322801352027866 0.49999999999999994
    vertex 7.0 2.3170703565527124 0.0
    vertex 7.0 2.3170703565527124 0.49999999999999994
  endloop
endfacet
facet normal 0.44824456804244767 -0.8939109615730415 0.0
  outer loop
    vertex 6.632280135202787 -0.07536265795505194 0.49999999999999994
    vertex 6.244543410127047 -0.26979016619359714 0.0
    vertex 6.632280135202787 -0.07536265795505194 0.0
  endloop
endfacet
facet normal 0.44824456804244767 -0.8939109615730415 0.0
  outer loop
    vertex 6.244543410127047 -0.26979016619359714 0.0
    vertex 6.632280135202787 -0.07536265795505194 0.49999999999999994
    vertex 6.244543410127047 -0.26979016619359714 0.49999999999999994
  endloop
endfacet
facet normal 0.893910961573042 0.44824456804244656 0.0
  outer loop
    vertex 7.075362657955052 2.2322801352027866 0.0
    vertex 7.269790166193598 1.8445434101270457 0.49999999999999994
    vertex 7.269790166193598 1.8445434101270457 0.0
  endloop
endfacet
facet normal 0.893910961573042 0.44824456804244656 0.0
  outer loop
    vertex 7.269790166193598 1.8445434101270457 0.49999999999999994
    vertex 7.075362657955052 2.2322801352027866 0.0
    vertex 7.075362657955052 2.2322801352027866 0.49999999999999994
  endloop
endfacet
facet normal 0.5233266059075219 0.8521321866643187 0.0
  outer loop
    vertex 3.4359020514852157 5.870541080823717 0.49999999999999994
    vertex 4.056036336586708 5.489693161090232 0.0
    vertex 3.4359020514852157 5.870541080823717 0.0
  endloop
endfacet
facet normal 0.5233266059075219 0.8521321866643187 0.0
  outer loop
    vertex 4.056036336586708 5.489693161090232 0.0
    vertex 3.4359020514852157 5.870541080823717 0.49999999999999994
    vertex 4.056036336586708 5.489693161090232 0.49999999999999994
  endloop
endfacet
facet normal 0.9490472763981331 -0.3151337290124393 0.0
  outer loop
    vertex 7.331749867598176 0.9866933435366352 0.0
    vertex 7.195059609506731 0.5750410663958315 0.49999999999999994
    vertex 7.195059609506731 0.5750410663958315 0.0
  endloop
endfacet
facet normal 0.9490472763981331 -0.3151337290124393 0.0
  outer loop
    vertex 7.195059609506731 0.5750410663958315 0.49999999999999994
    vertex 7.331749867598176 0.9866933435366352 0.0
    vertex 7.331749867598176 0.9866933435366352 0.49999999999999994
  endloop
endfacet
facet normal 0.664332186246998 -0.7474374531131579 0.0
  outer loop
    vertex 6.7170703565527115 0.0 0.49999999999999994
    vertex 6.632280135202787 -0.07536265795505194 0.0
    vertex 6.7170703565527115 0.0 0.0
  endloop
endfacet
facet normal 0.664332186246998 -0.7474374531131579 0.0
  outer loop
    vertex 6.632280135202787 -0.07536265795505194 0.0
    vertex 6.7170703565527115 0.0 0.49999999999999994
    vertex 6.632280135202787 -0.07536265795505194 0.49999999999999994
  endloop
endfacet
facet normal -0.4365934190473916 -0.899658927841273 -0.0
  outer loop
    vertex 4.6788678092403 -2.753873518113181e-18 0.49999999999999994
    vertex 0.0 2.270597035043714 0.0
    vertex 4.6788678092403 -2.753873518113181e-18 0.0
  endloop
endfacet
facet normal -0.4365934190473916 -0.899658927841273 -0.0
  outer loop
    vertex 0.0 2.270597035043714 0.0
    vertex 4.6788678092403 -2.753873518113181e-18 0.49999999999999994
    vertex 0.8000000000000002 1.8823668686672228 0.49999999999999994
  endloop
endfacet
facet normal -0.4365934190473916 -0.899658927841273 -0.0
  outer loop
    vertex 0.0 2.270597035043714 0.0
    vertex 0.8000000000000002 1.8823668686672228 0.49999999999999994
    vertex 0.0 2.270597035043714 1.5
  endloop
endfacet
facet normal -0.4365934190473916 -0.899658927841273 -0.0
  outer loop
    vertex 0.0 2.270597035043714 1.5
    vertex 0.8000000000000002 1.8823668686672228 0.49999999999999994
    vertex 0.8000000000000002 1.8823668686672228 1.5
  endloop
endfacet
facet normal 0.3850975701289901 0.9228758646105921 0.0
  outer loop
    vertex 2.116453015688499 6.482344647304941 0.49999999999999994
    vertex 2.788070604478347 6.202092111274004 0.0
    vertex 2.116453015688499 6.482344647304941 0.0
  endloop
endfacet
facet normal 0.3850975701289901 0.9228758646105921 0.0
  outer loop
    vertex 2.788070604478347 6.202092111274004 0.0
    vertex 2.116453015688499 6.482344647304941 0.49999999999999994
    vertex 2.788070604478347 6.202092111274004 0.49999999999999994
  endloop
endfacet
facet normal 0.83514666381966 -0.5500273174224093 0.0
  outer loop
    vertex 7.0 0.2788678092403038 0.0
    vertex 6.956483509730227 0.21279354252887284 0.49999999999999994
    vertex 6.956483509730227 0.21279354252887284 0.0
  endloop
endfacet
facet normal 0.83514666381966 -0.5500273174224093 0.0
  outer loop
    vertex 6.956483509730227 0.21279354252887284 0.49999999999999994
    vertex 7.0 0.2788678092403038 0.0
    vertex 7.0 0.2788678092403038 0.49999999999999994
  endloop
endfacet
facet normal 0.5879065393015319 0.8089288603125101 0.0
  outer loop
    vertex 4.056036336586708 5.489693161090232 0.49999999999999994
    vertex 4.644729650063758 5.061847567223623 0.0
    vertex 4.056036336586708 5.489693161090232 0.0
  endloop
endfacet
facet normal 0.5879065393015319 0.8089288603125101 0.0
  outer loop
    vertex 4.644729650063758 5.061847567223623 0.0
    vertex 4.056036336586708 5.489693161090232 0.49999999999999994
    vertex 4.644729650063758 5.061847567223623 0.49999999999999994
  endloop
endfacet
facet normal 0.6489372249461165 0.760841953416893 0.0
  outer loop
    vertex 4.644729650063758 5.061847567223623 0.49999999999999994
    vertex 5.198427994336339 4.5895872438071175 0.0
    vertex 4.644729650063758 5.061847567223623 0.0
  endloop
endfacet
facet normal 0.6489372249461165 0.760841953416893 0.0
  outer loop
    vertex 5.198427994336339 4.5895872438071175 0.0
    vertex 4.644729650063758 5.061847567223623 0.49999999999999994
    vertex 5.198427994336339 4.5895872438071175 0.49999999999999994
  endloop
endfacet
facet normal -0.5500273174224056 -0.8351466638196626 -0.0
  outer loop
    vertex 4.975041066395834 -0.1950596095067331 0.49999999999999994
    vertex 4.6788678092403 -2.753873518113181e-18 0.0
    vertex 4.975041066395834 -0.1950596095067331 0.0
  endloop
endfacet
facet normal -0.5500273174224056 -0.8351466638196626 -0.0
  outer loop
    vertex 4.6788678092403 -2.753873518113181e-18 0.0
    vertex 4.975041066395834 -0.1950596095067331 0.49999999999999994
    vertex 4.6788678092403 -2.753873518113181e-18 0.49999999999999994
  endloop
endfacet
facet normal -0.05876429775337933 -0.9982718854648529 -0.0
  outer loop
    vertex 5.819696951551681 -0.35723906880695694 0.49999999999999994
    vertex 5.386693343536631 -0.33174986759817476 0.0
    vertex 5.819696951551681 -0.35723906880695694 0.0
  endloop
endfacet
facet normal -0.05876429775337933 -0.9982718854648529 -0.0
  outer loop
    vertex 5.386693343536631 -0.33174986759817476 0.0
    vertex 5.819696951551681 -0.35723906880695694 0.49999999999999994
    vertex 5.386693343536631 -0.33174986759817476 0.49999999999999994
  endloop
endfacet
facet normal 0.9982718854648531 -0.05876429775337354 0.0
  outer loop
    vertex 7.3572390688069556 1.4196969515516804 0.0
    vertex 7.331749867598176 0.9866933435366352 0.49999999999999994
    vertex 7.331749867598176 0.9866933435366352 0.0
  endloop
endfacet
facet normal 0.9982718854648531 -0.05876429775337354 0.0
  outer loop
    vertex 7.331749867598176 0.9866933435366352 0.49999999999999994
    vertex 7.3572390688069556 1.4196969515516804 0.0
    vertex 7.3572390688069556 1.4196969515516804 0.49999999999999994
  endloop
endfacet
facet normal -0.31513372901243675 -0.949047276398134 -0.0
  outer loop
    vertex 5.386693343536631 -0.33174986759817476 0.49999999999999994
    vertex 4.975041066395834 -0.1950596095067331 0.0
    vertex 5.386693343536631 -0.33174986759817476 0.0
  endloop
endfacet
facet normal -0.31513372901243675 -0.949047276398134 -0.0
  outer loop
    vertex 4.975041066395834 -0.1950596095067331 0.0
    vertex 5.386693343536631 -0.33174986759817476 0.49999999999999994
    vertex 4.975041066395834 -0.1950596095067331 0.49999999999999994
  endloop
endfacet
facet normal 0.9794659152594348 0.20160982328497193 0.0
  outer loop
    vertex 7.269790166193598 1.8445434101270457 0.0
    vertex 7.3572390688069556 1.4196969515516804 0.49999999999999994
    vertex 7.3572390688069556 1.4196969515516804 0.0
  endloop
endfacet
facet normal 0.9794659152594348 0.20160982328497193 0.0
  outer loop
    vertex 7.3572390688069556 1.4196969515516804 0.49999999999999994
    vertex 7.269790166193598 1.8445434101270457 0.0
    vertex 7.269790166193598 1.8445434101270457 0.49999999999999994
  endloop
endfacet
facet normal 0.8351466638196602 -0.5500273174224093 0.0
  outer loop
    vertex 7.195059609506731 0.5750410663958315 0.0
    vertex 7.0 0.2788678092403038 0.49999999999999994
    vertex 7.0 0.2788678092403038 0.0
  endloop
endfacet
facet normal 0.8351466638196602 -0.5500273174224093 0.0
  outer loop
    vertex 7.0 0.2788678092403038 0.49999999999999994
    vertex 7.195059609506731 0.5750410663958315 0.0
    vertex 7.195059609506731 0.5750410663958315 0.49999999999999994
  endloop
endfacet
facet normal 0.23758308703979195 0.9713672203408157 0.0
  outer loop
    vertex 0.7181970111390866 6.882506499266796 0.0
    vertex 0.8000000000000002 6.86249861119349 0.49999999999999994
    vertex 1.4251039044405718 6.70960677767505 0.0
  endloop
endfacet
facet normal 0.23758308703979195 0.9713672203408157 0.0
  outer loop
    vertex 0.8000000000000002 6.86249861119349 0.49999999999999994
    vertex 0.7181970111390866 6.882506499266796 0.0
    vertex 0.7181970111390866 6.882506499266796 1.5
  endloop
endfacet
facet normal 0.23758308703979195 0.9713672203408157 0.0
  outer loop
    vertex 0.8000000000000002 6.86249861119349 0.49999999999999994
    vertex 0.7181970111390866 6.882506499266796 1.5
    vertex 0.8000000000000002 6.86249861119349 1.5
  endloop
endfacet
facet normal 0.23758308703979195 0.9713672203408157 0.0
  outer loop
    vertex 1.4251039044405718 6.70960677767505 0.49999999999999994
    vertex 1.4251039044405718 6.70960677767505 0.0
    vertex 0.8000000000000002 6.86249861119349 0.49999999999999994
  endloop
endfacet
facet normal 0.4555872999703177 0.8901911098779609 0.0
  outer loop
    vertex 2.788070604478347 6.202092111274004 0.49999999999999994
    vertex 3.4359020514852157 5.870541080823717 0.0
    vertex 2.788070604478347 6.202092111274004 0.0
  endloop
endfacet
facet normal 0.4555872999703177 0.8901911098779609 0.0
  outer loop
    vertex 3.4359020514852157 5.870541080823717 0.0
    vertex 2.788070604478347 6.202092111274004 0.49999999999999994
    vertex 3.4359020514852157 5.870541080823717 0.49999999999999994
  endloop
endfacet
facet normal -0.0 -0.0 1.0
  outer loop
    vertex 5.386693343536631 -0.33174986759817476 0.49999999999999994
    vertex 5.066026579016623 1.2542101756561121 0.49999999999999856
    vertex 4.975041066395834 -0.1950596095067331 0.49999999999999994
  endloop
endfacet
facet normal -0.0 -0.0 1.0
  outer loop
    vertex 5.066026579016623 1.2542101756561121 0.49999999999999856
    vertex 5.386693343536631 -0.33174986759817476 0.49999999999999994
    vertex 5.099479978103423 1.0916860306457015 0.49999999999999856
  endloop
endfacet
facet normal -0.0 -0.0 1.0
  outer loop
    vertex 5.099479978103423 1.0916860306457015 0.49999999999999856
    vertex 5.386693343536631 -0.33174986759817476 0.49999999999999994
    vertex 5.173857824276214 0.9433581383916756 0.49999999999999856
  endloop
endfacet
facet normal -0.0 -0.0 1.0
  outer loop
    vertex 5.173857824276214 0.9433581383916756 0.49999999999999856
    vertex 5.386693343536631 -0.33174986759817476 0.49999999999999994
    vertex 5.284091390233525 0.8193347996277155 0.49999999999999856
  endloop
endfacet
facet normal -0.0 -0.0 1.0
  outer loop
    vertex 5.284091390233525 0.8193347996277155 0.49999999999999856
    vertex 5.386693343536631 -0.33174986759817476 0.49999999999999994
    vertex 5.422668440624947 0.728067999932325 0.49999999999999856
  endloop
endfacet
facet normal -0.0 -0.0 1.0
  outer loop
    vertex 5.422668440624947 0.728067999932325 0.49999999999999856
    vertex 5.386693343536631 -0.33174986759817476 0.49999999999999994
    vertex 5.819696951551681 -0.35723906880695694 0.49999999999999994
  endloop
endfacet
facet normal -0.0 -0.0 1.0
  outer loop
    vertex 5.422668440624947 0.728067999932325 0.49999999999999856
    vertex 5.819696951551681 -0.35723906880695694 0.49999999999999994
    vertex 5.580145178475705 0.6757774208792273 0.49999999999999856
  endloop
endfacet
facet normal -0.0 -0.0 1.0
  outer loop
    vertex 5.580145178475705 0.6757774208792273 0.49999999999999856
    vertex 5.819696951551681 -0.35723906880695694 0.49999999999999994
    vertex 5.7457898243438885 0.6660265790166235 0.49999999999999856
  endloop
endfacet
facet normal -0.0 -0.0 1.0
  outer loop
    vertex 5.7457898243438885 0.6660265790166235 0.49999999999999856
    vertex 5.819696951551681 -0.35723906880695694 0.49999999999999994
    vertex 5.908313969354298 0.6994799781034224 0.49999999999999856
  endloop
endfacet
facet normal -0.0 -0.0 1.0
  outer loop
    vertex 5.908313969354298 0.6994799781034224 0.49999999999999856
    vertex 5.819696951551681 -0.35723906880695694 0.49999999999999994
    vertex 6.244543410127047 -0.26979016619359714 0.49999999999999994
  endloop
endfacet
facet normal -0.0 -0.0 1.0
  outer loop
    vertex 5.908313969354298 0.6994799781034224 0.49999999999999856
    vertex 6.244543410127047 -0.26979016619359714 0.49999999999999994
    vertex 6.056641861608322 0.7738578242762142 0.49999999999999856
  endloop
endfacet
facet normal -0.0 -0.0 1.0
  outer loop
    vertex 6.056641861608322 0.7738578242762142 0.49999999999999856
    vertex 6.244543410127047 -0.26979016619359714 0.49999999999999994
    vertex 6.1806652003722835 0.8840913902335256 0.49999999999999856
  endloop
endfacet
facet normal -0.0 -0.0 1.0
  outer loop
    vertex 6.1806652003722835 0.8840913902335256 0.49999999999999856
    vertex 6.244543410127047 -0.26979016619359714 0.49999999999999994
    vertex 6.271932000067674 1.0226684406249467 0.49999999999999856
  endloop
endfacet
facet normal -0.0 -0.0 1.0
  outer loop
    vertex 6.271932000067674 1.0226684406249467 0.49999999999999856
    vertex 6.244543410127047 -0.26979016619359714 0.49999999999999994
    vertex 6.632280135202787 -0.07536265795505194 0.49999999999999994
  endloop
endfacet
facet normal -0.0 -0.0 1.0
  outer loop
    vertex 6.271932000067674 1.0226684406249467 0.49999999999999856
    vertex 6.632280135202787 -0.07536265795505194 0.49999999999999994
    vertex 6.3242225791207725 1.180145178475705 0.49999999999999856
  endloop
endfacet
facet normal -0.0 -0.0 1.0
  outer loop
    vertex 6.3242225791207725 1.180145178475705 0.49999999999999856
    vertex 6.632280135202787 -0.07536265795505194 0.49999999999999994
    vertex 6.333973420983376 1.3457898243438862 0.49999999999999856
  endloop
endfacet
facet normal -0.0 -0.0 1.0
  outer loop
    vertex 6.333973420983376 1.3457898243438862 0.49999999999999856
    vertex 6.632280135202787 -0.07536265795505194 0.49999999999999994
    vertex 6.617301940524825 2.9360645930344407 0.49999999999999994
  endloop
endfacet
facet normal -0.0 -0.0 1.0
  outer loop
    vertex 6.617301940524825 2.9360645930344407 0.49999999999999994
    vertex 6.632280135202787 -0.07536265795505194 0.49999999999999994
    vertex 7.0 2.3170703565527124 0.49999999999999994
  endloop
endfacet
facet normal -0.0 -0.0 1.0
  outer loop
    vertex 7.0 2.3170703565527124 0.49999999999999994
    vertex 6.632280135202787 -0.07536265795505194 0.49999999999999994
    vertex 6.7170703565527115 0.0 0.49999999999999994
  endloop
endfacet
facet normal -0.0 -0.0 1.0
  outer loop
    vertex 7.0 2.3170703565527124 0.49999999999999994
    vertex 6.7170703565527115 0.0 0.49999999999999994
    vertex 6.956483509730227 0.21279354252887284 0.49999999999999994
  endloop
endfacet
facet normal -0.0 -0.0 1.0
  outer loop
    vertex 7.0 2.3170703565527124 0.49999999999999994
    vertex 6.956483509730227 0.21279354252887284 0.49999999999999994
    vertex 7.0 0.2788678092403038 0.49999999999999994
  endloop
endfacet
facet normal -0.0 -0.0 1.0
  outer loop
    vertex 7.0 2.3170703565527124 0.49999999999999994
    vertex 7.0 0.2788678092403038 0.49999999999999994
    vertex 7.195059609506731 0.5750410663958315 0.49999999999999994
  endloop
endfacet
facet normal -0.0 -0.0 1.0
  outer loop
    vertex 7.0 2.3170703565527124 0.49999999999999994
    vertex 7.195059609506731 0.5750410663958315 0.49999999999999994
    vertex 7.075362657955052 2.2322801352027866 0.49999999999999994
  endloop
endfacet
facet normal -0.0 -0.0 1.0
  outer loop
    vertex 7.075362657955052 2.2322801352027866 0.49999999999999994
    vertex 7.195059609506731 0.5750410663958315 0.49999999999999994
    vertex 7.269790166193598 1.8445434101270457 0.49999999999999994
  endloop
endfacet
facet normal -0.0 -0.0 1.0
  outer loop
    vertex 7.269790166193598 1.8445434101270457 0.49999999999999994
    vertex 7.195059609506731 0.5750410663958315 0.49999999999999994
    vertex 7.331749867598176 0.9866933435366352 0.49999999999999994
  endloop
endfacet
facet normal -0.0 -0.0 1.0
  outer loop
    vertex 7.269790166193598 1.8445434101270457 0.49999999999999994
    vertex 7.331749867598176 0.9866933435366352 0.49999999999999994
    vertex 7.3572390688069556 1.4196969515516804 0.49999999999999994
  endloop
endfacet
facet normal -0.0 -0.0 1.0
  outer loop
    vertex 4.6788678092403 -2.753873518113181e-18 0.49999999999999994
    vertex 0.8000000000000002 6.86249861119349 0.49999999999999994
    vertex 0.8000000000000002 1.8823668686672228 0.49999999999999994
  endloop
endfacet
facet normal -0.0 -0.0 1.0
  outer loop
    vertex 0.8000000000000002 6.86249861119349 0.49999999999999994
    vertex 4.6788678092403 -2.753873518113181e-18 0.49999999999999994
    vertex 1.4251039044405718 6.70960677767505 0.49999999999999994
  endloop
endfacet
facet normal -0.0 -0.0 1.0
  outer loop
    vertex 1.4251039044405718 6.70960677767505 0.49999999999999994
    vertex 4.6788678092403 -2.753873518113181e-18 0.49999999999999994
    vertex 2.116453015688499 6.482344647304941 0.49999999999999994
  endloop
endfacet
facet normal -0.0 -0.0 1.0
  outer loop
    vertex 2.116453015688499 6.482344647304941 0.49999999999999994
    vertex 4.6788678092403 -2.753873518113181e-18 0.49999999999999994
    vertex 2.788070604478347 6.202092111274004 0.49999999999999994
  endloop
endfacet
facet normal -0.0 -0.0 1.0
  outer loop
    vertex 2.788070604478347 6.202092111274004 0.49999999999999994
    vertex 4.6788678092403 -2.753873518113181e-18 0.49999999999999994
    vertex 3.4359020514852157 5.870541080823717 0.49999999999999994
  endloop
endfacet
facet normal -0.0 -0.0 1.0
  outer loop
    vertex 3.4359020514852157 5.870541080823717 0.49999999999999994
    vertex 4.6788678092403 -2.753873518113181e-18 0.49999999999999994
    vertex 4.056036336586708 5.489693161090232 0.49999999999999994
  endloop
endfacet
facet normal -0.0 -0.0 1.0
  outer loop
    vertex 4.056036336586708 5.489693161090232 0.49999999999999994
    vertex 4.6788678092403 -2.753873518113181e-18 0.49999999999999994
    vertex 4.644729650063758 5.061847567223623 0.49999999999999994
  endloop
endfacet
facet normal -0.0 -0.0 1.0
  outer loop
    vertex 4.644729650063758 5.061847567223623 0.49999999999999994
    vertex 4.6788678092403 -2.753873518113181e-18 0.49999999999999994
    vertex 5.198427994336339 4.5895872438071175 0.49999999999999994
  endloop
endfacet
facet normal -0.0 -0.0 1.0
  outer loop
    vertex 5.198427994336339 4.5895872438071175 0.49999999999999994
    vertex 4.6788678092403 -2.753873518113181e-18 0.49999999999999994
    vertex 4.975041066395834 -0.1950596095067331 0.49999999999999994
  endloop
endfacet
facet normal -0.0 -0.0 1.0
  outer loop
    vertex 5.198427994336339 4.5895872438071175 0.49999999999999994
    vertex 4.975041066395834 -0.1950596095067331 0.49999999999999994
    vertex 5.066026579016623 1.2542101756561121 0.49999999999999856
  endloop
endfacet
facet normal -0.0 -0.0 1.0
  outer loop
    vertex 5.198427994336339 4.5895872438071175 0.49999999999999994
    vertex 5.066026579016623 1.2542101756561121 0.49999999999999856
    vertex 5.075777420879226 1.4198548215242939 0.49999999999999856
  endloop
endfacet
facet normal -0.0 -0.0 1.0
  outer loop
    vertex 5.198427994336339 4.5895872438071175 0.49999999999999994
    vertex 5.075777420879226 1.4198548215242939 0.49999999999999856
    vertex 5.128067999932323 1.5773315593750514 0.49999999999999856
  endloop
endfacet
facet normal -0.0 -0.0 1.0
  outer loop
    vertex 5.198427994336339 4.5895872438071175 0.49999999999999994
    vertex 5.128067999932323 1.5773315593750514 0.49999999999999856
    vertex 5.219334799627717 1.715908609766476 0.49999999999999856
  endloop
endfacet
facet normal -0.0 -0.0 1.0
  outer loop
    vertex 5.198427994336339 4.5895872438071175 0.49999999999999994
    vertex 5.219334799627717 1.715908609766476 0.49999999999999856
    vertex 5.713788639785204 4.075763271374738 0.49999999999999994
  endloop
endfacet
facet normal -0.0 -0.0 1.0
  outer loop
    vertex 5.713788639785204 4.075763271374738 0.49999999999999994
    vertex 5.219334799627717 1.715908609766476 0.49999999999999856
    vertex 5.343358138391674 1.8261421757237848 0.49999999999999856
  endloop
endfacet
facet normal -0.0 -0.0 1.0
  outer loop
    vertex 5.713788639785204 4.075763271374738 0.49999999999999994
    vertex 5.343358138391674 1.8261421757237848 0.49999999999999856
    vertex 5.4916860306457025 1.900520021896578 0.49999999999999856
  endloop
endfacet
facet normal -0.0 -0.0 1.0
  outer loop
    vertex 5.713788639785204 4.075763271374738 0.49999999999999994
    vertex 5.4916860306457025 1.900520021896578 0.49999999999999856
    vertex 5.65421017565611 1.9339734209833763 0.49999999999999856
  endloop
endfacet
facet normal -0.0 -0.0 1.0
  outer loop
    vertex 5.713788639785204 4.075763271374738 0.49999999999999994
    vertex 5.65421017565611 1.9339734209833763 0.49999999999999856
    vertex 5.819854821524293 1.9242225791207728 0.49999999999999856
  endloop
endfacet
facet normal -0.0 -0.0 1.0
  outer loop
    vertex 5.713788639785204 4.075763271374738 0.49999999999999994
    vertex 5.819854821524293 1.9242225791207728 0.49999999999999856
    vertex 6.1877003051288515 3.5234776541666935 0.49999999999999994
  endloop
endfacet
facet normal -0.0 -0.0 1.0
  outer loop
    vertex 6.1877003051288515 3.5234776541666935 0.49999999999999994
    vertex 5.819854821524293 1.9242225791207728 0.49999999999999856
    vertex 5.9773315593750524 1.871932000067675 0.49999999999999856
  endloop
endfacet
facet normal -0.0 -0.0 1.0
  outer loop
    vertex 6.1877003051288515 3.5234776541666935 0.49999999999999994
    vertex 5.9773315593750524 1.871932000067675 0.49999999999999856
    vertex 6.115908609766475 1.780665200372284 0.49999999999999856
  endloop
endfacet
facet normal -0.0 -0.0 1.0
  outer loop
    vertex 6.1877003051288515 3.5234776541666935 0.49999999999999994
    vertex 6.115908609766475 1.780665200372284 0.49999999999999856
    vertex 6.226142175723785 1.6566418616083225 0.49999999999999856
  endloop
endfacet
facet normal -0.0 -0.0 1.0
  outer loop
    vertex 6.1877003051288515 3.5234776541666935 0.49999999999999994
    vertex 6.226142175723785 1.6566418616083225 0.49999999999999856
    vertex 6.617301940524825 2.9360645930344407 0.49999999999999994
  endloop
endfacet
facet normal -0.0 -0.0 1.0
  outer loop
    vertex 6.617301940524825 2.9360645930344407 0.49999999999999994
    vertex 6.226142175723785 1.6566418616083225 0.49999999999999856
    vertex 6.300520021896577 1.5083139693542993 0.49999999999999856
  endloop
endfacet
facet normal -0.0 -0.0 1.0
  outer loop
    vertex 6.617301940524825 2.9360645930344407 0.49999999999999994
    vertex 6.300520021896577 1.5083139693542993 0.49999999999999856
    vertex 6.333973420983376 1.3457898243438862 0.49999999999999856
  endloop
endfacet
facet normal -1.0 0.0 0.0
  outer loop
    vertex 0.0 7.0 1.5
    vertex 0.0 2.270597035043714 0.0
    vertex 0.0 2.270597035043714 1.5
  endloop
endfacet
facet normal -1.0 0.0 0.0
  outer loop
    vertex 0.0 2.270597035043714 0.0
    vertex 0.0 7.0 1.5
    vertex 0.0 7.0 0.0
  endloop
endfacet
facet normal 0.6643321862469994 -0.7474374531131567 0.0
  outer loop
    vertex 6.956483509730227 0.21279354252887284 0.49999999999999994
    vertex 6.7170703565527115 0.0 0.0
    vertex 6.956483509730227 0.21279354252887284 0.0
  endloop
endfacet
facet normal 0.6643321862469994 -0.7474374531131567 0.0
  outer loop
    vertex 6.7170703565527115 0.0 0.0
    vertex 6.956483509730227 0.21279354252887284 0.49999999999999994
    vertex 6.7170703565527115 0.0 0.49999999999999994
  endloop
endfacet
facet normal 0.7589007122509313 0.6512063489747542 0.0
  outer loop
    vertex 5.713788639785204 4.075763271374738 0.0
    vertex 6.1877003051288515 3.5234776541666935 0.49999999999999994
    vertex 6.1877003051288515 3.5234776541666935 0.0
  endloop
endfacet
facet normal 0.7589007122509313 0.6512063489747542 0.0
  outer loop
    vertex 6.1877003051288515 3.5234776541666935 0.49999999999999994
    vertex 5.713788639785204 4.075763271374738 0.0
    vertex 5.713788639785204 4.075763271374738 0.49999999999999994
  endloop
endfacet
facet normal 0.8071696538692228 0.5903195320101136 0.0
  outer loop
    vertex 6.1877003051288515 3.5234776541666935 0.0
    vertex 6.617301940524825 2.9360645930344407 0.49999999999999994
    vertex 6.617301940524825 2.9360645930344407 0.0
  endloop
endfacet
facet normal 0.8071696538692228 0.5903195320101136 0.0
  outer loop
    vertex 6.617301940524825 2.9360645930344407 0.49999999999999994
    vertex 6.1877003051288515 3.5234776541666935 0.0
    vertex 6.1877003051288515 3.5234776541666935 0.49999999999999994
  endloop
endfacet
facet normal 0.3122829695935589 0.9499891298861416 0.0
  outer loop
    vertex 1.4251039044405718 6.70960677767505 0.49999999999999994
    vertex 2.116453015688499 6.482344647304941 0.0
    vertex 1.4251039044405718 6.70960677767505 0.0
  endloop
endfacet
facet normal 0.3122829695935589 0.9499891298861416 0.0
  outer loop
    vertex 2.116453015688499 6.482344647304941 0.0
    vertex 1.4251039044405718 6.70960677767505 0.49999999999999994
    vertex 2.116453015688499 6.482344647304941 0.49999999999999994
  endloop
endfacet
facet normal 0.850565635440491 0.525868899829334 0.0
  outer loop
    vertex 6.617301940524825 2.9360645930344407 0.0
    vertex 7.0 2.3170703565527124 0.49999999999999994
    vertex 7.0 2.3170703565527124 0.0
  endloop
endfacet
facet normal 0.850565635440491 0.525868899829334 0.0
  outer loop
    vertex 7.0 2.3170703565527124 0.49999999999999994
    vertex 6.617301940524825 2.9360645930344407 0.0
    vertex 6.617301940524825 2.9360645930344407 0.49999999999999994
  endloop
endfacet
facet normal 0.20160982328497654 -0.9794659152594339 0.0
  outer loop
    vertex 6.244543410127047 -0.26979016619359714 0.49999999999999994
    vertex 5.819696951551681 -0.35723906880695694 0.0
    vertex 6.244543410127047 -0.26979016619359714 0.0
  endloop
endfacet
facet normal 0.20160982328497654 -0.9794659152594339 0.0
  outer loop
    vertex 5.819696951551681 -0.35723906880695694 0.0
    vertex 6.244543410127047 -0.26979016619359714 0.49999999999999994
    vertex 5.819696951551681 -0.35723906880695694 0.49999999999999994
  endloop
endfacet
facet normal 0.1614488927704507 0.9868810744072437 0.0
  outer loop
    vertex 0.0 7.0 1.5
    vertex 0.7181970111390866 6.882506499266796 0.0
    vertex 0.0 7.0 0.0
  endloop
endfacet
facet normal 0.1614488927704507 0.9868810744072437 0.0
  outer loop
    vertex 0.7181970111390866 6.882506499266796 0.0
    vertex 0.0 7.0 1.5
    vertex 0.7181970111390866 6.882506499266796 1.5
  endloop
endfacet
facet normal 0.0 0.0 -1.0
  outer loop
    vertex 0.7181970111390866 6.882506499266796 0.0
    vertex 0.0 2.270597035043714 0.0
    vertex 0.0 7.0 0.0
  endloop
endfacet
facet normal 0.0 0.0 -1.0
  outer loop
    vertex 0.0 2.270597035043714 0.0
    vertex 0.7181970111390866 6.882506499266796 0.0
    vertex 4.6788678092403 -2.753873518113181e-18 0.0
  endloop
endfacet
facet normal 0.0 0.0 -1.0
  outer loop
    vertex 4.6788678092403 -2.753873518113181e-18 0.0
    vertex 0.7181970111390866 6.882506499266796 0.0
    vertex 1.4251039044405718 6.70960677767505 0.0
  endloop
endfacet
facet normal 0.0 0.0 -1.0
  outer loop
    vertex 4.6788678092403 -2.753873518113181e-18 0.0
    vertex 1.4251039044405718 6.70960677767505 0.0
    vertex 2.116453015688499 6.482344647304941 0.0
  endloop
endfacet
facet normal 0.0 0.0 -1.0
  outer loop
    vertex 4.6788678092403 -2.753873518113181e-18 0.0
    vertex 2.116453015688499 6.482344647304941 0.0
    vertex 2.788070604478347 6.202092111274004 0.0
  endloop
endfacet
facet normal 0.0 0.0 -1.0
  outer loop
    vertex 4.6788678092403 -2.753873518113181e-18 0.0
    vertex 2.788070604478347 6.202092111274004 0.0
    vertex 3.4359020514852157 5.870541080823717 0.0
  endloop
endfacet
facet normal 0.0 0.0 -1.0
  outer loop
    vertex 4.6788678092403 -2.753873518113181e-18 0.0
    vertex 3.4359020514852157 5.870541080823717 0.0
    vertex 4.056036336586708 5.489693161090232 0.0
  endloop
endfacet
facet normal 0.0 0.0 -1.0
  outer loop
    vertex 4.6788678092403 -2.753873518113181e-18 0.0
    vertex 4.056036336586708 5.489693161090232 0.0
    vertex 4.644729650063758 5.061847567223623 0.0
  endloop
endfacet
facet normal 0.0 0.0 -1.0
  outer loop
    vertex 4.6788678092403 -2.753873518113181e-18 0.0
    vertex 4.644729650063758 5.061847567223623 0.0
    vertex 5.198427994336339 4.5895872438071175 0.0
  endloop
endfacet
facet normal 0.0 0.0 -1.0
  outer loop
    vertex 4.6788678092403 -2.753873518113181e-18 0.0
    vertex 5.198427994336339 4.5895872438071175 0.0
    vertex 4.975041066395834 -0.1950596095067331 0.0
  endloop
endfacet
facet normal 0.0 0.0 -1.0
  outer loop
    vertex 4.975041066395834 -0.1950596095067331 0.0
    vertex 5.198427994336339 4.5895872438071175 0.0
    vertex 5.066026579016623 1.2542101756561121 0.0
  endloop
endfacet
facet normal 0.0 0.0 -1.0
  outer loop
    vertex 5.066026579016623 1.2542101756561121 0.0
    vertex 5.198427994336339 4.5895872438071175 0.0
    vertex 5.075777420879226 1.4198548215242939 0.0
  endloop
endfacet
facet normal 0.0 0.0 -1.0
  outer loop
    vertex 5.075777420879226 1.4198548215242939 0.0
    vertex 5.198427994336339 4.5895872438071175 0.0
    vertex 5.128067999932323 1.5773315593750514 0.0
  endloop
endfacet
facet normal 0.0 0.0 -1.0
  outer loop
    vertex 5.128067999932323 1.5773315593750514 0.0
    vertex 5.198427994336339 4.5895872438071175 0.0
    vertex 5.219334799627717 1.715908609766476 0.0
  endloop
endfacet
facet normal 0.0 0.0 -1.0
  outer loop
    vertex 5.219334799627717 1.715908609766476 0.0
    vertex 5.198427994336339 4.5895872438071175 0.0
    vertex 5.713788639785204 4.075763271374738 0.0
  endloop
endfacet
facet normal 0.0 0.0 -1.0
  outer loop
    vertex 5.219334799627717 1.715908609766476 0.0
    vertex 5.713788639785204 4.075763271374738 0.0
    vertex 5.343358138391674 1.8261421757237848 0.0
  endloop
endfacet
facet normal 0.0 0.0 -1.0
  outer loop
    vertex 5.343358138391674 1.8261421757237848 0.0
    vertex 5.713788639785204 4.075763271374738 0.0
    vertex 5.4916860306457025 1.900520021896578 0.0
  endloop
endfacet
facet normal 0.0 0.0 -1.0
  outer loop
    vertex 5.4916860306457025 1.900520021896578 0.0
    vertex 5.713788639785204 4.075763271374738 0.0
    vertex 5.65421017565611 1.9339734209833763 0.0
  endloop
endfacet
facet normal 0.0 0.0 -1.0
  outer loop
    vertex 5.65421017565611 1.9339734209833763 0.0
    vertex 5.713788639785204 4.075763271374738 0.0
    vertex 5.819854821524293 1.9242225791207728 0.0
  endloop
endfacet
facet normal 0.0 0.0 -1.0
  outer loop
    vertex 5.819854821524293 1.9242225791207728 0.0
    vertex 5.713788639785204 4.075763271374738 0.0
    vertex 6.1877003051288515 3.5234776541666935 0.0
  endloop
endfacet
facet normal 0.0 0.0 -1.0
  outer loop
    vertex 5.819854821524293 1.9242225791207728 0.0
    vertex 6.1877003051288515 3.5234776541666935 0.0
    vertex 5.9773315593750524 1.871932000067675 0.0
  endloop
endfacet
facet normal 0.0 0.0 -1.0
  outer loop
    vertex 5.9773315593750524 1.871932000067675 0.0
    vertex 6.1877003051288515 3.5234776541666935 0.0
    vertex 6.115908609766475 1.780665200372284 0.0
  endloop
endfacet
facet normal 0.0 0.0 -1.0
  outer loop
    vertex 6.115908609766475 1.780665200372284 0.0
    vertex 6.1877003051288515 3.5234776541666935 0.0
    vertex 6.226142175723785 1.6566418616083225 0.0
  endloop
endfacet
facet normal 0.0 0.0 -1.0
  outer loop
    vertex 6.226142175723785 1.6566418616083225 0.0
    vertex 6.1877003051288515 3.5234776541666935 0.0
    vertex 6.617301940524825 2.9360645930344407 0.0
  endloop
endfacet
facet normal 0.0 0.0 -1.0
  outer loop
    vertex 6.226142175723785 1.6566418616083225 0.0
    vertex 6.617301940524825 2.9360645930344407 0.0
    vertex 6.300520021896577 1.5083139693542993 0.0
  endloop
endfacet
facet normal 0.0 0.0 -1.0
  outer loop
    vertex 6.300520021896577 1.5083139693542993 0.0
    vertex 6.617301940524825 2.9360645930344407 0.0
    vertex 6.333973420983376 1.3457898243438862 0.0
  endloop
endfacet
facet normal 0.0 0.0 -1.0
  outer loop
    vertex 5.066026579016623 1.2542101756561121 0.0
    vertex 5.386693343536631 -0.33174986759817476 0.0
    vertex 4.975041066395834 -0.1950596095067331 0.0
  endloop
endfacet
facet normal 0.0 0.0 -1.0
  outer loop
    vertex 5.386693343536631 -0.33174986759817476 0.0
    vertex 5.066026579016623 1.2542101756561121 0.0
    vertex 5.099479978103423 1.0916860306457015 0.0
  endloop
endfacet
facet normal 0.0 0.0 -1.0
  outer loop
    vertex 5.386693343536631 -0.33174986759817476 0.0
    vertex 5.099479978103423 1.0916860306457015 0.0
    vertex 5.173857824276214 0.9433581383916756 0.0
  endloop
endfacet
facet normal 0.0 0.0 -1.0
  outer loop
    vertex 5.386693343536631 -0.33174986759817476 0.0
    vertex 5.173857824276214 0.9433581383916756 0.0
    vertex 5.284091390233525 0.8193347996277155 0.0
  endloop
endfacet
facet normal 0.0 0.0 -1.0
  outer loop
    vertex 5.386693343536631 -0.33174986759817476 0.0
    vertex 5.284091390233525 0.8193347996277155 0.0
    vertex 5.422668440624947 0.728067999932325 0.0
  endloop
endfacet
facet normal 0.0 0.0 -1.0
  outer loop
    vertex 5.386693343536631 -0.33174986759817476 0.0
    vertex 5.422668440624947 0.728067999932325 0.0
    vertex 5.819696951551681 -0.35723906880695694 0.0
  endloop
endfacet
facet normal 0.0 0.0 -1.0
  outer loop
    vertex 5.819696951551681 -0.35723906880695694 0.0
    vertex 5.422668440624947 0.728067999932325 0.0
    vertex 5.580145178475705 0.6757774208792273 0.0
  endloop
endfacet
facet normal 0.0 0.0 -1.0
  outer loop
    vertex 5.819696951551681 -0.35723906880695694 0.0
    vertex 5.580145178475705 0.6757774208792273 0.0
    vertex 5.7457898243438885 0.6660265790166235 0.0
  endloop
endfacet
facet normal 0.0 0.0 -1.0
  outer loop
    vertex 5.819696951551681 -0.35723906880695694 0.0
    vertex 5.7457898243438885 0.6660265790166235 0.0
    vertex 5.908313969354298 0.6994799781034224 0.0
  endloop
endfacet
facet normal 0.0 0.0 -1.0
  outer loop
    vertex 5.819696951551681 -0.35723906880695694 0.0
    vertex 5.908313969354298 0.6994799781034224 0.0
    vertex 6.244543410127047 -0.26979016619359714 0.0
  endloop
endfacet
facet normal 0.0 0.0 -1.0
  outer loop
    vertex 6.244543410127047 -0.26979016619359714 0.0
    vertex 5.908313969354298 0.6994799781034224 0.0
    vertex 6.056641861608322 0.7738578242762142 0.0
  endloop
endfacet
facet normal 0.0 0.0 -1.0
  outer loop
    vertex 6.244543410127047 -0.26979016619359714 0.0
    vertex 6.056641861608322 0.7738578242762142 0.0
    vertex 6.1806652003722835 0.8840913902335256 0.0
  endloop
endfacet
facet normal 0.0 0.0 -1.0
  outer loop
    vertex 6.244543410127047 -0.26979016619359714 0.0
    vertex 6.1806652003722835 0.8840913902335256 0.0
    vertex 6.271932000067674 1.0226684406249467 0.0
  endloop
endfacet
facet normal 0.0 0.0 -1.0
  outer loop
    vertex 6.244543410127047 -0.26979016619359714 0.0
    vertex 6.271932000067674 1.0226684406249467 0.0
    vertex 6.632280135202787 -0.07536265795505194 0.0
  endloop
endfacet
facet normal 0.0 0.0 -1.0
  outer loop
    vertex 6.632280135202787 -0.07536265795505194 0.0
    vertex 6.271932000067674 1.0226684406249467 0.0
    vertex 6.3242225791207725 1.180145178475705 0.0
  endloop
endfacet
facet normal 0.0 0.0 -1.0
  outer loop
    vertex 6.632280135202787 -0.07536265795505194 0.0
    vertex 6.3242225791207725 1.180145178475705 0.0
    vertex 6.333973420983376 1.3457898243438862 0.0
  endloop
endfacet
facet normal 0.0 0.0 -1.0
  outer loop
    vertex 6.632280135202787 -0.07536265795505194 0.0
    vertex 6.333973420983376 1.3457898243438862 0.0
    vertex 6.617301940524825 2.9360645930344407 0.0
  endloop
endfacet
facet normal 0.0 0.0 -1.0
  outer loop
    vertex 6.632280135202787 -0.07536265795505194 0.0
    vertex 6.617301940524825 2.9360645930344407 0.0
    vertex 7.0 2.3170703565527124 0.0
  endloop
endfacet
facet normal 0.0 0.0 -1.0
  outer loop
    vertex 6.632280135202787 -0.07536265795505194 0.0
    vertex 7.0 2.3170703565527124 0.0
    vertex 6.7170703565527115 0.0 0.0
  endloop
endfacet
facet normal 0.0 0.0 -1.0
  outer loop
    vertex 6.7170703565527115 0.0 0.0
    vertex 7.0 2.3170703565527124 0.0
    vertex 6.956483509730227 0.21279354252887284 0.0
  endloop
endfacet
facet normal 0.0 0.0 -1.0
  outer loop
    vertex 6.956483509730227 0.21279354252887284 0.0
    vertex 7.0 2.3170703565527124 0.0
    vertex 7.0 0.2788678092403038 0.0
  endloop
endfacet
facet normal 0.0 0.0 -1.0
  outer loop
    vertex 7.0 0.2788678092403038 0.0
    vertex 7.0 2.3170703565527124 0.0
    vertex 7.075362657955052 2.2322801352027866 0.0
  endloop
endfacet
facet normal 0.0 0.0 -1.0
  outer loop
    vertex 7.0 0.2788678092403038 0.0
    vertex 7.075362657955052 2.2322801352027866 0.0
    vertex 7.195059609506731 0.5750410663958315 0.0
  endloop
endfacet
facet normal 0.0 0.0 -1.0
  outer loop
    vertex 7.195059609506731 0.5750410663958315 0.0
    vertex 7.075362657955052 2.2322801352027866 0.0
    vertex 7.269790166193598 1.8445434101270457 0.0
  endloop
endfacet
facet normal 0.0 0.0 -1.0
  outer loop
    vertex 7.195059609506731 0.5750410663958315 0.0
    vertex 7.269790166193598 1.8445434101270457 0.0
    vertex 7.331749867598176 0.9866933435366352 0.0
  endloop
endfacet
facet normal 0.0 0.0 -1.0
  outer loop
    vertex 7.331749867598176 0.9866933435366352 0.0
    vertex 7.269790166193598 1.8445434101270457 0.0
    vertex 7.3572390688069556 1.4196969515516804 0.0
  endloop
endfacet
endsolid Untitled-55f0f99c
