solid firewall
facet normal -0.0 1.0 0.0
  outer loop
    vertex 0.49999999999999994 0.49999999999999994 0.49999999999999994
    vertex 74.29806112367298 0.49999999999999994 0.0
    vertex 0.49999999999999994 0.49999999999999994 0.0
  endloop
endfacet
facet normal -0.0 1.0 0.0
  outer loop
    vertex 74.29806112367298 0.49999999999999994 0.0
    vertex 0.49999999999999994 0.49999999999999994 0.49999999999999994
    vertex 74.29806112367298 0.49999999999999994 0.49999999999999994
  endloop
endfacet
facet normal -0.0 1.0 -0.0
  outer loop
    vertex 4.429178162234801 -10.204056326397605 0.49999999999999994
    vertex 78.22723928590777 -10.204056326397605 0.0
    vertex 4.429178162234801 -10.204056326397605 0.0
  endloop
endfacet
facet normal -0.0 1.0 -0.0
  outer loop
    vertex 78.22723928590777 -10.204056326397605 0.0
    vertex 4.429178162234801 -10.204056326397605 0.49999999999999994
    vertex 78.22723928590777 -10.204056326397605 0.49999999999999994
  endloop
endfacet
facet normal -1.0 0.0 0.0
  outer loop
    vertex 0.0 9.999999999999998 0.49999999999999994
    vertex 0.0 0.0 0.0
    vertex 0.0 0.0 0.49999999999999994
  endloop
endfacet
facet normal -1.0 0.0 0.0
  outer loop
    vertex 0.0 0.0 0.0
    vertex 0.0 9.999999999999998 0.49999999999999994
    vertex 0.0 9.999999999999998 0.0
  endloop
endfacet
facet normal 0.9450945048398657 0.32679714950025107 0.0
  outer loop
    vertex 74.37745842055585 10.980391448500752 0.0
    vertex 77.83528351451959 0.9803914485007533 0.49999999999999994
    vertex 77.83528351451959 0.9803914485007533 0.0
  endloop
endfacet
facet normal 0.9450945048398657 0.32679714950025107 0.0
  outer loop
    vertex 77.83528351451959 0.9803914485007533 0.49999999999999994
    vertex 74.37745842055585 10.980391448500752 0.0
    vertex 74.37745842055585 10.980391448500752 0.49999999999999994
  endloop
endfacet
facet normal 0.9450945048398656 0.3267971495002512 -2.1005809456275252e-16
  outer loop
    vertex 78.40218843474581 0.0 0.0
    vertex 81.76446167675437 -9.723664877896853 0.49999999999999994
    vertex 81.76446167675437 -9.723664877896853 0.0
  endloop
endfacet
facet normal 0.9450945048398656 0.3267971495002512 -2.1005809456275252e-16
  outer loop
    vertex 81.76446167675437 -9.723664877896853 0.49999999999999994
    vertex 78.40218843474581 0.0 0.0
    vertex 78.40218843474581 0.0 0.49999999999999994
  endloop
endfacet
facet normal 0.9450945048398656 0.3267971495002512 -2.1005809456275252e-16
  outer loop
    vertex 78.40218843474581 0.0 0.49999999999999994
    vertex 78.40218843474581 0.0 0.0
    vertex 78.30663658279065 0.27633512210314604 0.0
  endloop
endfacet
facet normal 0.9450945048398656 0.3267971495002512 -2.1005809456275252e-16
  outer loop
    vertex 78.40218843474581 0.0 0.49999999999999994
    vertex 78.30663658279065 0.27633512210314604 0.0
    vertex 78.30663658279065 0.27633512210314604 0.49999999999999994
  endloop
endfacet
facet normal -0.326797149500251 0.9450945048398656 0.0
  outer loop
    vertex 71.54217490603627 9.999999999999998 0.49999999999999994
    vertex 74.37745842055585 10.980391448500752 0.0
    vertex 71.54217490603627 9.999999999999998 0.0
  endloop
endfacet
facet normal -0.326797149500251 0.9450945048398656 0.0
  outer loop
    vertex 74.37745842055585 10.980391448500752 0.0
    vertex 71.54217490603627 9.999999999999998 0.49999999999999994
    vertex 74.37745842055585 10.980391448500752 0.49999999999999994
  endloop
endfacet
facet normal -0.0 -0.0 1.0
  outer loop
    vertex 0.0 0.0 0.49999999999999994
    vertex 0.49999999999999994 0.49999999999999994 0.49999999999999994
    vertex 0.0 9.999999999999998 0.49999999999999994
  endloop
endfacet
facet normal -0.0 -0.0 1.0
  outer loop
    vertex 0.49999999999999994 0.49999999999999994 0.49999999999999994
    vertex 0.0 0.0 0.49999999999999994
    vertex 74.99999999999999 0.0 0.49999999999999994
  endloop
endfacet
facet normal -0.0 -0.0 1.0
  outer loop
    vertex 0.49999999999999994 0.49999999999999994 0.49999999999999994
    vertex 74.99999999999999 0.0 0.49999999999999994
    vertex 74.29806112367298 0.49999999999999994 0.49999999999999994
  endloop
endfacet
facet normal -0.0 -0.0 1.0
  outer loop
    vertex 74.29806112367298 0.49999999999999994 0.49999999999999994
    vertex 74.99999999999999 0.0 0.49999999999999994
    vertex 74.8271087453018 0.49999999999999994 0.49999999999999994
  endloop
endfacet
facet normal -0.0 -0.0 1.0
  outer loop
    vertex 0.0 9.999999999999998 0.49999999999999994
    vertex 0.49999999999999994 9.499999999999998 0.49999999999999994
    vertex 71.54217490603627 9.999999999999998 0.49999999999999994
  endloop
endfacet
facet normal -0.0 -0.0 1.0
  outer loop
    vertex 0.49999999999999994 9.499999999999998 0.49999999999999994
    vertex 0.0 9.999999999999998 0.49999999999999994
    vertex 0.49999999999999994 0.49999999999999994 0.49999999999999994
  endloop
endfacet
facet normal -0.0 -0.0 1.0
  outer loop
    vertex 71.54217490603627 9.999999999999998 0.49999999999999994
    vertex 0.49999999999999994 9.499999999999998 0.49999999999999994
    vertex 71.18601853910563 9.499999999999998 0.49999999999999994
  endloop
endfacet
facet normal -0.0 -0.0 1.0
  outer loop
    vertex 71.54217490603627 9.999999999999998 0.49999999999999994
    vertex 71.18601853910563 9.499999999999998 0.49999999999999994
    vertex 71.70557348078638 9.527452747580066 0.49999999999999994
  endloop
endfacet
facet normal -1.0 0.0 0.0
  outer loop
    vertex 3.9291781622348014 -0.7040563263976073 0.49999999999999994
    vertex 3.9291781622348014 -10.704056326397605 0.0
    vertex 3.9291781622348014 -10.704056326397605 0.49999999999999994
  endloop
endfacet
facet normal -1.0 0.0 0.0
  outer loop
    vertex 3.9291781622348014 -10.704056326397605 0.0
    vertex 3.9291781622348014 -0.7040563263976073 0.49999999999999994
    vertex 3.9291781622348014 -0.7040563263976073 0.0
  endloop
endfacet
facet normal -0.0 1.0 0.0
  outer loop
    vertex 0.0 9.999999999999998 0.49999999999999994
    vertex 71.54217490603627 9.999999999999998 0.0
    vertex 0.0 9.999999999999998 0.0
  endloop
endfacet
facet normal -0.0 1.0 0.0
  outer loop
    vertex 71.54217490603627 9.999999999999998 0.0
    vertex 0.0 9.999999999999998 0.49999999999999994
    vertex 71.54217490603627 9.999999999999998 0.49999999999999994
  endloop
endfacet
facet normal -0.3157947346811965 0.9488275320350021 -0.0
  outer loop
    vertex 74.8271087453018 0.49999999999999994 0.49999999999999994
    vertex 77.19933768734953 1.2895401261705612 8.81239525796218e-17
    vertex 74.8271087453018 0.49999999999999994 8.81239525796218e-17
  endloop
endfacet
facet normal -0.3157947346811965 0.9488275320350021 -0.0
  outer loop
    vertex 77.19933768734953 1.2895401261705612 8.81239525796218e-17
    vertex 74.8271087453018 0.49999999999999994 0.49999999999999994
    vertex 77.19933768734953 1.2895401261705612 0.49999999999999994
  endloop
endfacet
facet normal 0.0 -1.0 0.0
  outer loop
    vertex 74.99999999999999 0.0 0.49999999999999994
    vertex 0.0 0.0 0.0
    vertex 74.99999999999999 0.0 0.0
  endloop
endfacet
facet normal 0.0 -1.0 0.0
  outer loop
    vertex 0.0 0.0 0.0
    vertex 74.99999999999999 0.0 0.49999999999999994
    vertex 0.0 0.0 0.49999999999999994
  endloop
endfacet
facet normal 0.052765361276924584 -0.9986069380138092 1.0122481916214918e-18
  outer loop
    vertex 71.70557348078638 9.527452747580066 8.81239525796218e-17
    vertex 71.18601853910563 9.499999999999998 0.49999999999999994
    vertex 71.18601853910563 9.499999999999998 0.0
  endloop
endfacet
facet normal 0.052765361276924584 -0.9986069380138092 1.0122481916214918e-18
  outer loop
    vertex 71.18601853910563 9.499999999999998 0.49999999999999994
    vertex 71.70557348078638 9.527452747580066 8.81239525796218e-17
    vertex 71.70557348078638 9.527452747580066 0.49999999999999994
  endloop
endfacet
facet normal 0.3267971495002513 -0.9450945048398656 0.0
  outer loop
    vertex 77.83528351451959 0.9803914485007533 0.49999999999999994
    vertex 74.99999999999999 0.0 0.0
    vertex 77.83528351451959 0.9803914485007533 0.0
  endloop
endfacet
facet normal 0.3267971495002513 -0.9450945048398656 0.0
  outer loop
    vertex 74.99999999999999 0.0 0.0
    vertex 77.83528351451959 0.9803914485007533 0.49999999999999994
    vertex 74.99999999999999 0.0 0.49999999999999994
  endloop
endfacet
facet normal 1.0 0.0 0.0
  outer loop
    vertex 0.49999999999999994 9.499999999999998 0.0
    vertex 0.49999999999999994 0.49999999999999994 0.49999999999999994
    vertex 0.49999999999999994 0.49999999999999994 0.0
  endloop
endfacet
facet normal 1.0 0.0 0.0
  outer loop
    vertex 0.49999999999999994 0.49999999999999994 0.49999999999999994
    vertex 0.49999999999999994 9.499999999999998 0.0
    vertex 0.49999999999999994 9.499999999999998 0.49999999999999994
  endloop
endfacet
facet normal -0.0 -1.0 -0.0
  outer loop
    vertex 71.18601853910563 9.499999999999998 0.49999999999999994
    vertex 0.49999999999999994 9.499999999999998 0.0
    vertex 71.18601853910563 9.499999999999998 0.0
  endloop
endfacet
facet normal -0.0 -1.0 -0.0
  outer loop
    vertex 0.49999999999999994 9.499999999999998 0.0
    vertex 71.18601853910563 9.499999999999998 0.49999999999999994
    vertex 0.49999999999999994 9.499999999999998 0.49999999999999994
  endloop
endfacet
facet normal -0.0 1.0 -0.0
  outer loop
    vertex 74.29806112367298 0.49999999999999994 0.49999999999999994
    vertex 74.8271087453018 0.49999999999999994 8.81239525796218e-17
    vertex 74.29806112367298 0.49999999999999994 0.0
  endloop
endfacet
facet normal -0.0 1.0 -0.0
  outer loop
    vertex 74.8271087453018 0.49999999999999994 8.81239525796218e-17
    vertex 74.29806112367298 0.49999999999999994 0.49999999999999994
    vertex 74.8271087453018 0.49999999999999994 0.49999999999999994
  endloop
endfacet
facet normal -0.0 -0.0 1.0
  outer loop
    vertex 74.99999999999999 0.0 0.49999999999999994
    vertex 77.19933768734953 1.2895401261705612 0.49999999999999994
    vertex 74.8271087453018 0.49999999999999994 0.49999999999999994
  endloop
endfacet
facet normal -0.0 -0.0 1.0
  outer loop
    vertex 77.19933768734953 1.2895401261705612 0.49999999999999994
    vertex 74.99999999999999 0.0 0.49999999999999994
    vertex 77.83528351451959 0.9803914485007533 0.49999999999999994
  endloop
endfacet
facet normal -0.0 -0.0 1.0
  outer loop
    vertex 71.70557348078638 9.527452747580066 0.49999999999999994
    vertex 74.37745842055585 10.980391448500752 0.49999999999999994
    vertex 71.54217490603627 9.999999999999998 0.49999999999999994
  endloop
endfacet
facet normal -0.0 -0.0 1.0
  outer loop
    vertex 74.37745842055585 10.980391448500752 0.49999999999999994
    vertex 71.70557348078638 9.527452747580066 0.49999999999999994
    vertex 74.06830974288604 10.344445621330694 0.49999999999999994
  endloop
endfacet
facet normal -0.0 -0.0 1.0
  outer loop
    vertex 74.37745842055585 10.980391448500752 0.49999999999999994
    vertex 74.06830974288604 10.344445621330694 0.49999999999999994
    vertex 77.19933768734953 1.2895401261705612 0.49999999999999994
  endloop
endfacet
facet normal -0.0 -0.0 1.0
  outer loop
    vertex 74.37745842055585 10.980391448500752 0.49999999999999994
    vertex 77.19933768734953 1.2895401261705612 0.49999999999999994
    vertex 77.83528351451959 0.9803914485007533 0.49999999999999994
  endloop
endfacet
facet normal 0.052765361276925736 -0.9986069380138092 -1.1705938371485314e-18
  outer loop
    vertex 75.63475164302118 -1.1766035788175406 8.81239525796218e-17
    vertex 75.11519670134042 -1.2040563263976078 0.49999999999999994
    vertex 75.11519670134042 -1.2040563263976078 0.0
  endloop
endfacet
facet normal 0.052765361276925736 -0.9986069380138092 -1.1705938371485314e-18
  outer loop
    vertex 75.11519670134042 -1.2040563263976078 0.49999999999999994
    vertex 75.63475164302118 -1.1766035788175406 8.81239525796218e-17
    vertex 75.63475164302118 -1.1766035788175406 0.49999999999999994
  endloop
endfacet
facet normal -0.0 -0.0 1.0
  outer loop
    vertex 3.9291781622348014 -10.704056326397605 0.49999999999999994
    vertex 4.429178162234801 -10.204056326397605 0.49999999999999994
    vertex 3.9291781622348014 -0.7040563263976073 0.49999999999999994
  endloop
endfacet
facet normal -0.0 -0.0 1.0
  outer loop
    vertex 4.429178162234801 -10.204056326397605 0.49999999999999994
    vertex 3.9291781622348014 -10.704056326397605 0.49999999999999994
    vertex 78.92917816223478 -10.704056326397605 0.49999999999999994
  endloop
endfacet
facet normal -0.0 -0.0 1.0
  outer loop
    vertex 4.429178162234801 -10.204056326397605 0.49999999999999994
    vertex 78.92917816223478 -10.704056326397605 0.49999999999999994
    vertex 78.22723928590777 -10.204056326397605 0.49999999999999994
  endloop
endfacet
facet normal -0.0 -0.0 1.0
  outer loop
    vertex 78.22723928590777 -10.204056326397605 0.49999999999999994
    vertex 78.92917816223478 -10.704056326397605 0.49999999999999994
    vertex 78.75628690753659 -10.204056326397605 0.49999999999999994
  endloop
endfacet
facet normal -0.0 -0.0 1.0
  outer loop
    vertex 3.9291781622348014 -0.7040563263976073 0.49999999999999994
    vertex 4.429178162234801 -1.2040563263976078 0.49999999999999994
    vertex 75.47135306827106 -0.7040563263976073 0.49999999999999994
  endloop
endfacet
facet normal -0.0 -0.0 1.0
  outer loop
    vertex 4.429178162234801 -1.2040563263976078 0.49999999999999994
    vertex 3.9291781622348014 -0.7040563263976073 0.49999999999999994
    vertex 4.429178162234801 -10.204056326397605 0.49999999999999994
  endloop
endfacet
facet normal -0.0 -0.0 1.0
  outer loop
    vertex 75.47135306827106 -0.7040563263976073 0.49999999999999994
    vertex 4.429178162234801 -1.2040563263976078 0.49999999999999994
    vertex 75.11519670134042 -1.2040563263976078 0.49999999999999994
  endloop
endfacet
facet normal -0.0 -0.0 1.0
  outer loop
    vertex 75.47135306827106 -0.7040563263976073 0.49999999999999994
    vertex 75.11519670134042 -1.2040563263976078 0.49999999999999994
    vertex 75.63475164302118 -1.1766035788175406 0.49999999999999994
  endloop
endfacet
facet normal 0.0 -1.0 0.0
  outer loop
    vertex 75.11519670134042 -1.2040563263976078 0.49999999999999994
    vertex 4.429178162234801 -1.2040563263976078 0.0
    vertex 75.11519670134042 -1.2040563263976078 0.0
  endloop
endfacet
facet normal 0.0 -1.0 0.0
  outer loop
    vertex 4.429178162234801 -1.2040563263976078 0.0
    vertex 75.11519670134042 -1.2040563263976078 0.49999999999999994
    vertex 4.429178162234801 -1.2040563263976078 0.49999999999999994
  endloop
endfacet
facet normal -0.3267971495002526 0.945094504839865 -4.1496550887952085e-17
  outer loop
    vertex 75.47135306827106 -0.7040563263976073 0.49999999999999994
    vertex 77.50747782086962 -4.40619762898109e-17 0.0
    vertex 75.47135306827106 -0.7040563263976073 0.0
  endloop
endfacet
facet normal -0.3267971495002526 0.945094504839865 -4.1496550887952085e-17
  outer loop
    vertex 77.50747782086962 -4.40619762898109e-17 0.0
    vertex 75.47135306827106 -0.7040563263976073 0.49999999999999994
    vertex 78.30663658279065 0.27633512210314604 0.0
  endloop
endfacet
facet normal -0.3267971495002526 0.945094504839865 -4.1496550887952085e-17
  outer loop
    vertex 78.30663658279065 0.27633512210314604 0.0
    vertex 75.47135306827106 -0.7040563263976073 0.49999999999999994
    vertex 78.30663658279065 0.27633512210314604 0.49999999999999994
  endloop
endfacet
facet normal -0.3267971495002526 0.945094504839865 -4.1496550887952085e-17
  outer loop
    vertex 78.30663658279065 0.27633512210314604 0.49999999999999994
    vertex 75.47135306827106 -0.7040563263976073 0.49999999999999994
    vertex 77.50747782086962 -4.40619762898109e-17 0.49999999999999994
  endloop
endfacet
facet normal 0.3267971495002513 -0.9450945048398656 0.0
  outer loop
    vertex 74.06830974288604 10.344445621330694 0.49999999999999994
    vertex 71.70557348078638 9.527452747580066 8.81239525796218e-17
    vertex 74.06830974288604 10.344445621330694 8.81239525796218e-17
  endloop
endfacet
facet normal 0.3267971495002513 -0.9450945048398656 0.0
  outer loop
    vertex 71.70557348078638 9.527452747580066 8.81239525796218e-17
    vertex 74.06830974288604 10.344445621330694 0.49999999999999994
    vertex 71.70557348078638 9.527452747580066 0.49999999999999994
  endloop
endfacet
facet normal -0.0 1.0 -0.0
  outer loop
    vertex 3.9291781622348014 -0.7040563263976073 0.49999999999999994
    vertex 75.47135306827106 -0.7040563263976073 0.0
    vertex 3.9291781622348014 -0.7040563263976073 0.0
  endloop
endfacet
facet normal -0.0 1.0 -0.0
  outer loop
    vertex 75.47135306827106 -0.7040563263976073 0.0
    vertex 3.9291781622348014 -0.7040563263976073 0.49999999999999994
    vertex 75.47135306827106 -0.7040563263976073 0.49999999999999994
  endloop
endfacet
facet normal -0.3157947346811966 0.9488275320350021 -0.0
  outer loop
    vertex 78.75628690753659 -10.204056326397605 0.49999999999999994
    vertex 81.12851584958432 -9.414516200227045 8.81239525796218e-17
    vertex 78.75628690753659 -10.204056326397605 8.81239525796218e-17
  endloop
endfacet
facet normal -0.3157947346811966 0.9488275320350021 -0.0
  outer loop
    vertex 81.12851584958432 -9.414516200227045 8.81239525796218e-17
    vertex 78.75628690753659 -10.204056326397605 0.49999999999999994
    vertex 81.12851584958432 -9.414516200227045 0.49999999999999994
  endloop
endfacet
facet normal 0.32679714950025246 -0.945094504839865 0.0
  outer loop
    vertex 81.76446167675437 -9.723664877896853 0.49999999999999994
    vertex 78.92917816223478 -10.704056326397605 0.0
    vertex 81.76446167675437 -9.723664877896853 0.0
  endloop
endfacet
facet normal 0.32679714950025246 -0.945094504839865 0.0
  outer loop
    vertex 78.92917816223478 -10.704056326397605 0.0
    vertex 81.76446167675437 -9.723664877896853 0.49999999999999994
    vertex 78.92917816223478 -10.704056326397605 0.49999999999999994
  endloop
endfacet
facet normal -0.0 1.0 -0.0
  outer loop
    vertex 78.22723928590777 -10.204056326397605 0.49999999999999994
    vertex 78.75628690753659 -10.204056326397605 8.81239525796218e-17
    vertex 78.22723928590777 -10.204056326397605 0.0
  endloop
endfacet
facet normal -0.0 1.0 -0.0
  outer loop
    vertex 78.75628690753659 -10.204056326397605 8.81239525796218e-17
    vertex 78.22723928590777 -10.204056326397605 0.49999999999999994
    vertex 78.75628690753659 -10.204056326397605 0.49999999999999994
  endloop
endfacet
facet normal 0.0 -1.0 0.0
  outer loop
    vertex 78.92917816223478 -10.704056326397605 0.49999999999999994
    vertex 3.9291781622348014 -10.704056326397605 0.0
    vertex 78.92917816223478 -10.704056326397605 0.0
  endloop
endfacet
facet normal 0.0 -1.0 0.0
  outer loop
    vertex 3.9291781622348014 -10.704056326397605 0.0
    vertex 78.92917816223478 -10.704056326397605 0.49999999999999994
    vertex 3.9291781622348014 -10.704056326397605 0.49999999999999994
  endloop
endfacet
facet normal -0.9450945048398658 -0.32679714950025085 0.0
  outer loop
    vertex 74.06830974288604 10.344445621330694 0.49999999999999994
    vertex 77.19933768734953 1.2895401261705612 8.81239525796218e-17
    vertex 77.19933768734953 1.2895401261705612 0.49999999999999994
  endloop
endfacet
facet normal -0.9450945048398658 -0.32679714950025085 0.0
  outer loop
    vertex 77.19933768734953 1.2895401261705612 8.81239525796218e-17
    vertex 74.06830974288604 10.344445621330694 0.49999999999999994
    vertex 74.06830974288604 10.344445621330694 8.81239525796218e-17
  endloop
endfacet
facet normal 1.0 -0.0 -0.0
  outer loop
    vertex 4.429178162234801 -1.2040563263976078 0.0
    vertex 4.429178162234801 -10.204056326397605 0.49999999999999994
    vertex 4.429178162234801 -10.204056326397605 0.0
  endloop
endfacet
facet normal 1.0 -0.0 -0.0
  outer loop
    vertex 4.429178162234801 -10.204056326397605 0.49999999999999994
    vertex 4.429178162234801 -1.2040563263976078 0.0
    vertex 4.429178162234801 -1.2040563263976078 0.49999999999999994
  endloop
endfacet
facet normal 0.0 0.0 -1.0
  outer loop
    vertex 0.0 9.999999999999998 0.0
    vertex 0.49999999999999994 9.499999999999998 0.0
    vertex 0.0 0.0 0.0
  endloop
endfacet
facet normal 0.0 0.0 -1.0
  outer loop
    vertex 0.49999999999999994 9.499999999999998 0.0
    vertex 0.0 9.999999999999998 0.0
    vertex 71.54217490603627 9.999999999999998 0.0
  endloop
endfacet
facet normal 0.0 0.0 -1.0
  outer loop
    vertex 0.49999999999999994 9.499999999999998 0.0
    vertex 71.54217490603627 9.999999999999998 0.0
    vertex 71.18601853910563 9.499999999999998 0.0
  endloop
endfacet
facet normal 0.0 0.0 -1.0
  outer loop
    vertex 71.18601853910563 9.499999999999998 0.0
    vertex 71.54217490603627 9.999999999999998 0.0
    vertex 71.70557348078638 9.527452747580066 8.81239525796218e-17
  endloop
endfacet
facet normal 0.0 0.0 -1.0
  outer loop
    vertex 71.70557348078638 9.527452747580066 8.81239525796218e-17
    vertex 71.54217490603627 9.999999999999998 0.0
    vertex 74.37745842055585 10.980391448500752 0.0
  endloop
endfacet
facet normal 0.0 0.0 -1.0
  outer loop
    vertex 71.70557348078638 9.527452747580066 8.81239525796218e-17
    vertex 74.37745842055585 10.980391448500752 0.0
    vertex 74.06830974288604 10.344445621330694 8.81239525796218e-17
  endloop
endfacet
facet normal 0.0 0.0 -1.0
  outer loop
    vertex 74.06830974288604 10.344445621330694 8.81239525796218e-17
    vertex 74.37745842055585 10.980391448500752 0.0
    vertex 77.19933768734953 1.2895401261705612 8.81239525796218e-17
  endloop
endfacet
facet normal 0.0 0.0 -1.0
  outer loop
    vertex 77.19933768734953 1.2895401261705612 8.81239525796218e-17
    vertex 74.37745842055585 10.980391448500752 0.0
    vertex 77.83528351451959 0.9803914485007533 0.0
  endloop
endfacet
facet normal 0.0 0.0 -1.0
  outer loop
    vertex 0.0 0.0 0.0
    vertex 0.49999999999999994 0.49999999999999994 0.0
    vertex 74.99999999999999 0.0 0.0
  endloop
endfacet
facet normal 0.0 0.0 -1.0
  outer loop
    vertex 0.49999999999999994 0.49999999999999994 0.0
    vertex 0.0 0.0 0.0
    vertex 0.49999999999999994 9.499999999999998 0.0
  endloop
endfacet
facet normal 0.0 0.0 -1.0
  outer loop
    vertex 74.99999999999999 0.0 0.0
    vertex 0.49999999999999994 0.49999999999999994 0.0
    vertex 74.29806112367298 0.49999999999999994 0.0
  endloop
endfacet
facet normal 0.0 0.0 -1.0
  outer loop
    vertex 74.99999999999999 0.0 0.0
    vertex 74.29806112367298 0.49999999999999994 0.0
    vertex 74.8271087453018 0.49999999999999994 8.81239525796218e-17
  endloop
endfacet
facet normal 0.0 0.0 -1.0
  outer loop
    vertex 74.99999999999999 0.0 0.0
    vertex 74.8271087453018 0.49999999999999994 8.81239525796218e-17
    vertex 77.19933768734953 1.2895401261705612 8.81239525796218e-17
  endloop
endfacet
facet normal 0.0 0.0 -1.0
  outer loop
    vertex 74.99999999999999 0.0 0.0
    vertex 77.19933768734953 1.2895401261705612 8.81239525796218e-17
    vertex 77.83528351451959 0.9803914485007533 0.0
  endloop
endfacet
facet normal 0.32679714950024996 -0.945094504839866 0.0
  outer loop
    vertex 77.99748790512085 -0.35961070506691223 0.49999999999999994
    vertex 75.63475164302118 -1.1766035788175406 8.81239525796218e-17
    vertex 77.99748790512085 -0.35961070506691223 8.81239525796218e-17
  endloop
endfacet
facet normal 0.32679714950024996 -0.945094504839866 0.0
  outer loop
    vertex 75.63475164302118 -1.1766035788175406 8.81239525796218e-17
    vertex 77.99748790512085 -0.35961070506691223 0.49999999999999994
    vertex 75.63475164302118 -1.1766035788175406 0.49999999999999994
  endloop
endfacet
facet normal -0.9450945048398656 -0.3267971495002509 0.0
  outer loop
    vertex 77.99748790512085 -0.35961070506691223 0.49999999999999994
    vertex 81.12851584958432 -9.414516200227045 8.81239525796218e-17
    vertex 81.12851584958432 -9.414516200227045 0.49999999999999994
  endloop
endfacet
facet normal -0.9450945048398656 -0.3267971495002509 0.0
  outer loop
    vertex 81.12851584958432 -9.414516200227045 8.81239525796218e-17
    vertex 77.99748790512085 -0.35961070506691223 0.49999999999999994
    vertex 77.99748790512085 -0.35961070506691223 8.81239525796218e-17
  endloop
endfacet
facet normal 0.0 0.0 -1.0
  outer loop
    vertex 3.9291781622348014 -0.7040563263976073 0.0
    vertex 4.429178162234801 -1.2040563263976078 0.0
    vertex 3.9291781622348014 -10.704056326397605 0.0
  endloop
endfacet
facet normal 0.0 0.0 -1.0
  outer loop
    vertex 4.429178162234801 -1.2040563263976078 0.0
    vertex 3.9291781622348014 -0.7040563263976073 0.0
    vertex 75.47135306827106 -0.7040563263976073 0.0
  endloop
endfacet
facet normal 0.0 0.0 -1.0
  outer loop
    vertex 4.429178162234801 -1.2040563263976078 0.0
    vertex 75.47135306827106 -0.7040563263976073 0.0
    vertex 75.11519670134042 -1.2040563263976078 0.0
  endloop
endfacet
facet normal 0.0 0.0 -1.0
  outer loop
    vertex 75.11519670134042 -1.2040563263976078 0.0
    vertex 75.47135306827106 -0.7040563263976073 0.0
    vertex 75.63475164302118 -1.1766035788175406 8.81239525796218e-17
  endloop
endfacet
facet normal 0.0 0.0 -1.0
  outer loop
    vertex 75.63475164302118 -1.1766035788175406 8.81239525796218e-17
    vertex 75.47135306827106 -0.7040563263976073 0.0
    vertex 77.50747782086962 -4.40619762898109e-17 0.0
  endloop
endfacet
facet normal 0.0 0.0 -1.0
  outer loop
    vertex 75.63475164302118 -1.1766035788175406 8.81239525796218e-17
    vertex 77.50747782086962 -4.40619762898109e-17 0.0
    vertex 77.99748790512085 -0.35961070506691223 8.81239525796218e-17
  endloop
endfacet
facet normal 0.0 0.0 -1.0
  outer loop
    vertex 77.99748790512085 -0.35961070506691223 8.81239525796218e-17
    vertex 77.50747782086962 -4.40619762898109e-17 0.0
    vertex 78.40218843474581 0.0 0.0
  endloop
endfacet
facet normal 0.0 0.0 -1.0
  outer loop
    vertex 77.99748790512085 -0.35961070506691223 8.81239525796218e-17
    vertex 78.40218843474581 0.0 0.0
    vertex 81.12851584958432 -9.414516200227045 8.81239525796218e-17
  endloop
endfacet
facet normal 0.0 0.0 -1.0
  outer loop
    vertex 81.12851584958432 -9.414516200227045 8.81239525796218e-17
    vertex 78.40218843474581 0.0 0.0
    vertex 81.76446167675437 -9.723664877896853 0.0
  endloop
endfacet
facet normal 0.0 0.0 -1.0
  outer loop
    vertex 3.9291781622348014 -10.704056326397605 0.0
    vertex 4.429178162234801 -10.204056326397605 0.0
    vertex 78.92917816223478 -10.704056326397605 0.0
  endloop
endfacet
facet normal 0.0 0.0 -1.0
  outer loop
    vertex 4.429178162234801 -10.204056326397605 0.0
    vertex 3.9291781622348014 -10.704056326397605 0.0
    vertex 4.429178162234801 -1.2040563263976078 0.0
  endloop
endfacet
facet normal 0.0 0.0 -1.0
  outer loop
    vertex 78.92917816223478 -10.704056326397605 0.0
    vertex 4.429178162234801 -10.204056326397605 0.0
    vertex 78.22723928590777 -10.204056326397605 0.0
  endloop
endfacet
facet normal 0.0 0.0 -1.0
  outer loop
    vertex 78.92917816223478 -10.704056326397605 0.0
    vertex 78.22723928590777 -10.204056326397605 0.0
    vertex 78.75628690753659 -10.204056326397605 8.81239525796218e-17
  endloop
endfacet
facet normal 0.0 0.0 -1.0
  outer loop
    vertex 78.92917816223478 -10.704056326397605 0.0
    vertex 78.75628690753659 -10.204056326397605 8.81239525796218e-17
    vertex 81.12851584958432 -9.414516200227045 8.81239525796218e-17
  endloop
endfacet
facet normal 0.0 0.0 -1.0
  outer loop
    vertex 78.92917816223478 -10.704056326397605 0.0
    vertex 81.12851584958432 -9.414516200227045 8.81239525796218e-17
    vertex 81.76446167675437 -9.723664877896853 0.0
  endloop
endfacet
facet normal -0.0 -0.0 1.0
  outer loop
    vertex 78.92917816223478 -10.704056326397605 0.49999999999999994
    vertex 81.12851584958432 -9.414516200227045 0.49999999999999994
    vertex 78.75628690753659 -10.204056326397605 0.49999999999999994
  endloop
endfacet
facet normal -0.0 -0.0 1.0
  outer loop
    vertex 81.12851584958432 -9.414516200227045 0.49999999999999994
    vertex 78.92917816223478 -10.704056326397605 0.49999999999999994
    vertex 81.76446167675437 -9.723664877896853 0.49999999999999994
  endloop
endfacet
facet normal -0.0 -0.0 1.0
  outer loop
    vertex 75.63475164302118 -1.1766035788175406 0.49999999999999994
    vertex 77.50747782086962 -4.40619762898109e-17 0.49999999999999994
    vertex 75.47135306827106 -0.7040563263976073 0.49999999999999994
  endloop
endfacet
facet normal -0.0 -0.0 1.0
  outer loop
    vertex 77.50747782086962 -4.40619762898109e-17 0.49999999999999994
    vertex 75.63475164302118 -1.1766035788175406 0.49999999999999994
    vertex 77.99748790512085 -0.35961070506691223 0.49999999999999994
  endloop
endfacet
facet normal -0.0 -0.0 1.0
  outer loop
    vertex 77.50747782086962 -4.40619762898109e-17 0.49999999999999994
    vertex 77.99748790512085 -0.35961070506691223 0.49999999999999994
    vertex 78.40218843474581 0.0 0.49999999999999994
  endloop
endfacet
facet normal -0.0 -0.0 1.0
  outer loop
    vertex 78.40218843474581 0.0 0.49999999999999994
    vertex 77.99748790512085 -0.35961070506691223 0.49999999999999994
    vertex 81.12851584958432 -9.414516200227045 0.49999999999999994
  endloop
endfacet
facet normal -0.0 -0.0 1.0
  outer loop
    vertex 78.40218843474581 0.0 0.49999999999999994
    vertex 81.12851584958432 -9.414516200227045 0.49999999999999994
    vertex 81.76446167675437 -9.723664877896853 0.49999999999999994
  endloop
endfacet
endsolid firewall
