solid Untitled-55ebb0c2
facet normal 0.0 0.0 -1.0
  outer loop
    vertex 21.37578914027105 0.49999999999999906 0.0
    vertex 21.87578914027105 0.0 0.0
    vertex 21.37578914027105 -49.5 0.0
  endloop
endfacet
facet normal 0.0 0.0 -1.0
  outer loop
    vertex 21.87578914027105 0.0 0.0
    vertex 21.37578914027105 0.49999999999999906 0.0
    vertex 41.875789140271046 0.49999999999999906 0.0
  endloop
endfacet
facet normal 0.0 0.0 -1.0
  outer loop
    vertex 21.87578914027105 0.0 0.0
    vertex 41.875789140271046 0.49999999999999906 0.0
    vertex 41.375789140271046 0.0 0.0
  endloop
endfacet
facet normal 0.0 0.0 -1.0
  outer loop
    vertex 41.375789140271046 0.0 0.0
    vertex 41.875789140271046 0.49999999999999906 0.0
    vertex 41.375789140271046 -49.0 0.0
  endloop
endfacet
facet normal 0.0 0.0 -1.0
  outer loop
    vertex 21.37578914027105 -49.5 0.0
    vertex 21.87578914027105 -49.0 0.0
    vertex 41.875789140271046 -49.5 0.0
  endloop
endfacet
facet normal 0.0 0.0 -1.0
  outer loop
    vertex 21.87578914027105 -49.0 0.0
    vertex 21.37578914027105 -49.5 0.0
    vertex 21.87578914027105 0.0 0.0
  endloop
endfacet
facet normal 0.0 0.0 -1.0
  outer loop
    vertex 41.875789140271046 -49.5 0.0
    vertex 21.87578914027105 -49.0 0.0
    vertex 41.375789140271046 -49.0 0.0
  endloop
endfacet
facet normal 0.0 0.0 -1.0
  outer loop
    vertex 41.875789140271046 -49.5 0.0
    vertex 41.375789140271046 -49.0 0.0
    vertex 41.875789140271046 0.49999999999999906 0.0
  endloop
endfacet
facet normal 0.0 1.0 0.0
  outer loop
    vertex 21.37578914027105 0.49999999999999906 0.49999999999999994
    vertex 41.875789140271046 0.49999999999999906 0.0
    vertex 21.37578914027105 0.49999999999999906 0.0
  endloop
endfacet
facet normal 0.0 1.0 0.0
  outer loop
    vertex 41.875789140271046 0.49999999999999906 0.0
    vertex 21.37578914027105 0.49999999999999906 0.49999999999999994
    vertex 41.875789140271046 0.49999999999999906 0.49999999999999994
  endloop
endfacet
facet normal -1.0 0.0 0.0
  outer loop
    vertex 21.37578914027105 0.49999999999999906 0.49999999999999994
    vertex 21.37578914027105 -49.5 0.0
    vertex 21.37578914027105 -49.5 0.49999999999999994
  endloop
endfacet
facet normal -1.0 0.0 0.0
  outer loop
    vertex 21.37578914027105 -49.5 0.0
    vertex 21.37578914027105 0.49999999999999906 0.49999999999999994
    vertex 21.37578914027105 0.49999999999999906 0.0
  endloop
endfacet
facet normal -0.0 -1.0 -0.0
  outer loop
    vertex 41.875789140271046 -49.5 0.49999999999999994
    vertex 21.37578914027105 -49.5 0.0
    vertex 41.875789140271046 -49.5 0.0
  endloop
endfacet
facet normal -0.0 -1.0 -0.0
  outer loop
    vertex 21.37578914027105 -49.5 0.0
    vertex 41.875789140271046 -49.5 0.49999999999999994
    vertex 21.37578914027105 -49.5 0.49999999999999994
  endloop
endfacet
facet normal 1.0 0.0 0.0
  outer loop
    vertex 21.87578914027105 0.0 0.0
    vertex 21.87578914027105 -49.0 0.49999999999999994
    vertex 21.87578914027105 -49.0 0.0
  endloop
endfacet
facet normal 1.0 0.0 0.0
  outer loop
    vertex 21.87578914027105 -49.0 0.49999999999999994
    vertex 21.87578914027105 0.0 0.0
    vertex 21.87578914027105 0.0 0.49999999999999994
  endloop
endfacet
facet normal 0.0 1.0 0.0
  outer loop
    vertex 21.87578914027105 -49.0 0.49999999999999994
    vertex 41.375789140271046 -49.0 0.0
    vertex 21.87578914027105 -49.0 0.0
  endloop
endfacet
facet normal 0.0 1.0 0.0
  outer loop
    vertex 41.375789140271046 -49.0 0.0
    vertex 21.87578914027105 -49.0 0.49999999999999994
    vertex 41.375789140271046 -49.0 0.49999999999999994
  endloop
endfacet
facet normal 1.0 0.0 0.0
  outer loop
    vertex 41.875789140271046 0.49999999999999906 0.0
    vertex 41.875789140271046 -49.5 0.49999999999999994
    vertex 41.875789140271046 -49.5 0.0
  endloop
endfacet
facet normal 1.0 0.0 0.0
  outer loop
    vertex 41.875789140271046 -49.5 0.49999999999999994
    vertex 41.875789140271046 0.49999999999999906 0.0
    vertex 41.875789140271046 0.49999999999999906 0.49999999999999994
  endloop
endfacet
facet normal -0.0 -1.0 -0.0
  outer loop
    vertex 41.375789140271046 0.0 0.49999999999999994
    vertex 21.87578914027105 0.0 0.0
    vertex 41.375789140271046 0.0 0.0
  endloop
endfacet
facet normal -0.0 -1.0 -0.0
  outer loop
    vertex 21.87578914027105 0.0 0.0
    vertex 41.375789140271046 0.0 0.49999999999999994
    vertex 21.87578914027105 0.0 0.49999999999999994
  endloop
endfacet
facet normal 0.0 0.0 1.0
  outer loop
    vertex 21.37578914027105 -49.5 0.49999999999999994
    vertex 21.87578914027105 -49.0 0.49999999999999994
    vertex 21.37578914027105 0.49999999999999906 0.49999999999999994
  endloop
endfacet
facet normal 0.0 0.0 1.0
  outer loop
    vertex 21.87578914027105 -49.0 0.49999999999999994
    vertex 21.37578914027105 -49.5 0.49999999999999994
    vertex 41.875789140271046 -49.5 0.49999999999999994
  endloop
endfacet
facet normal 0.0 0.0 1.0
  outer loop
    vertex 21.87578914027105 -49.0 0.49999999999999994
    vertex 41.875789140271046 -49.5 0.49999999999999994
    vertex 41.375789140271046 -49.0 0.49999999999999994
  endloop
endfacet
facet normal 0.0 0.0 1.0
  outer loop
    vertex 41.375789140271046 -49.0 0.49999999999999994
    vertex 41.875789140271046 -49.5 0.49999999999999994
    vertex 41.375789140271046 0.0 0.49999999999999994
  endloop
endfacet
facet normal 0.0 0.0 1.0
  outer loop
    vertex 21.37578914027105 0.49999999999999906 0.49999999999999994
    vertex 21.87578914027105 0.0 0.49999999999999994
    vertex 41.875789140271046 0.49999999999999906 0.49999999999999994
  endloop
endfacet
facet normal 0.0 0.0 1.0
  outer loop
    vertex 21.87578914027105 0.0 0.49999999999999994
    vertex 21.37578914027105 0.49999999999999906 0.49999999999999994
    vertex 21.87578914027105 -49.0 0.49999999999999994
  endloop
endfacet
facet normal 0.0 0.0 1.0
  outer loop
    vertex 41.875789140271046 0.49999999999999906 0.49999999999999994
    vertex 21.87578914027105 0.0 0.49999999999999994
    vertex 41.375789140271046 0.0 0.49999999999999994
  endloop
endfacet
facet normal 0.0 0.0 1.0
  outer loop
    vertex 41.875789140271046 0.49999999999999906 0.49999999999999994
    vertex 41.375789140271046 0.0 0.49999999999999994
    vertex 41.875789140271046 -49.5 0.49999999999999994
  endloop
endfacet
facet normal -1.0 0.0 0.0
  outer loop
    vertex 41.375789140271046 0.0 0.49999999999999994
    vertex 41.375789140271046 -49.0 0.0
    vertex 41.375789140271046 -49.0 0.49999999999999994
  endloop
endfacet
facet normal -1.0 0.0 0.0
  outer loop
    vertex 41.375789140271046 -49.0 0.0
    vertex 41.375789140271046 0.0 0.49999999999999994
    vertex 41.375789140271046 0.0 0.0
  endloop
endfacet
facet normal 1.0 0.0 0.0
  outer loop
    vertex 84.11978496756409 0.49999999999999906 0.0
    vertex 84.11978496756409 -49.500000000000036 0.49999999999999994
    vertex 84.11978496756409 -49.500000000000036 0.0
  endloop
endfacet
facet normal 1.0 0.0 0.0
  outer loop
    vertex 84.11978496756409 -49.500000000000036 0.49999999999999994
    vertex 84.11978496756409 0.49999999999999906 0.0
    vertex 84.11978496756409 0.49999999999999906 0.49999999999999994
  endloop
endfacet
facet normal -1.0 0.0 0.0
  outer loop
    vertex 62.24399582729303 0.0 0.49999999999999994
    vertex 62.24399582729303 -49.00000000000003 0.0
    vertex 62.24399582729303 -49.00000000000003 0.49999999999999994
  endloop
endfacet
facet normal -1.0 0.0 0.0
  outer loop
    vertex 62.24399582729303 -49.00000000000003 0.0
    vertex 62.24399582729303 0.0 0.49999999999999994
    vertex 62.24399582729303 0.0 0.0
  endloop
endfacet
facet normal 1.0 -0.0 -0.0
  outer loop
    vertex 42.74399582729309 0.0 0.0
    vertex 42.74399582729309 -49.00000000000003 0.49999999999999994
    vertex 42.74399582729309 -49.00000000000003 0.0
  endloop
endfacet
facet normal 1.0 -0.0 -0.0
  outer loop
    vertex 42.74399582729309 -49.00000000000003 0.49999999999999994
    vertex 42.74399582729309 0.0 0.0
    vertex 42.74399582729309 0.0 0.49999999999999994
  endloop
endfacet
facet normal -0.0 1.0 -0.0
  outer loop
    vertex 42.74399582729309 -49.00000000000003 0.49999999999999994
    vertex 62.24399582729303 -49.00000000000003 0.0
    vertex 42.74399582729309 -49.00000000000003 0.0
  endloop
endfacet
facet normal -0.0 1.0 -0.0
  outer loop
    vertex 62.24399582729303 -49.00000000000003 0.0
    vertex 42.74399582729309 -49.00000000000003 0.49999999999999994
    vertex 62.24399582729303 -49.00000000000003 0.49999999999999994
  endloop
endfacet
facet normal -0.0 1.0 -0.0
  outer loop
    vertex 42.2439958272931 0.49999999999999906 0.49999999999999994
    vertex 62.74399582729303 0.49999999999999906 0.0
    vertex 42.2439958272931 0.49999999999999906 0.0
  endloop
endfacet
facet normal -0.0 1.0 -0.0
  outer loop
    vertex 62.74399582729303 0.49999999999999906 0.0
    vertex 42.2439958272931 0.49999999999999906 0.49999999999999994
    vertex 62.74399582729303 0.49999999999999906 0.49999999999999994
  endloop
endfacet
facet normal -0.0 -0.0 1.0
  outer loop
    vertex 42.2439958272931 -49.500000000000036 0.49999999999999994
    vertex 42.74399582729309 -49.00000000000003 0.49999999999999994
    vertex 42.2439958272931 0.49999999999999906 0.49999999999999994
  endloop
endfacet
facet normal -0.0 -0.0 1.0
  outer loop
    vertex 42.74399582729309 -49.00000000000003 0.49999999999999994
    vertex 42.2439958272931 -49.500000000000036 0.49999999999999994
    vertex 62.74399582729303 -49.500000000000036 0.49999999999999994
  endloop
endfacet
facet normal -0.0 -0.0 1.0
  outer loop
    vertex 42.74399582729309 -49.00000000000003 0.49999999999999994
    vertex 62.74399582729303 -49.500000000000036 0.49999999999999994
    vertex 62.24399582729303 -49.00000000000003 0.49999999999999994
  endloop
endfacet
facet normal -0.0 -0.0 1.0
  outer loop
    vertex 62.24399582729303 -49.00000000000003 0.49999999999999994
    vertex 62.74399582729303 -49.500000000000036 0.49999999999999994
    vertex 62.24399582729303 0.0 0.49999999999999994
  endloop
endfacet
facet normal -0.0 -0.0 1.0
  outer loop
    vertex 42.2439958272931 0.49999999999999906 0.49999999999999994
    vertex 42.74399582729309 0.0 0.49999999999999994
    vertex 62.74399582729303 0.49999999999999906 0.49999999999999994
  endloop
endfacet
facet normal -0.0 -0.0 1.0
  outer loop
    vertex 42.74399582729309 0.0 0.49999999999999994
    vertex 42.2439958272931 0.49999999999999906 0.49999999999999994
    vertex 42.74399582729309 -49.00000000000003 0.49999999999999994
  endloop
endfacet
facet normal -0.0 -0.0 1.0
  outer loop
    vertex 62.74399582729303 0.49999999999999906 0.49999999999999994
    vertex 42.74399582729309 0.0 0.49999999999999994
    vertex 62.24399582729303 0.0 0.49999999999999994
  endloop
endfacet
facet normal -0.0 -0.0 1.0
  outer loop
    vertex 62.74399582729303 0.49999999999999906 0.49999999999999994
    vertex 62.24399582729303 0.0 0.49999999999999994
    vertex 62.74399582729303 -49.500000000000036 0.49999999999999994
  endloop
endfacet
facet normal 1.0 0.0 0.0
  outer loop
    vertex 62.74399582729303 0.49999999999999906 0.0
    vertex 62.74399582729303 -49.500000000000036 0.49999999999999994
    vertex 62.74399582729303 -49.500000000000036 0.0
  endloop
endfacet
facet normal 1.0 0.0 0.0
  outer loop
    vertex 62.74399582729303 -49.500000000000036 0.49999999999999994
    vertex 62.74399582729303 0.49999999999999906 0.0
    vertex 62.74399582729303 0.49999999999999906 0.49999999999999994
  endloop
endfacet
facet normal -1.0 0.0 0.0
  outer loop
    vertex 63.61978496756407 0.49999999999999906 0.49999999999999994
    vertex 63.61978496756407 -49.500000000000036 0.0
    vertex 63.61978496756407 -49.500000000000036 0.49999999999999994
  endloop
endfacet
facet normal -1.0 0.0 0.0
  outer loop
    vertex 63.61978496756407 -49.500000000000036 0.0
    vertex 63.61978496756407 0.49999999999999906 0.49999999999999994
    vertex 63.61978496756407 0.49999999999999906 0.0
  endloop
endfacet
facet normal 0.0 0.0 -1.0
  outer loop
    vertex 63.61978496756407 0.49999999999999906 0.0
    vertex 64.11978496756407 0.0 0.0
    vertex 63.61978496756407 -49.500000000000036 0.0
  endloop
endfacet
facet normal 0.0 0.0 -1.0
  outer loop
    vertex 64.11978496756407 0.0 0.0
    vertex 63.61978496756407 0.49999999999999906 0.0
    vertex 84.11978496756409 0.49999999999999906 0.0
  endloop
endfacet
facet normal 0.0 0.0 -1.0
  outer loop
    vertex 64.11978496756407 0.0 0.0
    vertex 84.11978496756409 0.49999999999999906 0.0
    vertex 83.61978496756409 0.0 0.0
  endloop
endfacet
facet normal 0.0 0.0 -1.0
  outer loop
    vertex 83.61978496756409 0.0 0.0
    vertex 84.11978496756409 0.49999999999999906 0.0
    vertex 83.61978496756409 -49.00000000000003 0.0
  endloop
endfacet
facet normal 0.0 0.0 -1.0
  outer loop
    vertex 63.61978496756407 -49.500000000000036 0.0
    vertex 64.11978496756407 -49.00000000000003 0.0
    vertex 84.11978496756409 -49.500000000000036 0.0
  endloop
endfacet
facet normal 0.0 0.0 -1.0
  outer loop
    vertex 64.11978496756407 -49.00000000000003 0.0
    vertex 63.61978496756407 -49.500000000000036 0.0
    vertex 64.11978496756407 0.0 0.0
  endloop
endfacet
facet normal 0.0 0.0 -1.0
  outer loop
    vertex 84.11978496756409 -49.500000000000036 0.0
    vertex 64.11978496756407 -49.00000000000003 0.0
    vertex 83.61978496756409 -49.00000000000003 0.0
  endloop
endfacet
facet normal 0.0 0.0 -1.0
  outer loop
    vertex 84.11978496756409 -49.500000000000036 0.0
    vertex 83.61978496756409 -49.00000000000003 0.0
    vertex 84.11978496756409 0.49999999999999906 0.0
  endloop
endfacet
facet normal -0.0 1.0 -0.0
  outer loop
    vertex 63.61978496756407 0.49999999999999906 0.49999999999999994
    vertex 84.11978496756409 0.49999999999999906 0.0
    vertex 63.61978496756407 0.49999999999999906 0.0
  endloop
endfacet
facet normal -0.0 1.0 -0.0
  outer loop
    vertex 84.11978496756409 0.49999999999999906 0.0
    vertex 63.61978496756407 0.49999999999999906 0.49999999999999994
    vertex 84.11978496756409 0.49999999999999906 0.49999999999999994
  endloop
endfacet
facet normal -0.0 -0.0 1.0
  outer loop
    vertex 63.61978496756407 -49.500000000000036 0.49999999999999994
    vertex 64.11978496756407 -49.00000000000003 0.49999999999999994
    vertex 63.61978496756407 0.49999999999999906 0.49999999999999994
  endloop
endfacet
facet normal -0.0 -0.0 1.0
  outer loop
    vertex 64.11978496756407 -49.00000000000003 0.49999999999999994
    vertex 63.61978496756407 -49.500000000000036 0.49999999999999994
    vertex 84.11978496756409 -49.500000000000036 0.49999999999999994
  endloop
endfacet
facet normal -0.0 -0.0 1.0
  outer loop
    vertex 64.11978496756407 -49.00000000000003 0.49999999999999994
    vertex 84.11978496756409 -49.500000000000036 0.49999999999999994
    vertex 83.61978496756409 -49.00000000000003 0.49999999999999994
  endloop
endfacet
facet normal -0.0 -0.0 1.0
  outer loop
    vertex 83.61978496756409 -49.00000000000003 0.49999999999999994
    vertex 84.11978496756409 -49.500000000000036 0.49999999999999994
    vertex 83.61978496756409 0.0 0.49999999999999994
  endloop
endfacet
facet normal -0.0 -0.0 1.0
  outer loop
    vertex 63.61978496756407 0.49999999999999906 0.49999999999999994
    vertex 64.11978496756407 0.0 0.49999999999999994
    vertex 84.11978496756409 0.49999999999999906 0.49999999999999994
  endloop
endfacet
facet normal -0.0 -0.0 1.0
  outer loop
    vertex 64.11978496756407 0.0 0.49999999999999994
    vertex 63.61978496756407 0.49999999999999906 0.49999999999999994
    vertex 64.11978496756407 -49.00000000000003 0.49999999999999994
  endloop
endfacet
facet normal -0.0 -0.0 1.0
  outer loop
    vertex 84.11978496756409 0.49999999999999906 0.49999999999999994
    vertex 64.11978496756407 0.0 0.49999999999999994
    vertex 83.61978496756409 0.0 0.49999999999999994
  endloop
endfacet
facet normal -0.0 -0.0 1.0
  outer loop
    vertex 84.11978496756409 0.49999999999999906 0.49999999999999994
    vertex 83.61978496756409 0.0 0.49999999999999994
    vertex 84.11978496756409 -49.500000000000036 0.49999999999999994
  endloop
endfacet
facet normal 0.0 -1.0 0.0
  outer loop
    vertex 84.11978496756409 -49.500000000000036 0.49999999999999994
    vertex 63.61978496756407 -49.500000000000036 0.0
    vertex 84.11978496756409 -49.500000000000036 0.0
  endloop
endfacet
facet normal 0.0 -1.0 0.0
  outer loop
    vertex 63.61978496756407 -49.500000000000036 0.0
    vertex 84.11978496756409 -49.500000000000036 0.49999999999999994
    vertex 63.61978496756407 -49.500000000000036 0.49999999999999994
  endloop
endfacet
facet normal 0.0 -1.0 0.0
  outer loop
    vertex 83.61978496756409 0.0 0.49999999999999994
    vertex 64.11978496756407 0.0 0.0
    vertex 83.61978496756409 0.0 0.0
  endloop
endfacet
facet normal 0.0 -1.0 0.0
  outer loop
    vertex 64.11978496756407 0.0 0.0
    vertex 83.61978496756409 0.0 0.49999999999999994
    vertex 64.11978496756407 0.0 0.49999999999999994
  endloop
endfacet
facet normal 0.0 -1.0 0.0
  outer loop
    vertex 62.24399582729303 0.0 0.49999999999999994
    vertex 42.74399582729309 0.0 0.0
    vertex 62.24399582729303 0.0 0.0
  endloop
endfacet
facet normal 0.0 -1.0 0.0
  outer loop
    vertex 42.74399582729309 0.0 0.0
    vertex 62.24399582729303 0.0 0.49999999999999994
    vertex 42.74399582729309 0.0 0.49999999999999994
  endloop
endfacet
facet normal -1.0 0.0 0.0
  outer loop
    vertex 42.2439958272931 0.49999999999999906 0.49999999999999994
    vertex 42.2439958272931 -49.500000000000036 0.0
    vertex 42.2439958272931 -49.500000000000036 0.49999999999999994
  endloop
endfacet
facet normal -1.0 0.0 0.0
  outer loop
    vertex 42.2439958272931 -49.500000000000036 0.0
    vertex 42.2439958272931 0.49999999999999906 0.49999999999999994
    vertex 42.2439958272931 0.49999999999999906 0.0
  endloop
endfacet
facet normal 1.0 -0.0 -0.0
  outer loop
    vertex 64.11978496756407 0.0 0.0
    vertex 64.11978496756407 -49.00000000000003 0.49999999999999994
    vertex 64.11978496756407 -49.00000000000003 0.0
  endloop
endfacet
facet normal 1.0 -0.0 -0.0
  outer loop
    vertex 64.11978496756407 -49.00000000000003 0.49999999999999994
    vertex 64.11978496756407 0.0 0.0
    vertex 64.11978496756407 0.0 0.49999999999999994
  endloop
endfacet
facet normal 0.0 -1.0 0.0
  outer loop
    vertex 62.74399582729303 -49.500000000000036 0.49999999999999994
    vertex 42.2439958272931 -49.500000000000036 0.0
    vertex 62.74399582729303 -49.500000000000036 0.0
  endloop
endfacet
facet normal 0.0 -1.0 0.0
  outer loop
    vertex 42.2439958272931 -49.500000000000036 0.0
    vertex 62.74399582729303 -49.500000000000036 0.49999999999999994
    vertex 42.2439958272931 -49.500000000000036 0.49999999999999994
  endloop
endfacet
facet normal 0.0 0.0 -1.0
  outer loop
    vertex 42.2439958272931 0.49999999999999906 0.0
    vertex 42.74399582729309 0.0 0.0
    vertex 42.2439958272931 -49.500000000000036 0.0
  endloop
endfacet
facet normal 0.0 0.0 -1.0
  outer loop
    vertex 42.74399582729309 0.0 0.0
    vertex 42.2439958272931 0.49999999999999906 0.0
    vertex 62.74399582729303 0.49999999999999906 0.0
  endloop
endfacet
facet normal 0.0 0.0 -1.0
  outer loop
    vertex 42.74399582729309 0.0 0.0
    vertex 62.74399582729303 0.49999999999999906 0.0
    vertex 62.24399582729303 0.0 0.0
  endloop
endfacet
facet normal 0.0 0.0 -1.0
  outer loop
    vertex 62.24399582729303 0.0 0.0
    vertex 62.74399582729303 0.49999999999999906 0.0
    vertex 62.24399582729303 -49.00000000000003 0.0
  endloop
endfacet
facet normal 0.0 0.0 -1.0
  outer loop
    vertex 42.2439958272931 -49.500000000000036 0.0
    vertex 42.74399582729309 -49.00000000000003 0.0
    vertex 62.74399582729303 -49.500000000000036 0.0
  endloop
endfacet
facet normal 0.0 0.0 -1.0
  outer loop
    vertex 42.74399582729309 -49.00000000000003 0.0
    vertex 42.2439958272931 -49.500000000000036 0.0
    vertex 42.74399582729309 0.0 0.0
  endloop
endfacet
facet normal 0.0 0.0 -1.0
  outer loop
    vertex 62.74399582729303 -49.500000000000036 0.0
    vertex 42.74399582729309 -49.00000000000003 0.0
    vertex 62.24399582729303 -49.00000000000003 0.0
  endloop
endfacet
facet normal 0.0 0.0 -1.0
  outer loop
    vertex 62.74399582729303 -49.500000000000036 0.0
    vertex 62.24399582729303 -49.00000000000003 0.0
    vertex 62.74399582729303 0.49999999999999906 0.0
  endloop
endfacet
facet normal -0.0 1.0 -0.0
  outer loop
    vertex 64.11978496756407 -49.00000000000003 0.49999999999999994
    vertex 83.61978496756409 -49.00000000000003 0.0
    vertex 64.11978496756407 -49.00000000000003 0.0
  endloop
endfacet
facet normal -0.0 1.0 -0.0
  outer loop
    vertex 83.61978496756409 -49.00000000000003 0.0
    vertex 64.11978496756407 -49.00000000000003 0.49999999999999994
    vertex 83.61978496756409 -49.00000000000003 0.49999999999999994
  endloop
endfacet
facet normal -1.0 0.0 0.0
  outer loop
    vertex 83.61978496756409 0.0 0.49999999999999994
    vertex 83.61978496756409 -49.00000000000003 0.0
    vertex 83.61978496756409 -49.00000000000003 0.49999999999999994
  endloop
endfacet
facet normal -1.0 0.0 0.0
  outer loop
    vertex 83.61978496756409 -49.00000000000003 0.0
    vertex 83.61978496756409 0.0 0.49999999999999994
    vertex 83.61978496756409 0.0 0.0
  endloop
endfacet
facet normal 0.0 0.0 -1.0
  outer loop
    vertex 105.93081428056054 0.49999999999999906 0.0
    vertex 106.43081428056051 1.762479051592436e-16 0.0
    vertex 105.93081428056054 -49.500000000000014 0.0
  endloop
endfacet
facet normal 0.0 0.0 -1.0
  outer loop
    vertex 106.43081428056051 1.762479051592436e-16 0.0
    vertex 105.93081428056054 0.49999999999999906 0.0
    vertex 126.43081428056053 0.49999999999999906 0.0
  endloop
endfacet
facet normal 0.0 0.0 -1.0
  outer loop
    vertex 106.43081428056051 1.762479051592436e-16 0.0
    vertex 126.43081428056053 0.49999999999999906 0.0
    vertex 125.9308142805605 1.762479051592436e-16 0.0
  endloop
endfacet
facet normal 0.0 0.0 -1.0
  outer loop
    vertex 125.9308142805605 1.762479051592436e-16 0.0
    vertex 126.43081428056053 0.49999999999999906 0.0
    vertex 125.9308142805605 -49.00000000000001 0.0
  endloop
endfacet
facet normal 0.0 0.0 -1.0
  outer loop
    vertex 105.93081428056054 -49.500000000000014 0.0
    vertex 106.43081428056051 -49.00000000000001 0.0
    vertex 126.43081428056053 -49.500000000000014 0.0
  endloop
endfacet
facet normal 0.0 0.0 -1.0
  outer loop
    vertex 106.43081428056051 -49.00000000000001 0.0
    vertex 105.93081428056054 -49.500000000000014 0.0
    vertex 106.43081428056051 1.762479051592436e-16 0.0
  endloop
endfacet
facet normal 0.0 0.0 -1.0
  outer loop
    vertex 126.43081428056053 -49.500000000000014 0.0
    vertex 106.43081428056051 -49.00000000000001 0.0
    vertex 125.9308142805605 -49.00000000000001 0.0
  endloop
endfacet
facet normal 0.0 0.0 -1.0
  outer loop
    vertex 126.43081428056053 -49.500000000000014 0.0
    vertex 125.9308142805605 -49.00000000000001 0.0
    vertex 126.43081428056053 0.49999999999999906 0.0
  endloop
endfacet
facet normal 0.0 -1.0 0.0
  outer loop
    vertex 125.9308142805605 1.762479051592436e-16 0.4999999999999999
    vertex 106.43081428056051 1.762479051592436e-16 0.0
    vertex 125.9308142805605 1.762479051592436e-16 0.0
  endloop
endfacet
facet normal 0.0 -1.0 0.0
  outer loop
    vertex 106.43081428056051 1.762479051592436e-16 0.0
    vertex 125.9308142805605 1.762479051592436e-16 0.4999999999999999
    vertex 106.43081428056051 1.762479051592436e-16 0.4999999999999999
  endloop
endfacet
facet normal 1.0 -0.0 -0.0
  outer loop
    vertex 127.29902096758259 1.762479051592436e-16 0.0
    vertex 127.29902096758259 -49.00000000000003 0.4999999999999999
    vertex 127.29902096758259 -49.00000000000003 0.0
  endloop
endfacet
facet normal 1.0 -0.0 -0.0
  outer loop
    vertex 127.29902096758259 -49.00000000000003 0.4999999999999999
    vertex 127.29902096758259 1.762479051592436e-16 0.0
    vertex 127.29902096758259 1.762479051592436e-16 0.4999999999999999
  endloop
endfacet
facet normal 0.0 -1.0 0.0
  outer loop
    vertex 146.7990209675825 1.762479051592436e-16 0.4999999999999999
    vertex 127.29902096758259 1.762479051592436e-16 0.0
    vertex 146.7990209675825 1.762479051592436e-16 0.0
  endloop
endfacet
facet normal 0.0 -1.0 0.0
  outer loop
    vertex 127.29902096758259 1.762479051592436e-16 0.0
    vertex 146.7990209675825 1.762479051592436e-16 0.4999999999999999
    vertex 127.29902096758259 1.762479051592436e-16 0.4999999999999999
  endloop
endfacet
facet normal 1.0 -0.0 -0.0
  outer loop
    vertex 126.43081428056053 0.49999999999999906 0.0
    vertex 126.43081428056053 -49.500000000000014 0.4999999999999999
    vertex 126.43081428056053 -49.500000000000014 0.0
  endloop
endfacet
facet normal 1.0 -0.0 -0.0
  outer loop
    vertex 126.43081428056053 -49.500000000000014 0.4999999999999999
    vertex 126.43081428056053 0.49999999999999906 0.0
    vertex 126.43081428056053 0.49999999999999906 0.4999999999999999
  endloop
endfacet
facet normal -1.0 0.0 0.0
  outer loop
    vertex 168.17481010785357 1.762479051592436e-16 0.4999999999999999
    vertex 168.17481010785357 -49.00000000000003 0.0
    vertex 168.17481010785357 -49.00000000000003 0.4999999999999999
  endloop
endfacet
facet normal -1.0 0.0 0.0
  outer loop
    vertex 168.17481010785357 -49.00000000000003 0.0
    vertex 168.17481010785357 1.762479051592436e-16 0.4999999999999999
    vertex 168.17481010785357 1.762479051592436e-16 0.0
  endloop
endfacet
facet normal -0.0 1.0 -0.0
  outer loop
    vertex 106.43081428056051 -49.00000000000001 0.4999999999999999
    vertex 125.9308142805605 -49.00000000000001 0.0
    vertex 106.43081428056051 -49.00000000000001 0.0
  endloop
endfacet
facet normal -0.0 1.0 -0.0
  outer loop
    vertex 125.9308142805605 -49.00000000000001 0.0
    vertex 106.43081428056051 -49.00000000000001 0.4999999999999999
    vertex 125.9308142805605 -49.00000000000001 0.4999999999999999
  endloop
endfacet
facet normal -0.0 1.0 -0.0
  outer loop
    vertex 126.79902096758256 0.49999999999999906 0.4999999999999999
    vertex 147.2990209675825 0.49999999999999906 0.0
    vertex 126.79902096758256 0.49999999999999906 0.0
  endloop
endfacet
facet normal -0.0 1.0 -0.0
  outer loop
    vertex 147.2990209675825 0.49999999999999906 0.0
    vertex 126.79902096758256 0.49999999999999906 0.4999999999999999
    vertex 147.2990209675825 0.49999999999999906 0.4999999999999999
  endloop
endfacet
facet normal -1.0 0.0 0.0
  outer loop
    vertex 125.9308142805605 1.762479051592436e-16 0.4999999999999999
    vertex 125.9308142805605 -49.00000000000001 0.0
    vertex 125.9308142805605 -49.00000000000001 0.4999999999999999
  endloop
endfacet
facet normal -1.0 0.0 0.0
  outer loop
    vertex 125.9308142805605 -49.00000000000001 0.0
    vertex 125.9308142805605 1.762479051592436e-16 0.4999999999999999
    vertex 125.9308142805605 1.762479051592436e-16 0.0
  endloop
endfacet
facet normal -1.0 0.0 0.0
  outer loop
    vertex 146.7990209675825 1.762479051592436e-16 0.4999999999999999
    vertex 146.7990209675825 -49.00000000000003 0.0
    vertex 146.7990209675825 -49.00000000000003 0.4999999999999999
  endloop
endfacet
facet normal -1.0 0.0 0.0
  outer loop
    vertex 146.7990209675825 -49.00000000000003 0.0
    vertex 146.7990209675825 1.762479051592436e-16 0.4999999999999999
    vertex 146.7990209675825 1.762479051592436e-16 0.0
  endloop
endfacet
facet normal 1.0 -0.0 -0.0
  outer loop
    vertex 147.2990209675825 0.49999999999999906 0.0
    vertex 147.2990209675825 -49.50000000000005 0.4999999999999999
    vertex 147.2990209675825 -49.50000000000005 0.0
  endloop
endfacet
facet normal 1.0 -0.0 -0.0
  outer loop
    vertex 147.2990209675825 -49.50000000000005 0.4999999999999999
    vertex 147.2990209675825 0.49999999999999906 0.0
    vertex 147.2990209675825 0.49999999999999906 0.4999999999999999
  endloop
endfacet
facet normal -1.0 0.0 0.0
  outer loop
    vertex 104.55502514028947 1.762479051592436e-16 0.4999999999999999
    vertex 104.55502514028947 -49.00000000000001 0.0
    vertex 104.55502514028947 -49.00000000000001 0.4999999999999999
  endloop
endfacet
facet normal -1.0 0.0 0.0
  outer loop
    vertex 104.55502514028947 -49.00000000000001 0.0
    vertex 104.55502514028947 1.762479051592436e-16 0.4999999999999999
    vertex 104.55502514028947 1.762479051592436e-16 0.0
  endloop
endfacet
facet normal 1.0 -0.0 -0.0
  outer loop
    vertex 105.05502514028949 0.49999999999999906 0.0
    vertex 105.05502514028949 -49.500000000000014 0.4999999999999999
    vertex 105.05502514028949 -49.500000000000014 0.0
  endloop
endfacet
facet normal 1.0 -0.0 -0.0
  outer loop
    vertex 105.05502514028949 -49.500000000000014 0.4999999999999999
    vertex 105.05502514028949 0.49999999999999906 0.0
    vertex 105.05502514028949 0.49999999999999906 0.4999999999999999
  endloop
endfacet
facet normal -0.0 -0.0 1.0
  outer loop
    vertex 126.79902096758256 -49.50000000000005 0.4999999999999999
    vertex 127.29902096758259 -49.00000000000003 0.4999999999999999
    vertex 126.79902096758256 0.49999999999999906 0.4999999999999999
  endloop
endfacet
facet normal -0.0 -0.0 1.0
  outer loop
    vertex 127.29902096758259 -49.00000000000003 0.4999999999999999
    vertex 126.79902096758256 -49.50000000000005 0.4999999999999999
    vertex 147.2990209675825 -49.50000000000005 0.4999999999999999
  endloop
endfacet
facet normal -0.0 -0.0 1.0
  outer loop
    vertex 127.29902096758259 -49.00000000000003 0.4999999999999999
    vertex 147.2990209675825 -49.50000000000005 0.4999999999999999
    vertex 146.7990209675825 -49.00000000000003 0.4999999999999999
  endloop
endfacet
facet normal -0.0 -0.0 1.0
  outer loop
    vertex 146.7990209675825 -49.00000000000003 0.4999999999999999
    vertex 147.2990209675825 -49.50000000000005 0.4999999999999999
    vertex 146.7990209675825 1.762479051592436e-16 0.4999999999999999
  endloop
endfacet
facet normal -0.0 -0.0 1.0
  outer loop
    vertex 126.79902096758256 0.49999999999999906 0.4999999999999999
    vertex 127.29902096758259 1.762479051592436e-16 0.4999999999999999
    vertex 147.2990209675825 0.49999999999999906 0.4999999999999999
  endloop
endfacet
facet normal -0.0 -0.0 1.0
  outer loop
    vertex 127.29902096758259 1.762479051592436e-16 0.4999999999999999
    vertex 126.79902096758256 0.49999999999999906 0.4999999999999999
    vertex 127.29902096758259 -49.00000000000003 0.4999999999999999
  endloop
endfacet
facet normal -0.0 -0.0 1.0
  outer loop
    vertex 147.2990209675825 0.49999999999999906 0.4999999999999999
    vertex 127.29902096758259 1.762479051592436e-16 0.4999999999999999
    vertex 146.7990209675825 1.762479051592436e-16 0.4999999999999999
  endloop
endfacet
facet normal -0.0 -0.0 1.0
  outer loop
    vertex 147.2990209675825 0.49999999999999906 0.4999999999999999
    vertex 146.7990209675825 1.762479051592436e-16 0.4999999999999999
    vertex 147.2990209675825 -49.50000000000005 0.4999999999999999
  endloop
endfacet
facet normal -1.0 0.0 0.0
  outer loop
    vertex 105.93081428056054 0.49999999999999906 0.4999999999999999
    vertex 105.93081428056054 -49.500000000000014 0.0
    vertex 105.93081428056054 -49.500000000000014 0.4999999999999999
  endloop
endfacet
facet normal -1.0 0.0 0.0
  outer loop
    vertex 105.93081428056054 -49.500000000000014 0.0
    vertex 105.93081428056054 0.49999999999999906 0.4999999999999999
    vertex 105.93081428056054 0.49999999999999906 0.0
  endloop
endfacet
facet normal -0.0 1.0 -0.0
  outer loop
    vertex 105.93081428056054 0.49999999999999906 0.4999999999999999
    vertex 126.43081428056053 0.49999999999999906 0.0
    vertex 105.93081428056054 0.49999999999999906 0.0
  endloop
endfacet
facet normal -0.0 1.0 -0.0
  outer loop
    vertex 126.43081428056053 0.49999999999999906 0.0
    vertex 105.93081428056054 0.49999999999999906 0.4999999999999999
    vertex 126.43081428056053 0.49999999999999906 0.4999999999999999
  endloop
endfacet
facet normal 0.0 0.0 -1.0
  outer loop
    vertex 148.17481010785355 0.49999999999999906 0.0
    vertex 148.67481010785355 1.762479051592436e-16 0.0
    vertex 148.17481010785355 -49.50000000000005 0.0
  endloop
endfacet
facet normal 0.0 0.0 -1.0
  outer loop
    vertex 148.67481010785355 1.762479051592436e-16 0.0
    vertex 148.17481010785355 0.49999999999999906 0.0
    vertex 168.67481010785355 0.49999999999999906 0.0
  endloop
endfacet
facet normal 0.0 0.0 -1.0
  outer loop
    vertex 148.67481010785355 1.762479051592436e-16 0.0
    vertex 168.67481010785355 0.49999999999999906 0.0
    vertex 168.17481010785357 1.762479051592436e-16 0.0
  endloop
endfacet
facet normal 0.0 0.0 -1.0
  outer loop
    vertex 168.17481010785357 1.762479051592436e-16 0.0
    vertex 168.67481010785355 0.49999999999999906 0.0
    vertex 168.17481010785357 -49.00000000000003 0.0
  endloop
endfacet
facet normal 0.0 0.0 -1.0
  outer loop
    vertex 148.17481010785355 -49.50000000000005 0.0
    vertex 148.67481010785355 -49.00000000000003 0.0
    vertex 168.67481010785355 -49.50000000000005 0.0
  endloop
endfacet
facet normal 0.0 0.0 -1.0
  outer loop
    vertex 148.67481010785355 -49.00000000000003 0.0
    vertex 148.17481010785355 -49.50000000000005 0.0
    vertex 148.67481010785355 1.762479051592436e-16 0.0
  endloop
endfacet
facet normal 0.0 0.0 -1.0
  outer loop
    vertex 168.67481010785355 -49.50000000000005 0.0
    vertex 148.67481010785355 -49.00000000000003 0.0
    vertex 168.17481010785357 -49.00000000000003 0.0
  endloop
endfacet
facet normal 0.0 0.0 -1.0
  outer loop
    vertex 168.67481010785355 -49.50000000000005 0.0
    vertex 168.17481010785357 -49.00000000000003 0.0
    vertex 168.67481010785355 0.49999999999999906 0.0
  endloop
endfacet
facet normal 0.0 -1.0 0.0
  outer loop
    vertex 105.05502514028949 -49.500000000000014 0.4999999999999999
    vertex 84.5550251402896 -49.500000000000014 0.0
    vertex 105.05502514028949 -49.500000000000014 0.0
  endloop
endfacet
facet normal 0.0 -1.0 0.0
  outer loop
    vertex 84.5550251402896 -49.500000000000014 0.0
    vertex 105.05502514028949 -49.500000000000014 0.4999999999999999
    vertex 84.5550251402896 -49.500000000000014 0.4999999999999999
  endloop
endfacet
facet normal -0.0 -0.0 1.0
  outer loop
    vertex 105.93081428056054 -49.500000000000014 0.4999999999999999
    vertex 106.43081428056051 -49.00000000000001 0.4999999999999999
    vertex 105.93081428056054 0.49999999999999906 0.4999999999999999
  endloop
endfacet
facet normal -0.0 -0.0 1.0
  outer loop
    vertex 106.43081428056051 -49.00000000000001 0.4999999999999999
    vertex 105.93081428056054 -49.500000000000014 0.4999999999999999
    vertex 126.43081428056053 -49.500000000000014 0.4999999999999999
  endloop
endfacet
facet normal -0.0 -0.0 1.0
  outer loop
    vertex 106.43081428056051 -49.00000000000001 0.4999999999999999
    vertex 126.43081428056053 -49.500000000000014 0.4999999999999999
    vertex 125.9308142805605 -49.00000000000001 0.4999999999999999
  endloop
endfacet
facet normal -0.0 -0.0 1.0
  outer loop
    vertex 125.9308142805605 -49.00000000000001 0.4999999999999999
    vertex 126.43081428056053 -49.500000000000014 0.4999999999999999
    vertex 125.9308142805605 1.762479051592436e-16 0.4999999999999999
  endloop
endfacet
facet normal -0.0 -0.0 1.0
  outer loop
    vertex 105.93081428056054 0.49999999999999906 0.4999999999999999
    vertex 106.43081428056051 1.762479051592436e-16 0.4999999999999999
    vertex 126.43081428056053 0.49999999999999906 0.4999999999999999
  endloop
endfacet
facet normal -0.0 -0.0 1.0
  outer loop
    vertex 106.43081428056051 1.762479051592436e-16 0.4999999999999999
    vertex 105.93081428056054 0.49999999999999906 0.4999999999999999
    vertex 106.43081428056051 -49.00000000000001 0.4999999999999999
  endloop
endfacet
facet normal -0.0 -0.0 1.0
  outer loop
    vertex 126.43081428056053 0.49999999999999906 0.4999999999999999
    vertex 106.43081428056051 1.762479051592436e-16 0.4999999999999999
    vertex 125.9308142805605 1.762479051592436e-16 0.4999999999999999
  endloop
endfacet
facet normal -0.0 -0.0 1.0
  outer loop
    vertex 126.43081428056053 0.49999999999999906 0.4999999999999999
    vertex 125.9308142805605 1.762479051592436e-16 0.4999999999999999
    vertex 126.43081428056053 -49.500000000000014 0.4999999999999999
  endloop
endfacet
facet normal -0.0 1.0 -0.0
  outer loop
    vertex 148.17481010785355 0.49999999999999906 0.4999999999999999
    vertex 168.67481010785355 0.49999999999999906 0.0
    vertex 148.17481010785355 0.49999999999999906 0.0
  endloop
endfacet
facet normal -0.0 1.0 -0.0
  outer loop
    vertex 168.67481010785355 0.49999999999999906 0.0
    vertex 148.17481010785355 0.49999999999999906 0.4999999999999999
    vertex 168.67481010785355 0.49999999999999906 0.4999999999999999
  endloop
endfacet
facet normal 1.0 -0.0 -0.0
  outer loop
    vertex 106.43081428056051 1.762479051592436e-16 0.0
    vertex 106.43081428056051 -49.00000000000001 0.4999999999999999
    vertex 106.43081428056051 -49.00000000000001 0.0
  endloop
endfacet
facet normal 1.0 -0.0 -0.0
  outer loop
    vertex 106.43081428056051 -49.00000000000001 0.4999999999999999
    vertex 106.43081428056051 1.762479051592436e-16 0.0
    vertex 106.43081428056051 1.762479051592436e-16 0.4999999999999999
  endloop
endfacet
facet normal -0.0 -0.0 1.0
  outer loop
    vertex 148.17481010785355 -49.50000000000005 0.4999999999999999
    vertex 148.67481010785355 -49.00000000000003 0.4999999999999999
    vertex 148.17481010785355 0.49999999999999906 0.4999999999999999
  endloop
endfacet
facet normal -0.0 -0.0 1.0
  outer loop
    vertex 148.67481010785355 -49.00000000000003 0.4999999999999999
    vertex 148.17481010785355 -49.50000000000005 0.4999999999999999
    vertex 168.67481010785355 -49.50000000000005 0.4999999999999999
  endloop
endfacet
facet normal -0.0 -0.0 1.0
  outer loop
    vertex 148.67481010785355 -49.00000000000003 0.4999999999999999
    vertex 168.67481010785355 -49.50000000000005 0.4999999999999999
    vertex 168.17481010785357 -49.00000000000003 0.4999999999999999
  endloop
endfacet
facet normal -0.0 -0.0 1.0
  outer loop
    vertex 168.17481010785357 -49.00000000000003 0.4999999999999999
    vertex 168.67481010785355 -49.50000000000005 0.4999999999999999
    vertex 168.17481010785357 1.762479051592436e-16 0.4999999999999999
  endloop
endfacet
facet normal -0.0 -0.0 1.0
  outer loop
    vertex 148.17481010785355 0.49999999999999906 0.4999999999999999
    vertex 148.67481010785355 1.762479051592436e-16 0.4999999999999999
    vertex 168.67481010785355 0.49999999999999906 0.4999999999999999
  endloop
endfacet
facet normal -0.0 -0.0 1.0
  outer loop
    vertex 148.67481010785355 1.762479051592436e-16 0.4999999999999999
    vertex 148.17481010785355 0.49999999999999906 0.4999999999999999
    vertex 148.67481010785355 -49.00000000000003 0.4999999999999999
  endloop
endfacet
facet normal -0.0 -0.0 1.0
  outer loop
    vertex 168.67481010785355 0.49999999999999906 0.4999999999999999
    vertex 148.67481010785355 1.762479051592436e-16 0.4999999999999999
    vertex 168.17481010785357 1.762479051592436e-16 0.4999999999999999
  endloop
endfacet
facet normal -0.0 -0.0 1.0
  outer loop
    vertex 168.67481010785355 0.49999999999999906 0.4999999999999999
    vertex 168.17481010785357 1.762479051592436e-16 0.4999999999999999
    vertex 168.67481010785355 -49.50000000000005 0.4999999999999999
  endloop
endfacet
facet normal 1.0 -0.0 -0.0
  outer loop
    vertex 148.67481010785355 1.762479051592436e-16 0.0
    vertex 148.67481010785355 -49.00000000000003 0.4999999999999999
    vertex 148.67481010785355 -49.00000000000003 0.0
  endloop
endfacet
facet normal 1.0 -0.0 -0.0
  outer loop
    vertex 148.67481010785355 -49.00000000000003 0.4999999999999999
    vertex 148.67481010785355 1.762479051592436e-16 0.0
    vertex 148.67481010785355 1.762479051592436e-16 0.4999999999999999
  endloop
endfacet
facet normal 0.0 -1.0 0.0
  outer loop
    vertex 168.67481010785355 -49.50000000000005 0.4999999999999999
    vertex 148.17481010785355 -49.50000000000005 0.0
    vertex 168.67481010785355 -49.50000000000005 0.0
  endloop
endfacet
facet normal 0.0 -1.0 0.0
  outer loop
    vertex 148.17481010785355 -49.50000000000005 0.0
    vertex 168.67481010785355 -49.50000000000005 0.4999999999999999
    vertex 148.17481010785355 -49.50000000000005 0.4999999999999999
  endloop
endfacet
facet normal 0.0 -1.0 0.0
  outer loop
    vertex 147.2990209675825 -49.50000000000005 0.4999999999999999
    vertex 126.79902096758256 -49.50000000000005 0.0
    vertex 147.2990209675825 -49.50000000000005 0.0
  endloop
endfacet
facet normal 0.0 -1.0 0.0
  outer loop
    vertex 126.79902096758256 -49.50000000000005 0.0
    vertex 147.2990209675825 -49.50000000000005 0.4999999999999999
    vertex 126.79902096758256 -49.50000000000005 0.4999999999999999
  endloop
endfacet
facet normal 1.0 -0.0 -0.0
  outer loop
    vertex 168.67481010785355 0.49999999999999906 0.0
    vertex 168.67481010785355 -49.50000000000005 0.4999999999999999
    vertex 168.67481010785355 -49.50000000000005 0.0
  endloop
endfacet
facet normal 1.0 -0.0 -0.0
  outer loop
    vertex 168.67481010785355 -49.50000000000005 0.4999999999999999
    vertex 168.67481010785355 0.49999999999999906 0.0
    vertex 168.67481010785355 0.49999999999999906 0.4999999999999999
  endloop
endfacet
facet normal -1.0 0.0 0.0
  outer loop
    vertex 148.17481010785355 0.49999999999999906 0.4999999999999999
    vertex 148.17481010785355 -49.50000000000005 0.0
    vertex 148.17481010785355 -49.50000000000005 0.4999999999999999
  endloop
endfacet
facet normal -1.0 0.0 0.0
  outer loop
    vertex 148.17481010785355 -49.50000000000005 0.0
    vertex 148.17481010785355 0.49999999999999906 0.4999999999999999
    vertex 148.17481010785355 0.49999999999999906 0.0
  endloop
endfacet
facet normal 0.0 0.0 -1.0
  outer loop
    vertex 126.79902096758256 0.49999999999999906 0.0
    vertex 127.29902096758259 1.762479051592436e-16 0.0
    vertex 126.79902096758256 -49.50000000000005 0.0
  endloop
endfacet
facet normal 0.0 0.0 -1.0
  outer loop
    vertex 127.29902096758259 1.762479051592436e-16 0.0
    vertex 126.79902096758256 0.49999999999999906 0.0
    vertex 147.2990209675825 0.49999999999999906 0.0
  endloop
endfacet
facet normal 0.0 0.0 -1.0
  outer loop
    vertex 127.29902096758259 1.762479051592436e-16 0.0
    vertex 147.2990209675825 0.49999999999999906 0.0
    vertex 146.7990209675825 1.762479051592436e-16 0.0
  endloop
endfacet
facet normal 0.0 0.0 -1.0
  outer loop
    vertex 146.7990209675825 1.762479051592436e-16 0.0
    vertex 147.2990209675825 0.49999999999999906 0.0
    vertex 146.7990209675825 -49.00000000000003 0.0
  endloop
endfacet
facet normal 0.0 0.0 -1.0
  outer loop
    vertex 126.79902096758256 -49.50000000000005 0.0
    vertex 127.29902096758259 -49.00000000000003 0.0
    vertex 147.2990209675825 -49.50000000000005 0.0
  endloop
endfacet
facet normal 0.0 0.0 -1.0
  outer loop
    vertex 127.29902096758259 -49.00000000000003 0.0
    vertex 126.79902096758256 -49.50000000000005 0.0
    vertex 127.29902096758259 1.762479051592436e-16 0.0
  endloop
endfacet
facet normal 0.0 0.0 -1.0
  outer loop
    vertex 147.2990209675825 -49.50000000000005 0.0
    vertex 127.29902096758259 -49.00000000000003 0.0
    vertex 146.7990209675825 -49.00000000000003 0.0
  endloop
endfacet
facet normal 0.0 0.0 -1.0
  outer loop
    vertex 147.2990209675825 -49.50000000000005 0.0
    vertex 146.7990209675825 -49.00000000000003 0.0
    vertex 147.2990209675825 0.49999999999999906 0.0
  endloop
endfacet
facet normal -0.0 1.0 -0.0
  outer loop
    vertex 148.67481010785355 -49.00000000000003 0.4999999999999999
    vertex 168.17481010785357 -49.00000000000003 0.0
    vertex 148.67481010785355 -49.00000000000003 0.0
  endloop
endfacet
facet normal -0.0 1.0 -0.0
  outer loop
    vertex 168.17481010785357 -49.00000000000003 0.0
    vertex 148.67481010785355 -49.00000000000003 0.4999999999999999
    vertex 168.17481010785357 -49.00000000000003 0.4999999999999999
  endloop
endfacet
facet normal 0.0 -1.0 0.0
  outer loop
    vertex 126.43081428056053 -49.500000000000014 0.4999999999999999
    vertex 105.93081428056054 -49.500000000000014 0.0
    vertex 126.43081428056053 -49.500000000000014 0.0
  endloop
endfacet
facet normal 0.0 -1.0 0.0
  outer loop
    vertex 105.93081428056054 -49.500000000000014 0.0
    vertex 126.43081428056053 -49.500000000000014 0.4999999999999999
    vertex 105.93081428056054 -49.500000000000014 0.4999999999999999
  endloop
endfacet
facet normal -0.0 1.0 -0.0
  outer loop
    vertex 127.29902096758259 -49.00000000000003 0.4999999999999999
    vertex 146.7990209675825 -49.00000000000003 0.0
    vertex 127.29902096758259 -49.00000000000003 0.0
  endloop
endfacet
facet normal -0.0 1.0 -0.0
  outer loop
    vertex 146.7990209675825 -49.00000000000003 0.0
    vertex 127.29902096758259 -49.00000000000003 0.4999999999999999
    vertex 146.7990209675825 -49.00000000000003 0.4999999999999999
  endloop
endfacet
facet normal 0.0 -1.0 0.0
  outer loop
    vertex 168.17481010785357 1.762479051592436e-16 0.4999999999999999
    vertex 148.67481010785355 1.762479051592436e-16 0.0
    vertex 168.17481010785357 1.762479051592436e-16 0.0
  endloop
endfacet
facet normal 0.0 -1.0 0.0
  outer loop
    vertex 148.67481010785355 1.762479051592436e-16 0.0
    vertex 168.17481010785357 1.762479051592436e-16 0.4999999999999999
    vertex 148.67481010785355 1.762479051592436e-16 0.4999999999999999
  endloop
endfacet
facet normal -1.0 0.0 0.0
  outer loop
    vertex 126.79902096758256 0.49999999999999906 0.4999999999999999
    vertex 126.79902096758256 -49.50000000000005 0.0
    vertex 126.79902096758256 -49.50000000000005 0.4999999999999999
  endloop
endfacet
facet normal -1.0 0.0 0.0
  outer loop
    vertex 126.79902096758256 -49.50000000000005 0.0
    vertex 126.79902096758256 0.49999999999999906 0.4999999999999999
    vertex 126.79902096758256 0.49999999999999906 0.0
  endloop
endfacet
facet normal 0.0 -1.0 0.0
  outer loop
    vertex 104.55502514028947 1.762479051592436e-16 0.4999999999999999
    vertex 85.0550251402896 1.762479051592436e-16 0.0
    vertex 104.55502514028947 1.762479051592436e-16 0.0
  endloop
endfacet
facet normal 0.0 -1.0 0.0
  outer loop
    vertex 85.0550251402896 1.762479051592436e-16 0.0
    vertex 104.55502514028947 1.762479051592436e-16 0.4999999999999999
    vertex 85.0550251402896 1.762479051592436e-16 0.4999999999999999
  endloop
endfacet
facet normal 1.0 -0.0 -0.0
  outer loop
    vertex 85.0550251402896 1.762479051592436e-16 0.0
    vertex 85.0550251402896 -49.00000000000001 0.4999999999999999
    vertex 85.0550251402896 -49.00000000000001 0.0
  endloop
endfacet
facet normal 1.0 -0.0 -0.0
  outer loop
    vertex 85.0550251402896 -49.00000000000001 0.4999999999999999
    vertex 85.0550251402896 1.762479051592436e-16 0.0
    vertex 85.0550251402896 1.762479051592436e-16 0.4999999999999999
  endloop
endfacet
facet normal 0.0 0.0 -1.0
  outer loop
    vertex 84.5550251402896 0.49999999999999906 0.0
    vertex 85.0550251402896 1.762479051592436e-16 0.0
    vertex 84.5550251402896 -49.500000000000014 0.0
  endloop
endfacet
facet normal 0.0 0.0 -1.0
  outer loop
    vertex 85.0550251402896 1.762479051592436e-16 0.0
    vertex 84.5550251402896 0.49999999999999906 0.0
    vertex 105.05502514028949 0.49999999999999906 0.0
  endloop
endfacet
facet normal 0.0 0.0 -1.0
  outer loop
    vertex 85.0550251402896 1.762479051592436e-16 0.0
    vertex 105.05502514028949 0.49999999999999906 0.0
    vertex 104.55502514028947 1.762479051592436e-16 0.0
  endloop
endfacet
facet normal 0.0 0.0 -1.0
  outer loop
    vertex 104.55502514028947 1.762479051592436e-16 0.0
    vertex 105.05502514028949 0.49999999999999906 0.0
    vertex 104.55502514028947 -49.00000000000001 0.0
  endloop
endfacet
facet normal 0.0 0.0 -1.0
  outer loop
    vertex 84.5550251402896 -49.500000000000014 0.0
    vertex 85.0550251402896 -49.00000000000001 0.0
    vertex 105.05502514028949 -49.500000000000014 0.0
  endloop
endfacet
facet normal 0.0 0.0 -1.0
  outer loop
    vertex 85.0550251402896 -49.00000000000001 0.0
    vertex 84.5550251402896 -49.500000000000014 0.0
    vertex 85.0550251402896 1.762479051592436e-16 0.0
  endloop
endfacet
facet normal 0.0 0.0 -1.0
  outer loop
    vertex 105.05502514028949 -49.500000000000014 0.0
    vertex 85.0550251402896 -49.00000000000001 0.0
    vertex 104.55502514028947 -49.00000000000001 0.0
  endloop
endfacet
facet normal 0.0 0.0 -1.0
  outer loop
    vertex 105.05502514028949 -49.500000000000014 0.0
    vertex 104.55502514028947 -49.00000000000001 0.0
    vertex 105.05502514028949 0.49999999999999906 0.0
  endloop
endfacet
facet normal -0.0 1.0 -0.0
  outer loop
    vertex 84.5550251402896 0.49999999999999906 0.4999999999999999
    vertex 105.05502514028949 0.49999999999999906 0.0
    vertex 84.5550251402896 0.49999999999999906 0.0
  endloop
endfacet
facet normal -0.0 1.0 -0.0
  outer loop
    vertex 105.05502514028949 0.49999999999999906 0.0
    vertex 84.5550251402896 0.49999999999999906 0.4999999999999999
    vertex 105.05502514028949 0.49999999999999906 0.4999999999999999
  endloop
endfacet
facet normal -1.0 0.0 0.0
  outer loop
    vertex 84.5550251402896 0.49999999999999906 0.4999999999999999
    vertex 84.5550251402896 -49.500000000000014 0.0
    vertex 84.5550251402896 -49.500000000000014 0.4999999999999999
  endloop
endfacet
facet normal -1.0 0.0 0.0
  outer loop
    vertex 84.5550251402896 -49.500000000000014 0.0
    vertex 84.5550251402896 0.49999999999999906 0.4999999999999999
    vertex 84.5550251402896 0.49999999999999906 0.0
  endloop
endfacet
facet normal -0.0 -0.0 1.0
  outer loop
    vertex 84.5550251402896 -49.500000000000014 0.4999999999999999
    vertex 85.0550251402896 -49.00000000000001 0.4999999999999999
    vertex 84.5550251402896 0.49999999999999906 0.4999999999999999
  endloop
endfacet
facet normal -0.0 -0.0 1.0
  outer loop
    vertex 85.0550251402896 -49.00000000000001 0.4999999999999999
    vertex 84.5550251402896 -49.500000000000014 0.4999999999999999
    vertex 105.05502514028949 -49.500000000000014 0.4999999999999999
  endloop
endfacet
facet normal -0.0 -0.0 1.0
  outer loop
    vertex 85.0550251402896 -49.00000000000001 0.4999999999999999
    vertex 105.05502514028949 -49.500000000000014 0.4999999999999999
    vertex 104.55502514028947 -49.00000000000001 0.4999999999999999
  endloop
endfacet
facet normal -0.0 -0.0 1.0
  outer loop
    vertex 104.55502514028947 -49.00000000000001 0.4999999999999999
    vertex 105.05502514028949 -49.500000000000014 0.4999999999999999
    vertex 104.55502514028947 1.762479051592436e-16 0.4999999999999999
  endloop
endfacet
facet normal -0.0 -0.0 1.0
  outer loop
    vertex 84.5550251402896 0.49999999999999906 0.4999999999999999
    vertex 85.0550251402896 1.762479051592436e-16 0.4999999999999999
    vertex 105.05502514028949 0.49999999999999906 0.4999999999999999
  endloop
endfacet
facet normal -0.0 -0.0 1.0
  outer loop
    vertex 85.0550251402896 1.762479051592436e-16 0.4999999999999999
    vertex 84.5550251402896 0.49999999999999906 0.4999999999999999
    vertex 85.0550251402896 -49.00000000000001 0.4999999999999999
  endloop
endfacet
facet normal -0.0 -0.0 1.0
  outer loop
    vertex 105.05502514028949 0.49999999999999906 0.4999999999999999
    vertex 85.0550251402896 1.762479051592436e-16 0.4999999999999999
    vertex 104.55502514028947 1.762479051592436e-16 0.4999999999999999
  endloop
endfacet
facet normal -0.0 -0.0 1.0
  outer loop
    vertex 105.05502514028949 0.49999999999999906 0.4999999999999999
    vertex 104.55502514028947 1.762479051592436e-16 0.4999999999999999
    vertex 105.05502514028949 -49.500000000000014 0.4999999999999999
  endloop
endfacet
facet normal -0.0 1.0 -0.0
  outer loop
    vertex 85.0550251402896 -49.00000000000001 0.4999999999999999
    vertex 104.55502514028947 -49.00000000000001 0.0
    vertex 85.0550251402896 -49.00000000000001 0.0
  endloop
endfacet
facet normal -0.0 1.0 -0.0
  outer loop
    vertex 104.55502514028947 -49.00000000000001 0.0
    vertex 85.0550251402896 -49.00000000000001 0.4999999999999999
    vertex 104.55502514028947 -49.00000000000001 0.4999999999999999
  endloop
endfacet
facet normal -1.0 0.0 0.0
  outer loop
    vertex 20.0 0.0 0.49999999999999994
    vertex 20.0 -49.0 0.0
    vertex 20.0 -49.0 0.49999999999999994
  endloop
endfacet
facet normal -1.0 0.0 0.0
  outer loop
    vertex 20.0 -49.0 0.0
    vertex 20.0 0.0 0.49999999999999994
    vertex 20.0 0.0 0.0
  endloop
endfacet
facet normal -0.0 -1.0 -0.0
  outer loop
    vertex 20.5 -49.5 0.49999999999999994
    vertex 0.0 -49.5 0.0
    vertex 20.5 -49.5 0.0
  endloop
endfacet
facet normal -0.0 -1.0 -0.0
  outer loop
    vertex 0.0 -49.5 0.0
    vertex 20.5 -49.5 0.49999999999999994
    vertex 0.0 -49.5 0.49999999999999994
  endloop
endfacet
facet normal 1.0 0.0 0.0
  outer loop
    vertex 20.5 0.49999999999999994 0.0
    vertex 20.5 -49.5 0.49999999999999994
    vertex 20.5 -49.5 0.0
  endloop
endfacet
facet normal 1.0 0.0 0.0
  outer loop
    vertex 20.5 -49.5 0.49999999999999994
    vertex 20.5 0.49999999999999994 0.0
    vertex 20.5 0.49999999999999994 0.49999999999999994
  endloop
endfacet
facet normal 0.0 0.0 -1.0
  outer loop
    vertex 0.0 0.49999999999999994 0.0
    vertex 0.49999999999999994 0.0 0.0
    vertex 0.0 -49.5 0.0
  endloop
endfacet
facet normal 0.0 0.0 -1.0
  outer loop
    vertex 0.49999999999999994 0.0 0.0
    vertex 0.0 0.49999999999999994 0.0
    vertex 20.5 0.49999999999999994 0.0
  endloop
endfacet
facet normal 0.0 0.0 -1.0
  outer loop
    vertex 0.49999999999999994 0.0 0.0
    vertex 20.5 0.49999999999999994 0.0
    vertex 20.0 0.0 0.0
  endloop
endfacet
facet normal 0.0 0.0 -1.0
  outer loop
    vertex 20.0 0.0 0.0
    vertex 20.5 0.49999999999999994 0.0
    vertex 20.0 -49.0 0.0
  endloop
endfacet
facet normal 0.0 0.0 -1.0
  outer loop
    vertex 0.0 -49.5 0.0
    vertex 0.49999999999999994 -49.0 0.0
    vertex 20.5 -49.5 0.0
  endloop
endfacet
facet normal 0.0 0.0 -1.0
  outer loop
    vertex 0.49999999999999994 -49.0 0.0
    vertex 0.0 -49.5 0.0
    vertex 0.49999999999999994 0.0 0.0
  endloop
endfacet
facet normal 0.0 0.0 -1.0
  outer loop
    vertex 20.5 -49.5 0.0
    vertex 0.49999999999999994 -49.0 0.0
    vertex 20.0 -49.0 0.0
  endloop
endfacet
facet normal 0.0 0.0 -1.0
  outer loop
    vertex 20.5 -49.5 0.0
    vertex 20.0 -49.0 0.0
    vertex 20.5 0.49999999999999994 0.0
  endloop
endfacet
facet normal -1.0 0.0 0.0
  outer loop
    vertex 0.0 0.49999999999999994 0.49999999999999994
    vertex 0.0 -49.5 0.0
    vertex 0.0 -49.5 0.49999999999999994
  endloop
endfacet
facet normal -1.0 0.0 0.0
  outer loop
    vertex 0.0 -49.5 0.0
    vertex 0.0 0.49999999999999994 0.49999999999999994
    vertex 0.0 0.49999999999999994 0.0
  endloop
endfacet
facet normal 1.0 0.0 0.0
  outer loop
    vertex 0.49999999999999994 0.0 0.0
    vertex 0.49999999999999994 -49.0 0.49999999999999994
    vertex 0.49999999999999994 -49.0 0.0
  endloop
endfacet
facet normal 1.0 0.0 0.0
  outer loop
    vertex 0.49999999999999994 -49.0 0.49999999999999994
    vertex 0.49999999999999994 0.0 0.0
    vertex 0.49999999999999994 0.0 0.49999999999999994
  endloop
endfacet
facet normal -0.0 1.0 0.0
  outer loop
    vertex 0.49999999999999994 -49.0 0.49999999999999994
    vertex 20.0 -49.0 0.0
    vertex 0.49999999999999994 -49.0 0.0
  endloop
endfacet
facet normal -0.0 1.0 0.0
  outer loop
    vertex 20.0 -49.0 0.0
    vertex 0.49999999999999994 -49.0 0.49999999999999994
    vertex 20.0 -49.0 0.49999999999999994
  endloop
endfacet
facet normal -0.0 -1.0 -0.0
  outer loop
    vertex 20.0 0.0 0.49999999999999994
    vertex 0.49999999999999994 0.0 0.0
    vertex 20.0 0.0 0.0
  endloop
endfacet
facet normal -0.0 -1.0 -0.0
  outer loop
    vertex 0.49999999999999994 0.0 0.0
    vertex 20.0 0.0 0.49999999999999994
    vertex 0.49999999999999994 0.0 0.49999999999999994
  endloop
endfacet
facet normal -0.0 1.0 0.0
  outer loop
    vertex 0.0 0.49999999999999994 0.49999999999999994
    vertex 20.5 0.49999999999999994 0.0
    vertex 0.0 0.49999999999999994 0.0
  endloop
endfacet
facet normal -0.0 1.0 0.0
  outer loop
    vertex 20.5 0.49999999999999994 0.0
    vertex 0.0 0.49999999999999994 0.49999999999999994
    vertex 20.5 0.49999999999999994 0.49999999999999994
  endloop
endfacet
facet normal -0.0 -0.0 1.0
  outer loop
    vertex 0.0 -49.5 0.49999999999999994
    vertex 0.49999999999999994 -49.0 0.49999999999999994
    vertex 0.0 0.49999999999999994 0.49999999999999994
  endloop
endfacet
facet normal -0.0 -0.0 1.0
  outer loop
    vertex 0.49999999999999994 -49.0 0.49999999999999994
    vertex 0.0 -49.5 0.49999999999999994
    vertex 20.5 -49.5 0.49999999999999994
  endloop
endfacet
facet normal -0.0 -0.0 1.0
  outer loop
    vertex 0.49999999999999994 -49.0 0.49999999999999994
    vertex 20.5 -49.5 0.49999999999999994
    vertex 20.0 -49.0 0.49999999999999994
  endloop
endfacet
facet normal -0.0 -0.0 1.0
  outer loop
    vertex 20.0 -49.0 0.49999999999999994
    vertex 20.5 -49.5 0.49999999999999994
    vertex 20.0 0.0 0.49999999999999994
  endloop
endfacet
facet normal -0.0 -0.0 1.0
  outer loop
    vertex 0.0 0.49999999999999994 0.49999999999999994
    vertex 0.49999999999999994 0.0 0.49999999999999994
    vertex 20.5 0.49999999999999994 0.49999999999999994
  endloop
endfacet
facet normal -0.0 -0.0 1.0
  outer loop
    vertex 0.49999999999999994 0.0 0.49999999999999994
    vertex 0.0 0.49999999999999994 0.49999999999999994
    vertex 0.49999999999999994 -49.0 0.49999999999999994
  endloop
endfacet
facet normal -0.0 -0.0 1.0
  outer loop
    vertex 20.5 0.49999999999999994 0.49999999999999994
    vertex 0.49999999999999994 0.0 0.49999999999999994
    vertex 20.0 0.0 0.49999999999999994
  endloop
endfacet
facet normal -0.0 -0.0 1.0
  outer loop
    vertex 20.5 0.49999999999999994 0.49999999999999994
    vertex 20.0 0.0 0.49999999999999994
    vertex 20.5 -49.5 0.49999999999999994
  endloop
endfacet
endsolid Untitled-55ebb0c2
