solid firewall
facet normal -5.5460995515031855e-15 -1.0 0.0
  outer loop
    vertex 16.95231504802763 24.18381844892715 0.49999999999999994
    vertex 16.443855642212675 24.183818448927152 0.0
    vertex 16.95231504802763 24.18381844892715 0.0
  endloop
endfacet
facet normal -5.5460995515031855e-15 -1.0 0.0
  outer loop
    vertex 16.443855642212675 24.183818448927152 0.0
    vertex 16.95231504802763 24.18381844892715 0.49999999999999994
    vertex 16.443855642212675 24.183818448927152 0.49999999999999994
  endloop
endfacet
facet normal 0.0 -1.0 0.0
  outer loop
    vertex -16.443855642212675 24.18381844892715 0.49999999999999994
    vertex -16.952315048027614 24.18381844892715 0.0
    vertex -16.443855642212675 24.18381844892715 0.0
  endloop
endfacet
facet normal 0.0 -1.0 0.0
  outer loop
    vertex -16.952315048027614 24.18381844892715 0.0
    vertex -16.443855642212675 24.18381844892715 0.49999999999999994
    vertex -16.952315048027614 24.18381844892715 0.49999999999999994
  endloop
endfacet
facet normal -0.983362672185421 0.18165311710055648 0.0
  outer loop
    vertex -15.464198948882453 32.239599968863686 0.49999999999999994
    vertex -16.952315048027614 24.18381844892715 0.0
    vertex -16.952315048027614 24.18381844892715 0.49999999999999994
  endloop
endfacet
facet normal -0.983362672185421 0.18165311710055648 0.0
  outer loop
    vertex -16.952315048027614 24.18381844892715 0.0
    vertex -15.464198948882453 32.239599968863686 0.49999999999999994
    vertex -15.464198948882453 32.239599968863686 0.0
  endloop
endfacet
facet normal -0.6091122460178017 0.7930840256562663 0.0
  outer loop
    vertex -13.351651837298622 34.41686362581247 0.49999999999999994
    vertex -11.036751448273366 36.19477634332039 0.0
    vertex -13.351651837298622 34.41686362581247 0.0
  endloop
endfacet
facet normal -0.6091122460178017 0.7930840256562663 0.0
  outer loop
    vertex -11.036751448273366 36.19477634332039 0.0
    vertex -13.351651837298622 34.41686362581247 0.49999999999999994
    vertex -11.036751448273366 36.19477634332039 0.49999999999999994
  endloop
endfacet
facet normal -0.7176926045189811 0.6963600544393407 0.0
  outer loop
    vertex -13.351651837298622 34.41686362581247 0.49999999999999994
    vertex -15.464198948882453 32.239599968863686 0.0
    vertex -15.464198948882453 32.239599968863686 0.49999999999999994
  endloop
endfacet
facet normal -0.7176926045189811 0.6963600544393407 0.0
  outer loop
    vertex -15.464198948882453 32.239599968863686 0.0
    vertex -13.351651837298622 34.41686362581247 0.49999999999999994
    vertex -13.351651837298622 34.41686362581247 0.0
  endloop
endfacet
facet normal 0.48765207454590975 0.8730380599899815 4.783945907968264e-16
  outer loop
    vertex 10.057780696288688 36.74159914521584 3.1724622928663847e-15
    vertex 11.036751448273428 36.19477634332035 0.49999999999999994
    vertex 11.036751448273428 36.19477634332035 0.0
  endloop
endfacet
facet normal 0.48765207454590975 0.8730380599899815 4.783945907968264e-16
  outer loop
    vertex 11.036751448273428 36.19477634332035 0.49999999999999994
    vertex 10.057780696288688 36.74159914521584 3.1724622928663847e-15
    vertex 10.51147042092495 36.48818208866555 0.5000000000000007
  endloop
endfacet
facet normal 0.48765207454590975 0.8730380599899815 4.783945907968264e-16
  outer loop
    vertex 10.51147042092495 36.48818208866555 0.5000000000000007
    vertex 10.057780696288688 36.74159914521584 3.1724622928663847e-15
    vertex 10.057780696288688 36.74159914521584 0.5000000000000019
  endloop
endfacet
facet normal 0.6091122460178007 0.7930840256562671 0.0
  outer loop
    vertex 11.036751448273428 36.19477634332035 0.49999999999999994
    vertex 13.351651837298611 34.41686362581248 0.0
    vertex 11.036751448273428 36.19477634332035 0.0
  endloop
endfacet
facet normal 0.6091122460178007 0.7930840256562671 0.0
  outer loop
    vertex 13.351651837298611 34.41686362581248 0.0
    vertex 11.036751448273428 36.19477634332035 0.49999999999999994
    vertex 13.351651837298611 34.41686362581248 0.49999999999999994
  endloop
endfacet
facet normal 0.9833626721854207 -0.18165311710055723 -0.0
  outer loop
    vertex -15.0 31.999999999999996 0.0
    vertex -16.443855642212675 24.18381844892715 0.49999999999999994
    vertex -16.443855642212675 24.18381844892715 0.0
  endloop
endfacet
facet normal 0.9833626721854207 -0.18165311710055723 -0.0
  outer loop
    vertex -16.443855642212675 24.18381844892715 0.49999999999999994
    vertex -15.0 31.999999999999996 0.0
    vertex -15.0 31.999999999999996 0.49999999999999994
  endloop
endfacet
facet normal 0.9833626721854207 0.18165311710055732 -0.0
  outer loop
    vertex 15.464198948882462 32.23959996886367 0.0
    vertex 16.95231504802763 24.18381844892715 0.49999999999999994
    vertex 16.95231504802763 24.18381844892715 0.0
  endloop
endfacet
facet normal 0.9833626721854207 0.18165311710055732 -0.0
  outer loop
    vertex 16.95231504802763 24.18381844892715 0.49999999999999994
    vertex 15.464198948882462 32.23959996886367 0.0
    vertex 15.464198948882462 32.23959996886367 0.49999999999999994
  endloop
endfacet
facet normal 0.7176926045189823 0.6963600544393395 0.0
  outer loop
    vertex 13.351651837298611 34.41686362581248 0.0
    vertex 15.464198948882462 32.23959996886367 0.49999999999999994
    vertex 15.464198948882462 32.23959996886367 0.0
  endloop
endfacet
facet normal 0.7176926045189823 0.6963600544393395 0.0
  outer loop
    vertex 15.464198948882462 32.23959996886367 0.49999999999999994
    vertex 13.351651837298611 34.41686362581248 0.0
    vertex 13.351651837298611 34.41686362581248 0.49999999999999994
  endloop
endfacet
facet normal 0.6091122460178013 -0.7930840256562665 0.0
  outer loop
    vertex -10.76110320739923 35.77603221262694 0.49999999999999994
    vertex -13.018187832154977 34.042523730849645 0.0
    vertex -10.76110320739923 35.77603221262694 0.0
  endloop
endfacet
facet normal 0.6091122460178013 -0.7930840256562665 0.0
  outer loop
    vertex -13.018187832154977 34.042523730849645 0.0
    vertex -10.76110320739923 35.77603221262694 0.49999999999999994
    vertex -13.018187832154977 34.042523730849645 0.49999999999999994
  endloop
endfacet
facet normal -0.6091122460177993 -0.7930840256562679 -0.0
  outer loop
    vertex 13.018187832154972 34.042523730849645 0.49999999999999994
    vertex 10.761103207399222 35.77603221262694 0.0
    vertex 13.018187832154972 34.042523730849645 0.0
  endloop
endfacet
facet normal -0.6091122460177993 -0.7930840256562679 -0.0
  outer loop
    vertex 10.761103207399222 35.77603221262694 0.0
    vertex 13.018187832154972 34.042523730849645 0.49999999999999994
    vertex 10.761103207399222 35.77603221262694 0.49999999999999994
  endloop
endfacet
facet normal -0.9833626721854207 -0.18165311710055773 0.0
  outer loop
    vertex 14.999999999999998 31.999999999999996 0.49999999999999994
    vertex 16.443855642212675 24.183818448927152 0.0
    vertex 16.443855642212675 24.183818448927152 0.49999999999999994
  endloop
endfacet
facet normal -0.9833626721854207 -0.18165311710055773 0.0
  outer loop
    vertex 16.443855642212675 24.183818448927152 0.0
    vertex 14.999999999999998 31.999999999999996 0.49999999999999994
    vertex 14.999999999999998 31.999999999999996 0.0
  endloop
endfacet
facet normal 0.7176926045189812 -0.6963600544393406 0.0
  outer loop
    vertex -13.018187832154977 34.042523730849645 0.0
    vertex -15.0 31.999999999999996 0.49999999999999994
    vertex -15.0 31.999999999999996 0.0
  endloop
endfacet
facet normal 0.7176926045189812 -0.6963600544393406 0.0
  outer loop
    vertex -15.0 31.999999999999996 0.49999999999999994
    vertex -13.018187832154977 34.042523730849645 0.0
    vertex -13.018187832154977 34.042523730849645 0.49999999999999994
  endloop
endfacet
facet normal -0.7176926045189816 -0.6963600544393401 -0.0
  outer loop
    vertex 13.018187832154972 34.042523730849645 0.49999999999999994
    vertex 14.999999999999998 31.999999999999996 0.0
    vertex 14.999999999999998 31.999999999999996 0.49999999999999994
  endloop
endfacet
facet normal -0.7176926045189816 -0.6963600544393401 -0.0
  outer loop
    vertex 14.999999999999998 31.999999999999996 0.0
    vertex 13.018187832154972 34.042523730849645 0.49999999999999994
    vertex 13.018187832154972 34.042523730849645 0.0
  endloop
endfacet
facet normal -0.7071067811865478 0.7071067811865474 2.0613197965353022e-29
  outer loop
    vertex 9.69032010602686 36.37413855495401 0.500000000000002
    vertex 4.999999999999999 31.68381844892715 -4.40619762898109e-16
    vertex 4.999999999999999 31.68381844892715 0.4999999999999995
  endloop
endfacet
facet normal -0.7071067811865478 0.7071067811865474 2.0613197965353022e-29
  outer loop
    vertex 4.999999999999999 31.68381844892715 -4.40619762898109e-16
    vertex 9.69032010602686 36.37413855495401 0.500000000000002
    vertex 9.69032010602686 36.37413855495401 2.026850909331301e-15
  endloop
endfacet
facet normal -0.4876520745458994 -0.8730380599899873 -3.030534901713285e-18
  outer loop
    vertex 10.761103207399222 35.77603221262694 0.49999999999999994
    vertex 10.52404336618446 35.908446512366886 5.077995728029728e-16
    vertex 10.761103207399222 35.77603221262694 0.0
  endloop
endfacet
facet normal -0.4876520745458994 -0.8730380599899873 -3.030534901713285e-18
  outer loop
    vertex 10.52404336618446 35.908446512366886 5.077995728029728e-16
    vertex 10.761103207399222 35.77603221262694 0.49999999999999994
    vertex 10.52404336618446 35.908446512366886 0.5000000000000004
  endloop
endfacet
facet normal -0.7071067811865477 -0.7071067811865474 -1.860549135922175e-29
  outer loop
    vertex -10.144009830663123 36.120721498403725 0.5000000000000011
    vertex -5.207106781186547 31.18381844892715 -8.81239525796218e-16
    vertex -5.207106781186547 31.18381844892715 0.49999999999999906
  endloop
endfacet
facet normal -0.7071067811865477 -0.7071067811865474 -1.860549135922175e-29
  outer loop
    vertex -5.207106781186547 31.18381844892715 -8.81239525796218e-16
    vertex -10.144009830663123 36.120721498403725 0.5000000000000011
    vertex -10.144009830663123 36.120721498403725 1.1456113835350834e-15
  endloop
endfacet
facet normal -0.4876520745459113 -0.8730380599899806 2.6414627875501047e-19
  outer loop
    vertex 10.52404336618446 35.908446512366886 0.5000000000000004
    vertex 10.144009830663123 36.12072149840372 1.321859288694327e-15
    vertex 10.52404336618446 35.908446512366886 5.077995728029728e-16
  endloop
endfacet
facet normal -0.4876520745459113 -0.8730380599899806 2.6414627875501047e-19
  outer loop
    vertex 10.144009830663123 36.12072149840372 1.321859288694327e-15
    vertex 10.52404336618446 35.908446512366886 0.5000000000000004
    vertex 10.144009830663123 36.12072149840372 0.5000000000000013
  endloop
endfacet
facet normal 0.7071067811865479 0.7071067811865472 2.576649745669122e-29
  outer loop
    vertex -9.690320106026864 36.374138554954015 1.674355099012814e-15
    vertex -4.999999999999999 31.68381844892715 0.4999999999999995
    vertex -4.999999999999999 31.68381844892715 -4.40619762898109e-16
  endloop
endfacet
facet normal 0.7071067811865479 0.7071067811865472 2.576649745669122e-29
  outer loop
    vertex -4.999999999999999 31.68381844892715 0.4999999999999995
    vertex -9.690320106026864 36.374138554954015 1.674355099012814e-15
    vertex -9.690320106026864 36.374138554954015 0.5000000000000017
  endloop
endfacet
facet normal -0.0 1.0 4.626712441679487e-16
  outer loop
    vertex -4.999999999999999 31.68381844892715 0.4999999999999995
    vertex 4.999999999999999 31.68381844892715 -4.40619762898109e-16
    vertex -4.999999999999999 31.68381844892715 -4.40619762898109e-16
  endloop
endfacet
facet normal -0.0 1.0 4.626712441679487e-16
  outer loop
    vertex 4.999999999999999 31.68381844892715 -4.40619762898109e-16
    vertex -4.999999999999999 31.68381844892715 0.4999999999999995
    vertex 4.999999999999999 31.68381844892715 0.4999999999999995
  endloop
endfacet
facet normal 0.7071067811865476 -0.7071067811865476 0.0
  outer loop
    vertex 10.144009830663123 36.12072149840372 1.321859288694327e-15
    vertex 5.20710678118655 31.18381844892715 0.49999999999999906
    vertex 5.20710678118655 31.18381844892715 -8.81239525796218e-16
  endloop
endfacet
facet normal 0.7071067811865476 -0.7071067811865476 0.0
  outer loop
    vertex 5.20710678118655 31.18381844892715 0.49999999999999906
    vertex 10.144009830663123 36.12072149840372 1.321859288694327e-15
    vertex 10.144009830663123 36.12072149840372 0.5000000000000013
  endloop
endfacet
facet normal -0.0 -1.0 -4.626712441679486e-16
  outer loop
    vertex 5.20710678118655 31.18381844892715 0.49999999999999906
    vertex -5.207106781186547 31.18381844892715 -8.81239525796218e-16
    vertex 5.20710678118655 31.18381844892715 -8.81239525796218e-16
  endloop
endfacet
facet normal -0.0 -1.0 -4.626712441679486e-16
  outer loop
    vertex -5.207106781186547 31.18381844892715 -8.81239525796218e-16
    vertex 5.20710678118655 31.18381844892715 0.49999999999999906
    vertex -5.207106781186547 31.18381844892715 0.49999999999999906
  endloop
endfacet
facet normal -2.309753056615661e-33 -8.812395257962197e-16 1.0
  outer loop
    vertex 5.20710678118655 31.18381844892715 0.49999999999999906
    vertex -4.999999999999999 31.68381844892715 0.4999999999999995
    vertex -5.207106781186547 31.18381844892715 0.49999999999999906
  endloop
endfacet
facet normal -2.309753056615661e-33 -8.812395257962197e-16 1.0
  outer loop
    vertex -4.999999999999999 31.68381844892715 0.4999999999999995
    vertex 5.20710678118655 31.18381844892715 0.49999999999999906
    vertex 4.999999999999999 31.68381844892715 0.4999999999999995
  endloop
endfacet
facet normal 0.7071067811865462 0.7071067811865489 2.7672132839599067e-30
  outer loop
    vertex -10.057780696288694 36.741599145215844 0.5000000000000013
    vertex -9.690320106026864 36.374138554954015 1.674355099012814e-15
    vertex -10.057780696288694 36.741599145215844 3.524958103184872e-16
  endloop
endfacet
facet normal 0.7071067811865462 0.7071067811865489 2.7672132839599067e-30
  outer loop
    vertex -9.690320106026864 36.374138554954015 1.674355099012814e-15
    vertex -10.057780696288694 36.741599145215844 0.5000000000000013
    vertex -9.690320106026864 36.374138554954015 0.5000000000000017
  endloop
endfacet
facet normal -0.4876520745459091 0.8730380599899819 -7.945786850570454e-18
  outer loop
    vertex -11.036751448273366 36.19477634332039 0.49999999999999994
    vertex -10.057780696288694 36.741599145215844 3.524958103184872e-16
    vertex -11.036751448273366 36.19477634332039 0.0
  endloop
endfacet
facet normal -0.4876520745459091 0.8730380599899819 -7.945786850570454e-18
  outer loop
    vertex -10.057780696288694 36.741599145215844 3.524958103184872e-16
    vertex -11.036751448273366 36.19477634332039 0.49999999999999994
    vertex -10.057780696288694 36.741599145215844 0.5000000000000013
  endloop
endfacet
facet normal -0.7071067811865476 0.7071067811865476 -0.0
  outer loop
    vertex 10.057780696288688 36.74159914521584 0.5000000000000019
    vertex 9.69032010602686 36.37413855495401 2.026850909331301e-15
    vertex 9.69032010602686 36.37413855495401 0.500000000000002
  endloop
endfacet
facet normal -0.7071067811865476 0.7071067811865476 -0.0
  outer loop
    vertex 9.69032010602686 36.37413855495401 2.026850909331301e-15
    vertex 10.057780696288688 36.74159914521584 0.5000000000000019
    vertex 10.057780696288688 36.74159914521584 3.1724622928663847e-15
  endloop
endfacet
facet normal 6.300323627140571e-17 -1.0767058511976663e-16 1.0
  outer loop
    vertex -16.443855642212675 24.18381844892715 0.49999999999999994
    vertex -15.464198948882453 32.239599968863686 0.49999999999999994
    vertex -16.952315048027614 24.18381844892715 0.49999999999999994
  endloop
endfacet
facet normal 6.300323627140571e-17 -1.0767058511976663e-16 1.0
  outer loop
    vertex -15.464198948882453 32.239599968863686 0.49999999999999994
    vertex -16.443855642212675 24.18381844892715 0.49999999999999994
    vertex -15.0 31.999999999999996 0.49999999999999994
  endloop
endfacet
facet normal 6.300323627140571e-17 -1.0767058511976663e-16 1.0
  outer loop
    vertex -15.464198948882453 32.239599968863686 0.49999999999999994
    vertex -15.0 31.999999999999996 0.49999999999999994
    vertex -13.351651837298622 34.41686362581247 0.49999999999999994
  endloop
endfacet
facet normal 6.300323627140571e-17 -1.0767058511976663e-16 1.0
  outer loop
    vertex -13.351651837298622 34.41686362581247 0.49999999999999994
    vertex -15.0 31.999999999999996 0.49999999999999994
    vertex -13.018187832154977 34.042523730849645 0.49999999999999994
  endloop
endfacet
facet normal 6.300323627140571e-17 -1.0767058511976663e-16 1.0
  outer loop
    vertex -13.351651837298622 34.41686362581247 0.49999999999999994
    vertex -13.018187832154977 34.042523730849645 0.49999999999999994
    vertex -11.036751448273366 36.19477634332039 0.49999999999999994
  endloop
endfacet
facet normal 6.300323627140571e-17 -1.0767058511976663e-16 1.0
  outer loop
    vertex -11.036751448273366 36.19477634332039 0.49999999999999994
    vertex -13.018187832154977 34.042523730849645 0.49999999999999994
    vertex -10.76110320739923 35.77603221262694 0.49999999999999994
  endloop
endfacet
facet normal 6.300323627140571e-17 -1.0767058511976663e-16 1.0
  outer loop
    vertex -11.036751448273366 36.19477634332039 0.49999999999999994
    vertex -10.76110320739923 35.77603221262694 0.49999999999999994
    vertex -10.057780696288694 36.741599145215844 0.5000000000000013
  endloop
endfacet
facet normal 6.300323627140571e-17 -1.0767058511976663e-16 1.0
  outer loop
    vertex -10.057780696288694 36.741599145215844 0.5000000000000013
    vertex -10.76110320739923 35.77603221262694 0.49999999999999994
    vertex -10.144009830663123 36.120721498403725 0.5000000000000011
  endloop
endfacet
facet normal 6.300323627140571e-17 -1.0767058511976663e-16 1.0
  outer loop
    vertex -10.057780696288694 36.741599145215844 0.5000000000000013
    vertex -10.144009830663123 36.120721498403725 0.5000000000000011
    vertex -5.207106781186547 31.18381844892715 0.49999999999999906
  endloop
endfacet
facet normal 6.300323627140571e-17 -1.0767058511976663e-16 1.0
  outer loop
    vertex -10.057780696288694 36.741599145215844 0.5000000000000013
    vertex -5.207106781186547 31.18381844892715 0.49999999999999906
    vertex -9.690320106026864 36.374138554954015 0.5000000000000017
  endloop
endfacet
facet normal 6.300323627140571e-17 -1.0767058511976663e-16 1.0
  outer loop
    vertex -9.690320106026864 36.374138554954015 0.5000000000000017
    vertex -5.207106781186547 31.18381844892715 0.49999999999999906
    vertex -4.999999999999999 31.68381844892715 0.4999999999999995
  endloop
endfacet
facet normal -6.191566226089397e-17 -1.2452456017995916e-16 1.0
  outer loop
    vertex 5.20710678118655 31.18381844892715 0.49999999999999906
    vertex 9.69032010602686 36.37413855495401 0.500000000000002
    vertex 4.999999999999999 31.68381844892715 0.4999999999999995
  endloop
endfacet
facet normal -6.191566226089397e-17 -1.2452456017995916e-16 1.0
  outer loop
    vertex 9.69032010602686 36.37413855495401 0.500000000000002
    vertex 5.20710678118655 31.18381844892715 0.49999999999999906
    vertex 10.144009830663123 36.12072149840372 0.5000000000000013
  endloop
endfacet
facet normal -6.191566226089397e-17 -1.2452456017995916e-16 1.0
  outer loop
    vertex 9.69032010602686 36.37413855495401 0.500000000000002
    vertex 10.144009830663123 36.12072149840372 0.5000000000000013
    vertex 10.057780696288688 36.74159914521584 0.5000000000000019
  endloop
endfacet
facet normal -6.191566226089397e-17 -1.2452456017995916e-16 1.0
  outer loop
    vertex 10.057780696288688 36.74159914521584 0.5000000000000019
    vertex 10.144009830663123 36.12072149840372 0.5000000000000013
    vertex 10.51147042092495 36.48818208866555 0.5000000000000007
  endloop
endfacet
facet normal -6.191566226089397e-17 -1.2452456017995916e-16 1.0
  outer loop
    vertex 10.51147042092495 36.48818208866555 0.5000000000000007
    vertex 10.144009830663123 36.12072149840372 0.5000000000000013
    vertex 10.52404336618446 35.908446512366886 0.5000000000000004
  endloop
endfacet
facet normal -6.191566226089397e-17 -1.2452456017995916e-16 1.0
  outer loop
    vertex 10.51147042092495 36.48818208866555 0.5000000000000007
    vertex 10.52404336618446 35.908446512366886 0.5000000000000004
    vertex 11.036751448273428 36.19477634332035 0.49999999999999994
  endloop
endfacet
facet normal -6.191566226089397e-17 -1.2452456017995916e-16 1.0
  outer loop
    vertex 11.036751448273428 36.19477634332035 0.49999999999999994
    vertex 10.52404336618446 35.908446512366886 0.5000000000000004
    vertex 10.761103207399222 35.77603221262694 0.49999999999999994
  endloop
endfacet
facet normal -6.191566226089397e-17 -1.2452456017995916e-16 1.0
  outer loop
    vertex 11.036751448273428 36.19477634332035 0.49999999999999994
    vertex 10.761103207399222 35.77603221262694 0.49999999999999994
    vertex 13.018187832154972 34.042523730849645 0.49999999999999994
  endloop
endfacet
facet normal -6.191566226089397e-17 -1.2452456017995916e-16 1.0
  outer loop
    vertex 11.036751448273428 36.19477634332035 0.49999999999999994
    vertex 13.018187832154972 34.042523730849645 0.49999999999999994
    vertex 13.351651837298611 34.41686362581248 0.49999999999999994
  endloop
endfacet
facet normal -6.191566226089397e-17 -1.2452456017995916e-16 1.0
  outer loop
    vertex 13.351651837298611 34.41686362581248 0.49999999999999994
    vertex 13.018187832154972 34.042523730849645 0.49999999999999994
    vertex 14.999999999999998 31.999999999999996 0.49999999999999994
  endloop
endfacet
facet normal -6.191566226089397e-17 -1.2452456017995916e-16 1.0
  outer loop
    vertex 13.351651837298611 34.41686362581248 0.49999999999999994
    vertex 14.999999999999998 31.999999999999996 0.49999999999999994
    vertex 15.464198948882462 32.23959996886367 0.49999999999999994
  endloop
endfacet
facet normal -6.191566226089397e-17 -1.2452456017995916e-16 1.0
  outer loop
    vertex 15.464198948882462 32.23959996886367 0.49999999999999994
    vertex 14.999999999999998 31.999999999999996 0.49999999999999994
    vertex 16.443855642212675 24.183818448927152 0.49999999999999994
  endloop
endfacet
facet normal -6.191566226089397e-17 -1.2452456017995916e-16 1.0
  outer loop
    vertex 15.464198948882462 32.23959996886367 0.49999999999999994
    vertex 16.443855642212675 24.183818448927152 0.49999999999999994
    vertex 16.95231504802763 24.18381844892715 0.49999999999999994
  endloop
endfacet
facet normal 8.210286201664859e-18 9.07574409888674e-17 -1.0
  outer loop
    vertex -15.464198948882453 32.239599968863686 0.0
    vertex -16.443855642212675 24.18381844892715 0.0
    vertex -16.952315048027614 24.18381844892715 0.0
  endloop
endfacet
facet normal 8.210286201664859e-18 9.07574409888674e-17 -1.0
  outer loop
    vertex -16.443855642212675 24.18381844892715 0.0
    vertex -15.464198948882453 32.239599968863686 0.0
    vertex -15.0 31.999999999999996 0.0
  endloop
endfacet
facet normal 8.210286201664859e-18 9.07574409888674e-17 -1.0
  outer loop
    vertex -15.0 31.999999999999996 0.0
    vertex -15.464198948882453 32.239599968863686 0.0
    vertex -13.351651837298622 34.41686362581247 0.0
  endloop
endfacet
facet normal 8.210286201664859e-18 9.07574409888674e-17 -1.0
  outer loop
    vertex -15.0 31.999999999999996 0.0
    vertex -13.351651837298622 34.41686362581247 0.0
    vertex -13.018187832154977 34.042523730849645 0.0
  endloop
endfacet
facet normal 8.210286201664859e-18 9.07574409888674e-17 -1.0
  outer loop
    vertex -13.018187832154977 34.042523730849645 0.0
    vertex -13.351651837298622 34.41686362581247 0.0
    vertex -11.036751448273366 36.19477634332039 0.0
  endloop
endfacet
facet normal 8.210286201664859e-18 9.07574409888674e-17 -1.0
  outer loop
    vertex -13.018187832154977 34.042523730849645 0.0
    vertex -11.036751448273366 36.19477634332039 0.0
    vertex -10.76110320739923 35.77603221262694 0.0
  endloop
endfacet
facet normal 8.210286201664859e-18 9.07574409888674e-17 -1.0
  outer loop
    vertex -10.76110320739923 35.77603221262694 0.0
    vertex -11.036751448273366 36.19477634332039 0.0
    vertex -10.057780696288694 36.741599145215844 3.524958103184872e-16
  endloop
endfacet
facet normal 8.210286201664859e-18 9.07574409888674e-17 -1.0
  outer loop
    vertex -10.76110320739923 35.77603221262694 0.0
    vertex -10.057780696288694 36.741599145215844 3.524958103184872e-16
    vertex -10.144009830663123 36.120721498403725 1.1456113835350834e-15
  endloop
endfacet
facet normal 8.210286201664859e-18 9.07574409888674e-17 -1.0
  outer loop
    vertex -10.144009830663123 36.120721498403725 1.1456113835350834e-15
    vertex -10.057780696288694 36.741599145215844 3.524958103184872e-16
    vertex -5.207106781186547 31.18381844892715 -8.81239525796218e-16
  endloop
endfacet
facet normal 8.210286201664859e-18 9.07574409888674e-17 -1.0
  outer loop
    vertex -5.207106781186547 31.18381844892715 -8.81239525796218e-16
    vertex -10.057780696288694 36.741599145215844 3.524958103184872e-16
    vertex -9.690320106026864 36.374138554954015 1.674355099012814e-15
  endloop
endfacet
facet normal 8.210286201664859e-18 9.07574409888674e-17 -1.0
  outer loop
    vertex -5.207106781186547 31.18381844892715 -8.81239525796218e-16
    vertex -9.690320106026864 36.374138554954015 1.674355099012814e-15
    vertex -4.999999999999999 31.68381844892715 -4.40619762898109e-16
  endloop
endfacet
facet normal 8.210286201664859e-18 9.07574409888674e-17 -1.0
  outer loop
    vertex -5.207106781186547 31.18381844892715 -8.81239525796218e-16
    vertex -4.999999999999999 31.68381844892715 -4.40619762898109e-16
    vertex 5.20710678118655 31.18381844892715 -8.81239525796218e-16
  endloop
endfacet
facet normal 8.210286201664859e-18 9.07574409888674e-17 -1.0
  outer loop
    vertex 5.20710678118655 31.18381844892715 -8.81239525796218e-16
    vertex -4.999999999999999 31.68381844892715 -4.40619762898109e-16
    vertex 4.999999999999999 31.68381844892715 -4.40619762898109e-16
  endloop
endfacet
facet normal 8.210286201664859e-18 9.07574409888674e-17 -1.0
  outer loop
    vertex 5.20710678118655 31.18381844892715 -8.81239525796218e-16
    vertex 4.999999999999999 31.68381844892715 -4.40619762898109e-16
    vertex 9.69032010602686 36.37413855495401 2.026850909331301e-15
  endloop
endfacet
facet normal 8.210286201664859e-18 9.07574409888674e-17 -1.0
  outer loop
    vertex 5.20710678118655 31.18381844892715 -8.81239525796218e-16
    vertex 9.69032010602686 36.37413855495401 2.026850909331301e-15
    vertex 10.144009830663123 36.12072149840372 1.321859288694327e-15
  endloop
endfacet
facet normal 8.210286201664859e-18 9.07574409888674e-17 -1.0
  outer loop
    vertex 10.144009830663123 36.12072149840372 1.321859288694327e-15
    vertex 9.69032010602686 36.37413855495401 2.026850909331301e-15
    vertex 10.057780696288688 36.74159914521584 3.1724622928663847e-15
  endloop
endfacet
facet normal 8.210286201664859e-18 9.07574409888674e-17 -1.0
  outer loop
    vertex 10.144009830663123 36.12072149840372 1.321859288694327e-15
    vertex 10.057780696288688 36.74159914521584 3.1724622928663847e-15
    vertex 11.036751448273428 36.19477634332035 0.0
  endloop
endfacet
facet normal 8.210286201664859e-18 9.07574409888674e-17 -1.0
  outer loop
    vertex 10.144009830663123 36.12072149840372 1.321859288694327e-15
    vertex 11.036751448273428 36.19477634332035 0.0
    vertex 10.52404336618446 35.908446512366886 5.077995728029728e-16
  endloop
endfacet
facet normal 8.210286201664859e-18 9.07574409888674e-17 -1.0
  outer loop
    vertex 10.52404336618446 35.908446512366886 5.077995728029728e-16
    vertex 11.036751448273428 36.19477634332035 0.0
    vertex 10.761103207399222 35.77603221262694 0.0
  endloop
endfacet
facet normal 8.210286201664859e-18 9.07574409888674e-17 -1.0
  outer loop
    vertex 10.761103207399222 35.77603221262694 0.0
    vertex 11.036751448273428 36.19477634332035 0.0
    vertex 13.018187832154972 34.042523730849645 0.0
  endloop
endfacet
facet normal 8.210286201664859e-18 9.07574409888674e-17 -1.0
  outer loop
    vertex 13.018187832154972 34.042523730849645 0.0
    vertex 11.036751448273428 36.19477634332035 0.0
    vertex 13.351651837298611 34.41686362581248 0.0
  endloop
endfacet
facet normal 8.210286201664859e-18 9.07574409888674e-17 -1.0
  outer loop
    vertex 13.018187832154972 34.042523730849645 0.0
    vertex 13.351651837298611 34.41686362581248 0.0
    vertex 14.999999999999998 31.999999999999996 0.0
  endloop
endfacet
facet normal 8.210286201664859e-18 9.07574409888674e-17 -1.0
  outer loop
    vertex 14.999999999999998 31.999999999999996 0.0
    vertex 13.351651837298611 34.41686362581248 0.0
    vertex 15.464198948882462 32.23959996886367 0.0
  endloop
endfacet
facet normal 8.210286201664859e-18 9.07574409888674e-17 -1.0
  outer loop
    vertex 14.999999999999998 31.999999999999996 0.0
    vertex 15.464198948882462 32.23959996886367 0.0
    vertex 16.443855642212675 24.183818448927152 0.0
  endloop
endfacet
facet normal 8.210286201664859e-18 9.07574409888674e-17 -1.0
  outer loop
    vertex 16.443855642212675 24.183818448927152 0.0
    vertex 15.464198948882462 32.23959996886367 0.0
    vertex 16.95231504802763 24.18381844892715 0.0
  endloop
endfacet
facet normal -8.574529428818449e-17 1.0 -0.0
  outer loop
    vertex -16.443855642212675 24.18381844892715 0.49999999999999994
    vertex 16.443855642212675 24.183818448927152 0.0
    vertex -16.443855642212675 24.18381844892715 0.0
  endloop
endfacet
facet normal -8.574529428818449e-17 1.0 -0.0
  outer loop
    vertex 16.443855642212675 24.183818448927152 0.0
    vertex -16.443855642212675 24.18381844892715 0.49999999999999994
    vertex 16.443855642212675 24.183818448927152 0.49999999999999994
  endloop
endfacet
facet normal -5.5460995515031855e-15 -1.0 0.0
  outer loop
    vertex 16.95231504802763 23.683818448927152 0.49999999999999994
    vertex 16.443855642212675 23.683818448927152 0.0
    vertex 16.95231504802763 23.683818448927152 0.0
  endloop
endfacet
facet normal -5.5460995515031855e-15 -1.0 0.0
  outer loop
    vertex 16.443855642212675 23.683818448927152 0.0
    vertex 16.95231504802763 23.683818448927152 0.49999999999999994
    vertex 16.443855642212675 23.683818448927152 0.49999999999999994
  endloop
endfacet
facet normal 0.0 -1.0 0.0
  outer loop
    vertex -16.443855642212675 23.683818448927152 0.49999999999999994
    vertex -16.952315048027614 23.683818448927152 8.81239525796218e-17
    vertex -16.443855642212675 23.683818448927152 0.0
  endloop
endfacet
facet normal 0.0 -1.0 0.0
  outer loop
    vertex -16.952315048027614 23.683818448927152 8.81239525796218e-17
    vertex -16.443855642212675 23.683818448927152 0.49999999999999994
    vertex -16.952315048027614 23.683818448927152 0.49999999999999994
  endloop
endfacet
facet normal -0.0 -0.0 1.0
  outer loop
    vertex 16.95231504802763 23.683818448927152 0.49999999999999994
    vertex 16.443855642212675 24.183818448927152 0.49999999999999994
    vertex 16.443855642212675 23.683818448927152 0.49999999999999994
  endloop
endfacet
facet normal -0.0 -0.0 1.0
  outer loop
    vertex 16.443855642212675 24.183818448927152 0.49999999999999994
    vertex 16.95231504802763 23.683818448927152 0.49999999999999994
    vertex 16.95231504802763 24.18381844892715 0.49999999999999994
  endloop
endfacet
facet normal 1.0 -0.0 -0.0
  outer loop
    vertex 16.95231504802763 24.18381844892715 0.0
    vertex 16.95231504802763 23.683818448927152 0.49999999999999994
    vertex 16.95231504802763 23.683818448927152 0.0
  endloop
endfacet
facet normal 1.0 -0.0 -0.0
  outer loop
    vertex 16.95231504802763 23.683818448927152 0.49999999999999994
    vertex 16.95231504802763 24.18381844892715 0.0
    vertex 16.95231504802763 24.18381844892715 0.49999999999999994
  endloop
endfacet
facet normal 1.1007150194218368e-16 -1.0 -1.6493696313536984e-15
  outer loop
    vertex 16.443855642212675 23.683818448927152 0.49999999999999994
    vertex 15.952315048027629 23.683818448927155 0.0
    vertex 16.443855642212675 23.683818448927152 0.0
  endloop
endfacet
facet normal 1.1007150194218368e-16 -1.0 -1.6493696313536984e-15
  outer loop
    vertex 15.952315048027629 23.683818448927155 0.0
    vertex 16.443855642212675 23.683818448927152 0.49999999999999994
    vertex -16.443855642212675 23.683818448927152 0.0
  endloop
endfacet
facet normal 1.1007150194218368e-16 -1.0 -1.6493696313536984e-15
  outer loop
    vertex -16.443855642212675 23.683818448927152 0.0
    vertex 16.443855642212675 23.683818448927152 0.49999999999999994
    vertex -16.443855642212675 23.683818448927152 0.49999999999999994
  endloop
endfacet
facet normal 0.0 0.0 1.0
  outer loop
    vertex 16.443855642212675 23.683818448927152 0.49999999999999994
    vertex -16.443855642212675 24.18381844892715 0.49999999999999994
    vertex -16.443855642212675 23.683818448927152 0.49999999999999994
  endloop
endfacet
facet normal 0.0 0.0 1.0
  outer loop
    vertex -16.443855642212675 24.18381844892715 0.49999999999999994
    vertex 16.443855642212675 23.683818448927152 0.49999999999999994
    vertex 16.443855642212675 24.183818448927152 0.49999999999999994
  endloop
endfacet
facet normal 0.0 0.0 -1.0
  outer loop
    vertex 16.443855642212675 24.183818448927152 0.0
    vertex -16.443855642212675 23.683818448927152 0.0
    vertex -16.443855642212675 24.18381844892715 0.0
  endloop
endfacet
facet normal 0.0 0.0 -1.0
  outer loop
    vertex -16.443855642212675 23.683818448927152 0.0
    vertex 16.443855642212675 24.183818448927152 0.0
    vertex 15.952315048027629 23.683818448927155 0.0
  endloop
endfacet
facet normal 0.0 0.0 -1.0
  outer loop
    vertex 15.952315048027629 23.683818448927155 0.0
    vertex 16.443855642212675 24.183818448927152 0.0
    vertex 16.443855642212675 23.683818448927152 0.0
  endloop
endfacet
facet normal -8.665780549223968e-17 -8.812395257962196e-17 -1.0
  outer loop
    vertex -16.443855642212675 24.18381844892715 0.0
    vertex -16.952315048027614 23.683818448927152 8.81239525796218e-17
    vertex -16.952315048027614 24.18381844892715 0.0
  endloop
endfacet
facet normal -8.665780549223968e-17 -8.812395257962196e-17 -1.0
  outer loop
    vertex -16.952315048027614 23.683818448927152 8.81239525796218e-17
    vertex -16.443855642212675 24.18381844892715 0.0
    vertex -16.443855642212675 23.683818448927152 0.0
  endloop
endfacet
facet normal -1.0 0.0 0.0
  outer loop
    vertex -16.952315048027614 24.18381844892715 0.49999999999999994
    vertex -16.952315048027614 23.683818448927152 8.81239525796218e-17
    vertex -16.952315048027614 23.683818448927152 0.49999999999999994
  endloop
endfacet
facet normal -1.0 0.0 0.0
  outer loop
    vertex -16.952315048027614 23.683818448927152 8.81239525796218e-17
    vertex -16.952315048027614 24.18381844892715 0.49999999999999994
    vertex -16.952315048027614 24.18381844892715 0.0
  endloop
endfacet
facet normal 0.0 0.0 -1.0
  outer loop
    vertex 16.95231504802763 24.18381844892715 0.0
    vertex 16.443855642212675 23.683818448927152 0.0
    vertex 16.443855642212675 24.183818448927152 0.0
  endloop
endfacet
facet normal 0.0 0.0 -1.0
  outer loop
    vertex 16.443855642212675 23.683818448927152 0.0
    vertex 16.95231504802763 24.18381844892715 0.0
    vertex 16.95231504802763 23.683818448927152 0.0
  endloop
endfacet
facet normal -1.0 -8.57452942881845e-17 -0.0
  outer loop
    vertex -16.443855642212675 24.18381844892715 0.49999999999999994
    vertex -16.443855642212675 23.683818448927152 0.0
    vertex -16.443855642212675 23.683818448927152 0.49999999999999994
  endloop
endfacet
facet normal -1.0 -8.57452942881845e-17 -0.0
  outer loop
    vertex -16.443855642212675 23.683818448927152 0.0
    vertex -16.443855642212675 24.18381844892715 0.49999999999999994
    vertex -16.443855642212675 24.18381844892715 0.0
  endloop
endfacet
facet normal 1.0 -0.0 -0.0
  outer loop
    vertex 16.443855642212675 24.183818448927152 0.0
    vertex 16.443855642212675 23.683818448927152 0.49999999999999994
    vertex 16.443855642212675 23.683818448927152 0.0
  endloop
endfacet
facet normal 1.0 -0.0 -0.0
  outer loop
    vertex 16.443855642212675 23.683818448927152 0.49999999999999994
    vertex 16.443855642212675 24.183818448927152 0.0
    vertex 16.443855642212675 24.183818448927152 0.49999999999999994
  endloop
endfacet
facet normal -0.0 -0.0 1.0
  outer loop
    vertex -16.443855642212675 23.683818448927152 0.49999999999999994
    vertex -16.952315048027614 24.18381844892715 0.49999999999999994
    vertex -16.952315048027614 23.683818448927152 0.49999999999999994
  endloop
endfacet
facet normal -0.0 -0.0 1.0
  outer loop
    vertex -16.952315048027614 24.18381844892715 0.49999999999999994
    vertex -16.443855642212675 23.683818448927152 0.49999999999999994
    vertex -16.443855642212675 24.18381844892715 0.49999999999999994
  endloop
endfacet
endsolid firewall
