solid firewall
facet normal -0.0 -0.0 1.0
  outer loop
    vertex -16.443855642212675 24.18381844892715 0.49999999999999994
    vertex -15.464198948882453 32.239599968863686 0.49999999999999994
    vertex -16.952315048027614 24.18381844892715 0.49999999999999994
  endloop
endfacet
facet normal -0.0 -0.0 1.0
  outer loop
    vertex -15.464198948882453 32.239599968863686 0.49999999999999994
    vertex -16.443855642212675 24.18381844892715 0.49999999999999994
    vertex -15.0 31.999999999999996 0.49999999999999994
  endloop
endfacet
facet normal -0.0 -0.0 1.0
  outer loop
    vertex -15.464198948882453 32.239599968863686 0.49999999999999994
    vertex -15.0 31.999999999999996 0.49999999999999994
    vertex -13.351651837298622 34.41686362581247 0.49999999999999994
  endloop
endfacet
facet normal -0.0 -0.0 1.0
  outer loop
    vertex -13.351651837298622 34.41686362581247 0.49999999999999994
    vertex -15.0 31.999999999999996 0.49999999999999994
    vertex -13.018187832154977 34.042523730849645 0.49999999999999994
  endloop
endfacet
facet normal -0.0 -0.0 1.0
  outer loop
    vertex -13.351651837298622 34.41686362581247 0.49999999999999994
    vertex -13.018187832154977 34.042523730849645 0.49999999999999994
    vertex -11.036751448273366 36.19477634332039 0.49999999999999994
  endloop
endfacet
facet normal -0.0 -0.0 1.0
  outer loop
    vertex -11.036751448273366 36.19477634332039 0.49999999999999994
    vertex -13.018187832154977 34.042523730849645 0.49999999999999994
    vertex -10.76110320739923 35.77603221262694 0.49999999999999994
  endloop
endfacet
facet normal -0.0 -0.0 1.0
  outer loop
    vertex -11.036751448273366 36.19477634332039 0.49999999999999994
    vertex -10.76110320739923 35.77603221262694 0.49999999999999994
    vertex -8.48847651229518 37.618163954918174 0.49999999999999994
  endloop
endfacet
facet normal -0.0 -0.0 1.0
  outer loop
    vertex -8.48847651229518 37.618163954918174 0.49999999999999994
    vertex -10.76110320739923 35.77603221262694 0.49999999999999994
    vertex -8.276472678623433 37.16387002562162 0.49999999999999994
  endloop
endfacet
facet normal -0.0 -0.0 1.0
  outer loop
    vertex -8.48847651229518 37.618163954918174 0.49999999999999994
    vertex -8.276472678623433 37.16387002562162 0.49999999999999994
    vertex -5.760710865697709 38.65692861518903 0.49999999999999994
  endloop
endfacet
facet normal -0.0 -0.0 1.0
  outer loop
    vertex -5.760710865697709 38.65692861518903 0.49999999999999994
    vertex -8.276472678623433 37.16387002562162 0.49999999999999994
    vertex -5.6168343071145825 38.17669103275978 0.49999999999999994
  endloop
endfacet
facet normal -0.0 -0.0 1.0
  outer loop
    vertex -5.760710865697709 38.65692861518903 0.49999999999999994
    vertex -5.6168343071145825 38.17669103275978 0.49999999999999994
    vertex -2.9111337155330888 39.28910541596973 0.49999999999999994
  endloop
endfacet
facet normal -0.0 -0.0 1.0
  outer loop
    vertex -2.9111337155330888 39.28910541596973 0.49999999999999994
    vertex -5.6168343071145825 38.17669103275978 0.49999999999999994
    vertex -2.838426733646545 38.79307891015358 0.49999999999999994
  endloop
endfacet
facet normal -0.0 -0.0 1.0
  outer loop
    vertex -2.9111337155330888 39.28910541596973 0.49999999999999994
    vertex -2.838426733646545 38.79307891015358 0.49999999999999994
    vertex 2.3038905852534874e-14 39.501326839185 0.49999999999999994
  endloop
endfacet
facet normal -0.0 -0.0 1.0
  outer loop
    vertex 2.3038905852534874e-14 39.501326839185 0.49999999999999994
    vertex -2.838426733646545 38.79307891015358 0.49999999999999994
    vertex -7.049916206369744e-15 38.99999999999999 0.49999999999999994
  endloop
endfacet
facet normal -0.0 -0.0 1.0
  outer loop
    vertex 2.3038905852534874e-14 39.501326839185 0.49999999999999994
    vertex -7.049916206369744e-15 38.99999999999999 0.49999999999999994
    vertex 2.8384267336465347 38.79307891015358 0.49999999999999994
  endloop
endfacet
facet normal -0.0 -0.0 1.0
  outer loop
    vertex 2.3038905852534874e-14 39.501326839185 0.49999999999999994
    vertex 2.8384267336465347 38.79307891015358 0.49999999999999994
    vertex 2.9111337155331016 39.28910541596972 0.49999999999999994
  endloop
endfacet
facet normal -0.0 -0.0 1.0
  outer loop
    vertex 2.9111337155331016 39.28910541596972 0.49999999999999994
    vertex 2.8384267336465347 38.79307891015358 0.49999999999999994
    vertex 5.616834307114569 38.17669103275978 0.49999999999999994
  endloop
endfacet
facet normal -0.0 -0.0 1.0
  outer loop
    vertex 2.9111337155331016 39.28910541596972 0.49999999999999994
    vertex 5.616834307114569 38.17669103275978 0.49999999999999994
    vertex 5.7607108656976544 38.65692861518904 0.49999999999999994
  endloop
endfacet
facet normal -0.0 -0.0 1.0
  outer loop
    vertex 5.7607108656976544 38.65692861518904 0.49999999999999994
    vertex 5.616834307114569 38.17669103275978 0.49999999999999994
    vertex 8.276472678623422 37.16387002562162 0.49999999999999994
  endloop
endfacet
facet normal -0.0 -0.0 1.0
  outer loop
    vertex 5.7607108656976544 38.65692861518904 0.49999999999999994
    vertex 8.276472678623422 37.16387002562162 0.49999999999999994
    vertex 8.488476512295133 37.61816395491819 0.49999999999999994
  endloop
endfacet
facet normal -0.0 -0.0 1.0
  outer loop
    vertex 8.488476512295133 37.61816395491819 0.49999999999999994
    vertex 8.276472678623422 37.16387002562162 0.49999999999999994
    vertex 10.761103207399222 35.77603221262694 0.49999999999999994
  endloop
endfacet
facet normal -0.0 -0.0 1.0
  outer loop
    vertex 8.488476512295133 37.61816395491819 0.49999999999999994
    vertex 10.761103207399222 35.77603221262694 0.49999999999999994
    vertex 11.036751448273428 36.19477634332035 0.49999999999999994
  endloop
endfacet
facet normal -0.0 -0.0 1.0
  outer loop
    vertex 11.036751448273428 36.19477634332035 0.49999999999999994
    vertex 10.761103207399222 35.77603221262694 0.49999999999999994
    vertex 13.018187832154972 34.042523730849645 0.49999999999999994
  endloop
endfacet
facet normal -0.0 -0.0 1.0
  outer loop
    vertex 11.036751448273428 36.19477634332035 0.49999999999999994
    vertex 13.018187832154972 34.042523730849645 0.49999999999999994
    vertex 13.351651837298611 34.41686362581248 0.49999999999999994
  endloop
endfacet
facet normal -0.0 -0.0 1.0
  outer loop
    vertex 13.351651837298611 34.41686362581248 0.49999999999999994
    vertex 13.018187832154972 34.042523730849645 0.49999999999999994
    vertex 14.999999999999998 31.999999999999996 0.49999999999999994
  endloop
endfacet
facet normal -0.0 -0.0 1.0
  outer loop
    vertex 13.351651837298611 34.41686362581248 0.49999999999999994
    vertex 14.999999999999998 31.999999999999996 0.49999999999999994
    vertex 15.464198948882462 32.23959996886367 0.49999999999999994
  endloop
endfacet
facet normal -0.0 -0.0 1.0
  outer loop
    vertex 15.464198948882462 32.23959996886367 0.49999999999999994
    vertex 14.999999999999998 31.999999999999996 0.49999999999999994
    vertex 16.443855642212675 24.183818448927152 0.49999999999999994
  endloop
endfacet
facet normal -0.0 -0.0 1.0
  outer loop
    vertex 15.464198948882462 32.23959996886367 0.49999999999999994
    vertex 16.443855642212675 24.183818448927152 0.49999999999999994
    vertex 16.95231504802763 24.18381844892715 0.49999999999999994
  endloop
endfacet
facet normal -5.5460995515031855e-15 -1.0 0.0
  outer loop
    vertex 16.95231504802763 24.18381844892715 0.49999999999999994
    vertex 16.443855642212675 24.183818448927152 0.0
    vertex 16.95231504802763 24.18381844892715 0.0
  endloop
endfacet
facet normal -5.5460995515031855e-15 -1.0 0.0
  outer loop
    vertex 16.443855642212675 24.183818448927152 0.0
    vertex 16.95231504802763 24.18381844892715 0.49999999999999994
    vertex 16.443855642212675 24.183818448927152 0.49999999999999994
  endloop
endfacet
facet normal 0.0 -1.0 0.0
  outer loop
    vertex -16.443855642212675 24.18381844892715 0.49999999999999994
    vertex -16.952315048027614 24.18381844892715 0.0
    vertex -16.443855642212675 24.18381844892715 0.0
  endloop
endfacet
facet normal 0.0 -1.0 0.0
  outer loop
    vertex -16.952315048027614 24.18381844892715 0.0
    vertex -16.443855642212675 24.18381844892715 0.49999999999999994
    vertex -16.952315048027614 24.18381844892715 0.49999999999999994
  endloop
endfacet
facet normal 0.0 0.0 -1.0
  outer loop
    vertex -15.464198948882453 32.239599968863686 0.0
    vertex -16.443855642212675 24.18381844892715 0.0
    vertex -16.952315048027614 24.18381844892715 0.0
  endloop
endfacet
facet normal 0.0 0.0 -1.0
  outer loop
    vertex -16.443855642212675 24.18381844892715 0.0
    vertex -15.464198948882453 32.239599968863686 0.0
    vertex -15.0 31.999999999999996 0.0
  endloop
endfacet
facet normal 0.0 0.0 -1.0
  outer loop
    vertex -15.0 31.999999999999996 0.0
    vertex -15.464198948882453 32.239599968863686 0.0
    vertex -13.351651837298622 34.41686362581247 0.0
  endloop
endfacet
facet normal 0.0 0.0 -1.0
  outer loop
    vertex -15.0 31.999999999999996 0.0
    vertex -13.351651837298622 34.41686362581247 0.0
    vertex -13.018187832154977 34.042523730849645 0.0
  endloop
endfacet
facet normal 0.0 0.0 -1.0
  outer loop
    vertex -13.018187832154977 34.042523730849645 0.0
    vertex -13.351651837298622 34.41686362581247 0.0
    vertex -11.036751448273366 36.19477634332039 0.0
  endloop
endfacet
facet normal 0.0 0.0 -1.0
  outer loop
    vertex -13.018187832154977 34.042523730849645 0.0
    vertex -11.036751448273366 36.19477634332039 0.0
    vertex -10.76110320739923 35.77603221262694 0.0
  endloop
endfacet
facet normal 0.0 0.0 -1.0
  outer loop
    vertex -10.76110320739923 35.77603221262694 0.0
    vertex -11.036751448273366 36.19477634332039 0.0
    vertex -8.48847651229518 37.618163954918174 0.0
  endloop
endfacet
facet normal 0.0 0.0 -1.0
  outer loop
    vertex -10.76110320739923 35.77603221262694 0.0
    vertex -8.48847651229518 37.618163954918174 0.0
    vertex -8.276472678623433 37.16387002562162 0.0
  endloop
endfacet
facet normal 0.0 0.0 -1.0
  outer loop
    vertex -8.276472678623433 37.16387002562162 0.0
    vertex -8.48847651229518 37.618163954918174 0.0
    vertex -5.760710865697709 38.65692861518903 0.0
  endloop
endfacet
facet normal 0.0 0.0 -1.0
  outer loop
    vertex -8.276472678623433 37.16387002562162 0.0
    vertex -5.760710865697709 38.65692861518903 0.0
    vertex -5.6168343071145825 38.17669103275978 0.0
  endloop
endfacet
facet normal 0.0 0.0 -1.0
  outer loop
    vertex -5.6168343071145825 38.17669103275978 0.0
    vertex -5.760710865697709 38.65692861518903 0.0
    vertex -2.9111337155330888 39.28910541596973 0.0
  endloop
endfacet
facet normal 0.0 0.0 -1.0
  outer loop
    vertex -5.6168343071145825 38.17669103275978 0.0
    vertex -2.9111337155330888 39.28910541596973 0.0
    vertex -2.838426733646545 38.79307891015358 0.0
  endloop
endfacet
facet normal 0.0 0.0 -1.0
  outer loop
    vertex -2.838426733646545 38.79307891015358 0.0
    vertex -2.9111337155330888 39.28910541596973 0.0
    vertex 2.3038905852534874e-14 39.501326839185 0.0
  endloop
endfacet
facet normal 0.0 0.0 -1.0
  outer loop
    vertex -2.838426733646545 38.79307891015358 0.0
    vertex 2.3038905852534874e-14 39.501326839185 0.0
    vertex -7.049916206369744e-15 38.99999999999999 0.0
  endloop
endfacet
facet normal 0.0 0.0 -1.0
  outer loop
    vertex -7.049916206369744e-15 38.99999999999999 0.0
    vertex 2.3038905852534874e-14 39.501326839185 0.0
    vertex 2.8384267336465347 38.79307891015358 0.0
  endloop
endfacet
facet normal 0.0 0.0 -1.0
  outer loop
    vertex 2.8384267336465347 38.79307891015358 0.0
    vertex 2.3038905852534874e-14 39.501326839185 0.0
    vertex 2.9111337155331016 39.28910541596972 0.0
  endloop
endfacet
facet normal 0.0 0.0 -1.0
  outer loop
    vertex 2.8384267336465347 38.79307891015358 0.0
    vertex 2.9111337155331016 39.28910541596972 0.0
    vertex 5.616834307114569 38.17669103275978 0.0
  endloop
endfacet
facet normal 0.0 0.0 -1.0
  outer loop
    vertex 5.616834307114569 38.17669103275978 0.0
    vertex 2.9111337155331016 39.28910541596972 0.0
    vertex 5.7607108656976544 38.65692861518904 0.0
  endloop
endfacet
facet normal 0.0 0.0 -1.0
  outer loop
    vertex 5.616834307114569 38.17669103275978 0.0
    vertex 5.7607108656976544 38.65692861518904 0.0
    vertex 8.276472678623422 37.16387002562162 0.0
  endloop
endfacet
facet normal 0.0 0.0 -1.0
  outer loop
    vertex 8.276472678623422 37.16387002562162 0.0
    vertex 5.7607108656976544 38.65692861518904 0.0
    vertex 8.488476512295133 37.61816395491819 0.0
  endloop
endfacet
facet normal 0.0 0.0 -1.0
  outer loop
    vertex 8.276472678623422 37.16387002562162 0.0
    vertex 8.488476512295133 37.61816395491819 0.0
    vertex 10.761103207399222 35.77603221262694 0.0
  endloop
endfacet
facet normal 0.0 0.0 -1.0
  outer loop
    vertex 10.761103207399222 35.77603221262694 0.0
    vertex 8.488476512295133 37.61816395491819 0.0
    vertex 11.036751448273428 36.19477634332035 0.0
  endloop
endfacet
facet normal 0.0 0.0 -1.0
  outer loop
    vertex 10.761103207399222 35.77603221262694 0.0
    vertex 11.036751448273428 36.19477634332035 0.0
    vertex 13.018187832154972 34.042523730849645 0.0
  endloop
endfacet
facet normal 0.0 0.0 -1.0
  outer loop
    vertex 13.018187832154972 34.042523730849645 0.0
    vertex 11.036751448273428 36.19477634332035 0.0
    vertex 13.351651837298611 34.41686362581248 0.0
  endloop
endfacet
facet normal 0.0 0.0 -1.0
  outer loop
    vertex 13.018187832154972 34.042523730849645 0.0
    vertex 13.351651837298611 34.41686362581248 0.0
    vertex 14.999999999999998 31.999999999999996 0.0
  endloop
endfacet
facet normal 0.0 0.0 -1.0
  outer loop
    vertex 14.999999999999998 31.999999999999996 0.0
    vertex 13.351651837298611 34.41686362581248 0.0
    vertex 15.464198948882462 32.23959996886367 0.0
  endloop
endfacet
facet normal 0.0 0.0 -1.0
  outer loop
    vertex 14.999999999999998 31.999999999999996 0.0
    vertex 15.464198948882462 32.23959996886367 0.0
    vertex 16.443855642212675 24.183818448927152 0.0
  endloop
endfacet
facet normal 0.0 0.0 -1.0
  outer loop
    vertex 16.443855642212675 24.183818448927152 0.0
    vertex 15.464198948882462 32.23959996886367 0.0
    vertex 16.95231504802763 24.18381844892715 0.0
  endloop
endfacet
facet normal -0.983362672185421 0.18165311710055648 0.0
  outer loop
    vertex -15.464198948882453 32.239599968863686 0.49999999999999994
    vertex -16.952315048027614 24.18381844892715 0.0
    vertex -16.952315048027614 24.18381844892715 0.49999999999999994
  endloop
endfacet
facet normal -0.983362672185421 0.18165311710055648 0.0
  outer loop
    vertex -16.952315048027614 24.18381844892715 0.0
    vertex -15.464198948882453 32.239599968863686 0.49999999999999994
    vertex -15.464198948882453 32.239599968863686 0.0
  endloop
endfacet
facet normal -0.6091122460178017 0.7930840256562663 0.0
  outer loop
    vertex -13.351651837298622 34.41686362581247 0.49999999999999994
    vertex -11.036751448273366 36.19477634332039 0.0
    vertex -13.351651837298622 34.41686362581247 0.0
  endloop
endfacet
facet normal -0.6091122460178017 0.7930840256562663 0.0
  outer loop
    vertex -11.036751448273366 36.19477634332039 0.0
    vertex -13.351651837298622 34.41686362581247 0.49999999999999994
    vertex -11.036751448273366 36.19477634332039 0.49999999999999994
  endloop
endfacet
facet normal -0.4876520745459077 0.8730380599899827 0.0
  outer loop
    vertex -11.036751448273366 36.19477634332039 0.49999999999999994
    vertex -8.48847651229518 37.618163954918174 0.0
    vertex -11.036751448273366 36.19477634332039 0.0
  endloop
endfacet
facet normal -0.4876520745459077 0.8730380599899827 0.0
  outer loop
    vertex -8.48847651229518 37.618163954918174 0.0
    vertex -11.036751448273366 36.19477634332039 0.49999999999999994
    vertex -8.48847651229518 37.618163954918174 0.49999999999999994
  endloop
endfacet
facet normal -0.3558803922548058 0.9345315117258302 0.0
  outer loop
    vertex -8.48847651229518 37.618163954918174 0.49999999999999994
    vertex -5.760710865697709 38.65692861518903 0.0
    vertex -8.48847651229518 37.618163954918174 0.0
  endloop
endfacet
facet normal -0.3558803922548058 0.9345315117258302 0.0
  outer loop
    vertex -5.760710865697709 38.65692861518903 0.0
    vertex -8.48847651229518 37.618163954918174 0.49999999999999994
    vertex -5.760710865697709 38.65692861518903 0.49999999999999994
  endloop
endfacet
facet normal -0.21658354046964837 0.9762640882454051 0.0
  outer loop
    vertex -5.760710865697709 38.65692861518903 0.49999999999999994
    vertex -2.9111337155330888 39.28910541596973 0.0
    vertex -5.760710865697709 38.65692861518903 0.0
  endloop
endfacet
facet normal -0.21658354046964837 0.9762640882454051 0.0
  outer loop
    vertex -2.9111337155330888 39.28910541596973 0.0
    vertex -5.760710865697709 38.65692861518903 0.49999999999999994
    vertex -2.9111337155330888 39.28910541596973 0.49999999999999994
  endloop
endfacet
facet normal -0.07270698188657117 0.9973533450011314 0.0
  outer loop
    vertex -2.9111337155330888 39.28910541596973 0.49999999999999994
    vertex 2.3038905852534874e-14 39.501326839185 0.0
    vertex -2.9111337155330888 39.28910541596973 0.0
  endloop
endfacet
facet normal -0.07270698188657117 0.9973533450011314 0.0
  outer loop
    vertex 2.3038905852534874e-14 39.501326839185 0.0
    vertex -2.9111337155330888 39.28910541596973 0.49999999999999994
    vertex 2.3038905852534874e-14 39.501326839185 0.49999999999999994
  endloop
endfacet
facet normal 0.0727069818865739 0.9973533450011312 0.0
  outer loop
    vertex 2.3038905852534874e-14 39.501326839185 0.49999999999999994
    vertex 2.9111337155331016 39.28910541596972 0.0
    vertex 2.3038905852534874e-14 39.501326839185 0.0
  endloop
endfacet
facet normal 0.0727069818865739 0.9973533450011312 0.0
  outer loop
    vertex 2.9111337155331016 39.28910541596972 0.0
    vertex 2.3038905852534874e-14 39.501326839185 0.49999999999999994
    vertex 2.9111337155331016 39.28910541596972 0.49999999999999994
  endloop
endfacet
facet normal -0.7176926045189811 0.6963600544393407 0.0
  outer loop
    vertex -13.351651837298622 34.41686362581247 0.49999999999999994
    vertex -15.464198948882453 32.239599968863686 0.0
    vertex -15.464198948882453 32.239599968863686 0.49999999999999994
  endloop
endfacet
facet normal -0.7176926045189811 0.6963600544393407 0.0
  outer loop
    vertex -15.464198948882453 32.239599968863686 0.0
    vertex -13.351651837298622 34.41686362581247 0.49999999999999994
    vertex -13.351651837298622 34.41686362581247 0.0
  endloop
endfacet
facet normal 0.48765207454590764 0.8730380599899827 0.0
  outer loop
    vertex 8.488476512295133 37.61816395491819 0.49999999999999994
    vertex 11.036751448273428 36.19477634332035 0.0
    vertex 8.488476512295133 37.61816395491819 0.0
  endloop
endfacet
facet normal 0.48765207454590764 0.8730380599899827 0.0
  outer loop
    vertex 11.036751448273428 36.19477634332035 0.0
    vertex 8.488476512295133 37.61816395491819 0.49999999999999994
    vertex 11.036751448273428 36.19477634332035 0.49999999999999994
  endloop
endfacet
facet normal 0.6091122460178007 0.7930840256562671 0.0
  outer loop
    vertex 11.036751448273428 36.19477634332035 0.49999999999999994
    vertex 13.351651837298611 34.41686362581248 0.0
    vertex 11.036751448273428 36.19477634332035 0.0
  endloop
endfacet
facet normal 0.6091122460178007 0.7930840256562671 0.0
  outer loop
    vertex 13.351651837298611 34.41686362581248 0.0
    vertex 11.036751448273428 36.19477634332035 0.49999999999999994
    vertex 13.351651837298611 34.41686362581248 0.49999999999999994
  endloop
endfacet
facet normal 0.3558803922548034 0.9345315117258313 0.0
  outer loop
    vertex 5.7607108656976544 38.65692861518904 0.49999999999999994
    vertex 8.488476512295133 37.61816395491819 0.0
    vertex 5.7607108656976544 38.65692861518904 0.0
  endloop
endfacet
facet normal 0.3558803922548034 0.9345315117258313 0.0
  outer loop
    vertex 8.488476512295133 37.61816395491819 0.0
    vertex 5.7607108656976544 38.65692861518904 0.49999999999999994
    vertex 8.488476512295133 37.61816395491819 0.49999999999999994
  endloop
endfacet
facet normal 0.9833626721854207 -0.18165311710055723 -0.0
  outer loop
    vertex -15.0 31.999999999999996 0.0
    vertex -16.443855642212675 24.18381844892715 0.49999999999999994
    vertex -16.443855642212675 24.18381844892715 0.0
  endloop
endfacet
facet normal 0.9833626721854207 -0.18165311710055723 -0.0
  outer loop
    vertex -16.443855642212675 24.18381844892715 0.49999999999999994
    vertex -15.0 31.999999999999996 0.0
    vertex -15.0 31.999999999999996 0.49999999999999994
  endloop
endfacet
facet normal 0.21658354046964776 0.9762640882454053 0.0
  outer loop
    vertex 2.9111337155331016 39.28910541596972 0.49999999999999994
    vertex 5.7607108656976544 38.65692861518904 0.0
    vertex 2.9111337155331016 39.28910541596972 0.0
  endloop
endfacet
facet normal 0.21658354046964776 0.9762640882454053 0.0
  outer loop
    vertex 5.7607108656976544 38.65692861518904 0.0
    vertex 2.9111337155331016 39.28910541596972 0.49999999999999994
    vertex 5.7607108656976544 38.65692861518904 0.49999999999999994
  endloop
endfacet
facet normal 0.9833626721854207 0.18165311710055732 -0.0
  outer loop
    vertex 15.464198948882462 32.23959996886367 0.0
    vertex 16.95231504802763 24.18381844892715 0.49999999999999994
    vertex 16.95231504802763 24.18381844892715 0.0
  endloop
endfacet
facet normal 0.9833626721854207 0.18165311710055732 -0.0
  outer loop
    vertex 16.95231504802763 24.18381844892715 0.49999999999999994
    vertex 15.464198948882462 32.23959996886367 0.0
    vertex 15.464198948882462 32.23959996886367 0.49999999999999994
  endloop
endfacet
facet normal 0.7176926045189823 0.6963600544393395 0.0
  outer loop
    vertex 13.351651837298611 34.41686362581248 0.0
    vertex 15.464198948882462 32.23959996886367 0.49999999999999994
    vertex 15.464198948882462 32.23959996886367 0.0
  endloop
endfacet
facet normal 0.7176926045189823 0.6963600544393395 0.0
  outer loop
    vertex 15.464198948882462 32.23959996886367 0.49999999999999994
    vertex 13.351651837298611 34.41686362581248 0.0
    vertex 13.351651837298611 34.41686362581248 0.49999999999999994
  endloop
endfacet
facet normal 0.6091122460178013 -0.7930840256562665 0.0
  outer loop
    vertex -10.76110320739923 35.77603221262694 0.49999999999999994
    vertex -13.018187832154977 34.042523730849645 0.0
    vertex -10.76110320739923 35.77603221262694 0.0
  endloop
endfacet
facet normal 0.6091122460178013 -0.7930840256562665 0.0
  outer loop
    vertex -13.018187832154977 34.042523730849645 0.0
    vertex -10.76110320739923 35.77603221262694 0.49999999999999994
    vertex -13.018187832154977 34.042523730849645 0.49999999999999994
  endloop
endfacet
facet normal -0.2165835404696467 -0.9762640882454057 -0.0
  outer loop
    vertex 5.616834307114569 38.17669103275978 0.49999999999999994
    vertex 2.8384267336465347 38.79307891015358 0.0
    vertex 5.616834307114569 38.17669103275978 0.0
  endloop
endfacet
facet normal -0.2165835404696467 -0.9762640882454057 -0.0
  outer loop
    vertex 2.8384267336465347 38.79307891015358 0.0
    vertex 5.616834307114569 38.17669103275978 0.49999999999999994
    vertex 2.8384267336465347 38.79307891015358 0.49999999999999994
  endloop
endfacet
facet normal 0.07270698188657176 -0.9973533450011315 0.0
  outer loop
    vertex -7.049916206369744e-15 38.99999999999999 0.49999999999999994
    vertex -2.838426733646545 38.79307891015358 0.0
    vertex -7.049916206369744e-15 38.99999999999999 0.0
  endloop
endfacet
facet normal 0.07270698188657176 -0.9973533450011315 0.0
  outer loop
    vertex -2.838426733646545 38.79307891015358 0.0
    vertex -7.049916206369744e-15 38.99999999999999 0.49999999999999994
    vertex -2.838426733646545 38.79307891015358 0.49999999999999994
  endloop
endfacet
facet normal -0.6091122460177993 -0.7930840256562679 -0.0
  outer loop
    vertex 13.018187832154972 34.042523730849645 0.49999999999999994
    vertex 10.761103207399222 35.77603221262694 0.0
    vertex 13.018187832154972 34.042523730849645 0.0
  endloop
endfacet
facet normal -0.6091122460177993 -0.7930840256562679 -0.0
  outer loop
    vertex 10.761103207399222 35.77603221262694 0.0
    vertex 13.018187832154972 34.042523730849645 0.49999999999999994
    vertex 10.761103207399222 35.77603221262694 0.49999999999999994
  endloop
endfacet
facet normal -0.9833626721854207 -0.18165311710055773 0.0
  outer loop
    vertex 14.999999999999998 31.999999999999996 0.49999999999999994
    vertex 16.443855642212675 24.183818448927152 0.0
    vertex 16.443855642212675 24.183818448927152 0.49999999999999994
  endloop
endfacet
facet normal -0.9833626721854207 -0.18165311710055773 0.0
  outer loop
    vertex 16.443855642212675 24.183818448927152 0.0
    vertex 14.999999999999998 31.999999999999996 0.49999999999999994
    vertex 14.999999999999998 31.999999999999996 0.0
  endloop
endfacet
facet normal 0.7176926045189812 -0.6963600544393406 0.0
  outer loop
    vertex -13.018187832154977 34.042523730849645 0.0
    vertex -15.0 31.999999999999996 0.49999999999999994
    vertex -15.0 31.999999999999996 0.0
  endloop
endfacet
facet normal 0.7176926045189812 -0.6963600544393406 0.0
  outer loop
    vertex -15.0 31.999999999999996 0.49999999999999994
    vertex -13.018187832154977 34.042523730849645 0.0
    vertex -13.018187832154977 34.042523730849645 0.49999999999999994
  endloop
endfacet
facet normal -0.07270698188657164 -0.9973533450011315 -0.0
  outer loop
    vertex 2.8384267336465347 38.79307891015358 0.49999999999999994
    vertex -7.049916206369744e-15 38.99999999999999 0.0
    vertex 2.8384267336465347 38.79307891015358 0.0
  endloop
endfacet
facet normal -0.07270698188657164 -0.9973533450011315 -0.0
  outer loop
    vertex -7.049916206369744e-15 38.99999999999999 0.0
    vertex 2.8384267336465347 38.79307891015358 0.49999999999999994
    vertex -7.049916206369744e-15 38.99999999999999 0.49999999999999994
  endloop
endfacet
facet normal 0.21658354046964648 -0.9762640882454057 0.0
  outer loop
    vertex -2.838426733646545 38.79307891015358 0.49999999999999994
    vertex -5.6168343071145825 38.17669103275978 0.0
    vertex -2.838426733646545 38.79307891015358 0.0
  endloop
endfacet
facet normal 0.21658354046964648 -0.9762640882454057 0.0
  outer loop
    vertex -5.6168343071145825 38.17669103275978 0.0
    vertex -2.838426733646545 38.79307891015358 0.49999999999999994
    vertex -5.6168343071145825 38.17669103275978 0.49999999999999994
  endloop
endfacet
facet normal -0.3558803922548038 -0.9345315117258309 -0.0
  outer loop
    vertex 8.276472678623422 37.16387002562162 0.49999999999999994
    vertex 5.616834307114569 38.17669103275978 0.0
    vertex 8.276472678623422 37.16387002562162 0.0
  endloop
endfacet
facet normal -0.3558803922548038 -0.9345315117258309 -0.0
  outer loop
    vertex 5.616834307114569 38.17669103275978 0.0
    vertex 8.276472678623422 37.16387002562162 0.49999999999999994
    vertex 5.616834307114569 38.17669103275978 0.49999999999999994
  endloop
endfacet
facet normal 0.355880392254804 -0.9345315117258309 0.0
  outer loop
    vertex -5.6168343071145825 38.17669103275978 0.49999999999999994
    vertex -8.276472678623433 37.16387002562162 0.0
    vertex -5.6168343071145825 38.17669103275978 0.0
  endloop
endfacet
facet normal 0.355880392254804 -0.9345315117258309 0.0
  outer loop
    vertex -8.276472678623433 37.16387002562162 0.0
    vertex -5.6168343071145825 38.17669103275978 0.49999999999999994
    vertex -8.276472678623433 37.16387002562162 0.49999999999999994
  endloop
endfacet
facet normal -0.4876520745459095 -0.8730380599899817 -0.0
  outer loop
    vertex 10.761103207399222 35.77603221262694 0.49999999999999994
    vertex 8.276472678623422 37.16387002562162 0.0
    vertex 10.761103207399222 35.77603221262694 0.0
  endloop
endfacet
facet normal -0.4876520745459095 -0.8730380599899817 -0.0
  outer loop
    vertex 8.276472678623422 37.16387002562162 0.0
    vertex 10.761103207399222 35.77603221262694 0.49999999999999994
    vertex 8.276472678623422 37.16387002562162 0.49999999999999994
  endloop
endfacet
facet normal -0.7176926045189816 -0.6963600544393401 -0.0
  outer loop
    vertex 13.018187832154972 34.042523730849645 0.49999999999999994
    vertex 14.999999999999998 31.999999999999996 0.0
    vertex 14.999999999999998 31.999999999999996 0.49999999999999994
  endloop
endfacet
facet normal -0.7176926045189816 -0.6963600544393401 -0.0
  outer loop
    vertex 14.999999999999998 31.999999999999996 0.0
    vertex 13.018187832154972 34.042523730849645 0.49999999999999994
    vertex 13.018187832154972 34.042523730849645 0.0
  endloop
endfacet
facet normal 0.48765207454590964 -0.8730380599899816 0.0
  outer loop
    vertex -8.276472678623433 37.16387002562162 0.49999999999999994
    vertex -10.76110320739923 35.77603221262694 0.0
    vertex -8.276472678623433 37.16387002562162 0.0
  endloop
endfacet
facet normal 0.48765207454590964 -0.8730380599899816 0.0
  outer loop
    vertex -10.76110320739923 35.77603221262694 0.0
    vertex -8.276472678623433 37.16387002562162 0.49999999999999994
    vertex -10.76110320739923 35.77603221262694 0.49999999999999994
  endloop
endfacet
facet normal -8.574529428818449e-17 1.0 -0.0
  outer loop
    vertex -16.443855642212675 24.18381844892715 0.49999999999999994
    vertex 16.443855642212675 24.183818448927152 0.0
    vertex -16.443855642212675 24.18381844892715 0.0
  endloop
endfacet
facet normal -8.574529428818449e-17 1.0 -0.0
  outer loop
    vertex 16.443855642212675 24.183818448927152 0.0
    vertex -16.443855642212675 24.18381844892715 0.49999999999999994
    vertex 16.443855642212675 24.183818448927152 0.49999999999999994
  endloop
endfacet
facet normal -5.5460995515031855e-15 -1.0 0.0
  outer loop
    vertex 16.95231504802763 23.683818448927152 0.49999999999999994
    vertex 16.443855642212675 23.683818448927152 0.0
    vertex 16.95231504802763 23.683818448927152 0.0
  endloop
endfacet
facet normal -5.5460995515031855e-15 -1.0 0.0
  outer loop
    vertex 16.443855642212675 23.683818448927152 0.0
    vertex 16.95231504802763 23.683818448927152 0.49999999999999994
    vertex 16.443855642212675 23.683818448927152 0.49999999999999994
  endloop
endfacet
facet normal 0.0 -1.0 0.0
  outer loop
    vertex -16.443855642212675 23.683818448927152 0.49999999999999994
    vertex -16.952315048027614 23.683818448927152 8.81239525796218e-17
    vertex -16.443855642212675 23.683818448927152 0.0
  endloop
endfacet
facet normal 0.0 -1.0 0.0
  outer loop
    vertex -16.952315048027614 23.683818448927152 8.81239525796218e-17
    vertex -16.443855642212675 23.683818448927152 0.49999999999999994
    vertex -16.952315048027614 23.683818448927152 0.49999999999999994
  endloop
endfacet
facet normal -0.0 -0.0 1.0
  outer loop
    vertex 16.95231504802763 23.683818448927152 0.49999999999999994
    vertex 16.443855642212675 24.183818448927152 0.49999999999999994
    vertex 16.443855642212675 23.683818448927152 0.49999999999999994
  endloop
endfacet
facet normal -0.0 -0.0 1.0
  outer loop
    vertex 16.443855642212675 24.183818448927152 0.49999999999999994
    vertex 16.95231504802763 23.683818448927152 0.49999999999999994
    vertex 16.95231504802763 24.18381844892715 0.49999999999999994
  endloop
endfacet
facet normal 1.0 -0.0 -0.0
  outer loop
    vertex 16.95231504802763 24.18381844892715 0.0
    vertex 16.95231504802763 23.683818448927152 0.49999999999999994
    vertex 16.95231504802763 23.683818448927152 0.0
  endloop
endfacet
facet normal 1.0 -0.0 -0.0
  outer loop
    vertex 16.95231504802763 23.683818448927152 0.49999999999999994
    vertex 16.95231504802763 24.18381844892715 0.0
    vertex 16.95231504802763 24.18381844892715 0.49999999999999994
  endloop
endfacet
facet normal 1.1007150194218368e-16 -1.0 -1.6493696313536984e-15
  outer loop
    vertex 16.443855642212675 23.683818448927152 0.49999999999999994
    vertex 15.952315048027629 23.683818448927155 0.0
    vertex 16.443855642212675 23.683818448927152 0.0
  endloop
endfacet
facet normal 1.1007150194218368e-16 -1.0 -1.6493696313536984e-15
  outer loop
    vertex 15.952315048027629 23.683818448927155 0.0
    vertex 16.443855642212675 23.683818448927152 0.49999999999999994
    vertex -16.443855642212675 23.683818448927152 0.0
  endloop
endfacet
facet normal 1.1007150194218368e-16 -1.0 -1.6493696313536984e-15
  outer loop
    vertex -16.443855642212675 23.683818448927152 0.0
    vertex 16.443855642212675 23.683818448927152 0.49999999999999994
    vertex -16.443855642212675 23.683818448927152 0.49999999999999994
  endloop
endfacet
facet normal 0.0 0.0 1.0
  outer loop
    vertex 16.443855642212675 23.683818448927152 0.49999999999999994
    vertex -16.443855642212675 24.18381844892715 0.49999999999999994
    vertex -16.443855642212675 23.683818448927152 0.49999999999999994
  endloop
endfacet
facet normal 0.0 0.0 1.0
  outer loop
    vertex -16.443855642212675 24.18381844892715 0.49999999999999994
    vertex 16.443855642212675 23.683818448927152 0.49999999999999994
    vertex 16.443855642212675 24.183818448927152 0.49999999999999994
  endloop
endfacet
facet normal 0.0 0.0 -1.0
  outer loop
    vertex 16.443855642212675 24.183818448927152 0.0
    vertex -16.443855642212675 23.683818448927152 0.0
    vertex -16.443855642212675 24.18381844892715 0.0
  endloop
endfacet
facet normal 0.0 0.0 -1.0
  outer loop
    vertex -16.443855642212675 23.683818448927152 0.0
    vertex 16.443855642212675 24.183818448927152 0.0
    vertex 15.952315048027629 23.683818448927155 0.0
  endloop
endfacet
facet normal 0.0 0.0 -1.0
  outer loop
    vertex 15.952315048027629 23.683818448927155 0.0
    vertex 16.443855642212675 24.183818448927152 0.0
    vertex 16.443855642212675 23.683818448927152 0.0
  endloop
endfacet
facet normal -8.665780549223968e-17 -8.812395257962196e-17 -1.0
  outer loop
    vertex -16.443855642212675 24.18381844892715 0.0
    vertex -16.952315048027614 23.683818448927152 8.81239525796218e-17
    vertex -16.952315048027614 24.18381844892715 0.0
  endloop
endfacet
facet normal -8.665780549223968e-17 -8.812395257962196e-17 -1.0
  outer loop
    vertex -16.952315048027614 23.683818448927152 8.81239525796218e-17
    vertex -16.443855642212675 24.18381844892715 0.0
    vertex -16.443855642212675 23.683818448927152 0.0
  endloop
endfacet
facet normal -1.0 0.0 0.0
  outer loop
    vertex -16.952315048027614 24.18381844892715 0.49999999999999994
    vertex -16.952315048027614 23.683818448927152 8.81239525796218e-17
    vertex -16.952315048027614 23.683818448927152 0.49999999999999994
  endloop
endfacet
facet normal -1.0 0.0 0.0
  outer loop
    vertex -16.952315048027614 23.683818448927152 8.81239525796218e-17
    vertex -16.952315048027614 24.18381844892715 0.49999999999999994
    vertex -16.952315048027614 24.18381844892715 0.0
  endloop
endfacet
facet normal 0.0 0.0 -1.0
  outer loop
    vertex 16.95231504802763 24.18381844892715 0.0
    vertex 16.443855642212675 23.683818448927152 0.0
    vertex 16.443855642212675 24.183818448927152 0.0
  endloop
endfacet
facet normal 0.0 0.0 -1.0
  outer loop
    vertex 16.443855642212675 23.683818448927152 0.0
    vertex 16.95231504802763 24.18381844892715 0.0
    vertex 16.95231504802763 23.683818448927152 0.0
  endloop
endfacet
facet normal -1.0 -8.57452942881845e-17 -0.0
  outer loop
    vertex -16.443855642212675 24.18381844892715 0.49999999999999994
    vertex -16.443855642212675 23.683818448927152 0.0
    vertex -16.443855642212675 23.683818448927152 0.49999999999999994
  endloop
endfacet
facet normal -1.0 -8.57452942881845e-17 -0.0
  outer loop
    vertex -16.443855642212675 23.683818448927152 0.0
    vertex -16.443855642212675 24.18381844892715 0.49999999999999994
    vertex -16.443855642212675 24.18381844892715 0.0
  endloop
endfacet
facet normal 1.0 -0.0 -0.0
  outer loop
    vertex 16.443855642212675 24.183818448927152 0.0
    vertex 16.443855642212675 23.683818448927152 0.49999999999999994
    vertex 16.443855642212675 23.683818448927152 0.0
  endloop
endfacet
facet normal 1.0 -0.0 -0.0
  outer loop
    vertex 16.443855642212675 23.683818448927152 0.49999999999999994
    vertex 16.443855642212675 24.183818448927152 0.0
    vertex 16.443855642212675 24.183818448927152 0.49999999999999994
  endloop
endfacet
facet normal -0.0 -0.0 1.0
  outer loop
    vertex -16.443855642212675 23.683818448927152 0.49999999999999994
    vertex -16.952315048027614 24.18381844892715 0.49999999999999994
    vertex -16.952315048027614 23.683818448927152 0.49999999999999994
  endloop
endfacet
facet normal -0.0 -0.0 1.0
  outer loop
    vertex -16.952315048027614 24.18381844892715 0.49999999999999994
    vertex -16.443855642212675 23.683818448927152 0.49999999999999994
    vertex -16.443855642212675 24.18381844892715 0.49999999999999994
  endloop
endfacet
endsolid firewall
