solid Untitled-55ee1ed2
facet normal -0.934398575615912 -0.3562292827477198 -0.0
  outer loop
    vertex 12.955787021761115 21.23493702284972 0.49999999999999994
    vertex 13.373861065317012 20.13831804816181 0.0
    vertex 13.373861065317012 20.13831804816181 0.49999999999999994
  endloop
endfacet
facet normal -0.934398575615912 -0.3562292827477198 -0.0
  outer loop
    vertex 13.373861065317012 20.13831804816181 0.0
    vertex 12.955787021761115 21.23493702284972 0.49999999999999994
    vertex 12.955787021761115 21.23493702284972 0.0
  endloop
endfacet
facet normal -0.1586956793765187 -0.9873275451172349 -0.0
  outer loop
    vertex 10.286710695576986 23.406450678081157 0.49999999999999994
    vertex 9.127973783447265 23.59269742304282 0.0
    vertex 10.286710695576986 23.406450678081157 0.0
  endloop
endfacet
facet normal -0.1586956793765187 -0.9873275451172349 -0.0
  outer loop
    vertex 9.127973783447265 23.59269742304282 0.0
    vertex 10.286710695576986 23.406450678081157 0.49999999999999994
    vertex 9.127973783447265 23.59269742304282 0.49999999999999994
  endloop
endfacet
facet normal 0.9873275451172348 -0.1586956793765189 0.0
  outer loop
    vertex 4.692383039542946 20.38554441320109 0.0
    vertex 4.506136294581281 19.226807501071363 0.49999999999999994
    vertex 4.506136294581281 19.226807501071363 0.0
  endloop
endfacet
facet normal 0.9873275451172348 -0.1586956793765189 0.0
  outer loop
    vertex 4.506136294581281 19.226807501071363 0.49999999999999994
    vertex 4.692383039542946 20.38554441320109 0.0
    vertex 4.692383039542946 20.38554441320109 0.49999999999999994
  endloop
endfacet
facet normal 0.994758639033449 0.1022509172003879 0.0
  outer loop
    vertex 4.506136294581281 19.226807501071363 0.0
    vertex 4.6261389346829915 18.05934938708639 0.49999999999999994
    vertex 4.6261389346829915 18.05934938708639 0.0
  endloop
endfacet
facet normal 0.994758639033449 0.1022509172003879 0.0
  outer loop
    vertex 4.6261389346829915 18.05934938708639 0.49999999999999994
    vertex 4.506136294581281 19.226807501071363 0.0
    vertex 4.506136294581281 19.226807501071363 0.49999999999999994
  endloop
endfacet
facet normal 0.5859312113725191 -0.8103607934368074 0.0
  outer loop
    vertex 6.863896694774374 23.05462073938521 0.49999999999999994
    vertex 5.912849630259975 22.366966347543443 0.0
    vertex 6.863896694774374 23.05462073938521 0.0
  endloop
endfacet
facet normal 0.5859312113725191 -0.8103607934368074 0.0
  outer loop
    vertex 5.912849630259975 22.366966347543443 0.0
    vertex 6.863896694774374 23.05462073938521 0.49999999999999994
    vertex 5.912849630259975 22.366966347543443 0.49999999999999994
  endloop
endfacet
facet normal 0.7757028962393914 -0.6310982623695142 0.0
  outer loop
    vertex 5.912849630259975 22.366966347543443 0.0
    vertex 5.17218676168615 21.4565941178172 0.49999999999999994
    vertex 5.17218676168615 21.4565941178172 0.0
  endloop
endfacet
facet normal 0.7757028962393914 -0.6310982623695142 0.0
  outer loop
    vertex 5.17218676168615 21.4565941178172 0.49999999999999994
    vertex 5.912849630259975 22.366966347543443 0.0
    vertex 5.912849630259975 22.366966347543443 0.49999999999999994
  endloop
endfacet
facet normal -0.631098262369515 -0.7757028962393906 -0.0
  outer loop
    vertex 12.26813262991934 22.185984087364126 0.49999999999999994
    vertex 11.3577604001931 22.926646955937947 0.0
    vertex 12.26813262991934 22.185984087364126 0.0
  endloop
endfacet
facet normal -0.631098262369515 -0.7757028962393906 -0.0
  outer loop
    vertex 11.3577604001931 22.926646955937947 0.0
    vertex 12.26813262991934 22.185984087364126 0.49999999999999994
    vertex 11.3577604001931 22.926646955937947 0.49999999999999994
  endloop
endfacet
facet normal 0.9126117106371953 -0.4088274276609293 0.0
  outer loop
    vertex 5.17218676168615 21.4565941178172 0.0
    vertex 4.692383039542946 20.38554441320109 0.49999999999999994
    vertex 4.692383039542946 20.38554441320109 0.0
  endloop
endfacet
facet normal 0.9126117106371953 -0.4088274276609293 0.0
  outer loop
    vertex 4.692383039542946 20.38554441320109 0.49999999999999994
    vertex 5.17218676168615 21.4565941178172 0.0
    vertex 5.17218676168615 21.4565941178172 0.49999999999999994
  endloop
endfacet
facet normal -0.40882742766093044 -0.9126117106371947 -0.0
  outer loop
    vertex 11.3577604001931 22.926646955937947 0.49999999999999994
    vertex 10.286710695576986 23.406450678081157 0.0
    vertex 11.3577604001931 22.926646955937947 0.0
  endloop
endfacet
facet normal -0.40882742766093044 -0.9126117106371947 -0.0
  outer loop
    vertex 10.286710695576986 23.406450678081157 0.0
    vertex 11.3577604001931 22.926646955937947 0.49999999999999994
    vertex 10.286710695576986 23.406450678081157 0.49999999999999994
  endloop
endfacet
facet normal 0.6310982623695142 0.7757028962393914 0.0
  outer loop
    vertex 5.731867370080658 16.011683347884077 0.49999999999999994
    vertex 6.642239599806901 15.271020479310254 0.0
    vertex 5.731867370080658 16.011683347884077 0.0
  endloop
endfacet
facet normal 0.6310982623695142 0.7757028962393914 0.0
  outer loop
    vertex 6.642239599806901 15.271020479310254 0.0
    vertex 5.731867370080658 16.011683347884077 0.49999999999999994
    vertex 6.642239599806901 15.271020479310254 0.49999999999999994
  endloop
endfacet
facet normal -0.9947586390334492 -0.10225091720038587 -0.0
  outer loop
    vertex 13.373861065317012 20.13831804816181 0.49999999999999994
    vertex 13.49386370541872 18.970859934176836 0.0
    vertex 13.49386370541872 18.970859934176836 0.49999999999999994
  endloop
endfacet
facet normal -0.9947586390334492 -0.10225091720038587 -0.0
  outer loop
    vertex 13.49386370541872 18.970859934176836 0.0
    vertex 13.373861065317012 20.13831804816181 0.49999999999999994
    vertex 13.373861065317012 20.13831804816181 0.0
  endloop
endfacet
facet normal 0.9343985756159116 0.35622928274772087 0.0
  outer loop
    vertex 4.6261389346829915 18.05934938708639 0.0
    vertex 5.044212978238888 16.962730412398482 0.49999999999999994
    vertex 5.044212978238888 16.962730412398482 0.0
  endloop
endfacet
facet normal 0.9343985756159116 0.35622928274772087 0.0
  outer loop
    vertex 5.044212978238888 16.962730412398482 0.49999999999999994
    vertex 4.6261389346829915 18.05934938708639 0.0
    vertex 4.6261389346829915 18.05934938708639 0.49999999999999994
  endloop
endfacet
facet normal 0.4088274276609287 0.9126117106371956 0.0
  outer loop
    vertex 6.642239599806901 15.271020479310254 0.49999999999999994
    vertex 7.7132893044230215 14.791216757167046 0.0
    vertex 6.642239599806901 15.271020479310254 0.0
  endloop
endfacet
facet normal 0.4088274276609287 0.9126117106371956 0.0
  outer loop
    vertex 7.7132893044230215 14.791216757167046 0.0
    vertex 6.642239599806901 15.271020479310254 0.49999999999999994
    vertex 7.7132893044230215 14.791216757167046 0.49999999999999994
  endloop
endfacet
facet normal 0.10225091720038813 -0.994758639033449 0.0
  outer loop
    vertex 9.127973783447265 23.59269742304282 0.49999999999999994
    vertex 7.960515669462289 23.472694782941108 0.0
    vertex 9.127973783447265 23.59269742304282 0.0
  endloop
endfacet
facet normal 0.10225091720038813 -0.994758639033449 0.0
  outer loop
    vertex 7.960515669462289 23.472694782941108 0.0
    vertex 9.127973783447265 23.59269742304282 0.49999999999999994
    vertex 7.960515669462289 23.472694782941108 0.49999999999999994
  endloop
endfacet
facet normal 0.35622928274772114 -0.9343985756159116 0.0
  outer loop
    vertex 7.960515669462289 23.472694782941108 0.49999999999999994
    vertex 6.863896694774374 23.05462073938521 0.0
    vertex 7.960515669462289 23.472694782941108 0.0
  endloop
endfacet
facet normal 0.35622928274772114 -0.9343985756159116 0.0
  outer loop
    vertex 6.863896694774374 23.05462073938521 0.0
    vertex 7.960515669462289 23.472694782941108 0.49999999999999994
    vertex 6.863896694774374 23.05462073938521 0.49999999999999994
  endloop
endfacet
facet normal 0.8103607934368081 0.5859312113725185 0.0
  outer loop
    vertex 5.044212978238888 16.962730412398482 0.0
    vertex 5.731867370080658 16.011683347884077 0.49999999999999994
    vertex 5.731867370080658 16.011683347884077 0.0
  endloop
endfacet
facet normal 0.8103607934368081 0.5859312113725185 0.0
  outer loop
    vertex 5.731867370080658 16.011683347884077 0.49999999999999994
    vertex 5.044212978238888 16.962730412398482 0.0
    vertex 5.044212978238888 16.962730412398482 0.49999999999999994
  endloop
endfacet
facet normal -0.9873275451172348 0.15869567937651965 0.0
  outer loop
    vertex 13.49386370541872 18.970859934176836 0.49999999999999994
    vertex 13.307616960457056 17.81212302204712 0.0
    vertex 13.307616960457056 17.81212302204712 0.49999999999999994
  endloop
endfacet
facet normal -0.9873275451172348 0.15869567937651965 0.0
  outer loop
    vertex 13.307616960457056 17.81212302204712 0.0
    vertex 13.49386370541872 18.970859934176836 0.49999999999999994
    vertex 13.49386370541872 18.970859934176836 0.0
  endloop
endfacet
facet normal -0.8103607934368059 -0.5859312113725217 -0.0
  outer loop
    vertex 12.26813262991934 22.185984087364126 0.49999999999999994
    vertex 12.955787021761115 21.23493702284972 0.0
    vertex 12.955787021761115 21.23493702284972 0.49999999999999994
  endloop
endfacet
facet normal -0.8103607934368059 -0.5859312113725217 -0.0
  outer loop
    vertex 12.955787021761115 21.23493702284972 0.0
    vertex 12.26813262991934 22.185984087364126 0.49999999999999994
    vertex 12.26813262991934 22.185984087364126 0.0
  endloop
endfacet
facet normal -0.15869567937651982 -0.9873275451172346 -0.0
  outer loop
    vertex 8.857670445490234 14.10085989837364 0.49999999999999994
    vertex 7.568949396108999 14.307999325881553 0.0
    vertex 8.857670445490234 14.10085989837364 0.0
  endloop
endfacet
facet normal -0.15869567937651982 -0.9873275451172346 -0.0
  outer loop
    vertex 7.568949396108999 14.307999325881553 0.0
    vertex 8.857670445490234 14.10085989837364 0.49999999999999994
    vertex 7.568949396108999 14.307999325881553 0.49999999999999994
  endloop
endfacet
facet normal -0.4088274276609281 -0.9126117106371957 -0.0
  outer loop
    vertex 7.568949396108999 14.307999325881553 0.49999999999999994
    vertex 6.377752080459991 14.841626199958549 0.0
    vertex 7.568949396108999 14.307999325881553 0.0
  endloop
endfacet
facet normal -0.4088274276609281 -0.9126117106371957 -0.0
  outer loop
    vertex 6.377752080459991 14.841626199958549 0.0
    vertex 7.568949396108999 14.307999325881553 0.49999999999999994
    vertex 6.377752080459991 14.841626199958549 0.49999999999999994
  endloop
endfacet
facet normal -0.9126117106371954 0.40882742766092894 0.0
  outer loop
    vertex 4.742792482334449 21.72108163716411 0.49999999999999994
    vertex 4.209165608257453 20.529884321515105 0.0
    vertex 4.209165608257453 20.529884321515105 0.49999999999999994
  endloop
endfacet
facet normal -0.9126117106371954 0.40882742766092894 0.0
  outer loop
    vertex 4.209165608257453 20.529884321515105 0.0
    vertex 4.742792482334449 21.72108163716411 0.49999999999999994
    vertex 4.742792482334449 21.72108163716411 0.0
  endloop
endfacet
facet normal 0.8103607934368066 0.5859312113725207 0.0
  outer loop
    vertex 12.634743372941944 22.532292704251812 0.0
    vertex 13.399537072175317 21.474559617334553 0.49999999999999994
    vertex 13.399537072175317 21.474559617334553 0.0
  endloop
endfacet
facet normal 0.8103607934368066 0.5859312113725207 0.0
  outer loop
    vertex 13.399537072175317 21.474559617334553 0.49999999999999994
    vertex 12.634743372941944 22.532292704251812 0.0
    vertex 12.634743372941944 22.532292704251812 0.49999999999999994
  endloop
endfacet
facet normal -0.0 -0.0 1.0
  outer loop
    vertex 4.135490409481284 17.942742698823498 0.49999999999999994
    vertex 4.209165608257453 20.529884321515105 0.49999999999999994
    vertex 4.00202618074954 19.241163272133864 0.49999999999999994
  endloop
endfacet
facet normal -0.0 -0.0 1.0
  outer loop
    vertex 4.209165608257453 20.529884321515105 0.49999999999999994
    vertex 4.135490409481284 17.942742698823498 0.49999999999999994
    vertex 4.600462927824686 16.723107817913647 0.49999999999999994
  endloop
endfacet
facet normal -0.0 -0.0 1.0
  outer loop
    vertex 4.209165608257453 20.529884321515105 0.49999999999999994
    vertex 4.600462927824686 16.723107817913647 0.49999999999999994
    vertex 4.506136294581281 19.226807501071363 0.49999999999999994
  endloop
endfacet
facet normal -0.0 -0.0 1.0
  outer loop
    vertex 4.506136294581281 19.226807501071363 0.49999999999999994
    vertex 4.600462927824686 16.723107817913647 0.49999999999999994
    vertex 4.6261389346829915 18.05934938708639 0.49999999999999994
  endloop
endfacet
facet normal -0.0 -0.0 1.0
  outer loop
    vertex 4.6261389346829915 18.05934938708639 0.49999999999999994
    vertex 4.600462927824686 16.723107817913647 0.49999999999999994
    vertex 5.365256627058056 15.665374730996389 0.49999999999999994
  endloop
endfacet
facet normal -0.0 -0.0 1.0
  outer loop
    vertex 4.6261389346829915 18.05934938708639 0.49999999999999994
    vertex 5.365256627058056 15.665374730996389 0.49999999999999994
    vertex 5.044212978238888 16.962730412398482 0.49999999999999994
  endloop
endfacet
facet normal -0.0 -0.0 1.0
  outer loop
    vertex 5.044212978238888 16.962730412398482 0.49999999999999994
    vertex 5.365256627058056 15.665374730996389 0.49999999999999994
    vertex 5.731867370080658 16.011683347884077 0.49999999999999994
  endloop
endfacet
facet normal -0.0 -0.0 1.0
  outer loop
    vertex 5.731867370080658 16.011683347884077 0.49999999999999994
    vertex 5.365256627058056 15.665374730996389 0.49999999999999994
    vertex 6.377752080459991 14.841626199958549 0.49999999999999994
  endloop
endfacet
facet normal -0.0 -0.0 1.0
  outer loop
    vertex 5.731867370080658 16.011683347884077 0.49999999999999994
    vertex 6.377752080459991 14.841626199958549 0.49999999999999994
    vertex 6.642239599806901 15.271020479310254 0.49999999999999994
  endloop
endfacet
facet normal -0.0 -0.0 1.0
  outer loop
    vertex 6.642239599806901 15.271020479310254 0.49999999999999994
    vertex 6.377752080459991 14.841626199958549 0.49999999999999994
    vertex 7.568949396108999 14.307999325881553 0.49999999999999994
  endloop
endfacet
facet normal -0.0 -0.0 1.0
  outer loop
    vertex 6.642239599806901 15.271020479310254 0.49999999999999994
    vertex 7.568949396108999 14.307999325881553 0.49999999999999994
    vertex 7.7132893044230215 14.791216757167046 0.49999999999999994
  endloop
endfacet
facet normal -0.0 -0.0 1.0
  outer loop
    vertex 7.7132893044230215 14.791216757167046 0.49999999999999994
    vertex 7.568949396108999 14.307999325881553 0.49999999999999994
    vertex 8.857670445490234 14.10085989837364 0.49999999999999994
  endloop
endfacet
facet normal -0.0 -0.0 1.0
  outer loop
    vertex 7.7132893044230215 14.791216757167046 0.49999999999999994
    vertex 8.857670445490234 14.10085989837364 0.49999999999999994
    vertex 8.872026216552737 14.604970012205381 0.49999999999999994
  endloop
endfacet
facet normal -0.0 -0.0 1.0
  outer loop
    vertex 8.872026216552737 14.604970012205381 0.49999999999999994
    vertex 8.857670445490234 14.10085989837364 0.49999999999999994
    vertex 9.806552774929298 14.198395204621052 0.49999999999999994
  endloop
endfacet
facet normal -0.0 -0.0 1.0
  outer loop
    vertex 8.872026216552737 14.604970012205381 0.49999999999999994
    vertex 9.806552774929298 14.198395204621052 0.49999999999999994
    vertex 10.03948433053771 14.72497265230709 0.49999999999999994
  endloop
endfacet
facet normal -0.0 -0.0 1.0
  outer loop
    vertex 10.03948433053771 14.72497265230709 0.49999999999999994
    vertex 9.806552774929298 14.198395204621052 0.49999999999999994
    vertex 10.156091018800604 14.234324127105385 0.49999999999999994
  endloop
endfacet
facet normal -0.0 -0.0 1.0
  outer loop
    vertex 10.03948433053771 14.72497265230709 0.49999999999999994
    vertex 10.156091018800604 14.234324127105385 0.49999999999999994
    vertex 11.136103305225621 15.143046695862987 0.49999999999999994
  endloop
endfacet
facet normal -0.0 -0.0 1.0
  outer loop
    vertex 11.136103305225621 15.143046695862987 0.49999999999999994
    vertex 10.156091018800604 14.234324127105385 0.49999999999999994
    vertex 11.375725899710451 14.699296645448785 0.49999999999999994
  endloop
endfacet
facet normal -0.0 -0.0 1.0
  outer loop
    vertex 11.136103305225621 15.143046695862987 0.49999999999999994
    vertex 11.375725899710451 14.699296645448785 0.49999999999999994
    vertex 12.087150369740026 15.83070108770476 0.49999999999999994
  endloop
endfacet
facet normal -0.0 -0.0 1.0
  outer loop
    vertex 12.087150369740026 15.83070108770476 0.49999999999999994
    vertex 11.375725899710451 14.699296645448785 0.49999999999999994
    vertex 12.433458986627713 15.464090344682157 0.49999999999999994
  endloop
endfacet
facet normal -0.0 -0.0 1.0
  outer loop
    vertex 12.087150369740026 15.83070108770476 0.49999999999999994
    vertex 12.433458986627713 15.464090344682157 0.49999999999999994
    vertex 12.827813238313846 16.741073317431 0.49999999999999994
  endloop
endfacet
facet normal -0.0 -0.0 1.0
  outer loop
    vertex 12.827813238313846 16.741073317431 0.49999999999999994
    vertex 12.433458986627713 15.464090344682157 0.49999999999999994
    vertex 13.257207517665549 16.47658579808409 0.49999999999999994
  endloop
endfacet
facet normal -0.0 -0.0 1.0
  outer loop
    vertex 12.827813238313846 16.741073317431 0.49999999999999994
    vertex 13.257207517665549 16.47658579808409 0.49999999999999994
    vertex 13.307616960457056 17.81212302204712 0.49999999999999994
  endloop
endfacet
facet normal -0.0 -0.0 1.0
  outer loop
    vertex 13.307616960457056 17.81212302204712 0.49999999999999994
    vertex 13.257207517665549 16.47658579808409 0.49999999999999994
    vertex 13.790834391742548 17.667783113733098 0.49999999999999994
  endloop
endfacet
facet normal -0.0 -0.0 1.0
  outer loop
    vertex 13.307616960457056 17.81212302204712 0.49999999999999994
    vertex 13.790834391742548 17.667783113733098 0.49999999999999994
    vertex 13.49386370541872 18.970859934176836 0.49999999999999994
  endloop
endfacet
facet normal -0.0 -0.0 1.0
  outer loop
    vertex 4.506136294581281 19.226807501071363 0.49999999999999994
    vertex 4.742792482334449 21.72108163716411 0.49999999999999994
    vertex 4.209165608257453 20.529884321515105 0.49999999999999994
  endloop
endfacet
facet normal -0.0 -0.0 1.0
  outer loop
    vertex 4.742792482334449 21.72108163716411 0.49999999999999994
    vertex 4.506136294581281 19.226807501071363 0.49999999999999994
    vertex 4.692383039542946 20.38554441320109 0.49999999999999994
  endloop
endfacet
facet normal -0.0 -0.0 1.0
  outer loop
    vertex 4.742792482334449 21.72108163716411 0.49999999999999994
    vertex 4.692383039542946 20.38554441320109 0.49999999999999994
    vertex 5.17218676168615 21.4565941178172 0.49999999999999994
  endloop
endfacet
facet normal -0.0 -0.0 1.0
  outer loop
    vertex 4.742792482334449 21.72108163716411 0.49999999999999994
    vertex 5.17218676168615 21.4565941178172 0.49999999999999994
    vertex 5.566541013372286 22.733577090566044 0.49999999999999994
  endloop
endfacet
facet normal -0.0 -0.0 1.0
  outer loop
    vertex 5.566541013372286 22.733577090566044 0.49999999999999994
    vertex 5.17218676168615 21.4565941178172 0.49999999999999994
    vertex 5.912849630259975 22.366966347543443 0.49999999999999994
  endloop
endfacet
facet normal -0.0 -0.0 1.0
  outer loop
    vertex 5.566541013372286 22.733577090566044 0.49999999999999994
    vertex 5.912849630259975 22.366966347543443 0.49999999999999994
    vertex 6.624274100289547 23.498370789799413 0.49999999999999994
  endloop
endfacet
facet normal -0.0 -0.0 1.0
  outer loop
    vertex 6.624274100289547 23.498370789799413 0.49999999999999994
    vertex 5.912849630259975 22.366966347543443 0.49999999999999994
    vertex 6.863896694774374 23.05462073938521 0.49999999999999994
  endloop
endfacet
facet normal -0.0 -0.0 1.0
  outer loop
    vertex 6.624274100289547 23.498370789799413 0.49999999999999994
    vertex 6.863896694774374 23.05462073938521 0.49999999999999994
    vertex 7.843908981199397 23.963343308142818 0.49999999999999994
  endloop
endfacet
facet normal -0.0 -0.0 1.0
  outer loop
    vertex 7.843908981199397 23.963343308142818 0.49999999999999994
    vertex 6.863896694774374 23.05462073938521 0.49999999999999994
    vertex 7.960515669462289 23.472694782941108 0.49999999999999994
  endloop
endfacet
facet normal -0.0 -0.0 1.0
  outer loop
    vertex 7.843908981199397 23.963343308142818 0.49999999999999994
    vertex 7.960515669462289 23.472694782941108 0.49999999999999994
    vertex 9.142329554509764 24.09680753687456 0.49999999999999994
  endloop
endfacet
facet normal -0.0 -0.0 1.0
  outer loop
    vertex 9.142329554509764 24.09680753687456 0.49999999999999994
    vertex 7.960515669462289 23.472694782941108 0.49999999999999994
    vertex 9.127973783447265 23.59269742304282 0.49999999999999994
  endloop
endfacet
facet normal -0.0 -0.0 1.0
  outer loop
    vertex 9.142329554509764 24.09680753687456 0.49999999999999994
    vertex 9.127973783447265 23.59269742304282 0.49999999999999994
    vertex 10.286710695576986 23.406450678081157 0.49999999999999994
  endloop
endfacet
facet normal -0.0 -0.0 1.0
  outer loop
    vertex 9.142329554509764 24.09680753687456 0.49999999999999994
    vertex 10.286710695576986 23.406450678081157 0.49999999999999994
    vertex 10.431050603891002 23.88966810936665 0.49999999999999994
  endloop
endfacet
facet normal -0.0 -0.0 1.0
  outer loop
    vertex 10.431050603891002 23.88966810936665 0.49999999999999994
    vertex 10.286710695576986 23.406450678081157 0.49999999999999994
    vertex 11.3577604001931 22.926646955937947 0.49999999999999994
  endloop
endfacet
facet normal -0.0 -0.0 1.0
  outer loop
    vertex 10.431050603891002 23.88966810936665 0.49999999999999994
    vertex 11.3577604001931 22.926646955937947 0.49999999999999994
    vertex 11.622247919540012 23.35604123528965 0.49999999999999994
  endloop
endfacet
facet normal -0.0 -0.0 1.0
  outer loop
    vertex 11.622247919540012 23.35604123528965 0.49999999999999994
    vertex 11.3577604001931 22.926646955937947 0.49999999999999994
    vertex 12.26813262991934 22.185984087364126 0.49999999999999994
  endloop
endfacet
facet normal -0.0 -0.0 1.0
  outer loop
    vertex 11.622247919540012 23.35604123528965 0.49999999999999994
    vertex 12.26813262991934 22.185984087364126 0.49999999999999994
    vertex 12.634743372941944 22.532292704251812 0.49999999999999994
  endloop
endfacet
facet normal -0.0 -0.0 1.0
  outer loop
    vertex 12.634743372941944 22.532292704251812 0.49999999999999994
    vertex 12.26813262991934 22.185984087364126 0.49999999999999994
    vertex 12.955787021761115 21.23493702284972 0.49999999999999994
  endloop
endfacet
facet normal -0.0 -0.0 1.0
  outer loop
    vertex 12.634743372941944 22.532292704251812 0.49999999999999994
    vertex 12.955787021761115 21.23493702284972 0.49999999999999994
    vertex 13.399537072175317 21.474559617334553 0.49999999999999994
  endloop
endfacet
facet normal -0.0 -0.0 1.0
  outer loop
    vertex 13.399537072175317 21.474559617334553 0.49999999999999994
    vertex 12.955787021761115 21.23493702284972 0.49999999999999994
    vertex 13.373861065317012 20.13831804816181 0.49999999999999994
  endloop
endfacet
facet normal -0.0 -0.0 1.0
  outer loop
    vertex 13.399537072175317 21.474559617334553 0.49999999999999994
    vertex 13.373861065317012 20.13831804816181 0.49999999999999994
    vertex 13.49386370541872 18.970859934176836 0.49999999999999994
  endloop
endfacet
facet normal -0.0 -0.0 1.0
  outer loop
    vertex 13.399537072175317 21.474559617334553 0.49999999999999994
    vertex 13.49386370541872 18.970859934176836 0.49999999999999994
    vertex 13.864509590518717 20.2549247364247 0.49999999999999994
  endloop
endfacet
facet normal -0.0 -0.0 1.0
  outer loop
    vertex 13.864509590518717 20.2549247364247 0.49999999999999994
    vertex 13.49386370541872 18.970859934176836 0.49999999999999994
    vertex 13.790834391742548 17.667783113733098 0.49999999999999994
  endloop
endfacet
facet normal -0.0 -0.0 1.0
  outer loop
    vertex 13.864509590518717 20.2549247364247 0.49999999999999994
    vertex 13.790834391742548 17.667783113733098 0.49999999999999994
    vertex 13.997973819250461 18.956504163114335 0.49999999999999994
  endloop
endfacet
facet normal -0.994758639033449 -0.10225091720038852 -0.0
  outer loop
    vertex 4.00202618074954 19.241163272133864 0.49999999999999994
    vertex 4.135490409481284 17.942742698823498 0.0
    vertex 4.135490409481284 17.942742698823498 0.49999999999999994
  endloop
endfacet
facet normal -0.994758639033449 -0.10225091720038852 -0.0
  outer loop
    vertex 4.135490409481284 17.942742698823498 0.0
    vertex 4.00202618074954 19.241163272133864 0.49999999999999994
    vertex 4.00202618074954 19.241163272133864 0.0
  endloop
endfacet
facet normal 0.1022509172003884 -0.9947586390334489 0.0
  outer loop
    vertex 9.806552774929298 14.198395204621052 0.49999999999999994
    vertex 8.857670445490234 14.10085989837364 0.0
    vertex 9.806552774929298 14.198395204621052 0.0
  endloop
endfacet
facet normal 0.1022509172003884 -0.9947586390334489 0.0
  outer loop
    vertex 8.857670445490234 14.10085989837364 0.0
    vertex 9.806552774929298 14.198395204621052 0.49999999999999994
    vertex 8.857670445490234 14.10085989837364 0.49999999999999994
  endloop
endfacet
facet normal -0.9873275451172345 0.15869567937652 0.0
  outer loop
    vertex 4.209165608257453 20.529884321515105 0.49999999999999994
    vertex 4.00202618074954 19.241163272133864 0.0
    vertex 4.00202618074954 19.241163272133864 0.49999999999999994
  endloop
endfacet
facet normal -0.9873275451172345 0.15869567937652 0.0
  outer loop
    vertex 4.00202618074954 19.241163272133864 0.0
    vertex 4.209165608257453 20.529884321515105 0.49999999999999994
    vertex 4.209165608257453 20.529884321515105 0.0
  endloop
endfacet
facet normal -0.7757028962393913 0.6310982623695145 0.0
  outer loop
    vertex 5.566541013372286 22.733577090566044 0.49999999999999994
    vertex 4.742792482334449 21.72108163716411 0.0
    vertex 4.742792482334449 21.72108163716411 0.49999999999999994
  endloop
endfacet
facet normal -0.7757028962393913 0.6310982623695145 0.0
  outer loop
    vertex 4.742792482334449 21.72108163716411 0.0
    vertex 5.566541013372286 22.733577090566044 0.49999999999999994
    vertex 5.566541013372286 22.733577090566044 0.0
  endloop
endfacet
facet normal -0.810360793436807 -0.5859312113725199 -0.0
  outer loop
    vertex 4.600462927824686 16.723107817913647 0.49999999999999994
    vertex 5.365256627058056 15.665374730996389 0.0
    vertex 5.365256627058056 15.665374730996389 0.49999999999999994
  endloop
endfacet
facet normal -0.810360793436807 -0.5859312113725199 -0.0
  outer loop
    vertex 5.365256627058056 15.665374730996389 0.0
    vertex 4.600462927824686 16.723107817913647 0.49999999999999994
    vertex 4.600462927824686 16.723107817913647 0.0
  endloop
endfacet
facet normal -0.5859312113725189 0.8103607934368078 0.0
  outer loop
    vertex 5.566541013372286 22.733577090566044 0.49999999999999994
    vertex 6.624274100289547 23.498370789799413 0.0
    vertex 5.566541013372286 22.733577090566044 0.0
  endloop
endfacet
facet normal -0.5859312113725189 0.8103607934368078 0.0
  outer loop
    vertex 6.624274100289547 23.498370789799413 0.0
    vertex 5.566541013372286 22.733577090566044 0.49999999999999994
    vertex 6.624274100289547 23.498370789799413 0.49999999999999994
  endloop
endfacet
facet normal 0.15869567937651965 0.9873275451172346 0.0
  outer loop
    vertex 9.142329554509764 24.09680753687456 0.49999999999999994
    vertex 10.431050603891002 23.88966810936665 0.0
    vertex 9.142329554509764 24.09680753687456 0.0
  endloop
endfacet
facet normal 0.15869567937651965 0.9873275451172346 0.0
  outer loop
    vertex 10.431050603891002 23.88966810936665 0.0
    vertex 9.142329554509764 24.09680753687456 0.49999999999999994
    vertex 10.431050603891002 23.88966810936665 0.49999999999999994
  endloop
endfacet
facet normal 0.9343985756159124 0.356229282747719 0.0
  outer loop
    vertex 13.399537072175317 21.474559617334553 0.0
    vertex 13.864509590518717 20.2549247364247 0.49999999999999994
    vertex 13.864509590518717 20.2549247364247 0.0
  endloop
endfacet
facet normal 0.9343985756159124 0.356229282747719 0.0
  outer loop
    vertex 13.864509590518717 20.2549247364247 0.49999999999999994
    vertex 13.399537072175317 21.474559617334553 0.0
    vertex 13.399537072175317 21.474559617334553 0.49999999999999994
  endloop
endfacet
facet normal -0.9343985756159117 -0.3562292827477206 -0.0
  outer loop
    vertex 4.135490409481284 17.942742698823498 0.49999999999999994
    vertex 4.600462927824686 16.723107817913647 0.0
    vertex 4.600462927824686 16.723107817913647 0.49999999999999994
  endloop
endfacet
facet normal -0.9343985756159117 -0.3562292827477206 -0.0
  outer loop
    vertex 4.600462927824686 16.723107817913647 0.0
    vertex 4.135490409481284 17.942742698823498 0.49999999999999994
    vertex 4.135490409481284 17.942742698823498 0.0
  endloop
endfacet
facet normal 0.994758639033449 0.10225091720038798 0.0
  outer loop
    vertex 13.864509590518717 20.2549247364247 0.0
    vertex 13.997973819250461 18.956504163114335 0.49999999999999994
    vertex 13.997973819250461 18.956504163114335 0.0
  endloop
endfacet
facet normal 0.994758639033449 0.10225091720038798 0.0
  outer loop
    vertex 13.997973819250461 18.956504163114335 0.49999999999999994
    vertex 13.864509590518717 20.2549247364247 0.0
    vertex 13.864509590518717 20.2549247364247 0.49999999999999994
  endloop
endfacet
facet normal 0.9873275451172346 -0.15869567937651982 0.0
  outer loop
    vertex 13.997973819250461 18.956504163114335 0.0
    vertex 13.790834391742548 17.667783113733098 0.49999999999999994
    vertex 13.790834391742548 17.667783113733098 0.0
  endloop
endfacet
facet normal 0.9873275451172346 -0.15869567937651982 0.0
  outer loop
    vertex 13.790834391742548 17.667783113733098 0.49999999999999994
    vertex 13.997973819250461 18.956504163114335 0.0
    vertex 13.997973819250461 18.956504163114335 0.49999999999999994
  endloop
endfacet
facet normal 0.6310982623695143 0.7757028962393913 0.0
  outer loop
    vertex 11.622247919540012 23.35604123528965 0.49999999999999994
    vertex 12.634743372941944 22.532292704251812 0.0
    vertex 11.622247919540012 23.35604123528965 0.0
  endloop
endfacet
facet normal 0.6310982623695143 0.7757028962393913 0.0
  outer loop
    vertex 12.634743372941944 22.532292704251812 0.0
    vertex 11.622247919540012 23.35604123528965 0.49999999999999994
    vertex 12.634743372941944 22.532292704251812 0.49999999999999994
  endloop
endfacet
facet normal 0.9126117106371949 -0.40882742766093033 0.0
  outer loop
    vertex 13.790834391742548 17.667783113733098 0.0
    vertex 13.257207517665549 16.47658579808409 0.49999999999999994
    vertex 13.257207517665549 16.47658579808409 0.0
  endloop
endfacet
facet normal 0.9126117106371949 -0.40882742766093033 0.0
  outer loop
    vertex 13.257207517665549 16.47658579808409 0.49999999999999994
    vertex 13.790834391742548 17.667783113733098 0.0
    vertex 13.790834391742548 17.667783113733098 0.49999999999999994
  endloop
endfacet
facet normal -0.10225091720038798 0.994758639033449 0.0
  outer loop
    vertex 7.843908981199397 23.963343308142818 0.49999999999999994
    vertex 9.142329554509764 24.09680753687456 0.0
    vertex 7.843908981199397 23.963343308142818 0.0
  endloop
endfacet
facet normal -0.10225091720038798 0.994758639033449 0.0
  outer loop
    vertex 9.142329554509764 24.09680753687456 0.0
    vertex 7.843908981199397 23.963343308142818 0.49999999999999994
    vertex 9.142329554509764 24.09680753687456 0.49999999999999994
  endloop
endfacet
facet normal -0.631098262369515 -0.7757028962393907 -0.0
  outer loop
    vertex 6.377752080459991 14.841626199958549 0.49999999999999994
    vertex 5.365256627058056 15.665374730996389 0.0
    vertex 6.377752080459991 14.841626199958549 0.0
  endloop
endfacet
facet normal -0.631098262369515 -0.7757028962393907 -0.0
  outer loop
    vertex 5.365256627058056 15.665374730996389 0.0
    vertex 6.377752080459991 14.841626199958549 0.49999999999999994
    vertex 5.365256627058056 15.665374730996389 0.49999999999999994
  endloop
endfacet
facet normal 0.40882742766092955 0.9126117106371952 0.0
  outer loop
    vertex 10.431050603891002 23.88966810936665 0.49999999999999994
    vertex 11.622247919540012 23.35604123528965 0.0
    vertex 10.431050603891002 23.88966810936665 0.0
  endloop
endfacet
facet normal 0.40882742766092955 0.9126117106371952 0.0
  outer loop
    vertex 11.622247919540012 23.35604123528965 0.0
    vertex 10.431050603891002 23.88966810936665 0.49999999999999994
    vertex 11.622247919540012 23.35604123528965 0.49999999999999994
  endloop
endfacet
facet normal -0.35622928274772153 0.9343985756159113 0.0
  outer loop
    vertex 6.624274100289547 23.498370789799413 0.49999999999999994
    vertex 7.843908981199397 23.963343308142818 0.0
    vertex 6.624274100289547 23.498370789799413 0.0
  endloop
endfacet
facet normal -0.35622928274772153 0.9343985756159113 0.0
  outer loop
    vertex 7.843908981199397 23.963343308142818 0.0
    vertex 6.624274100289547 23.498370789799413 0.49999999999999994
    vertex 7.843908981199397 23.963343308142818 0.49999999999999994
  endloop
endfacet
facet normal -0.5859312113725195 0.8103607934368073 0.0
  outer loop
    vertex 11.136103305225621 15.143046695862987 0.49999999999999994
    vertex 12.087150369740026 15.83070108770476 0.0
    vertex 11.136103305225621 15.143046695862987 0.0
  endloop
endfacet
facet normal -0.5859312113725195 0.8103607934368073 0.0
  outer loop
    vertex 12.087150369740026 15.83070108770476 0.0
    vertex 11.136103305225621 15.143046695862987 0.49999999999999994
    vertex 12.087150369740026 15.83070108770476 0.49999999999999994
  endloop
endfacet
facet normal 0.7757028962393917 -0.6310982623695137 0.0
  outer loop
    vertex 13.257207517665549 16.47658579808409 0.0
    vertex 12.433458986627713 15.464090344682157 0.49999999999999994
    vertex 12.433458986627713 15.464090344682157 0.0
  endloop
endfacet
facet normal 0.7757028962393917 -0.6310982623695137 0.0
  outer loop
    vertex 12.433458986627713 15.464090344682157 0.49999999999999994
    vertex 13.257207517665549 16.47658579808409 0.0
    vertex 13.257207517665549 16.47658579808409 0.49999999999999994
  endloop
endfacet
facet normal 0.5859312113725196 -0.8103607934368073 0.0
  outer loop
    vertex 12.433458986627713 15.464090344682157 0.49999999999999994
    vertex 11.375725899710451 14.699296645448785 0.0
    vertex 12.433458986627713 15.464090344682157 0.0
  endloop
endfacet
facet normal 0.5859312113725196 -0.8103607934368073 0.0
  outer loop
    vertex 11.375725899710451 14.699296645448785 0.0
    vertex 12.433458986627713 15.464090344682157 0.49999999999999994
    vertex 11.375725899710451 14.699296645448785 0.49999999999999994
  endloop
endfacet
facet normal -0.3562292827477206 0.9343985756159117 0.0
  outer loop
    vertex 10.03948433053771 14.72497265230709 0.49999999999999994
    vertex 11.136103305225621 15.143046695862987 0.0
    vertex 10.03948433053771 14.72497265230709 0.0
  endloop
endfacet
facet normal -0.3562292827477206 0.9343985756159117 0.0
  outer loop
    vertex 11.136103305225621 15.143046695862987 0.0
    vertex 10.03948433053771 14.72497265230709 0.49999999999999994
    vertex 11.136103305225621 15.143046695862987 0.49999999999999994
  endloop
endfacet
facet normal -0.7757028962393927 0.6310982623695124 0.0
  outer loop
    vertex 12.827813238313846 16.741073317431 0.49999999999999994
    vertex 12.087150369740026 15.83070108770476 0.0
    vertex 12.087150369740026 15.83070108770476 0.49999999999999994
  endloop
endfacet
facet normal -0.7757028962393927 0.6310982623695124 0.0
  outer loop
    vertex 12.087150369740026 15.83070108770476 0.0
    vertex 12.827813238313846 16.741073317431 0.49999999999999994
    vertex 12.827813238313846 16.741073317431 0.0
  endloop
endfacet
facet normal -0.10225091720038598 0.9947586390334491 0.0
  outer loop
    vertex 8.872026216552737 14.604970012205381 0.49999999999999994
    vertex 10.03948433053771 14.72497265230709 0.0
    vertex 8.872026216552737 14.604970012205381 0.0
  endloop
endfacet
facet normal -0.10225091720038598 0.9947586390334491 0.0
  outer loop
    vertex 10.03948433053771 14.72497265230709 0.0
    vertex 8.872026216552737 14.604970012205381 0.49999999999999994
    vertex 10.03948433053771 14.72497265230709 0.49999999999999994
  endloop
endfacet
facet normal -0.9126117106371947 0.40882742766093066 0.0
  outer loop
    vertex 13.307616960457056 17.81212302204712 0.49999999999999994
    vertex 12.827813238313846 16.741073317431 0.0
    vertex 12.827813238313846 16.741073317431 0.49999999999999994
  endloop
endfacet
facet normal -0.9126117106371947 0.40882742766093066 0.0
  outer loop
    vertex 12.827813238313846 16.741073317431 0.0
    vertex 13.307616960457056 17.81212302204712 0.49999999999999994
    vertex 13.307616960457056 17.81212302204712 0.0
  endloop
endfacet
facet normal 0.1022509172003864 -0.9947586390334491 0.0
  outer loop
    vertex 10.156091018800604 14.234324127105385 0.49999999999999994
    vertex 9.806552774929298 14.198395204621052 0.0
    vertex 10.156091018800604 14.234324127105385 0.0
  endloop
endfacet
facet normal 0.1022509172003864 -0.9947586390334491 0.0
  outer loop
    vertex 9.806552774929298 14.198395204621052 0.0
    vertex 10.156091018800604 14.234324127105385 0.49999999999999994
    vertex 9.806552774929298 14.198395204621052 0.49999999999999994
  endloop
endfacet
facet normal 0.15869567937651943 0.9873275451172346 0.0
  outer loop
    vertex 7.7132893044230215 14.791216757167046 0.49999999999999994
    vertex 8.872026216552737 14.604970012205381 0.0
    vertex 7.7132893044230215 14.791216757167046 0.0
  endloop
endfacet
facet normal 0.15869567937651943 0.9873275451172346 0.0
  outer loop
    vertex 8.872026216552737 14.604970012205381 0.0
    vertex 7.7132893044230215 14.791216757167046 0.49999999999999994
    vertex 8.872026216552737 14.604970012205381 0.49999999999999994
  endloop
endfacet
facet normal 0.3562292827477204 -0.9343985756159119 0.0
  outer loop
    vertex 11.375725899710451 14.699296645448785 0.49999999999999994
    vertex 10.156091018800604 14.234324127105385 0.0
    vertex 11.375725899710451 14.699296645448785 0.0
  endloop
endfacet
facet normal 0.3562292827477204 -0.9343985756159119 0.0
  outer loop
    vertex 10.156091018800604 14.234324127105385 0.0
    vertex 11.375725899710451 14.699296645448785 0.49999999999999994
    vertex 10.156091018800604 14.234324127105385 0.49999999999999994
  endloop
endfacet
facet normal -0.0 1.0 0.0
  outer loop
    vertex 4.000000000000001 4.0988337176241005 0.49999999999999994
    vertex 14.0 4.0988337176241005 0.0
    vertex 4.000000000000001 4.0988337176241005 0.0
  endloop
endfacet
facet normal -0.0 1.0 0.0
  outer loop
    vertex 14.0 4.0988337176241005 0.0
    vertex 4.000000000000001 4.0988337176241005 0.49999999999999994
    vertex 14.0 4.0988337176241005 0.49999999999999994
  endloop
endfacet
facet normal -0.0 -1.0 -0.0
  outer loop
    vertex 18.5 31.098833717624103 0.49999999999999994
    vertex 0.0 31.098833717624103 0.0
    vertex 18.5 31.098833717624103 0.0
  endloop
endfacet
facet normal -0.0 -1.0 -0.0
  outer loop
    vertex 0.0 31.098833717624103 0.0
    vertex 18.5 31.098833717624103 0.49999999999999994
    vertex 0.0 31.098833717624103 0.49999999999999994
  endloop
endfacet
facet normal -1.0 0.0 0.0
  outer loop
    vertex 18.5 31.098833717624103 0.49999999999999994
    vertex 18.5 7.098833717624103 0.0
    vertex 18.5 7.098833717624103 0.49999999999999994
  endloop
endfacet
facet normal -1.0 0.0 0.0
  outer loop
    vertex 18.5 7.098833717624103 0.0
    vertex 18.5 31.098833717624103 0.49999999999999994
    vertex 18.5 31.098833717624103 0.0
  endloop
endfacet
facet normal -0.0 -0.0 1.0
  outer loop
    vertex 3.5000000000000013 3.5988337176241005 0.49999999999999994
    vertex 4.000000000000001 4.0988337176241005 0.49999999999999994
    vertex 3.5000000000000013 6.5988337176241 0.49999999999999994
  endloop
endfacet
facet normal -0.0 -0.0 1.0
  outer loop
    vertex 4.000000000000001 4.0988337176241005 0.49999999999999994
    vertex 3.5000000000000013 3.5988337176241005 0.49999999999999994
    vertex 14.499999999999998 3.5988337176241005 0.49999999999999994
  endloop
endfacet
facet normal -0.0 -0.0 1.0
  outer loop
    vertex 4.000000000000001 4.0988337176241005 0.49999999999999994
    vertex 14.499999999999998 3.5988337176241005 0.49999999999999994
    vertex 14.0 4.0988337176241005 0.49999999999999994
  endloop
endfacet
facet normal -0.0 -0.0 1.0
  outer loop
    vertex 14.0 4.0988337176241005 0.49999999999999994
    vertex 14.499999999999998 3.5988337176241005 0.49999999999999994
    vertex 14.0 7.098833717624103 0.49999999999999994
  endloop
endfacet
facet normal -0.0 -0.0 1.0
  outer loop
    vertex 14.0 7.098833717624103 0.49999999999999994
    vertex 14.499999999999998 3.5988337176241005 0.49999999999999994
    vertex 14.499999999999998 6.598833717624103 0.49999999999999994
  endloop
endfacet
facet normal -0.0 -0.0 1.0
  outer loop
    vertex 14.0 7.098833717624103 0.49999999999999994
    vertex 14.499999999999998 6.598833717624103 0.49999999999999994
    vertex 18.5 7.098833717624103 0.49999999999999994
  endloop
endfacet
facet normal -0.0 -0.0 1.0
  outer loop
    vertex 18.5 7.098833717624103 0.49999999999999994
    vertex 14.499999999999998 6.598833717624103 0.49999999999999994
    vertex 19.0 6.598833717624103 0.49999999999999994
  endloop
endfacet
facet normal -0.0 -0.0 1.0
  outer loop
    vertex 18.5 7.098833717624103 0.49999999999999994
    vertex 19.0 6.598833717624103 0.49999999999999994
    vertex 18.5 31.098833717624103 0.49999999999999994
  endloop
endfacet
facet normal -0.0 -0.0 1.0
  outer loop
    vertex -0.49999999999999994 31.5988337176241 0.49999999999999994
    vertex 0.0 31.098833717624103 0.49999999999999994
    vertex 19.0 31.5988337176241 0.49999999999999994
  endloop
endfacet
facet normal -0.0 -0.0 1.0
  outer loop
    vertex 0.0 31.098833717624103 0.49999999999999994
    vertex -0.49999999999999994 31.5988337176241 0.49999999999999994
    vertex 0.0 7.0988337176241005 0.49999999999999994
  endloop
endfacet
facet normal -0.0 -0.0 1.0
  outer loop
    vertex 19.0 31.5988337176241 0.49999999999999994
    vertex 0.0 31.098833717624103 0.49999999999999994
    vertex 18.5 31.098833717624103 0.49999999999999994
  endloop
endfacet
facet normal -0.0 -0.0 1.0
  outer loop
    vertex 19.0 31.5988337176241 0.49999999999999994
    vertex 18.5 31.098833717624103 0.49999999999999994
    vertex 19.0 6.598833717624103 0.49999999999999994
  endloop
endfacet
facet normal -0.0 -0.0 1.0
  outer loop
    vertex -0.49999999999999994 6.5988337176241 0.49999999999999994
    vertex 0.0 7.0988337176241005 0.49999999999999994
    vertex -0.49999999999999994 31.5988337176241 0.49999999999999994
  endloop
endfacet
facet normal -0.0 -0.0 1.0
  outer loop
    vertex 0.0 7.0988337176241005 0.49999999999999994
    vertex -0.49999999999999994 6.5988337176241 0.49999999999999994
    vertex 3.5000000000000013 6.5988337176241 0.49999999999999994
  endloop
endfacet
facet normal -0.0 -0.0 1.0
  outer loop
    vertex 0.0 7.0988337176241005 0.49999999999999994
    vertex 3.5000000000000013 6.5988337176241 0.49999999999999994
    vertex 4.000000000000001 7.0988337176241005 0.49999999999999994
  endloop
endfacet
facet normal -0.0 -0.0 1.0
  outer loop
    vertex 4.000000000000001 7.0988337176241005 0.49999999999999994
    vertex 3.5000000000000013 6.5988337176241 0.49999999999999994
    vertex 4.000000000000001 4.0988337176241005 0.49999999999999994
  endloop
endfacet
facet normal -0.0 1.0 0.0
  outer loop
    vertex -0.49999999999999994 31.5988337176241 0.49999999999999994
    vertex 19.0 31.5988337176241 0.0
    vertex -0.49999999999999994 31.5988337176241 0.0
  endloop
endfacet
facet normal -0.0 1.0 0.0
  outer loop
    vertex 19.0 31.5988337176241 0.0
    vertex -0.49999999999999994 31.5988337176241 0.49999999999999994
    vertex 19.0 31.5988337176241 0.49999999999999994
  endloop
endfacet
facet normal -0.0 -1.0 -0.0
  outer loop
    vertex 19.0 6.598833717624103 0.49999999999999994
    vertex 14.499999999999998 6.598833717624103 0.0
    vertex 19.0 6.598833717624103 0.0
  endloop
endfacet
facet normal -0.0 -1.0 -0.0
  outer loop
    vertex 14.499999999999998 6.598833717624103 0.0
    vertex 19.0 6.598833717624103 0.49999999999999994
    vertex 14.499999999999998 6.598833717624103 0.49999999999999994
  endloop
endfacet
facet normal -0.0 -1.0 -0.0
  outer loop
    vertex 3.5000000000000013 6.5988337176241 0.49999999999999994
    vertex -0.49999999999999994 6.5988337176241 0.0
    vertex 3.5000000000000013 6.5988337176241 0.0
  endloop
endfacet
facet normal -0.0 -1.0 -0.0
  outer loop
    vertex -0.49999999999999994 6.5988337176241 0.0
    vertex 3.5000000000000013 6.5988337176241 0.49999999999999994
    vertex -0.49999999999999994 6.5988337176241 0.49999999999999994
  endloop
endfacet
facet normal -1.0 0.0 0.0
  outer loop
    vertex 14.0 7.098833717624103 0.49999999999999994
    vertex 14.0 4.0988337176241005 0.0
    vertex 14.0 4.0988337176241005 0.49999999999999994
  endloop
endfacet
facet normal -1.0 0.0 0.0
  outer loop
    vertex 14.0 4.0988337176241005 0.0
    vertex 14.0 7.098833717624103 0.49999999999999994
    vertex 14.0 7.098833717624103 0.0
  endloop
endfacet
facet normal -0.0 1.0 0.0
  outer loop
    vertex 14.0 7.098833717624103 0.49999999999999994
    vertex 18.5 7.098833717624103 0.0
    vertex 14.0 7.098833717624103 0.0
  endloop
endfacet
facet normal -0.0 1.0 0.0
  outer loop
    vertex 18.5 7.098833717624103 0.0
    vertex 14.0 7.098833717624103 0.49999999999999994
    vertex 18.5 7.098833717624103 0.49999999999999994
  endloop
endfacet
facet normal 1.0 0.0 0.0
  outer loop
    vertex 19.0 31.5988337176241 0.0
    vertex 19.0 6.598833717624103 0.49999999999999994
    vertex 19.0 6.598833717624103 0.0
  endloop
endfacet
facet normal 1.0 0.0 0.0
  outer loop
    vertex 19.0 6.598833717624103 0.49999999999999994
    vertex 19.0 31.5988337176241 0.0
    vertex 19.0 31.5988337176241 0.49999999999999994
  endloop
endfacet
facet normal -1.0 0.0 0.0
  outer loop
    vertex 3.5000000000000013 6.5988337176241 0.49999999999999994
    vertex 3.5000000000000013 3.5988337176241005 0.0
    vertex 3.5000000000000013 3.5988337176241005 0.49999999999999994
  endloop
endfacet
facet normal -1.0 0.0 0.0
  outer loop
    vertex 3.5000000000000013 3.5988337176241005 0.0
    vertex 3.5000000000000013 6.5988337176241 0.49999999999999994
    vertex 3.5000000000000013 6.5988337176241 0.0
  endloop
endfacet
facet normal 0.0 0.0 -1.0
  outer loop
    vertex 4.742792482334449 21.72108163716411 0.0
    vertex 4.506136294581281 19.226807501071363 0.0
    vertex 4.209165608257453 20.529884321515105 0.0
  endloop
endfacet
facet normal 0.0 0.0 -1.0
  outer loop
    vertex 4.506136294581281 19.226807501071363 0.0
    vertex 4.742792482334449 21.72108163716411 0.0
    vertex 4.692383039542946 20.38554441320109 0.0
  endloop
endfacet
facet normal 0.0 0.0 -1.0
  outer loop
    vertex 4.692383039542946 20.38554441320109 0.0
    vertex 4.742792482334449 21.72108163716411 0.0
    vertex 5.17218676168615 21.4565941178172 0.0
  endloop
endfacet
facet normal 0.0 0.0 -1.0
  outer loop
    vertex 5.17218676168615 21.4565941178172 0.0
    vertex 4.742792482334449 21.72108163716411 0.0
    vertex 5.566541013372286 22.733577090566044 0.0
  endloop
endfacet
facet normal 0.0 0.0 -1.0
  outer loop
    vertex 5.17218676168615 21.4565941178172 0.0
    vertex 5.566541013372286 22.733577090566044 0.0
    vertex 5.912849630259975 22.366966347543443 0.0
  endloop
endfacet
facet normal 0.0 0.0 -1.0
  outer loop
    vertex 5.912849630259975 22.366966347543443 0.0
    vertex 5.566541013372286 22.733577090566044 0.0
    vertex 6.624274100289547 23.498370789799413 0.0
  endloop
endfacet
facet normal 0.0 0.0 -1.0
  outer loop
    vertex 5.912849630259975 22.366966347543443 0.0
    vertex 6.624274100289547 23.498370789799413 0.0
    vertex 6.863896694774374 23.05462073938521 0.0
  endloop
endfacet
facet normal 0.0 0.0 -1.0
  outer loop
    vertex 6.863896694774374 23.05462073938521 0.0
    vertex 6.624274100289547 23.498370789799413 0.0
    vertex 7.843908981199397 23.963343308142818 0.0
  endloop
endfacet
facet normal 0.0 0.0 -1.0
  outer loop
    vertex 6.863896694774374 23.05462073938521 0.0
    vertex 7.843908981199397 23.963343308142818 0.0
    vertex 7.960515669462289 23.472694782941108 0.0
  endloop
endfacet
facet normal 0.0 0.0 -1.0
  outer loop
    vertex 7.960515669462289 23.472694782941108 0.0
    vertex 7.843908981199397 23.963343308142818 0.0
    vertex 9.142329554509764 24.09680753687456 0.0
  endloop
endfacet
facet normal 0.0 0.0 -1.0
  outer loop
    vertex 7.960515669462289 23.472694782941108 0.0
    vertex 9.142329554509764 24.09680753687456 0.0
    vertex 9.127973783447265 23.59269742304282 0.0
  endloop
endfacet
facet normal 0.0 0.0 -1.0
  outer loop
    vertex 9.127973783447265 23.59269742304282 0.0
    vertex 9.142329554509764 24.09680753687456 0.0
    vertex 10.286710695576986 23.406450678081157 0.0
  endloop
endfacet
facet normal 0.0 0.0 -1.0
  outer loop
    vertex 10.286710695576986 23.406450678081157 0.0
    vertex 9.142329554509764 24.09680753687456 0.0
    vertex 10.431050603891002 23.88966810936665 0.0
  endloop
endfacet
facet normal 0.0 0.0 -1.0
  outer loop
    vertex 10.286710695576986 23.406450678081157 0.0
    vertex 10.431050603891002 23.88966810936665 0.0
    vertex 11.3577604001931 22.926646955937947 0.0
  endloop
endfacet
facet normal 0.0 0.0 -1.0
  outer loop
    vertex 11.3577604001931 22.926646955937947 0.0
    vertex 10.431050603891002 23.88966810936665 0.0
    vertex 11.622247919540012 23.35604123528965 0.0
  endloop
endfacet
facet normal 0.0 0.0 -1.0
  outer loop
    vertex 11.3577604001931 22.926646955937947 0.0
    vertex 11.622247919540012 23.35604123528965 0.0
    vertex 12.26813262991934 22.185984087364126 0.0
  endloop
endfacet
facet normal 0.0 0.0 -1.0
  outer loop
    vertex 12.26813262991934 22.185984087364126 0.0
    vertex 11.622247919540012 23.35604123528965 0.0
    vertex 12.634743372941944 22.532292704251812 0.0
  endloop
endfacet
facet normal 0.0 0.0 -1.0
  outer loop
    vertex 12.26813262991934 22.185984087364126 0.0
    vertex 12.634743372941944 22.532292704251812 0.0
    vertex 12.955787021761115 21.23493702284972 0.0
  endloop
endfacet
facet normal 0.0 0.0 -1.0
  outer loop
    vertex 12.955787021761115 21.23493702284972 0.0
    vertex 12.634743372941944 22.532292704251812 0.0
    vertex 13.399537072175317 21.474559617334553 0.0
  endloop
endfacet
facet normal 0.0 0.0 -1.0
  outer loop
    vertex 12.955787021761115 21.23493702284972 0.0
    vertex 13.399537072175317 21.474559617334553 0.0
    vertex 13.373861065317012 20.13831804816181 0.0
  endloop
endfacet
facet normal 0.0 0.0 -1.0
  outer loop
    vertex 13.373861065317012 20.13831804816181 0.0
    vertex 13.399537072175317 21.474559617334553 0.0
    vertex 13.49386370541872 18.970859934176836 0.0
  endloop
endfacet
facet normal 0.0 0.0 -1.0
  outer loop
    vertex 13.49386370541872 18.970859934176836 0.0
    vertex 13.399537072175317 21.474559617334553 0.0
    vertex 13.864509590518717 20.2549247364247 0.0
  endloop
endfacet
facet normal 0.0 0.0 -1.0
  outer loop
    vertex 13.49386370541872 18.970859934176836 0.0
    vertex 13.864509590518717 20.2549247364247 0.0
    vertex 13.790834391742548 17.667783113733098 0.0
  endloop
endfacet
facet normal 0.0 0.0 -1.0
  outer loop
    vertex 13.790834391742548 17.667783113733098 0.0
    vertex 13.864509590518717 20.2549247364247 0.0
    vertex 13.997973819250461 18.956504163114335 0.0
  endloop
endfacet
facet normal 0.0 0.0 -1.0
  outer loop
    vertex 4.209165608257453 20.529884321515105 0.0
    vertex 4.135490409481284 17.942742698823498 0.0
    vertex 4.00202618074954 19.241163272133864 0.0
  endloop
endfacet
facet normal 0.0 0.0 -1.0
  outer loop
    vertex 4.135490409481284 17.942742698823498 0.0
    vertex 4.209165608257453 20.529884321515105 0.0
    vertex 4.600462927824686 16.723107817913647 0.0
  endloop
endfacet
facet normal 0.0 0.0 -1.0
  outer loop
    vertex 4.600462927824686 16.723107817913647 0.0
    vertex 4.209165608257453 20.529884321515105 0.0
    vertex 4.506136294581281 19.226807501071363 0.0
  endloop
endfacet
facet normal 0.0 0.0 -1.0
  outer loop
    vertex 4.600462927824686 16.723107817913647 0.0
    vertex 4.506136294581281 19.226807501071363 0.0
    vertex 4.6261389346829915 18.05934938708639 0.0
  endloop
endfacet
facet normal 0.0 0.0 -1.0
  outer loop
    vertex 4.600462927824686 16.723107817913647 0.0
    vertex 4.6261389346829915 18.05934938708639 0.0
    vertex 5.365256627058056 15.665374730996389 0.0
  endloop
endfacet
facet normal 0.0 0.0 -1.0
  outer loop
    vertex 5.365256627058056 15.665374730996389 0.0
    vertex 4.6261389346829915 18.05934938708639 0.0
    vertex 5.044212978238888 16.962730412398482 0.0
  endloop
endfacet
facet normal 0.0 0.0 -1.0
  outer loop
    vertex 5.365256627058056 15.665374730996389 0.0
    vertex 5.044212978238888 16.962730412398482 0.0
    vertex 5.731867370080658 16.011683347884077 0.0
  endloop
endfacet
facet normal 0.0 0.0 -1.0
  outer loop
    vertex 5.365256627058056 15.665374730996389 0.0
    vertex 5.731867370080658 16.011683347884077 0.0
    vertex 6.377752080459991 14.841626199958549 0.0
  endloop
endfacet
facet normal 0.0 0.0 -1.0
  outer loop
    vertex 6.377752080459991 14.841626199958549 0.0
    vertex 5.731867370080658 16.011683347884077 0.0
    vertex 6.642239599806901 15.271020479310254 0.0
  endloop
endfacet
facet normal 0.0 0.0 -1.0
  outer loop
    vertex 6.377752080459991 14.841626199958549 0.0
    vertex 6.642239599806901 15.271020479310254 0.0
    vertex 7.568949396108999 14.307999325881553 0.0
  endloop
endfacet
facet normal 0.0 0.0 -1.0
  outer loop
    vertex 7.568949396108999 14.307999325881553 0.0
    vertex 6.642239599806901 15.271020479310254 0.0
    vertex 7.7132893044230215 14.791216757167046 0.0
  endloop
endfacet
facet normal 0.0 0.0 -1.0
  outer loop
    vertex 7.568949396108999 14.307999325881553 0.0
    vertex 7.7132893044230215 14.791216757167046 0.0
    vertex 8.857670445490234 14.10085989837364 0.0
  endloop
endfacet
facet normal 0.0 0.0 -1.0
  outer loop
    vertex 8.857670445490234 14.10085989837364 0.0
    vertex 7.7132893044230215 14.791216757167046 0.0
    vertex 8.872026216552737 14.604970012205381 0.0
  endloop
endfacet
facet normal 0.0 0.0 -1.0
  outer loop
    vertex 8.857670445490234 14.10085989837364 0.0
    vertex 8.872026216552737 14.604970012205381 0.0
    vertex 9.806552774929298 14.198395204621052 0.0
  endloop
endfacet
facet normal 0.0 0.0 -1.0
  outer loop
    vertex 9.806552774929298 14.198395204621052 0.0
    vertex 8.872026216552737 14.604970012205381 0.0
    vertex 10.03948433053771 14.72497265230709 0.0
  endloop
endfacet
facet normal 0.0 0.0 -1.0
  outer loop
    vertex 9.806552774929298 14.198395204621052 0.0
    vertex 10.03948433053771 14.72497265230709 0.0
    vertex 10.156091018800604 14.234324127105385 0.0
  endloop
endfacet
facet normal 0.0 0.0 -1.0
  outer loop
    vertex 10.156091018800604 14.234324127105385 0.0
    vertex 10.03948433053771 14.72497265230709 0.0
    vertex 11.136103305225621 15.143046695862987 0.0
  endloop
endfacet
facet normal 0.0 0.0 -1.0
  outer loop
    vertex 10.156091018800604 14.234324127105385 0.0
    vertex 11.136103305225621 15.143046695862987 0.0
    vertex 11.375725899710451 14.699296645448785 0.0
  endloop
endfacet
facet normal 0.0 0.0 -1.0
  outer loop
    vertex 11.375725899710451 14.699296645448785 0.0
    vertex 11.136103305225621 15.143046695862987 0.0
    vertex 12.087150369740026 15.83070108770476 0.0
  endloop
endfacet
facet normal 0.0 0.0 -1.0
  outer loop
    vertex 11.375725899710451 14.699296645448785 0.0
    vertex 12.087150369740026 15.83070108770476 0.0
    vertex 12.433458986627713 15.464090344682157 0.0
  endloop
endfacet
facet normal 0.0 0.0 -1.0
  outer loop
    vertex 12.433458986627713 15.464090344682157 0.0
    vertex 12.087150369740026 15.83070108770476 0.0
    vertex 12.827813238313846 16.741073317431 0.0
  endloop
endfacet
facet normal 0.0 0.0 -1.0
  outer loop
    vertex 12.433458986627713 15.464090344682157 0.0
    vertex 12.827813238313846 16.741073317431 0.0
    vertex 13.257207517665549 16.47658579808409 0.0
  endloop
endfacet
facet normal 0.0 0.0 -1.0
  outer loop
    vertex 13.257207517665549 16.47658579808409 0.0
    vertex 12.827813238313846 16.741073317431 0.0
    vertex 13.307616960457056 17.81212302204712 0.0
  endloop
endfacet
facet normal 0.0 0.0 -1.0
  outer loop
    vertex 13.257207517665549 16.47658579808409 0.0
    vertex 13.307616960457056 17.81212302204712 0.0
    vertex 13.790834391742548 17.667783113733098 0.0
  endloop
endfacet
facet normal 0.0 0.0 -1.0
  outer loop
    vertex 13.790834391742548 17.667783113733098 0.0
    vertex 13.307616960457056 17.81212302204712 0.0
    vertex 13.49386370541872 18.970859934176836 0.0
  endloop
endfacet
facet normal -0.0 -1.0 -0.0
  outer loop
    vertex 14.499999999999998 3.5988337176241005 0.49999999999999994
    vertex 3.5000000000000013 3.5988337176241005 0.0
    vertex 14.499999999999998 3.5988337176241005 0.0
  endloop
endfacet
facet normal -0.0 -1.0 -0.0
  outer loop
    vertex 3.5000000000000013 3.5988337176241005 0.0
    vertex 14.499999999999998 3.5988337176241005 0.49999999999999994
    vertex 3.5000000000000013 3.5988337176241005 0.49999999999999994
  endloop
endfacet
facet normal 1.0 0.0 0.0
  outer loop
    vertex 0.0 31.098833717624103 0.0
    vertex 0.0 7.0988337176241005 0.49999999999999994
    vertex 0.0 7.0988337176241005 0.0
  endloop
endfacet
facet normal 1.0 0.0 0.0
  outer loop
    vertex 0.0 7.0988337176241005 0.49999999999999994
    vertex 0.0 31.098833717624103 0.0
    vertex 0.0 31.098833717624103 0.49999999999999994
  endloop
endfacet
facet normal 1.0 0.0 0.0
  outer loop
    vertex 14.499999999999998 6.598833717624103 0.0
    vertex 14.499999999999998 3.5988337176241005 0.49999999999999994
    vertex 14.499999999999998 3.5988337176241005 0.0
  endloop
endfacet
facet normal 1.0 0.0 0.0
  outer loop
    vertex 14.499999999999998 3.5988337176241005 0.49999999999999994
    vertex 14.499999999999998 6.598833717624103 0.0
    vertex 14.499999999999998 6.598833717624103 0.49999999999999994
  endloop
endfacet
facet normal 0.0 0.0 -1.0
  outer loop
    vertex -0.49999999999999994 31.5988337176241 0.0
    vertex 0.0 31.098833717624103 0.0
    vertex -0.49999999999999994 6.5988337176241 0.0
  endloop
endfacet
facet normal 0.0 0.0 -1.0
  outer loop
    vertex 0.0 31.098833717624103 0.0
    vertex -0.49999999999999994 31.5988337176241 0.0
    vertex 19.0 31.5988337176241 0.0
  endloop
endfacet
facet normal 0.0 0.0 -1.0
  outer loop
    vertex 0.0 31.098833717624103 0.0
    vertex 19.0 31.5988337176241 0.0
    vertex 18.5 31.098833717624103 0.0
  endloop
endfacet
facet normal 0.0 0.0 -1.0
  outer loop
    vertex 18.5 31.098833717624103 0.0
    vertex 19.0 31.5988337176241 0.0
    vertex 18.5 7.098833717624103 0.0
  endloop
endfacet
facet normal 0.0 0.0 -1.0
  outer loop
    vertex 14.0 7.098833717624103 0.0
    vertex 14.499999999999998 6.598833717624103 0.0
    vertex 14.0 4.0988337176241005 0.0
  endloop
endfacet
facet normal 0.0 0.0 -1.0
  outer loop
    vertex 14.499999999999998 6.598833717624103 0.0
    vertex 14.0 7.098833717624103 0.0
    vertex 18.5 7.098833717624103 0.0
  endloop
endfacet
facet normal 0.0 0.0 -1.0
  outer loop
    vertex 14.499999999999998 6.598833717624103 0.0
    vertex 18.5 7.098833717624103 0.0
    vertex 19.0 6.598833717624103 0.0
  endloop
endfacet
facet normal 0.0 0.0 -1.0
  outer loop
    vertex 19.0 6.598833717624103 0.0
    vertex 18.5 7.098833717624103 0.0
    vertex 19.0 31.5988337176241 0.0
  endloop
endfacet
facet normal 0.0 0.0 -1.0
  outer loop
    vertex -0.49999999999999994 6.5988337176241 0.0
    vertex 0.0 7.0988337176241005 0.0
    vertex 3.5000000000000013 6.5988337176241 0.0
  endloop
endfacet
facet normal 0.0 0.0 -1.0
  outer loop
    vertex 0.0 7.0988337176241005 0.0
    vertex -0.49999999999999994 6.5988337176241 0.0
    vertex 0.0 31.098833717624103 0.0
  endloop
endfacet
facet normal 0.0 0.0 -1.0
  outer loop
    vertex 3.5000000000000013 6.5988337176241 0.0
    vertex 0.0 7.0988337176241005 0.0
    vertex 4.000000000000001 7.0988337176241005 0.0
  endloop
endfacet
facet normal 0.0 0.0 -1.0
  outer loop
    vertex 3.5000000000000013 6.5988337176241 0.0
    vertex 4.000000000000001 7.0988337176241005 0.0
    vertex 3.5000000000000013 3.5988337176241005 0.0
  endloop
endfacet
facet normal 0.0 0.0 -1.0
  outer loop
    vertex 3.5000000000000013 3.5988337176241005 0.0
    vertex 4.000000000000001 7.0988337176241005 0.0
    vertex 4.000000000000001 4.0988337176241005 0.0
  endloop
endfacet
facet normal 0.0 0.0 -1.0
  outer loop
    vertex 3.5000000000000013 3.5988337176241005 0.0
    vertex 4.000000000000001 4.0988337176241005 0.0
    vertex 14.499999999999998 3.5988337176241005 0.0
  endloop
endfacet
facet normal 0.0 0.0 -1.0
  outer loop
    vertex 14.499999999999998 3.5988337176241005 0.0
    vertex 4.000000000000001 4.0988337176241005 0.0
    vertex 14.0 4.0988337176241005 0.0
  endloop
endfacet
facet normal 0.0 0.0 -1.0
  outer loop
    vertex 14.499999999999998 3.5988337176241005 0.0
    vertex 14.0 4.0988337176241005 0.0
    vertex 14.499999999999998 6.598833717624103 0.0
  endloop
endfacet
facet normal -0.0 1.0 0.0
  outer loop
    vertex 0.0 7.0988337176241005 0.49999999999999994
    vertex 4.000000000000001 7.0988337176241005 0.0
    vertex 0.0 7.0988337176241005 0.0
  endloop
endfacet
facet normal -0.0 1.0 0.0
  outer loop
    vertex 4.000000000000001 7.0988337176241005 0.0
    vertex 0.0 7.0988337176241005 0.49999999999999994
    vertex 4.000000000000001 7.0988337176241005 0.49999999999999994
  endloop
endfacet
facet normal -1.0 0.0 0.0
  outer loop
    vertex -0.49999999999999994 31.5988337176241 0.49999999999999994
    vertex -0.49999999999999994 6.5988337176241 0.0
    vertex -0.49999999999999994 6.5988337176241 0.49999999999999994
  endloop
endfacet
facet normal -1.0 0.0 0.0
  outer loop
    vertex -0.49999999999999994 6.5988337176241 0.0
    vertex -0.49999999999999994 31.5988337176241 0.49999999999999994
    vertex -0.49999999999999994 31.5988337176241 0.0
  endloop
endfacet
facet normal 1.0 0.0 0.0
  outer loop
    vertex 4.000000000000001 7.0988337176241005 0.0
    vertex 4.000000000000001 4.0988337176241005 0.49999999999999994
    vertex 4.000000000000001 4.0988337176241005 0.0
  endloop
endfacet
facet normal 1.0 0.0 0.0
  outer loop
    vertex 4.000000000000001 4.0988337176241005 0.49999999999999994
    vertex 4.000000000000001 7.0988337176241005 0.0
    vertex 4.000000000000001 7.0988337176241005 0.49999999999999994
  endloop
endfacet
endsolid Untitled-55ee1ed2
