solid Untitled-55ecb9ce
facet normal 0.0 0.0 -1.0
  outer loop
    vertex -0.49999999999999994 37.26705868906881 0.0
    vertex 0.0 36.76705868906881 0.0
    vertex -0.49999999999999994 31.267058689068815 0.0
  endloop
endfacet
facet normal 0.0 0.0 -1.0
  outer loop
    vertex 0.0 36.76705868906881 0.0
    vertex -0.49999999999999994 37.26705868906881 0.0
    vertex 160.5 37.26705868906881 0.0
  endloop
endfacet
facet normal 0.0 0.0 -1.0
  outer loop
    vertex 0.0 36.76705868906881 0.0
    vertex 160.5 37.26705868906881 0.0
    vertex 160.0 36.76705868906881 0.0
  endloop
endfacet
facet normal 0.0 0.0 -1.0
  outer loop
    vertex 160.0 36.76705868906881 0.0
    vertex 160.5 37.26705868906881 0.0
    vertex 160.0 31.767058689068815 0.0
  endloop
endfacet
facet normal 0.0 0.0 -1.0
  outer loop
    vertex -0.49999999999999994 31.267058689068815 0.0
    vertex 0.0 31.767058689068815 0.0
    vertex 160.5 31.267058689068815 0.0
  endloop
endfacet
facet normal 0.0 0.0 -1.0
  outer loop
    vertex 0.0 31.767058689068815 0.0
    vertex -0.49999999999999994 31.267058689068815 0.0
    vertex 0.0 36.76705868906881 0.0
  endloop
endfacet
facet normal 0.0 0.0 -1.0
  outer loop
    vertex 160.5 31.267058689068815 0.0
    vertex 0.0 31.767058689068815 0.0
    vertex 160.0 31.767058689068815 0.0
  endloop
endfacet
facet normal 0.0 0.0 -1.0
  outer loop
    vertex 160.5 31.267058689068815 0.0
    vertex 160.0 31.767058689068815 0.0
    vertex 160.5 37.26705868906881 0.0
  endloop
endfacet
facet normal -0.0 -1.0 -0.0
  outer loop
    vertex 160.5 37.4660172883889 0.49999999999999994
    vertex -0.49999999999999994 37.4660172883889 0.0
    vertex 160.5 37.4660172883889 0.0
  endloop
endfacet
facet normal -0.0 -1.0 -0.0
  outer loop
    vertex -0.49999999999999994 37.4660172883889 0.0
    vertex 160.5 37.4660172883889 0.49999999999999994
    vertex -0.49999999999999994 37.4660172883889 0.49999999999999994
  endloop
endfacet
facet normal -0.0 -1.0 -0.0
  outer loop
    vertex 160.5 31.267058689068815 0.49999999999999994
    vertex -0.49999999999999994 31.267058689068815 0.0
    vertex 160.5 31.267058689068815 0.0
  endloop
endfacet
facet normal -0.0 -1.0 -0.0
  outer loop
    vertex -0.49999999999999994 31.267058689068815 0.0
    vertex 160.5 31.267058689068815 0.49999999999999994
    vertex -0.49999999999999994 31.267058689068815 0.49999999999999994
  endloop
endfacet
facet normal 1.0 0.0 0.0
  outer loop
    vertex 160.5 37.26705868906881 0.0
    vertex 160.5 31.267058689068815 0.49999999999999994
    vertex 160.5 31.267058689068815 0.0
  endloop
endfacet
facet normal 1.0 0.0 0.0
  outer loop
    vertex 160.5 31.267058689068815 0.49999999999999994
    vertex 160.5 37.26705868906881 0.0
    vertex 160.5 37.26705868906881 0.49999999999999994
  endloop
endfacet
facet normal 0.0 0.0 -1.0
  outer loop
    vertex -0.49999999999999994 18.130236140914366 0.0
    vertex 0.0 17.630236140914366 0.0
    vertex -0.49999999999999994 12.130236140914366 0.0
  endloop
endfacet
facet normal 0.0 0.0 -1.0
  outer loop
    vertex 0.0 17.630236140914366 0.0
    vertex -0.49999999999999994 18.130236140914366 0.0
    vertex 160.5 18.130236140914366 0.0
  endloop
endfacet
facet normal 0.0 0.0 -1.0
  outer loop
    vertex 0.0 17.630236140914366 0.0
    vertex 160.5 18.130236140914366 0.0
    vertex 160.0 17.630236140914366 0.0
  endloop
endfacet
facet normal 0.0 0.0 -1.0
  outer loop
    vertex 160.0 17.630236140914366 0.0
    vertex 160.5 18.130236140914366 0.0
    vertex 160.0 12.630236140914366 0.0
  endloop
endfacet
facet normal 0.0 0.0 -1.0
  outer loop
    vertex -0.49999999999999994 12.130236140914366 0.0
    vertex 0.0 12.630236140914366 0.0
    vertex 160.5 12.130236140914366 0.0
  endloop
endfacet
facet normal 0.0 0.0 -1.0
  outer loop
    vertex 0.0 12.630236140914366 0.0
    vertex -0.49999999999999994 12.130236140914366 0.0
    vertex 0.0 17.630236140914366 0.0
  endloop
endfacet
facet normal 0.0 0.0 -1.0
  outer loop
    vertex 160.5 12.130236140914366 0.0
    vertex 0.0 12.630236140914366 0.0
    vertex 160.0 12.630236140914366 0.0
  endloop
endfacet
facet normal 0.0 0.0 -1.0
  outer loop
    vertex 160.5 12.130236140914366 0.0
    vertex 160.0 12.630236140914366 0.0
    vertex 160.5 18.130236140914366 0.0
  endloop
endfacet
facet normal -1.0 0.0 0.0
  outer loop
    vertex 160.0 36.76705868906881 0.49999999999999994
    vertex 160.0 31.767058689068815 0.0
    vertex 160.0 31.767058689068815 0.49999999999999994
  endloop
endfacet
facet normal -1.0 0.0 0.0
  outer loop
    vertex 160.0 31.767058689068815 0.0
    vertex 160.0 36.76705868906881 0.49999999999999994
    vertex 160.0 36.76705868906881 0.0
  endloop
endfacet
facet normal -1.0 0.0 0.0
  outer loop
    vertex -0.49999999999999994 43.4660172883889 0.49999999999999994
    vertex -0.49999999999999994 37.4660172883889 0.0
    vertex -0.49999999999999994 37.4660172883889 0.49999999999999994
  endloop
endfacet
facet normal -1.0 0.0 0.0
  outer loop
    vertex -0.49999999999999994 37.4660172883889 0.0
    vertex -0.49999999999999994 43.4660172883889 0.49999999999999994
    vertex -0.49999999999999994 43.4660172883889 0.0
  endloop
endfacet
facet normal 1.0 0.0 0.0
  outer loop
    vertex 0.0 49.397294829983174 0.0
    vertex 0.0 44.39729482998318 0.49999999999999994
    vertex 0.0 44.39729482998318 0.0
  endloop
endfacet
facet normal 1.0 0.0 0.0
  outer loop
    vertex 0.0 44.39729482998318 0.49999999999999994
    vertex 0.0 49.397294829983174 0.0
    vertex 0.0 49.397294829983174 0.49999999999999994
  endloop
endfacet
facet normal 0.0 1.0 0.0
  outer loop
    vertex 0.0 31.767058689068815 0.49999999999999994
    vertex 160.0 31.767058689068815 0.0
    vertex 0.0 31.767058689068815 0.0
  endloop
endfacet
facet normal 0.0 1.0 0.0
  outer loop
    vertex 160.0 31.767058689068815 0.0
    vertex 0.0 31.767058689068815 0.49999999999999994
    vertex 160.0 31.767058689068815 0.49999999999999994
  endloop
endfacet
facet normal 1.0 0.0 0.0
  outer loop
    vertex 160.5 49.89729482998318 0.0
    vertex 160.5 43.89729482998318 0.49999999999999994
    vertex 160.5 43.89729482998318 0.0
  endloop
endfacet
facet normal 1.0 0.0 0.0
  outer loop
    vertex 160.5 43.89729482998318 0.49999999999999994
    vertex 160.5 49.89729482998318 0.0
    vertex 160.5 49.89729482998318 0.49999999999999994
  endloop
endfacet
facet normal 1.0 0.0 0.0
  outer loop
    vertex 0.0 36.76705868906881 0.0
    vertex 0.0 31.767058689068815 0.49999999999999994
    vertex 0.0 31.767058689068815 0.0
  endloop
endfacet
facet normal 1.0 0.0 0.0
  outer loop
    vertex 0.0 31.767058689068815 0.49999999999999994
    vertex 0.0 36.76705868906881 0.0
    vertex 0.0 36.76705868906881 0.49999999999999994
  endloop
endfacet
facet normal 1.0 0.0 0.0
  outer loop
    vertex 160.5 18.130236140914366 0.0
    vertex 160.5 12.130236140914366 0.49999999999999994
    vertex 160.5 12.130236140914366 0.0
  endloop
endfacet
facet normal 1.0 0.0 0.0
  outer loop
    vertex 160.5 12.130236140914366 0.49999999999999994
    vertex 160.5 18.130236140914366 0.0
    vertex 160.5 18.130236140914366 0.49999999999999994
  endloop
endfacet
facet normal -0.0 -1.0 -0.0
  outer loop
    vertex 160.5 43.89729482998318 0.49999999999999994
    vertex -0.49999999999999994 43.89729482998318 0.0
    vertex 160.5 43.89729482998318 0.0
  endloop
endfacet
facet normal -0.0 -1.0 -0.0
  outer loop
    vertex -0.49999999999999994 43.89729482998318 0.0
    vertex 160.5 43.89729482998318 0.49999999999999994
    vertex -0.49999999999999994 43.89729482998318 0.49999999999999994
  endloop
endfacet
facet normal -1.0 0.0 0.0
  outer loop
    vertex 160.0 30.335781147474535 0.49999999999999994
    vertex 160.0 25.33578114747453 0.0
    vertex 160.0 25.33578114747453 0.49999999999999994
  endloop
endfacet
facet normal -1.0 0.0 0.0
  outer loop
    vertex 160.0 25.33578114747453 0.0
    vertex 160.0 30.335781147474535 0.49999999999999994
    vertex 160.0 30.335781147474535 0.0
  endloop
endfacet
facet normal -0.0 -1.0 -0.0
  outer loop
    vertex 160.5 24.835781147474535 0.49999999999999994
    vertex -0.49999999999999994 24.835781147474535 0.0
    vertex 160.5 24.835781147474535 0.0
  endloop
endfacet
facet normal -0.0 -1.0 -0.0
  outer loop
    vertex -0.49999999999999994 24.835781147474535 0.0
    vertex 160.5 24.835781147474535 0.49999999999999994
    vertex -0.49999999999999994 24.835781147474535 0.49999999999999994
  endloop
endfacet
facet normal -1.0 0.0 0.0
  outer loop
    vertex -0.49999999999999994 30.835781147474535 0.49999999999999994
    vertex -0.49999999999999994 24.835781147474535 0.0
    vertex -0.49999999999999994 24.835781147474535 0.49999999999999994
  endloop
endfacet
facet normal -1.0 0.0 0.0
  outer loop
    vertex -0.49999999999999994 24.835781147474535 0.0
    vertex -0.49999999999999994 30.835781147474535 0.49999999999999994
    vertex -0.49999999999999994 30.835781147474535 0.0
  endloop
endfacet
facet normal 0.0 1.0 0.0
  outer loop
    vertex -0.49999999999999994 49.89729482998318 0.49999999999999994
    vertex 160.5 49.89729482998318 0.0
    vertex -0.49999999999999994 49.89729482998318 0.0
  endloop
endfacet
facet normal 0.0 1.0 0.0
  outer loop
    vertex 160.5 49.89729482998318 0.0
    vertex -0.49999999999999994 49.89729482998318 0.49999999999999994
    vertex 160.5 49.89729482998318 0.49999999999999994
  endloop
endfacet
facet normal 0.0 1.0 0.0
  outer loop
    vertex -0.49999999999999994 18.130236140914366 0.49999999999999994
    vertex 160.5 18.130236140914366 0.0
    vertex -0.49999999999999994 18.130236140914366 0.0
  endloop
endfacet
facet normal 0.0 1.0 0.0
  outer loop
    vertex 160.5 18.130236140914366 0.0
    vertex -0.49999999999999994 18.130236140914366 0.49999999999999994
    vertex 160.5 18.130236140914366 0.49999999999999994
  endloop
endfacet
facet normal -1.0 0.0 0.0
  outer loop
    vertex -0.49999999999999994 37.26705868906881 0.49999999999999994
    vertex -0.49999999999999994 31.267058689068815 0.0
    vertex -0.49999999999999994 31.267058689068815 0.49999999999999994
  endloop
endfacet
facet normal -1.0 0.0 0.0
  outer loop
    vertex -0.49999999999999994 31.267058689068815 0.0
    vertex -0.49999999999999994 37.26705868906881 0.49999999999999994
    vertex -0.49999999999999994 37.26705868906881 0.0
  endloop
endfacet
facet normal 0.0 1.0 0.0
  outer loop
    vertex 0.0 25.33578114747453 0.49999999999999994
    vertex 160.0 25.33578114747453 0.0
    vertex 0.0 25.33578114747453 0.0
  endloop
endfacet
facet normal 0.0 1.0 0.0
  outer loop
    vertex 160.0 25.33578114747453 0.0
    vertex 0.0 25.33578114747453 0.49999999999999994
    vertex 160.0 25.33578114747453 0.49999999999999994
  endloop
endfacet
facet normal 0.0 0.0 1.0
  outer loop
    vertex -0.49999999999999994 31.267058689068815 0.49999999999999994
    vertex 0.0 31.767058689068815 0.49999999999999994
    vertex -0.49999999999999994 37.26705868906881 0.49999999999999994
  endloop
endfacet
facet normal 0.0 0.0 1.0
  outer loop
    vertex 0.0 31.767058689068815 0.49999999999999994
    vertex -0.49999999999999994 31.267058689068815 0.49999999999999994
    vertex 160.5 31.267058689068815 0.49999999999999994
  endloop
endfacet
facet normal 0.0 0.0 1.0
  outer loop
    vertex 0.0 31.767058689068815 0.49999999999999994
    vertex 160.5 31.267058689068815 0.49999999999999994
    vertex 160.0 31.767058689068815 0.49999999999999994
  endloop
endfacet
facet normal 0.0 0.0 1.0
  outer loop
    vertex 160.0 31.767058689068815 0.49999999999999994
    vertex 160.5 31.267058689068815 0.49999999999999994
    vertex 160.0 36.76705868906881 0.49999999999999994
  endloop
endfacet
facet normal 0.0 0.0 1.0
  outer loop
    vertex -0.49999999999999994 37.26705868906881 0.49999999999999994
    vertex 0.0 36.76705868906881 0.49999999999999994
    vertex 160.5 37.26705868906881 0.49999999999999994
  endloop
endfacet
facet normal 0.0 0.0 1.0
  outer loop
    vertex 0.0 36.76705868906881 0.49999999999999994
    vertex -0.49999999999999994 37.26705868906881 0.49999999999999994
    vertex 0.0 31.767058689068815 0.49999999999999994
  endloop
endfacet
facet normal 0.0 0.0 1.0
  outer loop
    vertex 160.5 37.26705868906881 0.49999999999999994
    vertex 0.0 36.76705868906881 0.49999999999999994
    vertex 160.0 36.76705868906881 0.49999999999999994
  endloop
endfacet
facet normal 0.0 0.0 1.0
  outer loop
    vertex 160.5 37.26705868906881 0.49999999999999994
    vertex 160.0 36.76705868906881 0.49999999999999994
    vertex 160.5 31.267058689068815 0.49999999999999994
  endloop
endfacet
facet normal -0.0 -1.0 -0.0
  outer loop
    vertex 160.0 30.335781147474535 0.49999999999999994
    vertex 0.0 30.335781147474535 0.0
    vertex 160.0 30.335781147474535 0.0
  endloop
endfacet
facet normal -0.0 -1.0 -0.0
  outer loop
    vertex 0.0 30.335781147474535 0.0
    vertex 160.0 30.335781147474535 0.49999999999999994
    vertex 0.0 30.335781147474535 0.49999999999999994
  endloop
endfacet
facet normal 1.0 0.0 0.0
  outer loop
    vertex 0.0 30.335781147474535 0.0
    vertex 0.0 25.33578114747453 0.49999999999999994
    vertex 0.0 25.33578114747453 0.0
  endloop
endfacet
facet normal 1.0 0.0 0.0
  outer loop
    vertex 0.0 25.33578114747453 0.49999999999999994
    vertex 0.0 30.335781147474535 0.0
    vertex 0.0 30.335781147474535 0.49999999999999994
  endloop
endfacet
facet normal 0.0 1.0 0.0
  outer loop
    vertex -0.49999999999999994 30.835781147474535 0.49999999999999994
    vertex 160.5 30.835781147474535 0.0
    vertex -0.49999999999999994 30.835781147474535 0.0
  endloop
endfacet
facet normal 0.0 1.0 0.0
  outer loop
    vertex 160.5 30.835781147474535 0.0
    vertex -0.49999999999999994 30.835781147474535 0.49999999999999994
    vertex 160.5 30.835781147474535 0.49999999999999994
  endloop
endfacet
facet normal 0.0 0.0 1.0
  outer loop
    vertex -0.49999999999999994 12.130236140914366 0.49999999999999994
    vertex 0.0 12.630236140914366 0.49999999999999994
    vertex -0.49999999999999994 18.130236140914366 0.49999999999999994
  endloop
endfacet
facet normal 0.0 0.0 1.0
  outer loop
    vertex 0.0 12.630236140914366 0.49999999999999994
    vertex -0.49999999999999994 12.130236140914366 0.49999999999999994
    vertex 160.5 12.130236140914366 0.49999999999999994
  endloop
endfacet
facet normal 0.0 0.0 1.0
  outer loop
    vertex 0.0 12.630236140914366 0.49999999999999994
    vertex 160.5 12.130236140914366 0.49999999999999994
    vertex 160.0 12.630236140914366 0.49999999999999994
  endloop
endfacet
facet normal 0.0 0.0 1.0
  outer loop
    vertex 160.0 12.630236140914366 0.49999999999999994
    vertex 160.5 12.130236140914366 0.49999999999999994
    vertex 160.0 17.630236140914366 0.49999999999999994
  endloop
endfacet
facet normal 0.0 0.0 1.0
  outer loop
    vertex -0.49999999999999994 18.130236140914366 0.49999999999999994
    vertex 0.0 17.630236140914366 0.49999999999999994
    vertex 160.5 18.130236140914366 0.49999999999999994
  endloop
endfacet
facet normal 0.0 0.0 1.0
  outer loop
    vertex 0.0 17.630236140914366 0.49999999999999994
    vertex -0.49999999999999994 18.130236140914366 0.49999999999999994
    vertex 0.0 12.630236140914366 0.49999999999999994
  endloop
endfacet
facet normal 0.0 0.0 1.0
  outer loop
    vertex 160.5 18.130236140914366 0.49999999999999994
    vertex 0.0 17.630236140914366 0.49999999999999994
    vertex 160.0 17.630236140914366 0.49999999999999994
  endloop
endfacet
facet normal 0.0 0.0 1.0
  outer loop
    vertex 160.5 18.130236140914366 0.49999999999999994
    vertex 160.0 17.630236140914366 0.49999999999999994
    vertex 160.5 12.130236140914366 0.49999999999999994
  endloop
endfacet
facet normal 1.0 0.0 0.0
  outer loop
    vertex 160.5 30.835781147474535 0.0
    vertex 160.5 24.835781147474535 0.49999999999999994
    vertex 160.5 24.835781147474535 0.0
  endloop
endfacet
facet normal 1.0 0.0 0.0
  outer loop
    vertex 160.5 24.835781147474535 0.49999999999999994
    vertex 160.5 30.835781147474535 0.0
    vertex 160.5 30.835781147474535 0.49999999999999994
  endloop
endfacet
facet normal -1.0 0.0 0.0
  outer loop
    vertex 160.0 49.397294829983174 0.49999999999999994
    vertex 160.0 44.39729482998318 0.0
    vertex 160.0 44.39729482998318 0.49999999999999994
  endloop
endfacet
facet normal -1.0 0.0 0.0
  outer loop
    vertex 160.0 44.39729482998318 0.0
    vertex 160.0 49.397294829983174 0.49999999999999994
    vertex 160.0 49.397294829983174 0.0
  endloop
endfacet
facet normal -0.0 -1.0 -0.0
  outer loop
    vertex 160.0 17.630236140914366 0.49999999999999994
    vertex 0.0 17.630236140914366 0.0
    vertex 160.0 17.630236140914366 0.0
  endloop
endfacet
facet normal -0.0 -1.0 -0.0
  outer loop
    vertex 0.0 17.630236140914366 0.0
    vertex 160.0 17.630236140914366 0.49999999999999994
    vertex 0.0 17.630236140914366 0.49999999999999994
  endloop
endfacet
facet normal 1.0 0.0 0.0
  outer loop
    vertex 0.0 17.630236140914366 0.0
    vertex 0.0 12.630236140914366 0.49999999999999994
    vertex 0.0 12.630236140914366 0.0
  endloop
endfacet
facet normal 1.0 0.0 0.0
  outer loop
    vertex 0.0 12.630236140914366 0.49999999999999994
    vertex 0.0 17.630236140914366 0.0
    vertex 0.0 17.630236140914366 0.49999999999999994
  endloop
endfacet
facet normal 0.0 1.0 0.0
  outer loop
    vertex 0.0 37.9660172883889 0.49999999999999994
    vertex 160.0 37.9660172883889 0.0
    vertex 0.0 37.9660172883889 0.0
  endloop
endfacet
facet normal 0.0 1.0 0.0
  outer loop
    vertex 160.0 37.9660172883889 0.0
    vertex 0.0 37.9660172883889 0.49999999999999994
    vertex 160.0 37.9660172883889 0.49999999999999994
  endloop
endfacet
facet normal 0.0 1.0 0.0
  outer loop
    vertex -0.49999999999999994 37.26705868906881 0.49999999999999994
    vertex 160.5 37.26705868906881 0.0
    vertex -0.49999999999999994 37.26705868906881 0.0
  endloop
endfacet
facet normal 0.0 1.0 0.0
  outer loop
    vertex 160.5 37.26705868906881 0.0
    vertex -0.49999999999999994 37.26705868906881 0.49999999999999994
    vertex 160.5 37.26705868906881 0.49999999999999994
  endloop
endfacet
facet normal -0.0 -1.0 -0.0
  outer loop
    vertex 160.0 36.76705868906881 0.49999999999999994
    vertex 0.0 36.76705868906881 0.0
    vertex 160.0 36.76705868906881 0.0
  endloop
endfacet
facet normal -0.0 -1.0 -0.0
  outer loop
    vertex 0.0 36.76705868906881 0.0
    vertex 160.0 36.76705868906881 0.49999999999999994
    vertex 0.0 36.76705868906881 0.49999999999999994
  endloop
endfacet
facet normal -1.0 0.0 0.0
  outer loop
    vertex -0.49999999999999994 49.89729482998318 0.49999999999999994
    vertex -0.49999999999999994 43.89729482998318 0.0
    vertex -0.49999999999999994 43.89729482998318 0.49999999999999994
  endloop
endfacet
facet normal -1.0 0.0 0.0
  outer loop
    vertex -0.49999999999999994 43.89729482998318 0.0
    vertex -0.49999999999999994 49.89729482998318 0.49999999999999994
    vertex -0.49999999999999994 49.89729482998318 0.0
  endloop
endfacet
facet normal -1.0 0.0 0.0
  outer loop
    vertex 160.0 42.9660172883889 0.49999999999999994
    vertex 160.0 37.9660172883889 0.0
    vertex 160.0 37.9660172883889 0.49999999999999994
  endloop
endfacet
facet normal -1.0 0.0 0.0
  outer loop
    vertex 160.0 37.9660172883889 0.0
    vertex 160.0 42.9660172883889 0.49999999999999994
    vertex 160.0 42.9660172883889 0.0
  endloop
endfacet
facet normal 0.0 0.0 -1.0
  outer loop
    vertex -0.49999999999999994 30.835781147474535 0.0
    vertex 0.0 30.335781147474535 0.0
    vertex -0.49999999999999994 24.835781147474535 0.0
  endloop
endfacet
facet normal 0.0 0.0 -1.0
  outer loop
    vertex 0.0 30.335781147474535 0.0
    vertex -0.49999999999999994 30.835781147474535 0.0
    vertex 160.5 30.835781147474535 0.0
  endloop
endfacet
facet normal 0.0 0.0 -1.0
  outer loop
    vertex 0.0 30.335781147474535 0.0
    vertex 160.5 30.835781147474535 0.0
    vertex 160.0 30.335781147474535 0.0
  endloop
endfacet
facet normal 0.0 0.0 -1.0
  outer loop
    vertex 160.0 30.335781147474535 0.0
    vertex 160.5 30.835781147474535 0.0
    vertex 160.0 25.33578114747453 0.0
  endloop
endfacet
facet normal 0.0 0.0 -1.0
  outer loop
    vertex -0.49999999999999994 24.835781147474535 0.0
    vertex 0.0 25.33578114747453 0.0
    vertex 160.5 24.835781147474535 0.0
  endloop
endfacet
facet normal 0.0 0.0 -1.0
  outer loop
    vertex 0.0 25.33578114747453 0.0
    vertex -0.49999999999999994 24.835781147474535 0.0
    vertex 0.0 30.335781147474535 0.0
  endloop
endfacet
facet normal 0.0 0.0 -1.0
  outer loop
    vertex 160.5 24.835781147474535 0.0
    vertex 0.0 25.33578114747453 0.0
    vertex 160.0 25.33578114747453 0.0
  endloop
endfacet
facet normal 0.0 0.0 -1.0
  outer loop
    vertex 160.5 24.835781147474535 0.0
    vertex 160.0 25.33578114747453 0.0
    vertex 160.5 30.835781147474535 0.0
  endloop
endfacet
facet normal 0.0 0.0 1.0
  outer loop
    vertex -0.49999999999999994 24.835781147474535 0.49999999999999994
    vertex 0.0 25.33578114747453 0.49999999999999994
    vertex -0.49999999999999994 30.835781147474535 0.49999999999999994
  endloop
endfacet
facet normal 0.0 0.0 1.0
  outer loop
    vertex 0.0 25.33578114747453 0.49999999999999994
    vertex -0.49999999999999994 24.835781147474535 0.49999999999999994
    vertex 160.5 24.835781147474535 0.49999999999999994
  endloop
endfacet
facet normal 0.0 0.0 1.0
  outer loop
    vertex 0.0 25.33578114747453 0.49999999999999994
    vertex 160.5 24.835781147474535 0.49999999999999994
    vertex 160.0 25.33578114747453 0.49999999999999994
  endloop
endfacet
facet normal 0.0 0.0 1.0
  outer loop
    vertex 160.0 25.33578114747453 0.49999999999999994
    vertex 160.5 24.835781147474535 0.49999999999999994
    vertex 160.0 30.335781147474535 0.49999999999999994
  endloop
endfacet
facet normal 0.0 0.0 1.0
  outer loop
    vertex -0.49999999999999994 30.835781147474535 0.49999999999999994
    vertex 0.0 30.335781147474535 0.49999999999999994
    vertex 160.5 30.835781147474535 0.49999999999999994
  endloop
endfacet
facet normal 0.0 0.0 1.0
  outer loop
    vertex 0.0 30.335781147474535 0.49999999999999994
    vertex -0.49999999999999994 30.835781147474535 0.49999999999999994
    vertex 0.0 25.33578114747453 0.49999999999999994
  endloop
endfacet
facet normal 0.0 0.0 1.0
  outer loop
    vertex 160.5 30.835781147474535 0.49999999999999994
    vertex 0.0 30.335781147474535 0.49999999999999994
    vertex 160.0 30.335781147474535 0.49999999999999994
  endloop
endfacet
facet normal 0.0 0.0 1.0
  outer loop
    vertex 160.5 30.835781147474535 0.49999999999999994
    vertex 160.0 30.335781147474535 0.49999999999999994
    vertex 160.5 24.835781147474535 0.49999999999999994
  endloop
endfacet
facet normal 0.0 0.0 -1.0
  outer loop
    vertex -0.49999999999999994 24.561513682508647 0.0
    vertex 0.0 24.061513682508643 0.0
    vertex -0.49999999999999994 18.561513682508647 0.0
  endloop
endfacet
facet normal 0.0 0.0 -1.0
  outer loop
    vertex 0.0 24.061513682508643 0.0
    vertex -0.49999999999999994 24.561513682508647 0.0
    vertex 160.5 24.561513682508647 0.0
  endloop
endfacet
facet normal 0.0 0.0 -1.0
  outer loop
    vertex 0.0 24.061513682508643 0.0
    vertex 160.5 24.561513682508647 0.0
    vertex 160.0 24.061513682508643 0.0
  endloop
endfacet
facet normal 0.0 0.0 -1.0
  outer loop
    vertex 160.0 24.061513682508643 0.0
    vertex 160.5 24.561513682508647 0.0
    vertex 160.0 19.061513682508647 0.0
  endloop
endfacet
facet normal 0.0 0.0 -1.0
  outer loop
    vertex -0.49999999999999994 18.561513682508647 0.0
    vertex 0.0 19.061513682508647 0.0
    vertex 160.5 18.561513682508647 0.0
  endloop
endfacet
facet normal 0.0 0.0 -1.0
  outer loop
    vertex 0.0 19.061513682508647 0.0
    vertex -0.49999999999999994 18.561513682508647 0.0
    vertex 0.0 24.061513682508643 0.0
  endloop
endfacet
facet normal 0.0 0.0 -1.0
  outer loop
    vertex 160.5 18.561513682508647 0.0
    vertex 0.0 19.061513682508647 0.0
    vertex 160.0 19.061513682508647 0.0
  endloop
endfacet
facet normal 0.0 0.0 -1.0
  outer loop
    vertex 160.5 18.561513682508647 0.0
    vertex 160.0 19.061513682508647 0.0
    vertex 160.5 24.561513682508647 0.0
  endloop
endfacet
facet normal 0.0 1.0 0.0
  outer loop
    vertex 0.0 19.061513682508647 0.49999999999999994
    vertex 160.0 19.061513682508647 0.0
    vertex 0.0 19.061513682508647 0.0
  endloop
endfacet
facet normal 0.0 1.0 0.0
  outer loop
    vertex 160.0 19.061513682508647 0.0
    vertex 0.0 19.061513682508647 0.49999999999999994
    vertex 160.0 19.061513682508647 0.49999999999999994
  endloop
endfacet
facet normal 0.0 0.0 1.0
  outer loop
    vertex -0.49999999999999994 18.561513682508647 0.49999999999999994
    vertex 0.0 19.061513682508647 0.49999999999999994
    vertex -0.49999999999999994 24.561513682508647 0.49999999999999994
  endloop
endfacet
facet normal 0.0 0.0 1.0
  outer loop
    vertex 0.0 19.061513682508647 0.49999999999999994
    vertex -0.49999999999999994 18.561513682508647 0.49999999999999994
    vertex 160.5 18.561513682508647 0.49999999999999994
  endloop
endfacet
facet normal 0.0 0.0 1.0
  outer loop
    vertex 0.0 19.061513682508647 0.49999999999999994
    vertex 160.5 18.561513682508647 0.49999999999999994
    vertex 160.0 19.061513682508647 0.49999999999999994
  endloop
endfacet
facet normal 0.0 0.0 1.0
  outer loop
    vertex 160.0 19.061513682508647 0.49999999999999994
    vertex 160.5 18.561513682508647 0.49999999999999994
    vertex 160.0 24.061513682508643 0.49999999999999994
  endloop
endfacet
facet normal 0.0 0.0 1.0
  outer loop
    vertex -0.49999999999999994 24.561513682508647 0.49999999999999994
    vertex 0.0 24.061513682508643 0.49999999999999994
    vertex 160.5 24.561513682508647 0.49999999999999994
  endloop
endfacet
facet normal 0.0 0.0 1.0
  outer loop
    vertex 0.0 24.061513682508643 0.49999999999999994
    vertex -0.49999999999999994 24.561513682508647 0.49999999999999994
    vertex 0.0 19.061513682508647 0.49999999999999994
  endloop
endfacet
facet normal 0.0 0.0 1.0
  outer loop
    vertex 160.5 24.561513682508647 0.49999999999999994
    vertex 0.0 24.061513682508643 0.49999999999999994
    vertex 160.0 24.061513682508643 0.49999999999999994
  endloop
endfacet
facet normal 0.0 0.0 1.0
  outer loop
    vertex 160.5 24.561513682508647 0.49999999999999994
    vertex 160.0 24.061513682508643 0.49999999999999994
    vertex 160.5 18.561513682508647 0.49999999999999994
  endloop
endfacet
facet normal -0.0 -1.0 -0.0
  outer loop
    vertex 160.0 24.061513682508643 0.49999999999999994
    vertex 0.0 24.061513682508643 0.0
    vertex 160.0 24.061513682508643 0.0
  endloop
endfacet
facet normal -0.0 -1.0 -0.0
  outer loop
    vertex 0.0 24.061513682508643 0.0
    vertex 160.0 24.061513682508643 0.49999999999999994
    vertex 0.0 24.061513682508643 0.49999999999999994
  endloop
endfacet
facet normal 1.0 0.0 0.0
  outer loop
    vertex 0.0 24.061513682508643 0.0
    vertex 0.0 19.061513682508647 0.49999999999999994
    vertex 0.0 19.061513682508647 0.0
  endloop
endfacet
facet normal 1.0 0.0 0.0
  outer loop
    vertex 0.0 19.061513682508647 0.49999999999999994
    vertex 0.0 24.061513682508643 0.0
    vertex 0.0 24.061513682508643 0.49999999999999994
  endloop
endfacet
facet normal 0.0 1.0 0.0
  outer loop
    vertex -0.49999999999999994 24.561513682508647 0.49999999999999994
    vertex 160.5 24.561513682508647 0.0
    vertex -0.49999999999999994 24.561513682508647 0.0
  endloop
endfacet
facet normal 0.0 1.0 0.0
  outer loop
    vertex 160.5 24.561513682508647 0.0
    vertex -0.49999999999999994 24.561513682508647 0.49999999999999994
    vertex 160.5 24.561513682508647 0.49999999999999994
  endloop
endfacet
facet normal -0.0 -1.0 -0.0
  outer loop
    vertex 160.5 12.130236140914366 0.49999999999999994
    vertex -0.49999999999999994 12.130236140914366 0.0
    vertex 160.5 12.130236140914366 0.0
  endloop
endfacet
facet normal -0.0 -1.0 -0.0
  outer loop
    vertex -0.49999999999999994 12.130236140914366 0.0
    vertex 160.5 12.130236140914366 0.49999999999999994
    vertex -0.49999999999999994 12.130236140914366 0.49999999999999994
  endloop
endfacet
facet normal -1.0 0.0 0.0
  outer loop
    vertex -0.49999999999999994 11.931277541594278 0.49999999999999994
    vertex -0.49999999999999994 5.9312775415942784 0.0
    vertex -0.49999999999999994 5.9312775415942784 0.49999999999999994
  endloop
endfacet
facet normal -1.0 0.0 0.0
  outer loop
    vertex -0.49999999999999994 5.9312775415942784 0.0
    vertex -0.49999999999999994 11.931277541594278 0.49999999999999994
    vertex -0.49999999999999994 11.931277541594278 0.0
  endloop
endfacet
facet normal 0.0 0.0 -1.0
  outer loop
    vertex -0.49999999999999994 11.931277541594278 0.0
    vertex 0.0 11.431277541594278 0.0
    vertex -0.49999999999999994 5.9312775415942784 0.0
  endloop
endfacet
facet normal 0.0 0.0 -1.0
  outer loop
    vertex 0.0 11.431277541594278 0.0
    vertex -0.49999999999999994 11.931277541594278 0.0
    vertex 160.5 11.931277541594278 0.0
  endloop
endfacet
facet normal 0.0 0.0 -1.0
  outer loop
    vertex 0.0 11.431277541594278 0.0
    vertex 160.5 11.931277541594278 0.0
    vertex 160.0 11.431277541594278 0.0
  endloop
endfacet
facet normal 0.0 0.0 -1.0
  outer loop
    vertex 160.0 11.431277541594278 0.0
    vertex 160.5 11.931277541594278 0.0
    vertex 160.0 6.4312775415942784 0.0
  endloop
endfacet
facet normal 0.0 0.0 -1.0
  outer loop
    vertex -0.49999999999999994 5.9312775415942784 0.0
    vertex 0.0 6.4312775415942784 0.0
    vertex 160.5 5.9312775415942784 0.0
  endloop
endfacet
facet normal 0.0 0.0 -1.0
  outer loop
    vertex 0.0 6.4312775415942784 0.0
    vertex -0.49999999999999994 5.9312775415942784 0.0
    vertex 0.0 11.431277541594278 0.0
  endloop
endfacet
facet normal 0.0 0.0 -1.0
  outer loop
    vertex 160.5 5.9312775415942784 0.0
    vertex 0.0 6.4312775415942784 0.0
    vertex 160.0 6.4312775415942784 0.0
  endloop
endfacet
facet normal 0.0 0.0 -1.0
  outer loop
    vertex 160.5 5.9312775415942784 0.0
    vertex 160.0 6.4312775415942784 0.0
    vertex 160.5 11.931277541594278 0.0
  endloop
endfacet
facet normal -1.0 0.0 0.0
  outer loop
    vertex 160.0 24.061513682508643 0.49999999999999994
    vertex 160.0 19.061513682508647 0.0
    vertex 160.0 19.061513682508647 0.49999999999999994
  endloop
endfacet
facet normal -1.0 0.0 0.0
  outer loop
    vertex 160.0 19.061513682508647 0.0
    vertex 160.0 24.061513682508643 0.49999999999999994
    vertex 160.0 24.061513682508643 0.0
  endloop
endfacet
facet normal -1.0 0.0 0.0
  outer loop
    vertex 160.0 17.630236140914366 0.49999999999999994
    vertex 160.0 12.630236140914366 0.0
    vertex 160.0 12.630236140914366 0.49999999999999994
  endloop
endfacet
facet normal -1.0 0.0 0.0
  outer loop
    vertex 160.0 12.630236140914366 0.0
    vertex 160.0 17.630236140914366 0.49999999999999994
    vertex 160.0 17.630236140914366 0.0
  endloop
endfacet
facet normal -1.0 0.0 0.0
  outer loop
    vertex -0.49999999999999994 18.130236140914366 0.49999999999999994
    vertex -0.49999999999999994 12.130236140914366 0.0
    vertex -0.49999999999999994 12.130236140914366 0.49999999999999994
  endloop
endfacet
facet normal -1.0 0.0 0.0
  outer loop
    vertex -0.49999999999999994 12.130236140914366 0.0
    vertex -0.49999999999999994 18.130236140914366 0.49999999999999994
    vertex -0.49999999999999994 18.130236140914366 0.0
  endloop
endfacet
facet normal 1.0 0.0 0.0
  outer loop
    vertex 160.5 24.561513682508647 0.0
    vertex 160.5 18.561513682508647 0.49999999999999994
    vertex 160.5 18.561513682508647 0.0
  endloop
endfacet
facet normal 1.0 0.0 0.0
  outer loop
    vertex 160.5 18.561513682508647 0.49999999999999994
    vertex 160.5 24.561513682508647 0.0
    vertex 160.5 24.561513682508647 0.49999999999999994
  endloop
endfacet
facet normal -1.0 0.0 0.0
  outer loop
    vertex 160.0 11.431277541594278 0.49999999999999994
    vertex 160.0 6.4312775415942784 0.0
    vertex 160.0 6.4312775415942784 0.49999999999999994
  endloop
endfacet
facet normal -1.0 0.0 0.0
  outer loop
    vertex 160.0 6.4312775415942784 0.0
    vertex 160.0 11.431277541594278 0.49999999999999994
    vertex 160.0 11.431277541594278 0.0
  endloop
endfacet
facet normal 0.0 1.0 0.0
  outer loop
    vertex 0.0 12.630236140914366 0.49999999999999994
    vertex 160.0 12.630236140914366 0.0
    vertex 0.0 12.630236140914366 0.0
  endloop
endfacet
facet normal 0.0 1.0 0.0
  outer loop
    vertex 160.0 12.630236140914366 0.0
    vertex 0.0 12.630236140914366 0.49999999999999994
    vertex 160.0 12.630236140914366 0.49999999999999994
  endloop
endfacet
facet normal -0.0 -1.0 -0.0
  outer loop
    vertex 160.5 5.9312775415942784 0.49999999999999994
    vertex -0.49999999999999994 5.9312775415942784 0.0
    vertex 160.5 5.9312775415942784 0.0
  endloop
endfacet
facet normal -0.0 -1.0 -0.0
  outer loop
    vertex -0.49999999999999994 5.9312775415942784 0.0
    vertex 160.5 5.9312775415942784 0.49999999999999994
    vertex -0.49999999999999994 5.9312775415942784 0.49999999999999994
  endloop
endfacet
facet normal 1.0 0.0 0.0
  outer loop
    vertex 160.5 11.931277541594278 0.0
    vertex 160.5 5.9312775415942784 0.49999999999999994
    vertex 160.5 5.9312775415942784 0.0
  endloop
endfacet
facet normal 1.0 0.0 0.0
  outer loop
    vertex 160.5 5.9312775415942784 0.49999999999999994
    vertex 160.5 11.931277541594278 0.0
    vertex 160.5 11.931277541594278 0.49999999999999994
  endloop
endfacet
facet normal 0.0 1.0 0.0
  outer loop
    vertex -0.49999999999999994 43.4660172883889 0.49999999999999994
    vertex 160.5 43.4660172883889 0.0
    vertex -0.49999999999999994 43.4660172883889 0.0
  endloop
endfacet
facet normal 0.0 1.0 0.0
  outer loop
    vertex 160.5 43.4660172883889 0.0
    vertex -0.49999999999999994 43.4660172883889 0.49999999999999994
    vertex 160.5 43.4660172883889 0.49999999999999994
  endloop
endfacet
facet normal 0.0 0.0 1.0
  outer loop
    vertex -0.49999999999999994 37.4660172883889 0.49999999999999994
    vertex 0.0 37.9660172883889 0.49999999999999994
    vertex -0.49999999999999994 43.4660172883889 0.49999999999999994
  endloop
endfacet
facet normal 0.0 0.0 1.0
  outer loop
    vertex 0.0 37.9660172883889 0.49999999999999994
    vertex -0.49999999999999994 37.4660172883889 0.49999999999999994
    vertex 160.5 37.4660172883889 0.49999999999999994
  endloop
endfacet
facet normal 0.0 0.0 1.0
  outer loop
    vertex 0.0 37.9660172883889 0.49999999999999994
    vertex 160.5 37.4660172883889 0.49999999999999994
    vertex 160.0 37.9660172883889 0.49999999999999994
  endloop
endfacet
facet normal 0.0 0.0 1.0
  outer loop
    vertex 160.0 37.9660172883889 0.49999999999999994
    vertex 160.5 37.4660172883889 0.49999999999999994
    vertex 160.0 42.9660172883889 0.49999999999999994
  endloop
endfacet
facet normal 0.0 0.0 1.0
  outer loop
    vertex -0.49999999999999994 43.4660172883889 0.49999999999999994
    vertex 0.0 42.9660172883889 0.49999999999999994
    vertex 160.5 43.4660172883889 0.49999999999999994
  endloop
endfacet
facet normal 0.0 0.0 1.0
  outer loop
    vertex 0.0 42.9660172883889 0.49999999999999994
    vertex -0.49999999999999994 43.4660172883889 0.49999999999999994
    vertex 0.0 37.9660172883889 0.49999999999999994
  endloop
endfacet
facet normal 0.0 0.0 1.0
  outer loop
    vertex 160.5 43.4660172883889 0.49999999999999994
    vertex 0.0 42.9660172883889 0.49999999999999994
    vertex 160.0 42.9660172883889 0.49999999999999994
  endloop
endfacet
facet normal 0.0 0.0 1.0
  outer loop
    vertex 160.5 43.4660172883889 0.49999999999999994
    vertex 160.0 42.9660172883889 0.49999999999999994
    vertex 160.5 37.4660172883889 0.49999999999999994
  endloop
endfacet
facet normal 1.0 0.0 0.0
  outer loop
    vertex 0.0 42.9660172883889 0.0
    vertex 0.0 37.9660172883889 0.49999999999999994
    vertex 0.0 37.9660172883889 0.0
  endloop
endfacet
facet normal 1.0 0.0 0.0
  outer loop
    vertex 0.0 37.9660172883889 0.49999999999999994
    vertex 0.0 42.9660172883889 0.0
    vertex 0.0 42.9660172883889 0.49999999999999994
  endloop
endfacet
facet normal 0.0 1.0 0.0
  outer loop
    vertex 0.0 6.4312775415942784 0.49999999999999994
    vertex 160.0 6.4312775415942784 0.0
    vertex 0.0 6.4312775415942784 0.0
  endloop
endfacet
facet normal 0.0 1.0 0.0
  outer loop
    vertex 160.0 6.4312775415942784 0.0
    vertex 0.0 6.4312775415942784 0.49999999999999994
    vertex 160.0 6.4312775415942784 0.49999999999999994
  endloop
endfacet
facet normal -0.0 -1.0 -0.0
  outer loop
    vertex 160.0 42.9660172883889 0.49999999999999994
    vertex 0.0 42.9660172883889 0.0
    vertex 160.0 42.9660172883889 0.0
  endloop
endfacet
facet normal -0.0 -1.0 -0.0
  outer loop
    vertex 0.0 42.9660172883889 0.0
    vertex 160.0 42.9660172883889 0.49999999999999994
    vertex 0.0 42.9660172883889 0.49999999999999994
  endloop
endfacet
facet normal 0.0 0.0 -1.0
  outer loop
    vertex -0.49999999999999994 49.89729482998318 0.0
    vertex 0.0 49.397294829983174 0.0
    vertex -0.49999999999999994 43.89729482998318 0.0
  endloop
endfacet
facet normal 0.0 0.0 -1.0
  outer loop
    vertex 0.0 49.397294829983174 0.0
    vertex -0.49999999999999994 49.89729482998318 0.0
    vertex 160.5 49.89729482998318 0.0
  endloop
endfacet
facet normal 0.0 0.0 -1.0
  outer loop
    vertex 0.0 49.397294829983174 0.0
    vertex 160.5 49.89729482998318 0.0
    vertex 160.0 49.397294829983174 0.0
  endloop
endfacet
facet normal 0.0 0.0 -1.0
  outer loop
    vertex 160.0 49.397294829983174 0.0
    vertex 160.5 49.89729482998318 0.0
    vertex 160.0 44.39729482998318 0.0
  endloop
endfacet
facet normal 0.0 0.0 -1.0
  outer loop
    vertex -0.49999999999999994 43.89729482998318 0.0
    vertex 0.0 44.39729482998318 0.0
    vertex 160.5 43.89729482998318 0.0
  endloop
endfacet
facet normal 0.0 0.0 -1.0
  outer loop
    vertex 0.0 44.39729482998318 0.0
    vertex -0.49999999999999994 43.89729482998318 0.0
    vertex 0.0 49.397294829983174 0.0
  endloop
endfacet
facet normal 0.0 0.0 -1.0
  outer loop
    vertex 160.5 43.89729482998318 0.0
    vertex 0.0 44.39729482998318 0.0
    vertex 160.0 44.39729482998318 0.0
  endloop
endfacet
facet normal 0.0 0.0 -1.0
  outer loop
    vertex 160.5 43.89729482998318 0.0
    vertex 160.0 44.39729482998318 0.0
    vertex 160.5 49.89729482998318 0.0
  endloop
endfacet
facet normal 0.0 1.0 0.0
  outer loop
    vertex -0.49999999999999994 11.931277541594278 0.49999999999999994
    vertex 160.5 11.931277541594278 0.0
    vertex -0.49999999999999994 11.931277541594278 0.0
  endloop
endfacet
facet normal 0.0 1.0 0.0
  outer loop
    vertex 160.5 11.931277541594278 0.0
    vertex -0.49999999999999994 11.931277541594278 0.49999999999999994
    vertex 160.5 11.931277541594278 0.49999999999999994
  endloop
endfacet
facet normal 0.0 0.0 1.0
  outer loop
    vertex -0.49999999999999994 5.9312775415942784 0.49999999999999994
    vertex 0.0 6.4312775415942784 0.49999999999999994
    vertex -0.49999999999999994 11.931277541594278 0.49999999999999994
  endloop
endfacet
facet normal 0.0 0.0 1.0
  outer loop
    vertex 0.0 6.4312775415942784 0.49999999999999994
    vertex -0.49999999999999994 5.9312775415942784 0.49999999999999994
    vertex 160.5 5.9312775415942784 0.49999999999999994
  endloop
endfacet
facet normal 0.0 0.0 1.0
  outer loop
    vertex 0.0 6.4312775415942784 0.49999999999999994
    vertex 160.5 5.9312775415942784 0.49999999999999994
    vertex 160.0 6.4312775415942784 0.49999999999999994
  endloop
endfacet
facet normal 0.0 0.0 1.0
  outer loop
    vertex 160.0 6.4312775415942784 0.49999999999999994
    vertex 160.5 5.9312775415942784 0.49999999999999994
    vertex 160.0 11.431277541594278 0.49999999999999994
  endloop
endfacet
facet normal 0.0 0.0 1.0
  outer loop
    vertex -0.49999999999999994 11.931277541594278 0.49999999999999994
    vertex 0.0 11.431277541594278 0.49999999999999994
    vertex 160.5 11.931277541594278 0.49999999999999994
  endloop
endfacet
facet normal 0.0 0.0 1.0
  outer loop
    vertex 0.0 11.431277541594278 0.49999999999999994
    vertex -0.49999999999999994 11.931277541594278 0.49999999999999994
    vertex 0.0 6.4312775415942784 0.49999999999999994
  endloop
endfacet
facet normal 0.0 0.0 1.0
  outer loop
    vertex 160.5 11.931277541594278 0.49999999999999994
    vertex 0.0 11.431277541594278 0.49999999999999994
    vertex 160.0 11.431277541594278 0.49999999999999994
  endloop
endfacet
facet normal 0.0 0.0 1.0
  outer loop
    vertex 160.5 11.931277541594278 0.49999999999999994
    vertex 160.0 11.431277541594278 0.49999999999999994
    vertex 160.5 5.9312775415942784 0.49999999999999994
  endloop
endfacet
facet normal 0.0 0.0 -1.0
  outer loop
    vertex -0.49999999999999994 43.4660172883889 0.0
    vertex 0.0 42.9660172883889 0.0
    vertex -0.49999999999999994 37.4660172883889 0.0
  endloop
endfacet
facet normal 0.0 0.0 -1.0
  outer loop
    vertex 0.0 42.9660172883889 0.0
    vertex -0.49999999999999994 43.4660172883889 0.0
    vertex 160.5 43.4660172883889 0.0
  endloop
endfacet
facet normal 0.0 0.0 -1.0
  outer loop
    vertex 0.0 42.9660172883889 0.0
    vertex 160.5 43.4660172883889 0.0
    vertex 160.0 42.9660172883889 0.0
  endloop
endfacet
facet normal 0.0 0.0 -1.0
  outer loop
    vertex 160.0 42.9660172883889 0.0
    vertex 160.5 43.4660172883889 0.0
    vertex 160.0 37.9660172883889 0.0
  endloop
endfacet
facet normal 0.0 0.0 -1.0
  outer loop
    vertex -0.49999999999999994 37.4660172883889 0.0
    vertex 0.0 37.9660172883889 0.0
    vertex 160.5 37.4660172883889 0.0
  endloop
endfacet
facet normal 0.0 0.0 -1.0
  outer loop
    vertex 0.0 37.9660172883889 0.0
    vertex -0.49999999999999994 37.4660172883889 0.0
    vertex 0.0 42.9660172883889 0.0
  endloop
endfacet
facet normal 0.0 0.0 -1.0
  outer loop
    vertex 160.5 37.4660172883889 0.0
    vertex 0.0 37.9660172883889 0.0
    vertex 160.0 37.9660172883889 0.0
  endloop
endfacet
facet normal 0.0 0.0 -1.0
  outer loop
    vertex 160.5 37.4660172883889 0.0
    vertex 160.0 37.9660172883889 0.0
    vertex 160.5 43.4660172883889 0.0
  endloop
endfacet
facet normal -0.0 -1.0 -0.0
  outer loop
    vertex 160.0 11.431277541594278 0.49999999999999994
    vertex 0.0 11.431277541594278 0.0
    vertex 160.0 11.431277541594278 0.0
  endloop
endfacet
facet normal -0.0 -1.0 -0.0
  outer loop
    vertex 0.0 11.431277541594278 0.0
    vertex 160.0 11.431277541594278 0.49999999999999994
    vertex 0.0 11.431277541594278 0.49999999999999994
  endloop
endfacet
facet normal 1.0 0.0 0.0
  outer loop
    vertex 0.0 11.431277541594278 0.0
    vertex 0.0 6.4312775415942784 0.49999999999999994
    vertex 0.0 6.4312775415942784 0.0
  endloop
endfacet
facet normal 1.0 0.0 0.0
  outer loop
    vertex 0.0 6.4312775415942784 0.49999999999999994
    vertex 0.0 11.431277541594278 0.0
    vertex 0.0 11.431277541594278 0.49999999999999994
  endloop
endfacet
facet normal 1.0 0.0 0.0
  outer loop
    vertex 160.5 43.4660172883889 0.0
    vertex 160.5 37.4660172883889 0.49999999999999994
    vertex 160.5 37.4660172883889 0.0
  endloop
endfacet
facet normal 1.0 0.0 0.0
  outer loop
    vertex 160.5 37.4660172883889 0.49999999999999994
    vertex 160.5 43.4660172883889 0.0
    vertex 160.5 43.4660172883889 0.49999999999999994
  endloop
endfacet
facet normal 0.0 1.0 0.0
  outer loop
    vertex 0.0 44.39729482998318 0.49999999999999994
    vertex 160.0 44.39729482998318 0.0
    vertex 0.0 44.39729482998318 0.0
  endloop
endfacet
facet normal 0.0 1.0 0.0
  outer loop
    vertex 160.0 44.39729482998318 0.0
    vertex 0.0 44.39729482998318 0.49999999999999994
    vertex 160.0 44.39729482998318 0.49999999999999994
  endloop
endfacet
facet normal -0.0 -1.0 -0.0
  outer loop
    vertex 160.0 49.397294829983174 0.49999999999999994
    vertex 0.0 49.397294829983174 0.0
    vertex 160.0 49.397294829983174 0.0
  endloop
endfacet
facet normal -0.0 -1.0 -0.0
  outer loop
    vertex 0.0 49.397294829983174 0.0
    vertex 160.0 49.397294829983174 0.49999999999999994
    vertex 0.0 49.397294829983174 0.49999999999999994
  endloop
endfacet
facet normal -1.0 0.0 0.0
  outer loop
    vertex -0.49999999999999994 24.561513682508647 0.49999999999999994
    vertex -0.49999999999999994 18.561513682508647 0.0
    vertex -0.49999999999999994 18.561513682508647 0.49999999999999994
  endloop
endfacet
facet normal -1.0 0.0 0.0
  outer loop
    vertex -0.49999999999999994 18.561513682508647 0.0
    vertex -0.49999999999999994 24.561513682508647 0.49999999999999994
    vertex -0.49999999999999994 24.561513682508647 0.0
  endloop
endfacet
facet normal -0.0 -1.0 -0.0
  outer loop
    vertex 160.5 18.561513682508647 0.49999999999999994
    vertex -0.49999999999999994 18.561513682508647 0.0
    vertex 160.5 18.561513682508647 0.0
  endloop
endfacet
facet normal -0.0 -1.0 -0.0
  outer loop
    vertex -0.49999999999999994 18.561513682508647 0.0
    vertex 160.5 18.561513682508647 0.49999999999999994
    vertex -0.49999999999999994 18.561513682508647 0.49999999999999994
  endloop
endfacet
facet normal 0.0 0.0 1.0
  outer loop
    vertex -0.49999999999999994 43.89729482998318 0.49999999999999994
    vertex 0.0 44.39729482998318 0.49999999999999994
    vertex -0.49999999999999994 49.89729482998318 0.49999999999999994
  endloop
endfacet
facet normal 0.0 0.0 1.0
  outer loop
    vertex 0.0 44.39729482998318 0.49999999999999994
    vertex -0.49999999999999994 43.89729482998318 0.49999999999999994
    vertex 160.5 43.89729482998318 0.49999999999999994
  endloop
endfacet
facet normal 0.0 0.0 1.0
  outer loop
    vertex 0.0 44.39729482998318 0.49999999999999994
    vertex 160.5 43.89729482998318 0.49999999999999994
    vertex 160.0 44.39729482998318 0.49999999999999994
  endloop
endfacet
facet normal 0.0 0.0 1.0
  outer loop
    vertex 160.0 44.39729482998318 0.49999999999999994
    vertex 160.5 43.89729482998318 0.49999999999999994
    vertex 160.0 49.397294829983174 0.49999999999999994
  endloop
endfacet
facet normal 0.0 0.0 1.0
  outer loop
    vertex -0.49999999999999994 49.89729482998318 0.49999999999999994
    vertex 0.0 49.397294829983174 0.49999999999999994
    vertex 160.5 49.89729482998318 0.49999999999999994
  endloop
endfacet
facet normal 0.0 0.0 1.0
  outer loop
    vertex 0.0 49.397294829983174 0.49999999999999994
    vertex -0.49999999999999994 49.89729482998318 0.49999999999999994
    vertex 0.0 44.39729482998318 0.49999999999999994
  endloop
endfacet
facet normal 0.0 0.0 1.0
  outer loop
    vertex 160.5 49.89729482998318 0.49999999999999994
    vertex 0.0 49.397294829983174 0.49999999999999994
    vertex 160.0 49.397294829983174 0.49999999999999994
  endloop
endfacet
facet normal 0.0 0.0 1.0
  outer loop
    vertex 160.5 49.89729482998318 0.49999999999999994
    vertex 160.0 49.397294829983174 0.49999999999999994
    vertex 160.5 43.89729482998318 0.49999999999999994
  endloop
endfacet
facet normal -1.0 0.0 0.0
  outer loop
    vertex 160.0 5.0 0.49999999999999994
    vertex 160.0 0.0 0.0
    vertex 160.0 0.0 0.49999999999999994
  endloop
endfacet
facet normal -1.0 0.0 0.0
  outer loop
    vertex 160.0 0.0 0.0
    vertex 160.0 5.0 0.49999999999999994
    vertex 160.0 5.0 0.0
  endloop
endfacet
facet normal -0.0 -1.0 -0.0
  outer loop
    vertex 160.5 -0.49999999999999994 0.49999999999999994
    vertex -0.49999999999999994 -0.49999999999999994 0.0
    vertex 160.5 -0.49999999999999994 0.0
  endloop
endfacet
facet normal -0.0 -1.0 -0.0
  outer loop
    vertex -0.49999999999999994 -0.49999999999999994 0.0
    vertex 160.5 -0.49999999999999994 0.49999999999999994
    vertex -0.49999999999999994 -0.49999999999999994 0.49999999999999994
  endloop
endfacet
facet normal -1.0 0.0 0.0
  outer loop
    vertex -0.49999999999999994 5.5 0.49999999999999994
    vertex -0.49999999999999994 -0.49999999999999994 0.0
    vertex -0.49999999999999994 -0.49999999999999994 0.49999999999999994
  endloop
endfacet
facet normal -1.0 0.0 0.0
  outer loop
    vertex -0.49999999999999994 -0.49999999999999994 0.0
    vertex -0.49999999999999994 5.5 0.49999999999999994
    vertex -0.49999999999999994 5.5 0.0
  endloop
endfacet
facet normal -0.0 1.0 0.0
  outer loop
    vertex 0.0 0.0 0.49999999999999994
    vertex 160.0 0.0 0.0
    vertex 0.0 0.0 0.0
  endloop
endfacet
facet normal -0.0 1.0 0.0
  outer loop
    vertex 160.0 0.0 0.0
    vertex 0.0 0.0 0.49999999999999994
    vertex 160.0 0.0 0.49999999999999994
  endloop
endfacet
facet normal -0.0 -1.0 -0.0
  outer loop
    vertex 160.0 5.0 0.49999999999999994
    vertex 0.0 5.0 0.0
    vertex 160.0 5.0 0.0
  endloop
endfacet
facet normal -0.0 -1.0 -0.0
  outer loop
    vertex 0.0 5.0 0.0
    vertex 160.0 5.0 0.49999999999999994
    vertex 0.0 5.0 0.49999999999999994
  endloop
endfacet
facet normal 1.0 0.0 0.0
  outer loop
    vertex 0.0 5.0 0.0
    vertex 0.0 0.0 0.49999999999999994
    vertex 0.0 0.0 0.0
  endloop
endfacet
facet normal 1.0 0.0 0.0
  outer loop
    vertex 0.0 0.0 0.49999999999999994
    vertex 0.0 5.0 0.0
    vertex 0.0 5.0 0.49999999999999994
  endloop
endfacet
facet normal -0.0 1.0 0.0
  outer loop
    vertex -0.49999999999999994 5.5 0.49999999999999994
    vertex 160.5 5.5 0.0
    vertex -0.49999999999999994 5.5 0.0
  endloop
endfacet
facet normal -0.0 1.0 0.0
  outer loop
    vertex 160.5 5.5 0.0
    vertex -0.49999999999999994 5.5 0.49999999999999994
    vertex 160.5 5.5 0.49999999999999994
  endloop
endfacet
facet normal 1.0 0.0 0.0
  outer loop
    vertex 160.5 5.5 0.0
    vertex 160.5 -0.49999999999999994 0.49999999999999994
    vertex 160.5 -0.49999999999999994 0.0
  endloop
endfacet
facet normal 1.0 0.0 0.0
  outer loop
    vertex 160.5 -0.49999999999999994 0.49999999999999994
    vertex 160.5 5.5 0.0
    vertex 160.5 5.5 0.49999999999999994
  endloop
endfacet
facet normal -0.0 -0.0 1.0
  outer loop
    vertex -0.49999999999999994 -0.49999999999999994 0.49999999999999994
    vertex 0.0 0.0 0.49999999999999994
    vertex -0.49999999999999994 5.5 0.49999999999999994
  endloop
endfacet
facet normal -0.0 -0.0 1.0
  outer loop
    vertex 0.0 0.0 0.49999999999999994
    vertex -0.49999999999999994 -0.49999999999999994 0.49999999999999994
    vertex 160.5 -0.49999999999999994 0.49999999999999994
  endloop
endfacet
facet normal -0.0 -0.0 1.0
  outer loop
    vertex 0.0 0.0 0.49999999999999994
    vertex 160.5 -0.49999999999999994 0.49999999999999994
    vertex 160.0 0.0 0.49999999999999994
  endloop
endfacet
facet normal -0.0 -0.0 1.0
  outer loop
    vertex 160.0 0.0 0.49999999999999994
    vertex 160.5 -0.49999999999999994 0.49999999999999994
    vertex 160.0 5.0 0.49999999999999994
  endloop
endfacet
facet normal -0.0 -0.0 1.0
  outer loop
    vertex -0.49999999999999994 5.5 0.49999999999999994
    vertex 0.0 5.0 0.49999999999999994
    vertex 160.5 5.5 0.49999999999999994
  endloop
endfacet
facet normal -0.0 -0.0 1.0
  outer loop
    vertex 0.0 5.0 0.49999999999999994
    vertex -0.49999999999999994 5.5 0.49999999999999994
    vertex 0.0 0.0 0.49999999999999994
  endloop
endfacet
facet normal -0.0 -0.0 1.0
  outer loop
    vertex 160.5 5.5 0.49999999999999994
    vertex 0.0 5.0 0.49999999999999994
    vertex 160.0 5.0 0.49999999999999994
  endloop
endfacet
facet normal -0.0 -0.0 1.0
  outer loop
    vertex 160.5 5.5 0.49999999999999994
    vertex 160.0 5.0 0.49999999999999994
    vertex 160.5 -0.49999999999999994 0.49999999999999994
  endloop
endfacet
facet normal 0.0 0.0 -1.0
  outer loop
    vertex -0.49999999999999994 5.5 0.0
    vertex 0.0 5.0 0.0
    vertex -0.49999999999999994 -0.49999999999999994 0.0
  endloop
endfacet
facet normal 0.0 0.0 -1.0
  outer loop
    vertex 0.0 5.0 0.0
    vertex -0.49999999999999994 5.5 0.0
    vertex 160.5 5.5 0.0
  endloop
endfacet
facet normal 0.0 0.0 -1.0
  outer loop
    vertex 0.0 5.0 0.0
    vertex 160.5 5.5 0.0
    vertex 160.0 5.0 0.0
  endloop
endfacet
facet normal 0.0 0.0 -1.0
  outer loop
    vertex 160.0 5.0 0.0
    vertex 160.5 5.5 0.0
    vertex 160.0 0.0 0.0
  endloop
endfacet
facet normal 0.0 0.0 -1.0
  outer loop
    vertex -0.49999999999999994 -0.49999999999999994 0.0
    vertex 0.0 0.0 0.0
    vertex 160.5 -0.49999999999999994 0.0
  endloop
endfacet
facet normal 0.0 0.0 -1.0
  outer loop
    vertex 0.0 0.0 0.0
    vertex -0.49999999999999994 -0.49999999999999994 0.0
    vertex 0.0 5.0 0.0
  endloop
endfacet
facet normal 0.0 0.0 -1.0
  outer loop
    vertex 160.5 -0.49999999999999994 0.0
    vertex 0.0 0.0 0.0
    vertex 160.0 0.0 0.0
  endloop
endfacet
facet normal 0.0 0.0 -1.0
  outer loop
    vertex 160.5 -0.49999999999999994 0.0
    vertex 160.0 0.0 0.0
    vertex 160.5 5.5 0.0
  endloop
endfacet
endsolid Untitled-55ecb9ce
