solid Untitled-55ecbd67
facet normal -1.0 0.0 0.0
  outer loop
    vertex 160.0 45.380973637372215 0.49999999999999994
    vertex 160.0 42.380973637372215 0.0
    vertex 160.0 42.380973637372215 0.49999999999999994
  endloop
endfacet
facet normal -1.0 0.0 0.0
  outer loop
    vertex 160.0 42.380973637372215 0.0
    vertex 160.0 45.380973637372215 0.49999999999999994
    vertex 160.0 45.380973637372215 0.0
  endloop
endfacet
facet normal -1.0 0.0 0.0
  outer loop
    vertex -0.49999999999999994 50.1309794354718 0.49999999999999994
    vertex -0.49999999999999994 46.1309794354718 0.0
    vertex -0.49999999999999994 46.1309794354718 0.49999999999999994
  endloop
endfacet
facet normal -1.0 0.0 0.0
  outer loop
    vertex -0.49999999999999994 46.1309794354718 0.0
    vertex -0.49999999999999994 50.1309794354718 0.49999999999999994
    vertex -0.49999999999999994 50.1309794354718 0.0
  endloop
endfacet
facet normal -0.0 -1.0 -0.0
  outer loop
    vertex 160.0 49.6309794354718 0.49999999999999994
    vertex 0.0 49.6309794354718 0.0
    vertex 160.0 49.6309794354718 0.0
  endloop
endfacet
facet normal -0.0 -1.0 -0.0
  outer loop
    vertex 0.0 49.6309794354718 0.0
    vertex 160.0 49.6309794354718 0.49999999999999994
    vertex 0.0 49.6309794354718 0.49999999999999994
  endloop
endfacet
facet normal -0.0 -1.0 -0.0
  outer loop
    vertex 160.0 28.45887556905867 0.49999999999999994
    vertex 0.0 28.45887556905867 0.0
    vertex 160.0 28.45887556905867 0.0
  endloop
endfacet
facet normal -0.0 -1.0 -0.0
  outer loop
    vertex 0.0 28.45887556905867 0.0
    vertex 160.0 28.45887556905867 0.49999999999999994
    vertex 0.0 28.45887556905867 0.49999999999999994
  endloop
endfacet
facet normal 1.0947074854611404e-18 -1.0 0.0
  outer loop
    vertex 160.5 20.711376039210936 0.49999999999999994
    vertex -0.49999999999999994 20.711376039210936 0.0
    vertex 160.5 20.711376039210936 0.0
  endloop
endfacet
facet normal 1.0947074854611404e-18 -1.0 0.0
  outer loop
    vertex -0.49999999999999994 20.711376039210936 0.0
    vertex 160.5 20.711376039210936 0.49999999999999994
    vertex -0.49999999999999994 20.711376039210936 0.49999999999999994
  endloop
endfacet
facet normal 1.0 0.0 0.0
  outer loop
    vertex 0.0 19.961370241111347 0.0
    vertex 0.0 16.961370241111347 0.49999999999999994
    vertex 0.0 16.961370241111347 0.0
  endloop
endfacet
facet normal 1.0 0.0 0.0
  outer loop
    vertex 0.0 16.961370241111347 0.49999999999999994
    vertex 0.0 19.961370241111347 0.0
    vertex 0.0 19.961370241111347 0.49999999999999994
  endloop
endfacet
facet normal -1.0 0.0 0.0
  outer loop
    vertex -0.49999999999999994 24.711376039210936 0.49999999999999994
    vertex -0.49999999999999994 20.711376039210936 0.0
    vertex -0.49999999999999994 20.711376039210936 0.49999999999999994
  endloop
endfacet
facet normal -1.0 0.0 0.0
  outer loop
    vertex -0.49999999999999994 20.711376039210936 0.0
    vertex -0.49999999999999994 24.711376039210936 0.49999999999999994
    vertex -0.49999999999999994 24.711376039210936 0.0
  endloop
endfacet
facet normal 1.0947074854611404e-18 -1.0 0.0
  outer loop
    vertex 160.5 16.461370241111347 0.49999999999999994
    vertex -0.49999999999999994 16.461370241111347 0.0
    vertex 160.5 16.461370241111347 0.0
  endloop
endfacet
facet normal 1.0947074854611404e-18 -1.0 0.0
  outer loop
    vertex -0.49999999999999994 16.461370241111347 0.0
    vertex 160.5 16.461370241111347 0.49999999999999994
    vertex -0.49999999999999994 16.461370241111347 0.49999999999999994
  endloop
endfacet
facet normal -1.0 0.0 0.0
  outer loop
    vertex -0.49999999999999994 20.46137024111135 0.49999999999999994
    vertex -0.49999999999999994 16.461370241111347 0.0
    vertex -0.49999999999999994 16.461370241111347 0.49999999999999994
  endloop
endfacet
facet normal -1.0 0.0 0.0
  outer loop
    vertex -0.49999999999999994 16.461370241111347 0.0
    vertex -0.49999999999999994 20.46137024111135 0.49999999999999994
    vertex -0.49999999999999994 20.46137024111135 0.0
  endloop
endfacet
facet normal 0.0 0.0 -1.0
  outer loop
    vertex -0.49999999999999994 3.5 0.0
    vertex 0.0 3.0 0.0
    vertex -0.49999999999999994 -0.49999999999999994 0.0
  endloop
endfacet
facet normal 0.0 0.0 -1.0
  outer loop
    vertex 0.0 3.0 0.0
    vertex -0.49999999999999994 3.5 0.0
    vertex 160.5 3.5 0.0
  endloop
endfacet
facet normal 0.0 0.0 -1.0
  outer loop
    vertex 0.0 3.0 0.0
    vertex 160.5 3.5 0.0
    vertex 160.0 3.0 0.0
  endloop
endfacet
facet normal 0.0 0.0 -1.0
  outer loop
    vertex 160.0 3.0 0.0
    vertex 160.5 3.5 0.0
    vertex 160.0 0.0 0.0
  endloop
endfacet
facet normal 0.0 0.0 -1.0
  outer loop
    vertex -0.49999999999999994 -0.49999999999999994 0.0
    vertex 0.0 0.0 0.0
    vertex 160.5 -0.4999999999999998 0.0
  endloop
endfacet
facet normal 0.0 0.0 -1.0
  outer loop
    vertex 0.0 0.0 0.0
    vertex -0.49999999999999994 -0.49999999999999994 0.0
    vertex 0.0 3.0 0.0
  endloop
endfacet
facet normal 0.0 0.0 -1.0
  outer loop
    vertex 160.5 -0.4999999999999998 0.0
    vertex 0.0 0.0 0.0
    vertex 160.0 0.0 0.0
  endloop
endfacet
facet normal 0.0 0.0 -1.0
  outer loop
    vertex 160.5 -0.4999999999999998 0.0
    vertex 160.0 0.0 0.0
    vertex 160.5 3.5 0.0
  endloop
endfacet
facet normal 1.0 0.0 0.0
  outer loop
    vertex 160.5 33.208881367158256 0.0
    vertex 160.5 29.208881367158256 0.49999999999999994
    vertex 160.5 29.208881367158256 0.0
  endloop
endfacet
facet normal 1.0 0.0 0.0
  outer loop
    vertex 160.5 29.208881367158256 0.49999999999999994
    vertex 160.5 33.208881367158256 0.0
    vertex 160.5 33.208881367158256 0.49999999999999994
  endloop
endfacet
facet normal 0.0 1.0 0.0
  outer loop
    vertex 0.0 29.708881367158256 0.49999999999999994
    vertex 160.0 29.708881367158256 0.0
    vertex 0.0 29.708881367158256 0.0
  endloop
endfacet
facet normal 0.0 1.0 0.0
  outer loop
    vertex 160.0 29.708881367158256 0.0
    vertex 0.0 29.708881367158256 0.49999999999999994
    vertex 160.0 29.708881367158256 0.49999999999999994
  endloop
endfacet
facet normal 1.0947074854611404e-18 -1.0 0.0
  outer loop
    vertex 160.5 24.95887556905867 0.49999999999999994
    vertex -0.49999999999999994 24.95887556905867 0.0
    vertex 160.5 24.95887556905867 0.0
  endloop
endfacet
facet normal 1.0947074854611404e-18 -1.0 0.0
  outer loop
    vertex -0.49999999999999994 24.95887556905867 0.0
    vertex 160.5 24.95887556905867 0.49999999999999994
    vertex -0.49999999999999994 24.95887556905867 0.49999999999999994
  endloop
endfacet
facet normal 0.0 1.0 0.0
  outer loop
    vertex -0.49999999999999994 33.208881367158256 0.49999999999999994
    vertex 160.5 33.208881367158256 0.0
    vertex -0.49999999999999994 33.208881367158256 0.0
  endloop
endfacet
facet normal 0.0 1.0 0.0
  outer loop
    vertex 160.5 33.208881367158256 0.0
    vertex -0.49999999999999994 33.208881367158256 0.49999999999999994
    vertex 160.5 33.208881367158256 0.49999999999999994
  endloop
endfacet
facet normal -1.0 0.0 0.0
  outer loop
    vertex 160.0 32.708881367158256 0.49999999999999994
    vertex 160.0 29.708881367158256 0.0
    vertex 160.0 29.708881367158256 0.49999999999999994
  endloop
endfacet
facet normal -1.0 0.0 0.0
  outer loop
    vertex 160.0 29.708881367158256 0.0
    vertex 160.0 32.708881367158256 0.49999999999999994
    vertex 160.0 32.708881367158256 0.0
  endloop
endfacet
facet normal 1.0 0.0 0.0
  outer loop
    vertex 0.0 32.708881367158256 0.0
    vertex 0.0 29.708881367158256 0.49999999999999994
    vertex 0.0 29.708881367158256 0.0
  endloop
endfacet
facet normal 1.0 0.0 0.0
  outer loop
    vertex 0.0 29.708881367158256 0.49999999999999994
    vertex 0.0 32.708881367158256 0.0
    vertex 0.0 32.708881367158256 0.49999999999999994
  endloop
endfacet
facet normal -1.0 0.0 0.0
  outer loop
    vertex -0.49999999999999994 33.208881367158256 0.49999999999999994
    vertex -0.49999999999999994 29.208881367158256 0.0
    vertex -0.49999999999999994 29.208881367158256 0.49999999999999994
  endloop
endfacet
facet normal -1.0 0.0 0.0
  outer loop
    vertex -0.49999999999999994 29.208881367158256 0.0
    vertex -0.49999999999999994 33.208881367158256 0.49999999999999994
    vertex -0.49999999999999994 33.208881367158256 0.0
  endloop
endfacet
facet normal -0.0 -0.0 1.0
  outer loop
    vertex -0.49999999999999994 -0.49999999999999994 0.49999999999999994
    vertex 0.0 0.0 0.49999999999999994
    vertex -0.49999999999999994 3.5 0.49999999999999994
  endloop
endfacet
facet normal -0.0 -0.0 1.0
  outer loop
    vertex 0.0 0.0 0.49999999999999994
    vertex -0.49999999999999994 -0.49999999999999994 0.49999999999999994
    vertex 160.5 -0.4999999999999998 0.49999999999999994
  endloop
endfacet
facet normal -0.0 -0.0 1.0
  outer loop
    vertex 0.0 0.0 0.49999999999999994
    vertex 160.5 -0.4999999999999998 0.49999999999999994
    vertex 160.0 0.0 0.49999999999999994
  endloop
endfacet
facet normal -0.0 -0.0 1.0
  outer loop
    vertex 160.0 0.0 0.49999999999999994
    vertex 160.5 -0.4999999999999998 0.49999999999999994
    vertex 160.0 3.0 0.49999999999999994
  endloop
endfacet
facet normal -0.0 -0.0 1.0
  outer loop
    vertex -0.49999999999999994 3.5 0.49999999999999994
    vertex 0.0 3.0 0.49999999999999994
    vertex 160.5 3.5 0.49999999999999994
  endloop
endfacet
facet normal -0.0 -0.0 1.0
  outer loop
    vertex 0.0 3.0 0.49999999999999994
    vertex -0.49999999999999994 3.5 0.49999999999999994
    vertex 0.0 0.0 0.49999999999999994
  endloop
endfacet
facet normal -0.0 -0.0 1.0
  outer loop
    vertex 160.5 3.5 0.49999999999999994
    vertex 0.0 3.0 0.49999999999999994
    vertex 160.0 3.0 0.49999999999999994
  endloop
endfacet
facet normal -0.0 -0.0 1.0
  outer loop
    vertex 160.5 3.5 0.49999999999999994
    vertex 160.0 3.0 0.49999999999999994
    vertex 160.5 -0.4999999999999998 0.49999999999999994
  endloop
endfacet
facet normal -0.0 1.0 0.0
  outer loop
    vertex 0.0 0.0 0.49999999999999994
    vertex 160.0 0.0 0.0
    vertex 0.0 0.0 0.0
  endloop
endfacet
facet normal -0.0 1.0 0.0
  outer loop
    vertex 160.0 0.0 0.0
    vertex 0.0 0.0 0.49999999999999994
    vertex 160.0 0.0 0.49999999999999994
  endloop
endfacet
facet normal 1.0 0.0 0.0
  outer loop
    vertex 0.0 28.45887556905867 0.0
    vertex 0.0 25.458875569058673 0.49999999999999994
    vertex 0.0 25.458875569058673 0.0
  endloop
endfacet
facet normal 1.0 0.0 0.0
  outer loop
    vertex 0.0 25.458875569058673 0.49999999999999994
    vertex 0.0 28.45887556905867 0.0
    vertex 0.0 28.45887556905867 0.49999999999999994
  endloop
endfacet
facet normal 1.0 0.0 0.0
  outer loop
    vertex 160.5 7.750005798099586 0.0
    vertex 160.5 3.7500057980995867 0.49999999999999994
    vertex 160.5 3.7500057980995867 0.0
  endloop
endfacet
facet normal 1.0 0.0 0.0
  outer loop
    vertex 160.5 3.7500057980995867 0.49999999999999994
    vertex 160.5 7.750005798099586 0.0
    vertex 160.5 7.750005798099586 0.49999999999999994
  endloop
endfacet
facet normal 1.0947074854611404e-18 -1.0 0.0
  outer loop
    vertex 160.5 29.208881367158256 0.49999999999999994
    vertex -0.49999999999999994 29.208881367158256 0.0
    vertex 160.5 29.208881367158256 0.0
  endloop
endfacet
facet normal 1.0947074854611404e-18 -1.0 0.0
  outer loop
    vertex -0.49999999999999994 29.208881367158256 0.0
    vertex 160.5 29.208881367158256 0.49999999999999994
    vertex -0.49999999999999994 29.208881367158256 0.49999999999999994
  endloop
endfacet
facet normal -0.0 1.0 0.0
  outer loop
    vertex -0.49999999999999994 3.5 0.49999999999999994
    vertex 160.5 3.5 0.0
    vertex -0.49999999999999994 3.5 0.0
  endloop
endfacet
facet normal -0.0 1.0 0.0
  outer loop
    vertex 160.5 3.5 0.0
    vertex -0.49999999999999994 3.5 0.49999999999999994
    vertex 160.5 3.5 0.49999999999999994
  endloop
endfacet
facet normal -0.0 -1.0 -0.0
  outer loop
    vertex 160.0 3.0 0.49999999999999994
    vertex 0.0 3.0 0.0
    vertex 160.0 3.0 0.0
  endloop
endfacet
facet normal -0.0 -1.0 -0.0
  outer loop
    vertex 0.0 3.0 0.0
    vertex 160.0 3.0 0.49999999999999994
    vertex 0.0 3.0 0.49999999999999994
  endloop
endfacet
facet normal -0.0 -1.0 -0.0
  outer loop
    vertex 160.0 32.708881367158256 0.49999999999999994
    vertex 0.0 32.708881367158256 0.0
    vertex 160.0 32.708881367158256 0.0
  endloop
endfacet
facet normal -0.0 -1.0 -0.0
  outer loop
    vertex 0.0 32.708881367158256 0.0
    vertex 160.0 32.708881367158256 0.49999999999999994
    vertex 0.0 32.708881367158256 0.49999999999999994
  endloop
endfacet
facet normal 0.0 1.0 0.0
  outer loop
    vertex 0.0 4.250005798099586 0.49999999999999994
    vertex 160.0 4.250005798099586 0.0
    vertex 0.0 4.250005798099586 0.0
  endloop
endfacet
facet normal 0.0 1.0 0.0
  outer loop
    vertex 160.0 4.250005798099586 0.0
    vertex 0.0 4.250005798099586 0.49999999999999994
    vertex 160.0 4.250005798099586 0.49999999999999994
  endloop
endfacet
facet normal 1.0 0.0 0.0
  outer loop
    vertex 0.0 7.250005798099587 0.0
    vertex 0.0 4.250005798099586 0.49999999999999994
    vertex 0.0 4.250005798099586 0.0
  endloop
endfacet
facet normal 1.0 0.0 0.0
  outer loop
    vertex 0.0 4.250005798099586 0.49999999999999994
    vertex 0.0 7.250005798099587 0.0
    vertex 0.0 7.250005798099587 0.49999999999999994
  endloop
endfacet
facet normal -1.0 0.0 0.0
  outer loop
    vertex -0.49999999999999994 28.958875569058666 0.49999999999999994
    vertex -0.49999999999999994 24.95887556905867 0.0
    vertex -0.49999999999999994 24.95887556905867 0.49999999999999994
  endloop
endfacet
facet normal -1.0 0.0 0.0
  outer loop
    vertex -0.49999999999999994 24.95887556905867 0.0
    vertex -0.49999999999999994 28.958875569058666 0.49999999999999994
    vertex -0.49999999999999994 28.958875569058666 0.0
  endloop
endfacet
facet normal -1.0 0.0 0.0
  outer loop
    vertex 160.0 3.0 0.49999999999999994
    vertex 160.0 0.0 0.0
    vertex 160.0 0.0 0.49999999999999994
  endloop
endfacet
facet normal -1.0 0.0 0.0
  outer loop
    vertex 160.0 0.0 0.0
    vertex 160.0 3.0 0.49999999999999994
    vertex 160.0 3.0 0.0
  endloop
endfacet
facet normal 0.0 0.0 1.0
  outer loop
    vertex -0.49999999999999994 29.208881367158256 0.49999999999999994
    vertex 0.0 29.708881367158256 0.49999999999999994
    vertex -0.49999999999999994 33.208881367158256 0.49999999999999994
  endloop
endfacet
facet normal 0.0 0.0 1.0
  outer loop
    vertex 0.0 29.708881367158256 0.49999999999999994
    vertex -0.49999999999999994 29.208881367158256 0.49999999999999994
    vertex 160.5 29.208881367158256 0.49999999999999994
  endloop
endfacet
facet normal 0.0 0.0 1.0
  outer loop
    vertex 0.0 29.708881367158256 0.49999999999999994
    vertex 160.5 29.208881367158256 0.49999999999999994
    vertex 160.0 29.708881367158256 0.49999999999999994
  endloop
endfacet
facet normal 0.0 0.0 1.0
  outer loop
    vertex 160.0 29.708881367158256 0.49999999999999994
    vertex 160.5 29.208881367158256 0.49999999999999994
    vertex 160.0 32.708881367158256 0.49999999999999994
  endloop
endfacet
facet normal 0.0 0.0 1.0
  outer loop
    vertex -0.49999999999999994 33.208881367158256 0.49999999999999994
    vertex 0.0 32.708881367158256 0.49999999999999994
    vertex 160.5 33.208881367158256 0.49999999999999994
  endloop
endfacet
facet normal 0.0 0.0 1.0
  outer loop
    vertex 0.0 32.708881367158256 0.49999999999999994
    vertex -0.49999999999999994 33.208881367158256 0.49999999999999994
    vertex 0.0 29.708881367158256 0.49999999999999994
  endloop
endfacet
facet normal 0.0 0.0 1.0
  outer loop
    vertex 160.5 33.208881367158256 0.49999999999999994
    vertex 0.0 32.708881367158256 0.49999999999999994
    vertex 160.0 32.708881367158256 0.49999999999999994
  endloop
endfacet
facet normal 0.0 0.0 1.0
  outer loop
    vertex 160.5 33.208881367158256 0.49999999999999994
    vertex 160.0 32.708881367158256 0.49999999999999994
    vertex 160.5 29.208881367158256 0.49999999999999994
  endloop
endfacet
facet normal 0.0 0.0 -1.0
  outer loop
    vertex -0.49999999999999994 11.997505327947323 0.0
    vertex 0.0 11.497505327947321 0.0
    vertex -0.49999999999999994 7.997505327947322 0.0
  endloop
endfacet
facet normal 0.0 0.0 -1.0
  outer loop
    vertex 0.0 11.497505327947321 0.0
    vertex -0.49999999999999994 11.997505327947323 0.0
    vertex 160.5 11.997505327947323 0.0
  endloop
endfacet
facet normal 0.0 0.0 -1.0
  outer loop
    vertex 0.0 11.497505327947321 0.0
    vertex 160.5 11.997505327947323 0.0
    vertex 160.0 11.497505327947321 0.0
  endloop
endfacet
facet normal 0.0 0.0 -1.0
  outer loop
    vertex 160.0 11.497505327947321 0.0
    vertex 160.5 11.997505327947323 0.0
    vertex 160.0 8.497505327947323 0.0
  endloop
endfacet
facet normal 0.0 0.0 -1.0
  outer loop
    vertex -0.49999999999999994 7.997505327947322 0.0
    vertex 0.0 8.497505327947323 0.0
    vertex 160.5 7.997505327947322 0.0
  endloop
endfacet
facet normal 0.0 0.0 -1.0
  outer loop
    vertex 0.0 8.497505327947323 0.0
    vertex -0.49999999999999994 7.997505327947322 0.0
    vertex 0.0 11.497505327947321 0.0
  endloop
endfacet
facet normal 0.0 0.0 -1.0
  outer loop
    vertex 160.5 7.997505327947322 0.0
    vertex 0.0 8.497505327947323 0.0
    vertex 160.0 8.497505327947323 0.0
  endloop
endfacet
facet normal 0.0 0.0 -1.0
  outer loop
    vertex 160.5 7.997505327947322 0.0
    vertex 160.0 8.497505327947323 0.0
    vertex 160.5 11.997505327947323 0.0
  endloop
endfacet
facet normal 0.0 1.0 0.0
  outer loop
    vertex -0.49999999999999994 7.750005798099586 0.49999999999999994
    vertex 160.5 7.750005798099586 0.0
    vertex -0.49999999999999994 7.750005798099586 0.0
  endloop
endfacet
facet normal 0.0 1.0 0.0
  outer loop
    vertex 160.5 7.750005798099586 0.0
    vertex -0.49999999999999994 7.750005798099586 0.49999999999999994
    vertex 160.5 7.750005798099586 0.49999999999999994
  endloop
endfacet
facet normal 0.0 0.0 -1.0
  outer loop
    vertex -0.49999999999999994 7.750005798099586 0.0
    vertex 0.0 7.250005798099587 0.0
    vertex -0.49999999999999994 3.7500057980995867 0.0
  endloop
endfacet
facet normal 0.0 0.0 -1.0
  outer loop
    vertex 0.0 7.250005798099587 0.0
    vertex -0.49999999999999994 7.750005798099586 0.0
    vertex 160.5 7.750005798099586 0.0
  endloop
endfacet
facet normal 0.0 0.0 -1.0
  outer loop
    vertex 0.0 7.250005798099587 0.0
    vertex 160.5 7.750005798099586 0.0
    vertex 160.0 7.250005798099587 0.0
  endloop
endfacet
facet normal 0.0 0.0 -1.0
  outer loop
    vertex 160.0 7.250005798099587 0.0
    vertex 160.5 7.750005798099586 0.0
    vertex 160.0 4.250005798099586 0.0
  endloop
endfacet
facet normal 0.0 0.0 -1.0
  outer loop
    vertex -0.49999999999999994 3.7500057980995867 0.0
    vertex 0.0 4.250005798099586 0.0
    vertex 160.5 3.7500057980995867 0.0
  endloop
endfacet
facet normal 0.0 0.0 -1.0
  outer loop
    vertex 0.0 4.250005798099586 0.0
    vertex -0.49999999999999994 3.7500057980995867 0.0
    vertex 0.0 7.250005798099587 0.0
  endloop
endfacet
facet normal 0.0 0.0 -1.0
  outer loop
    vertex 160.5 3.7500057980995867 0.0
    vertex 0.0 4.250005798099586 0.0
    vertex 160.0 4.250005798099586 0.0
  endloop
endfacet
facet normal 0.0 0.0 -1.0
  outer loop
    vertex 160.5 3.7500057980995867 0.0
    vertex 160.0 4.250005798099586 0.0
    vertex 160.5 7.750005798099586 0.0
  endloop
endfacet
facet normal 0.0 0.0 1.0
  outer loop
    vertex -0.49999999999999994 7.997505327947322 0.49999999999999994
    vertex 0.0 8.497505327947323 0.49999999999999994
    vertex -0.49999999999999994 11.997505327947323 0.49999999999999994
  endloop
endfacet
facet normal 0.0 0.0 1.0
  outer loop
    vertex 0.0 8.497505327947323 0.49999999999999994
    vertex -0.49999999999999994 7.997505327947322 0.49999999999999994
    vertex 160.5 7.997505327947322 0.49999999999999994
  endloop
endfacet
facet normal 0.0 0.0 1.0
  outer loop
    vertex 0.0 8.497505327947323 0.49999999999999994
    vertex 160.5 7.997505327947322 0.49999999999999994
    vertex 160.0 8.497505327947323 0.49999999999999994
  endloop
endfacet
facet normal 0.0 0.0 1.0
  outer loop
    vertex 160.0 8.497505327947323 0.49999999999999994
    vertex 160.5 7.997505327947322 0.49999999999999994
    vertex 160.0 11.497505327947321 0.49999999999999994
  endloop
endfacet
facet normal 0.0 0.0 1.0
  outer loop
    vertex -0.49999999999999994 11.997505327947323 0.49999999999999994
    vertex 0.0 11.497505327947321 0.49999999999999994
    vertex 160.5 11.997505327947323 0.49999999999999994
  endloop
endfacet
facet normal 0.0 0.0 1.0
  outer loop
    vertex 0.0 11.497505327947321 0.49999999999999994
    vertex -0.49999999999999994 11.997505327947323 0.49999999999999994
    vertex 0.0 8.497505327947323 0.49999999999999994
  endloop
endfacet
facet normal 0.0 0.0 1.0
  outer loop
    vertex 160.5 11.997505327947323 0.49999999999999994
    vertex 0.0 11.497505327947321 0.49999999999999994
    vertex 160.0 11.497505327947321 0.49999999999999994
  endloop
endfacet
facet normal 0.0 0.0 1.0
  outer loop
    vertex 160.5 11.997505327947323 0.49999999999999994
    vertex 160.0 11.497505327947321 0.49999999999999994
    vertex 160.5 7.997505327947322 0.49999999999999994
  endloop
endfacet
facet normal 0.0 1.0 0.0
  outer loop
    vertex 0.0 8.497505327947323 0.49999999999999994
    vertex 160.0 8.497505327947323 0.0
    vertex 0.0 8.497505327947323 0.0
  endloop
endfacet
facet normal 0.0 1.0 0.0
  outer loop
    vertex 160.0 8.497505327947323 0.0
    vertex 0.0 8.497505327947323 0.49999999999999994
    vertex 160.0 8.497505327947323 0.49999999999999994
  endloop
endfacet
facet normal 0.0 1.0 0.0
  outer loop
    vertex -0.49999999999999994 11.997505327947323 0.49999999999999994
    vertex 160.5 11.997505327947323 0.0
    vertex -0.49999999999999994 11.997505327947323 0.0
  endloop
endfacet
facet normal 0.0 1.0 0.0
  outer loop
    vertex 160.5 11.997505327947323 0.0
    vertex -0.49999999999999994 11.997505327947323 0.49999999999999994
    vertex 160.5 11.997505327947323 0.49999999999999994
  endloop
endfacet
facet normal 1.0 0.0 0.0
  outer loop
    vertex 160.5 3.5 0.0
    vertex 160.5 -0.4999999999999998 0.49999999999999994
    vertex 160.5 -0.4999999999999998 0.0
  endloop
endfacet
facet normal 1.0 0.0 0.0
  outer loop
    vertex 160.5 -0.4999999999999998 0.49999999999999994
    vertex 160.5 3.5 0.0
    vertex 160.5 3.5 0.49999999999999994
  endloop
endfacet
facet normal -1.0 0.0 0.0
  outer loop
    vertex 160.0 7.250005798099587 0.49999999999999994
    vertex 160.0 4.250005798099586 0.0
    vertex 160.0 4.250005798099586 0.49999999999999994
  endloop
endfacet
facet normal -1.0 0.0 0.0
  outer loop
    vertex 160.0 4.250005798099586 0.0
    vertex 160.0 7.250005798099587 0.49999999999999994
    vertex 160.0 7.250005798099587 0.0
  endloop
endfacet
facet normal -1.0 0.0 0.0
  outer loop
    vertex 160.0 28.45887556905867 0.49999999999999994
    vertex 160.0 25.458875569058673 0.0
    vertex 160.0 25.458875569058673 0.49999999999999994
  endloop
endfacet
facet normal -1.0 0.0 0.0
  outer loop
    vertex 160.0 25.458875569058673 0.0
    vertex 160.0 28.45887556905867 0.49999999999999994
    vertex 160.0 28.45887556905867 0.0
  endloop
endfacet
facet normal -0.0 -1.0 -0.0
  outer loop
    vertex 160.0 7.250005798099587 0.49999999999999994
    vertex 0.0 7.250005798099587 0.0
    vertex 160.0 7.250005798099587 0.0
  endloop
endfacet
facet normal -0.0 -1.0 -0.0
  outer loop
    vertex 0.0 7.250005798099587 0.0
    vertex 160.0 7.250005798099587 0.49999999999999994
    vertex 0.0 7.250005798099587 0.49999999999999994
  endloop
endfacet
facet normal 0.0 0.0 1.0
  outer loop
    vertex -0.49999999999999994 3.7500057980995867 0.49999999999999994
    vertex 0.0 4.250005798099586 0.49999999999999994
    vertex -0.49999999999999994 7.750005798099586 0.49999999999999994
  endloop
endfacet
facet normal 0.0 0.0 1.0
  outer loop
    vertex 0.0 4.250005798099586 0.49999999999999994
    vertex -0.49999999999999994 3.7500057980995867 0.49999999999999994
    vertex 160.5 3.7500057980995867 0.49999999999999994
  endloop
endfacet
facet normal 0.0 0.0 1.0
  outer loop
    vertex 0.0 4.250005798099586 0.49999999999999994
    vertex 160.5 3.7500057980995867 0.49999999999999994
    vertex 160.0 4.250005798099586 0.49999999999999994
  endloop
endfacet
facet normal 0.0 0.0 1.0
  outer loop
    vertex 160.0 4.250005798099586 0.49999999999999994
    vertex 160.5 3.7500057980995867 0.49999999999999994
    vertex 160.0 7.250005798099587 0.49999999999999994
  endloop
endfacet
facet normal 0.0 0.0 1.0
  outer loop
    vertex -0.49999999999999994 7.750005798099586 0.49999999999999994
    vertex 0.0 7.250005798099587 0.49999999999999994
    vertex 160.5 7.750005798099586 0.49999999999999994
  endloop
endfacet
facet normal 0.0 0.0 1.0
  outer loop
    vertex 0.0 7.250005798099587 0.49999999999999994
    vertex -0.49999999999999994 7.750005798099586 0.49999999999999994
    vertex 0.0 4.250005798099586 0.49999999999999994
  endloop
endfacet
facet normal 0.0 0.0 1.0
  outer loop
    vertex 160.5 7.750005798099586 0.49999999999999994
    vertex 0.0 7.250005798099587 0.49999999999999994
    vertex 160.0 7.250005798099587 0.49999999999999994
  endloop
endfacet
facet normal 0.0 0.0 1.0
  outer loop
    vertex 160.5 7.750005798099586 0.49999999999999994
    vertex 160.0 7.250005798099587 0.49999999999999994
    vertex 160.5 3.7500057980995867 0.49999999999999994
  endloop
endfacet
facet normal 1.0 0.0 0.0
  outer loop
    vertex 160.5 28.958875569058666 0.0
    vertex 160.5 24.95887556905867 0.49999999999999994
    vertex 160.5 24.95887556905867 0.0
  endloop
endfacet
facet normal 1.0 0.0 0.0
  outer loop
    vertex 160.5 24.95887556905867 0.49999999999999994
    vertex 160.5 28.958875569058666 0.0
    vertex 160.5 28.958875569058666 0.49999999999999994
  endloop
endfacet
facet normal -1.0 0.0 0.0
  outer loop
    vertex -0.49999999999999994 7.750005798099586 0.49999999999999994
    vertex -0.49999999999999994 3.7500057980995867 0.0
    vertex -0.49999999999999994 3.7500057980995867 0.49999999999999994
  endloop
endfacet
facet normal -1.0 0.0 0.0
  outer loop
    vertex -0.49999999999999994 3.7500057980995867 0.0
    vertex -0.49999999999999994 7.750005798099586 0.49999999999999994
    vertex -0.49999999999999994 7.750005798099586 0.0
  endloop
endfacet
facet normal 1.0 0.0 0.0
  outer loop
    vertex 0.0 3.0 0.0
    vertex 0.0 0.0 0.49999999999999994
    vertex 0.0 0.0 0.0
  endloop
endfacet
facet normal 1.0 0.0 0.0
  outer loop
    vertex 0.0 0.0 0.49999999999999994
    vertex 0.0 3.0 0.0
    vertex 0.0 3.0 0.49999999999999994
  endloop
endfacet
facet normal 1.0947074854611404e-18 -1.0 0.0
  outer loop
    vertex 160.5 -0.4999999999999998 0.49999999999999994
    vertex -0.49999999999999994 -0.49999999999999994 0.0
    vertex 160.5 -0.4999999999999998 0.0
  endloop
endfacet
facet normal 1.0947074854611404e-18 -1.0 0.0
  outer loop
    vertex -0.49999999999999994 -0.49999999999999994 0.0
    vertex 160.5 -0.4999999999999998 0.49999999999999994
    vertex -0.49999999999999994 -0.49999999999999994 0.49999999999999994
  endloop
endfacet
facet normal -0.0 -1.0 -0.0
  outer loop
    vertex 160.0 11.497505327947321 0.49999999999999994
    vertex 0.0 11.497505327947321 0.0
    vertex 160.0 11.497505327947321 0.0
  endloop
endfacet
facet normal -0.0 -1.0 -0.0
  outer loop
    vertex 0.0 11.497505327947321 0.0
    vertex 160.0 11.497505327947321 0.49999999999999994
    vertex 0.0 11.497505327947321 0.49999999999999994
  endloop
endfacet
facet normal 1.0947074854611404e-18 -1.0 0.0
  outer loop
    vertex 160.5 3.7500057980995867 0.49999999999999994
    vertex -0.49999999999999994 3.7500057980995867 0.0
    vertex 160.5 3.7500057980995867 0.0
  endloop
endfacet
facet normal 1.0947074854611404e-18 -1.0 0.0
  outer loop
    vertex -0.49999999999999994 3.7500057980995867 0.0
    vertex 160.5 3.7500057980995867 0.49999999999999994
    vertex -0.49999999999999994 3.7500057980995867 0.49999999999999994
  endloop
endfacet
facet normal 0.0 0.0 -1.0
  outer loop
    vertex -0.49999999999999994 33.208881367158256 0.0
    vertex 0.0 32.708881367158256 0.0
    vertex -0.49999999999999994 29.208881367158256 0.0
  endloop
endfacet
facet normal 0.0 0.0 -1.0
  outer loop
    vertex 0.0 32.708881367158256 0.0
    vertex -0.49999999999999994 33.208881367158256 0.0
    vertex 160.5 33.208881367158256 0.0
  endloop
endfacet
facet normal 0.0 0.0 -1.0
  outer loop
    vertex 0.0 32.708881367158256 0.0
    vertex 160.5 33.208881367158256 0.0
    vertex 160.0 32.708881367158256 0.0
  endloop
endfacet
facet normal 0.0 0.0 -1.0
  outer loop
    vertex 160.0 32.708881367158256 0.0
    vertex 160.5 33.208881367158256 0.0
    vertex 160.0 29.708881367158256 0.0
  endloop
endfacet
facet normal 0.0 0.0 -1.0
  outer loop
    vertex -0.49999999999999994 29.208881367158256 0.0
    vertex 0.0 29.708881367158256 0.0
    vertex 160.5 29.208881367158256 0.0
  endloop
endfacet
facet normal 0.0 0.0 -1.0
  outer loop
    vertex 0.0 29.708881367158256 0.0
    vertex -0.49999999999999994 29.208881367158256 0.0
    vertex 0.0 32.708881367158256 0.0
  endloop
endfacet
facet normal 0.0 0.0 -1.0
  outer loop
    vertex 160.5 29.208881367158256 0.0
    vertex 0.0 29.708881367158256 0.0
    vertex 160.0 29.708881367158256 0.0
  endloop
endfacet
facet normal 0.0 0.0 -1.0
  outer loop
    vertex 160.5 29.208881367158256 0.0
    vertex 160.0 29.708881367158256 0.0
    vertex 160.5 33.208881367158256 0.0
  endloop
endfacet
facet normal 0.0 1.0 0.0
  outer loop
    vertex 0.0 46.6309794354718 0.49999999999999994
    vertex 160.0 46.6309794354718 0.0
    vertex 0.0 46.6309794354718 0.0
  endloop
endfacet
facet normal 0.0 1.0 0.0
  outer loop
    vertex 160.0 46.6309794354718 0.0
    vertex 0.0 46.6309794354718 0.49999999999999994
    vertex 160.0 46.6309794354718 0.49999999999999994
  endloop
endfacet
facet normal 1.0 0.0 0.0
  outer loop
    vertex 160.5 16.24751112604691 0.0
    vertex 160.5 12.24751112604691 0.49999999999999994
    vertex 160.5 12.24751112604691 0.0
  endloop
endfacet
facet normal 1.0 0.0 0.0
  outer loop
    vertex 160.5 12.24751112604691 0.49999999999999994
    vertex 160.5 16.24751112604691 0.0
    vertex 160.5 16.24751112604691 0.49999999999999994
  endloop
endfacet
facet normal -1.0 0.0 0.0
  outer loop
    vertex -0.49999999999999994 3.5 0.49999999999999994
    vertex -0.49999999999999994 -0.49999999999999994 0.0
    vertex -0.49999999999999994 -0.49999999999999994 0.49999999999999994
  endloop
endfacet
facet normal -1.0 0.0 0.0
  outer loop
    vertex -0.49999999999999994 -0.49999999999999994 0.0
    vertex -0.49999999999999994 3.5 0.49999999999999994
    vertex -0.49999999999999994 3.5 0.0
  endloop
endfacet
facet normal 0.0 1.0 0.0
  outer loop
    vertex 0.0 12.74751112604691 0.49999999999999994
    vertex 160.0 12.74751112604691 0.0
    vertex 0.0 12.74751112604691 0.0
  endloop
endfacet
facet normal 0.0 1.0 0.0
  outer loop
    vertex 160.0 12.74751112604691 0.0
    vertex 0.0 12.74751112604691 0.49999999999999994
    vertex 160.0 12.74751112604691 0.49999999999999994
  endloop
endfacet
facet normal -1.0 0.0 0.0
  outer loop
    vertex -0.49999999999999994 37.38346830942489 0.49999999999999994
    vertex -0.49999999999999994 33.38346830942489 0.0
    vertex -0.49999999999999994 33.38346830942489 0.49999999999999994
  endloop
endfacet
facet normal -1.0 0.0 0.0
  outer loop
    vertex -0.49999999999999994 33.38346830942489 0.0
    vertex -0.49999999999999994 37.38346830942489 0.49999999999999994
    vertex -0.49999999999999994 37.38346830942489 0.0
  endloop
endfacet
facet normal 0.0 0.0 -1.0
  outer loop
    vertex -0.49999999999999994 20.46137024111135 0.0
    vertex 0.0 19.961370241111347 0.0
    vertex -0.49999999999999994 16.461370241111347 0.0
  endloop
endfacet
facet normal 0.0 0.0 -1.0
  outer loop
    vertex 0.0 19.961370241111347 0.0
    vertex -0.49999999999999994 20.46137024111135 0.0
    vertex 160.5 20.46137024111135 0.0
  endloop
endfacet
facet normal 0.0 0.0 -1.0
  outer loop
    vertex 0.0 19.961370241111347 0.0
    vertex 160.5 20.46137024111135 0.0
    vertex 160.0 19.961370241111347 0.0
  endloop
endfacet
facet normal 0.0 0.0 -1.0
  outer loop
    vertex 160.0 19.961370241111347 0.0
    vertex 160.5 20.46137024111135 0.0
    vertex 160.0 16.961370241111347 0.0
  endloop
endfacet
facet normal 0.0 0.0 -1.0
  outer loop
    vertex -0.49999999999999994 16.461370241111347 0.0
    vertex 0.0 16.961370241111347 0.0
    vertex 160.5 16.461370241111347 0.0
  endloop
endfacet
facet normal 0.0 0.0 -1.0
  outer loop
    vertex 0.0 16.961370241111347 0.0
    vertex -0.49999999999999994 16.461370241111347 0.0
    vertex 0.0 19.961370241111347 0.0
  endloop
endfacet
facet normal 0.0 0.0 -1.0
  outer loop
    vertex 160.5 16.461370241111347 0.0
    vertex 0.0 16.961370241111347 0.0
    vertex 160.0 16.961370241111347 0.0
  endloop
endfacet
facet normal 0.0 0.0 -1.0
  outer loop
    vertex 160.5 16.461370241111347 0.0
    vertex 160.0 16.961370241111347 0.0
    vertex 160.5 20.46137024111135 0.0
  endloop
endfacet
facet normal 0.0 1.0 0.0
  outer loop
    vertex 0.0 42.380973637372215 0.49999999999999994
    vertex 160.0 42.380973637372215 0.0
    vertex 0.0 42.380973637372215 0.0
  endloop
endfacet
facet normal 0.0 1.0 0.0
  outer loop
    vertex 160.0 42.380973637372215 0.0
    vertex 0.0 42.380973637372215 0.49999999999999994
    vertex 160.0 42.380973637372215 0.49999999999999994
  endloop
endfacet
facet normal -0.0 -1.0 -0.0
  outer loop
    vertex 160.0 45.380973637372215 0.49999999999999994
    vertex 0.0 45.380973637372215 0.0
    vertex 160.0 45.380973637372215 0.0
  endloop
endfacet
facet normal -0.0 -1.0 -0.0
  outer loop
    vertex 0.0 45.380973637372215 0.0
    vertex 160.0 45.380973637372215 0.49999999999999994
    vertex 0.0 45.380973637372215 0.49999999999999994
  endloop
endfacet
facet normal 0.0 1.0 0.0
  outer loop
    vertex 0.0 16.961370241111347 0.49999999999999994
    vertex 160.0 16.961370241111347 0.0
    vertex 0.0 16.961370241111347 0.0
  endloop
endfacet
facet normal 0.0 1.0 0.0
  outer loop
    vertex 160.0 16.961370241111347 0.0
    vertex 0.0 16.961370241111347 0.49999999999999994
    vertex 160.0 16.961370241111347 0.49999999999999994
  endloop
endfacet
facet normal -0.0 -1.0 -0.0
  outer loop
    vertex 160.0 19.961370241111347 0.49999999999999994
    vertex 0.0 19.961370241111347 0.0
    vertex 160.0 19.961370241111347 0.0
  endloop
endfacet
facet normal -0.0 -1.0 -0.0
  outer loop
    vertex 0.0 19.961370241111347 0.0
    vertex 160.0 19.961370241111347 0.49999999999999994
    vertex 0.0 19.961370241111347 0.49999999999999994
  endloop
endfacet
facet normal 1.0 0.0 0.0
  outer loop
    vertex 0.0 24.211376039210936 0.0
    vertex 0.0 21.211376039210933 0.49999999999999994
    vertex 0.0 21.211376039210933 0.0
  endloop
endfacet
facet normal 1.0 0.0 0.0
  outer loop
    vertex 0.0 21.211376039210933 0.49999999999999994
    vertex 0.0 24.211376039210936 0.0
    vertex 0.0 24.211376039210936 0.49999999999999994
  endloop
endfacet
facet normal -1.0 0.0 0.0
  outer loop
    vertex 160.0 19.961370241111347 0.49999999999999994
    vertex 160.0 16.961370241111347 0.0
    vertex 160.0 16.961370241111347 0.49999999999999994
  endloop
endfacet
facet normal -1.0 0.0 0.0
  outer loop
    vertex 160.0 16.961370241111347 0.0
    vertex 160.0 19.961370241111347 0.49999999999999994
    vertex 160.0 19.961370241111347 0.0
  endloop
endfacet
facet normal 0.0 1.0 0.0
  outer loop
    vertex -0.49999999999999994 24.711376039210936 0.49999999999999994
    vertex 160.5 24.711376039210936 0.0
    vertex -0.49999999999999994 24.711376039210936 0.0
  endloop
endfacet
facet normal 0.0 1.0 0.0
  outer loop
    vertex 160.5 24.711376039210936 0.0
    vertex -0.49999999999999994 24.711376039210936 0.49999999999999994
    vertex 160.5 24.711376039210936 0.49999999999999994
  endloop
endfacet
facet normal 0.0 0.0 -1.0
  outer loop
    vertex -0.49999999999999994 24.711376039210936 0.0
    vertex 0.0 24.211376039210936 0.0
    vertex -0.49999999999999994 20.711376039210936 0.0
  endloop
endfacet
facet normal 0.0 0.0 -1.0
  outer loop
    vertex 0.0 24.211376039210936 0.0
    vertex -0.49999999999999994 24.711376039210936 0.0
    vertex 160.5 24.711376039210936 0.0
  endloop
endfacet
facet normal 0.0 0.0 -1.0
  outer loop
    vertex 0.0 24.211376039210936 0.0
    vertex 160.5 24.711376039210936 0.0
    vertex 160.0 24.211376039210936 0.0
  endloop
endfacet
facet normal 0.0 0.0 -1.0
  outer loop
    vertex 160.0 24.211376039210936 0.0
    vertex 160.5 24.711376039210936 0.0
    vertex 160.0 21.211376039210933 0.0
  endloop
endfacet
facet normal 0.0 0.0 -1.0
  outer loop
    vertex -0.49999999999999994 20.711376039210936 0.0
    vertex 0.0 21.211376039210933 0.0
    vertex 160.5 20.711376039210936 0.0
  endloop
endfacet
facet normal 0.0 0.0 -1.0
  outer loop
    vertex 0.0 21.211376039210933 0.0
    vertex -0.49999999999999994 20.711376039210936 0.0
    vertex 0.0 24.211376039210936 0.0
  endloop
endfacet
facet normal 0.0 0.0 -1.0
  outer loop
    vertex 160.5 20.711376039210936 0.0
    vertex 0.0 21.211376039210933 0.0
    vertex 160.0 21.211376039210933 0.0
  endloop
endfacet
facet normal 0.0 0.0 -1.0
  outer loop
    vertex 160.5 20.711376039210936 0.0
    vertex 160.0 21.211376039210933 0.0
    vertex 160.5 24.711376039210936 0.0
  endloop
endfacet
facet normal 0.0 0.0 1.0
  outer loop
    vertex -0.49999999999999994 24.95887556905867 0.49999999999999994
    vertex 0.0 25.458875569058673 0.49999999999999994
    vertex -0.49999999999999994 28.958875569058666 0.49999999999999994
  endloop
endfacet
facet normal 0.0 0.0 1.0
  outer loop
    vertex 0.0 25.458875569058673 0.49999999999999994
    vertex -0.49999999999999994 24.95887556905867 0.49999999999999994
    vertex 160.5 24.95887556905867 0.49999999999999994
  endloop
endfacet
facet normal 0.0 0.0 1.0
  outer loop
    vertex 0.0 25.458875569058673 0.49999999999999994
    vertex 160.5 24.95887556905867 0.49999999999999994
    vertex 160.0 25.458875569058673 0.49999999999999994
  endloop
endfacet
facet normal 0.0 0.0 1.0
  outer loop
    vertex 160.0 25.458875569058673 0.49999999999999994
    vertex 160.5 24.95887556905867 0.49999999999999994
    vertex 160.0 28.45887556905867 0.49999999999999994
  endloop
endfacet
facet normal 0.0 0.0 1.0
  outer loop
    vertex -0.49999999999999994 28.958875569058666 0.49999999999999994
    vertex 0.0 28.45887556905867 0.49999999999999994
    vertex 160.5 28.958875569058666 0.49999999999999994
  endloop
endfacet
facet normal 0.0 0.0 1.0
  outer loop
    vertex 0.0 28.45887556905867 0.49999999999999994
    vertex -0.49999999999999994 28.958875569058666 0.49999999999999994
    vertex 0.0 25.458875569058673 0.49999999999999994
  endloop
endfacet
facet normal 0.0 0.0 1.0
  outer loop
    vertex 160.5 28.958875569058666 0.49999999999999994
    vertex 0.0 28.45887556905867 0.49999999999999994
    vertex 160.0 28.45887556905867 0.49999999999999994
  endloop
endfacet
facet normal 0.0 0.0 1.0
  outer loop
    vertex 160.5 28.958875569058666 0.49999999999999994
    vertex 160.0 28.45887556905867 0.49999999999999994
    vertex 160.5 24.95887556905867 0.49999999999999994
  endloop
endfacet
facet normal 0.0 1.0 0.0
  outer loop
    vertex 0.0 25.458875569058673 0.49999999999999994
    vertex 160.0 25.458875569058673 0.0
    vertex 0.0 25.458875569058673 0.0
  endloop
endfacet
facet normal 0.0 1.0 0.0
  outer loop
    vertex 160.0 25.458875569058673 0.0
    vertex 0.0 25.458875569058673 0.49999999999999994
    vertex 160.0 25.458875569058673 0.49999999999999994
  endloop
endfacet
facet normal 1.0947074854611404e-18 -1.0 0.0
  outer loop
    vertex 160.5 7.997505327947322 0.49999999999999994
    vertex -0.49999999999999994 7.997505327947322 0.0
    vertex 160.5 7.997505327947322 0.0
  endloop
endfacet
facet normal 1.0947074854611404e-18 -1.0 0.0
  outer loop
    vertex -0.49999999999999994 7.997505327947322 0.0
    vertex 160.5 7.997505327947322 0.49999999999999994
    vertex -0.49999999999999994 7.997505327947322 0.49999999999999994
  endloop
endfacet
facet normal 0.0 1.0 0.0
  outer loop
    vertex -0.49999999999999994 16.24751112604691 0.49999999999999994
    vertex 160.5 16.24751112604691 0.0
    vertex -0.49999999999999994 16.24751112604691 0.0
  endloop
endfacet
facet normal 0.0 1.0 0.0
  outer loop
    vertex 160.5 16.24751112604691 0.0
    vertex -0.49999999999999994 16.24751112604691 0.49999999999999994
    vertex 160.5 16.24751112604691 0.49999999999999994
  endloop
endfacet
facet normal -1.0 0.0 0.0
  outer loop
    vertex -0.49999999999999994 41.63347410752448 0.49999999999999994
    vertex -0.49999999999999994 37.63347410752448 0.0
    vertex -0.49999999999999994 37.63347410752448 0.49999999999999994
  endloop
endfacet
facet normal -1.0 0.0 0.0
  outer loop
    vertex -0.49999999999999994 37.63347410752448 0.0
    vertex -0.49999999999999994 41.63347410752448 0.49999999999999994
    vertex -0.49999999999999994 41.63347410752448 0.0
  endloop
endfacet
facet normal 0.0 0.0 1.0
  outer loop
    vertex -0.49999999999999994 16.461370241111347 0.49999999999999994
    vertex 0.0 16.961370241111347 0.49999999999999994
    vertex -0.49999999999999994 20.46137024111135 0.49999999999999994
  endloop
endfacet
facet normal 0.0 0.0 1.0
  outer loop
    vertex 0.0 16.961370241111347 0.49999999999999994
    vertex -0.49999999999999994 16.461370241111347 0.49999999999999994
    vertex 160.5 16.461370241111347 0.49999999999999994
  endloop
endfacet
facet normal 0.0 0.0 1.0
  outer loop
    vertex 0.0 16.961370241111347 0.49999999999999994
    vertex 160.5 16.461370241111347 0.49999999999999994
    vertex 160.0 16.961370241111347 0.49999999999999994
  endloop
endfacet
facet normal 0.0 0.0 1.0
  outer loop
    vertex 160.0 16.961370241111347 0.49999999999999994
    vertex 160.5 16.461370241111347 0.49999999999999994
    vertex 160.0 19.961370241111347 0.49999999999999994
  endloop
endfacet
facet normal 0.0 0.0 1.0
  outer loop
    vertex -0.49999999999999994 20.46137024111135 0.49999999999999994
    vertex 0.0 19.961370241111347 0.49999999999999994
    vertex 160.5 20.46137024111135 0.49999999999999994
  endloop
endfacet
facet normal 0.0 0.0 1.0
  outer loop
    vertex 0.0 19.961370241111347 0.49999999999999994
    vertex -0.49999999999999994 20.46137024111135 0.49999999999999994
    vertex 0.0 16.961370241111347 0.49999999999999994
  endloop
endfacet
facet normal 0.0 0.0 1.0
  outer loop
    vertex 160.5 20.46137024111135 0.49999999999999994
    vertex 0.0 19.961370241111347 0.49999999999999994
    vertex 160.0 19.961370241111347 0.49999999999999994
  endloop
endfacet
facet normal 0.0 0.0 1.0
  outer loop
    vertex 160.5 20.46137024111135 0.49999999999999994
    vertex 160.0 19.961370241111347 0.49999999999999994
    vertex 160.5 16.461370241111347 0.49999999999999994
  endloop
endfacet
facet normal 1.0947074854611404e-18 -1.0 0.0
  outer loop
    vertex 160.5 37.63347410752448 0.49999999999999994
    vertex -0.49999999999999994 37.63347410752448 0.0
    vertex 160.5 37.63347410752448 0.0
  endloop
endfacet
facet normal 1.0947074854611404e-18 -1.0 0.0
  outer loop
    vertex -0.49999999999999994 37.63347410752448 0.0
    vertex 160.5 37.63347410752448 0.49999999999999994
    vertex -0.49999999999999994 37.63347410752448 0.49999999999999994
  endloop
endfacet
facet normal -1.0 0.0 0.0
  outer loop
    vertex 160.0 15.747511126046911 0.49999999999999994
    vertex 160.0 12.74751112604691 0.0
    vertex 160.0 12.74751112604691 0.49999999999999994
  endloop
endfacet
facet normal -1.0 0.0 0.0
  outer loop
    vertex 160.0 12.74751112604691 0.0
    vertex 160.0 15.747511126046911 0.49999999999999994
    vertex 160.0 15.747511126046911 0.0
  endloop
endfacet
facet normal 1.0 0.0 0.0
  outer loop
    vertex 160.5 24.711376039210936 0.0
    vertex 160.5 20.711376039210936 0.49999999999999994
    vertex 160.5 20.711376039210936 0.0
  endloop
endfacet
facet normal 1.0 0.0 0.0
  outer loop
    vertex 160.5 20.711376039210936 0.49999999999999994
    vertex 160.5 24.711376039210936 0.0
    vertex 160.5 24.711376039210936 0.49999999999999994
  endloop
endfacet
facet normal 0.0 1.0 0.0
  outer loop
    vertex 0.0 21.211376039210933 0.49999999999999994
    vertex 160.0 21.211376039210933 0.0
    vertex 0.0 21.211376039210933 0.0
  endloop
endfacet
facet normal 0.0 1.0 0.0
  outer loop
    vertex 160.0 21.211376039210933 0.0
    vertex 0.0 21.211376039210933 0.49999999999999994
    vertex 160.0 21.211376039210933 0.49999999999999994
  endloop
endfacet
facet normal 0.0 0.0 -1.0
  outer loop
    vertex -0.49999999999999994 28.958875569058666 0.0
    vertex 0.0 28.45887556905867 0.0
    vertex -0.49999999999999994 24.95887556905867 0.0
  endloop
endfacet
facet normal 0.0 0.0 -1.0
  outer loop
    vertex 0.0 28.45887556905867 0.0
    vertex -0.49999999999999994 28.958875569058666 0.0
    vertex 160.5 28.958875569058666 0.0
  endloop
endfacet
facet normal 0.0 0.0 -1.0
  outer loop
    vertex 0.0 28.45887556905867 0.0
    vertex 160.5 28.958875569058666 0.0
    vertex 160.0 28.45887556905867 0.0
  endloop
endfacet
facet normal 0.0 0.0 -1.0
  outer loop
    vertex 160.0 28.45887556905867 0.0
    vertex 160.5 28.958875569058666 0.0
    vertex 160.0 25.458875569058673 0.0
  endloop
endfacet
facet normal 0.0 0.0 -1.0
  outer loop
    vertex -0.49999999999999994 24.95887556905867 0.0
    vertex 0.0 25.458875569058673 0.0
    vertex 160.5 24.95887556905867 0.0
  endloop
endfacet
facet normal 0.0 0.0 -1.0
  outer loop
    vertex 0.0 25.458875569058673 0.0
    vertex -0.49999999999999994 24.95887556905867 0.0
    vertex 0.0 28.45887556905867 0.0
  endloop
endfacet
facet normal 0.0 0.0 -1.0
  outer loop
    vertex 160.5 24.95887556905867 0.0
    vertex 0.0 25.458875569058673 0.0
    vertex 160.0 25.458875569058673 0.0
  endloop
endfacet
facet normal 0.0 0.0 -1.0
  outer loop
    vertex 160.5 24.95887556905867 0.0
    vertex 160.0 25.458875569058673 0.0
    vertex 160.5 28.958875569058666 0.0
  endloop
endfacet
facet normal 1.0 0.0 0.0
  outer loop
    vertex 0.0 15.747511126046911 0.0
    vertex 0.0 12.74751112604691 0.49999999999999994
    vertex 0.0 12.74751112604691 0.0
  endloop
endfacet
facet normal 1.0 0.0 0.0
  outer loop
    vertex 0.0 12.74751112604691 0.49999999999999994
    vertex 0.0 15.747511126046911 0.0
    vertex 0.0 15.747511126046911 0.49999999999999994
  endloop
endfacet
facet normal -1.0 0.0 0.0
  outer loop
    vertex -0.49999999999999994 16.24751112604691 0.49999999999999994
    vertex -0.49999999999999994 12.24751112604691 0.0
    vertex -0.49999999999999994 12.24751112604691 0.49999999999999994
  endloop
endfacet
facet normal -1.0 0.0 0.0
  outer loop
    vertex -0.49999999999999994 12.24751112604691 0.0
    vertex -0.49999999999999994 16.24751112604691 0.49999999999999994
    vertex -0.49999999999999994 16.24751112604691 0.0
  endloop
endfacet
facet normal -1.0 0.0 0.0
  outer loop
    vertex 160.0 41.13347410752448 0.49999999999999994
    vertex 160.0 38.13347410752448 0.0
    vertex 160.0 38.13347410752448 0.49999999999999994
  endloop
endfacet
facet normal -1.0 0.0 0.0
  outer loop
    vertex 160.0 38.13347410752448 0.0
    vertex 160.0 41.13347410752448 0.49999999999999994
    vertex 160.0 41.13347410752448 0.0
  endloop
endfacet
facet normal 0.0 0.0 1.0
  outer loop
    vertex -0.49999999999999994 37.63347410752448 0.49999999999999994
    vertex 0.0 38.13347410752448 0.49999999999999994
    vertex -0.49999999999999994 41.63347410752448 0.49999999999999994
  endloop
endfacet
facet normal 0.0 0.0 1.0
  outer loop
    vertex 0.0 38.13347410752448 0.49999999999999994
    vertex -0.49999999999999994 37.63347410752448 0.49999999999999994
    vertex 160.5 37.63347410752448 0.49999999999999994
  endloop
endfacet
facet normal 0.0 0.0 1.0
  outer loop
    vertex 0.0 38.13347410752448 0.49999999999999994
    vertex 160.5 37.63347410752448 0.49999999999999994
    vertex 160.0 38.13347410752448 0.49999999999999994
  endloop
endfacet
facet normal 0.0 0.0 1.0
  outer loop
    vertex 160.0 38.13347410752448 0.49999999999999994
    vertex 160.5 37.63347410752448 0.49999999999999994
    vertex 160.0 41.13347410752448 0.49999999999999994
  endloop
endfacet
facet normal 0.0 0.0 1.0
  outer loop
    vertex -0.49999999999999994 41.63347410752448 0.49999999999999994
    vertex 0.0 41.13347410752448 0.49999999999999994
    vertex 160.5 41.63347410752448 0.49999999999999994
  endloop
endfacet
facet normal 0.0 0.0 1.0
  outer loop
    vertex 0.0 41.13347410752448 0.49999999999999994
    vertex -0.49999999999999994 41.63347410752448 0.49999999999999994
    vertex 0.0 38.13347410752448 0.49999999999999994
  endloop
endfacet
facet normal 0.0 0.0 1.0
  outer loop
    vertex 160.5 41.63347410752448 0.49999999999999994
    vertex 0.0 41.13347410752448 0.49999999999999994
    vertex 160.0 41.13347410752448 0.49999999999999994
  endloop
endfacet
facet normal 0.0 0.0 1.0
  outer loop
    vertex 160.5 41.63347410752448 0.49999999999999994
    vertex 160.0 41.13347410752448 0.49999999999999994
    vertex 160.5 37.63347410752448 0.49999999999999994
  endloop
endfacet
facet normal 0.0 1.0 0.0
  outer loop
    vertex -0.49999999999999994 20.46137024111135 0.49999999999999994
    vertex 160.5 20.46137024111135 0.0
    vertex -0.49999999999999994 20.46137024111135 0.0
  endloop
endfacet
facet normal 0.0 1.0 0.0
  outer loop
    vertex 160.5 20.46137024111135 0.0
    vertex -0.49999999999999994 20.46137024111135 0.49999999999999994
    vertex 160.5 20.46137024111135 0.49999999999999994
  endloop
endfacet
facet normal -0.0 -1.0 -0.0
  outer loop
    vertex 160.0 15.747511126046911 0.49999999999999994
    vertex 0.0 15.747511126046911 0.0
    vertex 160.0 15.747511126046911 0.0
  endloop
endfacet
facet normal -0.0 -1.0 -0.0
  outer loop
    vertex 0.0 15.747511126046911 0.0
    vertex 160.0 15.747511126046911 0.49999999999999994
    vertex 0.0 15.747511126046911 0.49999999999999994
  endloop
endfacet
facet normal -1.0 0.0 0.0
  outer loop
    vertex 160.0 11.497505327947321 0.49999999999999994
    vertex 160.0 8.497505327947323 0.0
    vertex 160.0 8.497505327947323 0.49999999999999994
  endloop
endfacet
facet normal -1.0 0.0 0.0
  outer loop
    vertex 160.0 8.497505327947323 0.0
    vertex 160.0 11.497505327947321 0.49999999999999994
    vertex 160.0 11.497505327947321 0.0
  endloop
endfacet
facet normal 1.0 0.0 0.0
  outer loop
    vertex 160.5 37.38346830942489 0.0
    vertex 160.5 33.38346830942489 0.49999999999999994
    vertex 160.5 33.38346830942489 0.0
  endloop
endfacet
facet normal 1.0 0.0 0.0
  outer loop
    vertex 160.5 33.38346830942489 0.49999999999999994
    vertex 160.5 37.38346830942489 0.0
    vertex 160.5 37.38346830942489 0.49999999999999994
  endloop
endfacet
facet normal 0.0 0.0 -1.0
  outer loop
    vertex -0.49999999999999994 16.24751112604691 0.0
    vertex 0.0 15.747511126046911 0.0
    vertex -0.49999999999999994 12.24751112604691 0.0
  endloop
endfacet
facet normal 0.0 0.0 -1.0
  outer loop
    vertex 0.0 15.747511126046911 0.0
    vertex -0.49999999999999994 16.24751112604691 0.0
    vertex 160.5 16.24751112604691 0.0
  endloop
endfacet
facet normal 0.0 0.0 -1.0
  outer loop
    vertex 0.0 15.747511126046911 0.0
    vertex 160.5 16.24751112604691 0.0
    vertex 160.0 15.747511126046911 0.0
  endloop
endfacet
facet normal 0.0 0.0 -1.0
  outer loop
    vertex 160.0 15.747511126046911 0.0
    vertex 160.5 16.24751112604691 0.0
    vertex 160.0 12.74751112604691 0.0
  endloop
endfacet
facet normal 0.0 0.0 -1.0
  outer loop
    vertex -0.49999999999999994 12.24751112604691 0.0
    vertex 0.0 12.74751112604691 0.0
    vertex 160.5 12.24751112604691 0.0
  endloop
endfacet
facet normal 0.0 0.0 -1.0
  outer loop
    vertex 0.0 12.74751112604691 0.0
    vertex -0.49999999999999994 12.24751112604691 0.0
    vertex 0.0 15.747511126046911 0.0
  endloop
endfacet
facet normal 0.0 0.0 -1.0
  outer loop
    vertex 160.5 12.24751112604691 0.0
    vertex 0.0 12.74751112604691 0.0
    vertex 160.0 12.74751112604691 0.0
  endloop
endfacet
facet normal 0.0 0.0 -1.0
  outer loop
    vertex 160.5 12.24751112604691 0.0
    vertex 160.0 12.74751112604691 0.0
    vertex 160.5 16.24751112604691 0.0
  endloop
endfacet
facet normal 1.0 0.0 0.0
  outer loop
    vertex 0.0 11.497505327947321 0.0
    vertex 0.0 8.497505327947323 0.49999999999999994
    vertex 0.0 8.497505327947323 0.0
  endloop
endfacet
facet normal 1.0 0.0 0.0
  outer loop
    vertex 0.0 8.497505327947323 0.49999999999999994
    vertex 0.0 11.497505327947321 0.0
    vertex 0.0 11.497505327947321 0.49999999999999994
  endloop
endfacet
facet normal 1.0947074854611404e-18 -1.0 0.0
  outer loop
    vertex 160.5 12.24751112604691 0.49999999999999994
    vertex -0.49999999999999994 12.24751112604691 0.0
    vertex 160.5 12.24751112604691 0.0
  endloop
endfacet
facet normal 1.0947074854611404e-18 -1.0 0.0
  outer loop
    vertex -0.49999999999999994 12.24751112604691 0.0
    vertex 160.5 12.24751112604691 0.49999999999999994
    vertex -0.49999999999999994 12.24751112604691 0.49999999999999994
  endloop
endfacet
facet normal 0.0 0.0 1.0
  outer loop
    vertex -0.49999999999999994 12.24751112604691 0.49999999999999994
    vertex 0.0 12.74751112604691 0.49999999999999994
    vertex -0.49999999999999994 16.24751112604691 0.49999999999999994
  endloop
endfacet
facet normal 0.0 0.0 1.0
  outer loop
    vertex 0.0 12.74751112604691 0.49999999999999994
    vertex -0.49999999999999994 12.24751112604691 0.49999999999999994
    vertex 160.5 12.24751112604691 0.49999999999999994
  endloop
endfacet
facet normal 0.0 0.0 1.0
  outer loop
    vertex 0.0 12.74751112604691 0.49999999999999994
    vertex 160.5 12.24751112604691 0.49999999999999994
    vertex 160.0 12.74751112604691 0.49999999999999994
  endloop
endfacet
facet normal 0.0 0.0 1.0
  outer loop
    vertex 160.0 12.74751112604691 0.49999999999999994
    vertex 160.5 12.24751112604691 0.49999999999999994
    vertex 160.0 15.747511126046911 0.49999999999999994
  endloop
endfacet
facet normal 0.0 0.0 1.0
  outer loop
    vertex -0.49999999999999994 16.24751112604691 0.49999999999999994
    vertex 0.0 15.747511126046911 0.49999999999999994
    vertex 160.5 16.24751112604691 0.49999999999999994
  endloop
endfacet
facet normal 0.0 0.0 1.0
  outer loop
    vertex 0.0 15.747511126046911 0.49999999999999994
    vertex -0.49999999999999994 16.24751112604691 0.49999999999999994
    vertex 0.0 12.74751112604691 0.49999999999999994
  endloop
endfacet
facet normal 0.0 0.0 1.0
  outer loop
    vertex 160.5 16.24751112604691 0.49999999999999994
    vertex 0.0 15.747511126046911 0.49999999999999994
    vertex 160.0 15.747511126046911 0.49999999999999994
  endloop
endfacet
facet normal 0.0 0.0 1.0
  outer loop
    vertex 160.5 16.24751112604691 0.49999999999999994
    vertex 160.0 15.747511126046911 0.49999999999999994
    vertex 160.5 12.24751112604691 0.49999999999999994
  endloop
endfacet
facet normal -0.0 -1.0 -0.0
  outer loop
    vertex 160.0 41.13347410752448 0.49999999999999994
    vertex 0.0 41.13347410752448 0.0
    vertex 160.0 41.13347410752448 0.0
  endloop
endfacet
facet normal -0.0 -1.0 -0.0
  outer loop
    vertex 0.0 41.13347410752448 0.0
    vertex 160.0 41.13347410752448 0.49999999999999994
    vertex 0.0 41.13347410752448 0.49999999999999994
  endloop
endfacet
facet normal 1.0 0.0 0.0
  outer loop
    vertex 0.0 36.88346830942489 0.0
    vertex 0.0 33.88346830942489 0.49999999999999994
    vertex 0.0 33.88346830942489 0.0
  endloop
endfacet
facet normal 1.0 0.0 0.0
  outer loop
    vertex 0.0 33.88346830942489 0.49999999999999994
    vertex 0.0 36.88346830942489 0.0
    vertex 0.0 36.88346830942489 0.49999999999999994
  endloop
endfacet
facet normal 1.0947074854611404e-18 -1.0 0.0
  outer loop
    vertex 160.5 33.38346830942489 0.49999999999999994
    vertex -0.49999999999999994 33.38346830942489 0.0
    vertex 160.5 33.38346830942489 0.0
  endloop
endfacet
facet normal 1.0947074854611404e-18 -1.0 0.0
  outer loop
    vertex -0.49999999999999994 33.38346830942489 0.0
    vertex 160.5 33.38346830942489 0.49999999999999994
    vertex -0.49999999999999994 33.38346830942489 0.49999999999999994
  endloop
endfacet
facet normal -1.0 0.0 0.0
  outer loop
    vertex -0.49999999999999994 11.997505327947323 0.49999999999999994
    vertex -0.49999999999999994 7.997505327947322 0.0
    vertex -0.49999999999999994 7.997505327947322 0.49999999999999994
  endloop
endfacet
facet normal -1.0 0.0 0.0
  outer loop
    vertex -0.49999999999999994 7.997505327947322 0.0
    vertex -0.49999999999999994 11.997505327947323 0.49999999999999994
    vertex -0.49999999999999994 11.997505327947323 0.0
  endloop
endfacet
facet normal 1.0 0.0 0.0
  outer loop
    vertex 160.5 11.997505327947323 0.0
    vertex 160.5 7.997505327947322 0.49999999999999994
    vertex 160.5 7.997505327947322 0.0
  endloop
endfacet
facet normal 1.0 0.0 0.0
  outer loop
    vertex 160.5 7.997505327947322 0.49999999999999994
    vertex 160.5 11.997505327947323 0.0
    vertex 160.5 11.997505327947323 0.49999999999999994
  endloop
endfacet
facet normal 0.0 0.0 1.0
  outer loop
    vertex -0.49999999999999994 41.880973637372215 0.49999999999999994
    vertex 0.0 42.380973637372215 0.49999999999999994
    vertex -0.49999999999999994 45.880973637372215 0.49999999999999994
  endloop
endfacet
facet normal 0.0 0.0 1.0
  outer loop
    vertex 0.0 42.380973637372215 0.49999999999999994
    vertex -0.49999999999999994 41.880973637372215 0.49999999999999994
    vertex 160.5 41.880973637372215 0.49999999999999994
  endloop
endfacet
facet normal 0.0 0.0 1.0
  outer loop
    vertex 0.0 42.380973637372215 0.49999999999999994
    vertex 160.5 41.880973637372215 0.49999999999999994
    vertex 160.0 42.380973637372215 0.49999999999999994
  endloop
endfacet
facet normal 0.0 0.0 1.0
  outer loop
    vertex 160.0 42.380973637372215 0.49999999999999994
    vertex 160.5 41.880973637372215 0.49999999999999994
    vertex 160.0 45.380973637372215 0.49999999999999994
  endloop
endfacet
facet normal 0.0 0.0 1.0
  outer loop
    vertex -0.49999999999999994 45.880973637372215 0.49999999999999994
    vertex 0.0 45.380973637372215 0.49999999999999994
    vertex 160.5 45.880973637372215 0.49999999999999994
  endloop
endfacet
facet normal 0.0 0.0 1.0
  outer loop
    vertex 0.0 45.380973637372215 0.49999999999999994
    vertex -0.49999999999999994 45.880973637372215 0.49999999999999994
    vertex 0.0 42.380973637372215 0.49999999999999994
  endloop
endfacet
facet normal 0.0 0.0 1.0
  outer loop
    vertex 160.5 45.880973637372215 0.49999999999999994
    vertex 0.0 45.380973637372215 0.49999999999999994
    vertex 160.0 45.380973637372215 0.49999999999999994
  endloop
endfacet
facet normal 0.0 0.0 1.0
  outer loop
    vertex 160.5 45.880973637372215 0.49999999999999994
    vertex 160.0 45.380973637372215 0.49999999999999994
    vertex 160.5 41.880973637372215 0.49999999999999994
  endloop
endfacet
facet normal 0.0 1.0 0.0
  outer loop
    vertex -0.49999999999999994 45.880973637372215 0.49999999999999994
    vertex 160.5 45.880973637372215 0.0
    vertex -0.49999999999999994 45.880973637372215 0.0
  endloop
endfacet
facet normal 0.0 1.0 0.0
  outer loop
    vertex 160.5 45.880973637372215 0.0
    vertex -0.49999999999999994 45.880973637372215 0.49999999999999994
    vertex 160.5 45.880973637372215 0.49999999999999994
  endloop
endfacet
facet normal 1.0 0.0 0.0
  outer loop
    vertex 160.5 50.1309794354718 0.0
    vertex 160.5 46.1309794354718 0.49999999999999994
    vertex 160.5 46.1309794354718 0.0
  endloop
endfacet
facet normal 1.0 0.0 0.0
  outer loop
    vertex 160.5 46.1309794354718 0.49999999999999994
    vertex 160.5 50.1309794354718 0.0
    vertex 160.5 50.1309794354718 0.49999999999999994
  endloop
endfacet
facet normal -1.0 0.0 0.0
  outer loop
    vertex 160.0 24.211376039210936 0.49999999999999994
    vertex 160.0 21.211376039210933 0.0
    vertex 160.0 21.211376039210933 0.49999999999999994
  endloop
endfacet
facet normal -1.0 0.0 0.0
  outer loop
    vertex 160.0 21.211376039210933 0.0
    vertex 160.0 24.211376039210936 0.49999999999999994
    vertex 160.0 24.211376039210936 0.0
  endloop
endfacet
facet normal -0.0 -1.0 -0.0
  outer loop
    vertex 160.0 24.211376039210936 0.49999999999999994
    vertex 0.0 24.211376039210936 0.0
    vertex 160.0 24.211376039210936 0.0
  endloop
endfacet
facet normal -0.0 -1.0 -0.0
  outer loop
    vertex 0.0 24.211376039210936 0.0
    vertex 160.0 24.211376039210936 0.49999999999999994
    vertex 0.0 24.211376039210936 0.49999999999999994
  endloop
endfacet
facet normal 0.0 0.0 1.0
  outer loop
    vertex -0.49999999999999994 20.711376039210936 0.49999999999999994
    vertex 0.0 21.211376039210933 0.49999999999999994
    vertex -0.49999999999999994 24.711376039210936 0.49999999999999994
  endloop
endfacet
facet normal 0.0 0.0 1.0
  outer loop
    vertex 0.0 21.211376039210933 0.49999999999999994
    vertex -0.49999999999999994 20.711376039210936 0.49999999999999994
    vertex 160.5 20.711376039210936 0.49999999999999994
  endloop
endfacet
facet normal 0.0 0.0 1.0
  outer loop
    vertex 0.0 21.211376039210933 0.49999999999999994
    vertex 160.5 20.711376039210936 0.49999999999999994
    vertex 160.0 21.211376039210933 0.49999999999999994
  endloop
endfacet
facet normal 0.0 0.0 1.0
  outer loop
    vertex 160.0 21.211376039210933 0.49999999999999994
    vertex 160.5 20.711376039210936 0.49999999999999994
    vertex 160.0 24.211376039210936 0.49999999999999994
  endloop
endfacet
facet normal 0.0 0.0 1.0
  outer loop
    vertex -0.49999999999999994 24.711376039210936 0.49999999999999994
    vertex 0.0 24.211376039210936 0.49999999999999994
    vertex 160.5 24.711376039210936 0.49999999999999994
  endloop
endfacet
facet normal 0.0 0.0 1.0
  outer loop
    vertex 0.0 24.211376039210936 0.49999999999999994
    vertex -0.49999999999999994 24.711376039210936 0.49999999999999994
    vertex 0.0 21.211376039210933 0.49999999999999994
  endloop
endfacet
facet normal 0.0 0.0 1.0
  outer loop
    vertex 160.5 24.711376039210936 0.49999999999999994
    vertex 0.0 24.211376039210936 0.49999999999999994
    vertex 160.0 24.211376039210936 0.49999999999999994
  endloop
endfacet
facet normal 0.0 0.0 1.0
  outer loop
    vertex 160.5 24.711376039210936 0.49999999999999994
    vertex 160.0 24.211376039210936 0.49999999999999994
    vertex 160.5 20.711376039210936 0.49999999999999994
  endloop
endfacet
facet normal 0.0 1.0 0.0
  outer loop
    vertex -0.49999999999999994 28.958875569058666 0.49999999999999994
    vertex 160.5 28.958875569058666 0.0
    vertex -0.49999999999999994 28.958875569058666 0.0
  endloop
endfacet
facet normal 0.0 1.0 0.0
  outer loop
    vertex 160.5 28.958875569058666 0.0
    vertex -0.49999999999999994 28.958875569058666 0.49999999999999994
    vertex 160.5 28.958875569058666 0.49999999999999994
  endloop
endfacet
facet normal 1.0 0.0 0.0
  outer loop
    vertex 160.5 20.46137024111135 0.0
    vertex 160.5 16.461370241111347 0.49999999999999994
    vertex 160.5 16.461370241111347 0.0
  endloop
endfacet
facet normal 1.0 0.0 0.0
  outer loop
    vertex 160.5 16.461370241111347 0.49999999999999994
    vertex 160.5 20.46137024111135 0.0
    vertex 160.5 20.46137024111135 0.49999999999999994
  endloop
endfacet
facet normal 1.0 0.0 0.0
  outer loop
    vertex 0.0 45.380973637372215 0.0
    vertex 0.0 42.380973637372215 0.49999999999999994
    vertex 0.0 42.380973637372215 0.0
  endloop
endfacet
facet normal 1.0 0.0 0.0
  outer loop
    vertex 0.0 42.380973637372215 0.49999999999999994
    vertex 0.0 45.380973637372215 0.0
    vertex 0.0 45.380973637372215 0.49999999999999994
  endloop
endfacet
facet normal 0.0 0.0 -1.0
  outer loop
    vertex -0.49999999999999994 50.1309794354718 0.0
    vertex 0.0 49.6309794354718 0.0
    vertex -0.49999999999999994 46.1309794354718 0.0
  endloop
endfacet
facet normal 0.0 0.0 -1.0
  outer loop
    vertex 0.0 49.6309794354718 0.0
    vertex -0.49999999999999994 50.1309794354718 0.0
    vertex 160.5 50.1309794354718 0.0
  endloop
endfacet
facet normal 0.0 0.0 -1.0
  outer loop
    vertex 0.0 49.6309794354718 0.0
    vertex 160.5 50.1309794354718 0.0
    vertex 160.0 49.6309794354718 0.0
  endloop
endfacet
facet normal 0.0 0.0 -1.0
  outer loop
    vertex 160.0 49.6309794354718 0.0
    vertex 160.5 50.1309794354718 0.0
    vertex 160.0 46.6309794354718 0.0
  endloop
endfacet
facet normal 0.0 0.0 -1.0
  outer loop
    vertex -0.49999999999999994 46.1309794354718 0.0
    vertex 0.0 46.6309794354718 0.0
    vertex 160.5 46.1309794354718 0.0
  endloop
endfacet
facet normal 0.0 0.0 -1.0
  outer loop
    vertex 0.0 46.6309794354718 0.0
    vertex -0.49999999999999994 46.1309794354718 0.0
    vertex 0.0 49.6309794354718 0.0
  endloop
endfacet
facet normal 0.0 0.0 -1.0
  outer loop
    vertex 160.5 46.1309794354718 0.0
    vertex 0.0 46.6309794354718 0.0
    vertex 160.0 46.6309794354718 0.0
  endloop
endfacet
facet normal 0.0 0.0 -1.0
  outer loop
    vertex 160.5 46.1309794354718 0.0
    vertex 160.0 46.6309794354718 0.0
    vertex 160.5 50.1309794354718 0.0
  endloop
endfacet
facet normal 1.0947074854611404e-18 -1.0 0.0
  outer loop
    vertex 160.5 46.1309794354718 0.49999999999999994
    vertex -0.49999999999999994 46.1309794354718 0.0
    vertex 160.5 46.1309794354718 0.0
  endloop
endfacet
facet normal 1.0947074854611404e-18 -1.0 0.0
  outer loop
    vertex -0.49999999999999994 46.1309794354718 0.0
    vertex 160.5 46.1309794354718 0.49999999999999994
    vertex -0.49999999999999994 46.1309794354718 0.49999999999999994
  endloop
endfacet
facet normal 1.0 0.0 0.0
  outer loop
    vertex 160.5 45.880973637372215 0.0
    vertex 160.5 41.880973637372215 0.49999999999999994
    vertex 160.5 41.880973637372215 0.0
  endloop
endfacet
facet normal 1.0 0.0 0.0
  outer loop
    vertex 160.5 41.880973637372215 0.49999999999999994
    vertex 160.5 45.880973637372215 0.0
    vertex 160.5 45.880973637372215 0.49999999999999994
  endloop
endfacet
facet normal -1.0 0.0 0.0
  outer loop
    vertex -0.49999999999999994 45.880973637372215 0.49999999999999994
    vertex -0.49999999999999994 41.880973637372215 0.0
    vertex -0.49999999999999994 41.880973637372215 0.49999999999999994
  endloop
endfacet
facet normal -1.0 0.0 0.0
  outer loop
    vertex -0.49999999999999994 41.880973637372215 0.0
    vertex -0.49999999999999994 45.880973637372215 0.49999999999999994
    vertex -0.49999999999999994 45.880973637372215 0.0
  endloop
endfacet
facet normal 0.0 0.0 1.0
  outer loop
    vertex -0.49999999999999994 46.1309794354718 0.49999999999999994
    vertex 0.0 46.6309794354718 0.49999999999999994
    vertex -0.49999999999999994 50.1309794354718 0.49999999999999994
  endloop
endfacet
facet normal 0.0 0.0 1.0
  outer loop
    vertex 0.0 46.6309794354718 0.49999999999999994
    vertex -0.49999999999999994 46.1309794354718 0.49999999999999994
    vertex 160.5 46.1309794354718 0.49999999999999994
  endloop
endfacet
facet normal 0.0 0.0 1.0
  outer loop
    vertex 0.0 46.6309794354718 0.49999999999999994
    vertex 160.5 46.1309794354718 0.49999999999999994
    vertex 160.0 46.6309794354718 0.49999999999999994
  endloop
endfacet
facet normal 0.0 0.0 1.0
  outer loop
    vertex 160.0 46.6309794354718 0.49999999999999994
    vertex 160.5 46.1309794354718 0.49999999999999994
    vertex 160.0 49.6309794354718 0.49999999999999994
  endloop
endfacet
facet normal 0.0 0.0 1.0
  outer loop
    vertex -0.49999999999999994 50.1309794354718 0.49999999999999994
    vertex 0.0 49.6309794354718 0.49999999999999994
    vertex 160.5 50.1309794354718 0.49999999999999994
  endloop
endfacet
facet normal 0.0 0.0 1.0
  outer loop
    vertex 0.0 49.6309794354718 0.49999999999999994
    vertex -0.49999999999999994 50.1309794354718 0.49999999999999994
    vertex 0.0 46.6309794354718 0.49999999999999994
  endloop
endfacet
facet normal 0.0 0.0 1.0
  outer loop
    vertex 160.5 50.1309794354718 0.49999999999999994
    vertex 0.0 49.6309794354718 0.49999999999999994
    vertex 160.0 49.6309794354718 0.49999999999999994
  endloop
endfacet
facet normal 0.0 0.0 1.0
  outer loop
    vertex 160.5 50.1309794354718 0.49999999999999994
    vertex 160.0 49.6309794354718 0.49999999999999994
    vertex 160.5 46.1309794354718 0.49999999999999994
  endloop
endfacet
facet normal 0.0 1.0 0.0
  outer loop
    vertex -0.49999999999999994 50.1309794354718 0.49999999999999994
    vertex 160.5 50.1309794354718 0.0
    vertex -0.49999999999999994 50.1309794354718 0.0
  endloop
endfacet
facet normal 0.0 1.0 0.0
  outer loop
    vertex 160.5 50.1309794354718 0.0
    vertex -0.49999999999999994 50.1309794354718 0.49999999999999994
    vertex 160.5 50.1309794354718 0.49999999999999994
  endloop
endfacet
facet normal 1.0 0.0 0.0
  outer loop
    vertex 0.0 49.6309794354718 0.0
    vertex 0.0 46.6309794354718 0.49999999999999994
    vertex 0.0 46.6309794354718 0.0
  endloop
endfacet
facet normal 1.0 0.0 0.0
  outer loop
    vertex 0.0 46.6309794354718 0.49999999999999994
    vertex 0.0 49.6309794354718 0.0
    vertex 0.0 49.6309794354718 0.49999999999999994
  endloop
endfacet
facet normal -1.0 0.0 0.0
  outer loop
    vertex 160.0 49.6309794354718 0.49999999999999994
    vertex 160.0 46.6309794354718 0.0
    vertex 160.0 46.6309794354718 0.49999999999999994
  endloop
endfacet
facet normal -1.0 0.0 0.0
  outer loop
    vertex 160.0 46.6309794354718 0.0
    vertex 160.0 49.6309794354718 0.49999999999999994
    vertex 160.0 49.6309794354718 0.0
  endloop
endfacet
facet normal 1.0947074854611404e-18 -1.0 0.0
  outer loop
    vertex 160.5 41.880973637372215 0.49999999999999994
    vertex -0.49999999999999994 41.880973637372215 0.0
    vertex 160.5 41.880973637372215 0.0
  endloop
endfacet
facet normal 1.0947074854611404e-18 -1.0 0.0
  outer loop
    vertex -0.49999999999999994 41.880973637372215 0.0
    vertex 160.5 41.880973637372215 0.49999999999999994
    vertex -0.49999999999999994 41.880973637372215 0.49999999999999994
  endloop
endfacet
facet normal 0.0 1.0 0.0
  outer loop
    vertex 0.0 38.13347410752448 0.49999999999999994
    vertex 160.0 38.13347410752448 0.0
    vertex 0.0 38.13347410752448 0.0
  endloop
endfacet
facet normal 0.0 1.0 0.0
  outer loop
    vertex 160.0 38.13347410752448 0.0
    vertex 0.0 38.13347410752448 0.49999999999999994
    vertex 160.0 38.13347410752448 0.49999999999999994
  endloop
endfacet
facet normal 0.0 0.0 1.0
  outer loop
    vertex -0.49999999999999994 33.38346830942489 0.49999999999999994
    vertex 0.0 33.88346830942489 0.49999999999999994
    vertex -0.49999999999999994 37.38346830942489 0.49999999999999994
  endloop
endfacet
facet normal 0.0 0.0 1.0
  outer loop
    vertex 0.0 33.88346830942489 0.49999999999999994
    vertex -0.49999999999999994 33.38346830942489 0.49999999999999994
    vertex 160.5 33.38346830942489 0.49999999999999994
  endloop
endfacet
facet normal 0.0 0.0 1.0
  outer loop
    vertex 0.0 33.88346830942489 0.49999999999999994
    vertex 160.5 33.38346830942489 0.49999999999999994
    vertex 160.0 33.88346830942489 0.49999999999999994
  endloop
endfacet
facet normal 0.0 0.0 1.0
  outer loop
    vertex 160.0 33.88346830942489 0.49999999999999994
    vertex 160.5 33.38346830942489 0.49999999999999994
    vertex 160.0 36.88346830942489 0.49999999999999994
  endloop
endfacet
facet normal 0.0 0.0 1.0
  outer loop
    vertex -0.49999999999999994 37.38346830942489 0.49999999999999994
    vertex 0.0 36.88346830942489 0.49999999999999994
    vertex 160.5 37.38346830942489 0.49999999999999994
  endloop
endfacet
facet normal 0.0 0.0 1.0
  outer loop
    vertex 0.0 36.88346830942489 0.49999999999999994
    vertex -0.49999999999999994 37.38346830942489 0.49999999999999994
    vertex 0.0 33.88346830942489 0.49999999999999994
  endloop
endfacet
facet normal 0.0 0.0 1.0
  outer loop
    vertex 160.5 37.38346830942489 0.49999999999999994
    vertex 0.0 36.88346830942489 0.49999999999999994
    vertex 160.0 36.88346830942489 0.49999999999999994
  endloop
endfacet
facet normal 0.0 0.0 1.0
  outer loop
    vertex 160.5 37.38346830942489 0.49999999999999994
    vertex 160.0 36.88346830942489 0.49999999999999994
    vertex 160.5 33.38346830942489 0.49999999999999994
  endloop
endfacet
facet normal 0.0 1.0 0.0
  outer loop
    vertex 0.0 33.88346830942489 0.49999999999999994
    vertex 160.0 33.88346830942489 0.0
    vertex 0.0 33.88346830942489 0.0
  endloop
endfacet
facet normal 0.0 1.0 0.0
  outer loop
    vertex 160.0 33.88346830942489 0.0
    vertex 0.0 33.88346830942489 0.49999999999999994
    vertex 160.0 33.88346830942489 0.49999999999999994
  endloop
endfacet
facet normal 0.0 1.0 0.0
  outer loop
    vertex -0.49999999999999994 37.38346830942489 0.49999999999999994
    vertex 160.5 37.38346830942489 0.0
    vertex -0.49999999999999994 37.38346830942489 0.0
  endloop
endfacet
facet normal 0.0 1.0 0.0
  outer loop
    vertex 160.5 37.38346830942489 0.0
    vertex -0.49999999999999994 37.38346830942489 0.49999999999999994
    vertex 160.5 37.38346830942489 0.49999999999999994
  endloop
endfacet
facet normal -1.0 0.0 0.0
  outer loop
    vertex 160.0 36.88346830942489 0.49999999999999994
    vertex 160.0 33.88346830942489 0.0
    vertex 160.0 33.88346830942489 0.49999999999999994
  endloop
endfacet
facet normal -1.0 0.0 0.0
  outer loop
    vertex 160.0 33.88346830942489 0.0
    vertex 160.0 36.88346830942489 0.49999999999999994
    vertex 160.0 36.88346830942489 0.0
  endloop
endfacet
facet normal 0.0 0.0 -1.0
  outer loop
    vertex -0.49999999999999994 45.880973637372215 0.0
    vertex 0.0 45.380973637372215 0.0
    vertex -0.49999999999999994 41.880973637372215 0.0
  endloop
endfacet
facet normal 0.0 0.0 -1.0
  outer loop
    vertex 0.0 45.380973637372215 0.0
    vertex -0.49999999999999994 45.880973637372215 0.0
    vertex 160.5 45.880973637372215 0.0
  endloop
endfacet
facet normal 0.0 0.0 -1.0
  outer loop
    vertex 0.0 45.380973637372215 0.0
    vertex 160.5 45.880973637372215 0.0
    vertex 160.0 45.380973637372215 0.0
  endloop
endfacet
facet normal 0.0 0.0 -1.0
  outer loop
    vertex 160.0 45.380973637372215 0.0
    vertex 160.5 45.880973637372215 0.0
    vertex 160.0 42.380973637372215 0.0
  endloop
endfacet
facet normal 0.0 0.0 -1.0
  outer loop
    vertex -0.49999999999999994 41.880973637372215 0.0
    vertex 0.0 42.380973637372215 0.0
    vertex 160.5 41.880973637372215 0.0
  endloop
endfacet
facet normal 0.0 0.0 -1.0
  outer loop
    vertex 0.0 42.380973637372215 0.0
    vertex -0.49999999999999994 41.880973637372215 0.0
    vertex 0.0 45.380973637372215 0.0
  endloop
endfacet
facet normal 0.0 0.0 -1.0
  outer loop
    vertex 160.5 41.880973637372215 0.0
    vertex 0.0 42.380973637372215 0.0
    vertex 160.0 42.380973637372215 0.0
  endloop
endfacet
facet normal 0.0 0.0 -1.0
  outer loop
    vertex 160.5 41.880973637372215 0.0
    vertex 160.0 42.380973637372215 0.0
    vertex 160.5 45.880973637372215 0.0
  endloop
endfacet
facet normal 0.0 1.0 0.0
  outer loop
    vertex -0.49999999999999994 41.63347410752448 0.49999999999999994
    vertex 160.5 41.63347410752448 0.0
    vertex -0.49999999999999994 41.63347410752448 0.0
  endloop
endfacet
facet normal 0.0 1.0 0.0
  outer loop
    vertex 160.5 41.63347410752448 0.0
    vertex -0.49999999999999994 41.63347410752448 0.49999999999999994
    vertex 160.5 41.63347410752448 0.49999999999999994
  endloop
endfacet
facet normal 0.0 0.0 -1.0
  outer loop
    vertex -0.49999999999999994 37.38346830942489 0.0
    vertex 0.0 36.88346830942489 0.0
    vertex -0.49999999999999994 33.38346830942489 0.0
  endloop
endfacet
facet normal 0.0 0.0 -1.0
  outer loop
    vertex 0.0 36.88346830942489 0.0
    vertex -0.49999999999999994 37.38346830942489 0.0
    vertex 160.5 37.38346830942489 0.0
  endloop
endfacet
facet normal 0.0 0.0 -1.0
  outer loop
    vertex 0.0 36.88346830942489 0.0
    vertex 160.5 37.38346830942489 0.0
    vertex 160.0 36.88346830942489 0.0
  endloop
endfacet
facet normal 0.0 0.0 -1.0
  outer loop
    vertex 160.0 36.88346830942489 0.0
    vertex 160.5 37.38346830942489 0.0
    vertex 160.0 33.88346830942489 0.0
  endloop
endfacet
facet normal 0.0 0.0 -1.0
  outer loop
    vertex -0.49999999999999994 33.38346830942489 0.0
    vertex 0.0 33.88346830942489 0.0
    vertex 160.5 33.38346830942489 0.0
  endloop
endfacet
facet normal 0.0 0.0 -1.0
  outer loop
    vertex 0.0 33.88346830942489 0.0
    vertex -0.49999999999999994 33.38346830942489 0.0
    vertex 0.0 36.88346830942489 0.0
  endloop
endfacet
facet normal 0.0 0.0 -1.0
  outer loop
    vertex 160.5 33.38346830942489 0.0
    vertex 0.0 33.88346830942489 0.0
    vertex 160.0 33.88346830942489 0.0
  endloop
endfacet
facet normal 0.0 0.0 -1.0
  outer loop
    vertex 160.5 33.38346830942489 0.0
    vertex 160.0 33.88346830942489 0.0
    vertex 160.5 37.38346830942489 0.0
  endloop
endfacet
facet normal 1.0 0.0 0.0
  outer loop
    vertex 160.5 41.63347410752448 0.0
    vertex 160.5 37.63347410752448 0.49999999999999994
    vertex 160.5 37.63347410752448 0.0
  endloop
endfacet
facet normal 1.0 0.0 0.0
  outer loop
    vertex 160.5 37.63347410752448 0.49999999999999994
    vertex 160.5 41.63347410752448 0.0
    vertex 160.5 41.63347410752448 0.49999999999999994
  endloop
endfacet
facet normal 0.0 0.0 -1.0
  outer loop
    vertex -0.49999999999999994 41.63347410752448 0.0
    vertex 0.0 41.13347410752448 0.0
    vertex -0.49999999999999994 37.63347410752448 0.0
  endloop
endfacet
facet normal 0.0 0.0 -1.0
  outer loop
    vertex 0.0 41.13347410752448 0.0
    vertex -0.49999999999999994 41.63347410752448 0.0
    vertex 160.5 41.63347410752448 0.0
  endloop
endfacet
facet normal 0.0 0.0 -1.0
  outer loop
    vertex 0.0 41.13347410752448 0.0
    vertex 160.5 41.63347410752448 0.0
    vertex 160.0 41.13347410752448 0.0
  endloop
endfacet
facet normal 0.0 0.0 -1.0
  outer loop
    vertex 160.0 41.13347410752448 0.0
    vertex 160.5 41.63347410752448 0.0
    vertex 160.0 38.13347410752448 0.0
  endloop
endfacet
facet normal 0.0 0.0 -1.0
  outer loop
    vertex -0.49999999999999994 37.63347410752448 0.0
    vertex 0.0 38.13347410752448 0.0
    vertex 160.5 37.63347410752448 0.0
  endloop
endfacet
facet normal 0.0 0.0 -1.0
  outer loop
    vertex 0.0 38.13347410752448 0.0
    vertex -0.49999999999999994 37.63347410752448 0.0
    vertex 0.0 41.13347410752448 0.0
  endloop
endfacet
facet normal 0.0 0.0 -1.0
  outer loop
    vertex 160.5 37.63347410752448 0.0
    vertex 0.0 38.13347410752448 0.0
    vertex 160.0 38.13347410752448 0.0
  endloop
endfacet
facet normal 0.0 0.0 -1.0
  outer loop
    vertex 160.5 37.63347410752448 0.0
    vertex 160.0 38.13347410752448 0.0
    vertex 160.5 41.63347410752448 0.0
  endloop
endfacet
facet normal -0.0 -1.0 -0.0
  outer loop
    vertex 160.0 36.88346830942489 0.49999999999999994
    vertex 0.0 36.88346830942489 0.0
    vertex 160.0 36.88346830942489 0.0
  endloop
endfacet
facet normal -0.0 -1.0 -0.0
  outer loop
    vertex 0.0 36.88346830942489 0.0
    vertex 160.0 36.88346830942489 0.49999999999999994
    vertex 0.0 36.88346830942489 0.49999999999999994
  endloop
endfacet
facet normal 1.0 0.0 0.0
  outer loop
    vertex 0.0 41.13347410752448 0.0
    vertex 0.0 38.13347410752448 0.49999999999999994
    vertex 0.0 38.13347410752448 0.0
  endloop
endfacet
facet normal 1.0 0.0 0.0
  outer loop
    vertex 0.0 38.13347410752448 0.49999999999999994
    vertex 0.0 41.13347410752448 0.0
    vertex 0.0 41.13347410752448 0.49999999999999994
  endloop
endfacet
endsolid Untitled-55ecbd67
