solid Untitled-55ecc991
facet normal -0.9326158044579403 0.3608708373854402 0.0
  outer loop
    vertex 4.0868677149270125 -14.98439263854979 0.49999999999999994
    vertex 1.3640857734093648 -22.02100853455759 0.0
    vertex 1.3640857734093648 -22.02100853455759 0.49999999999999994
  endloop
endfacet
facet normal -0.9326158044579403 0.3608708373854402 0.0
  outer loop
    vertex 1.3640857734093648 -22.02100853455759 0.0
    vertex 4.0868677149270125 -14.98439263854979 0.49999999999999994
    vertex 4.0868677149270125 -14.98439263854979 0.0
  endloop
endfacet
facet normal -0.8325245547977055 0.5539881457746928 0.0
  outer loop
    vertex 8.26672588816891 -8.702968403506661 0.49999999999999994
    vertex 4.0868677149270125 -14.98439263854979 0.0
    vertex 4.0868677149270125 -14.98439263854979 0.49999999999999994
  endloop
endfacet
facet normal -0.8325245547977055 0.5539881457746928 0.0
  outer loop
    vertex 4.0868677149270125 -14.98439263854979 0.0
    vertex 8.26672588816891 -8.702968403506661 0.49999999999999994
    vertex 8.26672588816891 -8.702968403506661 0.0
  endloop
endfacet
facet normal 0.839351966326831 -0.5435883337814402 0.0
  outer loop
    vertex 43.27355144743106 -58.96055751550894 0.0
    vertex 42.59498135434573 -60.00833412609154 0.49999999999999994
    vertex 42.59498135434573 -60.00833412609154 0.0
  endloop
endfacet
facet normal 0.839351966326831 -0.5435883337814402 0.0
  outer loop
    vertex 42.59498135434573 -60.00833412609154 0.49999999999999994
    vertex 43.27355144743106 -58.96055751550894 0.0
    vertex 43.27355144743106 -58.96055751550894 0.49999999999999994
  endloop
endfacet
facet normal 0.4984079597055222 -0.8669426196134197 0.0
  outer loop
    vertex 38.99233680577057 -63.42511380981508 0.49999999999999994
    vertex 37.9101183372497 -64.04728451252161 0.0
    vertex 38.99233680577057 -63.42511380981508 0.0
  endloop
endfacet
facet normal 0.4984079597055222 -0.8669426196134197 0.0
  outer loop
    vertex 37.9101183372497 -64.04728451252161 0.0
    vertex 38.99233680577057 -63.42511380981508 0.49999999999999994
    vertex 37.9101183372497 -64.04728451252161 0.49999999999999994
  endloop
endfacet
facet normal 0.32596281978796626 -0.9453825892811216 0.0
  outer loop
    vertex 36.77383175436464 -64.56414619466545 0.49999999999999994
    vertex 35.5936954053243 -64.97105084515196 0.0
    vertex 36.77383175436464 -64.56414619466545 0.0
  endloop
endfacet
facet normal 0.32596281978796626 -0.9453825892811216 0.0
  outer loop
    vertex 35.5936954053243 -64.97105084515196 0.0
    vertex 36.77383175436464 -64.56414619466545 0.49999999999999994
    vertex 35.5936954053243 -64.97105084515196 0.49999999999999994
  endloop
endfacet
facet normal -0.40262129507346506 -0.9153666438937819 -0.0
  outer loop
    vertex 24.4538427703617 -64.0284798616656 0.49999999999999994
    vertex 17.547372339226328 -60.99068938948735 0.0
    vertex 24.4538427703617 -64.0284798616656 0.0
  endloop
endfacet
facet normal -0.40262129507346506 -0.9153666438937819 -0.0
  outer loop
    vertex 17.547372339226328 -60.99068938948735 0.0
    vertex 24.4538427703617 -64.0284798616656 0.49999999999999994
    vertex 17.547372339226328 -60.99068938948735 0.49999999999999994
  endloop
endfacet
facet normal -0.5207746291557895 0.8536941991296707 0.0
  outer loop
    vertex 13.705900531538436 -3.4739260468287925 0.49999999999999994
    vertex 20.220268597908266 0.5000000000000246 0.0
    vertex 13.705900531538436 -3.4739260468287925 0.0
  endloop
endfacet
facet normal -0.5207746291557895 0.8536941991296707 0.0
  outer loop
    vertex 20.220268597908266 0.5000000000000246 0.0
    vertex 13.705900531538436 -3.4739260468287925 0.49999999999999994
    vertex 20.220268597908266 0.5000000000000246 0.49999999999999994
  endloop
endfacet
facet normal -0.9597641335734081 -0.28080742138712306 -0.0
  outer loop
    vertex 0.7300047627229871 -37.008155519826836 0.49999999999999994
    vertex 2.8487056850154855 -44.24960642215861 0.0
    vertex 2.8487056850154855 -44.24960642215861 0.49999999999999994
  endloop
endfacet
facet normal -0.9597641335734081 -0.28080742138712306 -0.0
  outer loop
    vertex 2.8487056850154855 -44.24960642215861 0.0
    vertex 0.7300047627229871 -37.008155519826836 0.49999999999999994
    vertex 0.7300047627229871 -37.008155519826836 0.0
  endloop
endfacet
facet normal -0.5910212559911197 -0.8066559830353206 -0.0
  outer loop
    vertex 17.547372339226328 -60.99068938948735 0.49999999999999994
    vertex 11.461127300589773 -56.531415222240284 0.0
    vertex 17.547372339226328 -60.99068938948735 0.0
  endloop
endfacet
facet normal -0.5910212559911197 -0.8066559830353206 -0.0
  outer loop
    vertex 11.461127300589773 -56.531415222240284 0.0
    vertex 17.547372339226328 -60.99068938948735 0.49999999999999994
    vertex 11.461127300589773 -56.531415222240284 0.49999999999999994
  endloop
endfacet
facet normal -0.7514584923762557 -0.6597803681799003 -0.0
  outer loop
    vertex 6.483063445766931 -50.86163700556271 0.49999999999999994
    vertex 11.461127300589773 -56.531415222240284 0.0
    vertex 11.461127300589773 -56.531415222240284 0.49999999999999994
  endloop
endfacet
facet normal -0.7514584923762557 -0.6597803681799003 -0.0
  outer loop
    vertex 11.461127300589773 -56.531415222240284 0.0
    vertex 6.483063445766931 -50.86163700556271 0.49999999999999994
    vertex 6.483063445766931 -50.86163700556271 0.0
  endloop
endfacet
facet normal -0.9977770666839924 -0.06664026710246528 -0.0
  outer loop
    vertex 0.2272018286895354 -29.47989582860115 0.49999999999999994
    vertex 0.7300047627229871 -37.008155519826836 0.0
    vertex 0.7300047627229871 -37.008155519826836 0.49999999999999994
  endloop
endfacet
facet normal -0.9977770666839924 -0.06664026710246528 -0.0
  outer loop
    vertex 0.7300047627229871 -37.008155519826836 0.0
    vertex 0.2272018286895354 -29.47989582860115 0.49999999999999994
    vertex 0.2272018286895354 -29.47989582860115 0.0
  endloop
endfacet
facet normal -0.9885826193869767 0.15067980835528147 0.0
  outer loop
    vertex 1.3640857734093648 -22.02100853455759 0.49999999999999994
    vertex 0.2272018286895354 -29.47989582860115 0.0
    vertex 0.2272018286895354 -29.47989582860115 0.49999999999999994
  endloop
endfacet
facet normal -0.9885826193869767 0.15067980835528147 0.0
  outer loop
    vertex 0.2272018286895354 -29.47989582860115 0.0
    vertex 1.3640857734093648 -22.02100853455759 0.49999999999999994
    vertex 1.3640857734093648 -22.02100853455759 0.0
  endloop
endfacet
facet normal 4.136058768614755e-16 1.0 0.0
  outer loop
    vertex 20.999999999999996 -47.0772995114692 0.49999999999999994
    vertex 48.272015610091124 -47.077299511469214 0.0
    vertex 20.999999999999996 -47.0772995114692 0.0
  endloop
endfacet
facet normal 4.136058768614755e-16 1.0 0.0
  outer loop
    vertex 48.272015610091124 -47.077299511469214 0.0
    vertex 20.999999999999996 -47.0772995114692 0.49999999999999994
    vertex 48.272015610091124 -47.077299511469214 0.49999999999999994
  endloop
endfacet
facet normal 0.9079593845004519 -0.41905817746174645 0.0
  outer loop
    vertex 48.72599530234135 -47.28682860020008 0.0
    vertex 43.84433998817113 -57.86374844756892 0.49999999999999994
    vertex 43.84433998817113 -57.86374844756892 0.0
  endloop
endfacet
facet normal 0.9079593845004519 -0.41905817746174645 0.0
  outer loop
    vertex 43.84433998817113 -57.86374844756892 0.49999999999999994
    vertex 48.72599530234135 -47.28682860020008 0.0
    vertex 48.72599530234135 -47.28682860020008 0.49999999999999994
  endloop
endfacet
facet normal -0.9079593845004518 0.41905817746174706 0.0
  outer loop
    vertex 68.61538461538461 -3.000000000000002 0.49999999999999994
    vertex 48.272015610091124 -47.077299511469214 0.0
    vertex 48.272015610091124 -47.077299511469214 0.49999999999999994
  endloop
endfacet
facet normal -0.9079593845004518 0.41905817746174706 0.0
  outer loop
    vertex 48.272015610091124 -47.077299511469214 0.0
    vertex 68.61538461538461 -3.000000000000002 0.49999999999999994
    vertex 68.61538461538461 -3.000000000000002 0.0
  endloop
endfacet
facet normal -0.0 -1.0 -0.0
  outer loop
    vertex 68.61538461538461 -3.000000000000002 0.49999999999999994
    vertex 61.0 -3.000000000000002 0.0
    vertex 68.61538461538461 -3.000000000000002 0.0
  endloop
endfacet
facet normal -0.0 -1.0 -0.0
  outer loop
    vertex 61.0 -3.000000000000002 0.0
    vertex 68.61538461538461 -3.000000000000002 0.49999999999999994
    vertex 61.0 -3.000000000000002 0.49999999999999994
  endloop
endfacet
facet normal 0.047415071962060504 -0.9988752729699704 0.0
  outer loop
    vertex 33.14462301566796 -65.4413739969042 0.49999999999999994
    vertex 31.860216890200952 -65.50234277900896 0.0
    vertex 33.14462301566796 -65.4413739969042 0.0
  endloop
endfacet
facet normal 0.047415071962060504 -0.9988752729699704 0.0
  outer loop
    vertex 31.860216890200952 -65.50234277900896 0.0
    vertex 33.14462301566796 -65.4413739969042 0.49999999999999994
    vertex 31.860216890200952 -65.50234277900896 0.49999999999999994
  endloop
endfacet
facet normal -0.0 -0.0 1.0
  outer loop
    vertex 0.7300047627229871 -37.008155519826836 0.49999999999999994
    vertex 0.7297357914008432 -29.50115719631135 0.49999999999999994
    vertex 0.2272018286895354 -29.47989582860115 0.49999999999999994
  endloop
endfacet
facet normal -0.0 -0.0 1.0
  outer loop
    vertex 0.7297357914008432 -29.50115719631135 0.49999999999999994
    vertex 0.7300047627229871 -37.008155519826836 0.49999999999999994
    vertex 1.2252478666956643 -36.92025388501416 0.49999999999999994
  endloop
endfacet
facet normal -0.0 -0.0 1.0
  outer loop
    vertex 1.2252478666956643 -36.92025388501416 0.49999999999999994
    vertex 0.7300047627229871 -37.008155519826836 0.49999999999999994
    vertex 2.8487056850154855 -44.24960642215861 0.49999999999999994
  endloop
endfacet
facet normal -0.0 -0.0 1.0
  outer loop
    vertex 1.2252478666956643 -36.92025388501416 0.49999999999999994
    vertex 2.8487056850154855 -44.24960642215861 0.49999999999999994
    vertex 3.3132267146162073 -44.05670063558412 0.49999999999999994
  endloop
endfacet
facet normal -0.0 -0.0 1.0
  outer loop
    vertex 3.3132267146162073 -44.05670063558412 0.49999999999999994
    vertex 2.8487056850154855 -44.24960642215861 0.49999999999999994
    vertex 6.483063445766931 -50.86163700556271 0.49999999999999994
  endloop
endfacet
facet normal -0.0 -0.0 1.0
  outer loop
    vertex 3.3132267146162073 -44.05670063558412 0.49999999999999994
    vertex 6.483063445766931 -50.86163700556271 0.49999999999999994
    vertex 6.894884725136101 -50.572853932488876 0.49999999999999994
  endloop
endfacet
facet normal -0.0 -0.0 1.0
  outer loop
    vertex 6.894884725136101 -50.572853932488876 0.49999999999999994
    vertex 6.483063445766931 -50.86163700556271 0.49999999999999994
    vertex 11.461127300589773 -56.531415222240284 0.49999999999999994
  endloop
endfacet
facet normal -0.0 -0.0 1.0
  outer loop
    vertex 6.894884725136101 -50.572853932488876 0.49999999999999994
    vertex 11.461127300589773 -56.531415222240284 0.49999999999999994
    vertex 11.800764513596814 -56.16041792713419 0.49999999999999994
  endloop
endfacet
facet normal -0.0 -0.0 1.0
  outer loop
    vertex 11.800764513596814 -56.16041792713419 0.49999999999999994
    vertex 11.461127300589773 -56.531415222240284 0.49999999999999994
    vertex 17.547372339226328 -60.99068938948735 0.49999999999999994
  endloop
endfacet
facet normal -0.0 -0.0 1.0
  outer loop
    vertex 11.800764513596814 -56.16041792713419 0.49999999999999994
    vertex 17.547372339226328 -60.99068938948735 0.49999999999999994
    vertex 17.798756382210353 -60.5550307015581 0.49999999999999994
  endloop
endfacet
facet normal -0.0 -0.0 1.0
  outer loop
    vertex 17.798756382210353 -60.5550307015581 0.49999999999999994
    vertex 17.547372339226328 -60.99068938948735 0.49999999999999994
    vertex 24.4538427703617 -64.0284798616656 0.49999999999999994
  endloop
endfacet
facet normal -0.0 -0.0 1.0
  outer loop
    vertex 17.798756382210353 -60.5550307015581 0.49999999999999994
    vertex 24.4538427703617 -64.0284798616656 0.49999999999999994
    vertex 24.60508002245114 -63.54877190570108 0.49999999999999994
  endloop
endfacet
facet normal -0.0 -0.0 1.0
  outer loop
    vertex 24.60508002245114 -63.54877190570108 0.49999999999999994
    vertex 24.4538427703617 -64.0284798616656 0.49999999999999994
    vertex 31.860216890200952 -65.50234277900896 0.49999999999999994
  endloop
endfacet
facet normal -0.0 -0.0 1.0
  outer loop
    vertex 24.60508002245114 -63.54877190570108 0.49999999999999994
    vertex 31.860216890200952 -65.50234277900896 0.49999999999999994
    vertex 31.897710885959967 -65.0 0.49999999999999994
  endloop
endfacet
facet normal -0.0 -0.0 1.0
  outer loop
    vertex 31.897710885959967 -65.0 0.49999999999999994
    vertex 31.860216890200952 -65.50234277900896 0.49999999999999994
    vertex 33.14462301566796 -65.4413739969042 0.49999999999999994
  endloop
endfacet
facet normal -0.0 -0.0 1.0
  outer loop
    vertex 31.897710885959967 -65.0 0.49999999999999994
    vertex 33.14462301566796 -65.4413739969042 0.49999999999999994
    vertex 33.09720794370589 -64.94306172066689 0.49999999999999994
  endloop
endfacet
facet normal -0.0 -0.0 1.0
  outer loop
    vertex 33.09720794370589 -64.94306172066689 0.49999999999999994
    vertex 33.14462301566796 -65.4413739969042 0.49999999999999994
    vertex 34.28591821685288 -64.77275891473187 0.49999999999999994
  endloop
endfacet
facet normal -0.0 -0.0 1.0
  outer loop
    vertex 34.28591821685288 -64.77275891473187 0.49999999999999994
    vertex 33.14462301566796 -65.4413739969042 0.49999999999999994
    vertex 34.3803219685948 -65.26433926966382 0.49999999999999994
  endloop
endfacet
facet normal -0.0 -0.0 1.0
  outer loop
    vertex 34.28591821685288 -64.77275891473187 0.49999999999999994
    vertex 34.3803219685948 -65.26433926966382 0.49999999999999994
    vertex 35.45315192372605 -64.49062307380831 0.49999999999999994
  endloop
endfacet
facet normal -0.0 -0.0 1.0
  outer loop
    vertex 35.45315192372605 -64.49062307380831 0.49999999999999994
    vertex 34.3803219685948 -65.26433926966382 0.49999999999999994
    vertex 35.5936954053243 -64.97105084515196 0.49999999999999994
  endloop
endfacet
facet normal -0.0 -0.0 1.0
  outer loop
    vertex 35.45315192372605 -64.49062307380831 0.49999999999999994
    vertex 35.5936954053243 -64.97105084515196 0.49999999999999994
    vertex 36.588412416174954 -64.09919137672797 0.49999999999999994
  endloop
endfacet
facet normal -0.0 -0.0 1.0
  outer loop
    vertex 36.588412416174954 -64.09919137672797 0.49999999999999994
    vertex 35.5936954053243 -64.97105084515196 0.49999999999999994
    vertex 36.77383175436464 -64.56414619466545 0.49999999999999994
  endloop
endfacet
facet normal -0.0 -0.0 1.0
  outer loop
    vertex 36.588412416174954 -64.09919137672797 0.49999999999999994
    vertex 36.77383175436464 -64.56414619466545 0.49999999999999994
    vertex 37.681490573371306 -63.601983873310374 0.49999999999999994
  endloop
endfacet
facet normal -0.0 -0.0 1.0
  outer loop
    vertex 37.681490573371306 -63.601983873310374 0.49999999999999994
    vertex 36.77383175436464 -64.56414619466545 0.49999999999999994
    vertex 37.9101183372497 -64.04728451252161 0.49999999999999994
  endloop
endfacet
facet normal -0.0 -0.0 1.0
  outer loop
    vertex 37.681490573371306 -63.601983873310374 0.49999999999999994
    vertex 37.9101183372497 -64.04728451252161 0.49999999999999994
    vertex 38.72255660994352 -63.00347182941288 0.49999999999999994
  endloop
endfacet
facet normal -0.0 -0.0 1.0
  outer loop
    vertex 38.72255660994352 -63.00347182941288 0.49999999999999994
    vertex 37.9101183372497 -64.04728451252161 0.49999999999999994
    vertex 38.99233680577057 -63.42511380981508 0.49999999999999994
  endloop
endfacet
facet normal -0.0 -0.0 1.0
  outer loop
    vertex 38.72255660994352 -63.00347182941288 0.49999999999999994
    vertex 38.99233680577057 -63.42511380981508 0.49999999999999994
    vertex 39.70224847284007 -62.30903751792704 0.49999999999999994
  endloop
endfacet
facet normal -0.0 -0.0 1.0
  outer loop
    vertex 39.70224847284007 -62.30903751792704 0.49999999999999994
    vertex 38.99233680577057 -63.42511380981508 0.49999999999999994
    vertex 40.01075503308783 -62.70322911598827 0.49999999999999994
  endloop
endfacet
facet normal -0.0 -0.0 1.0
  outer loop
    vertex 39.70224847284007 -62.30903751792704 0.49999999999999994
    vertex 40.01075503308783 -62.70322911598827 0.49999999999999994
    vertex 40.61175603199007 -61.524925817310645 0.49999999999999994
  endloop
endfacet
facet normal -0.0 -0.0 1.0
  outer loop
    vertex 40.61175603199007 -61.524925817310645 0.49999999999999994
    vertex 40.01075503308783 -62.70322911598827 0.49999999999999994
    vertex 40.95621463237715 -61.888122164094796 0.49999999999999994
  endloop
endfacet
facet normal -0.0 -0.0 1.0
  outer loop
    vertex 40.61175603199007 -61.524925817310645 0.49999999999999994
    vertex 40.95621463237715 -61.888122164094796 0.49999999999999994
    vertex 41.44290030765505 -60.65818805291829 0.49999999999999994
  endloop
endfacet
facet normal -0.0 -0.0 1.0
  outer loop
    vertex 41.44290030765505 -60.65818805291829 0.49999999999999994
    vertex 40.95621463237715 -61.888122164094796 0.49999999999999994
    vertex 41.82021331596843 -60.9871230122271 0.49999999999999994
  endloop
endfacet
facet normal -0.0 -0.0 1.0
  outer loop
    vertex 41.44290030765505 -60.65818805291829 0.49999999999999994
    vertex 41.82021331596843 -60.9871230122271 0.49999999999999994
    vertex 42.18820702199972 -59.71661858615161 0.49999999999999994
  endloop
endfacet
facet normal -0.0 -0.0 1.0
  outer loop
    vertex 42.18820702199972 -59.71661858615161 0.49999999999999994
    vertex 41.82021331596843 -60.9871230122271 0.49999999999999994
    vertex 42.59498135434573 -60.00833412609154 0.49999999999999994
  endloop
endfacet
facet normal -0.0 -0.0 1.0
  outer loop
    vertex 42.18820702199972 -59.71661858615161 0.49999999999999994
    vertex 42.59498135434573 -60.00833412609154 0.49999999999999994
    vertex 42.84097381345022 -58.70868472166746 0.49999999999999994
  endloop
endfacet
facet normal -0.0 -0.0 1.0
  outer loop
    vertex 42.84097381345022 -58.70868472166746 0.49999999999999994
    vertex 42.59498135434573 -60.00833412609154 0.49999999999999994
    vertex 43.27355144743106 -58.96055751550894 0.49999999999999994
  endloop
endfacet
facet normal -0.0 -0.0 1.0
  outer loop
    vertex 42.84097381345022 -58.70868472166746 0.49999999999999994
    vertex 43.27355144743106 -58.96055751550894 0.49999999999999994
    vertex 43.39533050939776 -57.643450562971516 0.49999999999999994
  endloop
endfacet
facet normal -0.0 -0.0 1.0
  outer loop
    vertex 43.39533050939776 -57.643450562971516 0.49999999999999994
    vertex 43.27355144743106 -58.96055751550894 0.49999999999999994
    vertex 43.84433998817113 -57.86374844756892 0.49999999999999994
  endloop
endfacet
facet normal -0.0 -0.0 1.0
  outer loop
    vertex 43.39533050939776 -57.643450562971516 0.49999999999999994
    vertex 43.84433998817113 -57.86374844756892 0.49999999999999994
    vertex 48.0412463793219 -47.57729951146921 0.49999999999999994
  endloop
endfacet
facet normal -0.0 -0.0 1.0
  outer loop
    vertex 48.0412463793219 -47.57729951146921 0.49999999999999994
    vertex 43.84433998817113 -57.86374844756892 0.49999999999999994
    vertex 48.72599530234135 -47.28682860020008 0.49999999999999994
  endloop
endfacet
facet normal -0.0 -0.0 1.0
  outer loop
    vertex 48.0412463793219 -47.57729951146921 0.49999999999999994
    vertex 48.72599530234135 -47.28682860020008 0.49999999999999994
    vertex 48.272015610091124 -47.077299511469214 0.49999999999999994
  endloop
endfacet
facet normal -0.0 -0.0 1.0
  outer loop
    vertex 48.272015610091124 -47.077299511469214 0.49999999999999994
    vertex 48.72599530234135 -47.28682860020008 0.49999999999999994
    vertex 68.61538461538461 -3.000000000000002 0.49999999999999994
  endloop
endfacet
facet normal -0.0 -0.0 1.0
  outer loop
    vertex 68.61538461538461 -3.000000000000002 0.49999999999999994
    vertex 48.72599530234135 -47.28682860020008 0.49999999999999994
    vertex 69.39683927166448 -2.5000000000000027 0.49999999999999994
  endloop
endfacet
facet normal -0.0 -0.0 1.0
  outer loop
    vertex 61.0 -3.000000000000002 0.49999999999999994
    vertex 61.5 -2.5000000000000027 0.49999999999999994
    vertex 61.0 4.071981906048417e-15 0.49999999999999994
  endloop
endfacet
facet normal -0.0 -0.0 1.0
  outer loop
    vertex 61.5 -2.5000000000000027 0.49999999999999994
    vertex 61.0 -3.000000000000002 0.49999999999999994
    vertex 68.61538461538461 -3.000000000000002 0.49999999999999994
  endloop
endfacet
facet normal -0.0 -0.0 1.0
  outer loop
    vertex 61.5 -2.5000000000000027 0.49999999999999994
    vertex 68.61538461538461 -3.000000000000002 0.49999999999999994
    vertex 69.39683927166448 -2.5000000000000027 0.49999999999999994
  endloop
endfacet
facet normal -0.0 -0.0 1.0
  outer loop
    vertex 0.7297357914008432 -29.50115719631135 0.49999999999999994
    vertex 1.3640857734093648 -22.02100853455759 0.49999999999999994
    vertex 0.2272018286895354 -29.47989582860115 0.49999999999999994
  endloop
endfacet
facet normal -0.0 -0.0 1.0
  outer loop
    vertex 1.3640857734093648 -22.02100853455759 0.49999999999999994
    vertex 0.7297357914008432 -29.50115719631135 0.49999999999999994
    vertex 1.850134430085022 -22.150426975202787 0.49999999999999994
  endloop
endfacet
facet normal -0.0 -0.0 1.0
  outer loop
    vertex 1.3640857734093648 -22.02100853455759 0.49999999999999994
    vertex 1.850134430085022 -22.150426975202787 0.49999999999999994
    vertex 4.0868677149270125 -14.98439263854979 0.49999999999999994
  endloop
endfacet
facet normal -0.0 -0.0 1.0
  outer loop
    vertex 4.0868677149270125 -14.98439263854979 0.49999999999999994
    vertex 1.850134430085022 -22.150426975202787 0.49999999999999994
    vertex 4.5334348627092735 -15.215845035290146 0.49999999999999994
  endloop
endfacet
facet normal -0.0 -0.0 1.0
  outer loop
    vertex 4.0868677149270125 -14.98439263854979 0.49999999999999994
    vertex 4.5334348627092735 -15.215845035290146 0.49999999999999994
    vertex 8.26672588816891 -8.702968403506661 0.49999999999999994
  endloop
endfacet
facet normal -0.0 -0.0 1.0
  outer loop
    vertex 8.26672588816891 -8.702968403506661 0.49999999999999994
    vertex 4.5334348627092735 -15.215845035290146 0.49999999999999994
    vertex 8.652683295184364 -9.025504152540996 0.49999999999999994
  endloop
endfacet
facet normal -0.0 -0.0 1.0
  outer loop
    vertex 8.26672588816891 -8.702968403506661 0.49999999999999994
    vertex 8.652683295184364 -9.025504152540996 0.49999999999999994
    vertex 13.705900531538436 -3.4739260468287925 0.49999999999999994
  endloop
endfacet
facet normal -0.0 -0.0 1.0
  outer loop
    vertex 13.705900531538436 -3.4739260468287925 0.49999999999999994
    vertex 8.652683295184364 -9.025504152540996 0.49999999999999994
    vertex 14.01298756748949 -3.8722851584178546 0.49999999999999994
  endloop
endfacet
facet normal -0.0 -0.0 1.0
  outer loop
    vertex 13.705900531538436 -3.4739260468287925 0.49999999999999994
    vertex 14.01298756748949 -3.8722851584178546 0.49999999999999994
    vertex 20.220268597908266 0.5000000000000246 0.49999999999999994
  endloop
endfacet
facet normal -0.0 -0.0 1.0
  outer loop
    vertex 20.220268597908266 0.5000000000000246 0.49999999999999994
    vertex 14.01298756748949 -3.8722851584178546 0.49999999999999994
    vertex 20.360737999333885 2.255973186038318e-14 0.49999999999999994
  endloop
endfacet
facet normal -0.0 -0.0 1.0
  outer loop
    vertex 20.220268597908266 0.5000000000000246 0.49999999999999994
    vertex 20.360737999333885 2.255973186038318e-14 0.49999999999999994
    vertex 61.5 0.5000000000000038 0.49999999999999994
  endloop
endfacet
facet normal -0.0 -0.0 1.0
  outer loop
    vertex 61.5 0.5000000000000038 0.49999999999999994
    vertex 20.360737999333885 2.255973186038318e-14 0.49999999999999994
    vertex 20.5 2.192956918657979e-14 0.49999999999999994
  endloop
endfacet
facet normal -0.0 -0.0 1.0
  outer loop
    vertex 61.5 0.5000000000000038 0.49999999999999994
    vertex 20.5 2.192956918657979e-14 0.49999999999999994
    vertex 20.999999999999996 1.6774391284004617e-14 0.49999999999999994
  endloop
endfacet
facet normal -0.0 -0.0 1.0
  outer loop
    vertex 20.999999999999996 1.6774391284004617e-14 0.49999999999999994
    vertex 20.5 2.192956918657979e-14 0.49999999999999994
    vertex 20.999999999999996 -47.0772995114692 0.49999999999999994
  endloop
endfacet
facet normal -0.0 -0.0 1.0
  outer loop
    vertex 61.5 0.5000000000000038 0.49999999999999994
    vertex 20.999999999999996 1.6774391284004617e-14 0.49999999999999994
    vertex 61.0 4.071981906048417e-15 0.49999999999999994
  endloop
endfacet
facet normal -0.0 -0.0 1.0
  outer loop
    vertex 61.5 0.5000000000000038 0.49999999999999994
    vertex 61.0 4.071981906048417e-15 0.49999999999999994
    vertex 61.5 -2.5000000000000027 0.49999999999999994
  endloop
endfacet
facet normal -0.0 -0.0 1.0
  outer loop
    vertex 20.5 -47.5772995114692 0.49999999999999994
    vertex 20.999999999999996 -47.0772995114692 0.49999999999999994
    vertex 20.5 2.192956918657979e-14 0.49999999999999994
  endloop
endfacet
facet normal -0.0 -0.0 1.0
  outer loop
    vertex 20.999999999999996 -47.0772995114692 0.49999999999999994
    vertex 20.5 -47.5772995114692 0.49999999999999994
    vertex 48.0412463793219 -47.57729951146921 0.49999999999999994
  endloop
endfacet
facet normal -0.0 -0.0 1.0
  outer loop
    vertex 20.999999999999996 -47.0772995114692 0.49999999999999994
    vertex 48.0412463793219 -47.57729951146921 0.49999999999999994
    vertex 48.272015610091124 -47.077299511469214 0.49999999999999994
  endloop
endfacet
facet normal -0.6930444429664699 0.7208948606234445 0.0
  outer loop
    vertex 8.26672588816891 -8.702968403506661 0.49999999999999994
    vertex 13.705900531538436 -3.4739260468287925 0.0
    vertex 8.26672588816891 -8.702968403506661 0.0
  endloop
endfacet
facet normal -0.6930444429664699 0.7208948606234445 0.0
  outer loop
    vertex 13.705900531538436 -3.4739260468287925 0.0
    vertex 8.26672588816891 -8.702968403506661 0.49999999999999994
    vertex 13.705900531538436 -3.4739260468287925 0.49999999999999994
  endloop
endfacet
facet normal 0.7840873406593853 -0.6206504992487263 0.0
  outer loop
    vertex 42.59498135434573 -60.00833412609154 0.0
    vertex 41.82021331596843 -60.9871230122271 0.49999999999999994
    vertex 41.82021331596843 -60.9871230122271 0.0
  endloop
endfacet
facet normal 0.7840873406593853 -0.6206504992487263 0.0
  outer loop
    vertex 41.82021331596843 -60.9871230122271 0.49999999999999994
    vertex 42.59498135434573 -60.00833412609154 0.0
    vertex 42.59498135434573 -60.00833412609154 0.49999999999999994
  endloop
endfacet
facet normal 0.6529651606348968 -0.7573879448453372 0.0
  outer loop
    vertex 40.95621463237715 -61.888122164094796 0.49999999999999994
    vertex 40.01075503308783 -62.70322911598827 0.0
    vertex 40.95621463237715 -61.888122164094796 0.0
  endloop
endfacet
facet normal 0.6529651606348968 -0.7573879448453372 0.0
  outer loop
    vertex 40.01075503308783 -62.70322911598827 0.0
    vertex 40.95621463237715 -61.888122164094796 0.49999999999999994
    vertex 40.01075503308783 -62.70322911598827 0.49999999999999994
  endloop
endfacet
facet normal 0.5782867560747804 -0.8158335784634682 0.0
  outer loop
    vertex 40.01075503308783 -62.70322911598827 0.49999999999999994
    vertex 38.99233680577057 -63.42511380981508 0.0
    vertex 40.01075503308783 -62.70322911598827 0.0
  endloop
endfacet
facet normal 0.5782867560747804 -0.8158335784634682 0.0
  outer loop
    vertex 38.99233680577057 -63.42511380981508 0.0
    vertex 40.01075503308783 -62.70322911598827 0.49999999999999994
    vertex 38.99233680577057 -63.42511380981508 0.49999999999999994
  endloop
endfacet
facet normal 0.4140471020681511 -0.9102554571486876 0.0
  outer loop
    vertex 37.9101183372497 -64.04728451252161 0.49999999999999994
    vertex 36.77383175436464 -64.56414619466545 0.0
    vertex 37.9101183372497 -64.04728451252161 0.0
  endloop
endfacet
facet normal 0.4140471020681511 -0.9102554571486876 0.0
  outer loop
    vertex 36.77383175436464 -64.56414619466545 0.0
    vertex 37.9101183372497 -64.04728451252161 0.49999999999999994
    vertex 36.77383175436464 -64.56414619466545 0.49999999999999994
  endloop
endfacet
facet normal 0.14181882370396687 -0.9898926311692715 0.0
  outer loop
    vertex 34.3803219685948 -65.26433926966382 0.49999999999999994
    vertex 33.14462301566796 -65.4413739969042 0.0
    vertex 34.3803219685948 -65.26433926966382 0.0
  endloop
endfacet
facet normal 0.14181882370396687 -0.9898926311692715 0.0
  outer loop
    vertex 33.14462301566796 -65.4413739969042 0.0
    vertex 34.3803219685948 -65.26433926966382 0.49999999999999994
    vertex 33.14462301566796 -65.4413739969042 0.49999999999999994
  endloop
endfacet
facet normal 0.7217716087005036 -0.692131306092917 0.0
  outer loop
    vertex 41.82021331596843 -60.9871230122271 0.0
    vertex 40.95621463237715 -61.888122164094796 0.49999999999999994
    vertex 40.95621463237715 -61.888122164094796 0.0
  endloop
endfacet
facet normal 0.7217716087005036 -0.692131306092917 0.0
  outer loop
    vertex 40.95621463237715 -61.888122164094796 0.49999999999999994
    vertex 41.82021331596843 -60.9871230122271 0.0
    vertex 41.82021331596843 -60.9871230122271 0.49999999999999994
  endloop
endfacet
facet normal 1.0 0.0 0.0
  outer loop
    vertex 61.5 0.5000000000000038 0.0
    vertex 61.5 -2.5000000000000027 0.49999999999999994
    vertex 61.5 -2.5000000000000027 0.0
  endloop
endfacet
facet normal 1.0 0.0 0.0
  outer loop
    vertex 61.5 -2.5000000000000027 0.49999999999999994
    vertex 61.5 0.5000000000000038 0.0
    vertex 61.5 0.5000000000000038 0.49999999999999994
  endloop
endfacet
facet normal 5.05947496555466e-16 1.0 0.0
  outer loop
    vertex 20.220268597908266 0.5000000000000246 0.49999999999999994
    vertex 61.5 0.5000000000000038 0.0
    vertex 20.220268597908266 0.5000000000000246 0.0
  endloop
endfacet
facet normal 5.05947496555466e-16 1.0 0.0
  outer loop
    vertex 61.5 0.5000000000000038 0.0
    vertex 20.220268597908266 0.5000000000000246 0.49999999999999994
    vertex 61.5 0.5000000000000038 0.49999999999999994
  endloop
endfacet
facet normal 0.23494723334021142 -0.9720081262755884 0.0
  outer loop
    vertex 35.5936954053243 -64.97105084515196 0.49999999999999994
    vertex 34.3803219685948 -65.26433926966382 0.0
    vertex 35.5936954053243 -64.97105084515196 0.0
  endloop
endfacet
facet normal 0.23494723334021142 -0.9720081262755884 0.0
  outer loop
    vertex 34.3803219685948 -65.26433926966382 0.0
    vertex 35.5936954053243 -64.97105084515196 0.49999999999999994
    vertex 34.3803219685948 -65.26433926966382 0.49999999999999994
  endloop
endfacet
facet normal -0.19517229277034293 -0.9807689718454431 -0.0
  outer loop
    vertex 31.860216890200952 -65.50234277900896 0.49999999999999994
    vertex 24.4538427703617 -64.0284798616656 0.0
    vertex 31.860216890200952 -65.50234277900896 0.0
  endloop
endfacet
facet normal -0.19517229277034293 -0.9807689718454431 -0.0
  outer loop
    vertex 24.4538427703617 -64.0284798616656 0.0
    vertex 31.860216890200952 -65.50234277900896 0.49999999999999994
    vertex 24.4538427703617 -64.0284798616656 0.49999999999999994
  endloop
endfacet
facet normal 0.9079593845004518 -0.419058177461747 0.0
  outer loop
    vertex 69.39683927166448 -2.5000000000000027 0.0
    vertex 48.72599530234135 -47.28682860020008 0.49999999999999994
    vertex 48.72599530234135 -47.28682860020008 0.0
  endloop
endfacet
facet normal 0.9079593845004518 -0.419058177461747 0.0
  outer loop
    vertex 48.72599530234135 -47.28682860020008 0.49999999999999994
    vertex 69.39683927166448 -2.5000000000000027 0.0
    vertex 69.39683927166448 -2.5000000000000027 0.49999999999999994
  endloop
endfacet
facet normal -0.0 1.0 0.0
  outer loop
    vertex 61.5 -2.5000000000000027 0.49999999999999994
    vertex 69.39683927166448 -2.5000000000000027 0.0
    vertex 61.5 -2.5000000000000027 0.0
  endloop
endfacet
facet normal -0.0 1.0 0.0
  outer loop
    vertex 69.39683927166448 -2.5000000000000027 0.0
    vertex 61.5 -2.5000000000000027 0.49999999999999994
    vertex 69.39683927166448 -2.5000000000000027 0.49999999999999994
  endloop
endfacet
facet normal 0.8870685043978961 -0.461637810957118 0.0
  outer loop
    vertex 43.84433998817113 -57.86374844756892 0.0
    vertex 43.27355144743106 -58.96055751550894 0.49999999999999994
    vertex 43.27355144743106 -58.96055751550894 0.0
  endloop
endfacet
facet normal 0.8870685043978961 -0.461637810957118 0.0
  outer loop
    vertex 43.27355144743106 -58.96055751550894 0.49999999999999994
    vertex 43.84433998817113 -57.86374844756892 0.0
    vertex 43.84433998817113 -57.86374844756892 0.49999999999999994
  endloop
endfacet
facet normal -0.8763423089699116 -0.4816888596483049 -0.0
  outer loop
    vertex 2.8487056850154855 -44.24960642215861 0.49999999999999994
    vertex 6.483063445766931 -50.86163700556271 0.0
    vertex 6.483063445766931 -50.86163700556271 0.49999999999999994
  endloop
endfacet
facet normal -0.8763423089699116 -0.4816888596483049 -0.0
  outer loop
    vertex 6.483063445766931 -50.86163700556271 0.0
    vertex 2.8487056850154855 -44.24960642215861 0.49999999999999994
    vertex 2.8487056850154855 -44.24960642215861 0.0
  endloop
endfacet
facet normal -4.0956265286020504e-16 -1.0 -0.0
  outer loop
    vertex 48.0412463793219 -47.57729951146921 0.49999999999999994
    vertex 20.5 -47.5772995114692 0.0
    vertex 48.0412463793219 -47.57729951146921 0.0
  endloop
endfacet
facet normal -4.0956265286020504e-16 -1.0 -0.0
  outer loop
    vertex 20.5 -47.5772995114692 0.0
    vertex 48.0412463793219 -47.57729951146921 0.49999999999999994
    vertex 20.5 -47.5772995114692 0.49999999999999994
  endloop
endfacet
facet normal 0.7514584923762562 0.6597803681798998 0.0
  outer loop
    vertex 6.894884725136101 -50.572853932488876 0.0
    vertex 11.800764513596814 -56.16041792713419 0.49999999999999994
    vertex 11.800764513596814 -56.16041792713419 0.0
  endloop
endfacet
facet normal 0.7514584923762562 0.6597803681798998 0.0
  outer loop
    vertex 11.800764513596814 -56.16041792713419 0.49999999999999994
    vertex 6.894884725136101 -50.572853932488876 0.0
    vertex 6.894884725136101 -50.572853932488876 0.49999999999999994
  endloop
endfacet
facet normal -0.04741507196206172 0.9988752729699704 0.0
  outer loop
    vertex 31.897710885959967 -65.0 0.49999999999999994
    vertex 33.09720794370589 -64.94306172066689 0.0
    vertex 31.897710885959967 -65.0 0.0
  endloop
endfacet
facet normal -0.04741507196206172 0.9988752729699704 0.0
  outer loop
    vertex 33.09720794370589 -64.94306172066689 0.0
    vertex 31.897710885959967 -65.0 0.49999999999999994
    vertex 33.09720794370589 -64.94306172066689 0.49999999999999994
  endloop
endfacet
facet normal 0.5207746291557886 -0.8536941991296714 0.0
  outer loop
    vertex 20.360737999333885 2.255973186038318e-14 0.49999999999999994
    vertex 14.01298756748949 -3.8722851584178546 0.0
    vertex 20.360737999333885 2.255973186038318e-14 0.0
  endloop
endfacet
facet normal 0.5207746291557886 -0.8536941991296714 0.0
  outer loop
    vertex 14.01298756748949 -3.8722851584178546 0.0
    vertex 20.360737999333885 2.255973186038318e-14 0.49999999999999994
    vertex 14.01298756748949 -3.8722851584178546 0.49999999999999994
  endloop
endfacet
facet normal -0.9079593845004518 0.41905817746174673 0.0
  outer loop
    vertex 48.0412463793219 -47.57729951146921 0.49999999999999994
    vertex 43.39533050939776 -57.643450562971516 0.0
    vertex 43.39533050939776 -57.643450562971516 0.49999999999999994
  endloop
endfacet
facet normal -0.9079593845004518 0.41905817746174673 0.0
  outer loop
    vertex 43.39533050939776 -57.643450562971516 0.0
    vertex 48.0412463793219 -47.57729951146921 0.49999999999999994
    vertex 48.0412463793219 -47.57729951146921 0.0
  endloop
endfacet
facet normal -0.7217716087005045 0.6921313060929162 0.0
  outer loop
    vertex 41.44290030765505 -60.65818805291829 0.49999999999999994
    vertex 40.61175603199007 -61.524925817310645 0.0
    vertex 40.61175603199007 -61.524925817310645 0.49999999999999994
  endloop
endfacet
facet normal -0.7217716087005045 0.6921313060929162 0.0
  outer loop
    vertex 40.61175603199007 -61.524925817310645 0.0
    vertex 41.44290030765505 -60.65818805291829 0.49999999999999994
    vertex 41.44290030765505 -60.65818805291829 0.0
  endloop
endfacet
facet normal 0.6930444429664694 -0.7208948606234451 0.0
  outer loop
    vertex 14.01298756748949 -3.8722851584178546 0.49999999999999994
    vertex 8.652683295184364 -9.025504152540996 0.0
    vertex 14.01298756748949 -3.8722851584178546 0.0
  endloop
endfacet
facet normal 0.6930444429664694 -0.7208948606234451 0.0
  outer loop
    vertex 8.652683295184364 -9.025504152540996 0.0
    vertex 14.01298756748949 -3.8722851584178546 0.49999999999999994
    vertex 8.652683295184364 -9.025504152540996 0.49999999999999994
  endloop
endfacet
facet normal 0.8763423089699122 0.48168885964830355 0.0
  outer loop
    vertex 3.3132267146162073 -44.05670063558412 0.0
    vertex 6.894884725136101 -50.572853932488876 0.49999999999999994
    vertex 6.894884725136101 -50.572853932488876 0.0
  endloop
endfacet
facet normal 0.8763423089699122 0.48168885964830355 0.0
  outer loop
    vertex 6.894884725136101 -50.572853932488876 0.49999999999999994
    vertex 3.3132267146162073 -44.05670063558412 0.0
    vertex 3.3132267146162073 -44.05670063558412 0.49999999999999994
  endloop
endfacet
facet normal 0.832524554797706 -0.5539881457746922 0.0
  outer loop
    vertex 8.652683295184364 -9.025504152540996 0.0
    vertex 4.5334348627092735 -15.215845035290146 0.49999999999999994
    vertex 4.5334348627092735 -15.215845035290146 0.0
  endloop
endfacet
facet normal 0.832524554797706 -0.5539881457746922 0.0
  outer loop
    vertex 4.5334348627092735 -15.215845035290146 0.49999999999999994
    vertex 8.652683295184364 -9.025504152540996 0.0
    vertex 8.652683295184364 -9.025504152540996 0.49999999999999994
  endloop
endfacet
facet normal 0.9885826193869768 -0.15067980835528072 0.0
  outer loop
    vertex 1.850134430085022 -22.150426975202787 0.0
    vertex 0.7297357914008432 -29.50115719631135 0.49999999999999994
    vertex 0.7297357914008432 -29.50115719631135 0.0
  endloop
endfacet
facet normal 0.9885826193869768 -0.15067980835528072 0.0
  outer loop
    vertex 0.7297357914008432 -29.50115719631135 0.49999999999999994
    vertex 1.850134430085022 -22.150426975202787 0.0
    vertex 1.850134430085022 -22.150426975202787 0.49999999999999994
  endloop
endfacet
facet normal -1.0 0.0 0.0
  outer loop
    vertex 61.0 4.071981906048417e-15 0.49999999999999994
    vertex 61.0 -3.000000000000002 0.0
    vertex 61.0 -3.000000000000002 0.49999999999999994
  endloop
endfacet
facet normal -1.0 0.0 0.0
  outer loop
    vertex 61.0 -3.000000000000002 0.0
    vertex 61.0 4.071981906048417e-15 0.49999999999999994
    vertex 61.0 4.071981906048417e-15 0.0
  endloop
endfacet
facet normal -3.1756023444890496e-16 -1.0 -0.0
  outer loop
    vertex 61.0 4.071981906048417e-15 0.49999999999999994
    vertex 20.999999999999996 1.6774391284004617e-14 0.0
    vertex 61.0 4.071981906048417e-15 0.0
  endloop
endfacet
facet normal -3.1756023444890496e-16 -1.0 -0.0
  outer loop
    vertex 20.999999999999996 1.6774391284004617e-14 0.0
    vertex 61.0 4.071981906048417e-15 0.49999999999999994
    vertex 20.999999999999996 1.6774391284004617e-14 0.49999999999999994
  endloop
endfacet
facet normal -4.525015228771789e-15 -1.0 -0.0
  outer loop
    vertex 20.5 2.192956918657979e-14 0.49999999999999994
    vertex 20.360737999333885 2.255973186038318e-14 0.0
    vertex 20.5 2.192956918657979e-14 0.0
  endloop
endfacet
facet normal -4.525015228771789e-15 -1.0 -0.0
  outer loop
    vertex 20.360737999333885 2.255973186038318e-14 0.0
    vertex 20.5 2.192956918657979e-14 0.49999999999999994
    vertex 20.360737999333885 2.255973186038318e-14 0.49999999999999994
  endloop
endfacet
facet normal -0.6529651606348963 0.7573879448453378 0.0
  outer loop
    vertex 39.70224847284007 -62.30903751792704 0.49999999999999994
    vertex 40.61175603199007 -61.524925817310645 0.0
    vertex 39.70224847284007 -62.30903751792704 0.0
  endloop
endfacet
facet normal -0.6529651606348963 0.7573879448453378 0.0
  outer loop
    vertex 40.61175603199007 -61.524925817310645 0.0
    vertex 39.70224847284007 -62.30903751792704 0.49999999999999994
    vertex 40.61175603199007 -61.524925817310645 0.49999999999999994
  endloop
endfacet
facet normal 0.9597641335734082 0.28080742138712295 0.0
  outer loop
    vertex 1.2252478666956643 -36.92025388501416 0.0
    vertex 3.3132267146162073 -44.05670063558412 0.49999999999999994
    vertex 3.3132267146162073 -44.05670063558412 0.0
  endloop
endfacet
facet normal 0.9597641335734082 0.28080742138712295 0.0
  outer loop
    vertex 3.3132267146162073 -44.05670063558412 0.49999999999999994
    vertex 1.2252478666956643 -36.92025388501416 0.0
    vertex 1.2252478666956643 -36.92025388501416 0.49999999999999994
  endloop
endfacet
facet normal -0.49840795970552537 0.866942619613418 0.0
  outer loop
    vertex 37.681490573371306 -63.601983873310374 0.49999999999999994
    vertex 38.72255660994352 -63.00347182941288 0.0
    vertex 37.681490573371306 -63.601983873310374 0.0
  endloop
endfacet
facet normal -0.49840795970552537 0.866942619613418 0.0
  outer loop
    vertex 38.72255660994352 -63.00347182941288 0.0
    vertex 37.681490573371306 -63.601983873310374 0.49999999999999994
    vertex 38.72255660994352 -63.00347182941288 0.49999999999999994
  endloop
endfacet
facet normal -0.2349472333402175 0.972008126275587 0.0
  outer loop
    vertex 34.28591821685288 -64.77275891473187 0.49999999999999994
    vertex 35.45315192372605 -64.49062307380831 0.0
    vertex 34.28591821685288 -64.77275891473187 0.0
  endloop
endfacet
facet normal -0.2349472333402175 0.972008126275587 0.0
  outer loop
    vertex 35.45315192372605 -64.49062307380831 0.0
    vertex 34.28591821685288 -64.77275891473187 0.49999999999999994
    vertex 35.45315192372605 -64.49062307380831 0.49999999999999994
  endloop
endfacet
facet normal -0.5782867560747833 0.815833578463466 0.0
  outer loop
    vertex 38.72255660994352 -63.00347182941288 0.49999999999999994
    vertex 39.70224847284007 -62.30903751792704 0.0
    vertex 38.72255660994352 -63.00347182941288 0.0
  endloop
endfacet
facet normal -0.5782867560747833 0.815833578463466 0.0
  outer loop
    vertex 39.70224847284007 -62.30903751792704 0.0
    vertex 38.72255660994352 -63.00347182941288 0.49999999999999994
    vertex 39.70224847284007 -62.30903751792704 0.49999999999999994
  endloop
endfacet
facet normal -0.32596281978796 0.9453825892811238 0.0
  outer loop
    vertex 35.45315192372605 -64.49062307380831 0.49999999999999994
    vertex 36.588412416174954 -64.09919137672797 0.0
    vertex 35.45315192372605 -64.49062307380831 0.0
  endloop
endfacet
facet normal -0.32596281978796 0.9453825892811238 0.0
  outer loop
    vertex 36.588412416174954 -64.09919137672797 0.0
    vertex 35.45315192372605 -64.49062307380831 0.49999999999999994
    vertex 36.588412416174954 -64.09919137672797 0.49999999999999994
  endloop
endfacet
facet normal 0.9977770666839925 0.06664026710246433 0.0
  outer loop
    vertex 0.7297357914008432 -29.50115719631135 0.0
    vertex 1.2252478666956643 -36.92025388501416 0.49999999999999994
    vertex 1.2252478666956643 -36.92025388501416 0.0
  endloop
endfacet
facet normal 0.9977770666839925 0.06664026710246433 0.0
  outer loop
    vertex 1.2252478666956643 -36.92025388501416 0.49999999999999994
    vertex 0.7297357914008432 -29.50115719631135 0.0
    vertex 0.7297357914008432 -29.50115719631135 0.49999999999999994
  endloop
endfacet
facet normal 0.1951722927703425 0.9807689718454432 0.0
  outer loop
    vertex 24.60508002245114 -63.54877190570108 0.49999999999999994
    vertex 31.897710885959967 -65.0 0.0
    vertex 24.60508002245114 -63.54877190570108 0.0
  endloop
endfacet
facet normal 0.1951722927703425 0.9807689718454432 0.0
  outer loop
    vertex 31.897710885959967 -65.0 0.0
    vertex 24.60508002245114 -63.54877190570108 0.49999999999999994
    vertex 31.897710885959967 -65.0 0.49999999999999994
  endloop
endfacet
facet normal 1.0 0.0 0.0
  outer loop
    vertex 20.999999999999996 1.6774391284004617e-14 0.0
    vertex 20.999999999999996 -47.0772995114692 0.49999999999999994
    vertex 20.999999999999996 -47.0772995114692 0.0
  endloop
endfacet
facet normal 1.0 0.0 0.0
  outer loop
    vertex 20.999999999999996 -47.0772995114692 0.49999999999999994
    vertex 20.999999999999996 1.6774391284004617e-14 0.0
    vertex 20.999999999999996 1.6774391284004617e-14 0.49999999999999994
  endloop
endfacet
facet normal 0.9326158044579413 -0.3608708373854377 0.0
  outer loop
    vertex 4.5334348627092735 -15.215845035290146 0.0
    vertex 1.850134430085022 -22.150426975202787 0.49999999999999994
    vertex 1.850134430085022 -22.150426975202787 0.0
  endloop
endfacet
facet normal 0.9326158044579413 -0.3608708373854377 0.0
  outer loop
    vertex 1.850134430085022 -22.150426975202787 0.49999999999999994
    vertex 4.5334348627092735 -15.215845035290146 0.0
    vertex 4.5334348627092735 -15.215845035290146 0.49999999999999994
  endloop
endfacet
facet normal 0.5910212559911203 0.8066559830353203 0.0
  outer loop
    vertex 11.800764513596814 -56.16041792713419 0.49999999999999994
    vertex 17.798756382210353 -60.5550307015581 0.0
    vertex 11.800764513596814 -56.16041792713419 0.0
  endloop
endfacet
facet normal 0.5910212559911203 0.8066559830353203 0.0
  outer loop
    vertex 17.798756382210353 -60.5550307015581 0.0
    vertex 11.800764513596814 -56.16041792713419 0.49999999999999994
    vertex 17.798756382210353 -60.5550307015581 0.49999999999999994
  endloop
endfacet
facet normal 0.40262129507346467 0.9153666438937823 0.0
  outer loop
    vertex 17.798756382210353 -60.5550307015581 0.49999999999999994
    vertex 24.60508002245114 -63.54877190570108 0.0
    vertex 17.798756382210353 -60.5550307015581 0.0
  endloop
endfacet
facet normal 0.40262129507346467 0.9153666438937823 0.0
  outer loop
    vertex 24.60508002245114 -63.54877190570108 0.0
    vertex 17.798756382210353 -60.5550307015581 0.49999999999999994
    vertex 24.60508002245114 -63.54877190570108 0.49999999999999994
  endloop
endfacet
facet normal -0.4140471020681532 0.9102554571486867 0.0
  outer loop
    vertex 36.588412416174954 -64.09919137672797 0.49999999999999994
    vertex 37.681490573371306 -63.601983873310374 0.0
    vertex 36.588412416174954 -64.09919137672797 0.0
  endloop
endfacet
facet normal -0.4140471020681532 0.9102554571486867 0.0
  outer loop
    vertex 37.681490573371306 -63.601983873310374 0.0
    vertex 36.588412416174954 -64.09919137672797 0.49999999999999994
    vertex 37.681490573371306 -63.601983873310374 0.49999999999999994
  endloop
endfacet
facet normal -0.7840873406593858 0.6206504992487256 0.0
  outer loop
    vertex 42.18820702199972 -59.71661858615161 0.49999999999999994
    vertex 41.44290030765505 -60.65818805291829 0.0
    vertex 41.44290030765505 -60.65818805291829 0.49999999999999994
  endloop
endfacet
facet normal -0.7840873406593858 0.6206504992487256 0.0
  outer loop
    vertex 41.44290030765505 -60.65818805291829 0.0
    vertex 42.18820702199972 -59.71661858615161 0.49999999999999994
    vertex 42.18820702199972 -59.71661858615161 0.0
  endloop
endfacet
facet normal -0.8393519663268297 0.5435883337814422 0.0
  outer loop
    vertex 42.84097381345022 -58.70868472166746 0.49999999999999994
    vertex 42.18820702199972 -59.71661858615161 0.0
    vertex 42.18820702199972 -59.71661858615161 0.49999999999999994
  endloop
endfacet
facet normal -0.8393519663268297 0.5435883337814422 0.0
  outer loop
    vertex 42.18820702199972 -59.71661858615161 0.0
    vertex 42.84097381345022 -58.70868472166746 0.49999999999999994
    vertex 42.84097381345022 -58.70868472166746 0.0
  endloop
endfacet
facet normal -1.0 0.0 0.0
  outer loop
    vertex 20.5 2.192956918657979e-14 0.49999999999999994
    vertex 20.5 -47.5772995114692 0.0
    vertex 20.5 -47.5772995114692 0.49999999999999994
  endloop
endfacet
facet normal -1.0 0.0 0.0
  outer loop
    vertex 20.5 -47.5772995114692 0.0
    vertex 20.5 2.192956918657979e-14 0.49999999999999994
    vertex 20.5 2.192956918657979e-14 0.0
  endloop
endfacet
facet normal -0.887068504397897 0.46163781095711676 0.0
  outer loop
    vertex 43.39533050939776 -57.643450562971516 0.49999999999999994
    vertex 42.84097381345022 -58.70868472166746 0.0
    vertex 42.84097381345022 -58.70868472166746 0.49999999999999994
  endloop
endfacet
facet normal -0.887068504397897 0.46163781095711676 0.0
  outer loop
    vertex 42.84097381345022 -58.70868472166746 0.0
    vertex 43.39533050939776 -57.643450562971516 0.49999999999999994
    vertex 43.39533050939776 -57.643450562971516 0.0
  endloop
endfacet
facet normal -0.1418188237039668 0.9898926311692715 0.0
  outer loop
    vertex 33.09720794370589 -64.94306172066689 0.49999999999999994
    vertex 34.28591821685288 -64.77275891473187 0.0
    vertex 33.09720794370589 -64.94306172066689 0.0
  endloop
endfacet
facet normal -0.1418188237039668 0.9898926311692715 0.0
  outer loop
    vertex 34.28591821685288 -64.77275891473187 0.0
    vertex 33.09720794370589 -64.94306172066689 0.49999999999999994
    vertex 34.28591821685288 -64.77275891473187 0.49999999999999994
  endloop
endfacet
facet normal 0.0 0.0 -1.0
  outer loop
    vertex 20.5 -47.5772995114692 0.0
    vertex 20.999999999999996 -47.0772995114692 0.0
    vertex 48.0412463793219 -47.57729951146921 0.0
  endloop
endfacet
facet normal 0.0 0.0 -1.0
  outer loop
    vertex 20.999999999999996 -47.0772995114692 0.0
    vertex 20.5 -47.5772995114692 0.0
    vertex 20.999999999999996 1.6774391284004617e-14 0.0
  endloop
endfacet
facet normal 0.0 0.0 -1.0
  outer loop
    vertex 48.0412463793219 -47.57729951146921 0.0
    vertex 20.999999999999996 -47.0772995114692 0.0
    vertex 48.272015610091124 -47.077299511469214 0.0
  endloop
endfacet
facet normal 0.0 0.0 -1.0
  outer loop
    vertex 1.3640857734093648 -22.02100853455759 0.0
    vertex 0.7297357914008432 -29.50115719631135 0.0
    vertex 0.2272018286895354 -29.47989582860115 0.0
  endloop
endfacet
facet normal 0.0 0.0 -1.0
  outer loop
    vertex 0.7297357914008432 -29.50115719631135 0.0
    vertex 1.3640857734093648 -22.02100853455759 0.0
    vertex 1.850134430085022 -22.150426975202787 0.0
  endloop
endfacet
facet normal 0.0 0.0 -1.0
  outer loop
    vertex 1.850134430085022 -22.150426975202787 0.0
    vertex 1.3640857734093648 -22.02100853455759 0.0
    vertex 4.0868677149270125 -14.98439263854979 0.0
  endloop
endfacet
facet normal 0.0 0.0 -1.0
  outer loop
    vertex 1.850134430085022 -22.150426975202787 0.0
    vertex 4.0868677149270125 -14.98439263854979 0.0
    vertex 4.5334348627092735 -15.215845035290146 0.0
  endloop
endfacet
facet normal 0.0 0.0 -1.0
  outer loop
    vertex 4.5334348627092735 -15.215845035290146 0.0
    vertex 4.0868677149270125 -14.98439263854979 0.0
    vertex 8.26672588816891 -8.702968403506661 0.0
  endloop
endfacet
facet normal 0.0 0.0 -1.0
  outer loop
    vertex 4.5334348627092735 -15.215845035290146 0.0
    vertex 8.26672588816891 -8.702968403506661 0.0
    vertex 8.652683295184364 -9.025504152540996 0.0
  endloop
endfacet
facet normal 0.0 0.0 -1.0
  outer loop
    vertex 8.652683295184364 -9.025504152540996 0.0
    vertex 8.26672588816891 -8.702968403506661 0.0
    vertex 13.705900531538436 -3.4739260468287925 0.0
  endloop
endfacet
facet normal 0.0 0.0 -1.0
  outer loop
    vertex 8.652683295184364 -9.025504152540996 0.0
    vertex 13.705900531538436 -3.4739260468287925 0.0
    vertex 14.01298756748949 -3.8722851584178546 0.0
  endloop
endfacet
facet normal 0.0 0.0 -1.0
  outer loop
    vertex 14.01298756748949 -3.8722851584178546 0.0
    vertex 13.705900531538436 -3.4739260468287925 0.0
    vertex 20.220268597908266 0.5000000000000246 0.0
  endloop
endfacet
facet normal 0.0 0.0 -1.0
  outer loop
    vertex 14.01298756748949 -3.8722851584178546 0.0
    vertex 20.220268597908266 0.5000000000000246 0.0
    vertex 20.360737999333885 2.255973186038318e-14 0.0
  endloop
endfacet
facet normal 0.0 0.0 -1.0
  outer loop
    vertex 20.360737999333885 2.255973186038318e-14 0.0
    vertex 20.220268597908266 0.5000000000000246 0.0
    vertex 61.5 0.5000000000000038 0.0
  endloop
endfacet
facet normal 0.0 0.0 -1.0
  outer loop
    vertex 20.360737999333885 2.255973186038318e-14 0.0
    vertex 61.5 0.5000000000000038 0.0
    vertex 20.5 2.192956918657979e-14 0.0
  endloop
endfacet
facet normal 0.0 0.0 -1.0
  outer loop
    vertex 20.5 2.192956918657979e-14 0.0
    vertex 61.5 0.5000000000000038 0.0
    vertex 20.999999999999996 1.6774391284004617e-14 0.0
  endloop
endfacet
facet normal 0.0 0.0 -1.0
  outer loop
    vertex 20.5 2.192956918657979e-14 0.0
    vertex 20.999999999999996 1.6774391284004617e-14 0.0
    vertex 20.5 -47.5772995114692 0.0
  endloop
endfacet
facet normal 0.0 0.0 -1.0
  outer loop
    vertex 20.999999999999996 1.6774391284004617e-14 0.0
    vertex 61.5 0.5000000000000038 0.0
    vertex 61.0 4.071981906048417e-15 0.0
  endloop
endfacet
facet normal 0.0 0.0 -1.0
  outer loop
    vertex 61.0 4.071981906048417e-15 0.0
    vertex 61.5 0.5000000000000038 0.0
    vertex 61.0 -3.000000000000002 0.0
  endloop
endfacet
facet normal 0.0 0.0 -1.0
  outer loop
    vertex 61.0 -3.000000000000002 0.0
    vertex 61.5 0.5000000000000038 0.0
    vertex 61.5 -2.5000000000000027 0.0
  endloop
endfacet
facet normal 0.0 0.0 -1.0
  outer loop
    vertex 61.0 -3.000000000000002 0.0
    vertex 61.5 -2.5000000000000027 0.0
    vertex 68.61538461538461 -3.000000000000002 0.0
  endloop
endfacet
facet normal 0.0 0.0 -1.0
  outer loop
    vertex 68.61538461538461 -3.000000000000002 0.0
    vertex 61.5 -2.5000000000000027 0.0
    vertex 69.39683927166448 -2.5000000000000027 0.0
  endloop
endfacet
facet normal 0.0 0.0 -1.0
  outer loop
    vertex 0.7297357914008432 -29.50115719631135 0.0
    vertex 0.7300047627229871 -37.008155519826836 0.0
    vertex 0.2272018286895354 -29.47989582860115 0.0
  endloop
endfacet
facet normal 0.0 0.0 -1.0
  outer loop
    vertex 0.7300047627229871 -37.008155519826836 0.0
    vertex 0.7297357914008432 -29.50115719631135 0.0
    vertex 1.2252478666956643 -36.92025388501416 0.0
  endloop
endfacet
facet normal 0.0 0.0 -1.0
  outer loop
    vertex 0.7300047627229871 -37.008155519826836 0.0
    vertex 1.2252478666956643 -36.92025388501416 0.0
    vertex 2.8487056850154855 -44.24960642215861 0.0
  endloop
endfacet
facet normal 0.0 0.0 -1.0
  outer loop
    vertex 2.8487056850154855 -44.24960642215861 0.0
    vertex 1.2252478666956643 -36.92025388501416 0.0
    vertex 3.3132267146162073 -44.05670063558412 0.0
  endloop
endfacet
facet normal 0.0 0.0 -1.0
  outer loop
    vertex 2.8487056850154855 -44.24960642215861 0.0
    vertex 3.3132267146162073 -44.05670063558412 0.0
    vertex 6.483063445766931 -50.86163700556271 0.0
  endloop
endfacet
facet normal 0.0 0.0 -1.0
  outer loop
    vertex 6.483063445766931 -50.86163700556271 0.0
    vertex 3.3132267146162073 -44.05670063558412 0.0
    vertex 6.894884725136101 -50.572853932488876 0.0
  endloop
endfacet
facet normal 0.0 0.0 -1.0
  outer loop
    vertex 6.483063445766931 -50.86163700556271 0.0
    vertex 6.894884725136101 -50.572853932488876 0.0
    vertex 11.461127300589773 -56.531415222240284 0.0
  endloop
endfacet
facet normal 0.0 0.0 -1.0
  outer loop
    vertex 11.461127300589773 -56.531415222240284 0.0
    vertex 6.894884725136101 -50.572853932488876 0.0
    vertex 11.800764513596814 -56.16041792713419 0.0
  endloop
endfacet
facet normal 0.0 0.0 -1.0
  outer loop
    vertex 11.461127300589773 -56.531415222240284 0.0
    vertex 11.800764513596814 -56.16041792713419 0.0
    vertex 17.547372339226328 -60.99068938948735 0.0
  endloop
endfacet
facet normal 0.0 0.0 -1.0
  outer loop
    vertex 17.547372339226328 -60.99068938948735 0.0
    vertex 11.800764513596814 -56.16041792713419 0.0
    vertex 17.798756382210353 -60.5550307015581 0.0
  endloop
endfacet
facet normal 0.0 0.0 -1.0
  outer loop
    vertex 17.547372339226328 -60.99068938948735 0.0
    vertex 17.798756382210353 -60.5550307015581 0.0
    vertex 24.4538427703617 -64.0284798616656 0.0
  endloop
endfacet
facet normal 0.0 0.0 -1.0
  outer loop
    vertex 24.4538427703617 -64.0284798616656 0.0
    vertex 17.798756382210353 -60.5550307015581 0.0
    vertex 24.60508002245114 -63.54877190570108 0.0
  endloop
endfacet
facet normal 0.0 0.0 -1.0
  outer loop
    vertex 24.4538427703617 -64.0284798616656 0.0
    vertex 24.60508002245114 -63.54877190570108 0.0
    vertex 31.860216890200952 -65.50234277900896 0.0
  endloop
endfacet
facet normal 0.0 0.0 -1.0
  outer loop
    vertex 31.860216890200952 -65.50234277900896 0.0
    vertex 24.60508002245114 -63.54877190570108 0.0
    vertex 31.897710885959967 -65.0 0.0
  endloop
endfacet
facet normal 0.0 0.0 -1.0
  outer loop
    vertex 31.860216890200952 -65.50234277900896 0.0
    vertex 31.897710885959967 -65.0 0.0
    vertex 33.14462301566796 -65.4413739969042 0.0
  endloop
endfacet
facet normal 0.0 0.0 -1.0
  outer loop
    vertex 33.14462301566796 -65.4413739969042 0.0
    vertex 31.897710885959967 -65.0 0.0
    vertex 33.09720794370589 -64.94306172066689 0.0
  endloop
endfacet
facet normal 0.0 0.0 -1.0
  outer loop
    vertex 33.14462301566796 -65.4413739969042 0.0
    vertex 33.09720794370589 -64.94306172066689 0.0
    vertex 34.28591821685288 -64.77275891473187 0.0
  endloop
endfacet
facet normal 0.0 0.0 -1.0
  outer loop
    vertex 33.14462301566796 -65.4413739969042 0.0
    vertex 34.28591821685288 -64.77275891473187 0.0
    vertex 34.3803219685948 -65.26433926966382 0.0
  endloop
endfacet
facet normal 0.0 0.0 -1.0
  outer loop
    vertex 34.3803219685948 -65.26433926966382 0.0
    vertex 34.28591821685288 -64.77275891473187 0.0
    vertex 35.45315192372605 -64.49062307380831 0.0
  endloop
endfacet
facet normal 0.0 0.0 -1.0
  outer loop
    vertex 34.3803219685948 -65.26433926966382 0.0
    vertex 35.45315192372605 -64.49062307380831 0.0
    vertex 35.5936954053243 -64.97105084515196 0.0
  endloop
endfacet
facet normal 0.0 0.0 -1.0
  outer loop
    vertex 35.5936954053243 -64.97105084515196 0.0
    vertex 35.45315192372605 -64.49062307380831 0.0
    vertex 36.588412416174954 -64.09919137672797 0.0
  endloop
endfacet
facet normal 0.0 0.0 -1.0
  outer loop
    vertex 35.5936954053243 -64.97105084515196 0.0
    vertex 36.588412416174954 -64.09919137672797 0.0
    vertex 36.77383175436464 -64.56414619466545 0.0
  endloop
endfacet
facet normal 0.0 0.0 -1.0
  outer loop
    vertex 36.77383175436464 -64.56414619466545 0.0
    vertex 36.588412416174954 -64.09919137672797 0.0
    vertex 37.681490573371306 -63.601983873310374 0.0
  endloop
endfacet
facet normal 0.0 0.0 -1.0
  outer loop
    vertex 36.77383175436464 -64.56414619466545 0.0
    vertex 37.681490573371306 -63.601983873310374 0.0
    vertex 37.9101183372497 -64.04728451252161 0.0
  endloop
endfacet
facet normal 0.0 0.0 -1.0
  outer loop
    vertex 37.9101183372497 -64.04728451252161 0.0
    vertex 37.681490573371306 -63.601983873310374 0.0
    vertex 38.72255660994352 -63.00347182941288 0.0
  endloop
endfacet
facet normal 0.0 0.0 -1.0
  outer loop
    vertex 37.9101183372497 -64.04728451252161 0.0
    vertex 38.72255660994352 -63.00347182941288 0.0
    vertex 38.99233680577057 -63.42511380981508 0.0
  endloop
endfacet
facet normal 0.0 0.0 -1.0
  outer loop
    vertex 38.99233680577057 -63.42511380981508 0.0
    vertex 38.72255660994352 -63.00347182941288 0.0
    vertex 39.70224847284007 -62.30903751792704 0.0
  endloop
endfacet
facet normal 0.0 0.0 -1.0
  outer loop
    vertex 38.99233680577057 -63.42511380981508 0.0
    vertex 39.70224847284007 -62.30903751792704 0.0
    vertex 40.01075503308783 -62.70322911598827 0.0
  endloop
endfacet
facet normal 0.0 0.0 -1.0
  outer loop
    vertex 40.01075503308783 -62.70322911598827 0.0
    vertex 39.70224847284007 -62.30903751792704 0.0
    vertex 40.61175603199007 -61.524925817310645 0.0
  endloop
endfacet
facet normal 0.0 0.0 -1.0
  outer loop
    vertex 40.01075503308783 -62.70322911598827 0.0
    vertex 40.61175603199007 -61.524925817310645 0.0
    vertex 40.95621463237715 -61.888122164094796 0.0
  endloop
endfacet
facet normal 0.0 0.0 -1.0
  outer loop
    vertex 40.95621463237715 -61.888122164094796 0.0
    vertex 40.61175603199007 -61.524925817310645 0.0
    vertex 41.44290030765505 -60.65818805291829 0.0
  endloop
endfacet
facet normal 0.0 0.0 -1.0
  outer loop
    vertex 40.95621463237715 -61.888122164094796 0.0
    vertex 41.44290030765505 -60.65818805291829 0.0
    vertex 41.82021331596843 -60.9871230122271 0.0
  endloop
endfacet
facet normal 0.0 0.0 -1.0
  outer loop
    vertex 41.82021331596843 -60.9871230122271 0.0
    vertex 41.44290030765505 -60.65818805291829 0.0
    vertex 42.18820702199972 -59.71661858615161 0.0
  endloop
endfacet
facet normal 0.0 0.0 -1.0
  outer loop
    vertex 41.82021331596843 -60.9871230122271 0.0
    vertex 42.18820702199972 -59.71661858615161 0.0
    vertex 42.59498135434573 -60.00833412609154 0.0
  endloop
endfacet
facet normal 0.0 0.0 -1.0
  outer loop
    vertex 42.59498135434573 -60.00833412609154 0.0
    vertex 42.18820702199972 -59.71661858615161 0.0
    vertex 42.84097381345022 -58.70868472166746 0.0
  endloop
endfacet
facet normal 0.0 0.0 -1.0
  outer loop
    vertex 42.59498135434573 -60.00833412609154 0.0
    vertex 42.84097381345022 -58.70868472166746 0.0
    vertex 43.27355144743106 -58.96055751550894 0.0
  endloop
endfacet
facet normal 0.0 0.0 -1.0
  outer loop
    vertex 43.27355144743106 -58.96055751550894 0.0
    vertex 42.84097381345022 -58.70868472166746 0.0
    vertex 43.39533050939776 -57.643450562971516 0.0
  endloop
endfacet
facet normal 0.0 0.0 -1.0
  outer loop
    vertex 43.27355144743106 -58.96055751550894 0.0
    vertex 43.39533050939776 -57.643450562971516 0.0
    vertex 43.84433998817113 -57.86374844756892 0.0
  endloop
endfacet
facet normal 0.0 0.0 -1.0
  outer loop
    vertex 43.84433998817113 -57.86374844756892 0.0
    vertex 43.39533050939776 -57.643450562971516 0.0
    vertex 48.0412463793219 -47.57729951146921 0.0
  endloop
endfacet
facet normal 0.0 0.0 -1.0
  outer loop
    vertex 43.84433998817113 -57.86374844756892 0.0
    vertex 48.0412463793219 -47.57729951146921 0.0
    vertex 48.72599530234135 -47.28682860020008 0.0
  endloop
endfacet
facet normal 0.0 0.0 -1.0
  outer loop
    vertex 48.72599530234135 -47.28682860020008 0.0
    vertex 48.0412463793219 -47.57729951146921 0.0
    vertex 48.272015610091124 -47.077299511469214 0.0
  endloop
endfacet
facet normal 0.0 0.0 -1.0
  outer loop
    vertex 48.72599530234135 -47.28682860020008 0.0
    vertex 48.272015610091124 -47.077299511469214 0.0
    vertex 68.61538461538461 -3.000000000000002 0.0
  endloop
endfacet
facet normal 0.0 0.0 -1.0
  outer loop
    vertex 48.72599530234135 -47.28682860020008 0.0
    vertex 68.61538461538461 -3.000000000000002 0.0
    vertex 69.39683927166448 -2.5000000000000027 0.0
  endloop
endfacet
endsolid Untitled-55ecc991
