solid laser cut motor mount
facet normal -0.13052619222005044 0.9914448613738106 -0.0
  outer loop
    vertex 6.38898656202258e-16 -1.0972409576612483 5.5
    vertex 0.28398685690925823 -1.0598533786671505 -1.4099832412739487e-15
    vertex 6.38898656202258e-16 -1.0972409576612483 -1.4099832412739487e-15
  endloop
endfacet
facet normal -0.13052619222005044 0.9914448613738106 -0.0
  outer loop
    vertex 0.28398685690925823 -1.0598533786671505 -1.4099832412739487e-15
    vertex 6.38898656202258e-16 -1.0972409576612483 5.5
    vertex 0.28398685690925823 -1.0598533786671505 5.5
  endloop
endfacet
facet normal -0.7933533402912343 0.608761429008722 -0.0
  outer loop
    vertex 0.9502385434074058 -0.5486204788306261 5.5
    vertex 0.7758665217578911 -0.7758665217578891 -1.4099832412739487e-15
    vertex 0.7758665217578911 -0.7758665217578891 5.5
  endloop
endfacet
facet normal -0.7933533402912343 0.608761429008722 -0.0
  outer loop
    vertex 0.7758665217578911 -0.7758665217578891 -1.4099832412739487e-15
    vertex 0.9502385434074058 -0.5486204788306261 5.5
    vertex 0.9502385434074058 -0.5486204788306261 -1.4099832412739487e-15
  endloop
endfacet
facet normal -0.9238795325112868 -0.3826834323650895 -0.0
  outer loop
    vertex 0.9502385434074067 0.548620478830624 5.5
    vertex 1.0598533786671502 0.28398685690925835 -1.4099832412739487e-15
    vertex 1.0598533786671502 0.28398685690925835 5.5
  endloop
endfacet
facet normal -0.9238795325112868 -0.3826834323650895 -0.0
  outer loop
    vertex 1.0598533786671502 0.28398685690925835 -1.4099832412739487e-15
    vertex 0.9502385434074067 0.548620478830624 5.5
    vertex 0.9502385434074067 0.548620478830624 -1.4099832412739487e-15
  endloop
endfacet
facet normal 0.3826834323650904 0.9238795325112867 0.0
  outer loop
    vertex -0.548620478830625 -0.9502385434074063 5.5
    vertex -0.28398685690926034 -1.0598533786671498 -1.4099832412739487e-15
    vertex -0.548620478830625 -0.9502385434074063 -1.4099832412739487e-15
  endloop
endfacet
facet normal 0.3826834323650904 0.9238795325112867 0.0
  outer loop
    vertex -0.28398685690926034 -1.0598533786671498 -1.4099832412739487e-15
    vertex -0.548620478830625 -0.9502385434074063 5.5
    vertex -0.28398685690926034 -1.0598533786671498 5.5
  endloop
endfacet
facet normal -0.6087614290087211 -0.7933533402912349 -0.0
  outer loop
    vertex 0.7758665217578906 0.7758665217578898 5.5
    vertex 0.5486204788306247 0.9502385434074065 -1.4099832412739487e-15
    vertex 0.7758665217578906 0.7758665217578898 -1.4099832412739487e-15
  endloop
endfacet
facet normal -0.6087614290087211 -0.7933533402912349 -0.0
  outer loop
    vertex 0.5486204788306247 0.9502385434074065 -1.4099832412739487e-15
    vertex 0.7758665217578906 0.7758665217578898 5.5
    vertex 0.5486204788306247 0.9502385434074065 5.5
  endloop
endfacet
facet normal -0.6087614290087214 0.7933533402912346 -0.0
  outer loop
    vertex 0.5486204788306236 -0.950238543407407 5.5
    vertex 0.7758665217578911 -0.7758665217578891 -1.4099832412739487e-15
    vertex 0.5486204788306236 -0.950238543407407 -1.4099832412739487e-15
  endloop
endfacet
facet normal -0.6087614290087214 0.7933533402912346 -0.0
  outer loop
    vertex 0.7758665217578911 -0.7758665217578891 -1.4099832412739487e-15
    vertex 0.5486204788306236 -0.950238543407407 5.5
    vertex 0.7758665217578911 -0.7758665217578891 5.5
  endloop
endfacet
facet normal 0.9914448613738106 0.1305261922200501 0.0
  outer loop
    vertex -1.0972409576612485 1.4320142294188542e-16 -1.4099832412739487e-15
    vertex -1.0598533786671507 -0.28398685690925823 5.5
    vertex -1.0598533786671507 -0.28398685690925823 -1.4099832412739487e-15
  endloop
endfacet
facet normal 0.9914448613738106 0.1305261922200501 0.0
  outer loop
    vertex -1.0598533786671507 -0.28398685690925823 5.5
    vertex -1.0972409576612485 1.4320142294188542e-16 -1.4099832412739487e-15
    vertex -1.0972409576612485 1.4320142294188542e-16 5.5
  endloop
endfacet
facet normal -0.7933533402912357 -0.60876142900872 -0.0
  outer loop
    vertex 0.7758665217578906 0.7758665217578898 5.5
    vertex 0.9502385434074067 0.548620478830624 -1.4099832412739487e-15
    vertex 0.9502385434074067 0.548620478830624 5.5
  endloop
endfacet
facet normal -0.7933533402912357 -0.60876142900872 -0.0
  outer loop
    vertex 0.9502385434074067 0.548620478830624 -1.4099832412739487e-15
    vertex 0.7758665217578906 0.7758665217578898 5.5
    vertex 0.7758665217578906 0.7758665217578898 -1.4099832412739487e-15
  endloop
endfacet
facet normal -0.3826834323650906 -0.9238795325112865 -0.0
  outer loop
    vertex 0.5486204788306247 0.9502385434074065 5.5
    vertex 0.2839868569092607 1.0598533786671498 -1.4099832412739487e-15
    vertex 0.5486204788306247 0.9502385434074065 -1.4099832412739487e-15
  endloop
endfacet
facet normal -0.3826834323650906 -0.9238795325112865 -0.0
  outer loop
    vertex 0.2839868569092607 1.0598533786671498 -1.4099832412739487e-15
    vertex 0.5486204788306247 0.9502385434074065 5.5
    vertex 0.2839868569092607 1.0598533786671498 5.5
  endloop
endfacet
facet normal 0.382683432365089 -0.9238795325112871 -0.0
  outer loop
    vertex -0.28398685690925957 1.05985337866715 5.5
    vertex -0.5486204788306227 0.9502385434074078 -1.4099832412739487e-15
    vertex -0.28398685690925957 1.05985337866715 -1.4099832412739487e-15
  endloop
endfacet
facet normal 0.382683432365089 -0.9238795325112871 -0.0
  outer loop
    vertex -0.5486204788306227 0.9502385434074078 -1.4099832412739487e-15
    vertex -0.28398685690925957 1.05985337866715 5.5
    vertex -0.5486204788306227 0.9502385434074078 5.5
  endloop
endfacet
facet normal 0.7933533402912355 0.6087614290087201 0.0
  outer loop
    vertex -0.9502385434074065 -0.5486204788306243 -1.4099832412739487e-15
    vertex -0.7758665217578905 -0.7758665217578898 5.5
    vertex -0.7758665217578905 -0.7758665217578898 -1.4099832412739487e-15
  endloop
endfacet
facet normal 0.7933533402912355 0.6087614290087201 0.0
  outer loop
    vertex -0.7758665217578905 -0.7758665217578898 5.5
    vertex -0.9502385434074065 -0.5486204788306243 -1.4099832412739487e-15
    vertex -0.9502385434074065 -0.5486204788306243 5.5
  endloop
endfacet
facet normal -0.1305261922200511 -0.9914448613738105 -0.0
  outer loop
    vertex 0.2839868569092607 1.0598533786671498 5.5
    vertex -8.37177549506407e-16 1.0972409576612483 -1.4099832412739487e-15
    vertex 0.2839868569092607 1.0598533786671498 -1.4099832412739487e-15
  endloop
endfacet
facet normal -0.1305261922200511 -0.9914448613738105 -0.0
  outer loop
    vertex -8.37177549506407e-16 1.0972409576612483 -1.4099832412739487e-15
    vertex 0.2839868569092607 1.0598533786671498 5.5
    vertex -8.37177549506407e-16 1.0972409576612483 5.5
  endloop
endfacet
facet normal -0.38268343236508945 0.9238795325112871 -0.0
  outer loop
    vertex 0.28398685690925823 -1.0598533786671505 5.5
    vertex 0.5486204788306236 -0.950238543407407 -1.4099832412739487e-15
    vertex 0.28398685690925823 -1.0598533786671505 -1.4099832412739487e-15
  endloop
endfacet
facet normal -0.38268343236508945 0.9238795325112871 -0.0
  outer loop
    vertex 0.5486204788306236 -0.950238543407407 -1.4099832412739487e-15
    vertex 0.28398685690925823 -1.0598533786671505 5.5
    vertex 0.5486204788306236 -0.950238543407407 5.5
  endloop
endfacet
facet normal -0.9238795325112871 0.3826834323650895 -0.0
  outer loop
    vertex 1.0598533786671498 -0.28398685690925907 5.5
    vertex 0.9502385434074058 -0.5486204788306261 -1.4099832412739487e-15
    vertex 0.9502385434074058 -0.5486204788306261 5.5
  endloop
endfacet
facet normal -0.9238795325112871 0.3826834323650895 -0.0
  outer loop
    vertex 0.9502385434074058 -0.5486204788306261 -1.4099832412739487e-15
    vertex 1.0598533786671498 -0.28398685690925907 5.5
    vertex 1.0598533786671498 -0.28398685690925907 -1.4099832412739487e-15
  endloop
endfacet
facet normal -0.9914448613738106 0.13052619222005155 -0.0
  outer loop
    vertex 1.0972409576612483 1.1015494072452725e-16 5.5
    vertex 1.0598533786671498 -0.28398685690925907 -1.4099832412739487e-15
    vertex 1.0598533786671498 -0.28398685690925907 5.5
  endloop
endfacet
facet normal -0.9914448613738106 0.13052619222005155 -0.0
  outer loop
    vertex 1.0598533786671498 -0.28398685690925907 -1.4099832412739487e-15
    vertex 1.0972409576612483 1.1015494072452725e-16 5.5
    vertex 1.0972409576612483 1.1015494072452725e-16 -1.4099832412739487e-15
  endloop
endfacet
facet normal 0.13052619222005135 0.9914448613738105 0.0
  outer loop
    vertex -0.28398685690926034 -1.0598533786671498 5.5
    vertex 6.38898656202258e-16 -1.0972409576612483 -1.4099832412739487e-15
    vertex -0.28398685690926034 -1.0598533786671498 -1.4099832412739487e-15
  endloop
endfacet
facet normal 0.13052619222005135 0.9914448613738105 0.0
  outer loop
    vertex 6.38898656202258e-16 -1.0972409576612483 -1.4099832412739487e-15
    vertex -0.28398685690926034 -1.0598533786671498 5.5
    vertex 6.38898656202258e-16 -1.0972409576612483 5.5
  endloop
endfacet
facet normal 0.13052619222005116 -0.9914448613738106 -0.0
  outer loop
    vertex -8.37177549506407e-16 1.0972409576612483 5.5
    vertex -0.28398685690925957 1.05985337866715 -1.4099832412739487e-15
    vertex -8.37177549506407e-16 1.0972409576612483 -1.4099832412739487e-15
  endloop
endfacet
facet normal 0.13052619222005116 -0.9914448613738106 -0.0
  outer loop
    vertex -0.28398685690925957 1.05985337866715 -1.4099832412739487e-15
    vertex -8.37177549506407e-16 1.0972409576612483 5.5
    vertex -0.28398685690925957 1.05985337866715 5.5
  endloop
endfacet
facet normal 0.923879532511287 -0.3826834323650892 -0.0
  outer loop
    vertex -0.9502385434074067 0.5486204788306244 -1.4099832412739487e-15
    vertex -1.0598533786671498 0.28398685690925973 5.5
    vertex -1.0598533786671498 0.28398685690925973 -1.4099832412739487e-15
  endloop
endfacet
facet normal 0.923879532511287 -0.3826834323650892 -0.0
  outer loop
    vertex -1.0598533786671498 0.28398685690925973 5.5
    vertex -0.9502385434074067 0.5486204788306244 -1.4099832412739487e-15
    vertex -0.9502385434074067 0.5486204788306244 5.5
  endloop
endfacet
facet normal 0.9914448613738104 -0.13052619222005257 -0.0
  outer loop
    vertex -1.0598533786671498 0.28398685690925973 -1.4099832412739487e-15
    vertex -1.0972409576612485 1.4320142294188542e-16 5.5
    vertex -1.0972409576612485 1.4320142294188542e-16 -1.4099832412739487e-15
  endloop
endfacet
facet normal 0.9914448613738104 -0.13052619222005257 -0.0
  outer loop
    vertex -1.0972409576612485 1.4320142294188542e-16 5.5
    vertex -1.0598533786671498 0.28398685690925973 -1.4099832412739487e-15
    vertex -1.0598533786671498 0.28398685690925973 5.5
  endloop
endfacet
facet normal 0.9238795325112865 0.38268343236509084 0.0
  outer loop
    vertex -1.0598533786671507 -0.28398685690925823 -1.4099832412739487e-15
    vertex -0.9502385434074065 -0.5486204788306243 5.5
    vertex -0.9502385434074065 -0.5486204788306243 -1.4099832412739487e-15
  endloop
endfacet
facet normal 0.9238795325112865 0.38268343236509084 0.0
  outer loop
    vertex -0.9502385434074065 -0.5486204788306243 5.5
    vertex -1.0598533786671507 -0.28398685690925823 -1.4099832412739487e-15
    vertex -1.0598533786671507 -0.28398685690925823 5.5
  endloop
endfacet
facet normal -0.9914448613738105 -0.13052619222005077 -0.0
  outer loop
    vertex 1.0598533786671502 0.28398685690925835 5.5
    vertex 1.0972409576612483 1.1015494072452725e-16 -1.4099832412739487e-15
    vertex 1.0972409576612483 1.1015494072452725e-16 5.5
  endloop
endfacet
facet normal -0.9914448613738105 -0.13052619222005077 -0.0
  outer loop
    vertex 1.0972409576612483 1.1015494072452725e-16 -1.4099832412739487e-15
    vertex 1.0598533786671502 0.28398685690925835 5.5
    vertex 1.0598533786671502 0.28398685690925835 -1.4099832412739487e-15
  endloop
endfacet
facet normal 0.6087614290087214 0.7933533402912347 0.0
  outer loop
    vertex -0.7758665217578905 -0.7758665217578898 5.5
    vertex -0.548620478830625 -0.9502385434074063 -1.4099832412739487e-15
    vertex -0.7758665217578905 -0.7758665217578898 -1.4099832412739487e-15
  endloop
endfacet
facet normal 0.6087614290087214 0.7933533402912347 0.0
  outer loop
    vertex -0.548620478830625 -0.9502385434074063 -1.4099832412739487e-15
    vertex -0.7758665217578905 -0.7758665217578898 5.5
    vertex -0.548620478830625 -0.9502385434074063 5.5
  endloop
endfacet
facet normal 0.7933533402912352 -0.6087614290087208 -0.0
  outer loop
    vertex -0.7758665217578903 0.7758665217578901 -1.4099832412739487e-15
    vertex -0.9502385434074067 0.5486204788306244 5.5
    vertex -0.9502385434074067 0.5486204788306244 -1.4099832412739487e-15
  endloop
endfacet
facet normal 0.7933533402912352 -0.6087614290087208 -0.0
  outer loop
    vertex -0.9502385434074067 0.5486204788306244 5.5
    vertex -0.7758665217578903 0.7758665217578901 -1.4099832412739487e-15
    vertex -0.7758665217578903 0.7758665217578901 5.5
  endloop
endfacet
facet normal 0.6087614290087204 -0.7933533402912355 -0.0
  outer loop
    vertex -0.5486204788306227 0.9502385434074078 5.5
    vertex -0.7758665217578903 0.7758665217578901 -1.4099832412739487e-15
    vertex -0.5486204788306227 0.9502385434074078 -1.4099832412739487e-15
  endloop
endfacet
facet normal 0.6087614290087204 -0.7933533402912355 -0.0
  outer loop
    vertex -0.7758665217578903 0.7758665217578901 -1.4099832412739487e-15
    vertex -0.5486204788306227 0.9502385434074078 5.5
    vertex -0.7758665217578903 0.7758665217578901 5.5
  endloop
endfacet
facet normal 0.8257924824416735 -0.5639740915528111 0.0
  outer loop
    vertex 5.354046623754426 -2.708170000325653 0.0
    vertex 4.47068593558061 -4.001620579890321 5.0
    vertex 4.47068593558061 -4.001620579890321 0.0
  endloop
endfacet
facet normal 0.8257924824416735 -0.5639740915528111 0.0
  outer loop
    vertex 4.47068593558061 -4.001620579890321 5.0
    vertex 5.354046623754426 -2.708170000325653 0.0
    vertex 5.354046623754426 -2.708170000325653 5.0
  endloop
endfacet
facet normal 0.563974091552811 0.8257924824416737 0.0
  outer loop
    vertex 2.7081700003256515 5.354046623754425 5.0
    vertex 4.001620579890321 4.470685935580608 0.0
    vertex 2.7081700003256515 5.354046623754425 0.0
  endloop
endfacet
facet normal 0.563974091552811 0.8257924824416737 0.0
  outer loop
    vertex 4.001620579890321 4.470685935580608 0.0
    vertex 2.7081700003256515 5.354046623754425 5.0
    vertex 4.001620579890321 4.470685935580608 5.0
  endloop
endfacet
facet normal -0.9827133687378959 -0.18513355963686415 -0.0
  outer loop
    vertex -5.990825389380462 -0.33167929382828526 5.0
    vertex -5.700848046281938 -1.8709173026094508 0.0
    vertex -5.700848046281938 -1.8709173026094508 5.0
  endloop
endfacet
facet normal -0.9827133687378959 -0.18513355963686415 -0.0
  outer loop
    vertex -5.700848046281938 -1.8709173026094508 0.0
    vertex -5.990825389380462 -0.33167929382828526 5.0
    vertex -5.990825389380462 -0.33167929382828526 0.0
  endloop
endfacet
facet normal -0.9013121315818221 -0.43317022227229857 -0.0
  outer loop
    vertex -5.700848046281938 -1.8709173026094508 5.0
    vertex -5.022367329926141 -3.282655389054809 0.0
    vertex -5.022367329926141 -3.282655389054809 5.0
  endloop
endfacet
facet normal -0.9013121315818221 -0.43317022227229857 -0.0
  outer loop
    vertex -5.022367329926141 -3.282655389054809 0.0
    vertex -5.700848046281938 -1.8709173026094508 5.0
    vertex -5.700848046281938 -1.8709173026094508 0.0
  endloop
endfacet
facet normal -0.18513355963686468 0.9827133687378957 0.0
  outer loop
    vertex -1.8709173026094519 5.700848046281937 5.0
    vertex -0.33167929382828737 5.990825389380462 0.0
    vertex -1.8709173026094519 5.700848046281937 0.0
  endloop
endfacet
facet normal -0.18513355963686468 0.9827133687378957 0.0
  outer loop
    vertex -0.33167929382828737 5.990825389380462 0.0
    vertex -1.8709173026094519 5.700848046281937 5.0
    vertex -0.33167929382828737 5.990825389380462 5.0
  endloop
endfacet
facet normal -0.9436215217840346 0.3310263186303818 0.0
  outer loop
    vertex -5.354046623754426 2.7081700003256524 5.0
    vertex -5.87253788249977 1.2301621107013267 0.0
    vertex -5.87253788249977 1.2301621107013267 5.0
  endloop
endfacet
facet normal -0.9436215217840346 0.3310263186303818 0.0
  outer loop
    vertex -5.87253788249977 1.2301621107013267 0.0
    vertex -5.354046623754426 2.7081700003256524 5.0
    vertex -5.354046623754426 2.7081700003256524 0.0
  endloop
endfacet
facet normal 0.9971443138251097 -0.07551964914014907 0.0
  outer loop
    vertex 5.990825389380464 0.3316792938282821 0.0
    vertex 5.872537882499769 -1.2301621107013287 5.0
    vertex 5.872537882499769 -1.2301621107013287 0.0
  endloop
endfacet
facet normal 0.9971443138251097 -0.07551964914014907 0.0
  outer loop
    vertex 5.872537882499769 -1.2301621107013287 5.0
    vertex 5.990825389380464 0.3316792938282821 0.0
    vertex 5.990825389380464 0.3316792938282821 5.0
  endloop
endfacet
facet normal -0.0 -0.0 1.0
  outer loop
    vertex -4.001620579890318 -4.47068593558061 5.0
    vertex -4.651392596760863 -0.2575222129736173 5.0
    vertex -5.022367329926141 -3.282655389054809 5.0
  endloop
endfacet
facet normal -0.0 -0.0 1.0
  outer loop
    vertex -4.651392596760863 -0.2575222129736173 5.0
    vertex -4.001620579890318 -4.47068593558061 5.0
    vertex -4.426248584166573 -1.452616346644912 5.0
  endloop
endfacet
facet normal -0.0 -0.0 1.0
  outer loop
    vertex -4.426248584166573 -1.452616346644912 5.0
    vertex -4.001620579890318 -4.47068593558061 5.0
    vertex -3.8994630452829737 -2.5487170768543628 5.0
  endloop
endfacet
facet normal -0.0 -0.0 1.0
  outer loop
    vertex -3.8994630452829737 -2.5487170768543628 5.0
    vertex -4.001620579890318 -4.47068593558061 5.0
    vertex -2.7081700003256524 -5.354046623754425 5.0
  endloop
endfacet
facet normal -0.0 -0.0 1.0
  outer loop
    vertex -3.8994630452829737 -2.5487170768543628 5.0
    vertex -2.7081700003256524 -5.354046623754425 5.0
    vertex -3.1069355440307014 -3.47112695023032 5.0
  endloop
endfacet
facet normal -0.0 -0.0 1.0
  outer loop
    vertex -3.1069355440307014 -3.47112695023032 5.0
    vertex -2.7081700003256524 -5.354046623754425 5.0
    vertex -2.1026755199065006 -4.156985258256581 5.0
  endloop
endfacet
facet normal -0.0 -0.0 1.0
  outer loop
    vertex -2.1026755199065006 -4.156985258256581 5.0
    vertex -2.7081700003256524 -5.354046623754425 5.0
    vertex -1.2301621107013274 -5.872537882499767 5.0
  endloop
endfacet
facet normal -0.0 -0.0 1.0
  outer loop
    vertex -2.1026755199065006 -4.156985258256581 5.0
    vertex -1.2301621107013274 -5.872537882499767 5.0
    vertex -0.9551216339362464 -4.559551890675611 5.0
  endloop
endfacet
facet normal -0.0 -0.0 1.0
  outer loop
    vertex -0.9551216339362464 -4.559551890675611 5.0
    vertex -1.2301621107013274 -5.872537882499767 5.0
    vertex 0.3316792938282859 -5.990825389380462 5.0
  endloop
endfacet
facet normal -0.0 -0.0 1.0
  outer loop
    vertex -0.9551216339362464 -4.559551890675611 5.0
    vertex 0.3316792938282859 -5.990825389380462 5.0
    vertex 0.25752221297361505 -4.651392596760864 5.0
  endloop
endfacet
facet normal -0.0 -0.0 1.0
  outer loop
    vertex 0.25752221297361505 -4.651392596760864 5.0
    vertex 0.3316792938282859 -5.990825389380462 5.0
    vertex 1.4526163466449071 -4.426248584166574 5.0
  endloop
endfacet
facet normal -0.0 -0.0 1.0
  outer loop
    vertex 1.4526163466449071 -4.426248584166574 5.0
    vertex 0.3316792938282859 -5.990825389380462 5.0
    vertex 1.870917302609449 -5.700848046281938 5.0
  endloop
endfacet
facet normal -0.0 -0.0 1.0
  outer loop
    vertex 1.4526163466449071 -4.426248584166574 5.0
    vertex 1.870917302609449 -5.700848046281938 5.0
    vertex 2.5487170768543685 -3.8994630452829697 5.0
  endloop
endfacet
facet normal -0.0 -0.0 1.0
  outer loop
    vertex 2.5487170768543685 -3.8994630452829697 5.0
    vertex 1.870917302609449 -5.700848046281938 5.0
    vertex 3.28265538905481 -5.022367329926141 5.0
  endloop
endfacet
facet normal -0.0 -0.0 1.0
  outer loop
    vertex 2.5487170768543685 -3.8994630452829697 5.0
    vertex 3.28265538905481 -5.022367329926141 5.0
    vertex 3.4711269502303157 -3.106935544030711 5.0
  endloop
endfacet
facet normal -0.0 -0.0 1.0
  outer loop
    vertex 3.4711269502303157 -3.106935544030711 5.0
    vertex 3.28265538905481 -5.022367329926141 5.0
    vertex 4.47068593558061 -4.001620579890321 5.0
  endloop
endfacet
facet normal -0.0 -0.0 1.0
  outer loop
    vertex 3.4711269502303157 -3.106935544030711 5.0
    vertex 4.47068593558061 -4.001620579890321 5.0
    vertex 4.156985258256584 -2.102675519906496 5.0
  endloop
endfacet
facet normal -0.0 -0.0 1.0
  outer loop
    vertex 4.156985258256584 -2.102675519906496 5.0
    vertex 4.47068593558061 -4.001620579890321 5.0
    vertex 4.559551890675612 -0.9551216339362532 5.0
  endloop
endfacet
facet normal -0.0 -0.0 1.0
  outer loop
    vertex 4.559551890675612 -0.9551216339362532 5.0
    vertex 4.47068593558061 -4.001620579890321 5.0
    vertex 5.354046623754426 -2.708170000325653 5.0
  endloop
endfacet
facet normal -0.0 -0.0 1.0
  outer loop
    vertex 4.559551890675612 -0.9551216339362532 5.0
    vertex 5.354046623754426 -2.708170000325653 5.0
    vertex 4.651392596760865 0.25752221297361133 5.0
  endloop
endfacet
facet normal -0.0 -0.0 1.0
  outer loop
    vertex 4.651392596760865 0.25752221297361133 5.0
    vertex 5.354046623754426 -2.708170000325653 5.0
    vertex 5.022367329926141 3.2826553890548085 5.0
  endloop
endfacet
facet normal -0.0 -0.0 1.0
  outer loop
    vertex 5.022367329926141 3.2826553890548085 5.0
    vertex 5.354046623754426 -2.708170000325653 5.0
    vertex 5.700848046281939 1.8709173026094497 5.0
  endloop
endfacet
facet normal -0.0 -0.0 1.0
  outer loop
    vertex 5.700848046281939 1.8709173026094497 5.0
    vertex 5.354046623754426 -2.708170000325653 5.0
    vertex 5.872537882499769 -1.2301621107013287 5.0
  endloop
endfacet
facet normal -0.0 -0.0 1.0
  outer loop
    vertex 5.700848046281939 1.8709173026094497 5.0
    vertex 5.872537882499769 -1.2301621107013287 5.0
    vertex 5.990825389380464 0.3316792938282821 5.0
  endloop
endfacet
facet normal -0.0 -0.0 1.0
  outer loop
    vertex -5.700848046281938 -1.8709173026094508 5.0
    vertex -5.87253788249977 1.2301621107013267 5.0
    vertex -5.990825389380462 -0.33167929382828526 5.0
  endloop
endfacet
facet normal -0.0 -0.0 1.0
  outer loop
    vertex -5.87253788249977 1.2301621107013267 5.0
    vertex -5.700848046281938 -1.8709173026094508 5.0
    vertex -5.354046623754426 2.7081700003256524 5.0
  endloop
endfacet
facet normal -0.0 -0.0 1.0
  outer loop
    vertex -5.354046623754426 2.7081700003256524 5.0
    vertex -5.700848046281938 -1.8709173026094508 5.0
    vertex -5.022367329926141 -3.282655389054809 5.0
  endloop
endfacet
facet normal -0.0 -0.0 1.0
  outer loop
    vertex -5.354046623754426 2.7081700003256524 5.0
    vertex -5.022367329926141 -3.282655389054809 5.0
    vertex -4.470685935580612 4.001620579890318 5.0
  endloop
endfacet
facet normal -0.0 -0.0 1.0
  outer loop
    vertex -4.470685935580612 4.001620579890318 5.0
    vertex -5.022367329926141 -3.282655389054809 5.0
    vertex -4.651392596760863 -0.2575222129736173 5.0
  endloop
endfacet
facet normal -0.0 -0.0 1.0
  outer loop
    vertex -4.470685935580612 4.001620579890318 5.0
    vertex -4.651392596760863 -0.2575222129736173 5.0
    vertex -4.559551890675612 0.9551216339362587 5.0
  endloop
endfacet
facet normal -0.0 -0.0 1.0
  outer loop
    vertex -4.470685935580612 4.001620579890318 5.0
    vertex -4.559551890675612 0.9551216339362587 5.0
    vertex -4.156985258256582 2.1026755199065024 5.0
  endloop
endfacet
facet normal -0.0 -0.0 1.0
  outer loop
    vertex -4.470685935580612 4.001620579890318 5.0
    vertex -4.156985258256582 2.1026755199065024 5.0
    vertex -3.282655389054811 5.022367329926139 5.0
  endloop
endfacet
facet normal -0.0 -0.0 1.0
  outer loop
    vertex -3.282655389054811 5.022367329926139 5.0
    vertex -4.156985258256582 2.1026755199065024 5.0
    vertex -3.471126950230318 3.1069355440307085 5.0
  endloop
endfacet
facet normal -0.0 -0.0 1.0
  outer loop
    vertex -3.282655389054811 5.022367329926139 5.0
    vertex -3.471126950230318 3.1069355440307085 5.0
    vertex -2.54871707685437 3.8994630452829684 5.0
  endloop
endfacet
facet normal -0.0 -0.0 1.0
  outer loop
    vertex -3.282655389054811 5.022367329926139 5.0
    vertex -2.54871707685437 3.8994630452829684 5.0
    vertex -1.8709173026094519 5.700848046281937 5.0
  endloop
endfacet
facet normal -0.0 -0.0 1.0
  outer loop
    vertex -1.8709173026094519 5.700848046281937 5.0
    vertex -2.54871707685437 3.8994630452829684 5.0
    vertex -1.4526163466449116 4.426248584166573 5.0
  endloop
endfacet
facet normal -0.0 -0.0 1.0
  outer loop
    vertex -1.8709173026094519 5.700848046281937 5.0
    vertex -1.4526163466449116 4.426248584166573 5.0
    vertex -0.33167929382828737 5.990825389380462 5.0
  endloop
endfacet
facet normal -0.0 -0.0 1.0
  outer loop
    vertex -0.33167929382828737 5.990825389380462 5.0
    vertex -1.4526163466449116 4.426248584166573 5.0
    vertex -0.25752221297362016 4.651392596760863 5.0
  endloop
endfacet
facet normal -0.0 -0.0 1.0
  outer loop
    vertex -0.33167929382828737 5.990825389380462 5.0
    vertex -0.25752221297362016 4.651392596760863 5.0
    vertex 1.2301621107013254 5.872537882499769 5.0
  endloop
endfacet
facet normal -0.0 -0.0 1.0
  outer loop
    vertex 1.2301621107013254 5.872537882499769 5.0
    vertex -0.25752221297362016 4.651392596760863 5.0
    vertex 0.9551216339362445 4.559551890675612 5.0
  endloop
endfacet
facet normal -0.0 -0.0 1.0
  outer loop
    vertex 1.2301621107013254 5.872537882499769 5.0
    vertex 0.9551216339362445 4.559551890675612 5.0
    vertex 2.1026755199064926 4.156985258256584 5.0
  endloop
endfacet
facet normal -0.0 -0.0 1.0
  outer loop
    vertex 1.2301621107013254 5.872537882499769 5.0
    vertex 2.1026755199064926 4.156985258256584 5.0
    vertex 2.7081700003256515 5.354046623754425 5.0
  endloop
endfacet
facet normal -0.0 -0.0 1.0
  outer loop
    vertex 2.7081700003256515 5.354046623754425 5.0
    vertex 2.1026755199064926 4.156985258256584 5.0
    vertex 3.1069355440307116 3.471126950230313 5.0
  endloop
endfacet
facet normal -0.0 -0.0 1.0
  outer loop
    vertex 2.7081700003256515 5.354046623754425 5.0
    vertex 3.1069355440307116 3.471126950230313 5.0
    vertex 4.001620579890321 4.470685935580608 5.0
  endloop
endfacet
facet normal -0.0 -0.0 1.0
  outer loop
    vertex 4.001620579890321 4.470685935580608 5.0
    vertex 3.1069355440307116 3.471126950230313 5.0
    vertex 3.8994630452829684 2.5487170768543685 5.0
  endloop
endfacet
facet normal -0.0 -0.0 1.0
  outer loop
    vertex 4.001620579890321 4.470685935580608 5.0
    vertex 3.8994630452829684 2.5487170768543685 5.0
    vertex 4.426248584166577 1.4526163466449058 5.0
  endloop
endfacet
facet normal -0.0 -0.0 1.0
  outer loop
    vertex 4.001620579890321 4.470685935580608 5.0
    vertex 4.426248584166577 1.4526163466449058 5.0
    vertex 5.022367329926141 3.2826553890548085 5.0
  endloop
endfacet
facet normal -0.0 -0.0 1.0
  outer loop
    vertex 5.022367329926141 3.2826553890548085 5.0
    vertex 4.426248584166577 1.4526163466449058 5.0
    vertex 4.651392596760865 0.25752221297361133 5.0
  endloop
endfacet
facet normal 0.9827133687378958 0.18513355963686431 0.0
  outer loop
    vertex 5.700848046281939 1.8709173026094497 0.0
    vertex 5.990825389380464 0.3316792938282821 5.0
    vertex 5.990825389380464 0.3316792938282821 0.0
  endloop
endfacet
facet normal 0.9827133687378958 0.18513355963686431 0.0
  outer loop
    vertex 5.990825389380464 0.3316792938282821 5.0
    vertex 5.700848046281939 1.8709173026094497 0.0
    vertex 5.700848046281939 1.8709173026094497 5.0
  endloop
endfacet
facet normal 0.18513355963686443 -0.9827133687378958 0.0
  outer loop
    vertex 1.870917302609449 -5.700848046281938 5.0
    vertex 0.3316792938282859 -5.990825389380462 0.0
    vertex 1.870917302609449 -5.700848046281938 0.0
  endloop
endfacet
facet normal 0.18513355963686443 -0.9827133687378958 0.0
  outer loop
    vertex 0.3316792938282859 -5.990825389380462 0.0
    vertex 1.870917302609449 -5.700848046281938 5.0
    vertex 0.3316792938282859 -5.990825389380462 5.0
  endloop
endfacet
facet normal -0.7584879621471696 -0.6516870501075144 -0.0
  outer loop
    vertex -5.022367329926141 -3.282655389054809 5.0
    vertex -4.001620579890318 -4.47068593558061 0.0
    vertex -4.001620579890318 -4.47068593558061 5.0
  endloop
endfacet
facet normal -0.7584879621471696 -0.6516870501075144 -0.0
  outer loop
    vertex -4.001620579890318 -4.47068593558061 0.0
    vertex -5.022367329926141 -3.282655389054809 5.0
    vertex -5.022367329926141 -3.282655389054809 0.0
  endloop
endfacet
facet normal -0.3310263186303815 -0.9436215217840347 -0.0
  outer loop
    vertex -1.2301621107013274 -5.872537882499767 5.0
    vertex -2.7081700003256524 -5.354046623754425 0.0
    vertex -1.2301621107013274 -5.872537882499767 0.0
  endloop
endfacet
facet normal -0.3310263186303815 -0.9436215217840347 -0.0
  outer loop
    vertex -2.7081700003256524 -5.354046623754425 0.0
    vertex -1.2301621107013274 -5.872537882499767 5.0
    vertex -2.7081700003256524 -5.354046623754425 5.0
  endloop
endfacet
facet normal 0.07551964914014808 0.9971443138251098 0.0
  outer loop
    vertex -0.33167929382828737 5.990825389380462 5.0
    vertex 1.2301621107013254 5.872537882499769 0.0
    vertex -0.33167929382828737 5.990825389380462 0.0
  endloop
endfacet
facet normal 0.07551964914014808 0.9971443138251098 0.0
  outer loop
    vertex 1.2301621107013254 5.872537882499769 0.0
    vertex -0.33167929382828737 5.990825389380462 5.0
    vertex 1.2301621107013254 5.872537882499769 5.0
  endloop
endfacet
facet normal 0.33102631863038207 0.9436215217840345 0.0
  outer loop
    vertex 1.2301621107013254 5.872537882499769 5.0
    vertex 2.7081700003256515 5.354046623754425 0.0
    vertex 1.2301621107013254 5.872537882499769 0.0
  endloop
endfacet
facet normal 0.33102631863038207 0.9436215217840345 0.0
  outer loop
    vertex 2.7081700003256515 5.354046623754425 0.0
    vertex 1.2301621107013254 5.872537882499769 5.0
    vertex 2.7081700003256515 5.354046623754425 5.0
  endloop
endfacet
facet normal 0.9013121315818219 0.4331702222722988 0.0
  outer loop
    vertex 5.022367329926141 3.2826553890548085 0.0
    vertex 5.700848046281939 1.8709173026094497 5.0
    vertex 5.700848046281939 1.8709173026094497 0.0
  endloop
endfacet
facet normal 0.9013121315818219 0.4331702222722988 0.0
  outer loop
    vertex 5.700848046281939 1.8709173026094497 5.0
    vertex 5.022367329926141 3.2826553890548085 0.0
    vertex 5.022367329926141 3.2826553890548085 5.0
  endloop
endfacet
facet normal -0.8257924824416736 0.5639740915528111 0.0
  outer loop
    vertex -4.470685935580612 4.001620579890318 5.0
    vertex -5.354046623754426 2.7081700003256524 0.0
    vertex -5.354046623754426 2.7081700003256524 5.0
  endloop
endfacet
facet normal -0.8257924824416736 0.5639740915528111 0.0
  outer loop
    vertex -5.354046623754426 2.7081700003256524 0.0
    vertex -4.470685935580612 4.001620579890318 5.0
    vertex -4.470685935580612 4.001620579890318 0.0
  endloop
endfacet
facet normal -0.5639740915528114 -0.8257924824416734 -0.0
  outer loop
    vertex -2.7081700003256524 -5.354046623754425 5.0
    vertex -4.001620579890318 -4.47068593558061 0.0
    vertex -2.7081700003256524 -5.354046623754425 0.0
  endloop
endfacet
facet normal -0.5639740915528114 -0.8257924824416734 -0.0
  outer loop
    vertex -4.001620579890318 -4.47068593558061 0.0
    vertex -2.7081700003256524 -5.354046623754425 5.0
    vertex -4.001620579890318 -4.47068593558061 5.0
  endloop
endfacet
facet normal -0.9971443138251098 0.07551964914014767 0.0
  outer loop
    vertex -5.87253788249977 1.2301621107013267 5.0
    vertex -5.990825389380462 -0.33167929382828526 0.0
    vertex -5.990825389380462 -0.33167929382828526 5.0
  endloop
endfacet
facet normal -0.9971443138251098 0.07551964914014767 0.0
  outer loop
    vertex -5.990825389380462 -0.33167929382828526 0.0
    vertex -5.87253788249977 1.2301621107013267 5.0
    vertex -5.87253788249977 1.2301621107013267 0.0
  endloop
endfacet
facet normal 0.9436215217840345 -0.331026318630382 0.0
  outer loop
    vertex 5.872537882499769 -1.2301621107013287 0.0
    vertex 5.354046623754426 -2.708170000325653 5.0
    vertex 5.354046623754426 -2.708170000325653 0.0
  endloop
endfacet
facet normal 0.9436215217840345 -0.331026318630382 0.0
  outer loop
    vertex 5.354046623754426 -2.708170000325653 5.0
    vertex 5.872537882499769 -1.2301621107013287 0.0
    vertex 5.872537882499769 -1.2301621107013287 5.0
  endloop
endfacet
facet normal -0.6516870501075138 0.75848796214717 0.0
  outer loop
    vertex -4.470685935580612 4.001620579890318 5.0
    vertex -3.282655389054811 5.022367329926139 0.0
    vertex -4.470685935580612 4.001620579890318 0.0
  endloop
endfacet
facet normal -0.6516870501075138 0.75848796214717 0.0
  outer loop
    vertex -3.282655389054811 5.022367329926139 0.0
    vertex -4.470685935580612 4.001620579890318 5.0
    vertex -3.282655389054811 5.022367329926139 5.0
  endloop
endfacet
facet normal 0.6516870501075136 -0.7584879621471704 0.0
  outer loop
    vertex 4.47068593558061 -4.001620579890321 5.0
    vertex 3.28265538905481 -5.022367329926141 0.0
    vertex 4.47068593558061 -4.001620579890321 0.0
  endloop
endfacet
facet normal 0.6516870501075136 -0.7584879621471704 0.0
  outer loop
    vertex 3.28265538905481 -5.022367329926141 0.0
    vertex 4.47068593558061 -4.001620579890321 5.0
    vertex 3.28265538905481 -5.022367329926141 5.0
  endloop
endfacet
facet normal -0.07551964914014894 -0.9971443138251097 -0.0
  outer loop
    vertex 0.3316792938282859 -5.990825389380462 5.0
    vertex -1.2301621107013274 -5.872537882499767 0.0
    vertex 0.3316792938282859 -5.990825389380462 0.0
  endloop
endfacet
facet normal -0.07551964914014894 -0.9971443138251097 -0.0
  outer loop
    vertex -1.2301621107013274 -5.872537882499767 0.0
    vertex 0.3316792938282859 -5.990825389380462 5.0
    vertex -1.2301621107013274 -5.872537882499767 5.0
  endloop
endfacet
facet normal 0.7584879621471704 0.6516870501075136 0.0
  outer loop
    vertex 4.001620579890321 4.470685935580608 0.0
    vertex 5.022367329926141 3.2826553890548085 5.0
    vertex 5.022367329926141 3.2826553890548085 0.0
  endloop
endfacet
facet normal 0.7584879621471704 0.6516870501075136 0.0
  outer loop
    vertex 5.022367329926141 3.2826553890548085 5.0
    vertex 4.001620579890321 4.470685935580608 0.0
    vertex 4.001620579890321 4.470685935580608 5.0
  endloop
endfacet
facet normal 0.4331702222722979 -0.9013121315818222 0.0
  outer loop
    vertex 3.28265538905481 -5.022367329926141 5.0
    vertex 1.870917302609449 -5.700848046281938 0.0
    vertex 3.28265538905481 -5.022367329926141 0.0
  endloop
endfacet
facet normal 0.4331702222722979 -0.9013121315818222 0.0
  outer loop
    vertex 1.870917302609449 -5.700848046281938 0.0
    vertex 3.28265538905481 -5.022367329926141 5.0
    vertex 1.870917302609449 -5.700848046281938 5.0
  endloop
endfacet
facet normal -0.4331702222722986 0.9013121315818219 0.0
  outer loop
    vertex -3.282655389054811 5.022367329926139 5.0
    vertex -1.8709173026094519 5.700848046281937 0.0
    vertex -3.282655389054811 5.022367329926139 0.0
  endloop
endfacet
facet normal -0.4331702222722986 0.9013121315818219 0.0
  outer loop
    vertex -1.8709173026094519 5.700848046281937 0.0
    vertex -3.282655389054811 5.022367329926139 5.0
    vertex -1.8709173026094519 5.700848046281937 5.0
  endloop
endfacet
facet normal 0.0 0.0 1.0
  outer loop
    vertex -1.989231314708825 -0.5330129243349316 5.5
    vertex -1.9892313147088256 0.533012924334929 5.5
    vertex -2.059403797443881 1.0574874309554614e-15 5.5
  endloop
endfacet
facet normal 0.0 0.0 1.0
  outer loop
    vertex -1.9892313147088256 0.533012924334929 5.5
    vertex -1.989231314708825 -0.5330129243349316 5.5
    vertex -1.7834960052365443 1.0297018987219382 5.5
  endloop
endfacet
facet normal 0.0 0.0 1.0
  outer loop
    vertex -1.7834960052365443 1.0297018987219382 5.5
    vertex -1.989231314708825 -0.5330129243349316 5.5
    vertex -1.7834960052365425 -1.0297018987219413 5.5
  endloop
endfacet
facet normal 0.0 0.0 1.0
  outer loop
    vertex -1.7834960052365443 1.0297018987219382 5.5
    vertex -1.7834960052365425 -1.0297018987219413 5.5
    vertex -1.4562183903738954 1.4562183903738952 5.5
  endloop
endfacet
facet normal 0.0 0.0 1.0
  outer loop
    vertex -1.4562183903738954 1.4562183903738952 5.5
    vertex -1.7834960052365425 -1.0297018987219413 5.5
    vertex -1.4562183903738968 -1.456218390373894 5.5
  endloop
endfacet
facet normal 0.0 0.0 1.0
  outer loop
    vertex -1.4562183903738954 1.4562183903738952 5.5
    vertex -1.4562183903738968 -1.456218390373894 5.5
    vertex -1.0297018987219415 -1.7834960052365427 5.5
  endloop
endfacet
facet normal 0.0 0.0 1.0
  outer loop
    vertex -1.4562183903738954 1.4562183903738952 5.5
    vertex -1.0297018987219415 -1.7834960052365427 5.5
    vertex -1.0972409576612485 1.4320142294188542e-16 5.5
  endloop
endfacet
facet normal 0.0 0.0 1.0
  outer loop
    vertex -1.0972409576612485 1.4320142294188542e-16 5.5
    vertex -1.0297018987219415 -1.7834960052365427 5.5
    vertex -1.0598533786671507 -0.28398685690925823 5.5
  endloop
endfacet
facet normal 0.0 0.0 1.0
  outer loop
    vertex -1.0598533786671507 -0.28398685690925823 5.5
    vertex -1.0297018987219415 -1.7834960052365427 5.5
    vertex -0.9502385434074065 -0.5486204788306243 5.5
  endloop
endfacet
facet normal 0.0 0.0 1.0
  outer loop
    vertex -0.9502385434074065 -0.5486204788306243 5.5
    vertex -1.0297018987219415 -1.7834960052365427 5.5
    vertex -0.5330129243349303 -1.9892313147088256 5.5
  endloop
endfacet
facet normal 0.0 0.0 1.0
  outer loop
    vertex -0.9502385434074065 -0.5486204788306243 5.5
    vertex -0.5330129243349303 -1.9892313147088256 5.5
    vertex -0.7758665217578905 -0.7758665217578898 5.5
  endloop
endfacet
facet normal 0.0 0.0 1.0
  outer loop
    vertex -0.7758665217578905 -0.7758665217578898 5.5
    vertex -0.5330129243349303 -1.9892313147088256 5.5
    vertex -0.548620478830625 -0.9502385434074063 5.5
  endloop
endfacet
facet normal 0.0 0.0 1.0
  outer loop
    vertex -0.548620478830625 -0.9502385434074063 5.5
    vertex -0.5330129243349303 -1.9892313147088256 5.5
    vertex -0.28398685690926034 -1.0598533786671498 5.5
  endloop
endfacet
facet normal 0.0 0.0 1.0
  outer loop
    vertex -0.28398685690926034 -1.0598533786671498 5.5
    vertex -0.5330129243349303 -1.9892313147088256 5.5
    vertex -1.3218592886943268e-16 -2.059403797443881 5.5
  endloop
endfacet
facet normal 0.0 0.0 1.0
  outer loop
    vertex -0.28398685690926034 -1.0598533786671498 5.5
    vertex -1.3218592886943268e-16 -2.059403797443881 5.5
    vertex 6.38898656202258e-16 -1.0972409576612483 5.5
  endloop
endfacet
facet normal 0.0 0.0 1.0
  outer loop
    vertex 6.38898656202258e-16 -1.0972409576612483 5.5
    vertex -1.3218592886943268e-16 -2.059403797443881 5.5
    vertex 0.533012924334932 -1.989231314708825 5.5
  endloop
endfacet
facet normal 0.0 0.0 1.0
  outer loop
    vertex 6.38898656202258e-16 -1.0972409576612483 5.5
    vertex 0.533012924334932 -1.989231314708825 5.5
    vertex 0.28398685690925823 -1.0598533786671505 5.5
  endloop
endfacet
facet normal 0.0 0.0 1.0
  outer loop
    vertex 0.28398685690925823 -1.0598533786671505 5.5
    vertex 0.533012924334932 -1.989231314708825 5.5
    vertex 0.5486204788306236 -0.950238543407407 5.5
  endloop
endfacet
facet normal 0.0 0.0 1.0
  outer loop
    vertex 0.5486204788306236 -0.950238543407407 5.5
    vertex 0.533012924334932 -1.989231314708825 5.5
    vertex 1.0297018987219395 -1.7834960052365438 5.5
  endloop
endfacet
facet normal 0.0 0.0 1.0
  outer loop
    vertex 0.5486204788306236 -0.950238543407407 5.5
    vertex 1.0297018987219395 -1.7834960052365438 5.5
    vertex 0.7758665217578911 -0.7758665217578891 5.5
  endloop
endfacet
facet normal 0.0 0.0 1.0
  outer loop
    vertex 0.7758665217578911 -0.7758665217578891 5.5
    vertex 1.0297018987219395 -1.7834960052365438 5.5
    vertex 0.9502385434074058 -0.5486204788306261 5.5
  endloop
endfacet
facet normal 0.0 0.0 1.0
  outer loop
    vertex 0.9502385434074058 -0.5486204788306261 5.5
    vertex 1.0297018987219395 -1.7834960052365438 5.5
    vertex 1.0598533786671498 -0.28398685690925907 5.5
  endloop
endfacet
facet normal 0.0 0.0 1.0
  outer loop
    vertex 1.0598533786671498 -0.28398685690925907 5.5
    vertex 1.0297018987219395 -1.7834960052365438 5.5
    vertex 1.456218390373895 -1.4562183903738954 5.5
  endloop
endfacet
facet normal 0.0 0.0 1.0
  outer loop
    vertex 1.0598533786671498 -0.28398685690925907 5.5
    vertex 1.456218390373895 -1.4562183903738954 5.5
    vertex 1.0972409576612483 1.1015494072452725e-16 5.5
  endloop
endfacet
facet normal 0.0 0.0 1.0
  outer loop
    vertex -1.0972409576612485 1.4320142294188542e-16 5.5
    vertex -1.029701898721938 1.783496005236545 5.5
    vertex -1.4562183903738954 1.4562183903738952 5.5
  endloop
endfacet
facet normal 0.0 0.0 1.0
  outer loop
    vertex -1.029701898721938 1.783496005236545 5.5
    vertex -1.0972409576612485 1.4320142294188542e-16 5.5
    vertex -1.0598533786671498 0.28398685690925973 5.5
  endloop
endfacet
facet normal 0.0 0.0 1.0
  outer loop
    vertex -1.029701898721938 1.783496005236545 5.5
    vertex -1.0598533786671498 0.28398685690925973 5.5
    vertex -0.9502385434074067 0.5486204788306244 5.5
  endloop
endfacet
facet normal 0.0 0.0 1.0
  outer loop
    vertex -1.029701898721938 1.783496005236545 5.5
    vertex -0.9502385434074067 0.5486204788306244 5.5
    vertex -0.5330129243349316 1.9892313147088254 5.5
  endloop
endfacet
facet normal 0.0 0.0 1.0
  outer loop
    vertex -0.5330129243349316 1.9892313147088254 5.5
    vertex -0.9502385434074067 0.5486204788306244 5.5
    vertex -0.7758665217578903 0.7758665217578901 5.5
  endloop
endfacet
facet normal 0.0 0.0 1.0
  outer loop
    vertex -0.5330129243349316 1.9892313147088254 5.5
    vertex -0.7758665217578903 0.7758665217578901 5.5
    vertex -0.5486204788306227 0.9502385434074078 5.5
  endloop
endfacet
facet normal 0.0 0.0 1.0
  outer loop
    vertex -0.5330129243349316 1.9892313147088254 5.5
    vertex -0.5486204788306227 0.9502385434074078 5.5
    vertex -0.28398685690925957 1.05985337866715 5.5
  endloop
endfacet
facet normal 0.0 0.0 1.0
  outer loop
    vertex -0.5330129243349316 1.9892313147088254 5.5
    vertex -0.28398685690925957 1.05985337866715 5.5
    vertex 2.2471607907803557e-15 2.0594037974438812 5.5
  endloop
endfacet
facet normal 0.0 0.0 1.0
  outer loop
    vertex 2.2471607907803557e-15 2.0594037974438812 5.5
    vertex -0.28398685690925957 1.05985337866715 5.5
    vertex -8.37177549506407e-16 1.0972409576612483 5.5
  endloop
endfacet
facet normal 0.0 0.0 1.0
  outer loop
    vertex 2.2471607907803557e-15 2.0594037974438812 5.5
    vertex -8.37177549506407e-16 1.0972409576612483 5.5
    vertex 0.2839868569092607 1.0598533786671498 5.5
  endloop
endfacet
facet normal 0.0 0.0 1.0
  outer loop
    vertex 2.2471607907803557e-15 2.0594037974438812 5.5
    vertex 0.2839868569092607 1.0598533786671498 5.5
    vertex 0.5330129243349316 1.9892313147088254 5.5
  endloop
endfacet
facet normal 0.0 0.0 1.0
  outer loop
    vertex 0.5330129243349316 1.9892313147088254 5.5
    vertex 0.2839868569092607 1.0598533786671498 5.5
    vertex 0.5486204788306247 0.9502385434074065 5.5
  endloop
endfacet
facet normal 0.0 0.0 1.0
  outer loop
    vertex 0.5330129243349316 1.9892313147088254 5.5
    vertex 0.5486204788306247 0.9502385434074065 5.5
    vertex 1.0297018987219415 1.7834960052365425 5.5
  endloop
endfacet
facet normal 0.0 0.0 1.0
  outer loop
    vertex 1.0297018987219415 1.7834960052365425 5.5
    vertex 0.5486204788306247 0.9502385434074065 5.5
    vertex 0.7758665217578906 0.7758665217578898 5.5
  endloop
endfacet
facet normal 0.0 0.0 1.0
  outer loop
    vertex 1.0297018987219415 1.7834960052365425 5.5
    vertex 0.7758665217578906 0.7758665217578898 5.5
    vertex 0.9502385434074067 0.548620478830624 5.5
  endloop
endfacet
facet normal 0.0 0.0 1.0
  outer loop
    vertex 1.0297018987219415 1.7834960052365425 5.5
    vertex 0.9502385434074067 0.548620478830624 5.5
    vertex 1.0598533786671502 0.28398685690925835 5.5
  endloop
endfacet
facet normal 0.0 0.0 1.0
  outer loop
    vertex 1.0297018987219415 1.7834960052365425 5.5
    vertex 1.0598533786671502 0.28398685690925835 5.5
    vertex 1.4562183903738957 1.4562183903738946 5.5
  endloop
endfacet
facet normal 0.0 0.0 1.0
  outer loop
    vertex 1.4562183903738957 1.4562183903738946 5.5
    vertex 1.0598533786671502 0.28398685690925835 5.5
    vertex 1.0972409576612483 1.1015494072452725e-16 5.5
  endloop
endfacet
facet normal 0.0 0.0 1.0
  outer loop
    vertex 1.4562183903738957 1.4562183903738946 5.5
    vertex 1.0972409576612483 1.1015494072452725e-16 5.5
    vertex 1.456218390373895 -1.4562183903738954 5.5
  endloop
endfacet
facet normal 0.0 0.0 1.0
  outer loop
    vertex 1.4562183903738957 1.4562183903738946 5.5
    vertex 1.456218390373895 -1.4562183903738954 5.5
    vertex 1.7834960052365414 -1.029701898721944 5.5
  endloop
endfacet
facet normal 0.0 0.0 1.0
  outer loop
    vertex 1.4562183903738957 1.4562183903738946 5.5
    vertex 1.7834960052365414 -1.029701898721944 5.5
    vertex 1.7834960052365427 1.02970189872194 5.5
  endloop
endfacet
facet normal 0.0 0.0 1.0
  outer loop
    vertex 1.7834960052365427 1.02970189872194 5.5
    vertex 1.7834960052365414 -1.029701898721944 5.5
    vertex 1.989231314708825 -0.533012924334933 5.5
  endloop
endfacet
facet normal 0.0 0.0 1.0
  outer loop
    vertex 1.7834960052365427 1.02970189872194 5.5
    vertex 1.989231314708825 -0.533012924334933 5.5
    vertex 1.9892313147088256 0.5330129243349293 5.5
  endloop
endfacet
facet normal 0.0 0.0 1.0
  outer loop
    vertex 1.9892313147088256 0.5330129243349293 5.5
    vertex 1.989231314708825 -0.533012924334933 5.5
    vertex 2.059403797443881 -9.032705139411233e-16 5.5
  endloop
endfacet
facet normal -0.18513355963686506 0.9827133687378957 -0.0
  outer loop
    vertex 0.25752221297361505 -4.651392596760864 5.0
    vertex 1.4526163466449071 -4.426248584166574 2.5
    vertex 0.25752221297361505 -4.651392596760864 2.5
  endloop
endfacet
facet normal -0.18513355963686506 0.9827133687378957 -0.0
  outer loop
    vertex 1.4526163466449071 -4.426248584166574 2.5
    vertex 0.25752221297361505 -4.651392596760864 5.0
    vertex 1.4526163466449071 -4.426248584166574 5.0
  endloop
endfacet
facet normal -0.7933533402912358 -0.6087614290087201 -0.0
  outer loop
    vertex -1.7834960052365425 -1.0297018987219413 5.5
    vertex -1.4562183903738968 -1.456218390373894 2.5
    vertex -1.4562183903738968 -1.456218390373894 5.5
  endloop
endfacet
facet normal -0.7933533402912358 -0.6087614290087201 -0.0
  outer loop
    vertex -1.4562183903738968 -1.456218390373894 2.5
    vertex -1.7834960052365425 -1.0297018987219413 5.5
    vertex -1.7834960052365425 -1.0297018987219413 2.5
  endloop
endfacet
facet normal -0.1305261922200513 -0.9914448613738105 -0.0
  outer loop
    vertex -1.3218592886943268e-16 -2.059403797443881 5.5
    vertex -0.5330129243349303 -1.9892313147088256 2.5
    vertex -1.3218592886943268e-16 -2.059403797443881 2.5
  endloop
endfacet
facet normal -0.1305261922200513 -0.9914448613738105 -0.0
  outer loop
    vertex -0.5330129243349303 -1.9892313147088256 2.5
    vertex -1.3218592886943268e-16 -2.059403797443881 5.5
    vertex -0.5330129243349303 -1.9892313147088256 5.5
  endloop
endfacet
facet normal -0.9436215217840346 0.33102631863038157 -0.0
  outer loop
    vertex 4.559551890675612 -0.9551216339362532 5.0
    vertex 4.156985258256584 -2.102675519906496 2.5
    vertex 4.156985258256584 -2.102675519906496 5.0
  endloop
endfacet
facet normal -0.9436215217840346 0.33102631863038157 -0.0
  outer loop
    vertex 4.156985258256584 -2.102675519906496 2.5
    vertex 4.559551890675612 -0.9551216339362532 5.0
    vertex 4.559551890675612 -0.9551216339362532 2.5
  endloop
endfacet
facet normal -0.6087614290087204 0.7933533402912353 -0.0
  outer loop
    vertex -1.4562183903738954 1.4562183903738952 5.5
    vertex -1.029701898721938 1.783496005236545 2.5
    vertex -1.4562183903738954 1.4562183903738952 2.5
  endloop
endfacet
facet normal -0.6087614290087204 0.7933533402912353 -0.0
  outer loop
    vertex -1.029701898721938 1.783496005236545 2.5
    vertex -1.4562183903738954 1.4562183903738952 5.5
    vertex -1.029701898721938 1.783496005236545 5.5
  endloop
endfacet
facet normal 0.3826834323650906 0.9238795325112864 0.0
  outer loop
    vertex 0.5330129243349316 1.9892313147088254 5.5
    vertex 1.0297018987219415 1.7834960052365425 2.5
    vertex 0.5330129243349316 1.9892313147088254 2.5
  endloop
endfacet
facet normal 0.3826834323650906 0.9238795325112864 0.0
  outer loop
    vertex 1.0297018987219415 1.7834960052365425 2.5
    vertex 0.5330129243349316 1.9892313147088254 5.5
    vertex 1.0297018987219415 1.7834960052365425 5.5
  endloop
endfacet
facet normal 0.9914448613738104 -0.1305261922200521 -0.0
  outer loop
    vertex 2.059403797443881 -9.032705139411233e-16 2.5
    vertex 1.989231314708825 -0.533012924334933 5.5
    vertex 1.989231314708825 -0.533012924334933 2.5
  endloop
endfacet
facet normal 0.9914448613738104 -0.1305261922200521 -0.0
  outer loop
    vertex 1.989231314708825 -0.533012924334933 5.5
    vertex 2.059403797443881 -9.032705139411233e-16 2.5
    vertex 2.059403797443881 -9.032705139411233e-16 5.5
  endloop
endfacet
facet normal 0.9238795325112863 -0.3826834323650911 -0.0
  outer loop
    vertex 1.989231314708825 -0.533012924334933 2.5
    vertex 1.7834960052365414 -1.029701898721944 5.5
    vertex 1.7834960052365414 -1.029701898721944 2.5
  endloop
endfacet
facet normal 0.9238795325112863 -0.3826834323650911 -0.0
  outer loop
    vertex 1.7834960052365414 -1.029701898721944 5.5
    vertex 1.989231314708825 -0.533012924334933 2.5
    vertex 1.989231314708825 -0.533012924334933 5.5
  endloop
endfacet
facet normal 0.3310263186303798 0.9436215217840352 0.0
  outer loop
    vertex -2.1026755199065006 -4.156985258256581 5.0
    vertex -0.9551216339362464 -4.559551890675611 2.5
    vertex -2.1026755199065006 -4.156985258256581 2.5
  endloop
endfacet
facet normal 0.3310263186303798 0.9436215217840352 0.0
  outer loop
    vertex -0.9551216339362464 -4.559551890675611 2.5
    vertex -2.1026755199065006 -4.156985258256581 5.0
    vertex -0.9551216339362464 -4.559551890675611 5.0
  endloop
endfacet
facet normal -0.9914448613738104 -0.13052619222005196 -0.0
  outer loop
    vertex -2.059403797443881 1.0574874309554614e-15 5.5
    vertex -1.989231314708825 -0.5330129243349316 2.5
    vertex -1.989231314708825 -0.5330129243349316 5.5
  endloop
endfacet
facet normal -0.9914448613738104 -0.13052619222005196 -0.0
  outer loop
    vertex -1.989231314708825 -0.5330129243349316 2.5
    vertex -2.059403797443881 1.0574874309554614e-15 5.5
    vertex -2.059403797443881 1.0574874309554614e-15 2.5
  endloop
endfacet
facet normal 0.6087614290087212 0.7933533402912347 0.0
  outer loop
    vertex 1.0297018987219415 1.7834960052365425 5.5
    vertex 1.4562183903738957 1.4562183903738946 2.5
    vertex 1.0297018987219415 1.7834960052365425 2.5
  endloop
endfacet
facet normal 0.6087614290087212 0.7933533402912347 0.0
  outer loop
    vertex 1.4562183903738957 1.4562183903738946 2.5
    vertex 1.0297018987219415 1.7834960052365425 5.5
    vertex 1.4562183903738957 1.4562183903738946 5.5
  endloop
endfacet
facet normal 0.1305261922200521 -0.9914448613738104 -0.0
  outer loop
    vertex 0.533012924334932 -1.989231314708825 5.5
    vertex -1.3218592886943268e-16 -2.059403797443881 2.5
    vertex 0.533012924334932 -1.989231314708825 2.5
  endloop
endfacet
facet normal 0.1305261922200521 -0.9914448613738104 -0.0
  outer loop
    vertex -1.3218592886943268e-16 -2.059403797443881 2.5
    vertex 0.533012924334932 -1.989231314708825 5.5
    vertex -1.3218592886943268e-16 -2.059403797443881 5.5
  endloop
endfacet
facet normal -0.6516870501075125 0.7584879621471713 -0.0
  outer loop
    vertex 2.5487170768543685 -3.8994630452829697 5.0
    vertex 3.4711269502303157 -3.106935544030711 2.5
    vertex 2.5487170768543685 -3.8994630452829697 2.5
  endloop
endfacet
facet normal -0.6516870501075125 0.7584879621471713 -0.0
  outer loop
    vertex 3.4711269502303157 -3.106935544030711 2.5
    vertex 2.5487170768543685 -3.8994630452829697 5.0
    vertex 3.4711269502303157 -3.106935544030711 5.0
  endloop
endfacet
facet normal -0.758487962147171 -0.6516870501075128 -0.0
  outer loop
    vertex 3.1069355440307116 3.471126950230313 5.0
    vertex 3.8994630452829684 2.5487170768543685 2.5
    vertex 3.8994630452829684 2.5487170768543685 5.0
  endloop
endfacet
facet normal -0.758487962147171 -0.6516870501075128 -0.0
  outer loop
    vertex 3.8994630452829684 2.5487170768543685 2.5
    vertex 3.1069355440307116 3.471126950230313 5.0
    vertex 3.1069355440307116 3.471126950230313 2.5
  endloop
endfacet
facet normal 0.7584879621471691 0.651687050107515 0.0
  outer loop
    vertex -3.8994630452829737 -2.5487170768543628 2.5
    vertex -3.1069355440307014 -3.47112695023032 5.0
    vertex -3.1069355440307014 -3.47112695023032 2.5
  endloop
endfacet
facet normal 0.7584879621471691 0.651687050107515 0.0
  outer loop
    vertex -3.1069355440307014 -3.47112695023032 5.0
    vertex -3.8994630452829737 -2.5487170768543628 2.5
    vertex -3.8994630452829737 -2.5487170768543628 5.0
  endloop
endfacet
facet normal 0.43317022227229945 -0.9013121315818216 -0.0
  outer loop
    vertex -1.4526163466449116 4.426248584166573 5.0
    vertex -2.54871707685437 3.8994630452829684 2.5
    vertex -1.4526163466449116 4.426248584166573 2.5
  endloop
endfacet
facet normal 0.43317022227229945 -0.9013121315818216 -0.0
  outer loop
    vertex -2.54871707685437 3.8994630452829684 2.5
    vertex -1.4526163466449116 4.426248584166573 5.0
    vertex -2.54871707685437 3.8994630452829684 5.0
  endloop
endfacet
facet normal 0.9827133687378959 0.18513355963686473 0.0
  outer loop
    vertex -4.651392596760863 -0.2575222129736173 2.5
    vertex -4.426248584166573 -1.452616346644912 5.0
    vertex -4.426248584166573 -1.452616346644912 2.5
  endloop
endfacet
facet normal 0.9827133687378959 0.18513355963686473 0.0
  outer loop
    vertex -4.426248584166573 -1.452616346644912 5.0
    vertex -4.651392596760863 -0.2575222129736173 2.5
    vertex -4.651392596760863 -0.2575222129736173 5.0
  endloop
endfacet
facet normal 0.5639740915528121 0.8257924824416729 0.0
  outer loop
    vertex -3.1069355440307014 -3.47112695023032 5.0
    vertex -2.1026755199065006 -4.156985258256581 2.5
    vertex -3.1069355440307014 -3.47112695023032 2.5
  endloop
endfacet
facet normal 0.5639740915528121 0.8257924824416729 0.0
  outer loop
    vertex -2.1026755199065006 -4.156985258256581 2.5
    vertex -3.1069355440307014 -3.47112695023032 5.0
    vertex -2.1026755199065006 -4.156985258256581 5.0
  endloop
endfacet
facet normal 0.18513355963686523 -0.9827133687378956 -0.0
  outer loop
    vertex -0.25752221297362016 4.651392596760863 5.0
    vertex -1.4526163466449116 4.426248584166573 2.5
    vertex -0.25752221297362016 4.651392596760863 2.5
  endloop
endfacet
facet normal 0.18513355963686523 -0.9827133687378956 -0.0
  outer loop
    vertex -1.4526163466449116 4.426248584166573 2.5
    vertex -0.25752221297362016 4.651392596760863 5.0
    vertex -1.4526163466449116 4.426248584166573 5.0
  endloop
endfacet
facet normal 0.6516870501075128 -0.7584879621471711 -0.0
  outer loop
    vertex -2.54871707685437 3.8994630452829684 5.0
    vertex -3.471126950230318 3.1069355440307085 2.5
    vertex -2.54871707685437 3.8994630452829684 2.5
  endloop
endfacet
facet normal 0.6516870501075128 -0.7584879621471711 -0.0
  outer loop
    vertex -3.471126950230318 3.1069355440307085 2.5
    vertex -2.54871707685437 3.8994630452829684 5.0
    vertex -3.471126950230318 3.1069355440307085 5.0
  endloop
endfacet
facet normal -0.38268343236508984 -0.9238795325112867 -0.0
  outer loop
    vertex -0.5330129243349303 -1.9892313147088256 5.5
    vertex -1.0297018987219415 -1.7834960052365427 2.5
    vertex -0.5330129243349303 -1.9892313147088256 2.5
  endloop
endfacet
facet normal -0.38268343236508984 -0.9238795325112867 -0.0
  outer loop
    vertex -1.0297018987219415 -1.7834960052365427 2.5
    vertex -0.5330129243349303 -1.9892313147088256 5.5
    vertex -1.0297018987219415 -1.7834960052365427 5.5
  endloop
endfacet
facet normal 0.7933533402912357 0.6087614290087199 0.0
  outer loop
    vertex 1.4562183903738957 1.4562183903738946 2.5
    vertex 1.7834960052365427 1.02970189872194 5.5
    vertex 1.7834960052365427 1.02970189872194 2.5
  endloop
endfacet
facet normal 0.7933533402912357 0.6087614290087199 0.0
  outer loop
    vertex 1.7834960052365427 1.02970189872194 5.5
    vertex 1.4562183903738957 1.4562183903738946 2.5
    vertex 1.4562183903738957 1.4562183903738946 5.5
  endloop
endfacet
facet normal -0.4331702222722979 0.9013121315818222 -0.0
  outer loop
    vertex 1.4526163466449071 -4.426248584166574 5.0
    vertex 2.5487170768543685 -3.8994630452829697 2.5
    vertex 1.4526163466449071 -4.426248584166574 2.5
  endloop
endfacet
facet normal -0.4331702222722979 0.9013121315818222 -0.0
  outer loop
    vertex 2.5487170768543685 -3.8994630452829697 2.5
    vertex 1.4526163466449071 -4.426248584166574 5.0
    vertex 2.5487170768543685 -3.8994630452829697 5.0
  endloop
endfacet
facet normal 0.8257924824416729 -0.563974091552812 -0.0
  outer loop
    vertex -3.471126950230318 3.1069355440307085 2.5
    vertex -4.156985258256582 2.1026755199065024 5.0
    vertex -4.156985258256582 2.1026755199065024 2.5
  endloop
endfacet
facet normal 0.8257924824416729 -0.563974091552812 -0.0
  outer loop
    vertex -4.156985258256582 2.1026755199065024 5.0
    vertex -3.471126950230318 3.1069355440307085 2.5
    vertex -3.471126950230318 3.1069355440307085 5.0
  endloop
endfacet
facet normal -0.9238795325112873 0.38268343236508895 -0.0
  outer loop
    vertex -1.7834960052365443 1.0297018987219382 5.5
    vertex -1.9892313147088256 0.533012924334929 2.5
    vertex -1.9892313147088256 0.533012924334929 5.5
  endloop
endfacet
facet normal -0.9238795325112873 0.38268343236508895 -0.0
  outer loop
    vertex -1.9892313147088256 0.533012924334929 2.5
    vertex -1.7834960052365443 1.0297018987219382 5.5
    vertex -1.7834960052365443 1.0297018987219382 2.5
  endloop
endfacet
facet normal -0.6087614290087213 -0.7933533402912346 -0.0
  outer loop
    vertex -1.0297018987219415 -1.7834960052365427 5.5
    vertex -1.4562183903738968 -1.456218390373894 2.5
    vertex -1.0297018987219415 -1.7834960052365427 2.5
  endloop
endfacet
facet normal -0.6087614290087213 -0.7933533402912346 -0.0
  outer loop
    vertex -1.4562183903738968 -1.456218390373894 2.5
    vertex -1.0297018987219415 -1.7834960052365427 5.5
    vertex -1.4562183903738968 -1.456218390373894 5.5
  endloop
endfacet
facet normal -0.8257924824416738 0.5639740915528105 -0.0
  outer loop
    vertex 4.156985258256584 -2.102675519906496 5.0
    vertex 3.4711269502303157 -3.106935544030711 2.5
    vertex 3.4711269502303157 -3.106935544030711 5.0
  endloop
endfacet
facet normal -0.8257924824416738 0.5639740915528105 -0.0
  outer loop
    vertex 3.4711269502303157 -3.106935544030711 2.5
    vertex 4.156985258256584 -2.102675519906496 5.0
    vertex 4.156985258256584 -2.102675519906496 2.5
  endloop
endfacet
facet normal -0.9914448613738104 0.13052619222005185 -0.0
  outer loop
    vertex -1.9892313147088256 0.533012924334929 5.5
    vertex -2.059403797443881 1.0574874309554614e-15 2.5
    vertex -2.059403797443881 1.0574874309554614e-15 5.5
  endloop
endfacet
facet normal -0.9914448613738104 0.13052619222005185 -0.0
  outer loop
    vertex -2.059403797443881 1.0574874309554614e-15 2.5
    vertex -1.9892313147088256 0.533012924334929 5.5
    vertex -1.9892313147088256 0.533012924334929 2.5
  endloop
endfacet
facet normal -0.07551964914014686 -0.9971443138251098 -0.0
  outer loop
    vertex 0.9551216339362445 4.559551890675612 5.0
    vertex -0.25752221297362016 4.651392596760863 2.5
    vertex 0.9551216339362445 4.559551890675612 2.5
  endloop
endfacet
facet normal -0.07551964914014686 -0.9971443138251098 -0.0
  outer loop
    vertex -0.25752221297362016 4.651392596760863 2.5
    vertex 0.9551216339362445 4.559551890675612 5.0
    vertex -0.25752221297362016 4.651392596760863 5.0
  endloop
endfacet
facet normal 0.6087614290087208 -0.793353340291235 -0.0
  outer loop
    vertex 1.456218390373895 -1.4562183903738954 5.5
    vertex 1.0297018987219395 -1.7834960052365438 2.5
    vertex 1.456218390373895 -1.4562183903738954 2.5
  endloop
endfacet
facet normal 0.6087614290087208 -0.793353340291235 -0.0
  outer loop
    vertex 1.0297018987219395 -1.7834960052365438 2.5
    vertex 1.456218390373895 -1.4562183903738954 5.5
    vertex 1.0297018987219395 -1.7834960052365438 5.5
  endloop
endfacet
facet normal 0.07551964914014879 0.9971443138251098 0.0
  outer loop
    vertex -0.9551216339362464 -4.559551890675611 5.0
    vertex 0.25752221297361505 -4.651392596760864 2.5
    vertex -0.9551216339362464 -4.559551890675611 2.5
  endloop
endfacet
facet normal 0.07551964914014879 0.9971443138251098 0.0
  outer loop
    vertex 0.25752221297361505 -4.651392596760864 2.5
    vertex -0.9551216339362464 -4.559551890675611 5.0
    vertex 0.25752221297361505 -4.651392596760864 5.0
  endloop
endfacet
facet normal -0.13052619222005168 0.9914448613738104 -0.0
  outer loop
    vertex -0.5330129243349316 1.9892313147088254 5.5
    vertex 2.2471607907803557e-15 2.0594037974438812 2.5
    vertex -0.5330129243349316 1.9892313147088254 2.5
  endloop
endfacet
facet normal -0.13052619222005168 0.9914448613738104 -0.0
  outer loop
    vertex 2.2471607907803557e-15 2.0594037974438812 2.5
    vertex -0.5330129243349316 1.9892313147088254 5.5
    vertex 2.2471607907803557e-15 2.0594037974438812 5.5
  endloop
endfacet
facet normal 0.7933533402912343 -0.608761429008722 -0.0
  outer loop
    vertex 1.7834960052365414 -1.029701898721944 2.5
    vertex 1.456218390373895 -1.4562183903738954 5.5
    vertex 1.456218390373895 -1.4562183903738954 2.5
  endloop
endfacet
facet normal 0.7933533402912343 -0.608761429008722 -0.0
  outer loop
    vertex 1.456218390373895 -1.4562183903738954 5.5
    vertex 1.7834960052365414 -1.029701898721944 2.5
    vertex 1.7834960052365414 -1.029701898721944 5.5
  endloop
endfacet
facet normal -0.5639740915528105 -0.8257924824416737 -0.0
  outer loop
    vertex 3.1069355440307116 3.471126950230313 5.0
    vertex 2.1026755199064926 4.156985258256584 2.5
    vertex 3.1069355440307116 3.471126950230313 2.5
  endloop
endfacet
facet normal -0.5639740915528105 -0.8257924824416737 -0.0
  outer loop
    vertex 2.1026755199064926 4.156985258256584 2.5
    vertex 3.1069355440307116 3.471126950230313 5.0
    vertex 2.1026755199064926 4.156985258256584 5.0
  endloop
endfacet
facet normal 0.0 0.0 1.0
  outer loop
    vertex -2.1026755199065006 -4.156985258256581 2.5
    vertex -1.989231314708825 -0.5330129243349316 2.5
    vertex -2.059403797443881 1.0574874309554614e-15 2.5
  endloop
endfacet
facet normal 0.0 0.0 1.0
  outer loop
    vertex -1.989231314708825 -0.5330129243349316 2.5
    vertex -2.1026755199065006 -4.156985258256581 2.5
    vertex -0.9551216339362464 -4.559551890675611 2.5
  endloop
endfacet
facet normal 0.0 0.0 1.0
  outer loop
    vertex -1.989231314708825 -0.5330129243349316 2.5
    vertex -0.9551216339362464 -4.559551890675611 2.5
    vertex -1.7834960052365425 -1.0297018987219413 2.5
  endloop
endfacet
facet normal 0.0 0.0 1.0
  outer loop
    vertex -1.7834960052365425 -1.0297018987219413 2.5
    vertex -0.9551216339362464 -4.559551890675611 2.5
    vertex -1.4562183903738968 -1.456218390373894 2.5
  endloop
endfacet
facet normal 0.0 0.0 1.0
  outer loop
    vertex -1.4562183903738968 -1.456218390373894 2.5
    vertex -0.9551216339362464 -4.559551890675611 2.5
    vertex -1.0297018987219415 -1.7834960052365427 2.5
  endloop
endfacet
facet normal 0.0 0.0 1.0
  outer loop
    vertex -1.0297018987219415 -1.7834960052365427 2.5
    vertex -0.9551216339362464 -4.559551890675611 2.5
    vertex -0.5330129243349303 -1.9892313147088256 2.5
  endloop
endfacet
facet normal 0.0 0.0 1.0
  outer loop
    vertex -0.5330129243349303 -1.9892313147088256 2.5
    vertex -0.9551216339362464 -4.559551890675611 2.5
    vertex 0.25752221297361505 -4.651392596760864 2.5
  endloop
endfacet
facet normal 0.0 0.0 1.0
  outer loop
    vertex -0.5330129243349303 -1.9892313147088256 2.5
    vertex 0.25752221297361505 -4.651392596760864 2.5
    vertex -1.3218592886943268e-16 -2.059403797443881 2.5
  endloop
endfacet
facet normal 0.0 0.0 1.0
  outer loop
    vertex -1.3218592886943268e-16 -2.059403797443881 2.5
    vertex 0.25752221297361505 -4.651392596760864 2.5
    vertex 0.533012924334932 -1.989231314708825 2.5
  endloop
endfacet
facet normal 0.0 0.0 1.0
  outer loop
    vertex 0.533012924334932 -1.989231314708825 2.5
    vertex 0.25752221297361505 -4.651392596760864 2.5
    vertex 1.4526163466449071 -4.426248584166574 2.5
  endloop
endfacet
facet normal 0.0 0.0 1.0
  outer loop
    vertex 0.533012924334932 -1.989231314708825 2.5
    vertex 1.4526163466449071 -4.426248584166574 2.5
    vertex 1.0297018987219395 -1.7834960052365438 2.5
  endloop
endfacet
facet normal 0.0 0.0 1.0
  outer loop
    vertex 1.0297018987219395 -1.7834960052365438 2.5
    vertex 1.4526163466449071 -4.426248584166574 2.5
    vertex 1.456218390373895 -1.4562183903738954 2.5
  endloop
endfacet
facet normal 0.0 0.0 1.0
  outer loop
    vertex 1.456218390373895 -1.4562183903738954 2.5
    vertex 1.4526163466449071 -4.426248584166574 2.5
    vertex 2.5487170768543685 -3.8994630452829697 2.5
  endloop
endfacet
facet normal 0.0 0.0 1.0
  outer loop
    vertex 1.456218390373895 -1.4562183903738954 2.5
    vertex 2.5487170768543685 -3.8994630452829697 2.5
    vertex 1.7834960052365414 -1.029701898721944 2.5
  endloop
endfacet
facet normal 0.0 0.0 1.0
  outer loop
    vertex 1.7834960052365414 -1.029701898721944 2.5
    vertex 2.5487170768543685 -3.8994630452829697 2.5
    vertex 1.989231314708825 -0.533012924334933 2.5
  endloop
endfacet
facet normal 0.0 0.0 1.0
  outer loop
    vertex 1.989231314708825 -0.533012924334933 2.5
    vertex 2.5487170768543685 -3.8994630452829697 2.5
    vertex 2.059403797443881 -9.032705139411233e-16 2.5
  endloop
endfacet
facet normal 0.0 0.0 1.0
  outer loop
    vertex 2.059403797443881 -9.032705139411233e-16 2.5
    vertex 2.5487170768543685 -3.8994630452829697 2.5
    vertex 2.1026755199064926 4.156985258256584 2.5
  endloop
endfacet
facet normal 0.0 0.0 1.0
  outer loop
    vertex 2.1026755199064926 4.156985258256584 2.5
    vertex 2.5487170768543685 -3.8994630452829697 2.5
    vertex 3.1069355440307116 3.471126950230313 2.5
  endloop
endfacet
facet normal 0.0 0.0 1.0
  outer loop
    vertex 3.1069355440307116 3.471126950230313 2.5
    vertex 2.5487170768543685 -3.8994630452829697 2.5
    vertex 3.4711269502303157 -3.106935544030711 2.5
  endloop
endfacet
facet normal 0.0 0.0 1.0
  outer loop
    vertex 3.1069355440307116 3.471126950230313 2.5
    vertex 3.4711269502303157 -3.106935544030711 2.5
    vertex 3.8994630452829684 2.5487170768543685 2.5
  endloop
endfacet
facet normal 0.0 0.0 1.0
  outer loop
    vertex 3.8994630452829684 2.5487170768543685 2.5
    vertex 3.4711269502303157 -3.106935544030711 2.5
    vertex 4.156985258256584 -2.102675519906496 2.5
  endloop
endfacet
facet normal 0.0 0.0 1.0
  outer loop
    vertex 3.8994630452829684 2.5487170768543685 2.5
    vertex 4.156985258256584 -2.102675519906496 2.5
    vertex 4.426248584166577 1.4526163466449058 2.5
  endloop
endfacet
facet normal 0.0 0.0 1.0
  outer loop
    vertex 4.426248584166577 1.4526163466449058 2.5
    vertex 4.156985258256584 -2.102675519906496 2.5
    vertex 4.559551890675612 -0.9551216339362532 2.5
  endloop
endfacet
facet normal 0.0 0.0 1.0
  outer loop
    vertex 4.426248584166577 1.4526163466449058 2.5
    vertex 4.559551890675612 -0.9551216339362532 2.5
    vertex 4.651392596760865 0.25752221297361133 2.5
  endloop
endfacet
facet normal 0.0 0.0 1.0
  outer loop
    vertex -4.426248584166573 -1.452616346644912 2.5
    vertex -4.559551890675612 0.9551216339362587 2.5
    vertex -4.651392596760863 -0.2575222129736173 2.5
  endloop
endfacet
facet normal 0.0 0.0 1.0
  outer loop
    vertex -4.559551890675612 0.9551216339362587 2.5
    vertex -4.426248584166573 -1.452616346644912 2.5
    vertex -4.156985258256582 2.1026755199065024 2.5
  endloop
endfacet
facet normal 0.0 0.0 1.0
  outer loop
    vertex -4.156985258256582 2.1026755199065024 2.5
    vertex -4.426248584166573 -1.452616346644912 2.5
    vertex -3.8994630452829737 -2.5487170768543628 2.5
  endloop
endfacet
facet normal 0.0 0.0 1.0
  outer loop
    vertex -4.156985258256582 2.1026755199065024 2.5
    vertex -3.8994630452829737 -2.5487170768543628 2.5
    vertex -3.471126950230318 3.1069355440307085 2.5
  endloop
endfacet
facet normal 0.0 0.0 1.0
  outer loop
    vertex -3.471126950230318 3.1069355440307085 2.5
    vertex -3.8994630452829737 -2.5487170768543628 2.5
    vertex -3.1069355440307014 -3.47112695023032 2.5
  endloop
endfacet
facet normal 0.0 0.0 1.0
  outer loop
    vertex -3.471126950230318 3.1069355440307085 2.5
    vertex -3.1069355440307014 -3.47112695023032 2.5
    vertex -2.54871707685437 3.8994630452829684 2.5
  endloop
endfacet
facet normal 0.0 0.0 1.0
  outer loop
    vertex -2.54871707685437 3.8994630452829684 2.5
    vertex -3.1069355440307014 -3.47112695023032 2.5
    vertex -2.1026755199065006 -4.156985258256581 2.5
  endloop
endfacet
facet normal 0.0 0.0 1.0
  outer loop
    vertex -2.54871707685437 3.8994630452829684 2.5
    vertex -2.1026755199065006 -4.156985258256581 2.5
    vertex -2.059403797443881 1.0574874309554614e-15 2.5
  endloop
endfacet
facet normal 0.0 0.0 1.0
  outer loop
    vertex -2.54871707685437 3.8994630452829684 2.5
    vertex -2.059403797443881 1.0574874309554614e-15 2.5
    vertex -1.9892313147088256 0.533012924334929 2.5
  endloop
endfacet
facet normal 0.0 0.0 1.0
  outer loop
    vertex -2.54871707685437 3.8994630452829684 2.5
    vertex -1.9892313147088256 0.533012924334929 2.5
    vertex -1.4526163466449116 4.426248584166573 2.5
  endloop
endfacet
facet normal 0.0 0.0 1.0
  outer loop
    vertex -1.4526163466449116 4.426248584166573 2.5
    vertex -1.9892313147088256 0.533012924334929 2.5
    vertex -1.7834960052365443 1.0297018987219382 2.5
  endloop
endfacet
facet normal 0.0 0.0 1.0
  outer loop
    vertex -1.4526163466449116 4.426248584166573 2.5
    vertex -1.7834960052365443 1.0297018987219382 2.5
    vertex -1.4562183903738954 1.4562183903738952 2.5
  endloop
endfacet
facet normal 0.0 0.0 1.0
  outer loop
    vertex -1.4526163466449116 4.426248584166573 2.5
    vertex -1.4562183903738954 1.4562183903738952 2.5
    vertex -1.029701898721938 1.783496005236545 2.5
  endloop
endfacet
facet normal 0.0 0.0 1.0
  outer loop
    vertex -1.4526163466449116 4.426248584166573 2.5
    vertex -1.029701898721938 1.783496005236545 2.5
    vertex -0.25752221297362016 4.651392596760863 2.5
  endloop
endfacet
facet normal 0.0 0.0 1.0
  outer loop
    vertex -0.25752221297362016 4.651392596760863 2.5
    vertex -1.029701898721938 1.783496005236545 2.5
    vertex -0.5330129243349316 1.9892313147088254 2.5
  endloop
endfacet
facet normal 0.0 0.0 1.0
  outer loop
    vertex -0.25752221297362016 4.651392596760863 2.5
    vertex -0.5330129243349316 1.9892313147088254 2.5
    vertex 2.2471607907803557e-15 2.0594037974438812 2.5
  endloop
endfacet
facet normal 0.0 0.0 1.0
  outer loop
    vertex -0.25752221297362016 4.651392596760863 2.5
    vertex 2.2471607907803557e-15 2.0594037974438812 2.5
    vertex 0.9551216339362445 4.559551890675612 2.5
  endloop
endfacet
facet normal 0.0 0.0 1.0
  outer loop
    vertex 0.9551216339362445 4.559551890675612 2.5
    vertex 2.2471607907803557e-15 2.0594037974438812 2.5
    vertex 0.5330129243349316 1.9892313147088254 2.5
  endloop
endfacet
facet normal 0.0 0.0 1.0
  outer loop
    vertex 0.9551216339362445 4.559551890675612 2.5
    vertex 0.5330129243349316 1.9892313147088254 2.5
    vertex 1.0297018987219415 1.7834960052365425 2.5
  endloop
endfacet
facet normal 0.0 0.0 1.0
  outer loop
    vertex 0.9551216339362445 4.559551890675612 2.5
    vertex 1.0297018987219415 1.7834960052365425 2.5
    vertex 2.1026755199064926 4.156985258256584 2.5
  endloop
endfacet
facet normal 0.0 0.0 1.0
  outer loop
    vertex 2.1026755199064926 4.156985258256584 2.5
    vertex 1.0297018987219415 1.7834960052365425 2.5
    vertex 1.4562183903738957 1.4562183903738946 2.5
  endloop
endfacet
facet normal 0.0 0.0 1.0
  outer loop
    vertex 2.1026755199064926 4.156985258256584 2.5
    vertex 1.4562183903738957 1.4562183903738946 2.5
    vertex 1.7834960052365427 1.02970189872194 2.5
  endloop
endfacet
facet normal 0.0 0.0 1.0
  outer loop
    vertex 2.1026755199064926 4.156985258256584 2.5
    vertex 1.7834960052365427 1.02970189872194 2.5
    vertex 1.9892313147088256 0.5330129243349293 2.5
  endloop
endfacet
facet normal 0.0 0.0 1.0
  outer loop
    vertex 2.1026755199064926 4.156985258256584 2.5
    vertex 1.9892313147088256 0.5330129243349293 2.5
    vertex 2.059403797443881 -9.032705139411233e-16 2.5
  endloop
endfacet
facet normal 0.3826834323650895 -0.9238795325112871 -0.0
  outer loop
    vertex 1.0297018987219395 -1.7834960052365438 5.5
    vertex 0.533012924334932 -1.989231314708825 2.5
    vertex 1.0297018987219395 -1.7834960052365438 2.5
  endloop
endfacet
facet normal 0.3826834323650895 -0.9238795325112871 -0.0
  outer loop
    vertex 0.533012924334932 -1.989231314708825 2.5
    vertex 1.0297018987219395 -1.7834960052365438 5.5
    vertex 0.533012924334932 -1.989231314708825 5.5
  endloop
endfacet
facet normal 0.9971443138251099 -0.07551964914014672 -0.0
  outer loop
    vertex -4.559551890675612 0.9551216339362587 2.5
    vertex -4.651392596760863 -0.2575222129736173 5.0
    vertex -4.651392596760863 -0.2575222129736173 2.5
  endloop
endfacet
facet normal 0.9971443138251099 -0.07551964914014672 -0.0
  outer loop
    vertex -4.651392596760863 -0.2575222129736173 5.0
    vertex -4.559551890675612 0.9551216339362587 2.5
    vertex -4.559551890675612 0.9551216339362587 5.0
  endloop
endfacet
facet normal -0.9827133687378959 -0.1851335596368642 -0.0
  outer loop
    vertex 4.426248584166577 1.4526163466449058 5.0
    vertex 4.651392596760865 0.25752221297361133 2.5
    vertex 4.651392596760865 0.25752221297361133 5.0
  endloop
endfacet
facet normal -0.9827133687378959 -0.1851335596368642 -0.0
  outer loop
    vertex 4.651392596760865 0.25752221297361133 2.5
    vertex 4.426248584166577 1.4526163466449058 5.0
    vertex 4.426248584166577 1.4526163466449058 2.5
  endloop
endfacet
facet normal 0.9436215217840345 -0.33102631863038195 -0.0
  outer loop
    vertex -4.156985258256582 2.1026755199065024 2.5
    vertex -4.559551890675612 0.9551216339362587 5.0
    vertex -4.559551890675612 0.9551216339362587 2.5
  endloop
endfacet
facet normal 0.9436215217840345 -0.33102631863038195 -0.0
  outer loop
    vertex -4.559551890675612 0.9551216339362587 5.0
    vertex -4.156985258256582 2.1026755199065024 2.5
    vertex -4.156985258256582 2.1026755199065024 5.0
  endloop
endfacet
facet normal -0.9013121315818213 -0.43317022227229984 -0.0
  outer loop
    vertex 3.8994630452829684 2.5487170768543685 5.0
    vertex 4.426248584166577 1.4526163466449058 2.5
    vertex 4.426248584166577 1.4526163466449058 5.0
  endloop
endfacet
facet normal -0.9013121315818213 -0.43317022227229984 -0.0
  outer loop
    vertex 4.426248584166577 1.4526163466449058 2.5
    vertex 3.8994630452829684 2.5487170768543685 5.0
    vertex 3.8994630452829684 2.5487170768543685 2.5
  endloop
endfacet
facet normal -0.9971443138251098 0.0755196491401486 -0.0
  outer loop
    vertex 4.651392596760865 0.25752221297361133 5.0
    vertex 4.559551890675612 -0.9551216339362532 2.5
    vertex 4.559551890675612 -0.9551216339362532 5.0
  endloop
endfacet
facet normal -0.9971443138251098 0.0755196491401486 -0.0
  outer loop
    vertex 4.559551890675612 -0.9551216339362532 2.5
    vertex 4.651392596760865 0.25752221297361133 5.0
    vertex 4.651392596760865 0.25752221297361133 2.5
  endloop
endfacet
facet normal 0.9013121315818221 0.43317022227229807 0.0
  outer loop
    vertex -4.426248584166573 -1.452616346644912 2.5
    vertex -3.8994630452829737 -2.5487170768543628 5.0
    vertex -3.8994630452829737 -2.5487170768543628 2.5
  endloop
endfacet
facet normal 0.9013121315818221 0.43317022227229807 0.0
  outer loop
    vertex -3.8994630452829737 -2.5487170768543628 5.0
    vertex -4.426248584166573 -1.452616346644912 2.5
    vertex -4.426248584166573 -1.452616346644912 5.0
  endloop
endfacet
facet normal -0.9238795325112867 -0.38268343236509034 -0.0
  outer loop
    vertex -1.989231314708825 -0.5330129243349316 5.5
    vertex -1.7834960052365425 -1.0297018987219413 2.5
    vertex -1.7834960052365425 -1.0297018987219413 5.5
  endloop
endfacet
facet normal -0.9238795325112867 -0.38268343236509034 -0.0
  outer loop
    vertex -1.7834960052365425 -1.0297018987219413 2.5
    vertex -1.989231314708825 -0.5330129243349316 5.5
    vertex -1.989231314708825 -0.5330129243349316 2.5
  endloop
endfacet
facet normal -0.7933533402912358 0.6087614290087198 -0.0
  outer loop
    vertex -1.4562183903738954 1.4562183903738952 5.5
    vertex -1.7834960052365443 1.0297018987219382 2.5
    vertex -1.7834960052365443 1.0297018987219382 5.5
  endloop
endfacet
facet normal -0.7933533402912358 0.6087614290087198 -0.0
  outer loop
    vertex -1.7834960052365443 1.0297018987219382 2.5
    vertex -1.4562183903738954 1.4562183903738952 5.5
    vertex -1.4562183903738954 1.4562183903738952 2.5
  endloop
endfacet
facet normal -0.3826834323650891 0.9238795325112871 -0.0
  outer loop
    vertex -1.029701898721938 1.783496005236545 5.5
    vertex -0.5330129243349316 1.9892313147088254 2.5
    vertex -1.029701898721938 1.783496005236545 2.5
  endloop
endfacet
facet normal -0.3826834323650891 0.9238795325112871 -0.0
  outer loop
    vertex -0.5330129243349316 1.9892313147088254 2.5
    vertex -1.029701898721938 1.783496005236545 5.5
    vertex -0.5330129243349316 1.9892313147088254 5.5
  endloop
endfacet
facet normal 0.13052619222005274 0.9914448613738103 0.0
  outer loop
    vertex 2.2471607907803557e-15 2.0594037974438812 5.5
    vertex 0.5330129243349316 1.9892313147088254 2.5
    vertex 2.2471607907803557e-15 2.0594037974438812 2.5
  endloop
endfacet
facet normal 0.13052619222005274 0.9914448613738103 0.0
  outer loop
    vertex 0.5330129243349316 1.9892313147088254 2.5
    vertex 2.2471607907803557e-15 2.0594037974438812 5.5
    vertex 0.5330129243349316 1.9892313147088254 5.5
  endloop
endfacet
facet normal 0.9914448613738105 0.1305261922200513 0.0
  outer loop
    vertex 1.9892313147088256 0.5330129243349293 2.5
    vertex 2.059403797443881 -9.032705139411233e-16 5.5
    vertex 2.059403797443881 -9.032705139411233e-16 2.5
  endloop
endfacet
facet normal 0.9914448613738105 0.1305261922200513 0.0
  outer loop
    vertex 2.059403797443881 -9.032705139411233e-16 5.5
    vertex 1.9892313147088256 0.5330129243349293 2.5
    vertex 1.9892313147088256 0.5330129243349293 5.5
  endloop
endfacet
facet normal 0.9238795325112866 0.3826834323650901 0.0
  outer loop
    vertex 1.7834960052365427 1.02970189872194 2.5
    vertex 1.9892313147088256 0.5330129243349293 5.5
    vertex 1.9892313147088256 0.5330129243349293 2.5
  endloop
endfacet
facet normal 0.9238795325112866 0.3826834323650901 0.0
  outer loop
    vertex 1.9892313147088256 0.5330129243349293 5.5
    vertex 1.7834960052365427 1.02970189872194 2.5
    vertex 1.7834960052365427 1.02970189872194 5.5
  endloop
endfacet
facet normal -0.3310263186303803 -0.943621521784035 -0.0
  outer loop
    vertex 2.1026755199064926 4.156985258256584 5.0
    vertex 0.9551216339362445 4.559551890675612 2.5
    vertex 2.1026755199064926 4.156985258256584 2.5
  endloop
endfacet
facet normal -0.3310263186303803 -0.943621521784035 -0.0
  outer loop
    vertex 0.9551216339362445 4.559551890675612 2.5
    vertex 2.1026755199064926 4.156985258256584 5.0
    vertex 0.9551216339362445 4.559551890675612 5.0
  endloop
endfacet
endsolid laser cut motor mount
