solid Untitled-55ec6361
facet normal -0.014998312784712245 0.9998875189808162 0.0
  outer loop
    vertex 0.0 -5.0 0.49999999999999994
    vertex 200.0 -1.9999999999999998 0.0
    vertex 0.0 -5.0 0.0
  endloop
endfacet
facet normal -0.014998312784712245 0.9998875189808162 0.0
  outer loop
    vertex 200.0 -1.9999999999999998 0.0
    vertex 0.0 -5.0 0.49999999999999994
    vertex 200.0 -1.9999999999999998 0.49999999999999994
  endloop
endfacet
facet normal -1.0 -1.6000554262199842e-17 -0.0
  outer loop
    vertex -0.49999999999999994 5.507556246836292 0.49999999999999994
    vertex -0.4999999999999998 -5.507556246836293 0.0
    vertex -0.4999999999999998 -5.507556246836293 0.49999999999999994
  endloop
endfacet
facet normal -1.0 -1.6000554262199842e-17 -0.0
  outer loop
    vertex -0.4999999999999998 -5.507556246836293 0.0
    vertex -0.49999999999999994 5.507556246836292 0.49999999999999994
    vertex -0.49999999999999994 5.507556246836292 0.0
  endloop
endfacet
facet normal 4.406197628981091e-18 -1.0 0.0
  outer loop
    vertex 200.5 0.5000000000000001 0.49999999999999994
    vertex 160.5 0.49999999999999994 0.0
    vertex 200.5 0.5000000000000001 0.0
  endloop
endfacet
facet normal 4.406197628981091e-18 -1.0 0.0
  outer loop
    vertex 160.5 0.49999999999999994 0.0
    vertex 200.5 0.5000000000000001 0.49999999999999994
    vertex 160.5 0.49999999999999994 0.49999999999999994
  endloop
endfacet
facet normal 1.0 0.0 0.0
  outer loop
    vertex 200.5 -0.49999999999999994 0.0
    vertex 200.5 -2.492556246836293 0.49999999999999994
    vertex 200.5 -2.492556246836293 0.0
  endloop
endfacet
facet normal 1.0 0.0 0.0
  outer loop
    vertex 200.5 -2.492556246836293 0.49999999999999994
    vertex 200.5 -0.49999999999999994 0.0
    vertex 200.5 -0.49999999999999994 0.49999999999999994
  endloop
endfacet
facet normal -1.0 0.0 0.0
  outer loop
    vertex 200.0 1.9999999999999998 0.49999999999999994
    vertex 200.0 0.9999999999999999 0.0
    vertex 200.0 0.9999999999999999 0.49999999999999994
  endloop
endfacet
facet normal -1.0 0.0 0.0
  outer loop
    vertex 200.0 0.9999999999999999 0.0
    vertex 200.0 1.9999999999999998 0.49999999999999994
    vertex 200.0 1.9999999999999998 0.0
  endloop
endfacet
facet normal -0.014998312784712245 -0.9998875189808162 -0.0
  outer loop
    vertex 200.0 1.9999999999999998 0.49999999999999994
    vertex 0.0 5.0 0.0
    vertex 200.0 1.9999999999999998 0.0
  endloop
endfacet
facet normal -0.014998312784712245 -0.9998875189808162 -0.0
  outer loop
    vertex 0.0 5.0 0.0
    vertex 200.0 1.9999999999999998 0.49999999999999994
    vertex 0.0 5.0 0.49999999999999994
  endloop
endfacet
facet normal -1.0 0.0 0.0
  outer loop
    vertex 160.0 0.9999999999999999 0.49999999999999994
    vertex 160.0 -0.9999999999999996 0.0
    vertex 160.0 -0.9999999999999996 0.49999999999999994
  endloop
endfacet
facet normal -1.0 0.0 0.0
  outer loop
    vertex 160.0 -0.9999999999999996 0.0
    vertex 160.0 0.9999999999999999 0.49999999999999994
    vertex 160.0 0.9999999999999999 0.0
  endloop
endfacet
facet normal 1.0 0.0 0.0
  outer loop
    vertex 0.0 5.0 0.0
    vertex 0.0 -5.0 0.49999999999999994
    vertex 0.0 -5.0 0.0
  endloop
endfacet
facet normal 1.0 0.0 0.0
  outer loop
    vertex 0.0 -5.0 0.49999999999999994
    vertex 0.0 5.0 0.0
    vertex 0.0 5.0 0.49999999999999994
  endloop
endfacet
facet normal -1.0 0.0 0.0
  outer loop
    vertex 200.0 -0.9999999999999999 0.49999999999999994
    vertex 200.0 -1.9999999999999998 0.0
    vertex 200.0 -1.9999999999999998 0.49999999999999994
  endloop
endfacet
facet normal -1.0 0.0 0.0
  outer loop
    vertex 200.0 -1.9999999999999998 0.0
    vertex 200.0 -0.9999999999999999 0.49999999999999994
    vertex 200.0 -0.9999999999999999 0.0
  endloop
endfacet
facet normal -0.0 1.0 0.0
  outer loop
    vertex 160.0 0.9999999999999999 0.49999999999999994
    vertex 200.0 0.9999999999999999 0.0
    vertex 160.0 0.9999999999999999 0.0
  endloop
endfacet
facet normal -0.0 1.0 0.0
  outer loop
    vertex 200.0 0.9999999999999999 0.0
    vertex 160.0 0.9999999999999999 0.49999999999999994
    vertex 200.0 0.9999999999999999 0.49999999999999994
  endloop
endfacet
facet normal 1.0 0.0 0.0
  outer loop
    vertex 200.5 2.492556246836293 0.0
    vertex 200.5 0.5000000000000001 0.49999999999999994
    vertex 200.5 0.5000000000000001 0.0
  endloop
endfacet
facet normal 1.0 0.0 0.0
  outer loop
    vertex 200.5 0.5000000000000001 0.49999999999999994
    vertex 200.5 2.492556246836293 0.0
    vertex 200.5 2.492556246836293 0.49999999999999994
  endloop
endfacet
facet normal 8.812395257962182e-18 1.0 0.0
  outer loop
    vertex 160.5 -0.4999999999999996 0.49999999999999994
    vertex 200.5 -0.49999999999999994 0.0
    vertex 160.5 -0.4999999999999996 0.0
  endloop
endfacet
facet normal 8.812395257962182e-18 1.0 0.0
  outer loop
    vertex 200.5 -0.49999999999999994 0.0
    vertex 160.5 -0.4999999999999996 0.49999999999999994
    vertex 200.5 -0.49999999999999994 0.49999999999999994
  endloop
endfacet
facet normal -8.812395257962182e-18 -1.0 -0.0
  outer loop
    vertex 200.0 -0.9999999999999999 0.49999999999999994
    vertex 160.0 -0.9999999999999996 0.0
    vertex 200.0 -0.9999999999999999 0.0
  endloop
endfacet
facet normal -8.812395257962182e-18 -1.0 -0.0
  outer loop
    vertex 160.0 -0.9999999999999996 0.0
    vertex 200.0 -0.9999999999999999 0.49999999999999994
    vertex 160.0 -0.9999999999999996 0.49999999999999994
  endloop
endfacet
facet normal -0.0 -0.0 1.0
  outer loop
    vertex 200.5 -2.492556246836293 0.49999999999999994
    vertex 0.0 -5.0 0.49999999999999994
    vertex -0.4999999999999998 -5.507556246836293 0.49999999999999994
  endloop
endfacet
facet normal -0.0 -0.0 1.0
  outer loop
    vertex 0.0 -5.0 0.49999999999999994
    vertex 200.5 -2.492556246836293 0.49999999999999994
    vertex 200.0 -1.9999999999999998 0.49999999999999994
  endloop
endfacet
facet normal -0.0 -0.0 1.0
  outer loop
    vertex 200.0 -1.9999999999999998 0.49999999999999994
    vertex 200.5 -2.492556246836293 0.49999999999999994
    vertex 200.0 -0.9999999999999999 0.49999999999999994
  endloop
endfacet
facet normal -0.0 -0.0 1.0
  outer loop
    vertex 160.0 -0.9999999999999996 0.49999999999999994
    vertex 160.5 -0.4999999999999996 0.49999999999999994
    vertex 160.0 0.9999999999999999 0.49999999999999994
  endloop
endfacet
facet normal -0.0 -0.0 1.0
  outer loop
    vertex 160.5 -0.4999999999999996 0.49999999999999994
    vertex 160.0 -0.9999999999999996 0.49999999999999994
    vertex 200.0 -0.9999999999999999 0.49999999999999994
  endloop
endfacet
facet normal -0.0 -0.0 1.0
  outer loop
    vertex 160.5 -0.4999999999999996 0.49999999999999994
    vertex 200.0 -0.9999999999999999 0.49999999999999994
    vertex 200.5 -0.49999999999999994 0.49999999999999994
  endloop
endfacet
facet normal -0.0 -0.0 1.0
  outer loop
    vertex 200.5 -0.49999999999999994 0.49999999999999994
    vertex 200.0 -0.9999999999999999 0.49999999999999994
    vertex 200.5 -2.492556246836293 0.49999999999999994
  endloop
endfacet
facet normal -0.0 -0.0 1.0
  outer loop
    vertex 160.0 0.9999999999999999 0.49999999999999994
    vertex 160.5 0.49999999999999994 0.49999999999999994
    vertex 200.0 0.9999999999999999 0.49999999999999994
  endloop
endfacet
facet normal -0.0 -0.0 1.0
  outer loop
    vertex 160.5 0.49999999999999994 0.49999999999999994
    vertex 160.0 0.9999999999999999 0.49999999999999994
    vertex 160.5 -0.4999999999999996 0.49999999999999994
  endloop
endfacet
facet normal -0.0 -0.0 1.0
  outer loop
    vertex 200.0 0.9999999999999999 0.49999999999999994
    vertex 160.5 0.49999999999999994 0.49999999999999994
    vertex 200.5 0.5000000000000001 0.49999999999999994
  endloop
endfacet
facet normal -0.0 -0.0 1.0
  outer loop
    vertex 200.0 0.9999999999999999 0.49999999999999994
    vertex 200.5 0.5000000000000001 0.49999999999999994
    vertex 200.0 1.9999999999999998 0.49999999999999994
  endloop
endfacet
facet normal -0.0 -0.0 1.0
  outer loop
    vertex -0.49999999999999994 5.507556246836292 0.49999999999999994
    vertex 0.0 5.0 0.49999999999999994
    vertex 200.5 2.492556246836293 0.49999999999999994
  endloop
endfacet
facet normal -0.0 -0.0 1.0
  outer loop
    vertex 0.0 5.0 0.49999999999999994
    vertex -0.49999999999999994 5.507556246836292 0.49999999999999994
    vertex -0.4999999999999998 -5.507556246836293 0.49999999999999994
  endloop
endfacet
facet normal -0.0 -0.0 1.0
  outer loop
    vertex 0.0 5.0 0.49999999999999994
    vertex -0.4999999999999998 -5.507556246836293 0.49999999999999994
    vertex 0.0 -5.0 0.49999999999999994
  endloop
endfacet
facet normal -0.0 -0.0 1.0
  outer loop
    vertex 200.5 2.492556246836293 0.49999999999999994
    vertex 0.0 5.0 0.49999999999999994
    vertex 200.0 1.9999999999999998 0.49999999999999994
  endloop
endfacet
facet normal -0.0 -0.0 1.0
  outer loop
    vertex 200.5 2.492556246836293 0.49999999999999994
    vertex 200.0 1.9999999999999998 0.49999999999999994
    vertex 200.5 0.5000000000000001 0.49999999999999994
  endloop
endfacet
facet normal 0.01499831278471224 0.9998875189808163 0.0
  outer loop
    vertex -0.49999999999999994 5.507556246836292 0.49999999999999994
    vertex 200.5 2.492556246836293 0.0
    vertex -0.49999999999999994 5.507556246836292 0.0
  endloop
endfacet
facet normal 0.01499831278471224 0.9998875189808163 0.0
  outer loop
    vertex 200.5 2.492556246836293 0.0
    vertex -0.49999999999999994 5.507556246836292 0.49999999999999994
    vertex 200.5 2.492556246836293 0.49999999999999994
  endloop
endfacet
facet normal 1.0 0.0 0.0
  outer loop
    vertex 160.5 0.49999999999999994 0.0
    vertex 160.5 -0.4999999999999996 0.49999999999999994
    vertex 160.5 -0.4999999999999996 0.0
  endloop
endfacet
facet normal 1.0 0.0 0.0
  outer loop
    vertex 160.5 -0.4999999999999996 0.49999999999999994
    vertex 160.5 0.49999999999999994 0.0
    vertex 160.5 0.49999999999999994 0.49999999999999994
  endloop
endfacet
facet normal 0.0 0.0 -1.0
  outer loop
    vertex -0.49999999999999994 5.507556246836292 0.0
    vertex 0.0 5.0 0.0
    vertex -0.4999999999999998 -5.507556246836293 0.0
  endloop
endfacet
facet normal 0.0 0.0 -1.0
  outer loop
    vertex 0.0 5.0 0.0
    vertex -0.49999999999999994 5.507556246836292 0.0
    vertex 200.5 2.492556246836293 0.0
  endloop
endfacet
facet normal 0.0 0.0 -1.0
  outer loop
    vertex 0.0 5.0 0.0
    vertex 200.5 2.492556246836293 0.0
    vertex 200.0 1.9999999999999998 0.0
  endloop
endfacet
facet normal 0.0 0.0 -1.0
  outer loop
    vertex 200.0 1.9999999999999998 0.0
    vertex 200.5 2.492556246836293 0.0
    vertex 200.0 0.9999999999999999 0.0
  endloop
endfacet
facet normal 0.0 0.0 -1.0
  outer loop
    vertex 160.0 0.9999999999999999 0.0
    vertex 160.5 0.49999999999999994 0.0
    vertex 160.0 -0.9999999999999996 0.0
  endloop
endfacet
facet normal 0.0 0.0 -1.0
  outer loop
    vertex 160.5 0.49999999999999994 0.0
    vertex 160.0 0.9999999999999999 0.0
    vertex 200.0 0.9999999999999999 0.0
  endloop
endfacet
facet normal 0.0 0.0 -1.0
  outer loop
    vertex 160.5 0.49999999999999994 0.0
    vertex 200.0 0.9999999999999999 0.0
    vertex 200.5 0.5000000000000001 0.0
  endloop
endfacet
facet normal 0.0 0.0 -1.0
  outer loop
    vertex 200.5 0.5000000000000001 0.0
    vertex 200.0 0.9999999999999999 0.0
    vertex 200.5 2.492556246836293 0.0
  endloop
endfacet
facet normal 0.0 0.0 -1.0
  outer loop
    vertex 160.0 -0.9999999999999996 0.0
    vertex 160.5 -0.4999999999999996 0.0
    vertex 200.0 -0.9999999999999999 0.0
  endloop
endfacet
facet normal 0.0 0.0 -1.0
  outer loop
    vertex 160.5 -0.4999999999999996 0.0
    vertex 160.0 -0.9999999999999996 0.0
    vertex 160.5 0.49999999999999994 0.0
  endloop
endfacet
facet normal 0.0 0.0 -1.0
  outer loop
    vertex 200.0 -0.9999999999999999 0.0
    vertex 160.5 -0.4999999999999996 0.0
    vertex 200.5 -0.49999999999999994 0.0
  endloop
endfacet
facet normal 0.0 0.0 -1.0
  outer loop
    vertex 200.0 -0.9999999999999999 0.0
    vertex 200.5 -0.49999999999999994 0.0
    vertex 200.0 -1.9999999999999998 0.0
  endloop
endfacet
facet normal 0.0 0.0 -1.0
  outer loop
    vertex -0.4999999999999998 -5.507556246836293 0.0
    vertex 0.0 -5.0 0.0
    vertex 200.5 -2.492556246836293 0.0
  endloop
endfacet
facet normal 0.0 0.0 -1.0
  outer loop
    vertex 0.0 -5.0 0.0
    vertex -0.4999999999999998 -5.507556246836293 0.0
    vertex 0.0 5.0 0.0
  endloop
endfacet
facet normal 0.0 0.0 -1.0
  outer loop
    vertex 200.5 -2.492556246836293 0.0
    vertex 0.0 -5.0 0.0
    vertex 200.0 -1.9999999999999998 0.0
  endloop
endfacet
facet normal 0.0 0.0 -1.0
  outer loop
    vertex 200.5 -2.492556246836293 0.0
    vertex 200.0 -1.9999999999999998 0.0
    vertex 200.5 -0.49999999999999994 0.0
  endloop
endfacet
facet normal 0.014998312784712243 -0.9998875189808163 0.0
  outer loop
    vertex 200.5 -2.492556246836293 0.49999999999999994
    vertex -0.4999999999999998 -5.507556246836293 0.0
    vertex 200.5 -2.492556246836293 0.0
  endloop
endfacet
facet normal 0.014998312784712243 -0.9998875189808163 0.0
  outer loop
    vertex -0.4999999999999998 -5.507556246836293 0.0
    vertex 200.5 -2.492556246836293 0.49999999999999994
    vertex -0.4999999999999998 -5.507556246836293 0.49999999999999994
  endloop
endfacet
endsolid Untitled-55ec6361
