solid wing spar
facet normal 1.0 0.0 0.0
  outer loop
    vertex 200.5 7.5 0.0
    vertex 200.5 0.49999999999999994 0.49999999999999994
    vertex 200.5 0.49999999999999994 0.0
  endloop
endfacet
facet normal 1.0 0.0 0.0
  outer loop
    vertex 200.5 0.49999999999999994 0.49999999999999994
    vertex 200.5 7.5 0.0
    vertex 200.5 7.5 0.49999999999999994
  endloop
endfacet
facet normal -0.997458699830735 -0.07124704998790934 -0.0
  outer loop
    vertex -1.036988173129219 7.499999999999999 0.49999999999999994
    vertex -0.46555960170064997 -0.49999999999999994 0.0
    vertex -0.46555960170064997 -0.49999999999999994 0.49999999999999994
  endloop
endfacet
facet normal -0.997458699830735 -0.07124704998790934 -0.0
  outer loop
    vertex -0.46555960170064997 -0.49999999999999994 0.0
    vertex -1.036988173129219 7.499999999999999 0.49999999999999994
    vertex -1.036988173129219 7.499999999999999 0.0
  endloop
endfacet
facet normal -0.0 1.0 0.0
  outer loop
    vertex -1.036988173129219 7.499999999999999 0.49999999999999994
    vertex 1.5000000000000022 7.499999999999999 0.0
    vertex -1.036988173129219 7.499999999999999 0.0
  endloop
endfacet
facet normal -0.0 1.0 0.0
  outer loop
    vertex 1.5000000000000022 7.499999999999999 0.0
    vertex -1.036988173129219 7.499999999999999 0.49999999999999994
    vertex 1.5000000000000022 7.499999999999999 0.49999999999999994
  endloop
endfacet
facet normal -1.0 -2.937465085987394e-17 -0.0
  outer loop
    vertex 1.500000000000002 13.499999999999998 0.49999999999999994
    vertex 1.5000000000000022 7.499999999999999 0.0
    vertex 1.5000000000000022 7.499999999999999 0.49999999999999994
  endloop
endfacet
facet normal -1.0 -2.937465085987394e-17 -0.0
  outer loop
    vertex 1.5000000000000022 7.499999999999999 0.0
    vertex 1.500000000000002 13.499999999999998 0.49999999999999994
    vertex 1.500000000000002 13.499999999999998 0.0
  endloop
endfacet
facet normal 1.0 0.0 0.0
  outer loop
    vertex 18.0 13.499999999999998 0.0
    vertex 18.0 7.499999999999999 0.49999999999999994
    vertex 18.0 7.499999999999999 0.0
  endloop
endfacet
facet normal 1.0 0.0 0.0
  outer loop
    vertex 18.0 7.499999999999999 0.49999999999999994
    vertex 18.0 13.499999999999998 0.0
    vertex 18.0 13.499999999999998 0.49999999999999994
  endloop
endfacet
facet normal 0.0 0.0 -1.0
  outer loop
    vertex 177.0 13.499999999999998 0.0
    vertex 177.5 12.999999999999998 0.0
    vertex 177.0 7.499999999999999 0.0
  endloop
endfacet
facet normal 0.0 0.0 -1.0
  outer loop
    vertex 177.5 12.999999999999998 0.0
    vertex 177.0 13.499999999999998 0.0
    vertex 198.0 13.499999999999998 0.0
  endloop
endfacet
facet normal 0.0 0.0 -1.0
  outer loop
    vertex 177.5 12.999999999999998 0.0
    vertex 198.0 13.499999999999998 0.0
    vertex 197.5 12.999999999999998 0.0
  endloop
endfacet
facet normal 0.0 0.0 -1.0
  outer loop
    vertex 197.5 12.999999999999998 0.0
    vertex 198.0 13.499999999999998 0.0
    vertex 197.5 7.0 0.0
  endloop
endfacet
facet normal 0.0 0.0 -1.0
  outer loop
    vertex 197.5 7.0 0.0
    vertex 198.0 13.499999999999998 0.0
    vertex 198.0 7.5 0.0
  endloop
endfacet
facet normal 0.0 0.0 -1.0
  outer loop
    vertex 197.5 7.0 0.0
    vertex 198.0 7.5 0.0
    vertex 200.0 7.0 0.0
  endloop
endfacet
facet normal 0.0 0.0 -1.0
  outer loop
    vertex 200.0 7.0 0.0
    vertex 198.0 7.5 0.0
    vertex 200.5 7.5 0.0
  endloop
endfacet
facet normal 0.0 0.0 -1.0
  outer loop
    vertex 200.0 7.0 0.0
    vertex 200.5 7.5 0.0
    vertex 200.0 0.9999999999999999 0.0
  endloop
endfacet
facet normal 0.0 0.0 -1.0
  outer loop
    vertex 200.0 0.9999999999999999 0.0
    vertex 0.0 0.49999999999999994 0.0
    vertex 0.0 0.9999999999999999 0.0
  endloop
endfacet
facet normal 0.0 0.0 -1.0
  outer loop
    vertex 0.0 0.49999999999999994 0.0
    vertex 200.0 0.9999999999999999 0.0
    vertex 200.5 0.49999999999999994 0.0
  endloop
endfacet
facet normal 0.0 0.0 -1.0
  outer loop
    vertex 200.5 0.49999999999999994 0.0
    vertex 200.0 0.9999999999999999 0.0
    vertex 200.5 7.5 0.0
  endloop
endfacet
facet normal 0.0 0.0 -1.0
  outer loop
    vertex 154.5 13.499999999999998 0.0
    vertex 155.0 12.999999999999998 0.0
    vertex 154.5 7.499999999999999 0.0
  endloop
endfacet
facet normal 0.0 0.0 -1.0
  outer loop
    vertex 155.0 12.999999999999998 0.0
    vertex 154.5 13.499999999999998 0.0
    vertex 175.5 13.499999999999998 0.0
  endloop
endfacet
facet normal 0.0 0.0 -1.0
  outer loop
    vertex 155.0 12.999999999999998 0.0
    vertex 175.5 13.499999999999998 0.0
    vertex 175.0 12.999999999999998 0.0
  endloop
endfacet
facet normal 0.0 0.0 -1.0
  outer loop
    vertex 175.0 12.999999999999998 0.0
    vertex 175.5 13.499999999999998 0.0
    vertex 175.0 6.999999999999998 0.0
  endloop
endfacet
facet normal 0.0 0.0 -1.0
  outer loop
    vertex 175.0 6.999999999999998 0.0
    vertex 175.5 13.499999999999998 0.0
    vertex 175.5 7.499999999999999 0.0
  endloop
endfacet
facet normal 0.0 0.0 -1.0
  outer loop
    vertex 175.0 6.999999999999998 0.0
    vertex 175.5 7.499999999999999 0.0
    vertex 177.5 6.999999999999998 0.0
  endloop
endfacet
facet normal 0.0 0.0 -1.0
  outer loop
    vertex 177.5 6.999999999999998 0.0
    vertex 175.5 7.499999999999999 0.0
    vertex 177.0 7.499999999999999 0.0
  endloop
endfacet
facet normal 0.0 0.0 -1.0
  outer loop
    vertex 177.5 6.999999999999998 0.0
    vertex 177.0 7.499999999999999 0.0
    vertex 177.5 12.999999999999998 0.0
  endloop
endfacet
facet normal 0.0 0.0 -1.0
  outer loop
    vertex 131.99999999999997 13.499999999999998 0.0
    vertex 132.49999999999997 12.999999999999998 0.0
    vertex 131.99999999999997 7.499999999999999 0.0
  endloop
endfacet
facet normal 0.0 0.0 -1.0
  outer loop
    vertex 132.49999999999997 12.999999999999998 0.0
    vertex 131.99999999999997 13.499999999999998 0.0
    vertex 153.0 13.499999999999998 0.0
  endloop
endfacet
facet normal 0.0 0.0 -1.0
  outer loop
    vertex 132.49999999999997 12.999999999999998 0.0
    vertex 153.0 13.499999999999998 0.0
    vertex 152.5 12.999999999999998 0.0
  endloop
endfacet
facet normal 0.0 0.0 -1.0
  outer loop
    vertex 152.5 12.999999999999998 0.0
    vertex 153.0 13.499999999999998 0.0
    vertex 152.5 6.999999999999998 0.0
  endloop
endfacet
facet normal 0.0 0.0 -1.0
  outer loop
    vertex 152.5 6.999999999999998 0.0
    vertex 153.0 13.499999999999998 0.0
    vertex 153.0 7.499999999999999 0.0
  endloop
endfacet
facet normal 0.0 0.0 -1.0
  outer loop
    vertex 152.5 6.999999999999998 0.0
    vertex 153.0 7.499999999999999 0.0
    vertex 155.0 6.999999999999998 0.0
  endloop
endfacet
facet normal 0.0 0.0 -1.0
  outer loop
    vertex 155.0 6.999999999999998 0.0
    vertex 153.0 7.499999999999999 0.0
    vertex 154.5 7.499999999999999 0.0
  endloop
endfacet
facet normal 0.0 0.0 -1.0
  outer loop
    vertex 155.0 6.999999999999998 0.0
    vertex 154.5 7.499999999999999 0.0
    vertex 155.0 12.999999999999998 0.0
  endloop
endfacet
facet normal 0.0 0.0 -1.0
  outer loop
    vertex 109.49999999999999 13.499999999999998 0.0
    vertex 109.99999999999999 12.999999999999998 0.0
    vertex 109.49999999999999 7.499999999999999 0.0
  endloop
endfacet
facet normal 0.0 0.0 -1.0
  outer loop
    vertex 109.99999999999999 12.999999999999998 0.0
    vertex 109.49999999999999 13.499999999999998 0.0
    vertex 130.5 13.499999999999998 0.0
  endloop
endfacet
facet normal 0.0 0.0 -1.0
  outer loop
    vertex 109.99999999999999 12.999999999999998 0.0
    vertex 130.5 13.499999999999998 0.0
    vertex 130.0 12.999999999999998 0.0
  endloop
endfacet
facet normal 0.0 0.0 -1.0
  outer loop
    vertex 130.0 12.999999999999998 0.0
    vertex 130.5 13.499999999999998 0.0
    vertex 130.0 6.999999999999998 0.0
  endloop
endfacet
facet normal 0.0 0.0 -1.0
  outer loop
    vertex 130.0 6.999999999999998 0.0
    vertex 130.5 13.499999999999998 0.0
    vertex 130.5 7.499999999999999 0.0
  endloop
endfacet
facet normal 0.0 0.0 -1.0
  outer loop
    vertex 130.0 6.999999999999998 0.0
    vertex 130.5 7.499999999999999 0.0
    vertex 132.49999999999997 6.999999999999998 0.0
  endloop
endfacet
facet normal 0.0 0.0 -1.0
  outer loop
    vertex 132.49999999999997 6.999999999999998 0.0
    vertex 130.5 7.499999999999999 0.0
    vertex 131.99999999999997 7.499999999999999 0.0
  endloop
endfacet
facet normal 0.0 0.0 -1.0
  outer loop
    vertex 132.49999999999997 6.999999999999998 0.0
    vertex 131.99999999999997 7.499999999999999 0.0
    vertex 132.49999999999997 12.999999999999998 0.0
  endloop
endfacet
facet normal 0.0 0.0 -1.0
  outer loop
    vertex 86.99999999999999 13.499999999999998 0.0
    vertex 87.49999999999999 12.999999999999998 0.0
    vertex 86.99999999999999 7.499999999999999 0.0
  endloop
endfacet
facet normal 0.0 0.0 -1.0
  outer loop
    vertex 87.49999999999999 12.999999999999998 0.0
    vertex 86.99999999999999 13.499999999999998 0.0
    vertex 107.99999999999999 13.499999999999998 0.0
  endloop
endfacet
facet normal 0.0 0.0 -1.0
  outer loop
    vertex 87.49999999999999 12.999999999999998 0.0
    vertex 107.99999999999999 13.499999999999998 0.0
    vertex 107.49999999999999 12.999999999999998 0.0
  endloop
endfacet
facet normal 0.0 0.0 -1.0
  outer loop
    vertex 107.49999999999999 12.999999999999998 0.0
    vertex 107.99999999999999 13.499999999999998 0.0
    vertex 107.49999999999999 6.999999999999998 0.0
  endloop
endfacet
facet normal 0.0 0.0 -1.0
  outer loop
    vertex 107.49999999999999 6.999999999999998 0.0
    vertex 107.99999999999999 13.499999999999998 0.0
    vertex 107.99999999999999 7.499999999999999 0.0
  endloop
endfacet
facet normal 0.0 0.0 -1.0
  outer loop
    vertex 107.49999999999999 6.999999999999998 0.0
    vertex 107.99999999999999 7.499999999999999 0.0
    vertex 109.99999999999999 6.999999999999998 0.0
  endloop
endfacet
facet normal 0.0 0.0 -1.0
  outer loop
    vertex 109.99999999999999 6.999999999999998 0.0
    vertex 107.99999999999999 7.499999999999999 0.0
    vertex 109.49999999999999 7.499999999999999 0.0
  endloop
endfacet
facet normal 0.0 0.0 -1.0
  outer loop
    vertex 109.99999999999999 6.999999999999998 0.0
    vertex 109.49999999999999 7.499999999999999 0.0
    vertex 109.99999999999999 12.999999999999998 0.0
  endloop
endfacet
facet normal 0.0 0.0 -1.0
  outer loop
    vertex 64.5 13.499999999999998 0.0
    vertex 65.0 12.999999999999998 0.0
    vertex 64.5 7.499999999999999 0.0
  endloop
endfacet
facet normal 0.0 0.0 -1.0
  outer loop
    vertex 65.0 12.999999999999998 0.0
    vertex 64.5 13.499999999999998 0.0
    vertex 85.49999999999999 13.499999999999998 0.0
  endloop
endfacet
facet normal 0.0 0.0 -1.0
  outer loop
    vertex 65.0 12.999999999999998 0.0
    vertex 85.49999999999999 13.499999999999998 0.0
    vertex 84.99999999999999 12.999999999999998 0.0
  endloop
endfacet
facet normal 0.0 0.0 -1.0
  outer loop
    vertex 84.99999999999999 12.999999999999998 0.0
    vertex 85.49999999999999 13.499999999999998 0.0
    vertex 84.99999999999999 6.999999999999998 0.0
  endloop
endfacet
facet normal 0.0 0.0 -1.0
  outer loop
    vertex 84.99999999999999 6.999999999999998 0.0
    vertex 85.49999999999999 13.499999999999998 0.0
    vertex 85.49999999999999 7.499999999999999 0.0
  endloop
endfacet
facet normal 0.0 0.0 -1.0
  outer loop
    vertex 84.99999999999999 6.999999999999998 0.0
    vertex 85.49999999999999 7.499999999999999 0.0
    vertex 87.49999999999999 6.999999999999998 0.0
  endloop
endfacet
facet normal 0.0 0.0 -1.0
  outer loop
    vertex 87.49999999999999 6.999999999999998 0.0
    vertex 85.49999999999999 7.499999999999999 0.0
    vertex 86.99999999999999 7.499999999999999 0.0
  endloop
endfacet
facet normal 0.0 0.0 -1.0
  outer loop
    vertex 87.49999999999999 6.999999999999998 0.0
    vertex 86.99999999999999 7.499999999999999 0.0
    vertex 87.49999999999999 12.999999999999998 0.0
  endloop
endfacet
facet normal 0.0 0.0 -1.0
  outer loop
    vertex 42.0 13.499999999999998 0.0
    vertex 42.5 12.999999999999998 0.0
    vertex 42.0 7.499999999999999 0.0
  endloop
endfacet
facet normal 0.0 0.0 -1.0
  outer loop
    vertex 42.5 12.999999999999998 0.0
    vertex 42.0 13.499999999999998 0.0
    vertex 63.0 13.499999999999998 0.0
  endloop
endfacet
facet normal 0.0 0.0 -1.0
  outer loop
    vertex 42.5 12.999999999999998 0.0
    vertex 63.0 13.499999999999998 0.0
    vertex 62.5 12.999999999999998 0.0
  endloop
endfacet
facet normal 0.0 0.0 -1.0
  outer loop
    vertex 62.5 12.999999999999998 0.0
    vertex 63.0 13.499999999999998 0.0
    vertex 62.5 6.999999999999998 0.0
  endloop
endfacet
facet normal 0.0 0.0 -1.0
  outer loop
    vertex 62.5 6.999999999999998 0.0
    vertex 63.0 13.499999999999998 0.0
    vertex 63.0 7.499999999999999 0.0
  endloop
endfacet
facet normal 0.0 0.0 -1.0
  outer loop
    vertex 62.5 6.999999999999998 0.0
    vertex 63.0 7.499999999999999 0.0
    vertex 65.0 6.999999999999998 0.0
  endloop
endfacet
facet normal 0.0 0.0 -1.0
  outer loop
    vertex 65.0 6.999999999999998 0.0
    vertex 63.0 7.499999999999999 0.0
    vertex 64.5 7.499999999999999 0.0
  endloop
endfacet
facet normal 0.0 0.0 -1.0
  outer loop
    vertex 65.0 6.999999999999998 0.0
    vertex 64.5 7.499999999999999 0.0
    vertex 65.0 12.999999999999998 0.0
  endloop
endfacet
facet normal 0.0 0.0 -1.0
  outer loop
    vertex 19.5 13.499999999999998 0.0
    vertex 20.0 12.999999999999998 0.0
    vertex 19.5 7.499999999999999 0.0
  endloop
endfacet
facet normal 0.0 0.0 -1.0
  outer loop
    vertex 20.0 12.999999999999998 0.0
    vertex 19.5 13.499999999999998 0.0
    vertex 40.5 13.499999999999998 0.0
  endloop
endfacet
facet normal 0.0 0.0 -1.0
  outer loop
    vertex 20.0 12.999999999999998 0.0
    vertex 40.5 13.499999999999998 0.0
    vertex 40.0 12.999999999999998 0.0
  endloop
endfacet
facet normal 0.0 0.0 -1.0
  outer loop
    vertex 40.0 12.999999999999998 0.0
    vertex 40.5 13.499999999999998 0.0
    vertex 40.0 6.999999999999998 0.0
  endloop
endfacet
facet normal 0.0 0.0 -1.0
  outer loop
    vertex 40.0 6.999999999999998 0.0
    vertex 40.5 13.499999999999998 0.0
    vertex 40.5 7.499999999999999 0.0
  endloop
endfacet
facet normal 0.0 0.0 -1.0
  outer loop
    vertex 40.0 6.999999999999998 0.0
    vertex 40.5 7.499999999999999 0.0
    vertex 42.5 6.999999999999998 0.0
  endloop
endfacet
facet normal 0.0 0.0 -1.0
  outer loop
    vertex 42.5 6.999999999999998 0.0
    vertex 40.5 7.499999999999999 0.0
    vertex 42.0 7.499999999999999 0.0
  endloop
endfacet
facet normal 0.0 0.0 -1.0
  outer loop
    vertex 42.5 6.999999999999998 0.0
    vertex 42.0 7.499999999999999 0.0
    vertex 42.5 12.999999999999998 0.0
  endloop
endfacet
facet normal 0.0 0.0 -1.0
  outer loop
    vertex 1.500000000000002 13.499999999999998 0.0
    vertex 2.0000000000000018 12.999999999999998 0.0
    vertex 1.5000000000000022 7.499999999999999 0.0
  endloop
endfacet
facet normal 0.0 0.0 -1.0
  outer loop
    vertex 2.0000000000000018 12.999999999999998 0.0
    vertex 1.500000000000002 13.499999999999998 0.0
    vertex 18.0 13.499999999999998 0.0
  endloop
endfacet
facet normal 0.0 0.0 -1.0
  outer loop
    vertex 2.0000000000000018 12.999999999999998 0.0
    vertex 18.0 13.499999999999998 0.0
    vertex 17.5 12.999999999999998 0.0
  endloop
endfacet
facet normal 0.0 0.0 -1.0
  outer loop
    vertex 17.5 12.999999999999998 0.0
    vertex 18.0 13.499999999999998 0.0
    vertex 17.5 6.999999999999998 0.0
  endloop
endfacet
facet normal 0.0 0.0 -1.0
  outer loop
    vertex 17.5 6.999999999999998 0.0
    vertex 18.0 13.499999999999998 0.0
    vertex 18.0 7.499999999999999 0.0
  endloop
endfacet
facet normal 0.0 0.0 -1.0
  outer loop
    vertex 17.5 6.999999999999998 0.0
    vertex 18.0 7.499999999999999 0.0
    vertex 20.0 6.999999999999998 0.0
  endloop
endfacet
facet normal 0.0 0.0 -1.0
  outer loop
    vertex 20.0 6.999999999999998 0.0
    vertex 18.0 7.499999999999999 0.0
    vertex 19.5 7.499999999999999 0.0
  endloop
endfacet
facet normal 0.0 0.0 -1.0
  outer loop
    vertex 20.0 6.999999999999998 0.0
    vertex 19.5 7.499999999999999 0.0
    vertex 20.0 12.999999999999998 0.0
  endloop
endfacet
facet normal 0.0 0.0 -1.0
  outer loop
    vertex 1.5000000000000022 7.499999999999999 0.0
    vertex -0.49999999999999767 6.999999999999998 0.0
    vertex -1.036988173129219 7.499999999999999 0.0
  endloop
endfacet
facet normal 0.0 0.0 -1.0
  outer loop
    vertex -0.49999999999999767 6.999999999999998 0.0
    vertex 1.5000000000000022 7.499999999999999 0.0
    vertex 2.0000000000000018 6.999999999999998 0.0
  endloop
endfacet
facet normal 0.0 0.0 -1.0
  outer loop
    vertex 2.0000000000000018 6.999999999999998 0.0
    vertex 1.5000000000000022 7.499999999999999 0.0
    vertex 2.0000000000000018 12.999999999999998 0.0
  endloop
endfacet
facet normal 0.0 0.0 -1.0
  outer loop
    vertex 0.0 0.0 0.0
    vertex -0.46555960170064997 0.0 0.0
    vertex -0.49999999999999767 6.999999999999998 0.0
  endloop
endfacet
facet normal 0.0 0.0 -1.0
  outer loop
    vertex -0.49999999999999767 6.999999999999998 0.0
    vertex -0.46555960170064997 -0.49999999999999994 0.0
    vertex -1.036988173129219 7.499999999999999 0.0
  endloop
endfacet
facet normal 0.0 0.0 -1.0
  outer loop
    vertex -0.46555960170064997 -0.49999999999999994 0.0
    vertex -0.49999999999999767 6.999999999999998 0.0
    vertex -0.46555960170064997 0.0 0.0
  endloop
endfacet
facet normal 2.8044816635921715e-34 -9.01569375169304e-33 1.0
  outer loop
    vertex -0.46555960170064997 -0.49999999999999994 0.49999999999999994
    vertex -0.49999999999999767 6.999999999999998 0.49999999999999994
    vertex -1.036988173129219 7.499999999999999 0.49999999999999994
  endloop
endfacet
facet normal 2.8044816635921715e-34 -9.01569375169304e-33 1.0
  outer loop
    vertex -0.49999999999999767 6.999999999999998 0.49999999999999994
    vertex -0.46555960170064997 -0.49999999999999994 0.49999999999999994
    vertex -0.46555960170064997 0.0 0.49999999999999994
  endloop
endfacet
facet normal 2.8044816635921715e-34 -9.01569375169304e-33 1.0
  outer loop
    vertex -0.49999999999999767 6.999999999999998 0.49999999999999994
    vertex -0.46555960170064997 0.0 0.49999999999999994
    vertex 0.0 0.0 0.49999999999999994
  endloop
endfacet
facet normal 2.8044816635921715e-34 -9.01569375169304e-33 1.0
  outer loop
    vertex -0.49999999999999767 6.999999999999998 0.49999999999999994
    vertex 1.5000000000000022 7.499999999999999 0.49999999999999994
    vertex -1.036988173129219 7.499999999999999 0.49999999999999994
  endloop
endfacet
facet normal 2.8044816635921715e-34 -9.01569375169304e-33 1.0
  outer loop
    vertex 1.5000000000000022 7.499999999999999 0.49999999999999994
    vertex -0.49999999999999767 6.999999999999998 0.49999999999999994
    vertex 2.0000000000000018 6.999999999999998 0.49999999999999994
  endloop
endfacet
facet normal 2.8044816635921715e-34 -9.01569375169304e-33 1.0
  outer loop
    vertex 200.5 0.49999999999999994 0.49999999999999994
    vertex 0.0 0.9999999999999999 0.49999999999999994
    vertex 0.0 0.49999999999999994 0.49999999999999994
  endloop
endfacet
facet normal 2.8044816635921715e-34 -9.01569375169304e-33 1.0
  outer loop
    vertex 0.0 0.9999999999999999 0.49999999999999994
    vertex 200.5 0.49999999999999994 0.49999999999999994
    vertex 200.0 0.9999999999999999 0.49999999999999994
  endloop
endfacet
facet normal 2.8044816635921715e-34 -9.01569375169304e-33 1.0
  outer loop
    vertex 200.0 0.9999999999999999 0.49999999999999994
    vertex 200.5 0.49999999999999994 0.49999999999999994
    vertex 200.0 7.0 0.49999999999999994
  endloop
endfacet
facet normal 2.8044816635921715e-34 -9.01569375169304e-33 1.0
  outer loop
    vertex 197.5 7.0 0.49999999999999994
    vertex 198.0 7.5 0.49999999999999994
    vertex 197.5 12.999999999999998 0.49999999999999994
  endloop
endfacet
facet normal 2.8044816635921715e-34 -9.01569375169304e-33 1.0
  outer loop
    vertex 198.0 7.5 0.49999999999999994
    vertex 197.5 7.0 0.49999999999999994
    vertex 200.0 7.0 0.49999999999999994
  endloop
endfacet
facet normal 2.8044816635921715e-34 -9.01569375169304e-33 1.0
  outer loop
    vertex 198.0 7.5 0.49999999999999994
    vertex 200.0 7.0 0.49999999999999994
    vertex 200.5 7.5 0.49999999999999994
  endloop
endfacet
facet normal 2.8044816635921715e-34 -9.01569375169304e-33 1.0
  outer loop
    vertex 200.5 7.5 0.49999999999999994
    vertex 200.0 7.0 0.49999999999999994
    vertex 200.5 0.49999999999999994 0.49999999999999994
  endloop
endfacet
facet normal 2.8044816635921715e-34 -9.01569375169304e-33 1.0
  outer loop
    vertex 175.0 6.999999999999998 0.49999999999999994
    vertex 175.5 7.499999999999999 0.49999999999999994
    vertex 175.0 12.999999999999998 0.49999999999999994
  endloop
endfacet
facet normal 2.8044816635921715e-34 -9.01569375169304e-33 1.0
  outer loop
    vertex 175.5 7.499999999999999 0.49999999999999994
    vertex 175.0 6.999999999999998 0.49999999999999994
    vertex 177.5 6.999999999999998 0.49999999999999994
  endloop
endfacet
facet normal 2.8044816635921715e-34 -9.01569375169304e-33 1.0
  outer loop
    vertex 175.5 7.499999999999999 0.49999999999999994
    vertex 177.5 6.999999999999998 0.49999999999999994
    vertex 177.0 7.499999999999999 0.49999999999999994
  endloop
endfacet
facet normal 2.8044816635921715e-34 -9.01569375169304e-33 1.0
  outer loop
    vertex 177.0 7.499999999999999 0.49999999999999994
    vertex 177.5 6.999999999999998 0.49999999999999994
    vertex 177.0 13.499999999999998 0.49999999999999994
  endloop
endfacet
facet normal 2.8044816635921715e-34 -9.01569375169304e-33 1.0
  outer loop
    vertex 177.0 13.499999999999998 0.49999999999999994
    vertex 177.5 6.999999999999998 0.49999999999999994
    vertex 177.5 12.999999999999998 0.49999999999999994
  endloop
endfacet
facet normal 2.8044816635921715e-34 -9.01569375169304e-33 1.0
  outer loop
    vertex 177.0 13.499999999999998 0.49999999999999994
    vertex 177.5 12.999999999999998 0.49999999999999994
    vertex 198.0 13.499999999999998 0.49999999999999994
  endloop
endfacet
facet normal 2.8044816635921715e-34 -9.01569375169304e-33 1.0
  outer loop
    vertex 198.0 13.499999999999998 0.49999999999999994
    vertex 177.5 12.999999999999998 0.49999999999999994
    vertex 197.5 12.999999999999998 0.49999999999999994
  endloop
endfacet
facet normal 2.8044816635921715e-34 -9.01569375169304e-33 1.0
  outer loop
    vertex 198.0 13.499999999999998 0.49999999999999994
    vertex 197.5 12.999999999999998 0.49999999999999994
    vertex 198.0 7.5 0.49999999999999994
  endloop
endfacet
facet normal 2.8044816635921715e-34 -9.01569375169304e-33 1.0
  outer loop
    vertex 152.5 6.999999999999998 0.49999999999999994
    vertex 153.0 7.499999999999999 0.49999999999999994
    vertex 152.5 12.999999999999998 0.49999999999999994
  endloop
endfacet
facet normal 2.8044816635921715e-34 -9.01569375169304e-33 1.0
  outer loop
    vertex 153.0 7.499999999999999 0.49999999999999994
    vertex 152.5 6.999999999999998 0.49999999999999994
    vertex 155.0 6.999999999999998 0.49999999999999994
  endloop
endfacet
facet normal 2.8044816635921715e-34 -9.01569375169304e-33 1.0
  outer loop
    vertex 153.0 7.499999999999999 0.49999999999999994
    vertex 155.0 6.999999999999998 0.49999999999999994
    vertex 154.5 7.499999999999999 0.49999999999999994
  endloop
endfacet
facet normal 2.8044816635921715e-34 -9.01569375169304e-33 1.0
  outer loop
    vertex 154.5 7.499999999999999 0.49999999999999994
    vertex 155.0 6.999999999999998 0.49999999999999994
    vertex 154.5 13.499999999999998 0.49999999999999994
  endloop
endfacet
facet normal 2.8044816635921715e-34 -9.01569375169304e-33 1.0
  outer loop
    vertex 154.5 13.499999999999998 0.49999999999999994
    vertex 155.0 6.999999999999998 0.49999999999999994
    vertex 155.0 12.999999999999998 0.49999999999999994
  endloop
endfacet
facet normal 2.8044816635921715e-34 -9.01569375169304e-33 1.0
  outer loop
    vertex 154.5 13.499999999999998 0.49999999999999994
    vertex 155.0 12.999999999999998 0.49999999999999994
    vertex 175.5 13.499999999999998 0.49999999999999994
  endloop
endfacet
facet normal 2.8044816635921715e-34 -9.01569375169304e-33 1.0
  outer loop
    vertex 175.5 13.499999999999998 0.49999999999999994
    vertex 155.0 12.999999999999998 0.49999999999999994
    vertex 175.0 12.999999999999998 0.49999999999999994
  endloop
endfacet
facet normal 2.8044816635921715e-34 -9.01569375169304e-33 1.0
  outer loop
    vertex 175.5 13.499999999999998 0.49999999999999994
    vertex 175.0 12.999999999999998 0.49999999999999994
    vertex 175.5 7.499999999999999 0.49999999999999994
  endloop
endfacet
facet normal 2.8044816635921715e-34 -9.01569375169304e-33 1.0
  outer loop
    vertex 130.0 6.999999999999998 0.49999999999999994
    vertex 130.5 7.499999999999999 0.49999999999999994
    vertex 130.0 12.999999999999998 0.49999999999999994
  endloop
endfacet
facet normal 2.8044816635921715e-34 -9.01569375169304e-33 1.0
  outer loop
    vertex 130.5 7.499999999999999 0.49999999999999994
    vertex 130.0 6.999999999999998 0.49999999999999994
    vertex 132.49999999999997 6.999999999999998 0.49999999999999994
  endloop
endfacet
facet normal 2.8044816635921715e-34 -9.01569375169304e-33 1.0
  outer loop
    vertex 130.5 7.499999999999999 0.49999999999999994
    vertex 132.49999999999997 6.999999999999998 0.49999999999999994
    vertex 131.99999999999997 7.499999999999999 0.49999999999999994
  endloop
endfacet
facet normal 2.8044816635921715e-34 -9.01569375169304e-33 1.0
  outer loop
    vertex 131.99999999999997 7.499999999999999 0.49999999999999994
    vertex 132.49999999999997 6.999999999999998 0.49999999999999994
    vertex 131.99999999999997 13.499999999999998 0.49999999999999994
  endloop
endfacet
facet normal 2.8044816635921715e-34 -9.01569375169304e-33 1.0
  outer loop
    vertex 131.99999999999997 13.499999999999998 0.49999999999999994
    vertex 132.49999999999997 6.999999999999998 0.49999999999999994
    vertex 132.49999999999997 12.999999999999998 0.49999999999999994
  endloop
endfacet
facet normal 2.8044816635921715e-34 -9.01569375169304e-33 1.0
  outer loop
    vertex 131.99999999999997 13.499999999999998 0.49999999999999994
    vertex 132.49999999999997 12.999999999999998 0.49999999999999994
    vertex 153.0 13.499999999999998 0.49999999999999994
  endloop
endfacet
facet normal 2.8044816635921715e-34 -9.01569375169304e-33 1.0
  outer loop
    vertex 153.0 13.499999999999998 0.49999999999999994
    vertex 132.49999999999997 12.999999999999998 0.49999999999999994
    vertex 152.5 12.999999999999998 0.49999999999999994
  endloop
endfacet
facet normal 2.8044816635921715e-34 -9.01569375169304e-33 1.0
  outer loop
    vertex 153.0 13.499999999999998 0.49999999999999994
    vertex 152.5 12.999999999999998 0.49999999999999994
    vertex 153.0 7.499999999999999 0.49999999999999994
  endloop
endfacet
facet normal 2.8044816635921715e-34 -9.01569375169304e-33 1.0
  outer loop
    vertex 107.49999999999999 6.999999999999998 0.49999999999999994
    vertex 107.99999999999999 7.499999999999999 0.49999999999999994
    vertex 107.49999999999999 12.999999999999998 0.49999999999999994
  endloop
endfacet
facet normal 2.8044816635921715e-34 -9.01569375169304e-33 1.0
  outer loop
    vertex 107.99999999999999 7.499999999999999 0.49999999999999994
    vertex 107.49999999999999 6.999999999999998 0.49999999999999994
    vertex 109.99999999999999 6.999999999999998 0.49999999999999994
  endloop
endfacet
facet normal 2.8044816635921715e-34 -9.01569375169304e-33 1.0
  outer loop
    vertex 107.99999999999999 7.499999999999999 0.49999999999999994
    vertex 109.99999999999999 6.999999999999998 0.49999999999999994
    vertex 109.49999999999999 7.499999999999999 0.49999999999999994
  endloop
endfacet
facet normal 2.8044816635921715e-34 -9.01569375169304e-33 1.0
  outer loop
    vertex 109.49999999999999 7.499999999999999 0.49999999999999994
    vertex 109.99999999999999 6.999999999999998 0.49999999999999994
    vertex 109.49999999999999 13.499999999999998 0.49999999999999994
  endloop
endfacet
facet normal 2.8044816635921715e-34 -9.01569375169304e-33 1.0
  outer loop
    vertex 109.49999999999999 13.499999999999998 0.49999999999999994
    vertex 109.99999999999999 6.999999999999998 0.49999999999999994
    vertex 109.99999999999999 12.999999999999998 0.49999999999999994
  endloop
endfacet
facet normal 2.8044816635921715e-34 -9.01569375169304e-33 1.0
  outer loop
    vertex 109.49999999999999 13.499999999999998 0.49999999999999994
    vertex 109.99999999999999 12.999999999999998 0.49999999999999994
    vertex 130.5 13.499999999999998 0.49999999999999994
  endloop
endfacet
facet normal 2.8044816635921715e-34 -9.01569375169304e-33 1.0
  outer loop
    vertex 130.5 13.499999999999998 0.49999999999999994
    vertex 109.99999999999999 12.999999999999998 0.49999999999999994
    vertex 130.0 12.999999999999998 0.49999999999999994
  endloop
endfacet
facet normal 2.8044816635921715e-34 -9.01569375169304e-33 1.0
  outer loop
    vertex 130.5 13.499999999999998 0.49999999999999994
    vertex 130.0 12.999999999999998 0.49999999999999994
    vertex 130.5 7.499999999999999 0.49999999999999994
  endloop
endfacet
facet normal 2.8044816635921715e-34 -9.01569375169304e-33 1.0
  outer loop
    vertex 84.99999999999999 6.999999999999998 0.49999999999999994
    vertex 85.49999999999999 7.499999999999999 0.49999999999999994
    vertex 84.99999999999999 12.999999999999998 0.49999999999999994
  endloop
endfacet
facet normal 2.8044816635921715e-34 -9.01569375169304e-33 1.0
  outer loop
    vertex 85.49999999999999 7.499999999999999 0.49999999999999994
    vertex 84.99999999999999 6.999999999999998 0.49999999999999994
    vertex 87.49999999999999 6.999999999999998 0.49999999999999994
  endloop
endfacet
facet normal 2.8044816635921715e-34 -9.01569375169304e-33 1.0
  outer loop
    vertex 85.49999999999999 7.499999999999999 0.49999999999999994
    vertex 87.49999999999999 6.999999999999998 0.49999999999999994
    vertex 86.99999999999999 7.499999999999999 0.49999999999999994
  endloop
endfacet
facet normal 2.8044816635921715e-34 -9.01569375169304e-33 1.0
  outer loop
    vertex 86.99999999999999 7.499999999999999 0.49999999999999994
    vertex 87.49999999999999 6.999999999999998 0.49999999999999994
    vertex 86.99999999999999 13.499999999999998 0.49999999999999994
  endloop
endfacet
facet normal 2.8044816635921715e-34 -9.01569375169304e-33 1.0
  outer loop
    vertex 86.99999999999999 13.499999999999998 0.49999999999999994
    vertex 87.49999999999999 6.999999999999998 0.49999999999999994
    vertex 87.49999999999999 12.999999999999998 0.49999999999999994
  endloop
endfacet
facet normal 2.8044816635921715e-34 -9.01569375169304e-33 1.0
  outer loop
    vertex 86.99999999999999 13.499999999999998 0.49999999999999994
    vertex 87.49999999999999 12.999999999999998 0.49999999999999994
    vertex 107.99999999999999 13.499999999999998 0.49999999999999994
  endloop
endfacet
facet normal 2.8044816635921715e-34 -9.01569375169304e-33 1.0
  outer loop
    vertex 107.99999999999999 13.499999999999998 0.49999999999999994
    vertex 87.49999999999999 12.999999999999998 0.49999999999999994
    vertex 107.49999999999999 12.999999999999998 0.49999999999999994
  endloop
endfacet
facet normal 2.8044816635921715e-34 -9.01569375169304e-33 1.0
  outer loop
    vertex 107.99999999999999 13.499999999999998 0.49999999999999994
    vertex 107.49999999999999 12.999999999999998 0.49999999999999994
    vertex 107.99999999999999 7.499999999999999 0.49999999999999994
  endloop
endfacet
facet normal 2.8044816635921715e-34 -9.01569375169304e-33 1.0
  outer loop
    vertex 62.5 6.999999999999998 0.49999999999999994
    vertex 63.0 7.499999999999999 0.49999999999999994
    vertex 62.5 12.999999999999998 0.49999999999999994
  endloop
endfacet
facet normal 2.8044816635921715e-34 -9.01569375169304e-33 1.0
  outer loop
    vertex 63.0 7.499999999999999 0.49999999999999994
    vertex 62.5 6.999999999999998 0.49999999999999994
    vertex 65.0 6.999999999999998 0.49999999999999994
  endloop
endfacet
facet normal 2.8044816635921715e-34 -9.01569375169304e-33 1.0
  outer loop
    vertex 63.0 7.499999999999999 0.49999999999999994
    vertex 65.0 6.999999999999998 0.49999999999999994
    vertex 64.5 7.499999999999999 0.49999999999999994
  endloop
endfacet
facet normal 2.8044816635921715e-34 -9.01569375169304e-33 1.0
  outer loop
    vertex 64.5 7.499999999999999 0.49999999999999994
    vertex 65.0 6.999999999999998 0.49999999999999994
    vertex 64.5 13.499999999999998 0.49999999999999994
  endloop
endfacet
facet normal 2.8044816635921715e-34 -9.01569375169304e-33 1.0
  outer loop
    vertex 64.5 13.499999999999998 0.49999999999999994
    vertex 65.0 6.999999999999998 0.49999999999999994
    vertex 65.0 12.999999999999998 0.49999999999999994
  endloop
endfacet
facet normal 2.8044816635921715e-34 -9.01569375169304e-33 1.0
  outer loop
    vertex 64.5 13.499999999999998 0.49999999999999994
    vertex 65.0 12.999999999999998 0.49999999999999994
    vertex 85.49999999999999 13.499999999999998 0.49999999999999994
  endloop
endfacet
facet normal 2.8044816635921715e-34 -9.01569375169304e-33 1.0
  outer loop
    vertex 85.49999999999999 13.499999999999998 0.49999999999999994
    vertex 65.0 12.999999999999998 0.49999999999999994
    vertex 84.99999999999999 12.999999999999998 0.49999999999999994
  endloop
endfacet
facet normal 2.8044816635921715e-34 -9.01569375169304e-33 1.0
  outer loop
    vertex 85.49999999999999 13.499999999999998 0.49999999999999994
    vertex 84.99999999999999 12.999999999999998 0.49999999999999994
    vertex 85.49999999999999 7.499999999999999 0.49999999999999994
  endloop
endfacet
facet normal 2.8044816635921715e-34 -9.01569375169304e-33 1.0
  outer loop
    vertex 40.0 6.999999999999998 0.49999999999999994
    vertex 40.5 7.499999999999999 0.49999999999999994
    vertex 40.0 12.999999999999998 0.49999999999999994
  endloop
endfacet
facet normal 2.8044816635921715e-34 -9.01569375169304e-33 1.0
  outer loop
    vertex 40.5 7.499999999999999 0.49999999999999994
    vertex 40.0 6.999999999999998 0.49999999999999994
    vertex 42.5 6.999999999999998 0.49999999999999994
  endloop
endfacet
facet normal 2.8044816635921715e-34 -9.01569375169304e-33 1.0
  outer loop
    vertex 40.5 7.499999999999999 0.49999999999999994
    vertex 42.5 6.999999999999998 0.49999999999999994
    vertex 42.0 7.499999999999999 0.49999999999999994
  endloop
endfacet
facet normal 2.8044816635921715e-34 -9.01569375169304e-33 1.0
  outer loop
    vertex 42.0 7.499999999999999 0.49999999999999994
    vertex 42.5 6.999999999999998 0.49999999999999994
    vertex 42.0 13.499999999999998 0.49999999999999994
  endloop
endfacet
facet normal 2.8044816635921715e-34 -9.01569375169304e-33 1.0
  outer loop
    vertex 42.0 13.499999999999998 0.49999999999999994
    vertex 42.5 6.999999999999998 0.49999999999999994
    vertex 42.5 12.999999999999998 0.49999999999999994
  endloop
endfacet
facet normal 2.8044816635921715e-34 -9.01569375169304e-33 1.0
  outer loop
    vertex 42.0 13.499999999999998 0.49999999999999994
    vertex 42.5 12.999999999999998 0.49999999999999994
    vertex 63.0 13.499999999999998 0.49999999999999994
  endloop
endfacet
facet normal 2.8044816635921715e-34 -9.01569375169304e-33 1.0
  outer loop
    vertex 63.0 13.499999999999998 0.49999999999999994
    vertex 42.5 12.999999999999998 0.49999999999999994
    vertex 62.5 12.999999999999998 0.49999999999999994
  endloop
endfacet
facet normal 2.8044816635921715e-34 -9.01569375169304e-33 1.0
  outer loop
    vertex 63.0 13.499999999999998 0.49999999999999994
    vertex 62.5 12.999999999999998 0.49999999999999994
    vertex 63.0 7.499999999999999 0.49999999999999994
  endloop
endfacet
facet normal 2.8044816635921715e-34 -9.01569375169304e-33 1.0
  outer loop
    vertex 17.5 6.999999999999998 0.49999999999999994
    vertex 18.0 7.499999999999999 0.49999999999999994
    vertex 17.5 12.999999999999998 0.49999999999999994
  endloop
endfacet
facet normal 2.8044816635921715e-34 -9.01569375169304e-33 1.0
  outer loop
    vertex 18.0 7.499999999999999 0.49999999999999994
    vertex 17.5 6.999999999999998 0.49999999999999994
    vertex 20.0 6.999999999999998 0.49999999999999994
  endloop
endfacet
facet normal 2.8044816635921715e-34 -9.01569375169304e-33 1.0
  outer loop
    vertex 18.0 7.499999999999999 0.49999999999999994
    vertex 20.0 6.999999999999998 0.49999999999999994
    vertex 19.5 7.499999999999999 0.49999999999999994
  endloop
endfacet
facet normal 2.8044816635921715e-34 -9.01569375169304e-33 1.0
  outer loop
    vertex 19.5 7.499999999999999 0.49999999999999994
    vertex 20.0 6.999999999999998 0.49999999999999994
    vertex 19.5 13.499999999999998 0.49999999999999994
  endloop
endfacet
facet normal 2.8044816635921715e-34 -9.01569375169304e-33 1.0
  outer loop
    vertex 19.5 13.499999999999998 0.49999999999999994
    vertex 20.0 6.999999999999998 0.49999999999999994
    vertex 20.0 12.999999999999998 0.49999999999999994
  endloop
endfacet
facet normal 2.8044816635921715e-34 -9.01569375169304e-33 1.0
  outer loop
    vertex 19.5 13.499999999999998 0.49999999999999994
    vertex 20.0 12.999999999999998 0.49999999999999994
    vertex 40.5 13.499999999999998 0.49999999999999994
  endloop
endfacet
facet normal 2.8044816635921715e-34 -9.01569375169304e-33 1.0
  outer loop
    vertex 40.5 13.499999999999998 0.49999999999999994
    vertex 20.0 12.999999999999998 0.49999999999999994
    vertex 40.0 12.999999999999998 0.49999999999999994
  endloop
endfacet
facet normal 2.8044816635921715e-34 -9.01569375169304e-33 1.0
  outer loop
    vertex 40.5 13.499999999999998 0.49999999999999994
    vertex 40.0 12.999999999999998 0.49999999999999994
    vertex 40.5 7.499999999999999 0.49999999999999994
  endloop
endfacet
facet normal 2.8044816635921715e-34 -9.01569375169304e-33 1.0
  outer loop
    vertex 1.500000000000002 13.499999999999998 0.49999999999999994
    vertex 2.0000000000000018 12.999999999999998 0.49999999999999994
    vertex 18.0 13.499999999999998 0.49999999999999994
  endloop
endfacet
facet normal 2.8044816635921715e-34 -9.01569375169304e-33 1.0
  outer loop
    vertex 2.0000000000000018 12.999999999999998 0.49999999999999994
    vertex 1.500000000000002 13.499999999999998 0.49999999999999994
    vertex 1.5000000000000022 7.499999999999999 0.49999999999999994
  endloop
endfacet
facet normal 2.8044816635921715e-34 -9.01569375169304e-33 1.0
  outer loop
    vertex 2.0000000000000018 12.999999999999998 0.49999999999999994
    vertex 1.5000000000000022 7.499999999999999 0.49999999999999994
    vertex 2.0000000000000018 6.999999999999998 0.49999999999999994
  endloop
endfacet
facet normal 2.8044816635921715e-34 -9.01569375169304e-33 1.0
  outer loop
    vertex 18.0 13.499999999999998 0.49999999999999994
    vertex 2.0000000000000018 12.999999999999998 0.49999999999999994
    vertex 17.5 12.999999999999998 0.49999999999999994
  endloop
endfacet
facet normal 2.8044816635921715e-34 -9.01569375169304e-33 1.0
  outer loop
    vertex 18.0 13.499999999999998 0.49999999999999994
    vertex 17.5 12.999999999999998 0.49999999999999994
    vertex 18.0 7.499999999999999 0.49999999999999994
  endloop
endfacet
facet normal -0.0 1.0 0.0
  outer loop
    vertex 1.500000000000002 13.499999999999998 0.49999999999999994
    vertex 18.0 13.499999999999998 0.0
    vertex 1.500000000000002 13.499999999999998 0.0
  endloop
endfacet
facet normal -0.0 1.0 0.0
  outer loop
    vertex 18.0 13.499999999999998 0.0
    vertex 1.500000000000002 13.499999999999998 0.49999999999999994
    vertex 18.0 13.499999999999998 0.49999999999999994
  endloop
endfacet
facet normal -0.0 1.0 0.0
  outer loop
    vertex 18.0 7.499999999999999 0.49999999999999994
    vertex 19.5 7.499999999999999 0.0
    vertex 18.0 7.499999999999999 0.0
  endloop
endfacet
facet normal -0.0 1.0 0.0
  outer loop
    vertex 19.5 7.499999999999999 0.0
    vertex 18.0 7.499999999999999 0.49999999999999994
    vertex 19.5 7.499999999999999 0.49999999999999994
  endloop
endfacet
facet normal -1.0 0.0 0.0
  outer loop
    vertex 19.5 13.499999999999998 0.49999999999999994
    vertex 19.5 7.499999999999999 0.0
    vertex 19.5 7.499999999999999 0.49999999999999994
  endloop
endfacet
facet normal -1.0 0.0 0.0
  outer loop
    vertex 19.5 7.499999999999999 0.0
    vertex 19.5 13.499999999999998 0.49999999999999994
    vertex 19.5 13.499999999999998 0.0
  endloop
endfacet
facet normal 1.0 0.0 0.0
  outer loop
    vertex 107.99999999999999 13.499999999999998 0.0
    vertex 107.99999999999999 7.499999999999999 0.49999999999999994
    vertex 107.99999999999999 7.499999999999999 0.0
  endloop
endfacet
facet normal 1.0 0.0 0.0
  outer loop
    vertex 107.99999999999999 7.499999999999999 0.49999999999999994
    vertex 107.99999999999999 13.499999999999998 0.0
    vertex 107.99999999999999 13.499999999999998 0.49999999999999994
  endloop
endfacet
facet normal -1.0 0.0 0.0
  outer loop
    vertex 154.5 13.499999999999998 0.49999999999999994
    vertex 154.5 7.499999999999999 0.0
    vertex 154.5 7.499999999999999 0.49999999999999994
  endloop
endfacet
facet normal -1.0 0.0 0.0
  outer loop
    vertex 154.5 7.499999999999999 0.0
    vertex 154.5 13.499999999999998 0.49999999999999994
    vertex 154.5 13.499999999999998 0.0
  endloop
endfacet
facet normal -0.0 1.0 0.0
  outer loop
    vertex 63.0 7.499999999999999 0.49999999999999994
    vertex 64.5 7.499999999999999 0.0
    vertex 63.0 7.499999999999999 0.0
  endloop
endfacet
facet normal -0.0 1.0 0.0
  outer loop
    vertex 64.5 7.499999999999999 0.0
    vertex 63.0 7.499999999999999 0.49999999999999994
    vertex 64.5 7.499999999999999 0.49999999999999994
  endloop
endfacet
facet normal -1.0 0.0 0.0
  outer loop
    vertex 42.0 13.499999999999998 0.49999999999999994
    vertex 42.0 7.499999999999999 0.0
    vertex 42.0 7.499999999999999 0.49999999999999994
  endloop
endfacet
facet normal -1.0 0.0 0.0
  outer loop
    vertex 42.0 7.499999999999999 0.0
    vertex 42.0 13.499999999999998 0.49999999999999994
    vertex 42.0 13.499999999999998 0.0
  endloop
endfacet
facet normal -0.0 1.0 0.0
  outer loop
    vertex 130.5 7.499999999999999 0.49999999999999994
    vertex 131.99999999999997 7.499999999999999 0.0
    vertex 130.5 7.499999999999999 0.0
  endloop
endfacet
facet normal -0.0 1.0 0.0
  outer loop
    vertex 131.99999999999997 7.499999999999999 0.0
    vertex 130.5 7.499999999999999 0.49999999999999994
    vertex 131.99999999999997 7.499999999999999 0.49999999999999994
  endloop
endfacet
facet normal 1.0 0.0 0.0
  outer loop
    vertex 198.0 13.499999999999998 0.0
    vertex 198.0 7.5 0.49999999999999994
    vertex 198.0 7.5 0.0
  endloop
endfacet
facet normal 1.0 0.0 0.0
  outer loop
    vertex 198.0 7.5 0.49999999999999994
    vertex 198.0 13.499999999999998 0.0
    vertex 198.0 13.499999999999998 0.49999999999999994
  endloop
endfacet
facet normal -1.0 0.0 0.0
  outer loop
    vertex 197.5 12.999999999999998 0.49999999999999994
    vertex 197.5 7.0 0.0
    vertex 197.5 7.0 0.49999999999999994
  endloop
endfacet
facet normal -1.0 0.0 0.0
  outer loop
    vertex 197.5 7.0 0.0
    vertex 197.5 12.999999999999998 0.49999999999999994
    vertex 197.5 12.999999999999998 0.0
  endloop
endfacet
facet normal 1.0 0.0 0.0
  outer loop
    vertex 175.5 13.499999999999998 0.0
    vertex 175.5 7.499999999999999 0.49999999999999994
    vertex 175.5 7.499999999999999 0.0
  endloop
endfacet
facet normal 1.0 0.0 0.0
  outer loop
    vertex 175.5 7.499999999999999 0.49999999999999994
    vertex 175.5 13.499999999999998 0.0
    vertex 175.5 13.499999999999998 0.49999999999999994
  endloop
endfacet
facet normal -0.0 1.0 0.0
  outer loop
    vertex 42.0 13.499999999999998 0.49999999999999994
    vertex 63.0 13.499999999999998 0.0
    vertex 42.0 13.499999999999998 0.0
  endloop
endfacet
facet normal -0.0 1.0 0.0
  outer loop
    vertex 63.0 13.499999999999998 0.0
    vertex 42.0 13.499999999999998 0.49999999999999994
    vertex 63.0 13.499999999999998 0.49999999999999994
  endloop
endfacet
facet normal -0.0 1.0 0.0
  outer loop
    vertex 175.5 7.499999999999999 0.49999999999999994
    vertex 177.0 7.499999999999999 0.0
    vertex 175.5 7.499999999999999 0.0
  endloop
endfacet
facet normal -0.0 1.0 0.0
  outer loop
    vertex 177.0 7.499999999999999 0.0
    vertex 175.5 7.499999999999999 0.49999999999999994
    vertex 177.0 7.499999999999999 0.49999999999999994
  endloop
endfacet
facet normal -0.0 -1.0 -0.0
  outer loop
    vertex 197.5 12.999999999999998 0.49999999999999994
    vertex 177.5 12.999999999999998 0.0
    vertex 197.5 12.999999999999998 0.0
  endloop
endfacet
facet normal -0.0 -1.0 -0.0
  outer loop
    vertex 177.5 12.999999999999998 0.0
    vertex 197.5 12.999999999999998 0.49999999999999994
    vertex 177.5 12.999999999999998 0.49999999999999994
  endloop
endfacet
facet normal -0.0 -1.0 -0.0
  outer loop
    vertex 177.5 6.999999999999998 0.49999999999999994
    vertex 175.0 6.999999999999998 0.0
    vertex 177.5 6.999999999999998 0.0
  endloop
endfacet
facet normal -0.0 -1.0 -0.0
  outer loop
    vertex 175.0 6.999999999999998 0.0
    vertex 177.5 6.999999999999998 0.49999999999999994
    vertex 175.0 6.999999999999998 0.49999999999999994
  endloop
endfacet
facet normal 1.0 0.0 0.0
  outer loop
    vertex 132.49999999999997 12.999999999999998 0.0
    vertex 132.49999999999997 6.999999999999998 0.49999999999999994
    vertex 132.49999999999997 6.999999999999998 0.0
  endloop
endfacet
facet normal 1.0 0.0 0.0
  outer loop
    vertex 132.49999999999997 6.999999999999998 0.49999999999999994
    vertex 132.49999999999997 12.999999999999998 0.0
    vertex 132.49999999999997 12.999999999999998 0.49999999999999994
  endloop
endfacet
facet normal -0.0 -1.0 -0.0
  outer loop
    vertex 109.99999999999999 6.999999999999998 0.49999999999999994
    vertex 107.49999999999999 6.999999999999998 0.0
    vertex 109.99999999999999 6.999999999999998 0.0
  endloop
endfacet
facet normal -0.0 -1.0 -0.0
  outer loop
    vertex 107.49999999999999 6.999999999999998 0.0
    vertex 109.99999999999999 6.999999999999998 0.49999999999999994
    vertex 107.49999999999999 6.999999999999998 0.49999999999999994
  endloop
endfacet
facet normal -1.0 0.0 0.0
  outer loop
    vertex 84.99999999999999 12.999999999999998 0.49999999999999994
    vertex 84.99999999999999 6.999999999999998 0.0
    vertex 84.99999999999999 6.999999999999998 0.49999999999999994
  endloop
endfacet
facet normal -1.0 0.0 0.0
  outer loop
    vertex 84.99999999999999 6.999999999999998 0.0
    vertex 84.99999999999999 12.999999999999998 0.49999999999999994
    vertex 84.99999999999999 12.999999999999998 0.0
  endloop
endfacet
facet normal 1.0 0.0 0.0
  outer loop
    vertex 65.0 12.999999999999998 0.0
    vertex 65.0 6.999999999999998 0.49999999999999994
    vertex 65.0 6.999999999999998 0.0
  endloop
endfacet
facet normal 1.0 0.0 0.0
  outer loop
    vertex 65.0 6.999999999999998 0.49999999999999994
    vertex 65.0 12.999999999999998 0.0
    vertex 65.0 12.999999999999998 0.49999999999999994
  endloop
endfacet
facet normal 1.0 0.0 0.0
  outer loop
    vertex 63.0 13.499999999999998 0.0
    vertex 63.0 7.499999999999999 0.49999999999999994
    vertex 63.0 7.499999999999999 0.0
  endloop
endfacet
facet normal 1.0 0.0 0.0
  outer loop
    vertex 63.0 7.499999999999999 0.49999999999999994
    vertex 63.0 13.499999999999998 0.0
    vertex 63.0 13.499999999999998 0.49999999999999994
  endloop
endfacet
facet normal 1.0 0.0 0.0
  outer loop
    vertex 40.5 13.499999999999998 0.0
    vertex 40.5 7.499999999999999 0.49999999999999994
    vertex 40.5 7.499999999999999 0.0
  endloop
endfacet
facet normal 1.0 0.0 0.0
  outer loop
    vertex 40.5 7.499999999999999 0.49999999999999994
    vertex 40.5 13.499999999999998 0.0
    vertex 40.5 13.499999999999998 0.49999999999999994
  endloop
endfacet
facet normal 0.9974586998307352 0.07124704998790934 -0.0
  outer loop
    vertex -0.49999999999999767 6.999999999999998 0.0
    vertex 0.0 0.0 0.49999999999999994
    vertex 0.0 0.0 0.0
  endloop
endfacet
facet normal 0.9974586998307352 0.07124704998790934 -0.0
  outer loop
    vertex 0.0 0.0 0.49999999999999994
    vertex -0.49999999999999767 6.999999999999998 0.0
    vertex -0.49999999999999767 6.999999999999998 0.49999999999999994
  endloop
endfacet
facet normal -1.0 0.0 0.0
  outer loop
    vertex 200.0 7.0 0.49999999999999994
    vertex 200.0 0.9999999999999999 0.0
    vertex 200.0 0.9999999999999999 0.49999999999999994
  endloop
endfacet
facet normal -1.0 0.0 0.0
  outer loop
    vertex 200.0 0.9999999999999999 0.0
    vertex 200.0 7.0 0.49999999999999994
    vertex 200.0 7.0 0.0
  endloop
endfacet
facet normal 1.0 0.0 0.0
  outer loop
    vertex 177.5 12.999999999999998 0.0
    vertex 177.5 6.999999999999998 0.49999999999999994
    vertex 177.5 6.999999999999998 0.0
  endloop
endfacet
facet normal 1.0 0.0 0.0
  outer loop
    vertex 177.5 6.999999999999998 0.49999999999999994
    vertex 177.5 12.999999999999998 0.0
    vertex 177.5 12.999999999999998 0.49999999999999994
  endloop
endfacet
facet normal -0.0 -1.0 -0.0
  outer loop
    vertex 65.0 6.999999999999998 0.49999999999999994
    vertex 62.5 6.999999999999998 0.0
    vertex 65.0 6.999999999999998 0.0
  endloop
endfacet
facet normal -0.0 -1.0 -0.0
  outer loop
    vertex 62.5 6.999999999999998 0.0
    vertex 65.0 6.999999999999998 0.49999999999999994
    vertex 62.5 6.999999999999998 0.49999999999999994
  endloop
endfacet
facet normal -0.0 1.0 0.0
  outer loop
    vertex 19.5 13.499999999999998 0.49999999999999994
    vertex 40.5 13.499999999999998 0.0
    vertex 19.5 13.499999999999998 0.0
  endloop
endfacet
facet normal -0.0 1.0 0.0
  outer loop
    vertex 40.5 13.499999999999998 0.0
    vertex 19.5 13.499999999999998 0.49999999999999994
    vertex 40.5 13.499999999999998 0.49999999999999994
  endloop
endfacet
facet normal -0.0 1.0 0.0
  outer loop
    vertex 131.99999999999997 13.499999999999998 0.49999999999999994
    vertex 153.0 13.499999999999998 0.0
    vertex 131.99999999999997 13.499999999999998 0.0
  endloop
endfacet
facet normal -0.0 1.0 0.0
  outer loop
    vertex 153.0 13.499999999999998 0.0
    vertex 131.99999999999997 13.499999999999998 0.49999999999999994
    vertex 153.0 13.499999999999998 0.49999999999999994
  endloop
endfacet
facet normal -1.0 0.0 0.0
  outer loop
    vertex 177.0 13.499999999999998 0.49999999999999994
    vertex 177.0 7.499999999999999 0.0
    vertex 177.0 7.499999999999999 0.49999999999999994
  endloop
endfacet
facet normal -1.0 0.0 0.0
  outer loop
    vertex 177.0 7.499999999999999 0.0
    vertex 177.0 13.499999999999998 0.49999999999999994
    vertex 177.0 13.499999999999998 0.0
  endloop
endfacet
facet normal 1.0 0.0 0.0
  outer loop
    vertex 153.0 13.499999999999998 0.0
    vertex 153.0 7.499999999999999 0.49999999999999994
    vertex 153.0 7.499999999999999 0.0
  endloop
endfacet
facet normal 1.0 0.0 0.0
  outer loop
    vertex 153.0 7.499999999999999 0.49999999999999994
    vertex 153.0 13.499999999999998 0.0
    vertex 153.0 13.499999999999998 0.49999999999999994
  endloop
endfacet
facet normal -0.0 1.0 0.0
  outer loop
    vertex 107.99999999999999 7.499999999999999 0.49999999999999994
    vertex 109.49999999999999 7.499999999999999 0.0
    vertex 107.99999999999999 7.499999999999999 0.0
  endloop
endfacet
facet normal -0.0 1.0 0.0
  outer loop
    vertex 109.49999999999999 7.499999999999999 0.0
    vertex 107.99999999999999 7.499999999999999 0.49999999999999994
    vertex 109.49999999999999 7.499999999999999 0.49999999999999994
  endloop
endfacet
facet normal -0.0 -1.0 -0.0
  outer loop
    vertex 132.49999999999997 6.999999999999998 0.49999999999999994
    vertex 130.0 6.999999999999998 0.0
    vertex 132.49999999999997 6.999999999999998 0.0
  endloop
endfacet
facet normal -0.0 -1.0 -0.0
  outer loop
    vertex 130.0 6.999999999999998 0.0
    vertex 132.49999999999997 6.999999999999998 0.49999999999999994
    vertex 130.0 6.999999999999998 0.49999999999999994
  endloop
endfacet
facet normal -0.0 -1.0 -0.0
  outer loop
    vertex 107.49999999999999 12.999999999999998 0.49999999999999994
    vertex 87.49999999999999 12.999999999999998 0.0
    vertex 107.49999999999999 12.999999999999998 0.0
  endloop
endfacet
facet normal -0.0 -1.0 -0.0
  outer loop
    vertex 87.49999999999999 12.999999999999998 0.0
    vertex 107.49999999999999 12.999999999999998 0.49999999999999994
    vertex 87.49999999999999 12.999999999999998 0.49999999999999994
  endloop
endfacet
facet normal 1.0 0.0 0.0
  outer loop
    vertex 130.5 13.499999999999998 0.0
    vertex 130.5 7.499999999999999 0.49999999999999994
    vertex 130.5 7.499999999999999 0.0
  endloop
endfacet
facet normal 1.0 0.0 0.0
  outer loop
    vertex 130.5 7.499999999999999 0.49999999999999994
    vertex 130.5 13.499999999999998 0.0
    vertex 130.5 13.499999999999998 0.49999999999999994
  endloop
endfacet
facet normal 1.0 0.0 0.0
  outer loop
    vertex 109.99999999999999 12.999999999999998 0.0
    vertex 109.99999999999999 6.999999999999998 0.49999999999999994
    vertex 109.99999999999999 6.999999999999998 0.0
  endloop
endfacet
facet normal 1.0 0.0 0.0
  outer loop
    vertex 109.99999999999999 6.999999999999998 0.49999999999999994
    vertex 109.99999999999999 12.999999999999998 0.0
    vertex 109.99999999999999 12.999999999999998 0.49999999999999994
  endloop
endfacet
facet normal 1.0 0.0 0.0
  outer loop
    vertex 87.49999999999999 12.999999999999998 0.0
    vertex 87.49999999999999 6.999999999999998 0.49999999999999994
    vertex 87.49999999999999 6.999999999999998 0.0
  endloop
endfacet
facet normal 1.0 0.0 0.0
  outer loop
    vertex 87.49999999999999 6.999999999999998 0.49999999999999994
    vertex 87.49999999999999 12.999999999999998 0.0
    vertex 87.49999999999999 12.999999999999998 0.49999999999999994
  endloop
endfacet
facet normal -1.0 0.0 0.0
  outer loop
    vertex 62.5 12.999999999999998 0.49999999999999994
    vertex 62.5 6.999999999999998 0.0
    vertex 62.5 6.999999999999998 0.49999999999999994
  endloop
endfacet
facet normal -1.0 0.0 0.0
  outer loop
    vertex 62.5 6.999999999999998 0.0
    vertex 62.5 12.999999999999998 0.49999999999999994
    vertex 62.5 12.999999999999998 0.0
  endloop
endfacet
facet normal 1.0 0.0 0.0
  outer loop
    vertex 42.5 12.999999999999998 0.0
    vertex 42.5 6.999999999999998 0.49999999999999994
    vertex 42.5 6.999999999999998 0.0
  endloop
endfacet
facet normal 1.0 0.0 0.0
  outer loop
    vertex 42.5 6.999999999999998 0.49999999999999994
    vertex 42.5 12.999999999999998 0.0
    vertex 42.5 12.999999999999998 0.49999999999999994
  endloop
endfacet
facet normal -0.0 -1.0 -0.0
  outer loop
    vertex 42.5 6.999999999999998 0.49999999999999994
    vertex 40.0 6.999999999999998 0.0
    vertex 42.5 6.999999999999998 0.0
  endloop
endfacet
facet normal -0.0 -1.0 -0.0
  outer loop
    vertex 40.0 6.999999999999998 0.0
    vertex 42.5 6.999999999999998 0.49999999999999994
    vertex 40.0 6.999999999999998 0.49999999999999994
  endloop
endfacet
facet normal -1.0 0.0 0.0
  outer loop
    vertex 40.0 12.999999999999998 0.49999999999999994
    vertex 40.0 6.999999999999998 0.0
    vertex 40.0 6.999999999999998 0.49999999999999994
  endloop
endfacet
facet normal -1.0 0.0 0.0
  outer loop
    vertex 40.0 6.999999999999998 0.0
    vertex 40.0 12.999999999999998 0.49999999999999994
    vertex 40.0 12.999999999999998 0.0
  endloop
endfacet
facet normal -0.0 1.0 0.0
  outer loop
    vertex 109.49999999999999 13.499999999999998 0.49999999999999994
    vertex 130.5 13.499999999999998 0.0
    vertex 109.49999999999999 13.499999999999998 0.0
  endloop
endfacet
facet normal -0.0 1.0 0.0
  outer loop
    vertex 130.5 13.499999999999998 0.0
    vertex 109.49999999999999 13.499999999999998 0.49999999999999994
    vertex 130.5 13.499999999999998 0.49999999999999994
  endloop
endfacet
facet normal -0.0 1.0 0.0
  outer loop
    vertex 86.99999999999999 13.499999999999998 0.49999999999999994
    vertex 107.99999999999999 13.499999999999998 0.0
    vertex 86.99999999999999 13.499999999999998 0.0
  endloop
endfacet
facet normal -0.0 1.0 0.0
  outer loop
    vertex 107.99999999999999 13.499999999999998 0.0
    vertex 86.99999999999999 13.499999999999998 0.49999999999999994
    vertex 107.99999999999999 13.499999999999998 0.49999999999999994
  endloop
endfacet
facet normal -1.0 0.0 0.0
  outer loop
    vertex 109.49999999999999 13.499999999999998 0.49999999999999994
    vertex 109.49999999999999 7.499999999999999 0.0
    vertex 109.49999999999999 7.499999999999999 0.49999999999999994
  endloop
endfacet
facet normal -1.0 0.0 0.0
  outer loop
    vertex 109.49999999999999 7.499999999999999 0.0
    vertex 109.49999999999999 13.499999999999998 0.49999999999999994
    vertex 109.49999999999999 13.499999999999998 0.0
  endloop
endfacet
facet normal -0.0 1.0 0.0
  outer loop
    vertex 154.5 13.499999999999998 0.49999999999999994
    vertex 175.5 13.499999999999998 0.0
    vertex 154.5 13.499999999999998 0.0
  endloop
endfacet
facet normal -0.0 1.0 0.0
  outer loop
    vertex 175.5 13.499999999999998 0.0
    vertex 154.5 13.499999999999998 0.49999999999999994
    vertex 175.5 13.499999999999998 0.49999999999999994
  endloop
endfacet
facet normal -0.0 1.0 0.0
  outer loop
    vertex 198.0 7.5 0.49999999999999994
    vertex 200.5 7.5 0.0
    vertex 198.0 7.5 0.0
  endloop
endfacet
facet normal -0.0 1.0 0.0
  outer loop
    vertex 200.5 7.5 0.0
    vertex 198.0 7.5 0.49999999999999994
    vertex 200.5 7.5 0.49999999999999994
  endloop
endfacet
facet normal -0.0 -1.0 -0.0
  outer loop
    vertex 152.5 12.999999999999998 0.49999999999999994
    vertex 132.49999999999997 12.999999999999998 0.0
    vertex 152.5 12.999999999999998 0.0
  endloop
endfacet
facet normal -0.0 -1.0 -0.0
  outer loop
    vertex 132.49999999999997 12.999999999999998 0.0
    vertex 152.5 12.999999999999998 0.49999999999999994
    vertex 132.49999999999997 12.999999999999998 0.49999999999999994
  endloop
endfacet
facet normal -0.0 1.0 0.0
  outer loop
    vertex 177.0 13.499999999999998 0.49999999999999994
    vertex 198.0 13.499999999999998 0.0
    vertex 177.0 13.499999999999998 0.0
  endloop
endfacet
facet normal -0.0 1.0 0.0
  outer loop
    vertex 198.0 13.499999999999998 0.0
    vertex 177.0 13.499999999999998 0.49999999999999994
    vertex 198.0 13.499999999999998 0.49999999999999994
  endloop
endfacet
facet normal -1.0 0.0 0.0
  outer loop
    vertex 130.0 12.999999999999998 0.49999999999999994
    vertex 130.0 6.999999999999998 0.0
    vertex 130.0 6.999999999999998 0.49999999999999994
  endloop
endfacet
facet normal -1.0 0.0 0.0
  outer loop
    vertex 130.0 6.999999999999998 0.0
    vertex 130.0 12.999999999999998 0.49999999999999994
    vertex 130.0 12.999999999999998 0.0
  endloop
endfacet
facet normal -0.0 -1.0 -0.0
  outer loop
    vertex 130.0 12.999999999999998 0.49999999999999994
    vertex 109.99999999999999 12.999999999999998 0.0
    vertex 130.0 12.999999999999998 0.0
  endloop
endfacet
facet normal -0.0 -1.0 -0.0
  outer loop
    vertex 109.99999999999999 12.999999999999998 0.0
    vertex 130.0 12.999999999999998 0.49999999999999994
    vertex 109.99999999999999 12.999999999999998 0.49999999999999994
  endloop
endfacet
facet normal -0.0 1.0 0.0
  outer loop
    vertex 85.49999999999999 7.499999999999999 0.49999999999999994
    vertex 86.99999999999999 7.499999999999999 0.0
    vertex 85.49999999999999 7.499999999999999 0.0
  endloop
endfacet
facet normal -0.0 1.0 0.0
  outer loop
    vertex 86.99999999999999 7.499999999999999 0.0
    vertex 85.49999999999999 7.499999999999999 0.49999999999999994
    vertex 86.99999999999999 7.499999999999999 0.49999999999999994
  endloop
endfacet
facet normal -0.0 -1.0 -0.0
  outer loop
    vertex 155.0 6.999999999999998 0.49999999999999994
    vertex 152.5 6.999999999999998 0.0
    vertex 155.0 6.999999999999998 0.0
  endloop
endfacet
facet normal -0.0 -1.0 -0.0
  outer loop
    vertex 152.5 6.999999999999998 0.0
    vertex 155.0 6.999999999999998 0.49999999999999994
    vertex 152.5 6.999999999999998 0.49999999999999994
  endloop
endfacet
facet normal -0.0 -1.0 -0.0
  outer loop
    vertex 84.99999999999999 12.999999999999998 0.49999999999999994
    vertex 65.0 12.999999999999998 0.0
    vertex 84.99999999999999 12.999999999999998 0.0
  endloop
endfacet
facet normal -0.0 -1.0 -0.0
  outer loop
    vertex 65.0 12.999999999999998 0.0
    vertex 84.99999999999999 12.999999999999998 0.49999999999999994
    vertex 65.0 12.999999999999998 0.49999999999999994
  endloop
endfacet
facet normal -1.0 0.0 0.0
  outer loop
    vertex 64.5 13.499999999999998 0.49999999999999994
    vertex 64.5 7.499999999999999 0.0
    vertex 64.5 7.499999999999999 0.49999999999999994
  endloop
endfacet
facet normal -1.0 0.0 0.0
  outer loop
    vertex 64.5 7.499999999999999 0.0
    vertex 64.5 13.499999999999998 0.49999999999999994
    vertex 64.5 13.499999999999998 0.0
  endloop
endfacet
facet normal -1.0 0.0 0.0
  outer loop
    vertex 86.99999999999999 13.499999999999998 0.49999999999999994
    vertex 86.99999999999999 7.499999999999999 0.0
    vertex 86.99999999999999 7.499999999999999 0.49999999999999994
  endloop
endfacet
facet normal -1.0 0.0 0.0
  outer loop
    vertex 86.99999999999999 7.499999999999999 0.0
    vertex 86.99999999999999 13.499999999999998 0.49999999999999994
    vertex 86.99999999999999 13.499999999999998 0.0
  endloop
endfacet
facet normal -1.0 0.0 0.0
  outer loop
    vertex 175.0 12.999999999999998 0.49999999999999994
    vertex 175.0 6.999999999999998 0.0
    vertex 175.0 6.999999999999998 0.49999999999999994
  endloop
endfacet
facet normal -1.0 0.0 0.0
  outer loop
    vertex 175.0 6.999999999999998 0.0
    vertex 175.0 12.999999999999998 0.49999999999999994
    vertex 175.0 12.999999999999998 0.0
  endloop
endfacet
facet normal -0.0 1.0 0.0
  outer loop
    vertex 153.0 7.499999999999999 0.49999999999999994
    vertex 154.5 7.499999999999999 0.0
    vertex 153.0 7.499999999999999 0.0
  endloop
endfacet
facet normal -0.0 1.0 0.0
  outer loop
    vertex 154.5 7.499999999999999 0.0
    vertex 153.0 7.499999999999999 0.49999999999999994
    vertex 154.5 7.499999999999999 0.49999999999999994
  endloop
endfacet
facet normal -1.0 0.0 0.0
  outer loop
    vertex 131.99999999999997 13.499999999999998 0.49999999999999994
    vertex 131.99999999999997 7.499999999999999 0.0
    vertex 131.99999999999997 7.499999999999999 0.49999999999999994
  endloop
endfacet
facet normal -1.0 0.0 0.0
  outer loop
    vertex 131.99999999999997 7.499999999999999 0.0
    vertex 131.99999999999997 13.499999999999998 0.49999999999999994
    vertex 131.99999999999997 13.499999999999998 0.0
  endloop
endfacet
facet normal 1.0 0.0 0.0
  outer loop
    vertex 85.49999999999999 13.499999999999998 0.0
    vertex 85.49999999999999 7.499999999999999 0.49999999999999994
    vertex 85.49999999999999 7.499999999999999 0.0
  endloop
endfacet
facet normal 1.0 0.0 0.0
  outer loop
    vertex 85.49999999999999 7.499999999999999 0.49999999999999994
    vertex 85.49999999999999 13.499999999999998 0.0
    vertex 85.49999999999999 13.499999999999998 0.49999999999999994
  endloop
endfacet
facet normal 1.0 0.0 0.0
  outer loop
    vertex 155.0 12.999999999999998 0.0
    vertex 155.0 6.999999999999998 0.49999999999999994
    vertex 155.0 6.999999999999998 0.0
  endloop
endfacet
facet normal 1.0 0.0 0.0
  outer loop
    vertex 155.0 6.999999999999998 0.49999999999999994
    vertex 155.0 12.999999999999998 0.0
    vertex 155.0 12.999999999999998 0.49999999999999994
  endloop
endfacet
facet normal -1.0 0.0 0.0
  outer loop
    vertex 152.5 12.999999999999998 0.49999999999999994
    vertex 152.5 6.999999999999998 0.0
    vertex 152.5 6.999999999999998 0.49999999999999994
  endloop
endfacet
facet normal -1.0 0.0 0.0
  outer loop
    vertex 152.5 6.999999999999998 0.0
    vertex 152.5 12.999999999999998 0.49999999999999994
    vertex 152.5 12.999999999999998 0.0
  endloop
endfacet
facet normal -1.0 0.0 0.0
  outer loop
    vertex 107.49999999999999 12.999999999999998 0.49999999999999994
    vertex 107.49999999999999 6.999999999999998 0.0
    vertex 107.49999999999999 6.999999999999998 0.49999999999999994
  endloop
endfacet
facet normal -1.0 0.0 0.0
  outer loop
    vertex 107.49999999999999 6.999999999999998 0.0
    vertex 107.49999999999999 12.999999999999998 0.49999999999999994
    vertex 107.49999999999999 12.999999999999998 0.0
  endloop
endfacet
facet normal -0.0 1.0 0.0
  outer loop
    vertex 40.5 7.499999999999999 0.49999999999999994
    vertex 42.0 7.499999999999999 0.0
    vertex 40.5 7.499999999999999 0.0
  endloop
endfacet
facet normal -0.0 1.0 0.0
  outer loop
    vertex 42.0 7.499999999999999 0.0
    vertex 40.5 7.499999999999999 0.49999999999999994
    vertex 42.0 7.499999999999999 0.49999999999999994
  endloop
endfacet
facet normal -0.0 1.0 0.0
  outer loop
    vertex 64.5 13.499999999999998 0.49999999999999994
    vertex 85.49999999999999 13.499999999999998 0.0
    vertex 64.5 13.499999999999998 0.0
  endloop
endfacet
facet normal -0.0 1.0 0.0
  outer loop
    vertex 85.49999999999999 13.499999999999998 0.0
    vertex 64.5 13.499999999999998 0.49999999999999994
    vertex 85.49999999999999 13.499999999999998 0.49999999999999994
  endloop
endfacet
facet normal -0.0 -1.0 -0.0
  outer loop
    vertex 200.0 7.0 0.49999999999999994
    vertex 197.5 7.0 0.0
    vertex 200.0 7.0 0.0
  endloop
endfacet
facet normal -0.0 -1.0 -0.0
  outer loop
    vertex 197.5 7.0 0.0
    vertex 200.0 7.0 0.49999999999999994
    vertex 197.5 7.0 0.49999999999999994
  endloop
endfacet
facet normal -0.0 -1.0 -0.0
  outer loop
    vertex 175.0 12.999999999999998 0.49999999999999994
    vertex 155.0 12.999999999999998 0.0
    vertex 175.0 12.999999999999998 0.0
  endloop
endfacet
facet normal -0.0 -1.0 -0.0
  outer loop
    vertex 155.0 12.999999999999998 0.0
    vertex 175.0 12.999999999999998 0.49999999999999994
    vertex 155.0 12.999999999999998 0.49999999999999994
  endloop
endfacet
facet normal -0.0 -1.0 -0.0
  outer loop
    vertex 87.49999999999999 6.999999999999998 0.49999999999999994
    vertex 84.99999999999999 6.999999999999998 0.0
    vertex 87.49999999999999 6.999999999999998 0.0
  endloop
endfacet
facet normal -0.0 -1.0 -0.0
  outer loop
    vertex 84.99999999999999 6.999999999999998 0.0
    vertex 87.49999999999999 6.999999999999998 0.49999999999999994
    vertex 84.99999999999999 6.999999999999998 0.49999999999999994
  endloop
endfacet
facet normal -0.0 -1.0 -0.0
  outer loop
    vertex 62.5 12.999999999999998 0.49999999999999994
    vertex 42.5 12.999999999999998 0.0
    vertex 62.5 12.999999999999998 0.0
  endloop
endfacet
facet normal -0.0 -1.0 -0.0
  outer loop
    vertex 42.5 12.999999999999998 0.0
    vertex 62.5 12.999999999999998 0.49999999999999994
    vertex 42.5 12.999999999999998 0.49999999999999994
  endloop
endfacet
facet normal -1.0 0.0 0.0
  outer loop
    vertex 17.5 12.999999999999998 0.49999999999999994
    vertex 17.5 6.999999999999998 0.0
    vertex 17.5 6.999999999999998 0.49999999999999994
  endloop
endfacet
facet normal -1.0 0.0 0.0
  outer loop
    vertex 17.5 6.999999999999998 0.0
    vertex 17.5 12.999999999999998 0.49999999999999994
    vertex 17.5 12.999999999999998 0.0
  endloop
endfacet
facet normal -0.0 -1.0 -0.0
  outer loop
    vertex 17.5 12.999999999999998 0.49999999999999994
    vertex 2.0000000000000018 12.999999999999998 0.0
    vertex 17.5 12.999999999999998 0.0
  endloop
endfacet
facet normal -0.0 -1.0 -0.0
  outer loop
    vertex 2.0000000000000018 12.999999999999998 0.0
    vertex 17.5 12.999999999999998 0.49999999999999994
    vertex 2.0000000000000018 12.999999999999998 0.49999999999999994
  endloop
endfacet
facet normal 1.0 0.0 0.0
  outer loop
    vertex 2.0000000000000018 12.999999999999998 0.0
    vertex 2.0000000000000018 6.999999999999998 0.49999999999999994
    vertex 2.0000000000000018 6.999999999999998 0.0
  endloop
endfacet
facet normal 1.0 0.0 0.0
  outer loop
    vertex 2.0000000000000018 6.999999999999998 0.49999999999999994
    vertex 2.0000000000000018 12.999999999999998 0.0
    vertex 2.0000000000000018 12.999999999999998 0.49999999999999994
  endloop
endfacet
facet normal 1.0 0.0 0.0
  outer loop
    vertex 20.0 12.999999999999998 0.0
    vertex 20.0 6.999999999999998 0.49999999999999994
    vertex 20.0 6.999999999999998 0.0
  endloop
endfacet
facet normal 1.0 0.0 0.0
  outer loop
    vertex 20.0 6.999999999999998 0.49999999999999994
    vertex 20.0 12.999999999999998 0.0
    vertex 20.0 12.999999999999998 0.49999999999999994
  endloop
endfacet
facet normal -0.0 -1.0 -0.0
  outer loop
    vertex 2.0000000000000018 6.999999999999998 0.49999999999999994
    vertex -0.49999999999999767 6.999999999999998 0.0
    vertex 2.0000000000000018 6.999999999999998 0.0
  endloop
endfacet
facet normal -0.0 -1.0 -0.0
  outer loop
    vertex -0.49999999999999767 6.999999999999998 0.0
    vertex 2.0000000000000018 6.999999999999998 0.49999999999999994
    vertex -0.49999999999999767 6.999999999999998 0.49999999999999994
  endloop
endfacet
facet normal -0.0 -1.0 -0.0
  outer loop
    vertex 40.0 12.999999999999998 0.49999999999999994
    vertex 20.0 12.999999999999998 0.0
    vertex 40.0 12.999999999999998 0.0
  endloop
endfacet
facet normal -0.0 -1.0 -0.0
  outer loop
    vertex 20.0 12.999999999999998 0.0
    vertex 40.0 12.999999999999998 0.49999999999999994
    vertex 20.0 12.999999999999998 0.49999999999999994
  endloop
endfacet
facet normal -0.0 -1.0 -0.0
  outer loop
    vertex 20.0 6.999999999999998 0.49999999999999994
    vertex 17.5 6.999999999999998 0.0
    vertex 20.0 6.999999999999998 0.0
  endloop
endfacet
facet normal -0.0 -1.0 -0.0
  outer loop
    vertex 17.5 6.999999999999998 0.0
    vertex 20.0 6.999999999999998 0.49999999999999994
    vertex 17.5 6.999999999999998 0.49999999999999994
  endloop
endfacet
facet normal 1.0 -0.0 -0.0
  outer loop
    vertex -0.46555960170064997 0.0 0.0
    vertex -0.46555960170064997 -0.49999999999999994 0.49999999999999994
    vertex -0.46555960170064997 -0.49999999999999994 0.0
  endloop
endfacet
facet normal 1.0 -0.0 -0.0
  outer loop
    vertex -0.46555960170064997 -0.49999999999999994 0.49999999999999994
    vertex -0.46555960170064997 0.0 0.0
    vertex -0.46555960170064997 0.0 0.49999999999999994
  endloop
endfacet
facet normal -1.0 0.0 0.0
  outer loop
    vertex 0.0 0.9999999999999999 0.49999999999999994
    vertex 0.0 0.49999999999999994 0.0
    vertex 0.0 0.49999999999999994 0.49999999999999994
  endloop
endfacet
facet normal -1.0 0.0 0.0
  outer loop
    vertex 0.0 0.49999999999999994 0.0
    vertex 0.0 0.9999999999999999 0.49999999999999994
    vertex 0.0 0.9999999999999999 0.0
  endloop
endfacet
facet normal 0.0 1.0 0.0
  outer loop
    vertex 0.0 0.9999999999999999 0.49999999999999994
    vertex 200.0 0.9999999999999999 0.0
    vertex 0.0 0.9999999999999999 0.0
  endloop
endfacet
facet normal 0.0 1.0 0.0
  outer loop
    vertex 200.0 0.9999999999999999 0.0
    vertex 0.0 0.9999999999999999 0.49999999999999994
    vertex 200.0 0.9999999999999999 0.49999999999999994
  endloop
endfacet
facet normal 0.0 -1.0 0.0
  outer loop
    vertex 200.5 0.49999999999999994 0.49999999999999994
    vertex 0.0 0.49999999999999994 0.0
    vertex 200.5 0.49999999999999994 0.0
  endloop
endfacet
facet normal 0.0 -1.0 0.0
  outer loop
    vertex 0.0 0.49999999999999994 0.0
    vertex 200.5 0.49999999999999994 0.49999999999999994
    vertex 0.0 0.49999999999999994 0.49999999999999994
  endloop
endfacet
facet normal -1.0 0.0 0.0
  outer loop
    vertex 0.0 0.49999999999999994 0.49999999999999994
    vertex 0.0 0.0 0.0
    vertex 0.0 0.0 0.49999999999999994
  endloop
endfacet
facet normal -1.0 0.0 0.0
  outer loop
    vertex 0.0 0.0 0.0
    vertex 0.0 0.49999999999999994 0.49999999999999994
    vertex 0.0 0.49999999999999994 0.0
  endloop
endfacet
endsolid wing spar
