solid laser cut motor mount
facet normal -6.466730699045306e-17 -0.8320502943378437 0.5547001962252293
  outer loop
    vertex 5.999999996912141 -1.788751091532936 2.446921158400392
    vertex 1.9999999969121416 -2.920031863799864 0.75
    vertex 5.999999996912141 -2.920031863799864 0.75
  endloop
endfacet
facet normal -6.466730699045306e-17 -0.8320502943378437 0.5547001962252293
  outer loop
    vertex 1.9999999969121416 -2.920031863799864 0.75
    vertex 5.999999996912141 -1.788751091532936 2.446921158400392
    vertex 4.399999996912142 -2.1730586606651454 1.8704598047020775
  endloop
endfacet
facet normal -6.466730699045306e-17 -0.8320502943378437 0.5547001962252293
  outer loop
    vertex 1.9999999969121416 -2.920031863799864 0.75
    vertex 4.399999996912142 -2.1730586606651454 1.8704598047020775
    vertex 4.207055232994159 -2.2173904878381867 1.8039620639425156
  endloop
endfacet
facet normal -6.466730699045306e-17 -0.8320502943378437 0.5547001962252293
  outer loop
    vertex 1.9999999969121416 -2.920031863799864 0.75
    vertex 4.207055232994159 -2.2173904878381867 1.8039620639425156
    vertex 3.999999996912142 -2.23251124851312 1.7812809229301156
  endloop
endfacet
facet normal -6.466730699045306e-17 -0.8320502943378437 0.5547001962252293
  outer loop
    vertex 4.399999996912142 -2.1730586606651454 1.8704598047020775
    vertex 5.999999996912141 -1.788751091532936 2.446921158400392
    vertex 4.56568542186138 -2.102536907754031 1.9762424340687497
  endloop
endfacet
facet normal -6.466730699045306e-17 -0.8320502943378437 0.5547001962252293
  outer loop
    vertex 4.56568542186138 -2.102536907754031 1.9762424340687497
    vertex 5.999999996912141 -1.788751091532936 2.446921158400392
    vertex 4.692820319939693 -2.0106311700230277 2.114101040665254
  endloop
endfacet
facet normal -6.466730699045306e-17 -0.8320502943378437 0.5547001962252293
  outer loop
    vertex 4.692820319939693 -2.0106311700230277 2.114101040665254
    vertex 5.999999996912141 -1.788751091532936 2.446921158400392
    vertex 4.772740657943396 -1.9036046716170918 2.2746407882741577
  endloop
endfacet
facet normal -6.466730699045306e-17 -0.8320502943378437 0.5547001962252293
  outer loop
    vertex 4.772740657943396 -1.9036046716170918 2.2746407882741577
    vertex 5.999999996912141 -1.788751091532936 2.446921158400392
    vertex 4.799999996912141 -1.788751091532936 2.4469211584003916
  endloop
endfacet
facet normal -6.466730699045306e-17 -0.8320502943378437 0.5547001962252293
  outer loop
    vertex 4.799999996912141 -1.788751091532936 2.4469211584003916
    vertex 5.999999996912141 -1.788751091532936 2.446921158400392
    vertex 4.7727406579433955 -1.67389751144878 2.6192015285266255
  endloop
endfacet
facet normal -6.466730699045306e-17 -0.8320502943378437 0.5547001962252293
  outer loop
    vertex 4.7727406579433955 -1.67389751144878 2.6192015285266255
    vertex 5.999999996912141 -1.788751091532936 2.446921158400392
    vertex 5.9318516494902775 -1.5016171413225468 2.8776220837159765
  endloop
endfacet
facet normal -6.466730699045306e-17 -0.8320502943378437 0.5547001962252293
  outer loop
    vertex 4.7727406579433955 -1.67389751144878 2.6192015285266255
    vertex 5.9318516494902775 -1.5016171413225468 2.8776220837159765
    vertex 4.692820319939692 -1.5668710130428443 2.7797412761355296
  endloop
endfacet
facet normal -6.466730699045306e-17 -0.8320502943378437 0.5547001962252293
  outer loop
    vertex 4.692820319939692 -1.5668710130428443 2.7797412761355296
    vertex 5.9318516494902775 -1.5016171413225468 2.8776220837159765
    vertex 4.565685421861379 -1.4749652753118414 2.917599882732033
  endloop
endfacet
facet normal -6.466730699045306e-17 -0.8320502943378437 0.5547001962252293
  outer loop
    vertex 4.565685421861379 -1.4749652753118414 2.917599882732033
    vertex 5.9318516494902775 -1.5016171413225468 2.8776220837159765
    vertex 5.732050804481018 -1.234050895307707 3.2789714527382365
  endloop
endfacet
facet normal -6.466730699045306e-17 -0.8320502943378437 0.5547001962252293
  outer loop
    vertex 4.565685421861379 -1.4749652753118414 2.917599882732033
    vertex 5.732050804481018 -1.234050895307707 3.2789714527382365
    vertex 4.39999999691214 -1.4044435224007268 3.023382512098705
  endloop
endfacet
facet normal -6.466730699045306e-17 -0.8320502943378437 0.5547001962252293
  outer loop
    vertex 4.39999999691214 -1.4044435224007268 3.023382512098705
    vertex 5.732050804481018 -1.234050895307707 3.2789714527382365
    vertex 4.207055232994157 -1.360111695227686 3.0898802528582663
  endloop
endfacet
facet normal -6.466730699045306e-17 -0.8320502943378437 0.5547001962252293
  outer loop
    vertex 4.207055232994157 -1.360111695227686 3.0898802528582663
    vertex 5.732050804481018 -1.234050895307707 3.2789714527382365
    vertex 3.9999999969121407 -1.344990934552753 3.1125613938706658
  endloop
endfacet
facet normal -6.466730699045306e-17 -0.8320502943378437 0.5547001962252293
  outer loop
    vertex 3.9999999969121407 -1.344990934552753 3.1125613938706658
    vertex 5.732050804481018 -1.234050895307707 3.2789714527382365
    vertex 2.2679491893432644 -1.234050895307707 3.2789714527382356
  endloop
endfacet
facet normal -6.466730699045306e-17 -0.8320502943378437 0.5547001962252293
  outer loop
    vertex 2.2679491893432644 -1.234050895307707 3.2789714527382356
    vertex 5.732050804481018 -1.234050895307707 3.2789714527382365
    vertex 2.585786434539046 -1.0042865509802 3.623617969229496
  endloop
endfacet
facet normal -6.466730699045306e-17 -0.8320502943378437 0.5547001962252293
  outer loop
    vertex 2.585786434539046 -1.0042865509802 3.623617969229496
    vertex 5.732050804481018 -1.234050895307707 3.2789714527382365
    vertex 5.414213559285236 -1.0042865509801997 3.623617969229497
  endloop
endfacet
facet normal -6.466730699045306e-17 -0.8320502943378437 0.5547001962252293
  outer loop
    vertex 2.585786434539046 -1.0042865509802 3.623617969229496
    vertex 5.414213559285236 -1.0042865509801997 3.623617969229497
    vertex 2.999999996912141 -0.8279821687024131 3.8880745426461765
  endloop
endfacet
facet normal -6.466730699045306e-17 -0.8320502943378437 0.5547001962252293
  outer loop
    vertex 2.999999996912141 -0.8279821687024131 3.8880745426461765
    vertex 5.414213559285236 -1.0042865509801997 3.623617969229497
    vertex 4.99999999691214 -0.8279821687024131 3.8880745426461765
  endloop
endfacet
facet normal -6.466730699045306e-17 -0.8320502943378437 0.5547001962252293
  outer loop
    vertex 2.999999996912141 -0.8279821687024131 3.8880745426461765
    vertex 4.99999999691214 -0.8279821687024131 3.8880745426461765
    vertex 4.517638087117182 -0.7171526007698104 4.05431889454508
  endloop
endfacet
facet normal -6.466730699045306e-17 -0.8320502943378437 0.5547001962252293
  outer loop
    vertex 2.999999996912141 -0.8279821687024131 3.8880745426461765
    vertex 4.517638087117182 -0.7171526007698104 4.05431889454508
    vertex 3.482361906707099 -0.7171526007698106 4.05431889454508
  endloop
endfacet
facet normal -6.466730699045306e-17 -0.8320502943378437 0.5547001962252293
  outer loop
    vertex 3.482361906707099 -0.7171526007698106 4.05431889454508
    vertex 4.517638087117182 -0.7171526007698104 4.05431889454508
    vertex 3.9999999969121407 -0.6793506990824777 4.111021747076079
  endloop
endfacet
facet normal -6.466730699045306e-17 -0.8320502943378437 0.5547001962252293
  outer loop
    vertex 1.9999999969121416 -2.920031863799864 0.75
    vertex 3.599999996912142 -2.173058660665146 1.8704598047020766
    vertex 1.9999999969121418 -1.7887510915329357 2.446921158400392
  endloop
endfacet
facet normal -6.466730699045306e-17 -0.8320502943378437 0.5547001962252293
  outer loop
    vertex 3.599999996912142 -2.173058660665146 1.8704598047020766
    vertex 1.9999999969121416 -2.920031863799864 0.75
    vertex 3.7929447608301254 -2.2173904878381867 1.8039620639425151
  endloop
endfacet
facet normal -6.466730699045306e-17 -0.8320502943378437 0.5547001962252293
  outer loop
    vertex 3.7929447608301254 -2.2173904878381867 1.8039620639425151
    vertex 1.9999999969121416 -2.920031863799864 0.75
    vertex 3.999999996912142 -2.23251124851312 1.7812809229301156
  endloop
endfacet
facet normal -6.466730699045306e-17 -0.8320502943378437 0.5547001962252293
  outer loop
    vertex 1.9999999969121418 -1.7887510915329357 2.446921158400392
    vertex 3.599999996912142 -2.173058660665146 1.8704598047020766
    vertex 3.434314571962904 -2.1025369077540312 1.9762424340687486
  endloop
endfacet
facet normal -6.466730699045306e-17 -0.8320502943378437 0.5547001962252293
  outer loop
    vertex 1.9999999969121418 -1.7887510915329357 2.446921158400392
    vertex 3.434314571962904 -2.1025369077540312 1.9762424340687486
    vertex 3.3071796738845904 -2.0106311700230286 2.1141010406652527
  endloop
endfacet
facet normal -6.466730699045306e-17 -0.8320502943378437 0.5547001962252293
  outer loop
    vertex 1.9999999969121418 -1.7887510915329357 2.446921158400392
    vertex 3.3071796738845904 -2.0106311700230286 2.1141010406652527
    vertex 3.2272593358808868 -1.9036046716170927 2.2746407882741564
  endloop
endfacet
facet normal -6.466730699045306e-17 -0.8320502943378437 0.5547001962252293
  outer loop
    vertex 1.9999999969121418 -1.7887510915329357 2.446921158400392
    vertex 3.2272593358808868 -1.9036046716170927 2.2746407882741564
    vertex 3.1999999969121413 -1.7887510915329368 2.4469211584003903
  endloop
endfacet
facet normal -6.466730699045306e-17 -0.8320502943378437 0.5547001962252293
  outer loop
    vertex 1.9999999969121418 -1.7887510915329357 2.446921158400392
    vertex 3.1999999969121413 -1.7887510915329368 2.4469211584003903
    vertex 3.2272593358808863 -1.673897511448781 2.6192015285266232
  endloop
endfacet
facet normal -6.466730699045306e-17 -0.8320502943378437 0.5547001962252293
  outer loop
    vertex 1.9999999969121418 -1.7887510915329357 2.446921158400392
    vertex 3.2272593358808863 -1.673897511448781 2.6192015285266232
    vertex 2.068148344334005 -1.5016171413225463 2.8776220837159765
  endloop
endfacet
facet normal -6.466730699045306e-17 -0.8320502943378437 0.5547001962252293
  outer loop
    vertex 2.068148344334005 -1.5016171413225463 2.8776220837159765
    vertex 3.2272593358808863 -1.673897511448781 2.6192015285266232
    vertex 3.30717967388459 -1.5668710130428452 2.779741276135528
  endloop
endfacet
facet normal -6.466730699045306e-17 -0.8320502943378437 0.5547001962252293
  outer loop
    vertex 2.068148344334005 -1.5016171413225463 2.8776220837159765
    vertex 3.30717967388459 -1.5668710130428452 2.779741276135528
    vertex 3.434314571962902 -1.4749652753118423 2.917599882732032
  endloop
endfacet
facet normal -6.466730699045306e-17 -0.8320502943378437 0.5547001962252293
  outer loop
    vertex 2.068148344334005 -1.5016171413225463 2.8776220837159765
    vertex 3.434314571962902 -1.4749652753118423 2.917599882732032
    vertex 2.2679491893432644 -1.234050895307707 3.2789714527382356
  endloop
endfacet
facet normal -6.466730699045306e-17 -0.8320502943378437 0.5547001962252293
  outer loop
    vertex 2.2679491893432644 -1.234050895307707 3.2789714527382356
    vertex 3.434314571962902 -1.4749652753118423 2.917599882732032
    vertex 3.59999999691214 -1.4044435224007275 3.023382512098704
  endloop
endfacet
facet normal -6.466730699045306e-17 -0.8320502943378437 0.5547001962252293
  outer loop
    vertex 2.2679491893432644 -1.234050895307707 3.2789714527382356
    vertex 3.59999999691214 -1.4044435224007275 3.023382512098704
    vertex 3.792944760830123 -1.3601116952276864 3.089880252858266
  endloop
endfacet
facet normal -6.466730699045306e-17 -0.8320502943378437 0.5547001962252293
  outer loop
    vertex 2.2679491893432644 -1.234050895307707 3.2789714527382356
    vertex 3.792944760830123 -1.3601116952276864 3.089880252858266
    vertex 3.9999999969121407 -1.344990934552753 3.1125613938706658
  endloop
endfacet
facet normal -0.6087614290087158 -0.44007325353549115 -0.6601098803032368
  outer loop
    vertex 4.565685421861379 1.7764345487862097 0.7500000000000001
    vertex 4.39999999691214 -1.4044435224007268 3.023382512098705
    vertex 4.399999996912139 2.0056302457473305 0.7500000000000002
  endloop
endfacet
facet normal -0.6087614290087158 -0.44007325353549115 -0.6601098803032368
  outer loop
    vertex 4.39999999691214 -1.4044435224007268 3.023382512098705
    vertex 4.565685421861379 1.7764345487862097 0.7500000000000001
    vertex 4.565685421861379 -1.4749652753118414 2.917599882732033
  endloop
endfacet
facet normal -0.7933533402912327 0.3376800841254901 0.5065201261882353
  outer loop
    vertex 4.692820319939692 0.03552039097485421 0.7500000000000001
    vertex 4.565685421861381 0.8618267433490954 0.0
    vertex 4.56568542186138 -0.263173256650904 0.7500000000000001
  endloop
endfacet
facet normal -0.7933533402912327 0.3376800841254901 0.5065201261882353
  outer loop
    vertex 4.565685421861381 0.8618267433490954 0.0
    vertex 4.692820319939692 0.03552039097485421 0.7500000000000001
    vertex 4.692820319939694 1.1605203909748547 0.0
  endloop
endfacet
facet normal -0.9914448613738112 0.07240290443699186 0.10860435665548775
  outer loop
    vertex 4.799999996912141 0.7566306460676513 0.7500000000000001
    vertex 4.772740657943397 1.5083565107941448 0.0
    vertex 4.772740657943397 0.38335651079414457 0.7500000000000001
  endloop
endfacet
facet normal -0.9914448613738112 0.07240290443699186 0.10860435665548775
  outer loop
    vertex 4.772740657943397 1.5083565107941448 0.0
    vertex 4.799999996912141 0.7566306460676513 0.7500000000000001
    vertex 4.799999996912141 1.8816306460676502 0.0
  endloop
endfacet
facet normal 0.923879532511286 0.21227457502506078 0.318411862537591
  outer loop
    vertex 5.931851649490278 1.6898159842514162 0.7500000000000002
    vertex 5.732050804481018 -1.234050895307707 3.2789714527382365
    vertex 5.9318516494902775 -1.5016171413225468 2.8776220837159765
  endloop
endfacet
facet normal 0.923879532511286 0.21227457502506078 0.318411862537591
  outer loop
    vertex 5.732050804481018 -1.234050895307707 3.2789714527382365
    vertex 5.931851649490278 1.6898159842514162 0.7500000000000002
    vertex 5.732050804481018 2.5594062837996465 0.7500000000000002
  endloop
endfacet
facet normal -0.13052619222005274 0.5499546591505476 0.8249319887258216
  outer loop
    vertex 3.999999996912142 -0.6855898641179466 0.7500000000000001
    vertex 4.207055232994159 0.48855260807558704 0.0
    vertex 3.999999996912141 0.4394101358820537 0.0
  endloop
endfacet
facet normal -0.13052619222005274 0.5499546591505476 0.8249319887258216
  outer loop
    vertex 4.207055232994159 0.48855260807558704 0.0
    vertex 3.999999996912142 -0.6855898641179466 0.7500000000000001
    vertex 4.207055232994158 -0.6364473919244139 0.7500000000000001
  endloop
endfacet
facet normal 0.6087614290087227 -0.4400732535354883 -0.6601098803032325
  outer loop
    vertex 3.5999999969121395 2.0056302457473287 0.7500000000000002
    vertex 3.434314571962902 -1.4749652753118423 2.917599882732032
    vertex 3.434314571962902 1.776434548786205 0.7500000000000002
  endloop
endfacet
facet normal 0.6087614290087227 -0.4400732535354883 -0.6601098803032325
  outer loop
    vertex 3.434314571962902 -1.4749652753118423 2.917599882732032
    vertex 3.5999999969121395 2.0056302457473287 0.7500000000000002
    vertex 3.59999999691214 -1.4044435224007275 3.023382512098704
  endloop
endfacet
facet normal 0.6087614290087197 0.4400732535354895 0.6601098803032344
  outer loop
    vertex 3.599999996912142 -0.49236895361203087 0.7500000000000002
    vertex 3.4343145719629042 0.8618267433490914 0.0
    vertex 3.4343145719629042 -0.2631732566509083 0.7500000000000001
  endloop
endfacet
facet normal 0.6087614290087197 0.4400732535354895 0.6601098803032344
  outer loop
    vertex 3.4343145719629042 0.8618267433490914 0.0
    vertex 3.599999996912142 -0.49236895361203087 0.7500000000000002
    vertex 3.599999996912143 0.6326310463879686 0.0
  endloop
endfacet
facet normal 0.38268343236509045 0.5124761579724836 0.7687142369587253
  outer loop
    vertex 4.99999999691214 -0.8279821687024131 3.8880745426461765
    vertex 4.517638087117182 4.23932574104781 0.7500000000000003
    vertex 4.517638087117182 -0.7171526007698104 4.05431889454508
  endloop
endfacet
facet normal 0.38268343236509045 0.5124761579724836 0.7687142369587253
  outer loop
    vertex 4.517638087117182 4.23932574104781 0.7500000000000003
    vertex 4.99999999691214 -0.8279821687024131 3.8880745426461765
    vertex 4.999999996912141 3.879129645266849 0.7500000000000003
  endloop
endfacet
facet normal -0.9238795325112843 0.2122745750250629 0.3184118625375942
  outer loop
    vertex 4.772740657943397 0.38335651079414457 0.7500000000000001
    vertex 4.692820319939694 1.1605203909748547 0.0
    vertex 4.692820319939692 0.03552039097485421 0.7500000000000001
  endloop
endfacet
facet normal -0.9238795325112843 0.2122745750250629 0.3184118625375942
  outer loop
    vertex 4.692820319939694 1.1605203909748547 0.0
    vertex 4.772740657943397 0.38335651079414457 0.7500000000000001
    vertex 4.772740657943397 1.5083565107941448 0.0
  endloop
endfacet
facet normal 0.38268343236509006 -0.5124761579724839 -0.7687142369587255
  outer loop
    vertex 3.792944760830124 2.1497086840597124 0.7500000000000001
    vertex 3.59999999691214 -1.4044435224007275 3.023382512098704
    vertex 3.5999999969121395 2.0056302457473287 0.7500000000000002
  endloop
endfacet
facet normal 0.38268343236509006 -0.5124761579724839 -0.7687142369587255
  outer loop
    vertex 3.59999999691214 -1.4044435224007275 3.023382512098704
    vertex 3.792944760830124 2.1497086840597124 0.7500000000000001
    vertex 3.792944760830123 -1.3601116952276864 3.089880252858266
  endloop
endfacet
facet normal -0.6087614290087222 0.44007325353548843 0.6601098803032327
  outer loop
    vertex 4.56568542186138 -0.263173256650904 0.7500000000000001
    vertex 4.3999999969121415 0.6326310463879707 0.0
    vertex 4.3999999969121415 -0.4923689536120293 0.7500000000000001
  endloop
endfacet
facet normal -0.6087614290087222 0.44007325353548843 0.6601098803032327
  outer loop
    vertex 4.3999999969121415 0.6326310463879707 0.0
    vertex 4.56568542186138 -0.263173256650904 0.7500000000000001
    vertex 4.565685421861381 0.8618267433490954 0.0
  endloop
endfacet
facet normal 0.9914448613738105 0.07240290443699425 0.10860435665549154
  outer loop
    vertex 5.999999996912141 0.7566306460676507 0.7500000000000002
    vertex 5.9318516494902775 -1.5016171413225468 2.8776220837159765
    vertex 5.999999996912141 -1.788751091532936 2.446921158400392
  endloop
endfacet
facet normal 0.9914448613738105 0.07240290443699425 0.10860435665549154
  outer loop
    vertex 5.9318516494902775 -1.5016171413225468 2.8776220837159765
    vertex 5.999999996912141 0.7566306460676507 0.7500000000000002
    vertex 5.931851649490278 1.6898159842514162 0.7500000000000002
  endloop
endfacet
facet normal 0.38268343236508906 0.5124761579724839 0.7687142369587259
  outer loop
    vertex 3.7929447608301254 -0.6364473919244145 0.7500000000000001
    vertex 3.599999996912143 0.6326310463879686 0.0
    vertex 3.599999996912142 -0.49236895361203087 0.7500000000000002
  endloop
endfacet
facet normal 0.38268343236508906 0.5124761579724839 0.7687142369587259
  outer loop
    vertex 3.599999996912143 0.6326310463879686 0.0
    vertex 3.7929447608301254 -0.6364473919244145 0.7500000000000001
    vertex 3.7929447608301254 0.488552608075586 0.0
  endloop
endfacet
facet normal 0.99144486137381 0.07240290443699657 0.10860435665549513
  outer loop
    vertex 3.2272593358808885 1.508356510794143 0.0
    vertex 3.1999999969121413 0.7566306460676478 0.7500000000000001
    vertex 3.2272593358808868 0.3833565107941421 0.7500000000000001
  endloop
endfacet
facet normal 0.99144486137381 0.07240290443699657 0.10860435665549513
  outer loop
    vertex 3.1999999969121413 0.7566306460676478 0.7500000000000001
    vertex 3.2272593358808885 1.508356510794143 0.0
    vertex 3.1999999969121413 1.8816306460676484 0.0
  endloop
endfacet
facet normal -0.13052619222005213 0.5499546591505478 0.8249319887258215
  outer loop
    vertex 3.9999999969121407 -0.6793506990824777 4.111021747076079
    vertex 3.4823619067071006 4.239325741047809 0.7500000000000003
    vertex 3.482361906707099 -0.7171526007698106 4.05431889454508
  endloop
endfacet
facet normal -0.13052619222005213 0.5499546591505478 0.8249319887258215
  outer loop
    vertex 3.4823619067071006 4.239325741047809 0.7500000000000003
    vertex 3.9999999969121407 -0.6793506990824777 4.111021747076079
    vertex 3.999999996912141 4.362181921531641 0.7500000000000003
  endloop
endfacet
facet normal 0.9238795325112845 0.2122745750250625 0.31841186253759435
  outer loop
    vertex 3.3071796738845918 1.1605203909748507 0.0
    vertex 3.2272593358808868 0.3833565107941421 0.7500000000000001
    vertex 3.3071796738845913 0.035520390974850595 0.7500000000000001
  endloop
endfacet
facet normal 0.9238795325112845 0.2122745750250625 0.31841186253759435
  outer loop
    vertex 3.2272593358808868 0.3833565107941421 0.7500000000000001
    vertex 3.3071796738845918 1.1605203909748507 0.0
    vertex 3.2272593358808885 1.508356510794143 0.0
  endloop
endfacet
facet normal 0.13052619222005135 0.5499546591505479 0.8249319887258217
  outer loop
    vertex 3.999999996912142 -0.6855898641179466 0.7500000000000001
    vertex 3.7929447608301254 0.488552608075586 0.0
    vertex 3.7929447608301254 -0.6364473919244145 0.7500000000000001
  endloop
endfacet
facet normal 0.13052619222005135 0.5499546591505479 0.8249319887258217
  outer loop
    vertex 3.7929447608301254 0.488552608075586 0.0
    vertex 3.999999996912142 -0.6855898641179466 0.7500000000000001
    vertex 3.999999996912141 0.4394101358820537 0.0
  endloop
endfacet
facet normal -0.9238795325112881 -0.21227457502505784 -0.31841186253758674
  outer loop
    vertex 4.692820319939692 -1.5668710130428443 2.7797412761355296
    vertex 4.772740657943395 1.1299047813411576 0.7500000000000001
    vertex 4.7727406579433955 -1.67389751144878 2.6192015285266255
  endloop
endfacet
facet normal -0.9238795325112881 -0.21227457502505784 -0.31841186253758674
  outer loop
    vertex 4.772740657943395 1.1299047813411576 0.7500000000000001
    vertex 4.692820319939692 -1.5668710130428443 2.7797412761355296
    vertex 4.692820319939692 1.4777409011604494 0.7500000000000001
  endloop
endfacet
facet normal 0.7933533402912347 0.33768008412548856 0.5065201261882327
  outer loop
    vertex 5.732050804481018 2.5594062837996465 0.7500000000000002
    vertex 5.414213559285236 -1.0042865509801997 3.623617969229497
    vertex 5.732050804481018 -1.234050895307707 3.2789714527382365
  endloop
endfacet
facet normal 0.7933533402912347 0.33768008412548856 0.5065201261882327
  outer loop
    vertex 5.414213559285236 -1.0042865509801997 3.623617969229497
    vertex 5.732050804481018 2.5594062837996465 0.7500000000000002
    vertex 5.414213559285236 3.3061404028640453 0.7500000000000002
  endloop
endfacet
facet normal -0.38268343236509145 0.5124761579724832 0.7687142369587251
  outer loop
    vertex 4.3999999969121415 -0.4923689536120293 0.7500000000000001
    vertex 4.207055232994159 0.48855260807558704 0.0
    vertex 4.207055232994158 -0.6364473919244139 0.7500000000000001
  endloop
endfacet
facet normal -0.38268343236509145 0.5124761579724832 0.7687142369587251
  outer loop
    vertex 4.207055232994159 0.48855260807558704 0.0
    vertex 4.3999999969121415 -0.4923689536120293 0.7500000000000001
    vertex 4.3999999969121415 0.6326310463879707 0.0
  endloop
endfacet
facet normal 8.70488161317779e-18 -2.3112492745010163e-17 1.0
  outer loop
    vertex 3.2272593358808868 0.3833565107941421 0.7500000000000001
    vertex 3.2272593358808868 1.1299047813411531 0.7500000000000001
    vertex 3.1999999969121413 0.7566306460676478 0.7500000000000001
  endloop
endfacet
facet normal 8.70488161317779e-18 -2.3112492745010163e-17 1.0
  outer loop
    vertex 3.2272593358808868 1.1299047813411531 0.7500000000000001
    vertex 3.2272593358808868 0.3833565107941421 0.7500000000000001
    vertex 3.3071796738845913 0.035520390974850595 0.7500000000000001
  endloop
endfacet
facet normal 8.70488161317779e-18 -2.3112492745010163e-17 1.0
  outer loop
    vertex 3.2272593358808868 1.1299047813411531 0.7500000000000001
    vertex 3.3071796738845913 0.035520390974850595 0.7500000000000001
    vertex 3.3071796738845904 1.4777409011604463 0.7500000000000001
  endloop
endfacet
facet normal 8.70488161317779e-18 -2.3112492745010163e-17 1.0
  outer loop
    vertex 3.3071796738845904 1.4777409011604463 0.7500000000000001
    vertex 3.3071796738845913 0.035520390974850595 0.7500000000000001
    vertex 3.434314571962902 1.776434548786205 0.7500000000000002
  endloop
endfacet
facet normal 8.70488161317779e-18 -2.3112492745010163e-17 1.0
  outer loop
    vertex 3.434314571962902 1.776434548786205 0.7500000000000002
    vertex 3.3071796738845913 0.035520390974850595 0.7500000000000001
    vertex 3.4343145719629042 -0.2631732566509083 0.7500000000000001
  endloop
endfacet
facet normal 8.70488161317779e-18 -2.3112492745010163e-17 1.0
  outer loop
    vertex 3.434314571962902 1.776434548786205 0.7500000000000002
    vertex 3.4343145719629042 -0.2631732566509083 0.7500000000000001
    vertex 3.5999999969121395 2.0056302457473287 0.7500000000000002
  endloop
endfacet
facet normal 8.70488161317779e-18 -2.3112492745010163e-17 1.0
  outer loop
    vertex 3.5999999969121395 2.0056302457473287 0.7500000000000002
    vertex 3.4343145719629042 -0.2631732566509083 0.7500000000000001
    vertex 3.599999996912142 -0.49236895361203087 0.7500000000000002
  endloop
endfacet
facet normal 8.70488161317779e-18 -2.3112492745010163e-17 1.0
  outer loop
    vertex 3.5999999969121395 2.0056302457473287 0.7500000000000002
    vertex 3.599999996912142 -0.49236895361203087 0.7500000000000002
    vertex 3.792944760830124 2.1497086840597124 0.7500000000000001
  endloop
endfacet
facet normal 8.70488161317779e-18 -2.3112492745010163e-17 1.0
  outer loop
    vertex 3.792944760830124 2.1497086840597124 0.7500000000000001
    vertex 3.599999996912142 -0.49236895361203087 0.7500000000000002
    vertex 3.7929447608301254 -0.6364473919244145 0.7500000000000001
  endloop
endfacet
facet normal 8.70488161317779e-18 -2.3112492745010163e-17 1.0
  outer loop
    vertex 3.792944760830124 2.1497086840597124 0.7500000000000001
    vertex 3.7929447608301254 -0.6364473919244145 0.7500000000000001
    vertex 3.9999999969121394 2.198851156253246 0.7500000000000003
  endloop
endfacet
facet normal 8.70488161317779e-18 -2.3112492745010163e-17 1.0
  outer loop
    vertex 3.9999999969121394 2.198851156253246 0.7500000000000003
    vertex 3.7929447608301254 -0.6364473919244145 0.7500000000000001
    vertex 3.999999996912142 -0.6855898641179466 0.7500000000000001
  endloop
endfacet
facet normal 8.70488161317779e-18 -2.3112492745010163e-17 1.0
  outer loop
    vertex 3.9999999969121394 2.198851156253246 0.7500000000000003
    vertex 3.999999996912142 -0.6855898641179466 0.7500000000000001
    vertex 4.207055232994157 2.149708684059713 0.7500000000000002
  endloop
endfacet
facet normal 8.70488161317779e-18 -2.3112492745010163e-17 1.0
  outer loop
    vertex 4.207055232994157 2.149708684059713 0.7500000000000002
    vertex 3.999999996912142 -0.6855898641179466 0.7500000000000001
    vertex 4.207055232994158 -0.6364473919244139 0.7500000000000001
  endloop
endfacet
facet normal 8.70488161317779e-18 -2.3112492745010163e-17 1.0
  outer loop
    vertex 4.207055232994157 2.149708684059713 0.7500000000000002
    vertex 4.207055232994158 -0.6364473919244139 0.7500000000000001
    vertex 4.399999996912139 2.0056302457473305 0.7500000000000002
  endloop
endfacet
facet normal 8.70488161317779e-18 -2.3112492745010163e-17 1.0
  outer loop
    vertex 4.399999996912139 2.0056302457473305 0.7500000000000002
    vertex 4.207055232994158 -0.6364473919244139 0.7500000000000001
    vertex 4.3999999969121415 -0.4923689536120293 0.7500000000000001
  endloop
endfacet
facet normal 8.70488161317779e-18 -2.3112492745010163e-17 1.0
  outer loop
    vertex 4.399999996912139 2.0056302457473305 0.7500000000000002
    vertex 4.3999999969121415 -0.4923689536120293 0.7500000000000001
    vertex 4.565685421861379 1.7764345487862097 0.7500000000000001
  endloop
endfacet
facet normal 8.70488161317779e-18 -2.3112492745010163e-17 1.0
  outer loop
    vertex 4.565685421861379 1.7764345487862097 0.7500000000000001
    vertex 4.3999999969121415 -0.4923689536120293 0.7500000000000001
    vertex 4.56568542186138 -0.263173256650904 0.7500000000000001
  endloop
endfacet
facet normal 8.70488161317779e-18 -2.3112492745010163e-17 1.0
  outer loop
    vertex 4.565685421861379 1.7764345487862097 0.7500000000000001
    vertex 4.56568542186138 -0.263173256650904 0.7500000000000001
    vertex 4.692820319939692 1.4777409011604494 0.7500000000000001
  endloop
endfacet
facet normal 8.70488161317779e-18 -2.3112492745010163e-17 1.0
  outer loop
    vertex 4.692820319939692 1.4777409011604494 0.7500000000000001
    vertex 4.56568542186138 -0.263173256650904 0.7500000000000001
    vertex 4.692820319939692 0.03552039097485421 0.7500000000000001
  endloop
endfacet
facet normal 8.70488161317779e-18 -2.3112492745010163e-17 1.0
  outer loop
    vertex 4.692820319939692 1.4777409011604494 0.7500000000000001
    vertex 4.692820319939692 0.03552039097485421 0.7500000000000001
    vertex 4.772740657943397 0.38335651079414457 0.7500000000000001
  endloop
endfacet
facet normal 8.70488161317779e-18 -2.3112492745010163e-17 1.0
  outer loop
    vertex 4.692820319939692 1.4777409011604494 0.7500000000000001
    vertex 4.772740657943397 0.38335651079414457 0.7500000000000001
    vertex 4.772740657943395 1.1299047813411576 0.7500000000000001
  endloop
endfacet
facet normal 8.70488161317779e-18 -2.3112492745010163e-17 1.0
  outer loop
    vertex 4.772740657943395 1.1299047813411576 0.7500000000000001
    vertex 4.772740657943397 0.38335651079414457 0.7500000000000001
    vertex 4.799999996912141 0.7566306460676513 0.7500000000000001
  endloop
endfacet
facet normal -0.9914448613738103 0.07240290443699512 0.10860435665549262
  outer loop
    vertex 2.068148344334005 -1.5016171413225463 2.8776220837159765
    vertex 1.9999999969121416 0.7566306460676516 0.7500000000000002
    vertex 1.9999999969121418 -1.7887510915329357 2.446921158400392
  endloop
endfacet
facet normal -0.9914448613738103 0.07240290443699512 0.10860435665549262
  outer loop
    vertex 1.9999999969121416 0.7566306460676516 0.7500000000000002
    vertex 2.068148344334005 -1.5016171413225463 2.8776220837159765
    vertex 2.0681483443340056 1.6898159842514167 0.7500000000000002
  endloop
endfacet
facet normal -0.7933533402912374 -0.33768008412548667 -0.5065201261882302
  outer loop
    vertex 4.565685421861379 -1.4749652753118414 2.917599882732033
    vertex 4.692820319939692 1.4777409011604494 0.7500000000000001
    vertex 4.692820319939692 -1.5668710130428443 2.7797412761355296
  endloop
endfacet
facet normal -0.7933533402912374 -0.33768008412548667 -0.5065201261882302
  outer loop
    vertex 4.692820319939692 1.4777409011604494 0.7500000000000001
    vertex 4.565685421861379 -1.4749652753118414 2.917599882732033
    vertex 4.565685421861379 1.7764345487862097 0.7500000000000001
  endloop
endfacet
facet normal 0.7933533402912336 -0.3376800841254895 -0.5065201261882342
  outer loop
    vertex 3.3071796738845904 1.4777409011604463 0.7500000000000001
    vertex 3.434314571962902 -1.4749652753118423 2.917599882732032
    vertex 3.30717967388459 -1.5668710130428452 2.779741276135528
  endloop
endfacet
facet normal 0.7933533402912336 -0.3376800841254895 -0.5065201261882342
  outer loop
    vertex 3.434314571962902 -1.4749652753118423 2.917599882732032
    vertex 3.3071796738845904 1.4777409011604463 0.7500000000000001
    vertex 3.434314571962902 1.776434548786205 0.7500000000000002
  endloop
endfacet
facet normal -0.793353340291238 0.3376800841254863 0.5065201261882293
  outer loop
    vertex 2.585786434539046 -1.0042865509802 3.623617969229496
    vertex 2.2679491893432653 2.5594062837996465 0.7500000000000002
    vertex 2.2679491893432644 -1.234050895307707 3.2789714527382356
  endloop
endfacet
facet normal -0.793353340291238 0.3376800841254863 0.5065201261882293
  outer loop
    vertex 2.2679491893432653 2.5594062837996465 0.7500000000000002
    vertex 2.585786434539046 -1.0042865509802 3.623617969229496
    vertex 2.5857864345390458 3.3061404028640418 0.7500000000000003
  endloop
endfacet
facet normal 0.9914448613738103 -0.07240290443699567 -0.10860435665549333
  outer loop
    vertex 3.1999999969121413 0.7566306460676478 0.7500000000000001
    vertex 3.2272593358808863 -1.673897511448781 2.6192015285266232
    vertex 3.1999999969121413 -1.7887510915329368 2.4469211584003903
  endloop
endfacet
facet normal 0.9914448613738103 -0.07240290443699567 -0.10860435665549333
  outer loop
    vertex 3.2272593358808863 -1.673897511448781 2.6192015285266232
    vertex 3.1999999969121413 0.7566306460676478 0.7500000000000001
    vertex 3.2272593358808868 1.1299047813411531 0.7500000000000001
  endloop
endfacet
facet normal 0.608761429008719 0.4400732535354898 0.6601098803032347
  outer loop
    vertex 5.414213559285236 -1.0042865509801997 3.623617969229497
    vertex 4.999999996912141 3.879129645266849 0.7500000000000003
    vertex 4.99999999691214 -0.8279821687024131 3.8880745426461765
  endloop
endfacet
facet normal 0.608761429008719 0.4400732535354898 0.6601098803032347
  outer loop
    vertex 4.999999996912141 3.879129645266849 0.7500000000000003
    vertex 5.414213559285236 -1.0042865509801997 3.623617969229497
    vertex 5.414213559285236 3.3061404028640453 0.7500000000000002
  endloop
endfacet
facet normal -0.13052619222005224 -0.5499546591505476 -0.8249319887258215
  outer loop
    vertex 4.207055232994157 2.149708684059713 0.7500000000000002
    vertex 3.9999999969121407 -1.344990934552753 3.1125613938706658
    vertex 3.9999999969121394 2.198851156253246 0.7500000000000003
  endloop
endfacet
facet normal -0.13052619222005224 -0.5499546591505476 -0.8249319887258215
  outer loop
    vertex 3.9999999969121407 -1.344990934552753 3.1125613938706658
    vertex 4.207055232994157 2.149708684059713 0.7500000000000002
    vertex 4.207055232994157 -1.360111695227686 3.0898802528582663
  endloop
endfacet
facet normal 0.13052619222005193 0.5499546591505476 0.8249319887258217
  outer loop
    vertex 4.517638087117182 -0.7171526007698104 4.05431889454508
    vertex 3.999999996912141 4.362181921531641 0.7500000000000003
    vertex 3.9999999969121407 -0.6793506990824777 4.111021747076079
  endloop
endfacet
facet normal 0.13052619222005193 0.5499546591505476 0.8249319887258217
  outer loop
    vertex 3.999999996912141 4.362181921531641 0.7500000000000003
    vertex 4.517638087117182 -0.7171526007698104 4.05431889454508
    vertex 4.517638087117182 4.23932574104781 0.7500000000000003
  endloop
endfacet
facet normal -0.99144486137381 -0.07240290443699628 -0.10860435665549414
  outer loop
    vertex 4.7727406579433955 -1.67389751144878 2.6192015285266255
    vertex 4.799999996912141 0.7566306460676513 0.7500000000000001
    vertex 4.799999996912141 -1.788751091532936 2.4469211584003916
  endloop
endfacet
facet normal -0.99144486137381 -0.07240290443699628 -0.10860435665549414
  outer loop
    vertex 4.799999996912141 0.7566306460676513 0.7500000000000001
    vertex 4.7727406579433955 -1.67389751144878 2.6192015285266255
    vertex 4.772740657943395 1.1299047813411576 0.7500000000000001
  endloop
endfacet
facet normal 0.13052619222005318 -0.5499546591505476 -0.8249319887258216
  outer loop
    vertex 3.792944760830124 2.1497086840597124 0.7500000000000001
    vertex 3.9999999969121407 -1.344990934552753 3.1125613938706658
    vertex 3.792944760830123 -1.3601116952276864 3.089880252858266
  endloop
endfacet
facet normal 0.13052619222005318 -0.5499546591505476 -0.8249319887258216
  outer loop
    vertex 3.9999999969121407 -1.344990934552753 3.1125613938706658
    vertex 3.792944760830124 2.1497086840597124 0.7500000000000001
    vertex 3.9999999969121394 2.198851156253246 0.7500000000000003
  endloop
endfacet
facet normal 0.7933533402912415 0.33768008412548345 0.5065201261882257
  outer loop
    vertex 3.4343145719629042 0.8618267433490914 0.0
    vertex 3.3071796738845913 0.035520390974850595 0.7500000000000001
    vertex 3.4343145719629042 -0.2631732566509083 0.7500000000000001
  endloop
endfacet
facet normal 0.7933533402912415 0.33768008412548345 0.5065201261882257
  outer loop
    vertex 3.3071796738845913 0.035520390974850595 0.7500000000000001
    vertex 3.4343145719629042 0.8618267433490914 0.0
    vertex 3.3071796738845918 1.1605203909748507 0.0
  endloop
endfacet
facet normal 0.9238795325112903 -0.21227457502505506 -0.3184118625375823
  outer loop
    vertex 3.2272593358808868 1.1299047813411531 0.7500000000000001
    vertex 3.30717967388459 -1.5668710130428452 2.779741276135528
    vertex 3.2272593358808863 -1.673897511448781 2.6192015285266232
  endloop
endfacet
facet normal 0.9238795325112903 -0.21227457502505506 -0.3184118625375823
  outer loop
    vertex 3.30717967388459 -1.5668710130428452 2.779741276135528
    vertex 3.2272593358808868 1.1299047813411531 0.7500000000000001
    vertex 3.3071796738845904 1.4777409011604463 0.7500000000000001
  endloop
endfacet
facet normal -0.38268343236508856 -0.5124761579724841 -0.768714236958726
  outer loop
    vertex 4.399999996912139 2.0056302457473305 0.7500000000000002
    vertex 4.207055232994157 -1.360111695227686 3.0898802528582663
    vertex 4.207055232994157 2.149708684059713 0.7500000000000002
  endloop
endfacet
facet normal -0.38268343236508856 -0.5124761579724841 -0.768714236958726
  outer loop
    vertex 4.207055232994157 -1.360111695227686 3.0898802528582663
    vertex 4.399999996912139 2.0056302457473305 0.7500000000000002
    vertex 4.39999999691214 -1.4044435224007268 3.023382512098705
  endloop
endfacet
facet normal 1.0 -0.0 -0.0
  outer loop
    vertex 5.999999996912141 -1.788751091532936 2.446921158400392
    vertex 5.999999996912141 -2.920031863799864 0.75
    vertex 5.999999996912141 -1.788751091532936 0.75
  endloop
endfacet
facet normal -1.1732230966186136e-18 -3.4897401454835373e-17 1.0
  outer loop
    vertex 5.999999996912141 -2.920031863799864 0.75
    vertex 1.9999999969121416 -1.788751091532936 0.75
    vertex 1.9999999969121416 -2.920031863799864 0.75
  endloop
endfacet
facet normal -1.1732230966186136e-18 -3.4897401454835373e-17 1.0
  outer loop
    vertex 1.9999999969121416 -1.788751091532936 0.75
    vertex 5.999999996912141 -2.920031863799864 0.75
    vertex 1.9999999969121416 0.7566306460676516 0.7500000000000002
  endloop
endfacet
facet normal -1.1732230966186136e-18 -3.4897401454835373e-17 1.0
  outer loop
    vertex 1.9999999969121416 0.7566306460676516 0.7500000000000002
    vertex 5.999999996912141 -2.920031863799864 0.75
    vertex 3.599999996912142 -0.49236895361203087 0.7500000000000002
  endloop
endfacet
facet normal -1.1732230966186136e-18 -3.4897401454835373e-17 1.0
  outer loop
    vertex 1.9999999969121416 0.7566306460676516 0.7500000000000002
    vertex 3.599999996912142 -0.49236895361203087 0.7500000000000002
    vertex 3.4343145719629042 -0.2631732566509083 0.7500000000000001
  endloop
endfacet
facet normal -1.1732230966186136e-18 -3.4897401454835373e-17 1.0
  outer loop
    vertex 1.9999999969121416 0.7566306460676516 0.7500000000000002
    vertex 3.4343145719629042 -0.2631732566509083 0.7500000000000001
    vertex 2.0681483443340056 1.6898159842514167 0.7500000000000002
  endloop
endfacet
facet normal -1.1732230966186136e-18 -3.4897401454835373e-17 1.0
  outer loop
    vertex 2.0681483443340056 1.6898159842514167 0.7500000000000002
    vertex 3.4343145719629042 -0.2631732566509083 0.7500000000000001
    vertex 3.3071796738845913 0.035520390974850595 0.7500000000000001
  endloop
endfacet
facet normal -1.1732230966186136e-18 -3.4897401454835373e-17 1.0
  outer loop
    vertex 2.0681483443340056 1.6898159842514167 0.7500000000000002
    vertex 3.3071796738845913 0.035520390974850595 0.7500000000000001
    vertex 2.2679491893432653 2.5594062837996465 0.7500000000000002
  endloop
endfacet
facet normal -1.1732230966186136e-18 -3.4897401454835373e-17 1.0
  outer loop
    vertex 2.2679491893432653 2.5594062837996465 0.7500000000000002
    vertex 3.3071796738845913 0.035520390974850595 0.7500000000000001
    vertex 3.2272593358808868 0.3833565107941421 0.7500000000000001
  endloop
endfacet
facet normal -1.1732230966186136e-18 -3.4897401454835373e-17 1.0
  outer loop
    vertex 2.2679491893432653 2.5594062837996465 0.7500000000000002
    vertex 3.2272593358808868 0.3833565107941421 0.7500000000000001
    vertex 2.5857864345390458 3.3061404028640418 0.7500000000000003
  endloop
endfacet
facet normal -1.1732230966186136e-18 -3.4897401454835373e-17 1.0
  outer loop
    vertex 2.5857864345390458 3.3061404028640418 0.7500000000000003
    vertex 3.2272593358808868 0.3833565107941421 0.7500000000000001
    vertex 3.1999999969121413 0.7566306460676478 0.7500000000000001
  endloop
endfacet
facet normal -1.1732230966186136e-18 -3.4897401454835373e-17 1.0
  outer loop
    vertex 2.5857864345390458 3.3061404028640418 0.7500000000000003
    vertex 3.1999999969121413 0.7566306460676478 0.7500000000000001
    vertex 2.999999996912141 3.8791296452668513 0.7500000000000001
  endloop
endfacet
facet normal -1.1732230966186136e-18 -3.4897401454835373e-17 1.0
  outer loop
    vertex 3.599999996912142 -0.49236895361203087 0.7500000000000002
    vertex 5.999999996912141 -2.920031863799864 0.75
    vertex 3.7929447608301254 -0.6364473919244145 0.7500000000000001
  endloop
endfacet
facet normal -1.1732230966186136e-18 -3.4897401454835373e-17 1.0
  outer loop
    vertex 3.7929447608301254 -0.6364473919244145 0.7500000000000001
    vertex 5.999999996912141 -2.920031863799864 0.75
    vertex 3.999999996912142 -0.6855898641179466 0.7500000000000001
  endloop
endfacet
facet normal -1.1732230966186136e-18 -3.4897401454835373e-17 1.0
  outer loop
    vertex 3.999999996912142 -0.6855898641179466 0.7500000000000001
    vertex 5.999999996912141 -2.920031863799864 0.75
    vertex 4.207055232994158 -0.6364473919244139 0.7500000000000001
  endloop
endfacet
facet normal -1.1732230966186136e-18 -3.4897401454835373e-17 1.0
  outer loop
    vertex 4.207055232994158 -0.6364473919244139 0.7500000000000001
    vertex 5.999999996912141 -2.920031863799864 0.75
    vertex 4.3999999969121415 -0.4923689536120293 0.7500000000000001
  endloop
endfacet
facet normal -1.1732230966186136e-18 -3.4897401454835373e-17 1.0
  outer loop
    vertex 4.3999999969121415 -0.4923689536120293 0.7500000000000001
    vertex 5.999999996912141 -2.920031863799864 0.75
    vertex 4.56568542186138 -0.263173256650904 0.7500000000000001
  endloop
endfacet
facet normal -1.1732230966186136e-18 -3.4897401454835373e-17 1.0
  outer loop
    vertex 4.56568542186138 -0.263173256650904 0.7500000000000001
    vertex 5.999999996912141 -2.920031863799864 0.75
    vertex 4.692820319939692 0.03552039097485421 0.7500000000000001
  endloop
endfacet
facet normal -1.1732230966186136e-18 -3.4897401454835373e-17 1.0
  outer loop
    vertex 4.692820319939692 0.03552039097485421 0.7500000000000001
    vertex 5.999999996912141 -2.920031863799864 0.75
    vertex 4.772740657943397 0.38335651079414457 0.7500000000000001
  endloop
endfacet
facet normal -1.1732230966186136e-18 -3.4897401454835373e-17 1.0
  outer loop
    vertex 4.772740657943397 0.38335651079414457 0.7500000000000001
    vertex 5.999999996912141 -2.920031863799864 0.75
    vertex 4.799999996912141 0.7566306460676513 0.7500000000000001
  endloop
endfacet
facet normal -1.1732230966186136e-18 -3.4897401454835373e-17 1.0
  outer loop
    vertex 4.799999996912141 0.7566306460676513 0.7500000000000001
    vertex 5.999999996912141 -2.920031863799864 0.75
    vertex 4.999999996912141 3.879129645266849 0.7500000000000003
  endloop
endfacet
facet normal -1.1732230966186136e-18 -3.4897401454835373e-17 1.0
  outer loop
    vertex 4.999999996912141 3.879129645266849 0.7500000000000003
    vertex 5.999999996912141 -2.920031863799864 0.75
    vertex 5.414213559285236 3.3061404028640453 0.7500000000000002
  endloop
endfacet
facet normal -1.1732230966186136e-18 -3.4897401454835373e-17 1.0
  outer loop
    vertex 5.414213559285236 3.3061404028640453 0.7500000000000002
    vertex 5.999999996912141 -2.920031863799864 0.75
    vertex 5.732050804481018 2.5594062837996465 0.7500000000000002
  endloop
endfacet
facet normal -1.1732230966186136e-18 -3.4897401454835373e-17 1.0
  outer loop
    vertex 5.732050804481018 2.5594062837996465 0.7500000000000002
    vertex 5.999999996912141 -2.920031863799864 0.75
    vertex 5.931851649490278 1.6898159842514162 0.7500000000000002
  endloop
endfacet
facet normal -1.1732230966186136e-18 -3.4897401454835373e-17 1.0
  outer loop
    vertex 5.931851649490278 1.6898159842514162 0.7500000000000002
    vertex 5.999999996912141 -2.920031863799864 0.75
    vertex 5.999999996912141 0.7566306460676507 0.7500000000000002
  endloop
endfacet
facet normal -1.1732230966186136e-18 -3.4897401454835373e-17 1.0
  outer loop
    vertex 5.999999996912141 0.7566306460676507 0.7500000000000002
    vertex 5.999999996912141 -2.920031863799864 0.75
    vertex 5.999999996912141 -1.788751091532936 0.75
  endloop
endfacet
facet normal -1.1732230966186136e-18 -3.4897401454835373e-17 1.0
  outer loop
    vertex 2.999999996912141 3.8791296452668513 0.7500000000000001
    vertex 3.2272593358808868 1.1299047813411531 0.7500000000000001
    vertex 3.4823619067071006 4.239325741047809 0.7500000000000003
  endloop
endfacet
facet normal -1.1732230966186136e-18 -3.4897401454835373e-17 1.0
  outer loop
    vertex 3.2272593358808868 1.1299047813411531 0.7500000000000001
    vertex 2.999999996912141 3.8791296452668513 0.7500000000000001
    vertex 3.1999999969121413 0.7566306460676478 0.7500000000000001
  endloop
endfacet
facet normal -1.1732230966186136e-18 -3.4897401454835373e-17 1.0
  outer loop
    vertex 3.4823619067071006 4.239325741047809 0.7500000000000003
    vertex 3.2272593358808868 1.1299047813411531 0.7500000000000001
    vertex 3.3071796738845904 1.4777409011604463 0.7500000000000001
  endloop
endfacet
facet normal -1.1732230966186136e-18 -3.4897401454835373e-17 1.0
  outer loop
    vertex 3.4823619067071006 4.239325741047809 0.7500000000000003
    vertex 3.3071796738845904 1.4777409011604463 0.7500000000000001
    vertex 3.434314571962902 1.776434548786205 0.7500000000000002
  endloop
endfacet
facet normal -1.1732230966186136e-18 -3.4897401454835373e-17 1.0
  outer loop
    vertex 3.4823619067071006 4.239325741047809 0.7500000000000003
    vertex 3.434314571962902 1.776434548786205 0.7500000000000002
    vertex 3.5999999969121395 2.0056302457473287 0.7500000000000002
  endloop
endfacet
facet normal -1.1732230966186136e-18 -3.4897401454835373e-17 1.0
  outer loop
    vertex 3.4823619067071006 4.239325741047809 0.7500000000000003
    vertex 3.5999999969121395 2.0056302457473287 0.7500000000000002
    vertex 3.999999996912141 4.362181921531641 0.7500000000000003
  endloop
endfacet
facet normal -1.1732230966186136e-18 -3.4897401454835373e-17 1.0
  outer loop
    vertex 3.999999996912141 4.362181921531641 0.7500000000000003
    vertex 3.5999999969121395 2.0056302457473287 0.7500000000000002
    vertex 3.792944760830124 2.1497086840597124 0.7500000000000001
  endloop
endfacet
facet normal -1.1732230966186136e-18 -3.4897401454835373e-17 1.0
  outer loop
    vertex 3.999999996912141 4.362181921531641 0.7500000000000003
    vertex 3.792944760830124 2.1497086840597124 0.7500000000000001
    vertex 3.9999999969121394 2.198851156253246 0.7500000000000003
  endloop
endfacet
facet normal -1.1732230966186136e-18 -3.4897401454835373e-17 1.0
  outer loop
    vertex 3.999999996912141 4.362181921531641 0.7500000000000003
    vertex 3.9999999969121394 2.198851156253246 0.7500000000000003
    vertex 4.207055232994157 2.149708684059713 0.7500000000000002
  endloop
endfacet
facet normal -1.1732230966186136e-18 -3.4897401454835373e-17 1.0
  outer loop
    vertex 3.999999996912141 4.362181921531641 0.7500000000000003
    vertex 4.207055232994157 2.149708684059713 0.7500000000000002
    vertex 4.517638087117182 4.23932574104781 0.7500000000000003
  endloop
endfacet
facet normal -1.1732230966186136e-18 -3.4897401454835373e-17 1.0
  outer loop
    vertex 4.517638087117182 4.23932574104781 0.7500000000000003
    vertex 4.207055232994157 2.149708684059713 0.7500000000000002
    vertex 4.399999996912139 2.0056302457473305 0.7500000000000002
  endloop
endfacet
facet normal -1.1732230966186136e-18 -3.4897401454835373e-17 1.0
  outer loop
    vertex 4.517638087117182 4.23932574104781 0.7500000000000003
    vertex 4.399999996912139 2.0056302457473305 0.7500000000000002
    vertex 4.565685421861379 1.7764345487862097 0.7500000000000001
  endloop
endfacet
facet normal -1.1732230966186136e-18 -3.4897401454835373e-17 1.0
  outer loop
    vertex 4.517638087117182 4.23932574104781 0.7500000000000003
    vertex 4.565685421861379 1.7764345487862097 0.7500000000000001
    vertex 4.999999996912141 3.879129645266849 0.7500000000000003
  endloop
endfacet
facet normal -1.1732230966186136e-18 -3.4897401454835373e-17 1.0
  outer loop
    vertex 4.999999996912141 3.879129645266849 0.7500000000000003
    vertex 4.565685421861379 1.7764345487862097 0.7500000000000001
    vertex 4.692820319939692 1.4777409011604494 0.7500000000000001
  endloop
endfacet
facet normal -1.1732230966186136e-18 -3.4897401454835373e-17 1.0
  outer loop
    vertex 4.999999996912141 3.879129645266849 0.7500000000000003
    vertex 4.692820319939692 1.4777409011604494 0.7500000000000001
    vertex 4.772740657943395 1.1299047813411576 0.7500000000000001
  endloop
endfacet
facet normal -1.1732230966186136e-18 -3.4897401454835373e-17 1.0
  outer loop
    vertex 4.999999996912141 3.879129645266849 0.7500000000000003
    vertex 4.772740657943395 1.1299047813411576 0.7500000000000001
    vertex 4.799999996912141 0.7566306460676513 0.7500000000000001
  endloop
endfacet
facet normal -0.9238795325112875 0.21227457502505886 0.3184118625375881
  outer loop
    vertex 2.2679491893432644 -1.234050895307707 3.2789714527382356
    vertex 2.0681483443340056 1.6898159842514167 0.7500000000000002
    vertex 2.068148344334005 -1.5016171413225463 2.8776220837159765
  endloop
endfacet
facet normal -0.9238795325112875 0.21227457502505886 0.3184118625375881
  outer loop
    vertex 2.0681483443340056 1.6898159842514167 0.7500000000000002
    vertex 2.2679491893432644 -1.234050895307707 3.2789714527382356
    vertex 2.2679491893432653 2.5594062837996465 0.7500000000000002
  endloop
endfacet
facet normal -0.6087614290087215 0.4400732535354887 0.660109880303233
  outer loop
    vertex 2.585786434539046 -1.0042865509802 3.623617969229496
    vertex 2.999999996912141 3.8791296452668513 0.7500000000000001
    vertex 2.5857864345390458 3.3061404028640418 0.7500000000000003
  endloop
endfacet
facet normal -0.6087614290087215 0.4400732535354887 0.660109880303233
  outer loop
    vertex 2.999999996912141 3.8791296452668513 0.7500000000000001
    vertex 2.585786434539046 -1.0042865509802 3.623617969229496
    vertex 2.999999996912141 -0.8279821687024131 3.8880745426461765
  endloop
endfacet
facet normal -0.3826834323650891 0.5124761579724839 0.7687142369587258
  outer loop
    vertex 3.482361906707099 -0.7171526007698106 4.05431889454508
    vertex 2.999999996912141 3.8791296452668513 0.7500000000000001
    vertex 2.999999996912141 -0.8279821687024131 3.8880745426461765
  endloop
endfacet
facet normal -0.3826834323650891 0.5124761579724839 0.7687142369587258
  outer loop
    vertex 2.999999996912141 3.8791296452668513 0.7500000000000001
    vertex 3.482361906707099 -0.7171526007698106 4.05431889454508
    vertex 3.4823619067071006 4.239325741047809 0.7500000000000003
  endloop
endfacet
facet normal 1.0 -0.0 -0.0
  outer loop
    vertex 5.999999996912141 0.7566306460676507 0.7500000000000002
    vertex 5.999999996912141 -1.788751091532936 2.446921158400392
    vertex 5.999999996912141 -1.788751091532936 0.75
  endloop
endfacet
facet normal -1.0 -3.1864162887172276e-32 2.0772668699043656e-16
  outer loop
    vertex 1.9999999969121418 -1.7887510915329357 2.446921158400392
    vertex 1.9999999969121416 -1.788751091532936 0.75
    vertex 1.9999999969121416 -2.920031863799864 0.75
  endloop
endfacet
facet normal -1.0 -3.7764933792204173e-32 2.0772668699043649e-16
  outer loop
    vertex 1.9999999969121416 0.7566306460676516 0.7500000000000002
    vertex 1.9999999969121416 -1.788751091532936 0.75
    vertex 1.9999999969121418 -1.7887510915329357 2.446921158400392
  endloop
endfacet
facet normal -0.5128834278368237 0.8584582630800112 0.0
  outer loop
    vertex 2.747414419775876 8.089161641624234 0.75
    vertex 3.1313224736635608 8.318526407647491 0.0
    vertex 2.747414419775876 8.089161641624234 0.0
  endloop
endfacet
facet normal -0.5128834278368237 0.8584582630800112 0.0
  outer loop
    vertex 3.1313224736635608 8.318526407647491 0.0
    vertex 2.747414419775876 8.089161641624234 0.75
    vertex 3.1313224736635608 8.318526407647491 0.75
  endloop
endfacet
facet normal 0.13052618421764164 -0.9914448624273476 0.0
  outer loop
    vertex 5.035276146825444 -3.8637033141552495 0.75
    vertex 3.9999999701976767 -3.9999999999999996 0.0
    vertex 5.035276146825444 -3.8637033141552495 0.0
  endloop
endfacet
facet normal 0.13052618421764164 -0.9914448624273476 0.0
  outer loop
    vertex 3.9999999701976767 -3.9999999999999996 0.0
    vertex 5.035276146825444 -3.8637033141552495 0.75
    vertex 3.9999999701976767 -3.9999999999999996 0.75
  endloop
endfacet
facet normal -0.38268343752766854 -0.9238795303728767 -0.0
  outer loop
    vertex 2.9647237956008894 -3.863703298728432 0.75
    vertex 1.9999999827936212 -3.464101605203647 0.0
    vertex 2.9647237956008894 -3.863703298728432 0.0
  endloop
endfacet
facet normal -0.38268343752766854 -0.9238795303728767 -0.0
  outer loop
    vertex 1.9999999827936212 -3.464101605203647 0.0
    vertex 2.9647237956008894 -3.863703298728432 0.75
    vertex 1.9999999827936212 -3.464101605203647 0.75
  endloop
endfacet
facet normal -0.9238795332240902 -0.38268343064422994 -0.0
  outer loop
    vertex 0.1362966935581593 -1.0352761756122775 0.75
    vertex 0.5358983798951922 -1.9999999913968105 0.0
    vertex 0.5358983798951922 -1.9999999913968105 0.75
  endloop
endfacet
facet normal -0.9238795332240902 -0.38268343064422994 -0.0
  outer loop
    vertex 0.5358983798951922 -1.9999999913968105 0.0
    vertex 0.1362966935581593 -1.0352761756122775 0.75
    vertex 0.1362966935581593 -1.0352761756122775 0.0
  endloop
endfacet
facet normal 0.10749992299392189 0.994205092803442 0.0
  outer loop
    vertex 3.999999996912141 8.5086027848989 0.75
    vertex 4.444614905706863 8.460528128267834 0.0
    vertex 3.999999996912141 8.5086027848989 0.0
  endloop
endfacet
facet normal 0.10749992299392189 0.994205092803442 0.0
  outer loop
    vertex 4.444614905706863 8.460528128267834 0.0
    vertex 3.999999996912141 8.5086027848989 0.75
    vertex 4.444614905706863 8.460528128267834 0.75
  endloop
endfacet
facet normal -0.6845282634065417 0.7289863212692159 0.0
  outer loop
    vertex 2.421407050582293 7.783036201707501 0.75
    vertex 2.747414419775876 8.089161641624234 0.0
    vertex 2.421407050582293 7.783036201707501 0.0
  endloop
endfacet
facet normal -0.6845282634065417 0.7289863212692159 0.0
  outer loop
    vertex 2.747414419775876 8.089161641624234 0.0
    vertex 2.421407050582293 7.783036201707501 0.75
    vertex 2.747414419775876 8.089161641624234 0.75
  endloop
endfacet
facet normal -0.10749992187582325 0.9942050929243382 0.0
  outer loop
    vertex 3.5553850880633546 8.460528128767855 0.75
    vertex 3.999999996912141 8.5086027848989 0.0
    vertex 3.5553850880633546 8.460528128767855 0.0
  endloop
endfacet
facet normal -0.10749992187582325 0.9942050929243382 0.0
  outer loop
    vertex 3.999999996912141 8.5086027848989 0.0
    vertex 3.5553850880633546 8.460528128767855 0.75
    vertex 3.999999996912141 8.5086027848989 0.75
  endloop
endfacet
facet normal 0.961523947795301 0.2747211273567055 0.0
  outer loop
    vertex 5.999999999999997 6.999999955296516 0.0
    vertex 7.999999999999998 -5.960464526524934e-08 0.75
    vertex 7.999999999999998 -5.960464526524934e-08 0.0
  endloop
endfacet
facet normal 0.961523947795301 0.2747211273567055 0.0
  outer loop
    vertex 7.999999999999998 -5.960464526524934e-08 0.75
    vertex 5.999999999999997 6.999999955296516 0.0
    vertex 5.999999999999997 6.999999955296516 0.75
  endloop
endfacet
facet normal 0.3175305910941555 0.9482480285871394 0.0
  outer loop
    vertex 4.444614905706863 8.460528128267834 0.75
    vertex 4.86867751994696 8.318526406670564 0.0
    vertex 4.444614905706863 8.460528128267834 0.0
  endloop
endfacet
facet normal 0.3175305910941555 0.9482480285871394 0.0
  outer loop
    vertex 4.86867751994696 8.318526406670564 0.0
    vertex 4.444614905706863 8.460528128267834 0.75
    vertex 4.86867751994696 8.318526406670564 0.75
  endloop
endfacet
facet normal 0.9238795275216625 -0.3826834444111082 0.0
  outer loop
    vertex 7.863703291015023 -1.0352762331859438 0.0
    vertex 7.464101590302485 -2.000000043015947 0.75
    vertex 7.464101590302485 -2.000000043015947 0.0
  endloop
endfacet
facet normal 0.9238795275216625 -0.3826834444111082 0.0
  outer loop
    vertex 7.464101590302485 -2.000000043015947 0.75
    vertex 7.863703291015023 -1.0352762331859438 0.0
    vertex 7.863703291015023 -1.0352762331859438 0.75
  endloop
endfacet
facet normal -0.31753059002774203 0.948248028944239 0.0
  outer loop
    vertex 3.1313224736635608 8.318526407647491 0.75
    vertex 3.5553850880633546 8.460528128767855 0.0
    vertex 3.1313224736635608 8.318526407647491 0.0
  endloop
endfacet
facet normal -0.31753059002774203 0.948248028944239 0.0
  outer loop
    vertex 3.5553850880633546 8.460528128767855 0.0
    vertex 3.1313224736635608 8.318526407647491 0.75
    vertex 3.5553850880633546 8.460528128767855 0.75
  endloop
endfacet
facet normal 0.6845282642263719 0.7289863204993838 0.0
  outer loop
    vertex 5.252585573576698 8.089161640215556 0.75
    vertex 5.578592942426007 7.78303619993219 0.0
    vertex 5.252585573576698 8.089161640215556 0.0
  endloop
endfacet
facet normal 0.6845282642263719 0.7289863204993838 0.0
  outer loop
    vertex 5.578592942426007 7.78303619993219 0.0
    vertex 5.252585573576698 8.089161640215556 0.75
    vertex 5.578592942426007 7.78303619993219 0.75
  endloop
endfacet
facet normal 0.5128834288022603 0.8584582625032139 0.0
  outer loop
    vertex 4.86867751994696 8.318526406670564 0.75
    vertex 5.252585573576698 8.089161640215556 0.0
    vertex 4.86867751994696 8.318526406670564 0.0
  endloop
endfacet
facet normal 0.5128834288022603 0.8584582625032139 0.0
  outer loop
    vertex 5.252585573576698 8.089161640215556 0.0
    vertex 4.86867751994696 8.318526406670564 0.75
    vertex 5.252585573576698 8.089161640215556 0.75
  endloop
endfacet
facet normal 0.8245308262987522 0.5658170344582224 0.0
  outer loop
    vertex 5.578592942426007 7.78303619993219 0.0
    vertex 5.831629957616472 7.414300713877168 0.75
    vertex 5.831629957616472 7.414300713877168 0.0
  endloop
endfacet
facet normal 0.8245308262987522 0.5658170344582224 0.0
  outer loop
    vertex 5.831629957616472 7.414300713877168 0.75
    vertex 5.578592942426007 7.78303619993219 0.0
    vertex 5.578592942426007 7.78303619993219 0.75
  endloop
endfacet
facet normal 0.9264195059266154 0.37649289374261247 0.0
  outer loop
    vertex 5.831629957616472 7.414300713877168 0.0
    vertex 5.999999999999997 6.999999955296516 0.75
    vertex 5.999999999999997 6.999999955296516 0.0
  endloop
endfacet
facet normal 0.9264195059266154 0.37649289374261247 0.0
  outer loop
    vertex 5.999999999999997 6.999999955296516 0.75
    vertex 5.831629957616472 7.414300713877168 0.0
    vertex 5.831629957616472 7.414300713877168 0.75
  endloop
endfacet
facet normal 0.7933533331098267 -0.6087614383677143 0.0
  outer loop
    vertex 7.464101590302485 -2.000000043015947 0.0
    vertex 6.828427093136052 -2.828427156356326 0.75
    vertex 6.828427093136052 -2.828427156356326 0.0
  endloop
endfacet
facet normal 0.7933533331098267 -0.6087614383677143 0.0
  outer loop
    vertex 6.828427093136052 -2.828427156356326 0.75
    vertex 7.464101590302485 -2.000000043015947 0.0
    vertex 7.464101590302485 -2.000000043015947 0.75
  endloop
endfacet
facet normal 0.382683423760791 -0.9238795360753039 0.0
  outer loop
    vertex 5.999999965587241 -3.4641016350059695 0.75
    vertex 5.035276146825444 -3.8637033141552495 0.0
    vertex 5.999999965587241 -3.4641016350059695 0.0
  endloop
endfacet
facet normal 0.382683423760791 -0.9238795360753039 0.0
  outer loop
    vertex 5.035276146825444 -3.8637033141552495 0.0
    vertex 5.999999965587241 -3.4641016350059695 0.75
    vertex 5.035276146825444 -3.8637033141552495 0.75
  endloop
endfacet
facet normal -0.13052619899132198 -0.9914448604823559 -0.0
  outer loop
    vertex 3.9999999701976767 -3.9999999999999996 0.75
    vertex 2.9647237956008894 -3.863703298728432 0.0
    vertex 3.9999999701976767 -3.9999999999999996 0.0
  endloop
endfacet
facet normal -0.13052619899132198 -0.9914448604823559 -0.0
  outer loop
    vertex 2.9647237956008894 -3.863703298728432 0.0
    vertex 3.9999999701976767 -3.9999999999999996 0.75
    vertex 2.9647237956008894 -3.863703298728432 0.75
  endloop
endfacet
facet normal 0.6087614206348853 -0.7933533467167051 0.0
  outer loop
    vertex 6.828427093136052 -2.828427156356326 0.75
    vertex 5.999999965587241 -3.4641016350059695 0.0
    vertex 6.828427093136052 -2.828427156356326 0.0
  endloop
endfacet
facet normal 0.6087614206348853 -0.7933533467167051 0.0
  outer loop
    vertex 5.999999965587241 -3.4641016350059695 0.0
    vertex 6.828427093136052 -2.828427156356326 0.75
    vertex 5.999999965587241 -3.4641016350059695 0.75
  endloop
endfacet
facet normal -0.608761432456771 -0.7933533376454531 -0.0
  outer loop
    vertex 1.9999999827936212 -3.464101605203647 0.75
    vertex 1.171572864717098 -2.828427114209478 0.0
    vertex 1.9999999827936212 -3.464101605203647 0.0
  endloop
endfacet
facet normal -0.608761432456771 -0.7933533376454531 -0.0
  outer loop
    vertex 1.171572864717098 -2.828427114209478 0.0
    vertex 1.9999999827936212 -3.464101605203647 0.75
    vertex 1.171572864717098 -2.828427114209478 0.75
  endloop
endfacet
facet normal -0.9914448614548518 -0.13052619160448145 -0.0
  outer loop
    vertex 7.049916206369744e-16 0.0 0.75
    vertex 0.1362966935581593 -1.0352761756122775 0.0
    vertex 0.1362966935581593 -1.0352761756122775 0.75
  endloop
endfacet
facet normal -0.9914448614548518 -0.13052619160448145 -0.0
  outer loop
    vertex 0.1362966935581593 -1.0352761756122775 0.0
    vertex 7.049916206369744e-16 0.0 0.75
    vertex 7.049916206369744e-16 0.0 0.0
  endloop
endfacet
facet normal 0.9914448595098599 -0.1305262063781603 0.0
  outer loop
    vertex 7.999999999999998 -5.960464526524934e-08 0.0
    vertex 7.863703291015023 -1.0352762331859438 0.75
    vertex 7.863703291015023 -1.0352762331859438 0.0
  endloop
endfacet
facet normal 0.9914448595098599 -0.1305262063781603 0.0
  outer loop
    vertex 7.863703291015023 -1.0352762331859438 0.75
    vertex 7.999999999999998 -5.960464526524934e-08 0.0
    vertex 7.999999999999998 -5.960464526524934e-08 0.75
  endloop
endfacet
facet normal -0.7933533421810796 -0.6087614265458277 -0.0
  outer loop
    vertex 0.5358983798951922 -1.9999999913968105 0.75
    vertex 1.171572864717098 -2.828427114209478 0.0
    vertex 1.171572864717098 -2.828427114209478 0.75
  endloop
endfacet
facet normal -0.7933533421810796 -0.6087614265458277 -0.0
  outer loop
    vertex 1.171572864717098 -2.828427114209478 0.0
    vertex 0.5358983798951922 -1.9999999913968105 0.75
    vertex 0.5358983798951922 -1.9999999913968105 0.0
  endloop
endfacet
facet normal 0.0 0.0 -1.0
  outer loop
    vertex 3.5553850880633546 8.460528128767855 0.0
    vertex 3.1999999969121413 1.8816306460676484 0.0
    vertex 3.1313224736635608 8.318526407647491 0.0
  endloop
endfacet
facet normal 0.0 0.0 -1.0
  outer loop
    vertex 3.1999999969121413 1.8816306460676484 0.0
    vertex 3.5553850880633546 8.460528128767855 0.0
    vertex 3.2272593358808868 2.254904781341154 0.0
  endloop
endfacet
facet normal 0.0 0.0 -1.0
  outer loop
    vertex 3.2272593358808868 2.254904781341154 0.0
    vertex 3.5553850880633546 8.460528128767855 0.0
    vertex 3.3071796738845904 2.6027409011604457 0.0
  endloop
endfacet
facet normal 0.0 0.0 -1.0
  outer loop
    vertex 3.3071796738845904 2.6027409011604457 0.0
    vertex 3.5553850880633546 8.460528128767855 0.0
    vertex 3.434314571962902 2.9014345487862045 0.0
  endloop
endfacet
facet normal 0.0 0.0 -1.0
  outer loop
    vertex 3.434314571962902 2.9014345487862045 0.0
    vertex 3.5553850880633546 8.460528128767855 0.0
    vertex 3.5999999969121395 3.1306302457473274 0.0
  endloop
endfacet
facet normal 0.0 0.0 -1.0
  outer loop
    vertex 3.5999999969121395 3.1306302457473274 0.0
    vertex 3.5553850880633546 8.460528128767855 0.0
    vertex 3.999999996912141 8.5086027848989 0.0
  endloop
endfacet
facet normal 0.0 0.0 -1.0
  outer loop
    vertex 3.5999999969121395 3.1306302457473274 0.0
    vertex 3.999999996912141 8.5086027848989 0.0
    vertex 3.792944760830124 3.2747086840597124 0.0
  endloop
endfacet
facet normal 0.0 0.0 -1.0
  outer loop
    vertex 3.792944760830124 3.2747086840597124 0.0
    vertex 3.999999996912141 8.5086027848989 0.0
    vertex 3.999999996912143 3.323851156253246 0.0
  endloop
endfacet
facet normal 0.0 0.0 -1.0
  outer loop
    vertex 3.999999996912143 3.323851156253246 0.0
    vertex 3.999999996912141 8.5086027848989 0.0
    vertex 4.444614905706863 8.460528128267834 0.0
  endloop
endfacet
facet normal 0.0 0.0 -1.0
  outer loop
    vertex 3.999999996912143 3.323851156253246 0.0
    vertex 4.444614905706863 8.460528128267834 0.0
    vertex 4.207055232994156 3.274708684059713 0.0
  endloop
endfacet
facet normal 0.0 0.0 -1.0
  outer loop
    vertex 4.207055232994156 3.274708684059713 0.0
    vertex 4.444614905706863 8.460528128267834 0.0
    vertex 4.39999999691214 3.1306302457473305 0.0
  endloop
endfacet
facet normal 0.0 0.0 -1.0
  outer loop
    vertex 4.39999999691214 3.1306302457473305 0.0
    vertex 4.444614905706863 8.460528128267834 0.0
    vertex 4.565685421861379 2.9014345487862094 0.0
  endloop
endfacet
facet normal 0.0 0.0 -1.0
  outer loop
    vertex 4.565685421861379 2.9014345487862094 0.0
    vertex 4.444614905706863 8.460528128267834 0.0
    vertex 4.86867751994696 8.318526406670564 0.0
  endloop
endfacet
facet normal 0.0 0.0 -1.0
  outer loop
    vertex 4.565685421861379 2.9014345487862094 0.0
    vertex 4.86867751994696 8.318526406670564 0.0
    vertex 4.692820319939692 2.6027409011604514 0.0
  endloop
endfacet
facet normal 0.0 0.0 -1.0
  outer loop
    vertex 4.692820319939692 2.6027409011604514 0.0
    vertex 4.86867751994696 8.318526406670564 0.0
    vertex 4.772740657943395 2.2549047813411587 0.0
  endloop
endfacet
facet normal 0.0 0.0 -1.0
  outer loop
    vertex 4.772740657943395 2.2549047813411587 0.0
    vertex 4.86867751994696 8.318526406670564 0.0
    vertex 4.799999996912141 1.8816306460676502 0.0
  endloop
endfacet
facet normal 0.0 0.0 -1.0
  outer loop
    vertex 1.9999999999999984 6.999999985098839 0.0
    vertex 0.1362966935581593 -1.0352761756122775 0.0
    vertex 7.049916206369744e-16 0.0 0.0
  endloop
endfacet
facet normal 0.0 0.0 -1.0
  outer loop
    vertex 0.1362966935581593 -1.0352761756122775 0.0
    vertex 1.9999999999999984 6.999999985098839 0.0
    vertex 0.5358983798951922 -1.9999999913968105 0.0
  endloop
endfacet
facet normal 0.0 0.0 -1.0
  outer loop
    vertex 0.5358983798951922 -1.9999999913968105 0.0
    vertex 1.9999999999999984 6.999999985098839 0.0
    vertex 1.171572864717098 -2.828427114209478 0.0
  endloop
endfacet
facet normal 0.0 0.0 -1.0
  outer loop
    vertex 1.171572864717098 -2.828427114209478 0.0
    vertex 1.9999999999999984 6.999999985098839 0.0
    vertex 1.9999999827936212 -3.464101605203647 0.0
  endloop
endfacet
facet normal 0.0 0.0 -1.0
  outer loop
    vertex 1.9999999827936212 -3.464101605203647 0.0
    vertex 1.9999999999999984 6.999999985098839 0.0
    vertex 2.9647237956008894 -3.863703298728432 0.0
  endloop
endfacet
facet normal 0.0 0.0 -1.0
  outer loop
    vertex 2.9647237956008894 -3.863703298728432 0.0
    vertex 1.9999999999999984 6.999999985098839 0.0
    vertex 2.168370034977142 7.414300715937048 0.0
  endloop
endfacet
facet normal 0.0 0.0 -1.0
  outer loop
    vertex 2.9647237956008894 -3.863703298728432 0.0
    vertex 2.168370034977142 7.414300715937048 0.0
    vertex 2.421407050582293 7.783036201707501 0.0
  endloop
endfacet
facet normal 0.0 0.0 -1.0
  outer loop
    vertex 2.9647237956008894 -3.863703298728432 0.0
    vertex 2.421407050582293 7.783036201707501 0.0
    vertex 2.747414419775876 8.089161641624234 0.0
  endloop
endfacet
facet normal 0.0 0.0 -1.0
  outer loop
    vertex 2.9647237956008894 -3.863703298728432 0.0
    vertex 2.747414419775876 8.089161641624234 0.0
    vertex 3.1313224736635608 8.318526407647491 0.0
  endloop
endfacet
facet normal 0.0 0.0 -1.0
  outer loop
    vertex 2.9647237956008894 -3.863703298728432 0.0
    vertex 3.1313224736635608 8.318526407647491 0.0
    vertex 3.1999999969121413 1.8816306460676484 0.0
  endloop
endfacet
facet normal 0.0 0.0 -1.0
  outer loop
    vertex 2.9647237956008894 -3.863703298728432 0.0
    vertex 3.1999999969121413 1.8816306460676484 0.0
    vertex 3.2272593358808885 1.508356510794143 0.0
  endloop
endfacet
facet normal 0.0 0.0 -1.0
  outer loop
    vertex 2.9647237956008894 -3.863703298728432 0.0
    vertex 3.2272593358808885 1.508356510794143 0.0
    vertex 3.9999999701976767 -3.9999999999999996 0.0
  endloop
endfacet
facet normal 0.0 0.0 -1.0
  outer loop
    vertex 3.9999999701976767 -3.9999999999999996 0.0
    vertex 3.2272593358808885 1.508356510794143 0.0
    vertex 3.3071796738845918 1.1605203909748507 0.0
  endloop
endfacet
facet normal 0.0 0.0 -1.0
  outer loop
    vertex 3.9999999701976767 -3.9999999999999996 0.0
    vertex 3.3071796738845918 1.1605203909748507 0.0
    vertex 3.4343145719629042 0.8618267433490914 0.0
  endloop
endfacet
facet normal 0.0 0.0 -1.0
  outer loop
    vertex 3.9999999701976767 -3.9999999999999996 0.0
    vertex 3.4343145719629042 0.8618267433490914 0.0
    vertex 3.599999996912143 0.6326310463879686 0.0
  endloop
endfacet
facet normal 0.0 0.0 -1.0
  outer loop
    vertex 3.9999999701976767 -3.9999999999999996 0.0
    vertex 3.599999996912143 0.6326310463879686 0.0
    vertex 3.7929447608301254 0.488552608075586 0.0
  endloop
endfacet
facet normal 0.0 0.0 -1.0
  outer loop
    vertex 3.9999999701976767 -3.9999999999999996 0.0
    vertex 3.7929447608301254 0.488552608075586 0.0
    vertex 3.999999996912141 0.4394101358820537 0.0
  endloop
endfacet
facet normal 0.0 0.0 -1.0
  outer loop
    vertex 3.9999999701976767 -3.9999999999999996 0.0
    vertex 3.999999996912141 0.4394101358820537 0.0
    vertex 5.035276146825444 -3.8637033141552495 0.0
  endloop
endfacet
facet normal 0.0 0.0 -1.0
  outer loop
    vertex 5.035276146825444 -3.8637033141552495 0.0
    vertex 3.999999996912141 0.4394101358820537 0.0
    vertex 4.207055232994159 0.48855260807558704 0.0
  endloop
endfacet
facet normal 0.0 0.0 -1.0
  outer loop
    vertex 5.035276146825444 -3.8637033141552495 0.0
    vertex 4.207055232994159 0.48855260807558704 0.0
    vertex 4.3999999969121415 0.6326310463879707 0.0
  endloop
endfacet
facet normal 0.0 0.0 -1.0
  outer loop
    vertex 5.035276146825444 -3.8637033141552495 0.0
    vertex 4.3999999969121415 0.6326310463879707 0.0
    vertex 4.565685421861381 0.8618267433490954 0.0
  endloop
endfacet
facet normal 0.0 0.0 -1.0
  outer loop
    vertex 5.035276146825444 -3.8637033141552495 0.0
    vertex 4.565685421861381 0.8618267433490954 0.0
    vertex 4.692820319939694 1.1605203909748547 0.0
  endloop
endfacet
facet normal 0.0 0.0 -1.0
  outer loop
    vertex 5.035276146825444 -3.8637033141552495 0.0
    vertex 4.692820319939694 1.1605203909748547 0.0
    vertex 4.772740657943397 1.5083565107941448 0.0
  endloop
endfacet
facet normal 0.0 0.0 -1.0
  outer loop
    vertex 5.035276146825444 -3.8637033141552495 0.0
    vertex 4.772740657943397 1.5083565107941448 0.0
    vertex 4.799999996912141 1.8816306460676502 0.0
  endloop
endfacet
facet normal 0.0 0.0 -1.0
  outer loop
    vertex 5.035276146825444 -3.8637033141552495 0.0
    vertex 4.799999996912141 1.8816306460676502 0.0
    vertex 4.86867751994696 8.318526406670564 0.0
  endloop
endfacet
facet normal 0.0 0.0 -1.0
  outer loop
    vertex 5.035276146825444 -3.8637033141552495 0.0
    vertex 4.86867751994696 8.318526406670564 0.0
    vertex 5.252585573576698 8.089161640215556 0.0
  endloop
endfacet
facet normal 0.0 0.0 -1.0
  outer loop
    vertex 5.035276146825444 -3.8637033141552495 0.0
    vertex 5.252585573576698 8.089161640215556 0.0
    vertex 5.999999965587241 -3.4641016350059695 0.0
  endloop
endfacet
facet normal 0.0 0.0 -1.0
  outer loop
    vertex 5.999999965587241 -3.4641016350059695 0.0
    vertex 5.252585573576698 8.089161640215556 0.0
    vertex 5.578592942426007 7.78303619993219 0.0
  endloop
endfacet
facet normal 0.0 0.0 -1.0
  outer loop
    vertex 5.999999965587241 -3.4641016350059695 0.0
    vertex 5.578592942426007 7.78303619993219 0.0
    vertex 5.831629957616472 7.414300713877168 0.0
  endloop
endfacet
facet normal 0.0 0.0 -1.0
  outer loop
    vertex 5.999999965587241 -3.4641016350059695 0.0
    vertex 5.831629957616472 7.414300713877168 0.0
    vertex 5.999999999999997 6.999999955296516 0.0
  endloop
endfacet
facet normal 0.0 0.0 -1.0
  outer loop
    vertex 5.999999965587241 -3.4641016350059695 0.0
    vertex 5.999999999999997 6.999999955296516 0.0
    vertex 6.828427093136052 -2.828427156356326 0.0
  endloop
endfacet
facet normal 0.0 0.0 -1.0
  outer loop
    vertex 6.828427093136052 -2.828427156356326 0.0
    vertex 5.999999999999997 6.999999955296516 0.0
    vertex 7.999999999999998 -5.960464526524934e-08 0.0
  endloop
endfacet
facet normal 0.0 0.0 -1.0
  outer loop
    vertex 6.828427093136052 -2.828427156356326 0.0
    vertex 7.999999999999998 -5.960464526524934e-08 0.0
    vertex 7.464101590302485 -2.000000043015947 0.0
  endloop
endfacet
facet normal 0.0 0.0 -1.0
  outer loop
    vertex 7.464101590302485 -2.000000043015947 0.0
    vertex 7.999999999999998 -5.960464526524934e-08 0.0
    vertex 7.863703291015023 -1.0352762331859438 0.0
  endloop
endfacet
facet normal -0.9615239474863455 0.27472112843805035 0.0
  outer loop
    vertex 1.9999999999999984 6.999999985098839 0.75
    vertex 7.049916206369744e-16 0.0 0.0
    vertex 7.049916206369744e-16 0.0 0.75
  endloop
endfacet
facet normal -0.9615239474863455 0.27472112843805035 0.0
  outer loop
    vertex 7.049916206369744e-16 0.0 0.0
    vertex 1.9999999999999984 6.999999985098839 0.75
    vertex 1.9999999999999984 6.999999985098839 0.0
  endloop
endfacet
facet normal -0.8245308256624254 0.5658170353855025 0.0
  outer loop
    vertex 2.421407050582293 7.783036201707501 0.75
    vertex 2.168370034977142 7.414300715937048 0.0
    vertex 2.168370034977142 7.414300715937048 0.75
  endloop
endfacet
facet normal -0.8245308256624254 0.5658170353855025 0.0
  outer loop
    vertex 2.168370034977142 7.414300715937048 0.0
    vertex 2.421407050582293 7.783036201707501 0.75
    vertex 2.421407050582293 7.783036201707501 0.0
  endloop
endfacet
facet normal -1.363062637661755e-33 -1.752246819085106e-33 1.0
  outer loop
    vertex 2.9647237956008894 -3.863703298728432 0.75
    vertex 1.9999999969121416 -2.920031863799864 0.75
    vertex 1.9999999827936212 -3.464101605203647 0.75
  endloop
endfacet
facet normal -1.363062637661755e-33 -1.752246819085106e-33 1.0
  outer loop
    vertex 1.9999999969121416 -2.920031863799864 0.75
    vertex 2.9647237956008894 -3.863703298728432 0.75
    vertex 5.999999996912141 -2.920031863799864 0.75
  endloop
endfacet
facet normal -1.363062637661755e-33 -1.752246819085106e-33 1.0
  outer loop
    vertex 5.999999996912141 -2.920031863799864 0.75
    vertex 2.9647237956008894 -3.863703298728432 0.75
    vertex 3.9999999701976767 -3.9999999999999996 0.75
  endloop
endfacet
facet normal -1.363062637661755e-33 -1.752246819085106e-33 1.0
  outer loop
    vertex 5.999999996912141 -2.920031863799864 0.75
    vertex 3.9999999701976767 -3.9999999999999996 0.75
    vertex 5.035276146825444 -3.8637033141552495 0.75
  endloop
endfacet
facet normal -1.363062637661755e-33 -1.752246819085106e-33 1.0
  outer loop
    vertex 5.999999996912141 -2.920031863799864 0.75
    vertex 5.035276146825444 -3.8637033141552495 0.75
    vertex 5.999999965587241 -3.4641016350059695 0.75
  endloop
endfacet
facet normal -1.363062637661755e-33 -1.752246819085106e-33 1.0
  outer loop
    vertex 5.999999996912141 -2.920031863799864 0.75
    vertex 5.999999965587241 -3.4641016350059695 0.75
    vertex 6.828427093136052 -2.828427156356326 0.75
  endloop
endfacet
facet normal -1.363062637661755e-33 -1.752246819085106e-33 1.0
  outer loop
    vertex 5.999999996912141 -2.920031863799864 0.75
    vertex 6.828427093136052 -2.828427156356326 0.75
    vertex 5.999999996912141 -1.788751091532936 0.75
  endloop
endfacet
facet normal -1.363062637661755e-33 -1.752246819085106e-33 1.0
  outer loop
    vertex 5.999999996912141 -1.788751091532936 0.75
    vertex 6.828427093136052 -2.828427156356326 0.75
    vertex 5.999999996912141 0.7566306460676507 0.7500000000000002
  endloop
endfacet
facet normal -1.363062637661755e-33 -1.752246819085106e-33 1.0
  outer loop
    vertex 5.999999996912141 0.7566306460676507 0.7500000000000002
    vertex 6.828427093136052 -2.828427156356326 0.75
    vertex 5.999999999999997 6.999999955296516 0.75
  endloop
endfacet
facet normal -1.363062637661755e-33 -1.752246819085106e-33 1.0
  outer loop
    vertex 5.999999999999997 6.999999955296516 0.75
    vertex 6.828427093136052 -2.828427156356326 0.75
    vertex 7.999999999999998 -5.960464526524934e-08 0.75
  endloop
endfacet
facet normal -1.363062637661755e-33 -1.752246819085106e-33 1.0
  outer loop
    vertex 7.999999999999998 -5.960464526524934e-08 0.75
    vertex 6.828427093136052 -2.828427156356326 0.75
    vertex 7.464101590302485 -2.000000043015947 0.75
  endloop
endfacet
facet normal -1.363062637661755e-33 -1.752246819085106e-33 1.0
  outer loop
    vertex 7.999999999999998 -5.960464526524934e-08 0.75
    vertex 7.464101590302485 -2.000000043015947 0.75
    vertex 7.863703291015023 -1.0352762331859438 0.75
  endloop
endfacet
facet normal -1.363062637661755e-33 -1.752246819085106e-33 1.0
  outer loop
    vertex 0.1362966935581593 -1.0352761756122775 0.75
    vertex 1.9999999999999984 6.999999985098839 0.75
    vertex 7.049916206369744e-16 0.0 0.75
  endloop
endfacet
facet normal -1.363062637661755e-33 -1.752246819085106e-33 1.0
  outer loop
    vertex 1.9999999999999984 6.999999985098839 0.75
    vertex 0.1362966935581593 -1.0352761756122775 0.75
    vertex 0.5358983798951922 -1.9999999913968105 0.75
  endloop
endfacet
facet normal -1.363062637661755e-33 -1.752246819085106e-33 1.0
  outer loop
    vertex 1.9999999999999984 6.999999985098839 0.75
    vertex 0.5358983798951922 -1.9999999913968105 0.75
    vertex 1.171572864717098 -2.828427114209478 0.75
  endloop
endfacet
facet normal -1.363062637661755e-33 -1.752246819085106e-33 1.0
  outer loop
    vertex 1.9999999999999984 6.999999985098839 0.75
    vertex 1.171572864717098 -2.828427114209478 0.75
    vertex 1.9999999827936212 -3.464101605203647 0.75
  endloop
endfacet
facet normal -1.363062637661755e-33 -1.752246819085106e-33 1.0
  outer loop
    vertex 1.9999999999999984 6.999999985098839 0.75
    vertex 1.9999999827936212 -3.464101605203647 0.75
    vertex 1.9999999969121416 0.7566306460676516 0.7500000000000002
  endloop
endfacet
facet normal -1.363062637661755e-33 -1.752246819085106e-33 1.0
  outer loop
    vertex 1.9999999969121416 0.7566306460676516 0.7500000000000002
    vertex 1.9999999827936212 -3.464101605203647 0.75
    vertex 1.9999999969121416 -2.920031863799864 0.75
  endloop
endfacet
facet normal -1.363062637661755e-33 -1.752246819085106e-33 1.0
  outer loop
    vertex 1.9999999969121416 0.7566306460676516 0.7500000000000002
    vertex 1.9999999969121416 -2.920031863799864 0.75
    vertex 1.9999999969121416 -1.788751091532936 0.75
  endloop
endfacet
facet normal -1.363062637661755e-33 -1.752246819085106e-33 1.0
  outer loop
    vertex 1.9999999999999984 6.999999985098839 0.75
    vertex 1.9999999969121416 0.7566306460676516 0.7500000000000002
    vertex 2.0681483443340056 1.6898159842514167 0.7500000000000002
  endloop
endfacet
facet normal -1.363062637661755e-33 -1.752246819085106e-33 1.0
  outer loop
    vertex 1.9999999999999984 6.999999985098839 0.75
    vertex 2.0681483443340056 1.6898159842514167 0.7500000000000002
    vertex 2.168370034977142 7.414300715937048 0.75
  endloop
endfacet
facet normal -1.363062637661755e-33 -1.752246819085106e-33 1.0
  outer loop
    vertex 2.168370034977142 7.414300715937048 0.75
    vertex 2.0681483443340056 1.6898159842514167 0.7500000000000002
    vertex 2.2679491893432653 2.5594062837996465 0.7500000000000002
  endloop
endfacet
facet normal -1.363062637661755e-33 -1.752246819085106e-33 1.0
  outer loop
    vertex 2.168370034977142 7.414300715937048 0.75
    vertex 2.2679491893432653 2.5594062837996465 0.7500000000000002
    vertex 2.421407050582293 7.783036201707501 0.75
  endloop
endfacet
facet normal -1.363062637661755e-33 -1.752246819085106e-33 1.0
  outer loop
    vertex 2.421407050582293 7.783036201707501 0.75
    vertex 2.2679491893432653 2.5594062837996465 0.7500000000000002
    vertex 2.5857864345390458 3.3061404028640418 0.7500000000000003
  endloop
endfacet
facet normal -1.363062637661755e-33 -1.752246819085106e-33 1.0
  outer loop
    vertex 2.421407050582293 7.783036201707501 0.75
    vertex 2.5857864345390458 3.3061404028640418 0.7500000000000003
    vertex 2.747414419775876 8.089161641624234 0.75
  endloop
endfacet
facet normal -1.363062637661755e-33 -1.752246819085106e-33 1.0
  outer loop
    vertex 2.747414419775876 8.089161641624234 0.75
    vertex 2.5857864345390458 3.3061404028640418 0.7500000000000003
    vertex 2.999999996912141 3.8791296452668513 0.7500000000000001
  endloop
endfacet
facet normal -1.363062637661755e-33 -1.752246819085106e-33 1.0
  outer loop
    vertex 2.747414419775876 8.089161641624234 0.75
    vertex 2.999999996912141 3.8791296452668513 0.7500000000000001
    vertex 3.1313224736635608 8.318526407647491 0.75
  endloop
endfacet
facet normal -1.363062637661755e-33 -1.752246819085106e-33 1.0
  outer loop
    vertex 3.1313224736635608 8.318526407647491 0.75
    vertex 2.999999996912141 3.8791296452668513 0.7500000000000001
    vertex 3.4823619067071006 4.239325741047809 0.7500000000000003
  endloop
endfacet
facet normal -1.363062637661755e-33 -1.752246819085106e-33 1.0
  outer loop
    vertex 3.1313224736635608 8.318526407647491 0.75
    vertex 3.4823619067071006 4.239325741047809 0.7500000000000003
    vertex 3.5553850880633546 8.460528128767855 0.75
  endloop
endfacet
facet normal -1.363062637661755e-33 -1.752246819085106e-33 1.0
  outer loop
    vertex 3.5553850880633546 8.460528128767855 0.75
    vertex 3.4823619067071006 4.239325741047809 0.7500000000000003
    vertex 3.999999996912141 4.362181921531641 0.7500000000000003
  endloop
endfacet
facet normal -1.363062637661755e-33 -1.752246819085106e-33 1.0
  outer loop
    vertex 3.5553850880633546 8.460528128767855 0.75
    vertex 3.999999996912141 4.362181921531641 0.7500000000000003
    vertex 3.999999996912141 8.5086027848989 0.75
  endloop
endfacet
facet normal -1.363062637661755e-33 -1.752246819085106e-33 1.0
  outer loop
    vertex 3.999999996912141 8.5086027848989 0.75
    vertex 3.999999996912141 4.362181921531641 0.7500000000000003
    vertex 4.517638087117182 4.23932574104781 0.7500000000000003
  endloop
endfacet
facet normal -1.363062637661755e-33 -1.752246819085106e-33 1.0
  outer loop
    vertex 3.999999996912141 8.5086027848989 0.75
    vertex 4.517638087117182 4.23932574104781 0.7500000000000003
    vertex 4.444614905706863 8.460528128267834 0.75
  endloop
endfacet
facet normal -1.363062637661755e-33 -1.752246819085106e-33 1.0
  outer loop
    vertex 4.444614905706863 8.460528128267834 0.75
    vertex 4.517638087117182 4.23932574104781 0.7500000000000003
    vertex 4.86867751994696 8.318526406670564 0.75
  endloop
endfacet
facet normal -1.363062637661755e-33 -1.752246819085106e-33 1.0
  outer loop
    vertex 4.86867751994696 8.318526406670564 0.75
    vertex 4.517638087117182 4.23932574104781 0.7500000000000003
    vertex 4.999999996912141 3.879129645266849 0.7500000000000003
  endloop
endfacet
facet normal -1.363062637661755e-33 -1.752246819085106e-33 1.0
  outer loop
    vertex 4.86867751994696 8.318526406670564 0.75
    vertex 4.999999996912141 3.879129645266849 0.7500000000000003
    vertex 5.252585573576698 8.089161640215556 0.75
  endloop
endfacet
facet normal -1.363062637661755e-33 -1.752246819085106e-33 1.0
  outer loop
    vertex 5.252585573576698 8.089161640215556 0.75
    vertex 4.999999996912141 3.879129645266849 0.7500000000000003
    vertex 5.414213559285236 3.3061404028640453 0.7500000000000002
  endloop
endfacet
facet normal -1.363062637661755e-33 -1.752246819085106e-33 1.0
  outer loop
    vertex 5.252585573576698 8.089161640215556 0.75
    vertex 5.414213559285236 3.3061404028640453 0.7500000000000002
    vertex 5.578592942426007 7.78303619993219 0.75
  endloop
endfacet
facet normal -1.363062637661755e-33 -1.752246819085106e-33 1.0
  outer loop
    vertex 5.578592942426007 7.78303619993219 0.75
    vertex 5.414213559285236 3.3061404028640453 0.7500000000000002
    vertex 5.732050804481018 2.5594062837996465 0.7500000000000002
  endloop
endfacet
facet normal -1.363062637661755e-33 -1.752246819085106e-33 1.0
  outer loop
    vertex 5.578592942426007 7.78303619993219 0.75
    vertex 5.732050804481018 2.5594062837996465 0.7500000000000002
    vertex 5.831629957616472 7.414300713877168 0.75
  endloop
endfacet
facet normal -1.363062637661755e-33 -1.752246819085106e-33 1.0
  outer loop
    vertex 5.831629957616472 7.414300713877168 0.75
    vertex 5.732050804481018 2.5594062837996465 0.7500000000000002
    vertex 5.931851649490278 1.6898159842514162 0.7500000000000002
  endloop
endfacet
facet normal -1.363062637661755e-33 -1.752246819085106e-33 1.0
  outer loop
    vertex 5.831629957616472 7.414300713877168 0.75
    vertex 5.931851649490278 1.6898159842514162 0.7500000000000002
    vertex 5.999999999999997 6.999999955296516 0.75
  endloop
endfacet
facet normal -1.363062637661755e-33 -1.752246819085106e-33 1.0
  outer loop
    vertex 5.999999999999997 6.999999955296516 0.75
    vertex 5.931851649490278 1.6898159842514162 0.7500000000000002
    vertex 5.999999996912141 0.7566306460676507 0.7500000000000002
  endloop
endfacet
facet normal -0.9264195029098193 0.3764929011659098 0.0
  outer loop
    vertex 2.168370034977142 7.414300715937048 0.75
    vertex 1.9999999999999984 6.999999985098839 0.0
    vertex 1.9999999999999984 6.999999985098839 0.75
  endloop
endfacet
facet normal -0.9264195029098193 0.3764929011659098 0.0
  outer loop
    vertex 1.9999999999999984 6.999999985098839 0.0
    vertex 2.168370034977142 7.414300715937048 0.75
    vertex 2.168370034977142 7.414300715937048 0.0
  endloop
endfacet
endsolid laser cut motor mount
