solid Untitled-55ed0320
facet normal -0.0 -1.0 -0.0
  outer loop
    vertex 185.0 14.838401151746345 0.49999999999999994
    vertex 0.0 14.838401151746345 0.0
    vertex 185.0 14.838401151746345 0.0
  endloop
endfacet
facet normal -0.0 -1.0 -0.0
  outer loop
    vertex 0.0 14.838401151746345 0.0
    vertex 185.0 14.838401151746345 0.49999999999999994
    vertex 0.0 14.838401151746345 0.49999999999999994
  endloop
endfacet
facet normal -1.0 0.0 0.0
  outer loop
    vertex -0.49999999999999994 15.338401151746346 0.49999999999999994
    vertex -0.49999999999999994 7.838401151746344 0.0
    vertex -0.49999999999999994 7.838401151746344 0.49999999999999994
  endloop
endfacet
facet normal -1.0 0.0 0.0
  outer loop
    vertex -0.49999999999999994 7.838401151746344 0.0
    vertex -0.49999999999999994 15.338401151746346 0.49999999999999994
    vertex -0.49999999999999994 15.338401151746346 0.0
  endloop
endfacet
facet normal -1.0 0.0 0.0
  outer loop
    vertex 185.0 14.838401151746345 0.49999999999999994
    vertex 185.0 8.338401151746345 0.0
    vertex 185.0 8.338401151746345 0.49999999999999994
  endloop
endfacet
facet normal -1.0 0.0 0.0
  outer loop
    vertex 185.0 8.338401151746345 0.0
    vertex 185.0 14.838401151746345 0.49999999999999994
    vertex 185.0 14.838401151746345 0.0
  endloop
endfacet
facet normal -1.0 0.0 0.0
  outer loop
    vertex -0.49999999999999994 7.0 0.49999999999999994
    vertex -0.49999999999999994 -0.49999999999999994 0.0
    vertex -0.49999999999999994 -0.49999999999999994 0.49999999999999994
  endloop
endfacet
facet normal -1.0 0.0 0.0
  outer loop
    vertex -0.49999999999999994 -0.49999999999999994 0.0
    vertex -0.49999999999999994 7.0 0.49999999999999994
    vertex -0.49999999999999994 7.0 0.0
  endloop
endfacet
facet normal -0.0 1.0 0.0
  outer loop
    vertex -0.49999999999999994 7.0 0.49999999999999994
    vertex 185.5 7.0 0.0
    vertex -0.49999999999999994 7.0 0.0
  endloop
endfacet
facet normal -0.0 1.0 0.0
  outer loop
    vertex 185.5 7.0 0.0
    vertex -0.49999999999999994 7.0 0.49999999999999994
    vertex 185.5 7.0 0.49999999999999994
  endloop
endfacet
facet normal -0.0 -1.0 -0.0
  outer loop
    vertex 185.0 6.499999999999999 0.49999999999999994
    vertex 0.0 6.499999999999999 0.0
    vertex 185.0 6.499999999999999 0.0
  endloop
endfacet
facet normal -0.0 -1.0 -0.0
  outer loop
    vertex 0.0 6.499999999999999 0.0
    vertex 185.0 6.499999999999999 0.49999999999999994
    vertex 0.0 6.499999999999999 0.49999999999999994
  endloop
endfacet
facet normal 0.0 0.0 1.0
  outer loop
    vertex -0.49999999999999994 7.838401151746344 0.49999999999999994
    vertex 0.0 8.338401151746345 0.49999999999999994
    vertex -0.49999999999999994 15.338401151746346 0.49999999999999994
  endloop
endfacet
facet normal 0.0 0.0 1.0
  outer loop
    vertex 0.0 8.338401151746345 0.49999999999999994
    vertex -0.49999999999999994 7.838401151746344 0.49999999999999994
    vertex 185.5 7.838401151746344 0.49999999999999994
  endloop
endfacet
facet normal 0.0 0.0 1.0
  outer loop
    vertex 0.0 8.338401151746345 0.49999999999999994
    vertex 185.5 7.838401151746344 0.49999999999999994
    vertex 185.0 8.338401151746345 0.49999999999999994
  endloop
endfacet
facet normal 0.0 0.0 1.0
  outer loop
    vertex 185.0 8.338401151746345 0.49999999999999994
    vertex 185.5 7.838401151746344 0.49999999999999994
    vertex 185.0 14.838401151746345 0.49999999999999994
  endloop
endfacet
facet normal 0.0 0.0 1.0
  outer loop
    vertex -0.49999999999999994 15.338401151746346 0.49999999999999994
    vertex 0.0 14.838401151746345 0.49999999999999994
    vertex 185.5 15.338401151746346 0.49999999999999994
  endloop
endfacet
facet normal 0.0 0.0 1.0
  outer loop
    vertex 0.0 14.838401151746345 0.49999999999999994
    vertex -0.49999999999999994 15.338401151746346 0.49999999999999994
    vertex 0.0 8.338401151746345 0.49999999999999994
  endloop
endfacet
facet normal 0.0 0.0 1.0
  outer loop
    vertex 185.5 15.338401151746346 0.49999999999999994
    vertex 0.0 14.838401151746345 0.49999999999999994
    vertex 185.0 14.838401151746345 0.49999999999999994
  endloop
endfacet
facet normal 0.0 0.0 1.0
  outer loop
    vertex 185.5 15.338401151746346 0.49999999999999994
    vertex 185.0 14.838401151746345 0.49999999999999994
    vertex 185.5 7.838401151746344 0.49999999999999994
  endloop
endfacet
facet normal 1.0 0.0 0.0
  outer loop
    vertex 0.0 14.838401151746345 0.0
    vertex 0.0 8.338401151746345 0.49999999999999994
    vertex 0.0 8.338401151746345 0.0
  endloop
endfacet
facet normal 1.0 0.0 0.0
  outer loop
    vertex 0.0 8.338401151746345 0.49999999999999994
    vertex 0.0 14.838401151746345 0.0
    vertex 0.0 14.838401151746345 0.49999999999999994
  endloop
endfacet
facet normal 0.0 1.0 0.0
  outer loop
    vertex 0.0 8.338401151746345 0.49999999999999994
    vertex 185.0 8.338401151746345 0.0
    vertex 0.0 8.338401151746345 0.0
  endloop
endfacet
facet normal 0.0 1.0 0.0
  outer loop
    vertex 185.0 8.338401151746345 0.0
    vertex 0.0 8.338401151746345 0.49999999999999994
    vertex 185.0 8.338401151746345 0.49999999999999994
  endloop
endfacet
facet normal -0.0 -1.0 -0.0
  outer loop
    vertex 185.5 -0.49999999999999994 0.49999999999999994
    vertex -0.49999999999999994 -0.49999999999999994 0.0
    vertex 185.5 -0.49999999999999994 0.0
  endloop
endfacet
facet normal -0.0 -1.0 -0.0
  outer loop
    vertex -0.49999999999999994 -0.49999999999999994 0.0
    vertex 185.5 -0.49999999999999994 0.49999999999999994
    vertex -0.49999999999999994 -0.49999999999999994 0.49999999999999994
  endloop
endfacet
facet normal -0.0 -0.0 1.0
  outer loop
    vertex -0.49999999999999994 -0.49999999999999994 0.49999999999999994
    vertex 0.0 0.0 0.49999999999999994
    vertex -0.49999999999999994 7.0 0.49999999999999994
  endloop
endfacet
facet normal -0.0 -0.0 1.0
  outer loop
    vertex 0.0 0.0 0.49999999999999994
    vertex -0.49999999999999994 -0.49999999999999994 0.49999999999999994
    vertex 185.5 -0.49999999999999994 0.49999999999999994
  endloop
endfacet
facet normal -0.0 -0.0 1.0
  outer loop
    vertex 0.0 0.0 0.49999999999999994
    vertex 185.5 -0.49999999999999994 0.49999999999999994
    vertex 185.0 0.0 0.49999999999999994
  endloop
endfacet
facet normal -0.0 -0.0 1.0
  outer loop
    vertex 185.0 0.0 0.49999999999999994
    vertex 185.5 -0.49999999999999994 0.49999999999999994
    vertex 185.0 6.499999999999999 0.49999999999999994
  endloop
endfacet
facet normal -0.0 -0.0 1.0
  outer loop
    vertex -0.49999999999999994 7.0 0.49999999999999994
    vertex 0.0 6.499999999999999 0.49999999999999994
    vertex 185.5 7.0 0.49999999999999994
  endloop
endfacet
facet normal -0.0 -0.0 1.0
  outer loop
    vertex 0.0 6.499999999999999 0.49999999999999994
    vertex -0.49999999999999994 7.0 0.49999999999999994
    vertex 0.0 0.0 0.49999999999999994
  endloop
endfacet
facet normal -0.0 -0.0 1.0
  outer loop
    vertex 185.5 7.0 0.49999999999999994
    vertex 0.0 6.499999999999999 0.49999999999999994
    vertex 185.0 6.499999999999999 0.49999999999999994
  endloop
endfacet
facet normal -0.0 -0.0 1.0
  outer loop
    vertex 185.5 7.0 0.49999999999999994
    vertex 185.0 6.499999999999999 0.49999999999999994
    vertex 185.5 -0.49999999999999994 0.49999999999999994
  endloop
endfacet
facet normal 0.0 0.0 -1.0
  outer loop
    vertex -0.49999999999999994 7.0 0.0
    vertex 0.0 6.499999999999999 0.0
    vertex -0.49999999999999994 -0.49999999999999994 0.0
  endloop
endfacet
facet normal 0.0 0.0 -1.0
  outer loop
    vertex 0.0 6.499999999999999 0.0
    vertex -0.49999999999999994 7.0 0.0
    vertex 185.5 7.0 0.0
  endloop
endfacet
facet normal 0.0 0.0 -1.0
  outer loop
    vertex 0.0 6.499999999999999 0.0
    vertex 185.5 7.0 0.0
    vertex 185.0 6.499999999999999 0.0
  endloop
endfacet
facet normal 0.0 0.0 -1.0
  outer loop
    vertex 185.0 6.499999999999999 0.0
    vertex 185.5 7.0 0.0
    vertex 185.0 0.0 0.0
  endloop
endfacet
facet normal 0.0 0.0 -1.0
  outer loop
    vertex -0.49999999999999994 -0.49999999999999994 0.0
    vertex 0.0 0.0 0.0
    vertex 185.5 -0.49999999999999994 0.0
  endloop
endfacet
facet normal 0.0 0.0 -1.0
  outer loop
    vertex 0.0 0.0 0.0
    vertex -0.49999999999999994 -0.49999999999999994 0.0
    vertex 0.0 6.499999999999999 0.0
  endloop
endfacet
facet normal 0.0 0.0 -1.0
  outer loop
    vertex 185.5 -0.49999999999999994 0.0
    vertex 0.0 0.0 0.0
    vertex 185.0 0.0 0.0
  endloop
endfacet
facet normal 0.0 0.0 -1.0
  outer loop
    vertex 185.5 -0.49999999999999994 0.0
    vertex 185.0 0.0 0.0
    vertex 185.5 7.0 0.0
  endloop
endfacet
facet normal -0.0 -1.0 -0.0
  outer loop
    vertex 185.5 7.838401151746344 0.49999999999999994
    vertex -0.49999999999999994 7.838401151746344 0.0
    vertex 185.5 7.838401151746344 0.0
  endloop
endfacet
facet normal -0.0 -1.0 -0.0
  outer loop
    vertex -0.49999999999999994 7.838401151746344 0.0
    vertex 185.5 7.838401151746344 0.49999999999999994
    vertex -0.49999999999999994 7.838401151746344 0.49999999999999994
  endloop
endfacet
facet normal 1.0 0.0 0.0
  outer loop
    vertex 0.0 6.499999999999999 0.0
    vertex 0.0 0.0 0.49999999999999994
    vertex 0.0 0.0 0.0
  endloop
endfacet
facet normal 1.0 0.0 0.0
  outer loop
    vertex 0.0 0.0 0.49999999999999994
    vertex 0.0 6.499999999999999 0.0
    vertex 0.0 6.499999999999999 0.49999999999999994
  endloop
endfacet
facet normal -1.0 0.0 0.0
  outer loop
    vertex 185.0 6.499999999999999 0.49999999999999994
    vertex 185.0 0.0 0.0
    vertex 185.0 0.0 0.49999999999999994
  endloop
endfacet
facet normal -1.0 0.0 0.0
  outer loop
    vertex 185.0 0.0 0.0
    vertex 185.0 6.499999999999999 0.49999999999999994
    vertex 185.0 6.499999999999999 0.0
  endloop
endfacet
facet normal 1.0 0.0 0.0
  outer loop
    vertex 185.5 15.338401151746346 0.0
    vertex 185.5 7.838401151746344 0.49999999999999994
    vertex 185.5 7.838401151746344 0.0
  endloop
endfacet
facet normal 1.0 0.0 0.0
  outer loop
    vertex 185.5 7.838401151746344 0.49999999999999994
    vertex 185.5 15.338401151746346 0.0
    vertex 185.5 15.338401151746346 0.49999999999999994
  endloop
endfacet
facet normal 1.0 0.0 0.0
  outer loop
    vertex 185.5 7.0 0.0
    vertex 185.5 -0.49999999999999994 0.49999999999999994
    vertex 185.5 -0.49999999999999994 0.0
  endloop
endfacet
facet normal 1.0 0.0 0.0
  outer loop
    vertex 185.5 -0.49999999999999994 0.49999999999999994
    vertex 185.5 7.0 0.0
    vertex 185.5 7.0 0.49999999999999994
  endloop
endfacet
facet normal -0.0 1.0 0.0
  outer loop
    vertex 0.0 0.0 0.49999999999999994
    vertex 185.0 0.0 0.0
    vertex 0.0 0.0 0.0
  endloop
endfacet
facet normal -0.0 1.0 0.0
  outer loop
    vertex 185.0 0.0 0.0
    vertex 0.0 0.0 0.49999999999999994
    vertex 185.0 0.0 0.49999999999999994
  endloop
endfacet
facet normal 0.0 1.0 0.0
  outer loop
    vertex -0.49999999999999994 15.338401151746346 0.49999999999999994
    vertex 185.5 15.338401151746346 0.0
    vertex -0.49999999999999994 15.338401151746346 0.0
  endloop
endfacet
facet normal 0.0 1.0 0.0
  outer loop
    vertex 185.5 15.338401151746346 0.0
    vertex -0.49999999999999994 15.338401151746346 0.49999999999999994
    vertex 185.5 15.338401151746346 0.49999999999999994
  endloop
endfacet
facet normal 0.0 0.0 -1.0
  outer loop
    vertex -0.49999999999999994 15.338401151746346 0.0
    vertex 0.0 14.838401151746345 0.0
    vertex -0.49999999999999994 7.838401151746344 0.0
  endloop
endfacet
facet normal 0.0 0.0 -1.0
  outer loop
    vertex 0.0 14.838401151746345 0.0
    vertex -0.49999999999999994 15.338401151746346 0.0
    vertex 185.5 15.338401151746346 0.0
  endloop
endfacet
facet normal 0.0 0.0 -1.0
  outer loop
    vertex 0.0 14.838401151746345 0.0
    vertex 185.5 15.338401151746346 0.0
    vertex 185.0 14.838401151746345 0.0
  endloop
endfacet
facet normal 0.0 0.0 -1.0
  outer loop
    vertex 185.0 14.838401151746345 0.0
    vertex 185.5 15.338401151746346 0.0
    vertex 185.0 8.338401151746345 0.0
  endloop
endfacet
facet normal 0.0 0.0 -1.0
  outer loop
    vertex -0.49999999999999994 7.838401151746344 0.0
    vertex 0.0 8.338401151746345 0.0
    vertex 185.5 7.838401151746344 0.0
  endloop
endfacet
facet normal 0.0 0.0 -1.0
  outer loop
    vertex 0.0 8.338401151746345 0.0
    vertex -0.49999999999999994 7.838401151746344 0.0
    vertex 0.0 14.838401151746345 0.0
  endloop
endfacet
facet normal 0.0 0.0 -1.0
  outer loop
    vertex 185.5 7.838401151746344 0.0
    vertex 0.0 8.338401151746345 0.0
    vertex 185.0 8.338401151746345 0.0
  endloop
endfacet
facet normal 0.0 0.0 -1.0
  outer loop
    vertex 185.5 7.838401151746344 0.0
    vertex 185.0 8.338401151746345 0.0
    vertex 185.5 15.338401151746346 0.0
  endloop
endfacet
endsolid Untitled-55ed0320
